<svg xmlns="http://www.w3.org/2000/svg" xmlns:xlink="http://www.w3.org/1999/xlink" width="600" height="400" viewBox="0 0 2400 1600">
<defs>
  <clipPath id="clip060">
    <rect x="0" y="0" width="2400" height="1600"></rect>
  </clipPath>
</defs>
<path clip-path="url(#clip060)" d="M0 1600 L2400 1600 L2400 0 L0 0  Z" fill="#ffffff" fill-rule="evenodd" fill-opacity="1"></path>
<defs>
  <clipPath id="clip061">
    <rect x="480" y="0" width="1681" height="1600"></rect>
  </clipPath>
</defs>
<defs>
  <clipPath id="clip062">
    <rect x="249" y="47" width="2105" height="1377"></rect>
  </clipPath>
</defs>
<path clip-path="url(#clip060)" d="M220.19 1423.18 L2352.76 1423.18 L2352.76 47.2441 L220.19 47.2441  Z" fill="#ffffff" fill-rule="evenodd" fill-opacity="1"></path>
<defs>
  <clipPath id="clip063">
    <rect x="220" y="47" width="2134" height="1377"></rect>
  </clipPath>
</defs>
<polyline clip-path="url(#clip063)" style="stroke:#000000; stroke-linecap:round; stroke-linejoin:round; stroke-width:2; stroke-opacity:0.1; fill:none" points="280.546,1423.18 280.546,47.2441 "></polyline>
<polyline clip-path="url(#clip063)" style="stroke:#000000; stroke-linecap:round; stroke-linejoin:round; stroke-width:2; stroke-opacity:0.1; fill:none" points="639.806,1423.18 639.806,47.2441 "></polyline>
<polyline clip-path="url(#clip063)" style="stroke:#000000; stroke-linecap:round; stroke-linejoin:round; stroke-width:2; stroke-opacity:0.1; fill:none" points="999.065,1423.18 999.065,47.2441 "></polyline>
<polyline clip-path="url(#clip063)" style="stroke:#000000; stroke-linecap:round; stroke-linejoin:round; stroke-width:2; stroke-opacity:0.1; fill:none" points="1358.33,1423.18 1358.33,47.2441 "></polyline>
<polyline clip-path="url(#clip063)" style="stroke:#000000; stroke-linecap:round; stroke-linejoin:round; stroke-width:2; stroke-opacity:0.1; fill:none" points="1717.58,1423.18 1717.58,47.2441 "></polyline>
<polyline clip-path="url(#clip063)" style="stroke:#000000; stroke-linecap:round; stroke-linejoin:round; stroke-width:2; stroke-opacity:0.1; fill:none" points="2076.84,1423.18 2076.84,47.2441 "></polyline>
<polyline clip-path="url(#clip060)" style="stroke:#000000; stroke-linecap:round; stroke-linejoin:round; stroke-width:4; stroke-opacity:1; fill:none" points="220.19,1423.18 2352.76,1423.18 "></polyline>
<polyline clip-path="url(#clip060)" style="stroke:#000000; stroke-linecap:round; stroke-linejoin:round; stroke-width:4; stroke-opacity:1; fill:none" points="280.546,1423.18 280.546,1404.28 "></polyline>
<polyline clip-path="url(#clip060)" style="stroke:#000000; stroke-linecap:round; stroke-linejoin:round; stroke-width:4; stroke-opacity:1; fill:none" points="639.806,1423.18 639.806,1404.28 "></polyline>
<polyline clip-path="url(#clip060)" style="stroke:#000000; stroke-linecap:round; stroke-linejoin:round; stroke-width:4; stroke-opacity:1; fill:none" points="999.065,1423.18 999.065,1404.28 "></polyline>
<polyline clip-path="url(#clip060)" style="stroke:#000000; stroke-linecap:round; stroke-linejoin:round; stroke-width:4; stroke-opacity:1; fill:none" points="1358.33,1423.18 1358.33,1404.28 "></polyline>
<polyline clip-path="url(#clip060)" style="stroke:#000000; stroke-linecap:round; stroke-linejoin:round; stroke-width:4; stroke-opacity:1; fill:none" points="1717.58,1423.18 1717.58,1404.28 "></polyline>
<polyline clip-path="url(#clip060)" style="stroke:#000000; stroke-linecap:round; stroke-linejoin:round; stroke-width:4; stroke-opacity:1; fill:none" points="2076.84,1423.18 2076.84,1404.28 "></polyline>
<path clip-path="url(#clip060)" d="M255.245 1451.02 L273.602 1451.02 L273.602 1454.96 L259.528 1454.96 L259.528 1463.43 Q260.546 1463.08 261.565 1462.92 Q262.583 1462.73 263.602 1462.73 Q269.389 1462.73 272.768 1465.9 Q276.148 1469.08 276.148 1474.49 Q276.148 1480.07 272.676 1483.17 Q269.203 1486.25 262.884 1486.25 Q260.708 1486.25 258.44 1485.88 Q256.194 1485.51 253.787 1484.77 L253.787 1480.07 Q255.87 1481.2 258.092 1481.76 Q260.315 1482.32 262.791 1482.32 Q266.796 1482.32 269.134 1480.21 Q271.472 1478.1 271.472 1474.49 Q271.472 1470.88 269.134 1468.77 Q266.796 1466.67 262.791 1466.67 Q260.916 1466.67 259.041 1467.08 Q257.19 1467.5 255.245 1468.38 L255.245 1451.02 Z" fill="#000000" fill-rule="nonzero" fill-opacity="1"></path><path clip-path="url(#clip060)" d="M295.361 1454.1 Q291.75 1454.1 289.921 1457.66 Q288.115 1461.2 288.115 1468.33 Q288.115 1475.44 289.921 1479.01 Q291.75 1482.55 295.361 1482.55 Q298.995 1482.55 300.8 1479.01 Q302.629 1475.44 302.629 1468.33 Q302.629 1461.2 300.8 1457.66 Q298.995 1454.1 295.361 1454.1 M295.361 1450.39 Q301.171 1450.39 304.226 1455 Q307.305 1459.58 307.305 1468.33 Q307.305 1477.06 304.226 1481.67 Q301.171 1486.25 295.361 1486.25 Q289.551 1486.25 286.472 1481.67 Q283.416 1477.06 283.416 1468.33 Q283.416 1459.58 286.472 1455 Q289.551 1450.39 295.361 1450.39 Z" fill="#000000" fill-rule="nonzero" fill-opacity="1"></path><path clip-path="url(#clip060)" d="M625.211 1466.44 Q622.063 1466.44 620.211 1468.59 Q618.382 1470.74 618.382 1474.49 Q618.382 1478.22 620.211 1480.39 Q622.063 1482.55 625.211 1482.55 Q628.359 1482.55 630.188 1480.39 Q632.04 1478.22 632.04 1474.49 Q632.04 1470.74 630.188 1468.59 Q628.359 1466.44 625.211 1466.44 M634.493 1451.78 L634.493 1456.04 Q632.734 1455.21 630.928 1454.77 Q629.146 1454.33 627.387 1454.33 Q622.757 1454.33 620.303 1457.45 Q617.873 1460.58 617.526 1466.9 Q618.891 1464.89 620.952 1463.82 Q623.012 1462.73 625.489 1462.73 Q630.697 1462.73 633.706 1465.9 Q636.739 1469.05 636.739 1474.49 Q636.739 1479.82 633.59 1483.03 Q630.442 1486.25 625.211 1486.25 Q619.215 1486.25 616.044 1481.67 Q612.873 1477.06 612.873 1468.33 Q612.873 1460.14 616.762 1455.28 Q620.651 1450.39 627.202 1450.39 Q628.961 1450.39 630.743 1450.74 Q632.549 1451.09 634.493 1451.78 Z" fill="#000000" fill-rule="nonzero" fill-opacity="1"></path><path clip-path="url(#clip060)" d="M654.794 1454.1 Q651.183 1454.1 649.354 1457.66 Q647.549 1461.2 647.549 1468.33 Q647.549 1475.44 649.354 1479.01 Q651.183 1482.55 654.794 1482.55 Q658.428 1482.55 660.234 1479.01 Q662.062 1475.44 662.062 1468.33 Q662.062 1461.2 660.234 1457.66 Q658.428 1454.1 654.794 1454.1 M654.794 1450.39 Q660.604 1450.39 663.66 1455 Q666.738 1459.58 666.738 1468.33 Q666.738 1477.06 663.66 1481.67 Q660.604 1486.25 654.794 1486.25 Q648.984 1486.25 645.905 1481.67 Q642.85 1477.06 642.85 1468.33 Q642.85 1459.58 645.905 1455 Q648.984 1450.39 654.794 1450.39 Z" fill="#000000" fill-rule="nonzero" fill-opacity="1"></path><path clip-path="url(#clip060)" d="M972.422 1451.02 L994.644 1451.02 L994.644 1453.01 L982.098 1485.58 L977.214 1485.58 L989.019 1454.96 L972.422 1454.96 L972.422 1451.02 Z" fill="#000000" fill-rule="nonzero" fill-opacity="1"></path><path clip-path="url(#clip060)" d="M1013.76 1454.1 Q1010.15 1454.1 1008.32 1457.66 Q1006.52 1461.2 1006.52 1468.33 Q1006.52 1475.44 1008.32 1479.01 Q1010.15 1482.55 1013.76 1482.55 Q1017.4 1482.55 1019.2 1479.01 Q1021.03 1475.44 1021.03 1468.33 Q1021.03 1461.2 1019.2 1457.66 Q1017.4 1454.1 1013.76 1454.1 M1013.76 1450.39 Q1019.57 1450.39 1022.63 1455 Q1025.71 1459.58 1025.71 1468.33 Q1025.71 1477.06 1022.63 1481.67 Q1019.57 1486.25 1013.76 1486.25 Q1007.95 1486.25 1004.88 1481.67 Q1001.82 1477.06 1001.82 1468.33 Q1001.82 1459.58 1004.88 1455 Q1007.95 1450.39 1013.76 1450.39 Z" fill="#000000" fill-rule="nonzero" fill-opacity="1"></path><path clip-path="url(#clip060)" d="M1343.2 1469.17 Q1339.86 1469.17 1337.94 1470.95 Q1336.05 1472.73 1336.05 1475.86 Q1336.05 1478.98 1337.94 1480.77 Q1339.86 1482.55 1343.2 1482.55 Q1346.53 1482.55 1348.45 1480.77 Q1350.37 1478.96 1350.37 1475.86 Q1350.37 1472.73 1348.45 1470.95 Q1346.55 1469.17 1343.2 1469.17 M1338.52 1467.18 Q1335.51 1466.44 1333.82 1464.38 Q1332.16 1462.32 1332.16 1459.35 Q1332.16 1455.21 1335.1 1452.8 Q1338.06 1450.39 1343.2 1450.39 Q1348.36 1450.39 1351.3 1452.8 Q1354.24 1455.21 1354.24 1459.35 Q1354.24 1462.32 1352.55 1464.38 Q1350.88 1466.44 1347.9 1467.18 Q1351.28 1467.96 1353.15 1470.26 Q1355.05 1472.55 1355.05 1475.86 Q1355.05 1480.88 1351.97 1483.57 Q1348.92 1486.25 1343.2 1486.25 Q1337.48 1486.25 1334.4 1483.57 Q1331.35 1480.88 1331.35 1475.86 Q1331.35 1472.55 1333.24 1470.26 Q1335.14 1467.96 1338.52 1467.18 M1336.81 1459.79 Q1336.81 1462.48 1338.48 1463.98 Q1340.17 1465.49 1343.2 1465.49 Q1346.21 1465.49 1347.9 1463.98 Q1349.61 1462.48 1349.61 1459.79 Q1349.61 1457.11 1347.9 1455.6 Q1346.21 1454.1 1343.2 1454.1 Q1340.17 1454.1 1338.48 1455.6 Q1336.81 1457.11 1336.81 1459.79 Z" fill="#000000" fill-rule="nonzero" fill-opacity="1"></path><path clip-path="url(#clip060)" d="M1373.36 1454.1 Q1369.75 1454.1 1367.92 1457.66 Q1366.11 1461.2 1366.11 1468.33 Q1366.11 1475.44 1367.92 1479.01 Q1369.75 1482.55 1373.36 1482.55 Q1376.99 1482.55 1378.8 1479.01 Q1380.63 1475.44 1380.63 1468.33 Q1380.63 1461.2 1378.8 1457.66 Q1376.99 1454.1 1373.36 1454.1 M1373.36 1450.39 Q1379.17 1450.39 1382.23 1455 Q1385.3 1459.58 1385.3 1468.33 Q1385.3 1477.06 1382.23 1481.67 Q1379.17 1486.25 1373.36 1486.25 Q1367.55 1486.25 1364.47 1481.67 Q1361.42 1477.06 1361.42 1468.33 Q1361.42 1459.58 1364.47 1455 Q1367.55 1450.39 1373.36 1450.39 Z" fill="#000000" fill-rule="nonzero" fill-opacity="1"></path><path clip-path="url(#clip060)" d="M1692.71 1484.86 L1692.71 1480.6 Q1694.47 1481.44 1696.28 1481.88 Q1698.08 1482.32 1699.82 1482.32 Q1704.45 1482.32 1706.88 1479.21 Q1709.33 1476.09 1709.68 1469.75 Q1708.34 1471.74 1706.28 1472.8 Q1704.22 1473.87 1701.72 1473.87 Q1696.53 1473.87 1693.5 1470.74 Q1690.49 1467.59 1690.49 1462.15 Q1690.49 1456.83 1693.64 1453.61 Q1696.79 1450.39 1702.02 1450.39 Q1708.01 1450.39 1711.16 1455 Q1714.33 1459.58 1714.33 1468.33 Q1714.33 1476.51 1710.44 1481.39 Q1706.58 1486.25 1700.03 1486.25 Q1698.27 1486.25 1696.46 1485.9 Q1694.66 1485.56 1692.71 1484.86 M1702.02 1470.21 Q1705.17 1470.21 1706.99 1468.06 Q1708.85 1465.9 1708.85 1462.15 Q1708.85 1458.43 1706.99 1456.27 Q1705.17 1454.1 1702.02 1454.1 Q1698.87 1454.1 1697.02 1456.27 Q1695.19 1458.43 1695.19 1462.15 Q1695.19 1465.9 1697.02 1468.06 Q1698.87 1470.21 1702.02 1470.21 Z" fill="#000000" fill-rule="nonzero" fill-opacity="1"></path><path clip-path="url(#clip060)" d="M1732.74 1454.1 Q1729.12 1454.1 1727.3 1457.66 Q1725.49 1461.2 1725.49 1468.33 Q1725.49 1475.44 1727.3 1479.01 Q1729.12 1482.55 1732.74 1482.55 Q1736.37 1482.55 1738.17 1479.01 Q1740 1475.44 1740 1468.33 Q1740 1461.2 1738.17 1457.66 Q1736.37 1454.1 1732.74 1454.1 M1732.74 1450.39 Q1738.55 1450.39 1741.6 1455 Q1744.68 1459.58 1744.68 1468.33 Q1744.68 1477.06 1741.6 1481.67 Q1738.55 1486.25 1732.74 1486.25 Q1726.92 1486.25 1723.85 1481.67 Q1720.79 1477.06 1720.79 1468.33 Q1720.79 1459.58 1723.85 1455 Q1726.92 1450.39 1732.74 1450.39 Z" fill="#000000" fill-rule="nonzero" fill-opacity="1"></path><path clip-path="url(#clip060)" d="M2036.45 1481.64 L2044.09 1481.64 L2044.09 1455.28 L2035.78 1456.95 L2035.78 1452.69 L2044.04 1451.02 L2048.72 1451.02 L2048.72 1481.64 L2056.36 1481.64 L2056.36 1485.58 L2036.45 1485.58 L2036.45 1481.64 Z" fill="#000000" fill-rule="nonzero" fill-opacity="1"></path><path clip-path="url(#clip060)" d="M2075.8 1454.1 Q2072.19 1454.1 2070.36 1457.66 Q2068.56 1461.2 2068.56 1468.33 Q2068.56 1475.44 2070.36 1479.01 Q2072.19 1482.55 2075.8 1482.55 Q2079.44 1482.55 2081.24 1479.01 Q2083.07 1475.44 2083.07 1468.33 Q2083.07 1461.2 2081.24 1457.66 Q2079.44 1454.1 2075.8 1454.1 M2075.8 1450.39 Q2081.61 1450.39 2084.67 1455 Q2087.75 1459.58 2087.75 1468.33 Q2087.75 1477.06 2084.67 1481.67 Q2081.61 1486.25 2075.8 1486.25 Q2069.99 1486.25 2066.91 1481.67 Q2063.86 1477.06 2063.86 1468.33 Q2063.86 1459.58 2066.91 1455 Q2069.99 1450.39 2075.8 1450.39 Z" fill="#000000" fill-rule="nonzero" fill-opacity="1"></path><path clip-path="url(#clip060)" d="M2105.96 1454.1 Q2102.35 1454.1 2100.52 1457.66 Q2098.72 1461.2 2098.72 1468.33 Q2098.72 1475.44 2100.52 1479.01 Q2102.35 1482.55 2105.96 1482.55 Q2109.6 1482.55 2111.4 1479.01 Q2113.23 1475.44 2113.23 1468.33 Q2113.23 1461.2 2111.4 1457.66 Q2109.6 1454.1 2105.96 1454.1 M2105.96 1450.39 Q2111.77 1450.39 2114.83 1455 Q2117.91 1459.58 2117.91 1468.33 Q2117.91 1477.06 2114.83 1481.67 Q2111.77 1486.25 2105.96 1486.25 Q2100.15 1486.25 2097.08 1481.67 Q2094.02 1477.06 2094.02 1468.33 Q2094.02 1459.58 2097.08 1455 Q2100.15 1450.39 2105.96 1450.39 Z" fill="#000000" fill-rule="nonzero" fill-opacity="1"></path><path clip-path="url(#clip060)" d="M943.25 1520.52 L952.831 1520.52 L964.957 1552.86 L977.148 1520.52 L986.728 1520.52 L986.728 1568.04 L980.458 1568.04 L980.458 1526.32 L968.204 1558.91 L961.743 1558.91 L949.489 1526.32 L949.489 1568.04 L943.25 1568.04 L943.25 1520.52 Z" fill="#000000" fill-rule="nonzero" fill-opacity="1"></path><path clip-path="url(#clip060)" d="M999.237 1532.4 L1005.09 1532.4 L1005.09 1568.04 L999.237 1568.04 L999.237 1532.4 M999.237 1518.52 L1005.09 1518.52 L1005.09 1525.93 L999.237 1525.93 L999.237 1518.52 Z" fill="#000000" fill-rule="nonzero" fill-opacity="1"></path><path clip-path="url(#clip060)" d="M1046.98 1532.4 L1034.09 1549.74 L1047.65 1568.04 L1040.74 1568.04 L1030.36 1554.04 L1019.99 1568.04 L1013.08 1568.04 L1026.93 1549.39 L1014.26 1532.4 L1021.17 1532.4 L1030.62 1545.1 L1040.07 1532.4 L1046.98 1532.4 Z" fill="#000000" fill-rule="nonzero" fill-opacity="1"></path><path clip-path="url(#clip060)" d="M1055.92 1532.4 L1061.78 1532.4 L1061.78 1568.04 L1055.92 1568.04 L1055.92 1532.4 M1055.92 1518.52 L1061.78 1518.52 L1061.78 1525.93 L1055.92 1525.93 L1055.92 1518.52 Z" fill="#000000" fill-rule="nonzero" fill-opacity="1"></path><path clip-path="url(#clip060)" d="M1103.67 1546.53 L1103.67 1568.04 L1097.81 1568.04 L1097.81 1546.72 Q1097.81 1541.66 1095.84 1539.14 Q1093.86 1536.63 1089.92 1536.63 Q1085.17 1536.63 1082.44 1539.65 Q1079.7 1542.68 1079.7 1547.9 L1079.7 1568.04 L1073.81 1568.04 L1073.81 1532.4 L1079.7 1532.4 L1079.7 1537.93 Q1081.8 1534.72 1084.63 1533.13 Q1087.5 1531.54 1091.22 1531.54 Q1097.36 1531.54 1100.51 1535.36 Q1103.67 1539.14 1103.67 1546.53 Z" fill="#000000" fill-rule="nonzero" fill-opacity="1"></path><path clip-path="url(#clip060)" d="M1138.8 1549.81 Q1138.8 1543.44 1136.16 1539.94 Q1133.55 1536.44 1128.81 1536.44 Q1124.1 1536.44 1121.46 1539.94 Q1118.85 1543.44 1118.85 1549.81 Q1118.85 1556.14 1121.46 1559.64 Q1124.1 1563.14 1128.81 1563.14 Q1133.55 1563.14 1136.16 1559.64 Q1138.8 1556.14 1138.8 1549.81 M1144.66 1563.62 Q1144.66 1572.72 1140.62 1577.15 Q1136.58 1581.6 1128.24 1581.6 Q1125.15 1581.6 1122.41 1581.13 Q1119.68 1580.68 1117.1 1579.72 L1117.1 1574.03 Q1119.68 1575.43 1122.19 1576.1 Q1124.7 1576.76 1127.31 1576.76 Q1133.08 1576.76 1135.94 1573.74 Q1138.8 1570.75 1138.8 1564.67 L1138.8 1561.77 Q1136.99 1564.92 1134.16 1566.48 Q1131.32 1568.04 1127.38 1568.04 Q1120.82 1568.04 1116.81 1563.05 Q1112.8 1558.05 1112.8 1549.81 Q1112.8 1541.53 1116.81 1536.53 Q1120.82 1531.54 1127.38 1531.54 Q1131.32 1531.54 1134.16 1533.1 Q1136.99 1534.66 1138.8 1537.81 L1138.8 1532.4 L1144.66 1532.4 L1144.66 1563.62 Z" fill="#000000" fill-rule="nonzero" fill-opacity="1"></path><path clip-path="url(#clip060)" d="M1184.13 1525.81 L1184.13 1543.66 L1192.21 1543.66 Q1196.7 1543.66 1199.15 1541.34 Q1201.6 1539.02 1201.6 1534.72 Q1201.6 1530.45 1199.15 1528.13 Q1196.7 1525.81 1192.21 1525.81 L1184.13 1525.81 M1177.7 1520.52 L1192.21 1520.52 Q1200.2 1520.52 1204.28 1524.15 Q1208.38 1527.75 1208.38 1534.72 Q1208.38 1541.75 1204.28 1545.35 Q1200.2 1548.95 1192.21 1548.95 L1184.13 1548.95 L1184.13 1568.04 L1177.7 1568.04 L1177.7 1520.52 Z" fill="#000000" fill-rule="nonzero" fill-opacity="1"></path><path clip-path="url(#clip060)" d="M1236.26 1537.87 Q1235.28 1537.3 1234.1 1537.04 Q1232.95 1536.76 1231.55 1536.76 Q1226.59 1536.76 1223.91 1540 Q1221.27 1543.22 1221.27 1549.27 L1221.27 1568.04 L1215.38 1568.04 L1215.38 1532.4 L1221.27 1532.4 L1221.27 1537.93 Q1223.12 1534.69 1226.08 1533.13 Q1229.04 1531.54 1233.27 1531.54 Q1233.88 1531.54 1234.61 1531.63 Q1235.34 1531.7 1236.23 1531.85 L1236.26 1537.87 Z" fill="#000000" fill-rule="nonzero" fill-opacity="1"></path><path clip-path="url(#clip060)" d="M1271.47 1548.76 L1271.47 1551.62 L1244.54 1551.62 Q1244.92 1557.67 1248.17 1560.85 Q1251.45 1564 1257.27 1564 Q1260.64 1564 1263.8 1563.17 Q1266.98 1562.35 1270.1 1560.69 L1270.1 1566.23 Q1266.95 1567.57 1263.64 1568.27 Q1260.33 1568.97 1256.92 1568.97 Q1248.39 1568.97 1243.39 1564 Q1238.43 1559.04 1238.43 1550.57 Q1238.43 1541.82 1243.14 1536.69 Q1247.88 1531.54 1255.9 1531.54 Q1263.1 1531.54 1267.26 1536.18 Q1271.47 1540.8 1271.47 1548.76 M1265.61 1547.04 Q1265.55 1542.23 1262.9 1539.37 Q1260.29 1536.5 1255.97 1536.5 Q1251.06 1536.5 1248.1 1539.27 Q1245.18 1542.04 1244.73 1547.07 L1265.61 1547.04 Z" fill="#000000" fill-rule="nonzero" fill-opacity="1"></path><path clip-path="url(#clip060)" d="M1303.8 1533.45 L1303.8 1538.98 Q1301.32 1537.71 1298.65 1537.07 Q1295.97 1536.44 1293.11 1536.44 Q1288.75 1536.44 1286.55 1537.77 Q1284.39 1539.11 1284.39 1541.79 Q1284.39 1543.82 1285.95 1545 Q1287.51 1546.15 1292.22 1547.2 L1294.22 1547.64 Q1300.46 1548.98 1303.07 1551.43 Q1305.71 1553.85 1305.71 1558.21 Q1305.71 1563.17 1301.77 1566.07 Q1297.85 1568.97 1290.98 1568.97 Q1288.11 1568.97 1284.99 1568.39 Q1281.91 1567.85 1278.47 1566.74 L1278.47 1560.69 Q1281.71 1562.38 1284.87 1563.24 Q1288.02 1564.07 1291.1 1564.07 Q1295.24 1564.07 1297.47 1562.66 Q1299.7 1561.23 1299.7 1558.65 Q1299.7 1556.27 1298.07 1554.99 Q1296.48 1553.72 1291.04 1552.54 L1289 1552.07 Q1283.56 1550.92 1281.14 1548.56 Q1278.72 1546.18 1278.72 1542.04 Q1278.72 1537.01 1282.29 1534.27 Q1285.85 1531.54 1292.41 1531.54 Q1295.66 1531.54 1298.52 1532.01 Q1301.38 1532.49 1303.8 1533.45 Z" fill="#000000" fill-rule="nonzero" fill-opacity="1"></path><path clip-path="url(#clip060)" d="M1337.76 1533.45 L1337.76 1538.98 Q1335.28 1537.71 1332.61 1537.07 Q1329.93 1536.44 1327.07 1536.44 Q1322.71 1536.44 1320.51 1537.77 Q1318.35 1539.11 1318.35 1541.79 Q1318.35 1543.82 1319.91 1545 Q1321.47 1546.15 1326.18 1547.2 L1328.18 1547.64 Q1334.42 1548.98 1337.03 1551.43 Q1339.67 1553.85 1339.67 1558.21 Q1339.67 1563.17 1335.73 1566.07 Q1331.81 1568.97 1324.94 1568.97 Q1322.07 1568.97 1318.95 1568.39 Q1315.87 1567.85 1312.43 1566.74 L1312.43 1560.69 Q1315.68 1562.38 1318.83 1563.24 Q1321.98 1564.07 1325.07 1564.07 Q1329.2 1564.07 1331.43 1562.66 Q1333.66 1561.23 1333.66 1558.65 Q1333.66 1556.27 1332.04 1554.99 Q1330.44 1553.72 1325 1552.54 L1322.96 1552.07 Q1317.52 1550.92 1315.1 1548.56 Q1312.68 1546.18 1312.68 1542.04 Q1312.68 1537.01 1316.25 1534.27 Q1319.81 1531.54 1326.37 1531.54 Q1329.62 1531.54 1332.48 1532.01 Q1335.35 1532.49 1337.76 1533.45 Z" fill="#000000" fill-rule="nonzero" fill-opacity="1"></path><path clip-path="url(#clip060)" d="M1348.4 1553.98 L1348.4 1532.4 L1354.25 1532.4 L1354.25 1553.75 Q1354.25 1558.81 1356.23 1561.36 Q1358.2 1563.87 1362.15 1563.87 Q1366.89 1563.87 1369.63 1560.85 Q1372.39 1557.83 1372.39 1552.61 L1372.39 1532.4 L1378.25 1532.4 L1378.25 1568.04 L1372.39 1568.04 L1372.39 1562.57 Q1370.26 1565.82 1367.43 1567.41 Q1364.63 1568.97 1360.9 1568.97 Q1354.76 1568.97 1351.58 1565.15 Q1348.4 1561.33 1348.4 1553.98 M1363.13 1531.54 L1363.13 1531.54 Z" fill="#000000" fill-rule="nonzero" fill-opacity="1"></path><path clip-path="url(#clip060)" d="M1410.97 1537.87 Q1409.98 1537.3 1408.81 1537.04 Q1407.66 1536.76 1406.26 1536.76 Q1401.29 1536.76 1398.62 1540 Q1395.98 1543.22 1395.98 1549.27 L1395.98 1568.04 L1390.09 1568.04 L1390.09 1532.4 L1395.98 1532.4 L1395.98 1537.93 Q1397.83 1534.69 1400.79 1533.13 Q1403.75 1531.54 1407.98 1531.54 Q1408.58 1531.54 1409.32 1531.63 Q1410.05 1531.7 1410.94 1531.85 L1410.97 1537.87 Z" fill="#000000" fill-rule="nonzero" fill-opacity="1"></path><path clip-path="url(#clip060)" d="M1446.17 1548.76 L1446.17 1551.62 L1419.25 1551.62 Q1419.63 1557.67 1422.87 1560.85 Q1426.15 1564 1431.98 1564 Q1435.35 1564 1438.5 1563.17 Q1441.68 1562.35 1444.8 1560.69 L1444.8 1566.23 Q1441.65 1567.57 1438.34 1568.27 Q1435.03 1568.97 1431.63 1568.97 Q1423.1 1568.97 1418.1 1564 Q1413.13 1559.04 1413.13 1550.57 Q1413.13 1541.82 1417.85 1536.69 Q1422.59 1531.54 1430.61 1531.54 Q1437.8 1531.54 1441.97 1536.18 Q1446.17 1540.8 1446.17 1548.76 M1440.32 1547.04 Q1440.25 1542.23 1437.61 1539.37 Q1435 1536.5 1430.67 1536.5 Q1425.77 1536.5 1422.81 1539.27 Q1419.88 1542.04 1419.44 1547.07 L1440.32 1547.04 Z" fill="#000000" fill-rule="nonzero" fill-opacity="1"></path><path clip-path="url(#clip060)" d="M1475.96 1518.52 L1489.46 1518.52 L1489.46 1523.07 L1481.82 1523.07 L1481.82 1572.09 L1489.46 1572.09 L1489.46 1576.64 L1475.96 1576.64 L1475.96 1518.52 Z" fill="#000000" fill-rule="nonzero" fill-opacity="1"></path><path clip-path="url(#clip060)" d="M1501.71 1518.52 L1507.6 1518.52 L1507.6 1547.77 L1525.08 1532.4 L1532.56 1532.4 L1513.65 1549.07 L1533.35 1568.04 L1525.71 1568.04 L1507.6 1550.63 L1507.6 1568.04 L1501.71 1568.04 L1501.71 1518.52 Z" fill="#000000" fill-rule="nonzero" fill-opacity="1"></path><path clip-path="url(#clip060)" d="M1546.37 1525.81 L1546.37 1543.66 L1554.45 1543.66 Q1558.94 1543.66 1561.39 1541.34 Q1563.84 1539.02 1563.84 1534.72 Q1563.84 1530.45 1561.39 1528.13 Q1558.94 1525.81 1554.45 1525.81 L1546.37 1525.81 M1539.94 1520.52 L1554.45 1520.52 Q1562.44 1520.52 1566.52 1524.15 Q1570.62 1527.75 1570.62 1534.72 Q1570.62 1541.75 1566.52 1545.35 Q1562.44 1548.95 1554.45 1548.95 L1546.37 1548.95 L1546.37 1568.04 L1539.94 1568.04 L1539.94 1520.52 Z" fill="#000000" fill-rule="nonzero" fill-opacity="1"></path><path clip-path="url(#clip060)" d="M1592.27 1550.12 Q1585.17 1550.12 1582.43 1551.75 Q1579.69 1553.37 1579.69 1557.29 Q1579.69 1560.4 1581.73 1562.25 Q1583.8 1564.07 1587.33 1564.07 Q1592.2 1564.07 1595.13 1560.63 Q1598.09 1557.16 1598.09 1551.43 L1598.09 1550.12 L1592.27 1550.12 M1603.95 1547.71 L1603.95 1568.04 L1598.09 1568.04 L1598.09 1562.63 Q1596.09 1565.88 1593.09 1567.44 Q1590.1 1568.97 1585.77 1568.97 Q1580.3 1568.97 1577.05 1565.91 Q1573.84 1562.82 1573.84 1557.67 Q1573.84 1551.65 1577.85 1548.6 Q1581.89 1545.54 1589.88 1545.54 L1598.09 1545.54 L1598.09 1544.97 Q1598.09 1540.93 1595.42 1538.73 Q1592.78 1536.5 1587.97 1536.5 Q1584.91 1536.5 1582.02 1537.23 Q1579.12 1537.97 1576.45 1539.43 L1576.45 1534.02 Q1579.66 1532.78 1582.69 1532.17 Q1585.71 1531.54 1588.57 1531.54 Q1596.31 1531.54 1600.13 1535.55 Q1603.95 1539.56 1603.95 1547.71 Z" fill="#000000" fill-rule="nonzero" fill-opacity="1"></path><path clip-path="url(#clip060)" d="M1629.7 1518.52 L1629.7 1576.64 L1616.2 1576.64 L1616.2 1572.09 L1623.81 1572.09 L1623.81 1523.07 L1616.2 1523.07 L1616.2 1518.52 L1629.7 1518.52 Z" fill="#000000" fill-rule="nonzero" fill-opacity="1"></path><polyline clip-path="url(#clip063)" style="stroke:#000000; stroke-linecap:round; stroke-linejoin:round; stroke-width:2; stroke-opacity:0.1; fill:none" points="220.19,1212.03 2352.76,1212.03 "></polyline>
<polyline clip-path="url(#clip063)" style="stroke:#000000; stroke-linecap:round; stroke-linejoin:round; stroke-width:2; stroke-opacity:0.1; fill:none" points="220.19,971.838 2352.76,971.838 "></polyline>
<polyline clip-path="url(#clip063)" style="stroke:#000000; stroke-linecap:round; stroke-linejoin:round; stroke-width:2; stroke-opacity:0.1; fill:none" points="220.19,731.649 2352.76,731.649 "></polyline>
<polyline clip-path="url(#clip063)" style="stroke:#000000; stroke-linecap:round; stroke-linejoin:round; stroke-width:2; stroke-opacity:0.1; fill:none" points="220.19,491.459 2352.76,491.459 "></polyline>
<polyline clip-path="url(#clip063)" style="stroke:#000000; stroke-linecap:round; stroke-linejoin:round; stroke-width:2; stroke-opacity:0.1; fill:none" points="220.19,251.27 2352.76,251.27 "></polyline>
<polyline clip-path="url(#clip060)" style="stroke:#000000; stroke-linecap:round; stroke-linejoin:round; stroke-width:4; stroke-opacity:1; fill:none" points="220.19,1423.18 220.19,47.2441 "></polyline>
<polyline clip-path="url(#clip060)" style="stroke:#000000; stroke-linecap:round; stroke-linejoin:round; stroke-width:4; stroke-opacity:1; fill:none" points="220.19,1212.03 239.088,1212.03 "></polyline>
<polyline clip-path="url(#clip060)" style="stroke:#000000; stroke-linecap:round; stroke-linejoin:round; stroke-width:4; stroke-opacity:1; fill:none" points="220.19,971.838 239.088,971.838 "></polyline>
<polyline clip-path="url(#clip060)" style="stroke:#000000; stroke-linecap:round; stroke-linejoin:round; stroke-width:4; stroke-opacity:1; fill:none" points="220.19,731.649 239.088,731.649 "></polyline>
<polyline clip-path="url(#clip060)" style="stroke:#000000; stroke-linecap:round; stroke-linejoin:round; stroke-width:4; stroke-opacity:1; fill:none" points="220.19,491.459 239.088,491.459 "></polyline>
<polyline clip-path="url(#clip060)" style="stroke:#000000; stroke-linecap:round; stroke-linejoin:round; stroke-width:4; stroke-opacity:1; fill:none" points="220.19,251.27 239.088,251.27 "></polyline>
<path clip-path="url(#clip060)" d="M132.779 1210.67 Q136.135 1211.39 138.01 1213.66 Q139.908 1215.93 139.908 1219.26 Q139.908 1224.38 136.39 1227.18 Q132.871 1229.98 126.39 1229.98 Q124.214 1229.98 121.899 1229.54 Q119.607 1229.12 117.154 1228.27 L117.154 1223.75 Q119.098 1224.89 121.413 1225.46 Q123.728 1226.04 126.251 1226.04 Q130.649 1226.04 132.941 1224.31 Q135.255 1222.57 135.255 1219.26 Q135.255 1216.21 133.103 1214.49 Q130.973 1212.76 127.154 1212.76 L123.126 1212.76 L123.126 1208.91 L127.339 1208.91 Q130.788 1208.91 132.617 1207.55 Q134.445 1206.16 134.445 1203.57 Q134.445 1200.9 132.547 1199.49 Q130.672 1198.06 127.154 1198.06 Q125.232 1198.06 123.033 1198.47 Q120.834 1198.89 118.195 1199.77 L118.195 1195.6 Q120.857 1194.86 123.172 1194.49 Q125.51 1194.12 127.57 1194.12 Q132.894 1194.12 135.996 1196.55 Q139.098 1198.96 139.098 1203.08 Q139.098 1205.95 137.454 1207.94 Q135.811 1209.91 132.779 1210.67 Z" fill="#000000" fill-rule="nonzero" fill-opacity="1"></path><path clip-path="url(#clip060)" d="M148.774 1223.43 L153.658 1223.43 L153.658 1229.31 L148.774 1229.31 L148.774 1223.43 Z" fill="#000000" fill-rule="nonzero" fill-opacity="1"></path><path clip-path="url(#clip060)" d="M167.871 1225.37 L184.19 1225.37 L184.19 1229.31 L162.246 1229.31 L162.246 1225.37 Q164.908 1222.62 169.491 1217.99 Q174.098 1213.33 175.278 1211.99 Q177.524 1209.47 178.403 1207.73 Q179.306 1205.97 179.306 1204.28 Q179.306 1201.53 177.362 1199.79 Q175.44 1198.06 172.339 1198.06 Q170.139 1198.06 167.686 1198.82 Q165.255 1199.59 162.477 1201.14 L162.477 1196.41 Q165.302 1195.28 167.755 1194.7 Q170.209 1194.12 172.246 1194.12 Q177.616 1194.12 180.811 1196.81 Q184.005 1199.49 184.005 1203.98 Q184.005 1206.11 183.195 1208.03 Q182.408 1209.93 180.301 1212.52 Q179.723 1213.2 176.621 1216.41 Q173.519 1219.61 167.871 1225.37 Z" fill="#000000" fill-rule="nonzero" fill-opacity="1"></path><path clip-path="url(#clip060)" d="M130.695 970.484 Q134.052 971.201 135.927 973.47 Q137.825 975.738 137.825 979.072 Q137.825 984.187 134.306 986.988 Q130.788 989.789 124.306 989.789 Q122.13 989.789 119.816 989.349 Q117.524 988.933 115.07 988.076 L115.07 983.562 Q117.015 984.697 119.33 985.275 Q121.644 985.854 124.168 985.854 Q128.566 985.854 130.857 984.118 Q133.172 982.382 133.172 979.072 Q133.172 976.016 131.019 974.303 Q128.89 972.567 125.07 972.567 L121.043 972.567 L121.043 968.724 L125.255 968.724 Q128.705 968.724 130.533 967.359 Q132.362 965.97 132.362 963.377 Q132.362 960.715 130.464 959.303 Q128.589 957.868 125.07 957.868 Q123.149 957.868 120.95 958.285 Q118.751 958.701 116.112 959.581 L116.112 955.414 Q118.774 954.674 121.089 954.303 Q123.427 953.933 125.487 953.933 Q130.811 953.933 133.913 956.363 Q137.015 958.771 137.015 962.891 Q137.015 965.761 135.371 967.752 Q133.728 969.72 130.695 970.484 Z" fill="#000000" fill-rule="nonzero" fill-opacity="1"></path><path clip-path="url(#clip060)" d="M146.691 983.238 L151.575 983.238 L151.575 989.118 L146.691 989.118 L146.691 983.238 Z" fill="#000000" fill-rule="nonzero" fill-opacity="1"></path><path clip-path="url(#clip060)" d="M174.607 958.632 L162.802 977.081 L174.607 977.081 L174.607 958.632 M173.38 954.558 L179.26 954.558 L179.26 977.081 L184.19 977.081 L184.19 980.97 L179.26 980.97 L179.26 989.118 L174.607 989.118 L174.607 980.97 L159.005 980.97 L159.005 976.456 L173.38 954.558 Z" fill="#000000" fill-rule="nonzero" fill-opacity="1"></path><path clip-path="url(#clip060)" d="M131.019 730.294 Q134.376 731.012 136.251 733.281 Q138.149 735.549 138.149 738.882 Q138.149 743.998 134.63 746.799 Q131.112 749.6 124.63 749.6 Q122.455 749.6 120.14 749.16 Q117.848 748.743 115.394 747.887 L115.394 743.373 Q117.339 744.507 119.654 745.086 Q121.968 745.665 124.492 745.665 Q128.89 745.665 131.181 743.929 Q133.496 742.193 133.496 738.882 Q133.496 735.827 131.343 734.114 Q129.214 732.378 125.394 732.378 L121.367 732.378 L121.367 728.535 L125.58 728.535 Q129.029 728.535 130.857 727.169 Q132.686 725.781 132.686 723.188 Q132.686 720.526 130.788 719.114 Q128.913 717.679 125.394 717.679 Q123.473 717.679 121.274 718.095 Q119.075 718.512 116.436 719.392 L116.436 715.225 Q119.098 714.484 121.413 714.114 Q123.751 713.744 125.811 713.744 Q131.135 713.744 134.237 716.174 Q137.339 718.582 137.339 722.702 Q137.339 725.572 135.695 727.563 Q134.052 729.531 131.019 730.294 Z" fill="#000000" fill-rule="nonzero" fill-opacity="1"></path><path clip-path="url(#clip060)" d="M147.015 743.049 L151.899 743.049 L151.899 748.929 L147.015 748.929 L147.015 743.049 Z" fill="#000000" fill-rule="nonzero" fill-opacity="1"></path><path clip-path="url(#clip060)" d="M172.663 729.785 Q169.514 729.785 167.663 731.938 Q165.834 734.091 165.834 737.841 Q165.834 741.568 167.663 743.743 Q169.514 745.896 172.663 745.896 Q175.811 745.896 177.639 743.743 Q179.491 741.568 179.491 737.841 Q179.491 734.091 177.639 731.938 Q175.811 729.785 172.663 729.785 M181.945 715.132 L181.945 719.392 Q180.186 718.558 178.38 718.119 Q176.598 717.679 174.839 717.679 Q170.209 717.679 167.755 720.804 Q165.325 723.929 164.977 730.248 Q166.343 728.234 168.403 727.169 Q170.464 726.081 172.94 726.081 Q178.149 726.081 181.158 729.253 Q184.19 732.401 184.19 737.841 Q184.19 743.165 181.042 746.382 Q177.894 749.6 172.663 749.6 Q166.667 749.6 163.496 745.017 Q160.325 740.41 160.325 731.683 Q160.325 723.489 164.214 718.628 Q168.102 713.744 174.653 713.744 Q176.413 713.744 178.195 714.091 Q180.001 714.438 181.945 715.132 Z" fill="#000000" fill-rule="nonzero" fill-opacity="1"></path><path clip-path="url(#clip060)" d="M131.274 490.105 Q134.63 490.823 136.505 493.091 Q138.404 495.36 138.404 498.693 Q138.404 503.809 134.885 506.61 Q131.367 509.411 124.885 509.411 Q122.709 509.411 120.394 508.971 Q118.103 508.554 115.649 507.698 L115.649 503.184 Q117.593 504.318 119.908 504.897 Q122.223 505.475 124.746 505.475 Q129.144 505.475 131.436 503.739 Q133.751 502.003 133.751 498.693 Q133.751 495.638 131.598 493.925 Q129.468 492.188 125.649 492.188 L121.621 492.188 L121.621 488.346 L125.834 488.346 Q129.283 488.346 131.112 486.98 Q132.941 485.591 132.941 482.999 Q132.941 480.337 131.042 478.925 Q129.167 477.489 125.649 477.489 Q123.728 477.489 121.529 477.906 Q119.33 478.323 116.691 479.202 L116.691 475.036 Q119.353 474.295 121.668 473.925 Q124.005 473.554 126.066 473.554 Q131.39 473.554 134.492 475.985 Q137.593 478.392 137.593 482.513 Q137.593 485.383 135.95 487.374 Q134.306 489.341 131.274 490.105 Z" fill="#000000" fill-rule="nonzero" fill-opacity="1"></path><path clip-path="url(#clip060)" d="M147.269 502.86 L152.153 502.86 L152.153 508.739 L147.269 508.739 L147.269 502.86 Z" fill="#000000" fill-rule="nonzero" fill-opacity="1"></path><path clip-path="url(#clip060)" d="M172.339 492.327 Q169.005 492.327 167.084 494.11 Q165.186 495.892 165.186 499.017 Q165.186 502.142 167.084 503.925 Q169.005 505.707 172.339 505.707 Q175.672 505.707 177.593 503.925 Q179.514 502.119 179.514 499.017 Q179.514 495.892 177.593 494.11 Q175.695 492.327 172.339 492.327 M167.663 490.337 Q164.653 489.596 162.964 487.536 Q161.297 485.476 161.297 482.513 Q161.297 478.369 164.237 475.962 Q167.2 473.554 172.339 473.554 Q177.501 473.554 180.44 475.962 Q183.38 478.369 183.38 482.513 Q183.38 485.476 181.69 487.536 Q180.024 489.596 177.038 490.337 Q180.417 491.124 182.292 493.415 Q184.19 495.707 184.19 499.017 Q184.19 504.04 181.112 506.725 Q178.056 509.411 172.339 509.411 Q166.621 509.411 163.542 506.725 Q160.487 504.04 160.487 499.017 Q160.487 495.707 162.385 493.415 Q164.283 491.124 167.663 490.337 M165.95 482.952 Q165.95 485.638 167.616 487.142 Q169.306 488.647 172.339 488.647 Q175.348 488.647 177.038 487.142 Q178.751 485.638 178.751 482.952 Q178.751 480.267 177.038 478.763 Q175.348 477.258 172.339 477.258 Q169.306 477.258 167.616 478.763 Q165.95 480.267 165.95 482.952 Z" fill="#000000" fill-rule="nonzero" fill-opacity="1"></path><path clip-path="url(#clip060)" d="M129.862 238.064 L118.056 256.513 L129.862 256.513 L129.862 238.064 M128.635 233.99 L134.515 233.99 L134.515 256.513 L139.445 256.513 L139.445 260.402 L134.515 260.402 L134.515 268.55 L129.862 268.55 L129.862 260.402 L114.26 260.402 L114.26 255.888 L128.635 233.99 Z" fill="#000000" fill-rule="nonzero" fill-opacity="1"></path><path clip-path="url(#clip060)" d="M147.177 262.67 L152.061 262.67 L152.061 268.55 L147.177 268.55 L147.177 262.67 Z" fill="#000000" fill-rule="nonzero" fill-opacity="1"></path><path clip-path="url(#clip060)" d="M172.246 237.069 Q168.635 237.069 166.806 240.634 Q165.001 244.175 165.001 251.305 Q165.001 258.411 166.806 261.976 Q168.635 265.518 172.246 265.518 Q175.88 265.518 177.686 261.976 Q179.514 258.411 179.514 251.305 Q179.514 244.175 177.686 240.634 Q175.88 237.069 172.246 237.069 M172.246 233.365 Q178.056 233.365 181.112 237.972 Q184.19 242.555 184.19 251.305 Q184.19 260.032 181.112 264.638 Q178.056 269.221 172.246 269.221 Q166.436 269.221 163.357 264.638 Q160.302 260.032 160.302 251.305 Q160.302 242.555 163.357 237.972 Q166.436 233.365 172.246 233.365 Z" fill="#000000" fill-rule="nonzero" fill-opacity="1"></path><path clip-path="url(#clip060)" d="M20.1444 756.298 L26.9239 756.298 Q23.9002 759.545 22.4043 763.237 Q20.9083 766.897 20.9083 771.035 Q20.9083 779.183 25.9054 783.512 Q30.8707 787.84 40.2919 787.84 Q49.6813 787.84 54.6784 783.512 Q59.6436 779.183 59.6436 771.035 Q59.6436 766.897 58.1477 763.237 Q56.6518 759.545 53.6281 756.298 L60.3439 756.298 Q62.6355 759.672 63.7814 763.46 Q64.9272 767.216 64.9272 771.417 Q64.9272 782.207 58.3387 788.413 Q51.7183 794.62 40.2919 794.62 Q28.8336 794.62 22.2451 788.413 Q15.6248 782.207 15.6248 771.417 Q15.6248 767.152 16.7706 763.396 Q17.8846 759.609 20.1444 756.298 Z" fill="#000000" fill-rule="nonzero" fill-opacity="1"></path><path clip-path="url(#clip060)" d="M32.4621 732.809 Q32.4621 737.52 36.1542 740.257 Q39.8145 742.994 46.212 742.994 Q52.6095 742.994 56.3017 740.289 Q59.9619 737.551 59.9619 732.809 Q59.9619 728.13 56.2698 725.393 Q52.5777 722.656 46.212 722.656 Q39.8781 722.656 36.186 725.393 Q32.4621 728.13 32.4621 732.809 M27.4968 732.809 Q27.4968 725.17 32.4621 720.81 Q37.4273 716.449 46.212 716.449 Q54.9649 716.449 59.9619 720.81 Q64.9272 725.17 64.9272 732.809 Q64.9272 740.48 59.9619 744.84 Q54.9649 749.169 46.212 749.169 Q37.4273 749.169 32.4621 744.84 Q27.4968 740.48 27.4968 732.809 Z" fill="#000000" fill-rule="nonzero" fill-opacity="1"></path><path clip-path="url(#clip060)" d="M21.7677 700.057 L39.6235 700.057 L39.6235 691.973 Q39.6235 687.485 37.3 685.034 Q34.9765 682.583 30.6797 682.583 Q26.4147 682.583 24.0912 685.034 Q21.7677 687.485 21.7677 691.973 L21.7677 700.057 M16.4842 706.487 L16.4842 691.973 Q16.4842 683.984 20.1126 679.91 Q23.7092 675.804 30.6797 675.804 Q37.7138 675.804 41.3104 679.91 Q44.907 683.984 44.907 691.973 L44.907 700.057 L64.0042 700.057 L64.0042 706.487 L16.4842 706.487 Z" fill="#000000" fill-rule="nonzero" fill-opacity="1"></path><circle clip-path="url(#clip063)" cx="280.546" cy="730.11" r="14.4" fill="#009af9" fill-rule="evenodd" fill-opacity="1" stroke="#000000" stroke-opacity="1" stroke-width="3.2"></circle>
<circle clip-path="url(#clip063)" cx="316.472" cy="730.11" r="14.4" fill="#009af9" fill-rule="evenodd" fill-opacity="1" stroke="#000000" stroke-opacity="1" stroke-width="3.2"></circle>
<circle clip-path="url(#clip063)" cx="352.398" cy="770.119" r="14.4" fill="#009af9" fill-rule="evenodd" fill-opacity="1" stroke="#000000" stroke-opacity="1" stroke-width="3.2"></circle>
<circle clip-path="url(#clip063)" cx="388.324" cy="689.637" r="14.4" fill="#009af9" fill-rule="evenodd" fill-opacity="1" stroke="#000000" stroke-opacity="1" stroke-width="3.2"></circle>
<circle clip-path="url(#clip063)" cx="424.25" cy="689.637" r="14.4" fill="#009af9" fill-rule="evenodd" fill-opacity="1" stroke="#000000" stroke-opacity="1" stroke-width="3.2"></circle>
<circle clip-path="url(#clip063)" cx="460.176" cy="645.61" r="14.4" fill="#009af9" fill-rule="evenodd" fill-opacity="1" stroke="#000000" stroke-opacity="1" stroke-width="3.2"></circle>
<circle clip-path="url(#clip063)" cx="496.102" cy="645.61" r="14.4" fill="#009af9" fill-rule="evenodd" fill-opacity="1" stroke="#000000" stroke-opacity="1" stroke-width="3.2"></circle>
<circle clip-path="url(#clip063)" cx="532.028" cy="645.61" r="14.4" fill="#009af9" fill-rule="evenodd" fill-opacity="1" stroke="#000000" stroke-opacity="1" stroke-width="3.2"></circle>
<circle clip-path="url(#clip063)" cx="567.954" cy="645.61" r="14.4" fill="#009af9" fill-rule="evenodd" fill-opacity="1" stroke="#000000" stroke-opacity="1" stroke-width="3.2"></circle>
<circle clip-path="url(#clip063)" cx="603.88" cy="645.61" r="14.4" fill="#009af9" fill-rule="evenodd" fill-opacity="1" stroke="#000000" stroke-opacity="1" stroke-width="3.2"></circle>
<circle clip-path="url(#clip063)" cx="639.806" cy="689.637" r="14.4" fill="#009af9" fill-rule="evenodd" fill-opacity="1" stroke="#000000" stroke-opacity="1" stroke-width="3.2"></circle>
<circle clip-path="url(#clip063)" cx="675.732" cy="605.5" r="14.4" fill="#009af9" fill-rule="evenodd" fill-opacity="1" stroke="#000000" stroke-opacity="1" stroke-width="3.2"></circle>
<circle clip-path="url(#clip063)" cx="711.658" cy="605.5" r="14.4" fill="#009af9" fill-rule="evenodd" fill-opacity="1" stroke="#000000" stroke-opacity="1" stroke-width="3.2"></circle>
<circle clip-path="url(#clip063)" cx="747.584" cy="605.5" r="14.4" fill="#009af9" fill-rule="evenodd" fill-opacity="1" stroke="#000000" stroke-opacity="1" stroke-width="3.2"></circle>
<circle clip-path="url(#clip063)" cx="783.51" cy="605.5" r="14.4" fill="#009af9" fill-rule="evenodd" fill-opacity="1" stroke="#000000" stroke-opacity="1" stroke-width="3.2"></circle>
<circle clip-path="url(#clip063)" cx="819.436" cy="605.5" r="14.4" fill="#009af9" fill-rule="evenodd" fill-opacity="1" stroke="#000000" stroke-opacity="1" stroke-width="3.2"></circle>
<circle clip-path="url(#clip063)" cx="855.361" cy="605.5" r="14.4" fill="#009af9" fill-rule="evenodd" fill-opacity="1" stroke="#000000" stroke-opacity="1" stroke-width="3.2"></circle>
<circle clip-path="url(#clip063)" cx="891.287" cy="605.5" r="14.4" fill="#009af9" fill-rule="evenodd" fill-opacity="1" stroke="#000000" stroke-opacity="1" stroke-width="3.2"></circle>
<circle clip-path="url(#clip063)" cx="927.213" cy="605.5" r="14.4" fill="#009af9" fill-rule="evenodd" fill-opacity="1" stroke="#000000" stroke-opacity="1" stroke-width="3.2"></circle>
<circle clip-path="url(#clip063)" cx="963.139" cy="605.5" r="14.4" fill="#009af9" fill-rule="evenodd" fill-opacity="1" stroke="#000000" stroke-opacity="1" stroke-width="3.2"></circle>
<circle clip-path="url(#clip063)" cx="999.065" cy="565.077" r="14.4" fill="#009af9" fill-rule="evenodd" fill-opacity="1" stroke="#000000" stroke-opacity="1" stroke-width="3.2"></circle>
<circle clip-path="url(#clip063)" cx="1034.99" cy="565.077" r="14.4" fill="#009af9" fill-rule="evenodd" fill-opacity="1" stroke="#000000" stroke-opacity="1" stroke-width="3.2"></circle>
<circle clip-path="url(#clip063)" cx="1070.92" cy="605.5" r="14.4" fill="#009af9" fill-rule="evenodd" fill-opacity="1" stroke="#000000" stroke-opacity="1" stroke-width="3.2"></circle>
<circle clip-path="url(#clip063)" cx="1106.84" cy="605.5" r="14.4" fill="#009af9" fill-rule="evenodd" fill-opacity="1" stroke="#000000" stroke-opacity="1" stroke-width="3.2"></circle>
<circle clip-path="url(#clip063)" cx="1142.77" cy="605.5" r="14.4" fill="#009af9" fill-rule="evenodd" fill-opacity="1" stroke="#000000" stroke-opacity="1" stroke-width="3.2"></circle>
<circle clip-path="url(#clip063)" cx="1178.7" cy="605.5" r="14.4" fill="#009af9" fill-rule="evenodd" fill-opacity="1" stroke="#000000" stroke-opacity="1" stroke-width="3.2"></circle>
<circle clip-path="url(#clip063)" cx="1214.62" cy="605.5" r="14.4" fill="#009af9" fill-rule="evenodd" fill-opacity="1" stroke="#000000" stroke-opacity="1" stroke-width="3.2"></circle>
<circle clip-path="url(#clip063)" cx="1250.55" cy="605.5" r="14.4" fill="#009af9" fill-rule="evenodd" fill-opacity="1" stroke="#000000" stroke-opacity="1" stroke-width="3.2"></circle>
<circle clip-path="url(#clip063)" cx="1286.47" cy="605.5" r="14.4" fill="#009af9" fill-rule="evenodd" fill-opacity="1" stroke="#000000" stroke-opacity="1" stroke-width="3.2"></circle>
<circle clip-path="url(#clip063)" cx="1322.4" cy="605.5" r="14.4" fill="#009af9" fill-rule="evenodd" fill-opacity="1" stroke="#000000" stroke-opacity="1" stroke-width="3.2"></circle>
<circle clip-path="url(#clip063)" cx="1358.33" cy="605.5" r="14.4" fill="#009af9" fill-rule="evenodd" fill-opacity="1" stroke="#000000" stroke-opacity="1" stroke-width="3.2"></circle>
<circle clip-path="url(#clip063)" cx="1394.25" cy="565.077" r="14.4" fill="#009af9" fill-rule="evenodd" fill-opacity="1" stroke="#000000" stroke-opacity="1" stroke-width="3.2"></circle>
<circle clip-path="url(#clip063)" cx="1430.18" cy="565.077" r="14.4" fill="#009af9" fill-rule="evenodd" fill-opacity="1" stroke="#000000" stroke-opacity="1" stroke-width="3.2"></circle>
<circle clip-path="url(#clip063)" cx="1466.1" cy="565.077" r="14.4" fill="#009af9" fill-rule="evenodd" fill-opacity="1" stroke="#000000" stroke-opacity="1" stroke-width="3.2"></circle>
<circle clip-path="url(#clip063)" cx="1502.03" cy="565.077" r="14.4" fill="#009af9" fill-rule="evenodd" fill-opacity="1" stroke="#000000" stroke-opacity="1" stroke-width="3.2"></circle>
<circle clip-path="url(#clip063)" cx="1537.95" cy="565.077" r="14.4" fill="#009af9" fill-rule="evenodd" fill-opacity="1" stroke="#000000" stroke-opacity="1" stroke-width="3.2"></circle>
<circle clip-path="url(#clip063)" cx="1573.88" cy="565.077" r="14.4" fill="#009af9" fill-rule="evenodd" fill-opacity="1" stroke="#000000" stroke-opacity="1" stroke-width="3.2"></circle>
<circle clip-path="url(#clip063)" cx="1609.81" cy="605.5" r="14.4" fill="#009af9" fill-rule="evenodd" fill-opacity="1" stroke="#000000" stroke-opacity="1" stroke-width="3.2"></circle>
<circle clip-path="url(#clip063)" cx="1645.73" cy="605.5" r="14.4" fill="#009af9" fill-rule="evenodd" fill-opacity="1" stroke="#000000" stroke-opacity="1" stroke-width="3.2"></circle>
<circle clip-path="url(#clip063)" cx="1681.66" cy="605.5" r="14.4" fill="#009af9" fill-rule="evenodd" fill-opacity="1" stroke="#000000" stroke-opacity="1" stroke-width="3.2"></circle>
<circle clip-path="url(#clip063)" cx="1717.58" cy="605.5" r="14.4" fill="#009af9" fill-rule="evenodd" fill-opacity="1" stroke="#000000" stroke-opacity="1" stroke-width="3.2"></circle>
<circle clip-path="url(#clip063)" cx="1753.51" cy="605.5" r="14.4" fill="#009af9" fill-rule="evenodd" fill-opacity="1" stroke="#000000" stroke-opacity="1" stroke-width="3.2"></circle>
<circle clip-path="url(#clip063)" cx="1789.44" cy="605.5" r="14.4" fill="#009af9" fill-rule="evenodd" fill-opacity="1" stroke="#000000" stroke-opacity="1" stroke-width="3.2"></circle>
<circle clip-path="url(#clip063)" cx="1825.36" cy="605.5" r="14.4" fill="#009af9" fill-rule="evenodd" fill-opacity="1" stroke="#000000" stroke-opacity="1" stroke-width="3.2"></circle>
<circle clip-path="url(#clip063)" cx="1861.29" cy="645.61" r="14.4" fill="#009af9" fill-rule="evenodd" fill-opacity="1" stroke="#000000" stroke-opacity="1" stroke-width="3.2"></circle>
<circle clip-path="url(#clip063)" cx="1897.21" cy="645.61" r="14.4" fill="#009af9" fill-rule="evenodd" fill-opacity="1" stroke="#000000" stroke-opacity="1" stroke-width="3.2"></circle>
<circle clip-path="url(#clip063)" cx="1933.14" cy="605.5" r="14.4" fill="#009af9" fill-rule="evenodd" fill-opacity="1" stroke="#000000" stroke-opacity="1" stroke-width="3.2"></circle>
<circle clip-path="url(#clip063)" cx="1969.07" cy="605.5" r="14.4" fill="#009af9" fill-rule="evenodd" fill-opacity="1" stroke="#000000" stroke-opacity="1" stroke-width="3.2"></circle>
<circle clip-path="url(#clip063)" cx="2004.99" cy="605.5" r="14.4" fill="#009af9" fill-rule="evenodd" fill-opacity="1" stroke="#000000" stroke-opacity="1" stroke-width="3.2"></circle>
<circle clip-path="url(#clip063)" cx="2040.92" cy="645.61" r="14.4" fill="#009af9" fill-rule="evenodd" fill-opacity="1" stroke="#000000" stroke-opacity="1" stroke-width="3.2"></circle>
<circle clip-path="url(#clip063)" cx="2076.84" cy="645.61" r="14.4" fill="#009af9" fill-rule="evenodd" fill-opacity="1" stroke="#000000" stroke-opacity="1" stroke-width="3.2"></circle>
<circle clip-path="url(#clip063)" cx="2112.77" cy="645.61" r="14.4" fill="#009af9" fill-rule="evenodd" fill-opacity="1" stroke="#000000" stroke-opacity="1" stroke-width="3.2"></circle>
<circle clip-path="url(#clip063)" cx="2148.7" cy="645.61" r="14.4" fill="#009af9" fill-rule="evenodd" fill-opacity="1" stroke="#000000" stroke-opacity="1" stroke-width="3.2"></circle>
<circle clip-path="url(#clip063)" cx="2184.62" cy="730.11" r="14.4" fill="#009af9" fill-rule="evenodd" fill-opacity="1" stroke="#000000" stroke-opacity="1" stroke-width="3.2"></circle>
<circle clip-path="url(#clip063)" cx="2220.55" cy="770.119" r="14.4" fill="#009af9" fill-rule="evenodd" fill-opacity="1" stroke="#000000" stroke-opacity="1" stroke-width="3.2"></circle>
<circle clip-path="url(#clip063)" cx="2256.47" cy="837.852" r="14.4" fill="#009af9" fill-rule="evenodd" fill-opacity="1" stroke="#000000" stroke-opacity="1" stroke-width="3.2"></circle>
<circle clip-path="url(#clip063)" cx="2292.4" cy="920.04" r="14.4" fill="#009af9" fill-rule="evenodd" fill-opacity="1" stroke="#000000" stroke-opacity="1" stroke-width="3.2"></circle>
<polyline clip-path="url(#clip063)" style="stroke:#e26f46; stroke-linecap:round; stroke-linejoin:round; stroke-width:4; stroke-opacity:1; fill:none" points="280.546,86.1857 316.472,86.1857 352.398,86.1857 388.324,86.1857 424.25,86.1857 460.176,86.1857 496.102,86.1857 532.028,86.1857 567.954,86.1857 603.88,86.1857 639.806,86.1857 675.732,86.1857 711.658,86.1857 747.584,86.1857 783.51,86.1857 819.436,86.1857 855.361,86.1857 891.287,86.1857 927.213,86.1857 963.139,86.1857 999.065,86.1857 1034.99,86.1857 1070.92,86.1857 1106.84,86.1857 1142.77,86.1857 1178.7,86.1857 1214.62,86.1857 1250.55,86.1857 1286.47,86.1857 1322.4,86.1857 1358.33,86.1857 1394.25,86.1857 1430.18,86.1857 1466.1,86.1857 1502.03,86.1857 1537.95,86.1857 1573.88,86.1857 1609.81,86.1857 1645.73,86.1857 1681.66,86.1857 1717.58,86.1857 1753.51,86.1857 1789.44,86.1857 1825.36,86.1857 1861.29,86.1857 1897.21,86.1857 1933.14,86.1857 1969.07,86.1857 2004.99,86.1857 2040.92,86.1857 2076.84,86.1857 2112.77,86.1857 2148.7,86.1857 2184.62,86.1857 2220.55,86.1857 2256.47,86.1857 2292.4,86.1857 "></polyline>
<polyline clip-path="url(#clip063)" style="stroke:#3da44d; stroke-linecap:round; stroke-linejoin:round; stroke-width:4; stroke-opacity:1; fill:none" points="280.546,1384.24 316.472,1384.24 352.398,1384.24 388.324,1384.24 424.25,1384.24 460.176,1384.24 496.102,1384.24 532.028,1384.24 567.954,1384.24 603.88,1384.24 639.806,1384.24 675.732,1384.24 711.658,1384.24 747.584,1384.24 783.51,1384.24 819.436,1384.24 855.361,1384.24 891.287,1384.24 927.213,1384.24 963.139,1384.24 999.065,1384.24 1034.99,1384.24 1070.92,1384.24 1106.84,1384.24 1142.77,1384.24 1178.7,1384.24 1214.62,1384.24 1250.55,1384.24 1286.47,1384.24 1322.4,1384.24 1358.33,1384.24 1394.25,1384.24 1430.18,1384.24 1466.1,1384.24 1502.03,1384.24 1537.95,1384.24 1573.88,1384.24 1609.81,1384.24 1645.73,1384.24 1681.66,1384.24 1717.58,1384.24 1753.51,1384.24 1789.44,1384.24 1825.36,1384.24 1861.29,1384.24 1897.21,1384.24 1933.14,1384.24 1969.07,1384.24 2004.99,1384.24 2040.92,1384.24 2076.84,1384.24 2112.77,1384.24 2148.7,1384.24 2184.62,1384.24 2220.55,1384.24 2256.47,1384.24 2292.4,1384.24 "></polyline>
<path clip-path="url(#clip060)" d="M1878.42 300.469 L2281.67 300.469 L2281.67 93.1086 L1878.42 93.1086  Z" fill="#ffffff" fill-rule="evenodd" fill-opacity="1"></path>
<polyline clip-path="url(#clip060)" style="stroke:#000000; stroke-linecap:round; stroke-linejoin:round; stroke-width:4; stroke-opacity:1; fill:none" points="1878.42,300.469 2281.67,300.469 2281.67,93.1086 1878.42,93.1086 1878.42,300.469 "></polyline>
<circle clip-path="url(#clip060)" cx="1973.2" cy="144.949" r="23.04" fill="#009af9" fill-rule="evenodd" fill-opacity="1" stroke="#000000" stroke-opacity="1" stroke-width="5.12"></circle>
<path clip-path="url(#clip060)" d="M2097 134.114 Q2097 133.341 2096.79 132.709 Q2096.6 132.053 2096.29 131.608 Q2096.01 131.139 2095.47 130.788 Q2094.94 130.413 2094.49 130.179 Q2094.05 129.945 2093.3 129.804 Q2092.55 129.64 2092.06 129.57 Q2091.56 129.476 2090.72 129.43 Q2089.88 129.383 2089.46 129.383 Q2089.06 129.383 2088.26 129.383 Q2085.75 129.383 2085.33 129.43 Q2084.7 129.523 2084.47 129.898 Q2084.23 130.249 2084 131.21 L2080.88 143.717 L2086.25 143.717 Q2089.17 143.717 2091.19 142.898 Q2093.2 142.078 2094.35 140.93 Q2095.62 139.665 2096.29 137.627 Q2097 135.59 2097 134.114 M2102.22 156.201 Q2102.22 156.459 2102.01 157.045 Q2101.82 157.63 2101.35 158.45 Q2100.89 159.246 2100.25 159.972 Q2099.62 160.699 2098.61 161.19 Q2097.61 161.706 2096.46 161.706 Q2096.18 161.706 2095.9 161.682 Q2095.62 161.682 2094.91 161.565 Q2094.23 161.472 2093.67 161.284 Q2093.11 161.12 2092.41 160.722 Q2091.7 160.347 2091.21 159.832 Q2090.74 159.293 2090.42 158.45 Q2090.09 157.583 2090.09 156.529 Q2090.09 155.592 2090.86 152.454 Q2091.54 149.784 2091.54 149.128 Q2091.54 148.402 2091.31 147.723 Q2091.09 147.043 2090.56 146.341 Q2090.04 145.638 2088.94 145.216 Q2087.84 144.771 2086.29 144.771 L2080.6 144.771 L2077.42 157.49 Q2077.42 157.513 2077.35 157.841 Q2077.28 158.146 2077.28 158.309 Q2077.28 158.614 2077.46 158.801 Q2077.67 158.989 2078.19 159.082 Q2078.7 159.153 2079.1 159.176 Q2079.52 159.176 2080.39 159.176 Q2081.47 159.176 2081.66 159.364 Q2081.75 159.481 2081.75 159.691 Q2081.75 160.019 2081.66 160.254 Q2081.59 160.464 2081.4 160.535 Q2081.23 160.605 2081.12 160.628 Q2081 160.652 2080.79 160.652 L2074.7 160.511 L2068.66 160.652 Q2067.98 160.652 2067.98 160.113 Q2067.98 159.645 2068.14 159.457 Q2068.3 159.246 2068.52 159.223 Q2068.73 159.176 2069.27 159.176 Q2070.44 159.176 2071.14 159.106 Q2071.84 159.036 2072.29 158.942 Q2072.76 158.825 2072.99 158.497 Q2073.25 158.169 2073.36 157.888 Q2073.48 157.583 2073.65 156.904 L2080.06 131.139 Q2080.25 130.367 2080.25 130.249 Q2080.25 129.804 2079.97 129.687 Q2079.71 129.547 2078.96 129.476 L2077.14 129.383 Q2076.57 129.383 2076.34 129.359 Q2076.13 129.336 2075.96 129.219 Q2075.8 129.102 2075.8 128.844 Q2075.8 128.188 2076.08 128.048 Q2076.36 127.884 2077.18 127.884 L2090.86 127.884 Q2095.52 127.884 2098.47 129.921 Q2101.45 131.959 2101.45 135.074 Q2101.45 136.48 2100.82 137.791 Q2100.18 139.103 2099.13 140.134 Q2098.1 141.164 2096.72 142.031 Q2095.33 142.874 2093.86 143.46 Q2092.41 144.022 2090.91 144.35 Q2091.56 144.584 2092.17 144.935 Q2092.8 145.287 2093.6 145.942 Q2094.42 146.598 2094.91 147.652 Q2095.4 148.706 2095.4 149.995 Q2095.4 150.908 2095.22 152.267 Q2094.75 156.131 2094.75 157.724 Q2094.75 159.246 2095.15 159.949 Q2095.55 160.652 2096.67 160.652 Q2097.77 160.652 2098.99 159.668 Q2100.23 158.661 2101.03 156.295 Q2101.21 155.616 2101.66 155.616 Q2101.68 155.616 2101.71 155.616 Q2101.75 155.616 2101.85 155.663 Q2101.94 155.686 2102.01 155.756 Q2102.1 155.803 2102.15 155.92 Q2102.22 156.038 2102.22 156.201 Z" fill="#000000" fill-rule="nonzero" fill-opacity="1"></path><path clip-path="url(#clip060)" d="M2148.99 147.98 Q2149.27 148.261 2149.27 148.659 Q2149.27 149.058 2148.99 149.339 Q2148.71 149.62 2148.31 149.62 L2118.28 149.62 Q2117.89 149.62 2117.61 149.339 Q2117.32 149.058 2117.32 148.659 Q2117.32 148.261 2117.61 147.98 Q2117.89 147.699 2118.28 147.699 L2148.31 147.699 Q2148.71 147.699 2148.99 147.98 Z" fill="#000000" fill-rule="nonzero" fill-opacity="1"></path><path clip-path="url(#clip060)" d="M2167.58 133.271 L2167.58 131.772 Q2173.34 131.772 2176.31 128.704 Q2177.13 128.704 2177.27 128.891 Q2177.41 129.078 2177.41 129.945 L2177.41 156.857 Q2177.41 158.286 2178.12 158.731 Q2178.82 159.176 2181.89 159.176 L2183.41 159.176 L2183.41 160.652 Q2181.72 160.511 2175.63 160.511 Q2169.54 160.511 2167.88 160.652 L2167.88 159.176 L2169.4 159.176 Q2172.42 159.176 2173.15 158.755 Q2173.88 158.309 2173.88 156.857 L2173.88 132.006 Q2171.37 133.271 2167.58 133.271 Z" fill="#000000" fill-rule="nonzero" fill-opacity="1"></path><path clip-path="url(#clip060)" d="M2187.1 154.187 Q2187.1 152.758 2187.92 152.079 Q2188.74 151.4 2189.79 151.4 Q2190.89 151.4 2191.67 152.126 Q2192.46 152.829 2192.46 154.07 Q2192.46 155.405 2191.52 156.155 Q2190.61 156.904 2189.3 156.717 Q2190.45 158.637 2192.56 159.504 Q2194.69 160.371 2196.65 160.371 Q2198.72 160.371 2200.38 158.591 Q2202.06 156.81 2202.06 152.454 Q2202.06 148.753 2200.61 146.622 Q2199.18 144.49 2196.35 144.49 L2194.24 144.49 Q2193.52 144.49 2193.3 144.42 Q2193.09 144.35 2193.09 143.952 Q2193.09 143.483 2193.82 143.389 Q2194.55 143.389 2195.69 143.249 Q2198.48 143.155 2199.96 140.743 Q2201.29 138.494 2201.29 135.285 Q2201.29 132.357 2199.89 131.139 Q2198.5 129.898 2196.7 129.898 Q2195.01 129.898 2193.16 130.601 Q2191.31 131.303 2190.31 132.873 Q2193.28 132.873 2193.28 135.285 Q2193.28 136.339 2192.6 137.042 Q2191.95 137.721 2190.85 137.721 Q2189.79 137.721 2189.09 137.065 Q2188.39 136.386 2188.39 135.238 Q2188.39 132.498 2190.82 130.601 Q2193.28 128.704 2196.89 128.704 Q2200.45 128.704 2203.07 130.577 Q2205.72 132.451 2205.72 135.332 Q2205.72 138.166 2203.84 140.485 Q2201.97 142.804 2199 143.764 Q2202.65 144.49 2204.83 146.973 Q2207.01 149.432 2207.01 152.454 Q2207.01 156.201 2204.06 158.965 Q2201.1 161.706 2196.79 161.706 Q2192.81 161.706 2189.96 159.551 Q2187.1 157.396 2187.1 154.187 Z" fill="#000000" fill-rule="nonzero" fill-opacity="1"></path><path clip-path="url(#clip060)" d="M2207.95 152.735 L2207.95 151.259 L2222.69 128.75 Q2223.06 128.165 2223.65 128.188 Q2224.19 128.188 2224.3 128.399 Q2224.42 128.61 2224.42 129.43 L2224.42 151.259 L2229.22 151.259 L2229.22 152.735 L2224.42 152.735 L2224.42 156.904 Q2224.42 158.286 2224.98 158.731 Q2225.57 159.176 2228.05 159.176 L2229.06 159.176 L2229.06 160.652 Q2227.09 160.511 2222.55 160.511 Q2218.03 160.511 2216.06 160.652 L2216.06 159.176 L2217.07 159.176 Q2219.55 159.176 2220.13 158.755 Q2220.72 158.309 2220.72 156.904 L2220.72 152.735 L2207.95 152.735 M2209.31 151.259 L2221 151.259 L2221 133.365 L2209.31 151.259 Z" fill="#000000" fill-rule="nonzero" fill-opacity="1"></path><path clip-path="url(#clip060)" d="M2254.83 153.789 Q2254.19 156.81 2253.37 158.544 Q2252.06 161.19 2249.84 161.19 Q2248.15 161.19 2246.96 160.16 Q2245.76 159.129 2245.48 157.583 Q2242.41 161.19 2239.23 161.19 Q2236.42 161.19 2234.64 159.059 Q2232.86 156.904 2232.86 153.508 Q2232.86 150.088 2234.54 146.809 Q2236.25 143.53 2238.95 141.492 Q2241.64 139.454 2244.4 139.454 Q2247.33 139.454 2248.83 142.523 Q2248.95 141.68 2249.49 141.047 Q2250.03 140.415 2250.85 140.415 Q2251.48 140.415 2251.85 140.766 Q2252.23 141.094 2252.23 141.703 Q2252.23 142.007 2251.9 143.343 L2250.17 150.041 L2249.11 154.375 Q2248.71 155.967 2248.6 156.553 Q2248.5 157.138 2248.5 157.911 Q2248.5 160.113 2249.93 160.113 Q2250.63 160.113 2251.2 159.668 Q2251.76 159.223 2252.2 158.286 Q2252.65 157.349 2252.93 156.483 Q2253.21 155.592 2253.59 154.187 Q2253.7 153.625 2253.8 153.484 Q2253.91 153.321 2254.24 153.321 Q2254.83 153.321 2254.83 153.789 M2248.25 144.724 Q2248.25 144.514 2248.08 143.928 Q2247.92 143.343 2247.54 142.523 Q2247.17 141.703 2246.35 141.117 Q2245.55 140.508 2244.47 140.508 Q2243.02 140.508 2241.5 141.75 Q2240 142.991 2238.9 145.099 Q2238.06 146.786 2237.14 150.322 Q2236.25 153.859 2236.25 155.616 Q2236.25 156.693 2236.49 157.654 Q2236.74 158.591 2237.47 159.364 Q2238.2 160.113 2239.32 160.113 Q2242.06 160.113 2244.76 156.717 Q2245.27 156.131 2245.39 155.897 Q2245.53 155.639 2245.72 154.937 L2248.1 145.544 Q2248.25 144.842 2248.25 144.724 Z" fill="#000000" fill-rule="nonzero" fill-opacity="1"></path><polyline clip-path="url(#clip060)" style="stroke:#e26f46; stroke-linecap:round; stroke-linejoin:round; stroke-width:4; stroke-opacity:1; fill:none" points="1902.11,196.789 2044.28,196.789 "></polyline>
<path clip-path="url(#clip060)" d="M2067.98 179.509 L2097.21 179.509 L2097.21 183.444 L2084.94 183.444 L2084.94 214.069 L2080.25 214.069 L2080.25 183.444 L2067.98 183.444 L2067.98 179.509 Z" fill="#000000" fill-rule="nonzero" fill-opacity="1"></path><path clip-path="url(#clip060)" d="M2093.9 203.837 L2093.9 188.143 L2098.16 188.143 L2098.16 203.675 Q2098.16 207.356 2099.6 209.208 Q2101.03 211.036 2103.9 211.036 Q2107.35 211.036 2109.34 208.837 Q2111.36 206.638 2111.36 202.842 L2111.36 188.143 L2115.62 188.143 L2115.62 214.069 L2111.36 214.069 L2111.36 210.087 Q2109.81 212.448 2107.75 213.606 Q2105.71 214.74 2103 214.74 Q2098.53 214.74 2096.22 211.962 Q2093.9 209.184 2093.9 203.837 M2104.62 187.518 L2104.62 187.518 Z" fill="#000000" fill-rule="nonzero" fill-opacity="1"></path><path clip-path="url(#clip060)" d="M2139.41 192.124 Q2138.69 191.708 2137.84 191.522 Q2137 191.314 2135.99 191.314 Q2132.37 191.314 2130.43 193.675 Q2128.51 196.013 2128.51 200.411 L2128.51 214.069 L2124.23 214.069 L2124.23 188.143 L2128.51 188.143 L2128.51 192.171 Q2129.85 189.809 2132 188.675 Q2134.16 187.518 2137.24 187.518 Q2137.68 187.518 2138.21 187.587 Q2138.74 187.634 2139.39 187.749 L2139.41 192.124 Z" fill="#000000" fill-rule="nonzero" fill-opacity="1"></path><path clip-path="url(#clip060)" d="M2162.49 201.129 Q2162.49 196.43 2160.55 193.768 Q2158.62 191.083 2155.24 191.083 Q2151.87 191.083 2149.92 193.768 Q2148 196.43 2148 201.129 Q2148 205.828 2149.92 208.513 Q2151.87 211.175 2155.24 211.175 Q2158.62 211.175 2160.55 208.513 Q2162.49 205.828 2162.49 201.129 M2148 192.078 Q2149.34 189.763 2151.38 188.652 Q2153.44 187.518 2156.29 187.518 Q2161.01 187.518 2163.95 191.268 Q2166.91 195.018 2166.91 201.129 Q2166.91 207.24 2163.95 210.99 Q2161.01 214.74 2156.29 214.74 Q2153.44 214.74 2151.38 213.629 Q2149.34 212.495 2148 210.18 L2148 214.069 L2143.72 214.069 L2143.72 178.05 L2148 178.05 L2148 192.078 Z" fill="#000000" fill-rule="nonzero" fill-opacity="1"></path><path clip-path="url(#clip060)" d="M2173.97 188.143 L2178.23 188.143 L2178.23 214.069 L2173.97 214.069 L2173.97 188.143 M2173.97 178.05 L2178.23 178.05 L2178.23 183.444 L2173.97 183.444 L2173.97 178.05 Z" fill="#000000" fill-rule="nonzero" fill-opacity="1"></path><path clip-path="url(#clip060)" d="M2208.69 198.421 L2208.69 214.069 L2204.43 214.069 L2204.43 198.559 Q2204.43 194.879 2203 193.05 Q2201.56 191.222 2198.69 191.222 Q2195.24 191.222 2193.25 193.421 Q2191.26 195.62 2191.26 199.416 L2191.26 214.069 L2186.98 214.069 L2186.98 188.143 L2191.26 188.143 L2191.26 192.171 Q2192.79 189.833 2194.85 188.675 Q2196.93 187.518 2199.64 187.518 Q2204.11 187.518 2206.4 190.296 Q2208.69 193.05 2208.69 198.421 Z" fill="#000000" fill-rule="nonzero" fill-opacity="1"></path><path clip-path="url(#clip060)" d="M2239.36 200.041 L2239.36 202.124 L2219.78 202.124 Q2220.06 206.522 2222.42 208.837 Q2224.8 211.129 2229.04 211.129 Q2231.49 211.129 2233.79 210.527 Q2236.1 209.925 2238.37 208.721 L2238.37 212.749 Q2236.08 213.721 2233.67 214.231 Q2231.26 214.74 2228.79 214.74 Q2222.58 214.74 2218.95 211.129 Q2215.34 207.518 2215.34 201.36 Q2215.34 194.995 2218.76 191.268 Q2222.21 187.518 2228.05 187.518 Q2233.28 187.518 2236.31 190.897 Q2239.36 194.254 2239.36 200.041 M2235.11 198.791 Q2235.06 195.296 2233.14 193.212 Q2231.24 191.129 2228.09 191.129 Q2224.53 191.129 2222.37 193.143 Q2220.24 195.157 2219.92 198.814 L2235.11 198.791 Z" fill="#000000" fill-rule="nonzero" fill-opacity="1"></path><polyline clip-path="url(#clip060)" style="stroke:#3da44d; stroke-linecap:round; stroke-linejoin:round; stroke-width:4; stroke-opacity:1; fill:none" points="1902.11,248.629 2044.28,248.629 "></polyline>
<path clip-path="url(#clip060)" d="M2067.98 231.349 L2097.21 231.349 L2097.21 235.284 L2084.94 235.284 L2084.94 265.909 L2080.25 265.909 L2080.25 235.284 L2067.98 235.284 L2067.98 231.349 Z" fill="#000000" fill-rule="nonzero" fill-opacity="1"></path><path clip-path="url(#clip060)" d="M2123.09 250.261 L2123.09 265.909 L2118.83 265.909 L2118.83 250.399 Q2118.83 246.719 2117.4 244.89 Q2115.96 243.062 2113.09 243.062 Q2109.64 243.062 2107.65 245.261 Q2105.66 247.46 2105.66 251.256 L2105.66 265.909 L2101.38 265.909 L2101.38 229.89 L2105.66 229.89 L2105.66 244.011 Q2107.19 241.673 2109.25 240.515 Q2111.33 239.358 2114.04 239.358 Q2118.51 239.358 2120.8 242.136 Q2123.09 244.89 2123.09 250.261 Z" fill="#000000" fill-rule="nonzero" fill-opacity="1"></path><path clip-path="url(#clip060)" d="M2146.61 243.964 Q2145.89 243.548 2145.04 243.362 Q2144.2 243.154 2143.18 243.154 Q2139.57 243.154 2137.63 245.515 Q2135.71 247.853 2135.71 252.251 L2135.71 265.909 L2131.43 265.909 L2131.43 239.983 L2135.71 239.983 L2135.71 244.011 Q2137.05 241.649 2139.2 240.515 Q2141.36 239.358 2144.43 239.358 Q2144.87 239.358 2145.41 239.427 Q2145.94 239.474 2146.59 239.589 L2146.61 243.964 Z" fill="#000000" fill-rule="nonzero" fill-opacity="1"></path><path clip-path="url(#clip060)" d="M2160.08 242.969 Q2156.66 242.969 2154.67 245.654 Q2152.68 248.316 2152.68 252.969 Q2152.68 257.622 2154.64 260.307 Q2156.63 262.969 2160.08 262.969 Q2163.49 262.969 2165.48 260.284 Q2167.47 257.598 2167.47 252.969 Q2167.47 248.362 2165.48 245.677 Q2163.49 242.969 2160.08 242.969 M2160.08 239.358 Q2165.64 239.358 2168.81 242.969 Q2171.98 246.58 2171.98 252.969 Q2171.98 259.335 2168.81 262.969 Q2165.64 266.58 2160.08 266.58 Q2154.5 266.58 2151.33 262.969 Q2148.18 259.335 2148.18 252.969 Q2148.18 246.58 2151.33 242.969 Q2154.5 239.358 2160.08 239.358 Z" fill="#000000" fill-rule="nonzero" fill-opacity="1"></path><path clip-path="url(#clip060)" d="M2183.25 232.622 L2183.25 239.983 L2192.03 239.983 L2192.03 243.293 L2183.25 243.293 L2183.25 257.367 Q2183.25 260.538 2184.11 261.441 Q2184.99 262.344 2187.65 262.344 L2192.03 262.344 L2192.03 265.909 L2187.65 265.909 Q2182.72 265.909 2180.85 264.08 Q2178.97 262.228 2178.97 257.367 L2178.97 243.293 L2175.85 243.293 L2175.85 239.983 L2178.97 239.983 L2178.97 232.622 L2183.25 232.622 Z" fill="#000000" fill-rule="nonzero" fill-opacity="1"></path><path clip-path="url(#clip060)" d="M2201.84 232.622 L2201.84 239.983 L2210.62 239.983 L2210.62 243.293 L2201.84 243.293 L2201.84 257.367 Q2201.84 260.538 2202.7 261.441 Q2203.58 262.344 2206.24 262.344 L2210.62 262.344 L2210.62 265.909 L2206.24 265.909 Q2201.31 265.909 2199.43 264.08 Q2197.56 262.228 2197.56 257.367 L2197.56 243.293 L2194.43 243.293 L2194.43 239.983 L2197.56 239.983 L2197.56 232.622 L2201.84 232.622 Z" fill="#000000" fill-rule="nonzero" fill-opacity="1"></path><path clip-path="url(#clip060)" d="M2216.22 229.89 L2220.48 229.89 L2220.48 265.909 L2216.22 265.909 L2216.22 229.89 Z" fill="#000000" fill-rule="nonzero" fill-opacity="1"></path><path clip-path="url(#clip060)" d="M2251.56 251.881 L2251.56 253.964 L2231.98 253.964 Q2232.26 258.362 2234.62 260.677 Q2237 262.969 2241.24 262.969 Q2243.69 262.969 2245.99 262.367 Q2248.3 261.765 2250.57 260.561 L2250.57 264.589 Q2248.28 265.561 2245.87 266.071 Q2243.46 266.58 2240.99 266.58 Q2234.78 266.58 2231.15 262.969 Q2227.54 259.358 2227.54 253.2 Q2227.54 246.835 2230.96 243.108 Q2234.41 239.358 2240.24 239.358 Q2245.48 239.358 2248.51 242.737 Q2251.56 246.094 2251.56 251.881 M2247.3 250.631 Q2247.26 247.136 2245.34 245.052 Q2243.44 242.969 2240.29 242.969 Q2236.73 242.969 2234.57 244.983 Q2232.44 246.997 2232.12 250.654 L2247.3 250.631 Z" fill="#000000" fill-rule="nonzero" fill-opacity="1"></path></svg>