<svg xmlns="http://www.w3.org/2000/svg" xmlns:xlink="http://www.w3.org/1999/xlink" width="600" height="400" viewBox="0 0 2400 1600">
<defs>
  <clipPath id="clip180">
    <rect x="0" y="0" width="2400" height="1600"></rect>
  </clipPath>
</defs>
<path clip-path="url(#clip180)" d="
M0 1600 L2400 1600 L2400 0 L0 0  Z
  " fill="#ffffff" fill-rule="evenodd" fill-opacity="1"></path>
<defs>
  <clipPath id="clip181">
    <rect x="480" y="0" width="1681" height="1600"></rect>
  </clipPath>
</defs>
<path clip-path="url(#clip180)" d="
M249.056 1423.18 L2352.76 1423.18 L2352.76 47.2441 L249.056 47.2441  Z
  " fill="#ffffff" fill-rule="evenodd" fill-opacity="1"></path>
<defs>
  <clipPath id="clip182">
    <rect x="249" y="47" width="2105" height="1377"></rect>
  </clipPath>
</defs>
<polyline clip-path="url(#clip182)" style="stroke:#000000; stroke-linecap:round; stroke-linejoin:round; stroke-width:2; stroke-opacity:0.1; fill:none" points="
  308.595,1423.18 308.595,47.2441 
  "></polyline>
<polyline clip-path="url(#clip182)" style="stroke:#000000; stroke-linecap:round; stroke-linejoin:round; stroke-width:2; stroke-opacity:0.1; fill:none" points="
  662.992,1423.18 662.992,47.2441 
  "></polyline>
<polyline clip-path="url(#clip182)" style="stroke:#000000; stroke-linecap:round; stroke-linejoin:round; stroke-width:2; stroke-opacity:0.1; fill:none" points="
  1017.39,1423.18 1017.39,47.2441 
  "></polyline>
<polyline clip-path="url(#clip182)" style="stroke:#000000; stroke-linecap:round; stroke-linejoin:round; stroke-width:2; stroke-opacity:0.1; fill:none" points="
  1371.79,1423.18 1371.79,47.2441 
  "></polyline>
<polyline clip-path="url(#clip182)" style="stroke:#000000; stroke-linecap:round; stroke-linejoin:round; stroke-width:2; stroke-opacity:0.1; fill:none" points="
  1726.18,1423.18 1726.18,47.2441 
  "></polyline>
<polyline clip-path="url(#clip182)" style="stroke:#000000; stroke-linecap:round; stroke-linejoin:round; stroke-width:2; stroke-opacity:0.1; fill:none" points="
  2080.58,1423.18 2080.58,47.2441 
  "></polyline>
<polyline clip-path="url(#clip180)" style="stroke:#000000; stroke-linecap:round; stroke-linejoin:round; stroke-width:4; stroke-opacity:1; fill:none" points="
  249.056,1423.18 2352.76,1423.18 
  "></polyline>
<polyline clip-path="url(#clip180)" style="stroke:#000000; stroke-linecap:round; stroke-linejoin:round; stroke-width:4; stroke-opacity:1; fill:none" points="
  308.595,1423.18 308.595,1404.28 
  "></polyline>
<polyline clip-path="url(#clip180)" style="stroke:#000000; stroke-linecap:round; stroke-linejoin:round; stroke-width:4; stroke-opacity:1; fill:none" points="
  662.992,1423.18 662.992,1404.28 
  "></polyline>
<polyline clip-path="url(#clip180)" style="stroke:#000000; stroke-linecap:round; stroke-linejoin:round; stroke-width:4; stroke-opacity:1; fill:none" points="
  1017.39,1423.18 1017.39,1404.28 
  "></polyline>
<polyline clip-path="url(#clip180)" style="stroke:#000000; stroke-linecap:round; stroke-linejoin:round; stroke-width:4; stroke-opacity:1; fill:none" points="
  1371.79,1423.18 1371.79,1404.28 
  "></polyline>
<polyline clip-path="url(#clip180)" style="stroke:#000000; stroke-linecap:round; stroke-linejoin:round; stroke-width:4; stroke-opacity:1; fill:none" points="
  1726.18,1423.18 1726.18,1404.28 
  "></polyline>
<polyline clip-path="url(#clip180)" style="stroke:#000000; stroke-linecap:round; stroke-linejoin:round; stroke-width:4; stroke-opacity:1; fill:none" points="
  2080.58,1423.18 2080.58,1404.28 
  "></polyline>
<path clip-path="url(#clip180)" d="M271.396 1454.1 Q267.785 1454.1 265.956 1457.66 Q264.15 1461.2 264.15 1468.33 Q264.15 1475.44 265.956 1479.01 Q267.785 1482.55 271.396 1482.55 Q275.03 1482.55 276.836 1479.01 Q278.664 1475.44 278.664 1468.33 Q278.664 1461.2 276.836 1457.66 Q275.03 1454.1 271.396 1454.1 M271.396 1450.39 Q277.206 1450.39 280.261 1455 Q283.34 1459.58 283.34 1468.33 Q283.34 1477.06 280.261 1481.67 Q277.206 1486.25 271.396 1486.25 Q265.586 1486.25 262.507 1481.67 Q259.451 1477.06 259.451 1468.33 Q259.451 1459.58 262.507 1455 Q265.586 1450.39 271.396 1450.39 Z" fill="#000000" fill-rule="evenodd" fill-opacity="1"></path><path clip-path="url(#clip180)" d="M291.558 1479.7 L296.442 1479.7 L296.442 1485.58 L291.558 1485.58 L291.558 1479.7 Z" fill="#000000" fill-rule="evenodd" fill-opacity="1"></path><path clip-path="url(#clip180)" d="M316.627 1454.1 Q313.016 1454.1 311.187 1457.66 Q309.382 1461.2 309.382 1468.33 Q309.382 1475.44 311.187 1479.01 Q313.016 1482.55 316.627 1482.55 Q320.261 1482.55 322.067 1479.01 Q323.895 1475.44 323.895 1468.33 Q323.895 1461.2 322.067 1457.66 Q320.261 1454.1 316.627 1454.1 M316.627 1450.39 Q322.437 1450.39 325.493 1455 Q328.571 1459.58 328.571 1468.33 Q328.571 1477.06 325.493 1481.67 Q322.437 1486.25 316.627 1486.25 Q310.817 1486.25 307.738 1481.67 Q304.683 1477.06 304.683 1468.33 Q304.683 1459.58 307.738 1455 Q310.817 1450.39 316.627 1450.39 Z" fill="#000000" fill-rule="evenodd" fill-opacity="1"></path><path clip-path="url(#clip180)" d="M336.835 1451.02 L355.192 1451.02 L355.192 1454.96 L341.118 1454.96 L341.118 1463.43 Q342.136 1463.08 343.155 1462.92 Q344.173 1462.73 345.192 1462.73 Q350.979 1462.73 354.358 1465.9 Q357.738 1469.08 357.738 1474.49 Q357.738 1480.07 354.266 1483.17 Q350.793 1486.25 344.474 1486.25 Q342.298 1486.25 340.03 1485.88 Q337.784 1485.51 335.377 1484.77 L335.377 1480.07 Q337.46 1481.2 339.682 1481.76 Q341.905 1482.32 344.381 1482.32 Q348.386 1482.32 350.724 1480.21 Q353.062 1478.1 353.062 1474.49 Q353.062 1470.88 350.724 1468.77 Q348.386 1466.67 344.381 1466.67 Q342.506 1466.67 340.631 1467.08 Q338.78 1467.5 336.835 1468.38 L336.835 1451.02 Z" fill="#000000" fill-rule="evenodd" fill-opacity="1"></path><path clip-path="url(#clip180)" d="M625.214 1454.1 Q621.603 1454.1 619.774 1457.66 Q617.969 1461.2 617.969 1468.33 Q617.969 1475.44 619.774 1479.01 Q621.603 1482.55 625.214 1482.55 Q628.848 1482.55 630.654 1479.01 Q632.482 1475.44 632.482 1468.33 Q632.482 1461.2 630.654 1457.66 Q628.848 1454.1 625.214 1454.1 M625.214 1450.39 Q631.024 1450.39 634.08 1455 Q637.158 1459.58 637.158 1468.33 Q637.158 1477.06 634.08 1481.67 Q631.024 1486.25 625.214 1486.25 Q619.404 1486.25 616.325 1481.67 Q613.27 1477.06 613.27 1468.33 Q613.27 1459.58 616.325 1455 Q619.404 1450.39 625.214 1450.39 Z" fill="#000000" fill-rule="evenodd" fill-opacity="1"></path><path clip-path="url(#clip180)" d="M645.376 1479.7 L650.26 1479.7 L650.26 1485.58 L645.376 1485.58 L645.376 1479.7 Z" fill="#000000" fill-rule="evenodd" fill-opacity="1"></path><path clip-path="url(#clip180)" d="M670.445 1454.1 Q666.834 1454.1 665.005 1457.66 Q663.2 1461.2 663.2 1468.33 Q663.2 1475.44 665.005 1479.01 Q666.834 1482.55 670.445 1482.55 Q674.079 1482.55 675.885 1479.01 Q677.714 1475.44 677.714 1468.33 Q677.714 1461.2 675.885 1457.66 Q674.079 1454.1 670.445 1454.1 M670.445 1450.39 Q676.255 1450.39 679.311 1455 Q682.39 1459.58 682.39 1468.33 Q682.39 1477.06 679.311 1481.67 Q676.255 1486.25 670.445 1486.25 Q664.635 1486.25 661.556 1481.67 Q658.501 1477.06 658.501 1468.33 Q658.501 1459.58 661.556 1455 Q664.635 1450.39 670.445 1450.39 Z" fill="#000000" fill-rule="evenodd" fill-opacity="1"></path><path clip-path="url(#clip180)" d="M701.186 1466.44 Q698.038 1466.44 696.186 1468.59 Q694.357 1470.74 694.357 1474.49 Q694.357 1478.22 696.186 1480.39 Q698.038 1482.55 701.186 1482.55 Q704.334 1482.55 706.163 1480.39 Q708.014 1478.22 708.014 1474.49 Q708.014 1470.74 706.163 1468.59 Q704.334 1466.44 701.186 1466.44 M710.468 1451.78 L710.468 1456.04 Q708.709 1455.21 706.903 1454.77 Q705.121 1454.33 703.362 1454.33 Q698.732 1454.33 696.278 1457.45 Q693.848 1460.58 693.501 1466.9 Q694.866 1464.89 696.927 1463.82 Q698.987 1462.73 701.464 1462.73 Q706.672 1462.73 709.681 1465.9 Q712.713 1469.05 712.713 1474.49 Q712.713 1479.82 709.565 1483.03 Q706.417 1486.25 701.186 1486.25 Q695.19 1486.25 692.019 1481.67 Q688.848 1477.06 688.848 1468.33 Q688.848 1460.14 692.737 1455.28 Q696.626 1450.39 703.176 1450.39 Q704.936 1450.39 706.718 1450.74 Q708.524 1451.09 710.468 1451.78 Z" fill="#000000" fill-rule="evenodd" fill-opacity="1"></path><path clip-path="url(#clip180)" d="M980.143 1454.1 Q976.532 1454.1 974.703 1457.66 Q972.898 1461.2 972.898 1468.33 Q972.898 1475.44 974.703 1479.01 Q976.532 1482.55 980.143 1482.55 Q983.777 1482.55 985.583 1479.01 Q987.412 1475.44 987.412 1468.33 Q987.412 1461.2 985.583 1457.66 Q983.777 1454.1 980.143 1454.1 M980.143 1450.39 Q985.953 1450.39 989.009 1455 Q992.088 1459.58 992.088 1468.33 Q992.088 1477.06 989.009 1481.67 Q985.953 1486.25 980.143 1486.25 Q974.333 1486.25 971.254 1481.67 Q968.199 1477.06 968.199 1468.33 Q968.199 1459.58 971.254 1455 Q974.333 1450.39 980.143 1450.39 Z" fill="#000000" fill-rule="evenodd" fill-opacity="1"></path><path clip-path="url(#clip180)" d="M1000.31 1479.7 L1005.19 1479.7 L1005.19 1485.58 L1000.31 1485.58 L1000.31 1479.7 Z" fill="#000000" fill-rule="evenodd" fill-opacity="1"></path><path clip-path="url(#clip180)" d="M1025.37 1454.1 Q1021.76 1454.1 1019.93 1457.66 Q1018.13 1461.2 1018.13 1468.33 Q1018.13 1475.44 1019.93 1479.01 Q1021.76 1482.55 1025.37 1482.55 Q1029.01 1482.55 1030.81 1479.01 Q1032.64 1475.44 1032.64 1468.33 Q1032.64 1461.2 1030.81 1457.66 Q1029.01 1454.1 1025.37 1454.1 M1025.37 1450.39 Q1031.18 1450.39 1034.24 1455 Q1037.32 1459.58 1037.32 1468.33 Q1037.32 1477.06 1034.24 1481.67 Q1031.18 1486.25 1025.37 1486.25 Q1019.56 1486.25 1016.49 1481.67 Q1013.43 1477.06 1013.43 1468.33 Q1013.43 1459.58 1016.49 1455 Q1019.56 1450.39 1025.37 1450.39 Z" fill="#000000" fill-rule="evenodd" fill-opacity="1"></path><path clip-path="url(#clip180)" d="M1044.36 1451.02 L1066.58 1451.02 L1066.58 1453.01 L1054.03 1485.58 L1049.15 1485.58 L1060.95 1454.96 L1044.36 1454.96 L1044.36 1451.02 Z" fill="#000000" fill-rule="evenodd" fill-opacity="1"></path><path clip-path="url(#clip180)" d="M1334.14 1454.1 Q1330.52 1454.1 1328.7 1457.66 Q1326.89 1461.2 1326.89 1468.33 Q1326.89 1475.44 1328.7 1479.01 Q1330.52 1482.55 1334.14 1482.55 Q1337.77 1482.55 1339.57 1479.01 Q1341.4 1475.44 1341.4 1468.33 Q1341.4 1461.2 1339.57 1457.66 Q1337.77 1454.1 1334.14 1454.1 M1334.14 1450.39 Q1339.95 1450.39 1343 1455 Q1346.08 1459.58 1346.08 1468.33 Q1346.08 1477.06 1343 1481.67 Q1339.95 1486.25 1334.14 1486.25 Q1328.32 1486.25 1325.25 1481.67 Q1322.19 1477.06 1322.19 1468.33 Q1322.19 1459.58 1325.25 1455 Q1328.32 1450.39 1334.14 1450.39 Z" fill="#000000" fill-rule="evenodd" fill-opacity="1"></path><path clip-path="url(#clip180)" d="M1354.3 1479.7 L1359.18 1479.7 L1359.18 1485.58 L1354.3 1485.58 L1354.3 1479.7 Z" fill="#000000" fill-rule="evenodd" fill-opacity="1"></path><path clip-path="url(#clip180)" d="M1379.37 1454.1 Q1375.76 1454.1 1373.93 1457.66 Q1372.12 1461.2 1372.12 1468.33 Q1372.12 1475.44 1373.93 1479.01 Q1375.76 1482.55 1379.37 1482.55 Q1383 1482.55 1384.81 1479.01 Q1386.63 1475.44 1386.63 1468.33 Q1386.63 1461.2 1384.81 1457.66 Q1383 1454.1 1379.37 1454.1 M1379.37 1450.39 Q1385.18 1450.39 1388.23 1455 Q1391.31 1459.58 1391.31 1468.33 Q1391.31 1477.06 1388.23 1481.67 Q1385.18 1486.25 1379.37 1486.25 Q1373.56 1486.25 1370.48 1481.67 Q1367.42 1477.06 1367.42 1468.33 Q1367.42 1459.58 1370.48 1455 Q1373.56 1450.39 1379.37 1450.39 Z" fill="#000000" fill-rule="evenodd" fill-opacity="1"></path><path clip-path="url(#clip180)" d="M1409.53 1469.17 Q1406.19 1469.17 1404.27 1470.95 Q1402.38 1472.73 1402.38 1475.86 Q1402.38 1478.98 1404.27 1480.77 Q1406.19 1482.55 1409.53 1482.55 Q1412.86 1482.55 1414.78 1480.77 Q1416.7 1478.96 1416.7 1475.86 Q1416.7 1472.73 1414.78 1470.95 Q1412.88 1469.17 1409.53 1469.17 M1404.85 1467.18 Q1401.84 1466.44 1400.15 1464.38 Q1398.49 1462.32 1398.49 1459.35 Q1398.49 1455.21 1401.43 1452.8 Q1404.39 1450.39 1409.53 1450.39 Q1414.69 1450.39 1417.63 1452.8 Q1420.57 1455.21 1420.57 1459.35 Q1420.57 1462.32 1418.88 1464.38 Q1417.21 1466.44 1414.23 1467.18 Q1417.61 1467.96 1419.48 1470.26 Q1421.38 1472.55 1421.38 1475.86 Q1421.38 1480.88 1418.3 1483.57 Q1415.25 1486.25 1409.53 1486.25 Q1403.81 1486.25 1400.73 1483.57 Q1397.68 1480.88 1397.68 1475.86 Q1397.68 1472.55 1399.57 1470.26 Q1401.47 1467.96 1404.85 1467.18 M1403.14 1459.79 Q1403.14 1462.48 1404.81 1463.98 Q1406.5 1465.49 1409.53 1465.49 Q1412.54 1465.49 1414.23 1463.98 Q1415.94 1462.48 1415.94 1459.79 Q1415.94 1457.11 1414.23 1455.6 Q1412.54 1454.1 1409.53 1454.1 Q1406.5 1454.1 1404.81 1455.6 Q1403.14 1457.11 1403.14 1459.79 Z" fill="#000000" fill-rule="evenodd" fill-opacity="1"></path><path clip-path="url(#clip180)" d="M1688.58 1454.1 Q1684.97 1454.1 1683.14 1457.66 Q1681.33 1461.2 1681.33 1468.33 Q1681.33 1475.44 1683.14 1479.01 Q1684.97 1482.55 1688.58 1482.55 Q1692.21 1482.55 1694.02 1479.01 Q1695.85 1475.44 1695.85 1468.33 Q1695.85 1461.2 1694.02 1457.66 Q1692.21 1454.1 1688.58 1454.1 M1688.58 1450.39 Q1694.39 1450.39 1697.44 1455 Q1700.52 1459.58 1700.52 1468.33 Q1700.52 1477.06 1697.44 1481.67 Q1694.39 1486.25 1688.58 1486.25 Q1682.77 1486.25 1679.69 1481.67 Q1676.63 1477.06 1676.63 1468.33 Q1676.63 1459.58 1679.69 1455 Q1682.77 1450.39 1688.58 1450.39 Z" fill="#000000" fill-rule="evenodd" fill-opacity="1"></path><path clip-path="url(#clip180)" d="M1708.74 1479.7 L1713.62 1479.7 L1713.62 1485.58 L1708.74 1485.58 L1708.74 1479.7 Z" fill="#000000" fill-rule="evenodd" fill-opacity="1"></path><path clip-path="url(#clip180)" d="M1733.81 1454.1 Q1730.2 1454.1 1728.37 1457.66 Q1726.56 1461.2 1726.56 1468.33 Q1726.56 1475.44 1728.37 1479.01 Q1730.2 1482.55 1733.81 1482.55 Q1737.44 1482.55 1739.25 1479.01 Q1741.08 1475.44 1741.08 1468.33 Q1741.08 1461.2 1739.25 1457.66 Q1737.44 1454.1 1733.81 1454.1 M1733.81 1450.39 Q1739.62 1450.39 1742.68 1455 Q1745.75 1459.58 1745.75 1468.33 Q1745.75 1477.06 1742.68 1481.67 Q1739.62 1486.25 1733.81 1486.25 Q1728 1486.25 1724.92 1481.67 Q1721.87 1477.06 1721.87 1468.33 Q1721.87 1459.58 1724.92 1455 Q1728 1450.39 1733.81 1450.39 Z" fill="#000000" fill-rule="evenodd" fill-opacity="1"></path><path clip-path="url(#clip180)" d="M1754.11 1484.86 L1754.11 1480.6 Q1755.87 1481.44 1757.68 1481.88 Q1759.48 1482.32 1761.22 1482.32 Q1765.85 1482.32 1768.28 1479.21 Q1770.73 1476.09 1771.08 1469.75 Q1769.74 1471.74 1767.68 1472.8 Q1765.61 1473.87 1763.11 1473.87 Q1757.93 1473.87 1754.9 1470.74 Q1751.89 1467.59 1751.89 1462.15 Q1751.89 1456.83 1755.04 1453.61 Q1758.18 1450.39 1763.42 1450.39 Q1769.41 1450.39 1772.56 1455 Q1775.73 1459.58 1775.73 1468.33 Q1775.73 1476.51 1771.84 1481.39 Q1767.98 1486.25 1761.43 1486.25 Q1759.67 1486.25 1757.86 1485.9 Q1756.05 1485.56 1754.11 1484.86 M1763.42 1470.21 Q1766.56 1470.21 1768.39 1468.06 Q1770.24 1465.9 1770.24 1462.15 Q1770.24 1458.43 1768.39 1456.27 Q1766.56 1454.1 1763.42 1454.1 Q1760.27 1454.1 1758.42 1456.27 Q1756.59 1458.43 1756.59 1462.15 Q1756.59 1465.9 1758.42 1468.06 Q1760.27 1470.21 1763.42 1470.21 Z" fill="#000000" fill-rule="evenodd" fill-opacity="1"></path><path clip-path="url(#clip180)" d="M2042.88 1454.1 Q2039.27 1454.1 2037.44 1457.66 Q2035.64 1461.2 2035.64 1468.33 Q2035.64 1475.44 2037.44 1479.01 Q2039.27 1482.55 2042.88 1482.55 Q2046.52 1482.55 2048.32 1479.01 Q2050.15 1475.44 2050.15 1468.33 Q2050.15 1461.2 2048.32 1457.66 Q2046.52 1454.1 2042.88 1454.1 M2042.88 1450.39 Q2048.69 1450.39 2051.75 1455 Q2054.83 1459.58 2054.83 1468.33 Q2054.83 1477.06 2051.75 1481.67 Q2048.69 1486.25 2042.88 1486.25 Q2037.07 1486.25 2033.99 1481.67 Q2030.94 1477.06 2030.94 1468.33 Q2030.94 1459.58 2033.99 1455 Q2037.07 1450.39 2042.88 1450.39 Z" fill="#000000" fill-rule="evenodd" fill-opacity="1"></path><path clip-path="url(#clip180)" d="M2063.04 1479.7 L2067.93 1479.7 L2067.93 1485.58 L2063.04 1485.58 L2063.04 1479.7 Z" fill="#000000" fill-rule="evenodd" fill-opacity="1"></path><path clip-path="url(#clip180)" d="M2078.92 1481.64 L2086.56 1481.64 L2086.56 1455.28 L2078.25 1456.95 L2078.25 1452.69 L2086.52 1451.02 L2091.19 1451.02 L2091.19 1481.64 L2098.83 1481.64 L2098.83 1485.58 L2078.92 1485.58 L2078.92 1481.64 Z" fill="#000000" fill-rule="evenodd" fill-opacity="1"></path><path clip-path="url(#clip180)" d="M2118.28 1454.1 Q2114.66 1454.1 2112.84 1457.66 Q2111.03 1461.2 2111.03 1468.33 Q2111.03 1475.44 2112.84 1479.01 Q2114.66 1482.55 2118.28 1482.55 Q2121.91 1482.55 2123.72 1479.01 Q2125.54 1475.44 2125.54 1468.33 Q2125.54 1461.2 2123.72 1457.66 Q2121.91 1454.1 2118.28 1454.1 M2118.28 1450.39 Q2124.09 1450.39 2127.14 1455 Q2130.22 1459.58 2130.22 1468.33 Q2130.22 1477.06 2127.14 1481.67 Q2124.09 1486.25 2118.28 1486.25 Q2112.47 1486.25 2109.39 1481.67 Q2106.33 1477.06 2106.33 1468.33 Q2106.33 1459.58 2109.39 1455 Q2112.47 1450.39 2118.28 1450.39 Z" fill="#000000" fill-rule="evenodd" fill-opacity="1"></path><path clip-path="url(#clip180)" d="M948.437 1520.52 L958.017 1520.52 L970.144 1552.86 L982.334 1520.52 L991.915 1520.52 L991.915 1568.04 L985.644 1568.04 L985.644 1526.32 L973.39 1558.91 L966.929 1558.91 L954.675 1526.32 L954.675 1568.04 L948.437 1568.04 L948.437 1520.52 Z" fill="#000000" fill-rule="evenodd" fill-opacity="1"></path><path clip-path="url(#clip180)" d="M1004.42 1532.4 L1010.28 1532.4 L1010.28 1568.04 L1004.42 1568.04 L1004.42 1532.4 M1004.42 1518.52 L1010.28 1518.52 L1010.28 1525.93 L1004.42 1525.93 L1004.42 1518.52 Z" fill="#000000" fill-rule="evenodd" fill-opacity="1"></path><path clip-path="url(#clip180)" d="M1052.17 1532.4 L1039.28 1549.74 L1052.83 1568.04 L1045.93 1568.04 L1035.55 1554.04 L1025.18 1568.04 L1018.27 1568.04 L1032.11 1549.39 L1019.45 1532.4 L1026.35 1532.4 L1035.81 1545.1 L1045.26 1532.4 L1052.17 1532.4 Z" fill="#000000" fill-rule="evenodd" fill-opacity="1"></path><path clip-path="url(#clip180)" d="M1061.11 1532.4 L1066.97 1532.4 L1066.97 1568.04 L1061.11 1568.04 L1061.11 1532.4 M1061.11 1518.52 L1066.97 1518.52 L1066.97 1525.93 L1061.11 1525.93 L1061.11 1518.52 Z" fill="#000000" fill-rule="evenodd" fill-opacity="1"></path><path clip-path="url(#clip180)" d="M1108.85 1546.53 L1108.85 1568.04 L1103 1568.04 L1103 1546.72 Q1103 1541.66 1101.02 1539.14 Q1099.05 1536.63 1095.1 1536.63 Q1090.36 1536.63 1087.62 1539.65 Q1084.89 1542.68 1084.89 1547.9 L1084.89 1568.04 L1079 1568.04 L1079 1532.4 L1084.89 1532.4 L1084.89 1537.93 Q1086.99 1534.72 1089.82 1533.13 Q1092.68 1531.54 1096.41 1531.54 Q1102.55 1531.54 1105.7 1535.36 Q1108.85 1539.14 1108.85 1546.53 Z" fill="#000000" fill-rule="evenodd" fill-opacity="1"></path><path clip-path="url(#clip180)" d="M1143.99 1549.81 Q1143.99 1543.44 1141.35 1539.94 Q1138.74 1536.44 1134 1536.44 Q1129.29 1536.44 1126.64 1539.94 Q1124.03 1543.44 1124.03 1549.81 Q1124.03 1556.14 1126.64 1559.64 Q1129.29 1563.14 1134 1563.14 Q1138.74 1563.14 1141.35 1559.64 Q1143.99 1556.14 1143.99 1549.81 M1149.85 1563.62 Q1149.85 1572.72 1145.81 1577.15 Q1141.76 1581.6 1133.42 1581.6 Q1130.34 1581.6 1127.6 1581.13 Q1124.86 1580.68 1122.28 1579.72 L1122.28 1574.03 Q1124.86 1575.43 1127.38 1576.1 Q1129.89 1576.76 1132.5 1576.76 Q1138.26 1576.76 1141.13 1573.74 Q1143.99 1570.75 1143.99 1564.67 L1143.99 1561.77 Q1142.18 1564.92 1139.34 1566.48 Q1136.51 1568.04 1132.56 1568.04 Q1126.01 1568.04 1122 1563.05 Q1117.99 1558.05 1117.99 1549.81 Q1117.99 1541.53 1122 1536.53 Q1126.01 1531.54 1132.56 1531.54 Q1136.51 1531.54 1139.34 1533.1 Q1142.18 1534.66 1143.99 1537.81 L1143.99 1532.4 L1149.85 1532.4 L1149.85 1563.62 Z" fill="#000000" fill-rule="evenodd" fill-opacity="1"></path><path clip-path="url(#clip180)" d="M1189.32 1525.81 L1189.32 1543.66 L1197.4 1543.66 Q1201.89 1543.66 1204.34 1541.34 Q1206.79 1539.02 1206.79 1534.72 Q1206.79 1530.45 1204.34 1528.13 Q1201.89 1525.81 1197.4 1525.81 L1189.32 1525.81 M1182.89 1520.52 L1197.4 1520.52 Q1205.39 1520.52 1209.46 1524.15 Q1213.57 1527.75 1213.57 1534.72 Q1213.57 1541.75 1209.46 1545.35 Q1205.39 1548.95 1197.4 1548.95 L1189.32 1548.95 L1189.32 1568.04 L1182.89 1568.04 L1182.89 1520.52 Z" fill="#000000" fill-rule="evenodd" fill-opacity="1"></path><path clip-path="url(#clip180)" d="M1241.45 1537.87 Q1240.46 1537.3 1239.29 1537.04 Q1238.14 1536.76 1236.74 1536.76 Q1231.77 1536.76 1229.1 1540 Q1226.46 1543.22 1226.46 1549.27 L1226.46 1568.04 L1220.57 1568.04 L1220.57 1532.4 L1226.46 1532.4 L1226.46 1537.93 Q1228.31 1534.69 1231.27 1533.13 Q1234.23 1531.54 1238.46 1531.54 Q1239.06 1531.54 1239.8 1531.63 Q1240.53 1531.7 1241.42 1531.85 L1241.45 1537.87 Z" fill="#000000" fill-rule="evenodd" fill-opacity="1"></path><path clip-path="url(#clip180)" d="M1276.65 1548.76 L1276.65 1551.62 L1249.73 1551.62 Q1250.11 1557.67 1253.35 1560.85 Q1256.63 1564 1262.46 1564 Q1265.83 1564 1268.98 1563.17 Q1272.16 1562.35 1275.28 1560.69 L1275.28 1566.23 Q1272.13 1567.57 1268.82 1568.27 Q1265.51 1568.97 1262.11 1568.97 Q1253.58 1568.97 1248.58 1564 Q1243.61 1559.04 1243.61 1550.57 Q1243.61 1541.82 1248.33 1536.69 Q1253.07 1531.54 1261.09 1531.54 Q1268.28 1531.54 1272.45 1536.18 Q1276.65 1540.8 1276.65 1548.76 M1270.8 1547.04 Q1270.73 1542.23 1268.09 1539.37 Q1265.48 1536.5 1261.15 1536.5 Q1256.25 1536.5 1253.29 1539.27 Q1250.36 1542.04 1249.92 1547.07 L1270.8 1547.04 Z" fill="#000000" fill-rule="evenodd" fill-opacity="1"></path><path clip-path="url(#clip180)" d="M1308.99 1533.45 L1308.99 1538.98 Q1306.51 1537.71 1303.83 1537.07 Q1301.16 1536.44 1298.3 1536.44 Q1293.94 1536.44 1291.74 1537.77 Q1289.57 1539.11 1289.57 1541.79 Q1289.57 1543.82 1291.13 1545 Q1292.69 1546.15 1297.4 1547.2 L1299.41 1547.64 Q1305.65 1548.98 1308.26 1551.43 Q1310.9 1553.85 1310.9 1558.21 Q1310.9 1563.17 1306.95 1566.07 Q1303.04 1568.97 1296.16 1568.97 Q1293.3 1568.97 1290.18 1568.39 Q1287.09 1567.85 1283.65 1566.74 L1283.65 1560.69 Q1286.9 1562.38 1290.05 1563.24 Q1293.2 1564.07 1296.29 1564.07 Q1300.43 1564.07 1302.66 1562.66 Q1304.88 1561.23 1304.88 1558.65 Q1304.88 1556.27 1303.26 1554.99 Q1301.67 1553.72 1296.23 1552.54 L1294.19 1552.07 Q1288.75 1550.92 1286.33 1548.56 Q1283.91 1546.18 1283.91 1542.04 Q1283.91 1537.01 1287.47 1534.27 Q1291.04 1531.54 1297.6 1531.54 Q1300.84 1531.54 1303.71 1532.01 Q1306.57 1532.49 1308.99 1533.45 Z" fill="#000000" fill-rule="evenodd" fill-opacity="1"></path><path clip-path="url(#clip180)" d="M1342.95 1533.45 L1342.95 1538.98 Q1340.47 1537.71 1337.8 1537.07 Q1335.12 1536.44 1332.26 1536.44 Q1327.9 1536.44 1325.7 1537.77 Q1323.54 1539.11 1323.54 1541.79 Q1323.54 1543.82 1325.1 1545 Q1326.66 1546.15 1331.37 1547.2 L1333.37 1547.64 Q1339.61 1548.98 1342.22 1551.43 Q1344.86 1553.85 1344.86 1558.21 Q1344.86 1563.17 1340.91 1566.07 Q1337 1568.97 1330.12 1568.97 Q1327.26 1568.97 1324.14 1568.39 Q1321.05 1567.85 1317.62 1566.74 L1317.62 1560.69 Q1320.86 1562.38 1324.01 1563.24 Q1327.16 1564.07 1330.25 1564.07 Q1334.39 1564.07 1336.62 1562.66 Q1338.85 1561.23 1338.85 1558.65 Q1338.85 1556.27 1337.22 1554.99 Q1335.63 1553.72 1330.19 1552.54 L1328.15 1552.07 Q1322.71 1550.92 1320.29 1548.56 Q1317.87 1546.18 1317.87 1542.04 Q1317.87 1537.01 1321.44 1534.27 Q1325 1531.54 1331.56 1531.54 Q1334.8 1531.54 1337.67 1532.01 Q1340.53 1532.49 1342.95 1533.45 Z" fill="#000000" fill-rule="evenodd" fill-opacity="1"></path><path clip-path="url(#clip180)" d="M1353.58 1553.98 L1353.58 1532.4 L1359.44 1532.4 L1359.44 1553.75 Q1359.44 1558.81 1361.41 1561.36 Q1363.39 1563.87 1367.33 1563.87 Q1372.07 1563.87 1374.81 1560.85 Q1377.58 1557.83 1377.58 1552.61 L1377.58 1532.4 L1383.44 1532.4 L1383.44 1568.04 L1377.58 1568.04 L1377.58 1562.57 Q1375.45 1565.82 1372.62 1567.41 Q1369.81 1568.97 1366.09 1568.97 Q1359.95 1568.97 1356.76 1565.15 Q1353.58 1561.33 1353.58 1553.98 M1368.32 1531.54 L1368.32 1531.54 Z" fill="#000000" fill-rule="evenodd" fill-opacity="1"></path><path clip-path="url(#clip180)" d="M1416.16 1537.87 Q1415.17 1537.3 1413.99 1537.04 Q1412.85 1536.76 1411.45 1536.76 Q1406.48 1536.76 1403.81 1540 Q1401.17 1543.22 1401.17 1549.27 L1401.17 1568.04 L1395.28 1568.04 L1395.28 1532.4 L1401.17 1532.4 L1401.17 1537.93 Q1403.01 1534.69 1405.97 1533.13 Q1408.93 1531.54 1413.17 1531.54 Q1413.77 1531.54 1414.5 1531.63 Q1415.23 1531.7 1416.13 1531.85 L1416.16 1537.87 Z" fill="#000000" fill-rule="evenodd" fill-opacity="1"></path><path clip-path="url(#clip180)" d="M1451.36 1548.76 L1451.36 1551.62 L1424.43 1551.62 Q1424.81 1557.67 1428.06 1560.85 Q1431.34 1564 1437.16 1564 Q1440.54 1564 1443.69 1563.17 Q1446.87 1562.35 1449.99 1560.69 L1449.99 1566.23 Q1446.84 1567.57 1443.53 1568.27 Q1440.22 1568.97 1436.81 1568.97 Q1428.28 1568.97 1423.29 1564 Q1418.32 1559.04 1418.32 1550.57 Q1418.32 1541.82 1423.03 1536.69 Q1427.77 1531.54 1435.8 1531.54 Q1442.99 1531.54 1447.16 1536.18 Q1451.36 1540.8 1451.36 1548.76 M1445.5 1547.04 Q1445.44 1542.23 1442.8 1539.37 Q1440.19 1536.5 1435.86 1536.5 Q1430.96 1536.5 1428 1539.27 Q1425.07 1542.04 1424.62 1547.07 L1445.5 1547.04 Z" fill="#000000" fill-rule="evenodd" fill-opacity="1"></path><path clip-path="url(#clip180)" d="M1481.15 1518.52 L1494.65 1518.52 L1494.65 1523.07 L1487.01 1523.07 L1487.01 1572.09 L1494.65 1572.09 L1494.65 1576.64 L1481.15 1576.64 L1481.15 1518.52 Z" fill="#000000" fill-rule="evenodd" fill-opacity="1"></path><path clip-path="url(#clip180)" d="M1507.38 1520.52 L1516.96 1520.52 L1529.08 1552.86 L1541.27 1520.52 L1550.86 1520.52 L1550.86 1568.04 L1544.59 1568.04 L1544.59 1526.32 L1532.33 1558.91 L1525.87 1558.91 L1513.62 1526.32 L1513.62 1568.04 L1507.38 1568.04 L1507.38 1520.52 Z" fill="#000000" fill-rule="evenodd" fill-opacity="1"></path><path clip-path="url(#clip180)" d="M1570.05 1525.81 L1570.05 1543.66 L1578.13 1543.66 Q1582.62 1543.66 1585.07 1541.34 Q1587.52 1539.02 1587.52 1534.72 Q1587.52 1530.45 1585.07 1528.13 Q1582.62 1525.81 1578.13 1525.81 L1570.05 1525.81 M1563.62 1520.52 L1578.13 1520.52 Q1586.12 1520.52 1590.2 1524.15 Q1594.3 1527.75 1594.3 1534.72 Q1594.3 1541.75 1590.2 1545.35 Q1586.12 1548.95 1578.13 1548.95 L1570.05 1548.95 L1570.05 1568.04 L1563.62 1568.04 L1563.62 1520.52 Z" fill="#000000" fill-rule="evenodd" fill-opacity="1"></path><path clip-path="url(#clip180)" d="M1615.94 1550.12 Q1608.85 1550.12 1606.11 1551.75 Q1603.37 1553.37 1603.37 1557.29 Q1603.37 1560.4 1605.41 1562.25 Q1607.48 1564.07 1611.01 1564.07 Q1615.88 1564.07 1618.81 1560.63 Q1621.77 1557.16 1621.77 1551.43 L1621.77 1550.12 L1615.94 1550.12 M1627.63 1547.71 L1627.63 1568.04 L1621.77 1568.04 L1621.77 1562.63 Q1619.76 1565.88 1616.77 1567.44 Q1613.78 1568.97 1609.45 1568.97 Q1603.98 1568.97 1600.73 1565.91 Q1597.52 1562.82 1597.52 1557.67 Q1597.52 1551.65 1601.53 1548.6 Q1605.57 1545.54 1613.56 1545.54 L1621.77 1545.54 L1621.77 1544.97 Q1621.77 1540.93 1619.1 1538.73 Q1616.45 1536.5 1611.65 1536.5 Q1608.59 1536.5 1605.7 1537.23 Q1602.8 1537.97 1600.13 1539.43 L1600.13 1534.02 Q1603.34 1532.78 1606.36 1532.17 Q1609.39 1531.54 1612.25 1531.54 Q1619.99 1531.54 1623.81 1535.55 Q1627.63 1539.56 1627.63 1547.71 Z" fill="#000000" fill-rule="evenodd" fill-opacity="1"></path><path clip-path="url(#clip180)" d="M1653.38 1518.52 L1653.38 1576.64 L1639.88 1576.64 L1639.88 1572.09 L1647.49 1572.09 L1647.49 1523.07 L1639.88 1523.07 L1639.88 1518.52 L1653.38 1518.52 Z" fill="#000000" fill-rule="evenodd" fill-opacity="1"></path><polyline clip-path="url(#clip182)" style="stroke:#000000; stroke-linecap:round; stroke-linejoin:round; stroke-width:2; stroke-opacity:0.1; fill:none" points="
  249.056,1354.07 2352.76,1354.07 
  "></polyline>
<polyline clip-path="url(#clip182)" style="stroke:#000000; stroke-linecap:round; stroke-linejoin:round; stroke-width:2; stroke-opacity:0.1; fill:none" points="
  249.056,1134.48 2352.76,1134.48 
  "></polyline>
<polyline clip-path="url(#clip182)" style="stroke:#000000; stroke-linecap:round; stroke-linejoin:round; stroke-width:2; stroke-opacity:0.1; fill:none" points="
  249.056,914.9 2352.76,914.9 
  "></polyline>
<polyline clip-path="url(#clip182)" style="stroke:#000000; stroke-linecap:round; stroke-linejoin:round; stroke-width:2; stroke-opacity:0.1; fill:none" points="
  249.056,695.315 2352.76,695.315 
  "></polyline>
<polyline clip-path="url(#clip182)" style="stroke:#000000; stroke-linecap:round; stroke-linejoin:round; stroke-width:2; stroke-opacity:0.1; fill:none" points="
  249.056,475.73 2352.76,475.73 
  "></polyline>
<polyline clip-path="url(#clip182)" style="stroke:#000000; stroke-linecap:round; stroke-linejoin:round; stroke-width:2; stroke-opacity:0.1; fill:none" points="
  249.056,256.145 2352.76,256.145 
  "></polyline>
<polyline clip-path="url(#clip180)" style="stroke:#000000; stroke-linecap:round; stroke-linejoin:round; stroke-width:4; stroke-opacity:1; fill:none" points="
  249.056,1423.18 249.056,47.2441 
  "></polyline>
<polyline clip-path="url(#clip180)" style="stroke:#000000; stroke-linecap:round; stroke-linejoin:round; stroke-width:4; stroke-opacity:1; fill:none" points="
  249.056,1354.07 267.954,1354.07 
  "></polyline>
<polyline clip-path="url(#clip180)" style="stroke:#000000; stroke-linecap:round; stroke-linejoin:round; stroke-width:4; stroke-opacity:1; fill:none" points="
  249.056,1134.48 267.954,1134.48 
  "></polyline>
<polyline clip-path="url(#clip180)" style="stroke:#000000; stroke-linecap:round; stroke-linejoin:round; stroke-width:4; stroke-opacity:1; fill:none" points="
  249.056,914.9 267.954,914.9 
  "></polyline>
<polyline clip-path="url(#clip180)" style="stroke:#000000; stroke-linecap:round; stroke-linejoin:round; stroke-width:4; stroke-opacity:1; fill:none" points="
  249.056,695.315 267.954,695.315 
  "></polyline>
<polyline clip-path="url(#clip180)" style="stroke:#000000; stroke-linecap:round; stroke-linejoin:round; stroke-width:4; stroke-opacity:1; fill:none" points="
  249.056,475.73 267.954,475.73 
  "></polyline>
<polyline clip-path="url(#clip180)" style="stroke:#000000; stroke-linecap:round; stroke-linejoin:round; stroke-width:4; stroke-opacity:1; fill:none" points="
  249.056,256.145 267.954,256.145 
  "></polyline>
<path clip-path="url(#clip180)" d="M130.88 1352.72 Q134.237 1353.43 136.112 1355.7 Q138.01 1357.97 138.01 1361.3 Q138.01 1366.42 134.492 1369.22 Q130.973 1372.02 124.492 1372.02 Q122.316 1372.02 120.001 1371.58 Q117.709 1371.16 115.256 1370.31 L115.256 1365.79 Q117.2 1366.93 119.515 1367.51 Q121.83 1368.09 124.353 1368.09 Q128.751 1368.09 131.042 1366.35 Q133.357 1364.61 133.357 1361.3 Q133.357 1358.25 131.205 1356.53 Q129.075 1354.8 125.255 1354.8 L121.228 1354.8 L121.228 1350.96 L125.441 1350.96 Q128.89 1350.96 130.718 1349.59 Q132.547 1348.2 132.547 1345.61 Q132.547 1342.95 130.649 1341.53 Q128.774 1340.1 125.255 1340.1 Q123.334 1340.1 121.135 1340.52 Q118.936 1340.93 116.297 1341.81 L116.297 1337.65 Q118.959 1336.91 121.274 1336.53 Q123.612 1336.16 125.672 1336.16 Q130.996 1336.16 134.098 1338.6 Q137.2 1341 137.2 1345.12 Q137.2 1347.99 135.556 1349.98 Q133.913 1351.95 130.88 1352.72 Z" fill="#000000" fill-rule="evenodd" fill-opacity="1"></path><path clip-path="url(#clip180)" d="M146.876 1365.47 L151.76 1365.47 L151.76 1371.35 L146.876 1371.35 L146.876 1365.47 Z" fill="#000000" fill-rule="evenodd" fill-opacity="1"></path><path clip-path="url(#clip180)" d="M174.792 1340.86 L162.987 1359.31 L174.792 1359.31 L174.792 1340.86 M173.565 1336.79 L179.445 1336.79 L179.445 1359.31 L184.376 1359.31 L184.376 1363.2 L179.445 1363.2 L179.445 1371.35 L174.792 1371.35 L174.792 1363.2 L159.19 1363.2 L159.19 1358.69 L173.565 1336.79 Z" fill="#000000" fill-rule="evenodd" fill-opacity="1"></path><path clip-path="url(#clip180)" d="M192.153 1336.79 L210.51 1336.79 L210.51 1340.72 L196.436 1340.72 L196.436 1349.2 Q197.454 1348.85 198.473 1348.69 Q199.491 1348.5 200.51 1348.5 Q206.297 1348.5 209.676 1351.67 Q213.056 1354.84 213.056 1360.26 Q213.056 1365.84 209.584 1368.94 Q206.112 1372.02 199.792 1372.02 Q197.616 1372.02 195.348 1371.65 Q193.102 1371.28 190.695 1370.54 L190.695 1365.84 Q192.778 1366.97 195 1367.53 Q197.223 1368.09 199.7 1368.09 Q203.704 1368.09 206.042 1365.98 Q208.38 1363.87 208.38 1360.26 Q208.38 1356.65 206.042 1354.54 Q203.704 1352.44 199.7 1352.44 Q197.825 1352.44 195.95 1352.85 Q194.098 1353.27 192.153 1354.15 L192.153 1336.79 Z" fill="#000000" fill-rule="evenodd" fill-opacity="1"></path><path clip-path="url(#clip180)" d="M129.885 1133.13 Q133.242 1133.85 135.117 1136.12 Q137.015 1138.38 137.015 1141.72 Q137.015 1146.83 133.496 1149.63 Q129.978 1152.44 123.496 1152.44 Q121.32 1152.44 119.006 1152 Q116.714 1151.58 114.26 1150.72 L114.26 1146.21 Q116.205 1147.34 118.519 1147.92 Q120.834 1148.5 123.357 1148.5 Q127.755 1148.5 130.047 1146.76 Q132.362 1145.03 132.362 1141.72 Q132.362 1138.66 130.209 1136.95 Q128.08 1135.21 124.26 1135.21 L120.232 1135.21 L120.232 1131.37 L124.445 1131.37 Q127.894 1131.37 129.723 1130.01 Q131.552 1128.62 131.552 1126.02 Q131.552 1123.36 129.654 1121.95 Q127.779 1120.51 124.26 1120.51 Q122.339 1120.51 120.14 1120.93 Q117.941 1121.35 115.302 1122.23 L115.302 1118.06 Q117.964 1117.32 120.279 1116.95 Q122.617 1116.58 124.677 1116.58 Q130.001 1116.58 133.103 1119.01 Q136.204 1121.42 136.204 1125.54 Q136.204 1128.41 134.561 1130.4 Q132.917 1132.37 129.885 1133.13 Z" fill="#000000" fill-rule="evenodd" fill-opacity="1"></path><path clip-path="url(#clip180)" d="M145.88 1145.88 L150.765 1145.88 L150.765 1151.76 L145.88 1151.76 L145.88 1145.88 Z" fill="#000000" fill-rule="evenodd" fill-opacity="1"></path><path clip-path="url(#clip180)" d="M160.996 1117.2 L179.352 1117.2 L179.352 1121.14 L165.278 1121.14 L165.278 1129.61 Q166.297 1129.26 167.315 1129.1 Q168.334 1128.92 169.352 1128.92 Q175.139 1128.92 178.519 1132.09 Q181.899 1135.26 181.899 1140.68 Q181.899 1146.26 178.426 1149.36 Q174.954 1152.44 168.635 1152.44 Q166.459 1152.44 164.19 1152.07 Q161.945 1151.7 159.538 1150.95 L159.538 1146.26 Q161.621 1147.39 163.843 1147.95 Q166.065 1148.5 168.542 1148.5 Q172.547 1148.5 174.885 1146.39 Q177.223 1144.29 177.223 1140.68 Q177.223 1137.07 174.885 1134.96 Q172.547 1132.85 168.542 1132.85 Q166.667 1132.85 164.792 1133.27 Q162.94 1133.69 160.996 1134.57 L160.996 1117.2 Z" fill="#000000" fill-rule="evenodd" fill-opacity="1"></path><path clip-path="url(#clip180)" d="M201.112 1120.28 Q197.5 1120.28 195.672 1123.85 Q193.866 1127.39 193.866 1134.52 Q193.866 1141.63 195.672 1145.19 Q197.5 1148.73 201.112 1148.73 Q204.746 1148.73 206.551 1145.19 Q208.38 1141.63 208.38 1134.52 Q208.38 1127.39 206.551 1123.85 Q204.746 1120.28 201.112 1120.28 M201.112 1116.58 Q206.922 1116.58 209.977 1121.19 Q213.056 1125.77 213.056 1134.52 Q213.056 1143.25 209.977 1147.85 Q206.922 1152.44 201.112 1152.44 Q195.301 1152.44 192.223 1147.85 Q189.167 1143.25 189.167 1134.52 Q189.167 1125.77 192.223 1121.19 Q195.301 1116.58 201.112 1116.58 Z" fill="#000000" fill-rule="evenodd" fill-opacity="1"></path><path clip-path="url(#clip180)" d="M130.88 913.545 Q134.237 914.263 136.112 916.531 Q138.01 918.8 138.01 922.133 Q138.01 927.249 134.492 930.05 Q130.973 932.851 124.492 932.851 Q122.316 932.851 120.001 932.411 Q117.709 931.994 115.256 931.138 L115.256 926.624 Q117.2 927.758 119.515 928.337 Q121.83 928.916 124.353 928.916 Q128.751 928.916 131.042 927.18 Q133.357 925.443 133.357 922.133 Q133.357 919.078 131.205 917.365 Q129.075 915.629 125.255 915.629 L121.228 915.629 L121.228 911.786 L125.441 911.786 Q128.89 911.786 130.718 910.42 Q132.547 909.032 132.547 906.439 Q132.547 903.777 130.649 902.365 Q128.774 900.93 125.255 900.93 Q123.334 900.93 121.135 901.346 Q118.936 901.763 116.297 902.643 L116.297 898.476 Q118.959 897.735 121.274 897.365 Q123.612 896.995 125.672 896.995 Q130.996 896.995 134.098 899.425 Q137.2 901.832 137.2 905.953 Q137.2 908.823 135.556 910.814 Q133.913 912.782 130.88 913.545 Z" fill="#000000" fill-rule="evenodd" fill-opacity="1"></path><path clip-path="url(#clip180)" d="M146.876 926.3 L151.76 926.3 L151.76 932.18 L146.876 932.18 L146.876 926.3 Z" fill="#000000" fill-rule="evenodd" fill-opacity="1"></path><path clip-path="url(#clip180)" d="M161.991 897.62 L180.348 897.62 L180.348 901.555 L166.274 901.555 L166.274 910.027 Q167.292 909.68 168.311 909.518 Q169.329 909.332 170.348 909.332 Q176.135 909.332 179.514 912.504 Q182.894 915.675 182.894 921.092 Q182.894 926.67 179.422 929.772 Q175.95 932.851 169.63 932.851 Q167.454 932.851 165.186 932.48 Q162.94 932.11 160.533 931.369 L160.533 926.67 Q162.616 927.805 164.839 928.36 Q167.061 928.916 169.538 928.916 Q173.542 928.916 175.88 926.809 Q178.218 924.703 178.218 921.092 Q178.218 917.481 175.88 915.374 Q173.542 913.268 169.538 913.268 Q167.663 913.268 165.788 913.684 Q163.936 914.101 161.991 914.981 L161.991 897.62 Z" fill="#000000" fill-rule="evenodd" fill-opacity="1"></path><path clip-path="url(#clip180)" d="M192.153 897.62 L210.51 897.62 L210.51 901.555 L196.436 901.555 L196.436 910.027 Q197.454 909.68 198.473 909.518 Q199.491 909.332 200.51 909.332 Q206.297 909.332 209.676 912.504 Q213.056 915.675 213.056 921.092 Q213.056 926.67 209.584 929.772 Q206.112 932.851 199.792 932.851 Q197.616 932.851 195.348 932.48 Q193.102 932.11 190.695 931.369 L190.695 926.67 Q192.778 927.805 195 928.36 Q197.223 928.916 199.7 928.916 Q203.704 928.916 206.042 926.809 Q208.38 924.703 208.38 921.092 Q208.38 917.481 206.042 915.374 Q203.704 913.268 199.7 913.268 Q197.825 913.268 195.95 913.684 Q194.098 914.101 192.153 914.981 L192.153 897.62 Z" fill="#000000" fill-rule="evenodd" fill-opacity="1"></path><path clip-path="url(#clip180)" d="M129.885 693.96 Q133.242 694.678 135.117 696.947 Q137.015 699.215 137.015 702.548 Q137.015 707.664 133.496 710.465 Q129.978 713.266 123.496 713.266 Q121.32 713.266 119.006 712.826 Q116.714 712.409 114.26 711.553 L114.26 707.039 Q116.205 708.173 118.519 708.752 Q120.834 709.331 123.357 709.331 Q127.755 709.331 130.047 707.595 Q132.362 705.859 132.362 702.548 Q132.362 699.493 130.209 697.78 Q128.08 696.044 124.26 696.044 L120.232 696.044 L120.232 692.201 L124.445 692.201 Q127.894 692.201 129.723 690.835 Q131.552 689.447 131.552 686.854 Q131.552 684.192 129.654 682.78 Q127.779 681.345 124.26 681.345 Q122.339 681.345 120.14 681.761 Q117.941 682.178 115.302 683.058 L115.302 678.891 Q117.964 678.15 120.279 677.78 Q122.617 677.41 124.677 677.41 Q130.001 677.41 133.103 679.84 Q136.204 682.248 136.204 686.368 Q136.204 689.238 134.561 691.229 Q132.917 693.197 129.885 693.96 Z" fill="#000000" fill-rule="evenodd" fill-opacity="1"></path><path clip-path="url(#clip180)" d="M145.88 706.715 L150.765 706.715 L150.765 712.595 L145.88 712.595 L145.88 706.715 Z" fill="#000000" fill-rule="evenodd" fill-opacity="1"></path><path clip-path="url(#clip180)" d="M171.528 693.451 Q168.38 693.451 166.528 695.604 Q164.7 697.757 164.7 701.507 Q164.7 705.234 166.528 707.409 Q168.38 709.562 171.528 709.562 Q174.677 709.562 176.505 707.409 Q178.357 705.234 178.357 701.507 Q178.357 697.757 176.505 695.604 Q174.677 693.451 171.528 693.451 M180.811 678.798 L180.811 683.058 Q179.051 682.224 177.246 681.785 Q175.464 681.345 173.704 681.345 Q169.075 681.345 166.621 684.47 Q164.19 687.595 163.843 693.914 Q165.209 691.9 167.269 690.835 Q169.329 689.747 171.806 689.747 Q177.014 689.747 180.024 692.919 Q183.056 696.067 183.056 701.507 Q183.056 706.831 179.908 710.048 Q176.76 713.266 171.528 713.266 Q165.533 713.266 162.362 708.683 Q159.19 704.076 159.19 695.349 Q159.19 687.155 163.079 682.294 Q166.968 677.41 173.519 677.41 Q175.278 677.41 177.061 677.757 Q178.866 678.104 180.811 678.798 Z" fill="#000000" fill-rule="evenodd" fill-opacity="1"></path><path clip-path="url(#clip180)" d="M201.112 681.113 Q197.5 681.113 195.672 684.678 Q193.866 688.22 193.866 695.349 Q193.866 702.456 195.672 706.021 Q197.5 709.562 201.112 709.562 Q204.746 709.562 206.551 706.021 Q208.38 702.456 208.38 695.349 Q208.38 688.22 206.551 684.678 Q204.746 681.113 201.112 681.113 M201.112 677.41 Q206.922 677.41 209.977 682.016 Q213.056 686.599 213.056 695.349 Q213.056 704.076 209.977 708.683 Q206.922 713.266 201.112 713.266 Q195.301 713.266 192.223 708.683 Q189.167 704.076 189.167 695.349 Q189.167 686.599 192.223 682.016 Q195.301 677.41 201.112 677.41 Z" fill="#000000" fill-rule="evenodd" fill-opacity="1"></path><path clip-path="url(#clip180)" d="M130.88 474.375 Q134.237 475.093 136.112 477.362 Q138.01 479.63 138.01 482.963 Q138.01 488.079 134.492 490.88 Q130.973 493.681 124.492 493.681 Q122.316 493.681 120.001 493.241 Q117.709 492.824 115.256 491.968 L115.256 487.454 Q117.2 488.588 119.515 489.167 Q121.83 489.746 124.353 489.746 Q128.751 489.746 131.042 488.01 Q133.357 486.274 133.357 482.963 Q133.357 479.908 131.205 478.195 Q129.075 476.459 125.255 476.459 L121.228 476.459 L121.228 472.616 L125.441 472.616 Q128.89 472.616 130.718 471.25 Q132.547 469.862 132.547 467.269 Q132.547 464.607 130.649 463.195 Q128.774 461.76 125.255 461.76 Q123.334 461.76 121.135 462.176 Q118.936 462.593 116.297 463.473 L116.297 459.306 Q118.959 458.565 121.274 458.195 Q123.612 457.825 125.672 457.825 Q130.996 457.825 134.098 460.255 Q137.2 462.663 137.2 466.783 Q137.2 469.653 135.556 471.644 Q133.913 473.612 130.88 474.375 Z" fill="#000000" fill-rule="evenodd" fill-opacity="1"></path><path clip-path="url(#clip180)" d="M146.876 487.13 L151.76 487.13 L151.76 493.01 L146.876 493.01 L146.876 487.13 Z" fill="#000000" fill-rule="evenodd" fill-opacity="1"></path><path clip-path="url(#clip180)" d="M172.524 473.866 Q169.376 473.866 167.524 476.019 Q165.695 478.172 165.695 481.922 Q165.695 485.649 167.524 487.824 Q169.376 489.977 172.524 489.977 Q175.672 489.977 177.501 487.824 Q179.352 485.649 179.352 481.922 Q179.352 478.172 177.501 476.019 Q175.672 473.866 172.524 473.866 M181.806 459.213 L181.806 463.473 Q180.047 462.639 178.241 462.2 Q176.459 461.76 174.7 461.76 Q170.07 461.76 167.616 464.885 Q165.186 468.01 164.839 474.329 Q166.204 472.315 168.264 471.25 Q170.325 470.162 172.802 470.162 Q178.01 470.162 181.019 473.334 Q184.051 476.482 184.051 481.922 Q184.051 487.246 180.903 490.463 Q177.755 493.681 172.524 493.681 Q166.528 493.681 163.357 489.098 Q160.186 484.491 160.186 475.764 Q160.186 467.57 164.075 462.709 Q167.964 457.825 174.514 457.825 Q176.274 457.825 178.056 458.172 Q179.862 458.519 181.806 459.213 Z" fill="#000000" fill-rule="evenodd" fill-opacity="1"></path><path clip-path="url(#clip180)" d="M192.153 458.45 L210.51 458.45 L210.51 462.385 L196.436 462.385 L196.436 470.857 Q197.454 470.51 198.473 470.348 Q199.491 470.162 200.51 470.162 Q206.297 470.162 209.676 473.334 Q213.056 476.505 213.056 481.922 Q213.056 487.5 209.584 490.602 Q206.112 493.681 199.792 493.681 Q197.616 493.681 195.348 493.311 Q193.102 492.94 190.695 492.199 L190.695 487.5 Q192.778 488.635 195 489.19 Q197.223 489.746 199.7 489.746 Q203.704 489.746 206.042 487.639 Q208.38 485.533 208.38 481.922 Q208.38 478.311 206.042 476.204 Q203.704 474.098 199.7 474.098 Q197.825 474.098 195.95 474.514 Q194.098 474.931 192.153 475.811 L192.153 458.45 Z" fill="#000000" fill-rule="evenodd" fill-opacity="1"></path><path clip-path="url(#clip180)" d="M129.885 254.79 Q133.242 255.508 135.117 257.777 Q137.015 260.045 137.015 263.378 Q137.015 268.494 133.496 271.295 Q129.978 274.096 123.496 274.096 Q121.32 274.096 119.006 273.656 Q116.714 273.239 114.26 272.383 L114.26 267.869 Q116.205 269.003 118.519 269.582 Q120.834 270.161 123.357 270.161 Q127.755 270.161 130.047 268.425 Q132.362 266.689 132.362 263.378 Q132.362 260.323 130.209 258.61 Q128.08 256.874 124.26 256.874 L120.232 256.874 L120.232 253.031 L124.445 253.031 Q127.894 253.031 129.723 251.665 Q131.552 250.277 131.552 247.684 Q131.552 245.022 129.654 243.61 Q127.779 242.175 124.26 242.175 Q122.339 242.175 120.14 242.591 Q117.941 243.008 115.302 243.888 L115.302 239.721 Q117.964 238.98 120.279 238.61 Q122.617 238.24 124.677 238.24 Q130.001 238.24 133.103 240.67 Q136.204 243.078 136.204 247.198 Q136.204 250.068 134.561 252.059 Q132.917 254.027 129.885 254.79 Z" fill="#000000" fill-rule="evenodd" fill-opacity="1"></path><path clip-path="url(#clip180)" d="M145.88 267.545 L150.765 267.545 L150.765 273.425 L145.88 273.425 L145.88 267.545 Z" fill="#000000" fill-rule="evenodd" fill-opacity="1"></path><path clip-path="url(#clip180)" d="M159.769 238.865 L181.991 238.865 L181.991 240.855 L169.445 273.425 L164.561 273.425 L176.366 242.8 L159.769 242.8 L159.769 238.865 Z" fill="#000000" fill-rule="evenodd" fill-opacity="1"></path><path clip-path="url(#clip180)" d="M201.112 241.943 Q197.5 241.943 195.672 245.508 Q193.866 249.05 193.866 256.179 Q193.866 263.286 195.672 266.851 Q197.5 270.392 201.112 270.392 Q204.746 270.392 206.551 266.851 Q208.38 263.286 208.38 256.179 Q208.38 249.05 206.551 245.508 Q204.746 241.943 201.112 241.943 M201.112 238.24 Q206.922 238.24 209.977 242.846 Q213.056 247.429 213.056 256.179 Q213.056 264.906 209.977 269.513 Q206.922 274.096 201.112 274.096 Q195.301 274.096 192.223 269.513 Q189.167 264.906 189.167 256.179 Q189.167 247.429 192.223 242.846 Q195.301 238.24 201.112 238.24 Z" fill="#000000" fill-rule="evenodd" fill-opacity="1"></path><path clip-path="url(#clip180)" d="M20.1444 756.298 L26.9239 756.298 Q23.9002 759.545 22.4043 763.237 Q20.9083 766.897 20.9083 771.035 Q20.9083 779.183 25.9054 783.512 Q30.8707 787.84 40.2919 787.84 Q49.6813 787.84 54.6784 783.512 Q59.6436 779.183 59.6436 771.035 Q59.6436 766.897 58.1477 763.237 Q56.6518 759.545 53.6281 756.298 L60.3439 756.298 Q62.6355 759.672 63.7814 763.46 Q64.9272 767.216 64.9272 771.417 Q64.9272 782.207 58.3387 788.413 Q51.7183 794.62 40.2919 794.62 Q28.8336 794.62 22.2451 788.413 Q15.6248 782.207 15.6248 771.417 Q15.6248 767.152 16.7706 763.396 Q17.8846 759.609 20.1444 756.298 Z" fill="#000000" fill-rule="evenodd" fill-opacity="1"></path><path clip-path="url(#clip180)" d="M32.4621 732.809 Q32.4621 737.52 36.1542 740.257 Q39.8145 742.994 46.212 742.994 Q52.6095 742.994 56.3017 740.289 Q59.9619 737.551 59.9619 732.809 Q59.9619 728.13 56.2698 725.393 Q52.5777 722.656 46.212 722.656 Q39.8781 722.656 36.186 725.393 Q32.4621 728.13 32.4621 732.809 M27.4968 732.809 Q27.4968 725.17 32.4621 720.81 Q37.4273 716.449 46.212 716.449 Q54.9649 716.449 59.9619 720.81 Q64.9272 725.17 64.9272 732.809 Q64.9272 740.48 59.9619 744.84 Q54.9649 749.169 46.212 749.169 Q37.4273 749.169 32.4621 744.84 Q27.4968 740.48 27.4968 732.809 Z" fill="#000000" fill-rule="evenodd" fill-opacity="1"></path><path clip-path="url(#clip180)" d="M21.7677 700.057 L39.6235 700.057 L39.6235 691.973 Q39.6235 687.485 37.3 685.034 Q34.9765 682.583 30.6797 682.583 Q26.4147 682.583 24.0912 685.034 Q21.7677 687.485 21.7677 691.973 L21.7677 700.057 M16.4842 706.487 L16.4842 691.973 Q16.4842 683.984 20.1126 679.91 Q23.7092 675.804 30.6797 675.804 Q37.7138 675.804 41.3104 679.91 Q44.907 683.984 44.907 691.973 L44.907 700.057 L64.0042 700.057 L64.0042 706.487 L16.4842 706.487 Z" fill="#000000" fill-rule="evenodd" fill-opacity="1"></path><circle clip-path="url(#clip182)" cx="308.595" cy="689.687" r="14.4" fill="#009af9" fill-rule="evenodd" fill-opacity="1" stroke="#000000" stroke-opacity="1" stroke-width="3.2"></circle>
<circle clip-path="url(#clip182)" cx="344.034" cy="689.687" r="14.4" fill="#009af9" fill-rule="evenodd" fill-opacity="1" stroke="#000000" stroke-opacity="1" stroke-width="3.2"></circle>
<circle clip-path="url(#clip182)" cx="379.474" cy="835.995" r="14.4" fill="#009af9" fill-rule="evenodd" fill-opacity="1" stroke="#000000" stroke-opacity="1" stroke-width="3.2"></circle>
<circle clip-path="url(#clip182)" cx="414.914" cy="541.684" r="14.4" fill="#009af9" fill-rule="evenodd" fill-opacity="1" stroke="#000000" stroke-opacity="1" stroke-width="3.2"></circle>
<circle clip-path="url(#clip182)" cx="450.353" cy="541.684" r="14.4" fill="#009af9" fill-rule="evenodd" fill-opacity="1" stroke="#000000" stroke-opacity="1" stroke-width="3.2"></circle>
<circle clip-path="url(#clip182)" cx="485.793" cy="380.682" r="14.4" fill="#009af9" fill-rule="evenodd" fill-opacity="1" stroke="#000000" stroke-opacity="1" stroke-width="3.2"></circle>
<circle clip-path="url(#clip182)" cx="521.233" cy="380.682" r="14.4" fill="#009af9" fill-rule="evenodd" fill-opacity="1" stroke="#000000" stroke-opacity="1" stroke-width="3.2"></circle>
<circle clip-path="url(#clip182)" cx="556.672" cy="380.682" r="14.4" fill="#009af9" fill-rule="evenodd" fill-opacity="1" stroke="#000000" stroke-opacity="1" stroke-width="3.2"></circle>
<circle clip-path="url(#clip182)" cx="592.112" cy="380.682" r="14.4" fill="#009af9" fill-rule="evenodd" fill-opacity="1" stroke="#000000" stroke-opacity="1" stroke-width="3.2"></circle>
<circle clip-path="url(#clip182)" cx="627.552" cy="380.682" r="14.4" fill="#009af9" fill-rule="evenodd" fill-opacity="1" stroke="#000000" stroke-opacity="1" stroke-width="3.2"></circle>
<circle clip-path="url(#clip182)" cx="662.992" cy="541.684" r="14.4" fill="#009af9" fill-rule="evenodd" fill-opacity="1" stroke="#000000" stroke-opacity="1" stroke-width="3.2"></circle>
<circle clip-path="url(#clip182)" cx="698.431" cy="234.005" r="14.4" fill="#009af9" fill-rule="evenodd" fill-opacity="1" stroke="#000000" stroke-opacity="1" stroke-width="3.2"></circle>
<circle clip-path="url(#clip182)" cx="733.871" cy="234.005" r="14.4" fill="#009af9" fill-rule="evenodd" fill-opacity="1" stroke="#000000" stroke-opacity="1" stroke-width="3.2"></circle>
<circle clip-path="url(#clip182)" cx="769.311" cy="234.005" r="14.4" fill="#009af9" fill-rule="evenodd" fill-opacity="1" stroke="#000000" stroke-opacity="1" stroke-width="3.2"></circle>
<circle clip-path="url(#clip182)" cx="804.75" cy="234.005" r="14.4" fill="#009af9" fill-rule="evenodd" fill-opacity="1" stroke="#000000" stroke-opacity="1" stroke-width="3.2"></circle>
<circle clip-path="url(#clip182)" cx="840.19" cy="234.005" r="14.4" fill="#009af9" fill-rule="evenodd" fill-opacity="1" stroke="#000000" stroke-opacity="1" stroke-width="3.2"></circle>
<circle clip-path="url(#clip182)" cx="875.63" cy="234.005" r="14.4" fill="#009af9" fill-rule="evenodd" fill-opacity="1" stroke="#000000" stroke-opacity="1" stroke-width="3.2"></circle>
<circle clip-path="url(#clip182)" cx="911.069" cy="234.005" r="14.4" fill="#009af9" fill-rule="evenodd" fill-opacity="1" stroke="#000000" stroke-opacity="1" stroke-width="3.2"></circle>
<circle clip-path="url(#clip182)" cx="946.509" cy="234.005" r="14.4" fill="#009af9" fill-rule="evenodd" fill-opacity="1" stroke="#000000" stroke-opacity="1" stroke-width="3.2"></circle>
<circle clip-path="url(#clip182)" cx="981.949" cy="234.005" r="14.4" fill="#009af9" fill-rule="evenodd" fill-opacity="1" stroke="#000000" stroke-opacity="1" stroke-width="3.2"></circle>
<circle clip-path="url(#clip182)" cx="1017.39" cy="86.1857" r="14.4" fill="#009af9" fill-rule="evenodd" fill-opacity="1" stroke="#000000" stroke-opacity="1" stroke-width="3.2"></circle>
<circle clip-path="url(#clip182)" cx="1052.83" cy="86.1857" r="14.4" fill="#009af9" fill-rule="evenodd" fill-opacity="1" stroke="#000000" stroke-opacity="1" stroke-width="3.2"></circle>
<circle clip-path="url(#clip182)" cx="1088.27" cy="234.005" r="14.4" fill="#009af9" fill-rule="evenodd" fill-opacity="1" stroke="#000000" stroke-opacity="1" stroke-width="3.2"></circle>
<circle clip-path="url(#clip182)" cx="1123.71" cy="234.005" r="14.4" fill="#009af9" fill-rule="evenodd" fill-opacity="1" stroke="#000000" stroke-opacity="1" stroke-width="3.2"></circle>
<circle clip-path="url(#clip182)" cx="1159.15" cy="234.005" r="14.4" fill="#009af9" fill-rule="evenodd" fill-opacity="1" stroke="#000000" stroke-opacity="1" stroke-width="3.2"></circle>
<circle clip-path="url(#clip182)" cx="1194.59" cy="234.005" r="14.4" fill="#009af9" fill-rule="evenodd" fill-opacity="1" stroke="#000000" stroke-opacity="1" stroke-width="3.2"></circle>
<circle clip-path="url(#clip182)" cx="1230.03" cy="234.005" r="14.4" fill="#009af9" fill-rule="evenodd" fill-opacity="1" stroke="#000000" stroke-opacity="1" stroke-width="3.2"></circle>
<circle clip-path="url(#clip182)" cx="1265.47" cy="234.005" r="14.4" fill="#009af9" fill-rule="evenodd" fill-opacity="1" stroke="#000000" stroke-opacity="1" stroke-width="3.2"></circle>
<circle clip-path="url(#clip182)" cx="1300.91" cy="234.005" r="14.4" fill="#009af9" fill-rule="evenodd" fill-opacity="1" stroke="#000000" stroke-opacity="1" stroke-width="3.2"></circle>
<circle clip-path="url(#clip182)" cx="1336.35" cy="234.005" r="14.4" fill="#009af9" fill-rule="evenodd" fill-opacity="1" stroke="#000000" stroke-opacity="1" stroke-width="3.2"></circle>
<circle clip-path="url(#clip182)" cx="1371.79" cy="234.005" r="14.4" fill="#009af9" fill-rule="evenodd" fill-opacity="1" stroke="#000000" stroke-opacity="1" stroke-width="3.2"></circle>
<circle clip-path="url(#clip182)" cx="1407.22" cy="86.1857" r="14.4" fill="#009af9" fill-rule="evenodd" fill-opacity="1" stroke="#000000" stroke-opacity="1" stroke-width="3.2"></circle>
<circle clip-path="url(#clip182)" cx="1442.66" cy="86.1857" r="14.4" fill="#009af9" fill-rule="evenodd" fill-opacity="1" stroke="#000000" stroke-opacity="1" stroke-width="3.2"></circle>
<circle clip-path="url(#clip182)" cx="1478.1" cy="86.1857" r="14.4" fill="#009af9" fill-rule="evenodd" fill-opacity="1" stroke="#000000" stroke-opacity="1" stroke-width="3.2"></circle>
<circle clip-path="url(#clip182)" cx="1513.54" cy="86.1857" r="14.4" fill="#009af9" fill-rule="evenodd" fill-opacity="1" stroke="#000000" stroke-opacity="1" stroke-width="3.2"></circle>
<circle clip-path="url(#clip182)" cx="1548.98" cy="86.1857" r="14.4" fill="#009af9" fill-rule="evenodd" fill-opacity="1" stroke="#000000" stroke-opacity="1" stroke-width="3.2"></circle>
<circle clip-path="url(#clip182)" cx="1584.42" cy="86.1857" r="14.4" fill="#009af9" fill-rule="evenodd" fill-opacity="1" stroke="#000000" stroke-opacity="1" stroke-width="3.2"></circle>
<circle clip-path="url(#clip182)" cx="1619.86" cy="234.005" r="14.4" fill="#009af9" fill-rule="evenodd" fill-opacity="1" stroke="#000000" stroke-opacity="1" stroke-width="3.2"></circle>
<circle clip-path="url(#clip182)" cx="1655.3" cy="234.005" r="14.4" fill="#009af9" fill-rule="evenodd" fill-opacity="1" stroke="#000000" stroke-opacity="1" stroke-width="3.2"></circle>
<circle clip-path="url(#clip182)" cx="1690.74" cy="234.005" r="14.4" fill="#009af9" fill-rule="evenodd" fill-opacity="1" stroke="#000000" stroke-opacity="1" stroke-width="3.2"></circle>
<circle clip-path="url(#clip182)" cx="1726.18" cy="234.005" r="14.4" fill="#009af9" fill-rule="evenodd" fill-opacity="1" stroke="#000000" stroke-opacity="1" stroke-width="3.2"></circle>
<circle clip-path="url(#clip182)" cx="1761.62" cy="234.005" r="14.4" fill="#009af9" fill-rule="evenodd" fill-opacity="1" stroke="#000000" stroke-opacity="1" stroke-width="3.2"></circle>
<circle clip-path="url(#clip182)" cx="1797.06" cy="234.005" r="14.4" fill="#009af9" fill-rule="evenodd" fill-opacity="1" stroke="#000000" stroke-opacity="1" stroke-width="3.2"></circle>
<circle clip-path="url(#clip182)" cx="1832.5" cy="234.005" r="14.4" fill="#009af9" fill-rule="evenodd" fill-opacity="1" stroke="#000000" stroke-opacity="1" stroke-width="3.2"></circle>
<circle clip-path="url(#clip182)" cx="1867.94" cy="380.682" r="14.4" fill="#009af9" fill-rule="evenodd" fill-opacity="1" stroke="#000000" stroke-opacity="1" stroke-width="3.2"></circle>
<circle clip-path="url(#clip182)" cx="1903.38" cy="380.682" r="14.4" fill="#009af9" fill-rule="evenodd" fill-opacity="1" stroke="#000000" stroke-opacity="1" stroke-width="3.2"></circle>
<circle clip-path="url(#clip182)" cx="1938.82" cy="234.005" r="14.4" fill="#009af9" fill-rule="evenodd" fill-opacity="1" stroke="#000000" stroke-opacity="1" stroke-width="3.2"></circle>
<circle clip-path="url(#clip182)" cx="1974.26" cy="234.005" r="14.4" fill="#009af9" fill-rule="evenodd" fill-opacity="1" stroke="#000000" stroke-opacity="1" stroke-width="3.2"></circle>
<circle clip-path="url(#clip182)" cx="2009.7" cy="234.005" r="14.4" fill="#009af9" fill-rule="evenodd" fill-opacity="1" stroke="#000000" stroke-opacity="1" stroke-width="3.2"></circle>
<circle clip-path="url(#clip182)" cx="2045.14" cy="380.682" r="14.4" fill="#009af9" fill-rule="evenodd" fill-opacity="1" stroke="#000000" stroke-opacity="1" stroke-width="3.2"></circle>
<circle clip-path="url(#clip182)" cx="2080.58" cy="380.682" r="14.4" fill="#009af9" fill-rule="evenodd" fill-opacity="1" stroke="#000000" stroke-opacity="1" stroke-width="3.2"></circle>
<circle clip-path="url(#clip182)" cx="2116.02" cy="380.682" r="14.4" fill="#009af9" fill-rule="evenodd" fill-opacity="1" stroke="#000000" stroke-opacity="1" stroke-width="3.2"></circle>
<circle clip-path="url(#clip182)" cx="2151.46" cy="380.682" r="14.4" fill="#009af9" fill-rule="evenodd" fill-opacity="1" stroke="#000000" stroke-opacity="1" stroke-width="3.2"></circle>
<circle clip-path="url(#clip182)" cx="2186.9" cy="689.687" r="14.4" fill="#009af9" fill-rule="evenodd" fill-opacity="1" stroke="#000000" stroke-opacity="1" stroke-width="3.2"></circle>
<circle clip-path="url(#clip182)" cx="2222.34" cy="835.995" r="14.4" fill="#009af9" fill-rule="evenodd" fill-opacity="1" stroke="#000000" stroke-opacity="1" stroke-width="3.2"></circle>
<circle clip-path="url(#clip182)" cx="2257.78" cy="1083.68" r="14.4" fill="#009af9" fill-rule="evenodd" fill-opacity="1" stroke="#000000" stroke-opacity="1" stroke-width="3.2"></circle>
<circle clip-path="url(#clip182)" cx="2293.22" cy="1384.24" r="14.4" fill="#009af9" fill-rule="evenodd" fill-opacity="1" stroke="#000000" stroke-opacity="1" stroke-width="3.2"></circle>
<path clip-path="url(#clip180)" d="
M319.179 1377.32 L719.548 1377.32 L719.548 1273.64 L319.179 1273.64  Z
  " fill="#ffffff" fill-rule="evenodd" fill-opacity="1"></path>
<polyline clip-path="url(#clip180)" style="stroke:#000000; stroke-linecap:round; stroke-linejoin:round; stroke-width:4; stroke-opacity:1; fill:none" points="
  319.179,1377.32 719.548,1377.32 719.548,1273.64 319.179,1273.64 319.179,1377.32 
  "></polyline>
<circle clip-path="url(#clip180)" cx="412.677" cy="1325.48" r="23.04" fill="#009af9" fill-rule="evenodd" fill-opacity="1" stroke="#000000" stroke-opacity="1" stroke-width="5.12"></circle>
<path clip-path="url(#clip180)" d="M535.195 1314.64 Q535.195 1313.87 534.984 1313.24 Q534.797 1312.58 534.493 1312.13 Q534.211 1311.67 533.673 1311.31 Q533.134 1310.94 532.689 1310.71 Q532.244 1310.47 531.494 1310.33 Q530.745 1310.17 530.253 1310.1 Q529.761 1310 528.918 1309.96 Q528.075 1309.91 527.653 1309.91 Q527.255 1309.91 526.459 1309.91 Q523.952 1309.91 523.531 1309.96 Q522.898 1310.05 522.664 1310.42 Q522.43 1310.78 522.196 1311.74 L519.081 1324.24 L524.444 1324.24 Q527.372 1324.24 529.386 1323.42 Q531.401 1322.6 532.548 1321.46 Q533.813 1320.19 534.493 1318.15 Q535.195 1316.12 535.195 1314.64 M540.418 1336.73 Q540.418 1336.99 540.208 1337.57 Q540.02 1338.16 539.552 1338.98 Q539.083 1339.77 538.451 1340.5 Q537.819 1341.23 536.811 1341.72 Q535.804 1342.23 534.657 1342.23 Q534.375 1342.23 534.094 1342.21 Q533.813 1342.21 533.111 1342.09 Q532.431 1342 531.869 1341.81 Q531.307 1341.65 530.604 1341.25 Q529.902 1340.87 529.41 1340.36 Q528.941 1339.82 528.614 1338.98 Q528.286 1338.11 528.286 1337.06 Q528.286 1336.12 529.059 1332.98 Q529.738 1330.31 529.738 1329.65 Q529.738 1328.93 529.504 1328.25 Q529.293 1327.57 528.754 1326.87 Q528.239 1326.16 527.138 1325.74 Q526.037 1325.3 524.491 1325.3 L518.8 1325.3 L515.614 1338.02 Q515.614 1338.04 515.544 1338.37 Q515.474 1338.67 515.474 1338.84 Q515.474 1339.14 515.661 1339.33 Q515.872 1339.52 516.387 1339.61 Q516.902 1339.68 517.3 1339.7 Q517.722 1339.7 518.589 1339.7 Q519.666 1339.7 519.854 1339.89 Q519.947 1340.01 519.947 1340.22 Q519.947 1340.55 519.854 1340.78 Q519.783 1340.99 519.596 1341.06 Q519.432 1341.13 519.315 1341.16 Q519.198 1341.18 518.987 1341.18 L512.897 1341.04 L506.854 1341.18 Q506.175 1341.18 506.175 1340.64 Q506.175 1340.17 506.339 1339.98 Q506.503 1339.77 506.714 1339.75 Q506.924 1339.7 507.463 1339.7 Q508.634 1339.7 509.337 1339.63 Q510.04 1339.56 510.485 1339.47 Q510.953 1339.35 511.187 1339.02 Q511.445 1338.7 511.562 1338.41 Q511.679 1338.11 511.843 1337.43 L518.261 1311.67 Q518.448 1310.89 518.448 1310.78 Q518.448 1310.33 518.167 1310.21 Q517.909 1310.07 517.16 1310 L515.333 1309.91 Q514.771 1309.91 514.537 1309.89 Q514.326 1309.86 514.162 1309.75 Q513.998 1309.63 513.998 1309.37 Q513.998 1308.71 514.279 1308.57 Q514.56 1308.41 515.38 1308.41 L529.059 1308.41 Q533.72 1308.41 536.671 1310.45 Q539.645 1312.49 539.645 1315.6 Q539.645 1317.01 539.013 1318.32 Q538.381 1319.63 537.327 1320.66 Q536.296 1321.69 534.914 1322.56 Q533.532 1323.4 532.057 1323.99 Q530.604 1324.55 529.105 1324.88 Q529.761 1325.11 530.37 1325.46 Q531.003 1325.81 531.799 1326.47 Q532.619 1327.12 533.111 1328.18 Q533.602 1329.23 533.602 1330.52 Q533.602 1331.43 533.415 1332.79 Q532.947 1336.66 532.947 1338.25 Q532.947 1339.77 533.345 1340.48 Q533.743 1341.18 534.867 1341.18 Q535.968 1341.18 537.186 1340.19 Q538.428 1339.19 539.224 1336.82 Q539.411 1336.14 539.856 1336.14 Q539.88 1336.14 539.903 1336.14 Q539.95 1336.14 540.044 1336.19 Q540.137 1336.21 540.208 1336.28 Q540.301 1336.33 540.348 1336.45 Q540.418 1336.56 540.418 1336.73 Z" fill="#000000" fill-rule="evenodd" fill-opacity="1"></path><path clip-path="url(#clip180)" d="M587.189 1328.51 Q587.47 1328.79 587.47 1329.19 Q587.47 1329.58 587.189 1329.87 Q586.908 1330.15 586.51 1330.15 L556.482 1330.15 Q556.084 1330.15 555.803 1329.87 Q555.522 1329.58 555.522 1329.19 Q555.522 1328.79 555.803 1328.51 Q556.084 1328.23 556.482 1328.23 L586.51 1328.23 Q586.908 1328.23 587.189 1328.51 Z" fill="#000000" fill-rule="evenodd" fill-opacity="1"></path><path clip-path="url(#clip180)" d="M605.774 1313.8 L605.774 1312.3 Q611.536 1312.3 614.51 1309.23 Q615.33 1309.23 615.471 1309.42 Q615.611 1309.6 615.611 1310.47 L615.611 1337.38 Q615.611 1338.81 616.314 1339.26 Q617.016 1339.7 620.085 1339.7 L621.607 1339.7 L621.607 1341.18 Q619.921 1341.04 613.831 1341.04 Q607.741 1341.04 606.078 1341.18 L606.078 1339.7 L607.601 1339.7 Q610.622 1339.7 611.348 1339.28 Q612.074 1338.84 612.074 1337.38 L612.074 1312.53 Q609.568 1313.8 605.774 1313.8 Z" fill="#000000" fill-rule="evenodd" fill-opacity="1"></path><path clip-path="url(#clip180)" d="M625.296 1334.71 Q625.296 1333.29 626.115 1332.61 Q626.935 1331.93 627.989 1331.93 Q629.09 1331.93 629.863 1332.65 Q630.659 1333.36 630.659 1334.6 Q630.659 1335.93 629.723 1336.68 Q628.809 1337.43 627.497 1337.24 Q628.645 1339.16 630.753 1340.03 Q632.885 1340.9 634.852 1340.9 Q636.913 1340.9 638.576 1339.12 Q640.263 1337.34 640.263 1332.98 Q640.263 1329.28 638.81 1327.15 Q637.382 1325.02 634.548 1325.02 L632.44 1325.02 Q631.713 1325.02 631.503 1324.95 Q631.292 1324.88 631.292 1324.48 Q631.292 1324.01 632.018 1323.92 Q632.744 1323.92 633.892 1323.78 Q636.679 1323.68 638.155 1321.27 Q639.49 1319.02 639.49 1315.81 Q639.49 1312.88 638.084 1311.67 Q636.702 1310.42 634.899 1310.42 Q633.212 1310.42 631.362 1311.13 Q629.512 1311.83 628.505 1313.4 Q631.479 1313.4 631.479 1315.81 Q631.479 1316.87 630.8 1317.57 Q630.144 1318.25 629.043 1318.25 Q627.989 1318.25 627.287 1317.59 Q626.584 1316.91 626.584 1315.77 Q626.584 1313.02 629.02 1311.13 Q631.479 1309.23 635.086 1309.23 Q638.647 1309.23 641.27 1311.1 Q643.917 1312.98 643.917 1315.86 Q643.917 1318.69 642.043 1321.01 Q640.169 1323.33 637.194 1324.29 Q640.848 1325.02 643.027 1327.5 Q645.205 1329.96 645.205 1332.98 Q645.205 1336.73 642.254 1339.49 Q639.302 1342.23 634.993 1342.23 Q631.011 1342.23 628.153 1340.08 Q625.296 1337.92 625.296 1334.71 Z" fill="#000000" fill-rule="evenodd" fill-opacity="1"></path><path clip-path="url(#clip180)" d="M646.153 1333.26 L646.153 1331.79 L660.885 1309.28 Q661.26 1308.69 661.846 1308.71 Q662.384 1308.71 662.502 1308.93 Q662.619 1309.14 662.619 1309.96 L662.619 1331.79 L667.42 1331.79 L667.42 1333.26 L662.619 1333.26 L662.619 1337.43 Q662.619 1338.81 663.181 1339.26 Q663.766 1339.7 666.249 1339.7 L667.256 1339.7 L667.256 1341.18 Q665.289 1341.04 660.745 1341.04 Q656.224 1341.04 654.257 1341.18 L654.257 1339.7 L655.264 1339.7 Q657.747 1339.7 658.332 1339.28 Q658.918 1338.84 658.918 1337.43 L658.918 1333.26 L646.153 1333.26 M647.511 1331.79 L659.199 1331.79 L659.199 1313.89 L647.511 1331.79 Z" fill="#000000" fill-rule="evenodd" fill-opacity="1"></path><path clip-path="url(#clip180)" d="M693.025 1334.32 Q692.393 1337.34 691.573 1339.07 Q690.261 1341.72 688.036 1341.72 Q686.35 1341.72 685.155 1340.69 Q683.96 1339.66 683.679 1338.11 Q680.611 1341.72 677.426 1341.72 Q674.615 1341.72 672.835 1339.59 Q671.055 1337.43 671.055 1334.03 Q671.055 1330.61 672.741 1327.34 Q674.451 1324.06 677.145 1322.02 Q679.838 1319.98 682.602 1319.98 Q685.53 1319.98 687.029 1323.05 Q687.146 1322.21 687.685 1321.57 Q688.223 1320.94 689.043 1320.94 Q689.676 1320.94 690.05 1321.29 Q690.425 1321.62 690.425 1322.23 Q690.425 1322.53 690.097 1323.87 L688.364 1330.57 L687.31 1334.9 Q686.912 1336.49 686.795 1337.08 Q686.701 1337.67 686.701 1338.44 Q686.701 1340.64 688.13 1340.64 Q688.832 1340.64 689.394 1340.19 Q689.957 1339.75 690.402 1338.81 Q690.847 1337.88 691.128 1337.01 Q691.409 1336.12 691.784 1334.71 Q691.901 1334.15 691.994 1334.01 Q692.111 1333.85 692.439 1333.85 Q693.025 1333.85 693.025 1334.32 M686.443 1325.25 Q686.443 1325.04 686.279 1324.45 Q686.115 1323.87 685.741 1323.05 Q685.366 1322.23 684.546 1321.64 Q683.75 1321.04 682.672 1321.04 Q681.22 1321.04 679.698 1322.28 Q678.199 1323.52 677.098 1325.63 Q676.254 1327.31 675.341 1330.85 Q674.451 1334.39 674.451 1336.14 Q674.451 1337.22 674.685 1338.18 Q674.943 1339.12 675.669 1339.89 Q676.395 1340.64 677.519 1340.64 Q680.26 1340.64 682.953 1337.24 Q683.469 1336.66 683.586 1336.42 Q683.726 1336.17 683.914 1335.46 L686.303 1326.07 Q686.443 1325.37 686.443 1325.25 Z" fill="#000000" fill-rule="evenodd" fill-opacity="1"></path></svg>