<svg xmlns="http://www.w3.org/2000/svg" xmlns:xlink="http://www.w3.org/1999/xlink" width="600" height="400" viewBox="0 0 2400 1600">
<defs>
  <clipPath id="clip580">
    <rect x="0" y="0" width="2400" height="1600"></rect>
  </clipPath>
</defs>
<path clip-path="url(#clip580)" d="M0 1600 L2400 1600 L2400 0 L0 0  Z" fill="#ffffff" fill-rule="evenodd" fill-opacity="1"></path>
<defs>
  <clipPath id="clip581">
    <rect x="480" y="0" width="1681" height="1600"></rect>
  </clipPath>
</defs>
<defs>
  <clipPath id="clip582">
    <rect x="232" y="47" width="2121" height="1377"></rect>
  </clipPath>
</defs>
<path clip-path="url(#clip580)" d="M232.389 1423.18 L2352.76 1423.18 L2352.76 47.2441 L232.389 47.2441  Z" fill="#ffffff" fill-rule="evenodd" fill-opacity="1"></path>
<polyline clip-path="url(#clip582)" style="stroke:#000000; stroke-linecap:round; stroke-linejoin:round; stroke-width:2; stroke-opacity:0.1; fill:none" points="292.4,1423.18 292.4,47.2441 "></polyline>
<polyline clip-path="url(#clip582)" style="stroke:#000000; stroke-linecap:round; stroke-linejoin:round; stroke-width:2; stroke-opacity:0.1; fill:none" points="649.604,1423.18 649.604,47.2441 "></polyline>
<polyline clip-path="url(#clip582)" style="stroke:#000000; stroke-linecap:round; stroke-linejoin:round; stroke-width:2; stroke-opacity:0.1; fill:none" points="1006.81,1423.18 1006.81,47.2441 "></polyline>
<polyline clip-path="url(#clip582)" style="stroke:#000000; stroke-linecap:round; stroke-linejoin:round; stroke-width:2; stroke-opacity:0.1; fill:none" points="1364.01,1423.18 1364.01,47.2441 "></polyline>
<polyline clip-path="url(#clip582)" style="stroke:#000000; stroke-linecap:round; stroke-linejoin:round; stroke-width:2; stroke-opacity:0.1; fill:none" points="1721.22,1423.18 1721.22,47.2441 "></polyline>
<polyline clip-path="url(#clip582)" style="stroke:#000000; stroke-linecap:round; stroke-linejoin:round; stroke-width:2; stroke-opacity:0.1; fill:none" points="2078.42,1423.18 2078.42,47.2441 "></polyline>
<polyline clip-path="url(#clip580)" style="stroke:#000000; stroke-linecap:round; stroke-linejoin:round; stroke-width:4; stroke-opacity:1; fill:none" points="232.389,1423.18 2352.76,1423.18 "></polyline>
<polyline clip-path="url(#clip580)" style="stroke:#000000; stroke-linecap:round; stroke-linejoin:round; stroke-width:4; stroke-opacity:1; fill:none" points="292.4,1423.18 292.4,1404.28 "></polyline>
<polyline clip-path="url(#clip580)" style="stroke:#000000; stroke-linecap:round; stroke-linejoin:round; stroke-width:4; stroke-opacity:1; fill:none" points="649.604,1423.18 649.604,1404.28 "></polyline>
<polyline clip-path="url(#clip580)" style="stroke:#000000; stroke-linecap:round; stroke-linejoin:round; stroke-width:4; stroke-opacity:1; fill:none" points="1006.81,1423.18 1006.81,1404.28 "></polyline>
<polyline clip-path="url(#clip580)" style="stroke:#000000; stroke-linecap:round; stroke-linejoin:round; stroke-width:4; stroke-opacity:1; fill:none" points="1364.01,1423.18 1364.01,1404.28 "></polyline>
<polyline clip-path="url(#clip580)" style="stroke:#000000; stroke-linecap:round; stroke-linejoin:round; stroke-width:4; stroke-opacity:1; fill:none" points="1721.22,1423.18 1721.22,1404.28 "></polyline>
<polyline clip-path="url(#clip580)" style="stroke:#000000; stroke-linecap:round; stroke-linejoin:round; stroke-width:4; stroke-opacity:1; fill:none" points="2078.42,1423.18 2078.42,1404.28 "></polyline>
<path clip-path="url(#clip580)" d="M255.201 1454.1 Q251.59 1454.1 249.761 1457.66 Q247.956 1461.2 247.956 1468.33 Q247.956 1475.44 249.761 1479.01 Q251.59 1482.55 255.201 1482.55 Q258.835 1482.55 260.641 1479.01 Q262.469 1475.44 262.469 1468.33 Q262.469 1461.2 260.641 1457.66 Q258.835 1454.1 255.201 1454.1 M255.201 1450.39 Q261.011 1450.39 264.067 1455 Q267.145 1459.58 267.145 1468.33 Q267.145 1477.06 264.067 1481.67 Q261.011 1486.25 255.201 1486.25 Q249.391 1486.25 246.312 1481.67 Q243.256 1477.06 243.256 1468.33 Q243.256 1459.58 246.312 1455 Q249.391 1450.39 255.201 1450.39 Z" fill="#000000" fill-rule="nonzero" fill-opacity="1"></path><path clip-path="url(#clip580)" d="M275.363 1479.7 L280.247 1479.7 L280.247 1485.58 L275.363 1485.58 L275.363 1479.7 Z" fill="#000000" fill-rule="nonzero" fill-opacity="1"></path><path clip-path="url(#clip580)" d="M300.432 1454.1 Q296.821 1454.1 294.992 1457.66 Q293.187 1461.2 293.187 1468.33 Q293.187 1475.44 294.992 1479.01 Q296.821 1482.55 300.432 1482.55 Q304.066 1482.55 305.872 1479.01 Q307.701 1475.44 307.701 1468.33 Q307.701 1461.2 305.872 1457.66 Q304.066 1454.1 300.432 1454.1 M300.432 1450.39 Q306.242 1450.39 309.298 1455 Q312.376 1459.58 312.376 1468.33 Q312.376 1477.06 309.298 1481.67 Q306.242 1486.25 300.432 1486.25 Q294.622 1486.25 291.543 1481.67 Q288.488 1477.06 288.488 1468.33 Q288.488 1459.58 291.543 1455 Q294.622 1450.39 300.432 1450.39 Z" fill="#000000" fill-rule="nonzero" fill-opacity="1"></path><path clip-path="url(#clip580)" d="M320.64 1451.02 L338.997 1451.02 L338.997 1454.96 L324.923 1454.96 L324.923 1463.43 Q325.941 1463.08 326.96 1462.92 Q327.978 1462.73 328.997 1462.73 Q334.784 1462.73 338.163 1465.9 Q341.543 1469.08 341.543 1474.49 Q341.543 1480.07 338.071 1483.17 Q334.599 1486.25 328.279 1486.25 Q326.103 1486.25 323.835 1485.88 Q321.589 1485.51 319.182 1484.77 L319.182 1480.07 Q321.265 1481.2 323.488 1481.76 Q325.71 1482.32 328.187 1482.32 Q332.191 1482.32 334.529 1480.21 Q336.867 1478.1 336.867 1474.49 Q336.867 1470.88 334.529 1468.77 Q332.191 1466.67 328.187 1466.67 Q326.312 1466.67 324.437 1467.08 Q322.585 1467.5 320.64 1468.38 L320.64 1451.02 Z" fill="#000000" fill-rule="nonzero" fill-opacity="1"></path><path clip-path="url(#clip580)" d="M611.827 1454.1 Q608.216 1454.1 606.387 1457.66 Q604.581 1461.2 604.581 1468.33 Q604.581 1475.44 606.387 1479.01 Q608.216 1482.55 611.827 1482.55 Q615.461 1482.55 617.267 1479.01 Q619.095 1475.44 619.095 1468.33 Q619.095 1461.2 617.267 1457.66 Q615.461 1454.1 611.827 1454.1 M611.827 1450.39 Q617.637 1450.39 620.692 1455 Q623.771 1459.58 623.771 1468.33 Q623.771 1477.06 620.692 1481.67 Q617.637 1486.25 611.827 1486.25 Q606.017 1486.25 602.938 1481.67 Q599.882 1477.06 599.882 1468.33 Q599.882 1459.58 602.938 1455 Q606.017 1450.39 611.827 1450.39 Z" fill="#000000" fill-rule="nonzero" fill-opacity="1"></path><path clip-path="url(#clip580)" d="M631.989 1479.7 L636.873 1479.7 L636.873 1485.58 L631.989 1485.58 L631.989 1479.7 Z" fill="#000000" fill-rule="nonzero" fill-opacity="1"></path><path clip-path="url(#clip580)" d="M657.058 1454.1 Q653.447 1454.1 651.618 1457.66 Q649.813 1461.2 649.813 1468.33 Q649.813 1475.44 651.618 1479.01 Q653.447 1482.55 657.058 1482.55 Q660.692 1482.55 662.498 1479.01 Q664.326 1475.44 664.326 1468.33 Q664.326 1461.2 662.498 1457.66 Q660.692 1454.1 657.058 1454.1 M657.058 1450.39 Q662.868 1450.39 665.924 1455 Q669.002 1459.58 669.002 1468.33 Q669.002 1477.06 665.924 1481.67 Q662.868 1486.25 657.058 1486.25 Q651.248 1486.25 648.169 1481.67 Q645.114 1477.06 645.114 1468.33 Q645.114 1459.58 648.169 1455 Q651.248 1450.39 657.058 1450.39 Z" fill="#000000" fill-rule="nonzero" fill-opacity="1"></path><path clip-path="url(#clip580)" d="M687.799 1466.44 Q684.65 1466.44 682.799 1468.59 Q680.97 1470.74 680.97 1474.49 Q680.97 1478.22 682.799 1480.39 Q684.65 1482.55 687.799 1482.55 Q690.947 1482.55 692.775 1480.39 Q694.627 1478.22 694.627 1474.49 Q694.627 1470.74 692.775 1468.59 Q690.947 1466.44 687.799 1466.44 M697.081 1451.78 L697.081 1456.04 Q695.322 1455.21 693.516 1454.77 Q691.734 1454.33 689.974 1454.33 Q685.345 1454.33 682.891 1457.45 Q680.461 1460.58 680.113 1466.9 Q681.479 1464.89 683.539 1463.82 Q685.6 1462.73 688.076 1462.73 Q693.285 1462.73 696.294 1465.9 Q699.326 1469.05 699.326 1474.49 Q699.326 1479.82 696.178 1483.03 Q693.03 1486.25 687.799 1486.25 Q681.803 1486.25 678.632 1481.67 Q675.461 1477.06 675.461 1468.33 Q675.461 1460.14 679.35 1455.28 Q683.238 1450.39 689.789 1450.39 Q691.549 1450.39 693.331 1450.74 Q695.136 1451.09 697.081 1451.78 Z" fill="#000000" fill-rule="nonzero" fill-opacity="1"></path><path clip-path="url(#clip580)" d="M969.564 1454.1 Q965.953 1454.1 964.124 1457.66 Q962.318 1461.2 962.318 1468.33 Q962.318 1475.44 964.124 1479.01 Q965.953 1482.55 969.564 1482.55 Q973.198 1482.55 975.004 1479.01 Q976.832 1475.44 976.832 1468.33 Q976.832 1461.2 975.004 1457.66 Q973.198 1454.1 969.564 1454.1 M969.564 1450.39 Q975.374 1450.39 978.429 1455 Q981.508 1459.58 981.508 1468.33 Q981.508 1477.06 978.429 1481.67 Q975.374 1486.25 969.564 1486.25 Q963.754 1486.25 960.675 1481.67 Q957.619 1477.06 957.619 1468.33 Q957.619 1459.58 960.675 1455 Q963.754 1450.39 969.564 1450.39 Z" fill="#000000" fill-rule="nonzero" fill-opacity="1"></path><path clip-path="url(#clip580)" d="M989.726 1479.7 L994.61 1479.7 L994.61 1485.58 L989.726 1485.58 L989.726 1479.7 Z" fill="#000000" fill-rule="nonzero" fill-opacity="1"></path><path clip-path="url(#clip580)" d="M1014.8 1454.1 Q1011.18 1454.1 1009.36 1457.66 Q1007.55 1461.2 1007.55 1468.33 Q1007.55 1475.44 1009.36 1479.01 Q1011.18 1482.55 1014.8 1482.55 Q1018.43 1482.55 1020.23 1479.01 Q1022.06 1475.44 1022.06 1468.33 Q1022.06 1461.2 1020.23 1457.66 Q1018.43 1454.1 1014.8 1454.1 M1014.8 1450.39 Q1020.61 1450.39 1023.66 1455 Q1026.74 1459.58 1026.74 1468.33 Q1026.74 1477.06 1023.66 1481.67 Q1020.61 1486.25 1014.8 1486.25 Q1008.98 1486.25 1005.91 1481.67 Q1002.85 1477.06 1002.85 1468.33 Q1002.85 1459.58 1005.91 1455 Q1008.98 1450.39 1014.8 1450.39 Z" fill="#000000" fill-rule="nonzero" fill-opacity="1"></path><path clip-path="url(#clip580)" d="M1033.78 1451.02 L1056 1451.02 L1056 1453.01 L1043.45 1485.58 L1038.57 1485.58 L1050.37 1454.96 L1033.78 1454.96 L1033.78 1451.02 Z" fill="#000000" fill-rule="nonzero" fill-opacity="1"></path><path clip-path="url(#clip580)" d="M1326.36 1454.1 Q1322.75 1454.1 1320.92 1457.66 Q1319.12 1461.2 1319.12 1468.33 Q1319.12 1475.44 1320.92 1479.01 Q1322.75 1482.55 1326.36 1482.55 Q1330 1482.55 1331.8 1479.01 Q1333.63 1475.44 1333.63 1468.33 Q1333.63 1461.2 1331.8 1457.66 Q1330 1454.1 1326.36 1454.1 M1326.36 1450.39 Q1332.17 1450.39 1335.23 1455 Q1338.31 1459.58 1338.31 1468.33 Q1338.31 1477.06 1335.23 1481.67 Q1332.17 1486.25 1326.36 1486.25 Q1320.55 1486.25 1317.47 1481.67 Q1314.42 1477.06 1314.42 1468.33 Q1314.42 1459.58 1317.47 1455 Q1320.55 1450.39 1326.36 1450.39 Z" fill="#000000" fill-rule="nonzero" fill-opacity="1"></path><path clip-path="url(#clip580)" d="M1346.53 1479.7 L1351.41 1479.7 L1351.41 1485.58 L1346.53 1485.58 L1346.53 1479.7 Z" fill="#000000" fill-rule="nonzero" fill-opacity="1"></path><path clip-path="url(#clip580)" d="M1371.59 1454.1 Q1367.98 1454.1 1366.15 1457.66 Q1364.35 1461.2 1364.35 1468.33 Q1364.35 1475.44 1366.15 1479.01 Q1367.98 1482.55 1371.59 1482.55 Q1375.23 1482.55 1377.03 1479.01 Q1378.86 1475.44 1378.86 1468.33 Q1378.86 1461.2 1377.03 1457.66 Q1375.23 1454.1 1371.59 1454.1 M1371.59 1450.39 Q1377.4 1450.39 1380.46 1455 Q1383.54 1459.58 1383.54 1468.33 Q1383.54 1477.06 1380.46 1481.67 Q1377.4 1486.25 1371.59 1486.25 Q1365.78 1486.25 1362.71 1481.67 Q1359.65 1477.06 1359.65 1468.33 Q1359.65 1459.58 1362.71 1455 Q1365.78 1450.39 1371.59 1450.39 Z" fill="#000000" fill-rule="nonzero" fill-opacity="1"></path><path clip-path="url(#clip580)" d="M1401.76 1469.17 Q1398.42 1469.17 1396.5 1470.95 Q1394.6 1472.73 1394.6 1475.86 Q1394.6 1478.98 1396.5 1480.77 Q1398.42 1482.55 1401.76 1482.55 Q1405.09 1482.55 1407.01 1480.77 Q1408.93 1478.96 1408.93 1475.86 Q1408.93 1472.73 1407.01 1470.95 Q1405.11 1469.17 1401.76 1469.17 M1397.08 1467.18 Q1394.07 1466.44 1392.38 1464.38 Q1390.71 1462.32 1390.71 1459.35 Q1390.71 1455.21 1393.65 1452.8 Q1396.62 1450.39 1401.76 1450.39 Q1406.92 1450.39 1409.86 1452.8 Q1412.8 1455.21 1412.8 1459.35 Q1412.8 1462.32 1411.11 1464.38 Q1409.44 1466.44 1406.46 1467.18 Q1409.84 1467.96 1411.71 1470.26 Q1413.61 1472.55 1413.61 1475.86 Q1413.61 1480.88 1410.53 1483.57 Q1407.47 1486.25 1401.76 1486.25 Q1396.04 1486.25 1392.96 1483.57 Q1389.9 1480.88 1389.9 1475.86 Q1389.9 1472.55 1391.8 1470.26 Q1393.7 1467.96 1397.08 1467.18 M1395.37 1459.79 Q1395.37 1462.48 1397.03 1463.98 Q1398.72 1465.49 1401.76 1465.49 Q1404.77 1465.49 1406.46 1463.98 Q1408.17 1462.48 1408.17 1459.79 Q1408.17 1457.11 1406.46 1455.6 Q1404.77 1454.1 1401.76 1454.1 Q1398.72 1454.1 1397.03 1455.6 Q1395.37 1457.11 1395.37 1459.79 Z" fill="#000000" fill-rule="nonzero" fill-opacity="1"></path><path clip-path="url(#clip580)" d="M1683.61 1454.1 Q1680 1454.1 1678.17 1457.66 Q1676.37 1461.2 1676.37 1468.33 Q1676.37 1475.44 1678.17 1479.01 Q1680 1482.55 1683.61 1482.55 Q1687.25 1482.55 1689.05 1479.01 Q1690.88 1475.44 1690.88 1468.33 Q1690.88 1461.2 1689.05 1457.66 Q1687.25 1454.1 1683.61 1454.1 M1683.61 1450.39 Q1689.42 1450.39 1692.48 1455 Q1695.56 1459.58 1695.56 1468.33 Q1695.56 1477.06 1692.48 1481.67 Q1689.42 1486.25 1683.61 1486.25 Q1677.8 1486.25 1674.73 1481.67 Q1671.67 1477.06 1671.67 1468.33 Q1671.67 1459.58 1674.73 1455 Q1677.8 1450.39 1683.61 1450.39 Z" fill="#000000" fill-rule="nonzero" fill-opacity="1"></path><path clip-path="url(#clip580)" d="M1703.78 1479.7 L1708.66 1479.7 L1708.66 1485.58 L1703.78 1485.58 L1703.78 1479.7 Z" fill="#000000" fill-rule="nonzero" fill-opacity="1"></path><path clip-path="url(#clip580)" d="M1728.85 1454.1 Q1725.23 1454.1 1723.41 1457.66 Q1721.6 1461.2 1721.6 1468.33 Q1721.6 1475.44 1723.41 1479.01 Q1725.23 1482.55 1728.85 1482.55 Q1732.48 1482.55 1734.29 1479.01 Q1736.11 1475.44 1736.11 1468.33 Q1736.11 1461.2 1734.29 1457.66 Q1732.48 1454.1 1728.85 1454.1 M1728.85 1450.39 Q1734.66 1450.39 1737.71 1455 Q1740.79 1459.58 1740.79 1468.33 Q1740.79 1477.06 1737.71 1481.67 Q1734.66 1486.25 1728.85 1486.25 Q1723.04 1486.25 1719.96 1481.67 Q1716.9 1477.06 1716.9 1468.33 Q1716.9 1459.58 1719.96 1455 Q1723.04 1450.39 1728.85 1450.39 Z" fill="#000000" fill-rule="nonzero" fill-opacity="1"></path><path clip-path="url(#clip580)" d="M1749.15 1484.86 L1749.15 1480.6 Q1750.91 1481.44 1752.71 1481.88 Q1754.52 1482.32 1756.25 1482.32 Q1760.88 1482.32 1763.31 1479.21 Q1765.77 1476.09 1766.11 1469.75 Q1764.77 1471.74 1762.71 1472.8 Q1760.65 1473.87 1758.15 1473.87 Q1752.97 1473.87 1749.93 1470.74 Q1746.92 1467.59 1746.92 1462.15 Q1746.92 1456.83 1750.07 1453.61 Q1753.22 1450.39 1758.45 1450.39 Q1764.45 1450.39 1767.6 1455 Q1770.77 1459.58 1770.77 1468.33 Q1770.77 1476.51 1766.88 1481.39 Q1763.01 1486.25 1756.46 1486.25 Q1754.7 1486.25 1752.9 1485.9 Q1751.09 1485.56 1749.15 1484.86 M1758.45 1470.21 Q1761.6 1470.21 1763.43 1468.06 Q1765.28 1465.9 1765.28 1462.15 Q1765.28 1458.43 1763.43 1456.27 Q1761.6 1454.1 1758.45 1454.1 Q1755.3 1454.1 1753.45 1456.27 Q1751.62 1458.43 1751.62 1462.15 Q1751.62 1465.9 1753.45 1468.06 Q1755.3 1470.21 1758.45 1470.21 Z" fill="#000000" fill-rule="nonzero" fill-opacity="1"></path><path clip-path="url(#clip580)" d="M2040.73 1454.1 Q2037.12 1454.1 2035.29 1457.66 Q2033.48 1461.2 2033.48 1468.33 Q2033.48 1475.44 2035.29 1479.01 Q2037.12 1482.55 2040.73 1482.55 Q2044.36 1482.55 2046.17 1479.01 Q2047.99 1475.44 2047.99 1468.33 Q2047.99 1461.2 2046.17 1457.66 Q2044.36 1454.1 2040.73 1454.1 M2040.73 1450.39 Q2046.54 1450.39 2049.59 1455 Q2052.67 1459.58 2052.67 1468.33 Q2052.67 1477.06 2049.59 1481.67 Q2046.54 1486.25 2040.73 1486.25 Q2034.92 1486.25 2031.84 1481.67 Q2028.78 1477.06 2028.78 1468.33 Q2028.78 1459.58 2031.84 1455 Q2034.92 1450.39 2040.73 1450.39 Z" fill="#000000" fill-rule="nonzero" fill-opacity="1"></path><path clip-path="url(#clip580)" d="M2060.89 1479.7 L2065.77 1479.7 L2065.77 1485.58 L2060.89 1485.58 L2060.89 1479.7 Z" fill="#000000" fill-rule="nonzero" fill-opacity="1"></path><path clip-path="url(#clip580)" d="M2076.77 1481.64 L2084.41 1481.64 L2084.41 1455.28 L2076.1 1456.95 L2076.1 1452.69 L2084.36 1451.02 L2089.04 1451.02 L2089.04 1481.64 L2096.67 1481.64 L2096.67 1485.58 L2076.77 1485.58 L2076.77 1481.64 Z" fill="#000000" fill-rule="nonzero" fill-opacity="1"></path><path clip-path="url(#clip580)" d="M2116.12 1454.1 Q2112.51 1454.1 2110.68 1457.66 Q2108.87 1461.2 2108.87 1468.33 Q2108.87 1475.44 2110.68 1479.01 Q2112.51 1482.55 2116.12 1482.55 Q2119.75 1482.55 2121.56 1479.01 Q2123.39 1475.44 2123.39 1468.33 Q2123.39 1461.2 2121.56 1457.66 Q2119.75 1454.1 2116.12 1454.1 M2116.12 1450.39 Q2121.93 1450.39 2124.99 1455 Q2128.06 1459.58 2128.06 1468.33 Q2128.06 1477.06 2124.99 1481.67 Q2121.93 1486.25 2116.12 1486.25 Q2110.31 1486.25 2107.23 1481.67 Q2104.17 1477.06 2104.17 1468.33 Q2104.17 1459.58 2107.23 1455 Q2110.31 1450.39 2116.12 1450.39 Z" fill="#000000" fill-rule="nonzero" fill-opacity="1"></path><path clip-path="url(#clip580)" d="M940.103 1520.52 L949.684 1520.52 L961.811 1552.86 L974.001 1520.52 L983.581 1520.52 L983.581 1568.04 L977.311 1568.04 L977.311 1526.32 L965.057 1558.91 L958.596 1558.91 L946.342 1526.32 L946.342 1568.04 L940.103 1568.04 L940.103 1520.52 Z" fill="#000000" fill-rule="nonzero" fill-opacity="1"></path><path clip-path="url(#clip580)" d="M996.09 1532.4 L1001.95 1532.4 L1001.95 1568.04 L996.09 1568.04 L996.09 1532.4 M996.09 1518.52 L1001.95 1518.52 L1001.95 1525.93 L996.09 1525.93 L996.09 1518.52 Z" fill="#000000" fill-rule="nonzero" fill-opacity="1"></path><path clip-path="url(#clip580)" d="M1043.83 1532.4 L1030.94 1549.74 L1044.5 1568.04 L1037.59 1568.04 L1027.22 1554.04 L1016.84 1568.04 L1009.94 1568.04 L1023.78 1549.39 L1011.11 1532.4 L1018.02 1532.4 L1027.47 1545.1 L1036.93 1532.4 L1043.83 1532.4 Z" fill="#000000" fill-rule="nonzero" fill-opacity="1"></path><path clip-path="url(#clip580)" d="M1052.78 1532.4 L1058.63 1532.4 L1058.63 1568.04 L1052.78 1568.04 L1052.78 1532.4 M1052.78 1518.52 L1058.63 1518.52 L1058.63 1525.93 L1052.78 1525.93 L1052.78 1518.52 Z" fill="#000000" fill-rule="nonzero" fill-opacity="1"></path><path clip-path="url(#clip580)" d="M1100.52 1546.53 L1100.52 1568.04 L1094.66 1568.04 L1094.66 1546.72 Q1094.66 1541.66 1092.69 1539.14 Q1090.72 1536.63 1086.77 1536.63 Q1082.03 1536.63 1079.29 1539.65 Q1076.55 1542.68 1076.55 1547.9 L1076.55 1568.04 L1070.66 1568.04 L1070.66 1532.4 L1076.55 1532.4 L1076.55 1537.93 Q1078.65 1534.72 1081.49 1533.13 Q1084.35 1531.54 1088.07 1531.54 Q1094.22 1531.54 1097.37 1535.36 Q1100.52 1539.14 1100.52 1546.53 Z" fill="#000000" fill-rule="nonzero" fill-opacity="1"></path><path clip-path="url(#clip580)" d="M1135.66 1549.81 Q1135.66 1543.44 1133.02 1539.94 Q1130.41 1536.44 1125.66 1536.44 Q1120.95 1536.44 1118.31 1539.94 Q1115.7 1543.44 1115.7 1549.81 Q1115.7 1556.14 1118.31 1559.64 Q1120.95 1563.14 1125.66 1563.14 Q1130.41 1563.14 1133.02 1559.64 Q1135.66 1556.14 1135.66 1549.81 M1141.51 1563.62 Q1141.51 1572.72 1137.47 1577.15 Q1133.43 1581.6 1125.09 1581.6 Q1122 1581.6 1119.27 1581.13 Q1116.53 1580.68 1113.95 1579.72 L1113.95 1574.03 Q1116.53 1575.43 1119.04 1576.1 Q1121.56 1576.76 1124.17 1576.76 Q1129.93 1576.76 1132.79 1573.74 Q1135.66 1570.75 1135.66 1564.67 L1135.66 1561.77 Q1133.84 1564.92 1131.01 1566.48 Q1128.18 1568.04 1124.23 1568.04 Q1117.67 1568.04 1113.66 1563.05 Q1109.65 1558.05 1109.65 1549.81 Q1109.65 1541.53 1113.66 1536.53 Q1117.67 1531.54 1124.23 1531.54 Q1128.18 1531.54 1131.01 1533.1 Q1133.84 1534.66 1135.66 1537.81 L1135.66 1532.4 L1141.51 1532.4 L1141.51 1563.62 Z" fill="#000000" fill-rule="nonzero" fill-opacity="1"></path><path clip-path="url(#clip580)" d="M1180.98 1525.81 L1180.98 1543.66 L1189.07 1543.66 Q1193.55 1543.66 1196 1541.34 Q1198.46 1539.02 1198.46 1534.72 Q1198.46 1530.45 1196 1528.13 Q1193.55 1525.81 1189.07 1525.81 L1180.98 1525.81 M1174.55 1520.52 L1189.07 1520.52 Q1197.06 1520.52 1201.13 1524.15 Q1205.24 1527.75 1205.24 1534.72 Q1205.24 1541.75 1201.13 1545.35 Q1197.06 1548.95 1189.07 1548.95 L1180.98 1548.95 L1180.98 1568.04 L1174.55 1568.04 L1174.55 1520.52 Z" fill="#000000" fill-rule="nonzero" fill-opacity="1"></path><path clip-path="url(#clip580)" d="M1233.12 1537.87 Q1232.13 1537.3 1230.95 1537.04 Q1229.81 1536.76 1228.41 1536.76 Q1223.44 1536.76 1220.77 1540 Q1218.13 1543.22 1218.13 1549.27 L1218.13 1568.04 L1212.24 1568.04 L1212.24 1532.4 L1218.13 1532.4 L1218.13 1537.93 Q1219.97 1534.69 1222.93 1533.13 Q1225.89 1531.54 1230.13 1531.54 Q1230.73 1531.54 1231.46 1531.63 Q1232.19 1531.7 1233.09 1531.85 L1233.12 1537.87 Z" fill="#000000" fill-rule="nonzero" fill-opacity="1"></path><path clip-path="url(#clip580)" d="M1268.32 1548.76 L1268.32 1551.62 L1241.39 1551.62 Q1241.77 1557.67 1245.02 1560.85 Q1248.3 1564 1254.12 1564 Q1257.5 1564 1260.65 1563.17 Q1263.83 1562.35 1266.95 1560.69 L1266.95 1566.23 Q1263.8 1567.57 1260.49 1568.27 Q1257.18 1568.97 1253.77 1568.97 Q1245.24 1568.97 1240.25 1564 Q1235.28 1559.04 1235.28 1550.57 Q1235.28 1541.82 1239.99 1536.69 Q1244.73 1531.54 1252.76 1531.54 Q1259.95 1531.54 1264.12 1536.18 Q1268.32 1540.8 1268.32 1548.76 M1262.46 1547.04 Q1262.4 1542.23 1259.76 1539.37 Q1257.15 1536.5 1252.82 1536.5 Q1247.92 1536.5 1244.96 1539.27 Q1242.03 1542.04 1241.58 1547.07 L1262.46 1547.04 Z" fill="#000000" fill-rule="nonzero" fill-opacity="1"></path><path clip-path="url(#clip580)" d="M1300.66 1533.45 L1300.66 1538.98 Q1298.17 1537.71 1295.5 1537.07 Q1292.83 1536.44 1289.96 1536.44 Q1285.6 1536.44 1283.41 1537.77 Q1281.24 1539.11 1281.24 1541.79 Q1281.24 1543.82 1282.8 1545 Q1284.36 1546.15 1289.07 1547.2 L1291.08 1547.64 Q1297.32 1548.98 1299.93 1551.43 Q1302.57 1553.85 1302.57 1558.21 Q1302.57 1563.17 1298.62 1566.07 Q1294.71 1568.97 1287.83 1568.97 Q1284.97 1568.97 1281.85 1568.39 Q1278.76 1567.85 1275.32 1566.74 L1275.32 1560.69 Q1278.57 1562.38 1281.72 1563.24 Q1284.87 1564.07 1287.96 1564.07 Q1292.1 1564.07 1294.32 1562.66 Q1296.55 1561.23 1296.55 1558.65 Q1296.55 1556.27 1294.93 1554.99 Q1293.34 1553.72 1287.89 1552.54 L1285.86 1552.07 Q1280.41 1550.92 1278 1548.56 Q1275.58 1546.18 1275.58 1542.04 Q1275.58 1537.01 1279.14 1534.27 Q1282.71 1531.54 1289.26 1531.54 Q1292.51 1531.54 1295.37 1532.01 Q1298.24 1532.49 1300.66 1533.45 Z" fill="#000000" fill-rule="nonzero" fill-opacity="1"></path><path clip-path="url(#clip580)" d="M1334.62 1533.45 L1334.62 1538.98 Q1332.14 1537.71 1329.46 1537.07 Q1326.79 1536.44 1323.92 1536.44 Q1319.56 1536.44 1317.37 1537.77 Q1315.2 1539.11 1315.2 1541.79 Q1315.2 1543.82 1316.76 1545 Q1318.32 1546.15 1323.03 1547.2 L1325.04 1547.64 Q1331.28 1548.98 1333.89 1551.43 Q1336.53 1553.85 1336.53 1558.21 Q1336.53 1563.17 1332.58 1566.07 Q1328.67 1568.97 1321.79 1568.97 Q1318.93 1568.97 1315.81 1568.39 Q1312.72 1567.85 1309.28 1566.74 L1309.28 1560.69 Q1312.53 1562.38 1315.68 1563.24 Q1318.83 1564.07 1321.92 1564.07 Q1326.06 1564.07 1328.28 1562.66 Q1330.51 1561.23 1330.51 1558.65 Q1330.51 1556.27 1328.89 1554.99 Q1327.3 1553.72 1321.85 1552.54 L1319.82 1552.07 Q1314.38 1550.92 1311.96 1548.56 Q1309.54 1546.18 1309.54 1542.04 Q1309.54 1537.01 1313.1 1534.27 Q1316.67 1531.54 1323.22 1531.54 Q1326.47 1531.54 1329.33 1532.01 Q1332.2 1532.49 1334.62 1533.45 Z" fill="#000000" fill-rule="nonzero" fill-opacity="1"></path><path clip-path="url(#clip580)" d="M1345.25 1553.98 L1345.25 1532.4 L1351.11 1532.4 L1351.11 1553.75 Q1351.11 1558.81 1353.08 1561.36 Q1355.05 1563.87 1359 1563.87 Q1363.74 1563.87 1366.48 1560.85 Q1369.25 1557.83 1369.25 1552.61 L1369.25 1532.4 L1375.1 1532.4 L1375.1 1568.04 L1369.25 1568.04 L1369.25 1562.57 Q1367.12 1565.82 1364.28 1567.41 Q1361.48 1568.97 1357.76 1568.97 Q1351.61 1568.97 1348.43 1565.15 Q1345.25 1561.33 1345.25 1553.98 M1359.99 1531.54 L1359.99 1531.54 Z" fill="#000000" fill-rule="nonzero" fill-opacity="1"></path><path clip-path="url(#clip580)" d="M1407.82 1537.87 Q1406.84 1537.3 1405.66 1537.04 Q1404.51 1536.76 1403.11 1536.76 Q1398.15 1536.76 1395.47 1540 Q1392.83 1543.22 1392.83 1549.27 L1392.83 1568.04 L1386.94 1568.04 L1386.94 1532.4 L1392.83 1532.4 L1392.83 1537.93 Q1394.68 1534.69 1397.64 1533.13 Q1400.6 1531.54 1404.83 1531.54 Q1405.44 1531.54 1406.17 1531.63 Q1406.9 1531.7 1407.79 1531.85 L1407.82 1537.87 Z" fill="#000000" fill-rule="nonzero" fill-opacity="1"></path><path clip-path="url(#clip580)" d="M1443.03 1548.76 L1443.03 1551.62 L1416.1 1551.62 Q1416.48 1557.67 1419.73 1560.85 Q1423.01 1564 1428.83 1564 Q1432.2 1564 1435.36 1563.17 Q1438.54 1562.35 1441.66 1560.69 L1441.66 1566.23 Q1438.51 1567.57 1435.2 1568.27 Q1431.89 1568.97 1428.48 1568.97 Q1419.95 1568.97 1414.95 1564 Q1409.99 1559.04 1409.99 1550.57 Q1409.99 1541.82 1414.7 1536.69 Q1419.44 1531.54 1427.46 1531.54 Q1434.66 1531.54 1438.82 1536.18 Q1443.03 1540.8 1443.03 1548.76 M1437.17 1547.04 Q1437.11 1542.23 1434.46 1539.37 Q1431.85 1536.5 1427.53 1536.5 Q1422.62 1536.5 1419.66 1539.27 Q1416.74 1542.04 1416.29 1547.07 L1437.17 1547.04 Z" fill="#000000" fill-rule="nonzero" fill-opacity="1"></path><path clip-path="url(#clip580)" d="M1472.82 1518.52 L1486.31 1518.52 L1486.31 1523.07 L1478.67 1523.07 L1478.67 1572.09 L1486.31 1572.09 L1486.31 1576.64 L1472.82 1576.64 L1472.82 1518.52 Z" fill="#000000" fill-rule="nonzero" fill-opacity="1"></path><path clip-path="url(#clip580)" d="M1499.04 1520.52 L1508.62 1520.52 L1520.75 1552.86 L1532.94 1520.52 L1542.52 1520.52 L1542.52 1568.04 L1536.25 1568.04 L1536.25 1526.32 L1524 1558.91 L1517.54 1558.91 L1505.28 1526.32 L1505.28 1568.04 L1499.04 1568.04 L1499.04 1520.52 Z" fill="#000000" fill-rule="nonzero" fill-opacity="1"></path><path clip-path="url(#clip580)" d="M1561.71 1525.81 L1561.71 1543.66 L1569.8 1543.66 Q1574.29 1543.66 1576.74 1541.34 Q1579.19 1539.02 1579.19 1534.72 Q1579.19 1530.45 1576.74 1528.13 Q1574.29 1525.81 1569.8 1525.81 L1561.71 1525.81 M1555.29 1520.52 L1569.8 1520.52 Q1577.79 1520.52 1581.86 1524.15 Q1585.97 1527.75 1585.97 1534.72 Q1585.97 1541.75 1581.86 1545.35 Q1577.79 1548.95 1569.8 1548.95 L1561.71 1548.95 L1561.71 1568.04 L1555.29 1568.04 L1555.29 1520.52 Z" fill="#000000" fill-rule="nonzero" fill-opacity="1"></path><path clip-path="url(#clip580)" d="M1607.61 1550.12 Q1600.51 1550.12 1597.78 1551.75 Q1595.04 1553.37 1595.04 1557.29 Q1595.04 1560.4 1597.08 1562.25 Q1599.15 1564.07 1602.68 1564.07 Q1607.55 1564.07 1610.48 1560.63 Q1613.44 1557.16 1613.44 1551.43 L1613.44 1550.12 L1607.61 1550.12 M1619.29 1547.71 L1619.29 1568.04 L1613.44 1568.04 L1613.44 1562.63 Q1611.43 1565.88 1608.44 1567.44 Q1605.45 1568.97 1601.12 1568.97 Q1595.64 1568.97 1592.4 1565.91 Q1589.18 1562.82 1589.18 1557.67 Q1589.18 1551.65 1593.19 1548.6 Q1597.24 1545.54 1605.22 1545.54 L1613.44 1545.54 L1613.44 1544.97 Q1613.44 1540.93 1610.76 1538.73 Q1608.12 1536.5 1603.31 1536.5 Q1600.26 1536.5 1597.36 1537.23 Q1594.47 1537.97 1591.79 1539.43 L1591.79 1534.02 Q1595.01 1532.78 1598.03 1532.17 Q1601.05 1531.54 1603.92 1531.54 Q1611.65 1531.54 1615.47 1535.55 Q1619.29 1539.56 1619.29 1547.71 Z" fill="#000000" fill-rule="nonzero" fill-opacity="1"></path><path clip-path="url(#clip580)" d="M1645.04 1518.52 L1645.04 1576.64 L1631.55 1576.64 L1631.55 1572.09 L1639.15 1572.09 L1639.15 1523.07 L1631.55 1523.07 L1631.55 1518.52 L1645.04 1518.52 Z" fill="#000000" fill-rule="nonzero" fill-opacity="1"></path><polyline clip-path="url(#clip582)" style="stroke:#000000; stroke-linecap:round; stroke-linejoin:round; stroke-width:2; stroke-opacity:0.1; fill:none" points="232.389,1201.39 2352.76,1201.39 "></polyline>
<polyline clip-path="url(#clip582)" style="stroke:#000000; stroke-linecap:round; stroke-linejoin:round; stroke-width:2; stroke-opacity:0.1; fill:none" points="232.389,962.431 2352.76,962.431 "></polyline>
<polyline clip-path="url(#clip582)" style="stroke:#000000; stroke-linecap:round; stroke-linejoin:round; stroke-width:2; stroke-opacity:0.1; fill:none" points="232.389,723.476 2352.76,723.476 "></polyline>
<polyline clip-path="url(#clip582)" style="stroke:#000000; stroke-linecap:round; stroke-linejoin:round; stroke-width:2; stroke-opacity:0.1; fill:none" points="232.389,484.521 2352.76,484.521 "></polyline>
<polyline clip-path="url(#clip582)" style="stroke:#000000; stroke-linecap:round; stroke-linejoin:round; stroke-width:2; stroke-opacity:0.1; fill:none" points="232.389,245.565 2352.76,245.565 "></polyline>
<polyline clip-path="url(#clip580)" style="stroke:#000000; stroke-linecap:round; stroke-linejoin:round; stroke-width:4; stroke-opacity:1; fill:none" points="232.389,1423.18 232.389,47.2441 "></polyline>
<polyline clip-path="url(#clip580)" style="stroke:#000000; stroke-linecap:round; stroke-linejoin:round; stroke-width:4; stroke-opacity:1; fill:none" points="232.389,1201.39 251.287,1201.39 "></polyline>
<polyline clip-path="url(#clip580)" style="stroke:#000000; stroke-linecap:round; stroke-linejoin:round; stroke-width:4; stroke-opacity:1; fill:none" points="232.389,962.431 251.287,962.431 "></polyline>
<polyline clip-path="url(#clip580)" style="stroke:#000000; stroke-linecap:round; stroke-linejoin:round; stroke-width:4; stroke-opacity:1; fill:none" points="232.389,723.476 251.287,723.476 "></polyline>
<polyline clip-path="url(#clip580)" style="stroke:#000000; stroke-linecap:round; stroke-linejoin:round; stroke-width:4; stroke-opacity:1; fill:none" points="232.389,484.521 251.287,484.521 "></polyline>
<polyline clip-path="url(#clip580)" style="stroke:#000000; stroke-linecap:round; stroke-linejoin:round; stroke-width:4; stroke-opacity:1; fill:none" points="232.389,245.565 251.287,245.565 "></polyline>
<path clip-path="url(#clip580)" d="M158.45 1200.03 Q161.806 1200.75 163.681 1203.02 Q165.579 1205.29 165.579 1208.62 Q165.579 1213.74 162.061 1216.54 Q158.542 1219.34 152.061 1219.34 Q149.885 1219.34 147.57 1218.9 Q145.279 1218.48 142.825 1217.63 L142.825 1213.11 Q144.769 1214.25 147.084 1214.82 Q149.399 1215.4 151.922 1215.4 Q156.32 1215.4 158.612 1213.67 Q160.927 1211.93 160.927 1208.62 Q160.927 1205.57 158.774 1203.85 Q156.644 1202.12 152.825 1202.12 L148.797 1202.12 L148.797 1198.27 L153.01 1198.27 Q156.459 1198.27 158.288 1196.91 Q160.116 1195.52 160.116 1192.93 Q160.116 1190.26 158.218 1188.85 Q156.343 1187.42 152.825 1187.42 Q150.903 1187.42 148.704 1187.83 Q146.505 1188.25 143.866 1189.13 L143.866 1184.96 Q146.529 1184.22 148.843 1183.85 Q151.181 1183.48 153.241 1183.48 Q158.565 1183.48 161.667 1185.91 Q164.769 1188.32 164.769 1192.44 Q164.769 1195.31 163.126 1197.3 Q161.482 1199.27 158.45 1200.03 Z" fill="#000000" fill-rule="nonzero" fill-opacity="1"></path><path clip-path="url(#clip580)" d="M184.445 1187.19 Q180.834 1187.19 179.005 1190.75 Q177.2 1194.29 177.2 1201.42 Q177.2 1208.53 179.005 1212.09 Q180.834 1215.63 184.445 1215.63 Q188.079 1215.63 189.885 1212.09 Q191.713 1208.53 191.713 1201.42 Q191.713 1194.29 189.885 1190.75 Q188.079 1187.19 184.445 1187.19 M184.445 1183.48 Q190.255 1183.48 193.311 1188.09 Q196.389 1192.67 196.389 1201.42 Q196.389 1210.15 193.311 1214.75 Q190.255 1219.34 184.445 1219.34 Q178.635 1219.34 175.556 1214.75 Q172.501 1210.15 172.501 1201.42 Q172.501 1192.67 175.556 1188.09 Q178.635 1183.48 184.445 1183.48 Z" fill="#000000" fill-rule="nonzero" fill-opacity="1"></path><path clip-path="url(#clip580)" d="M154.862 960.568 Q151.714 960.568 149.862 962.721 Q148.033 964.874 148.033 968.623 Q148.033 972.35 149.862 974.526 Q151.714 976.679 154.862 976.679 Q158.01 976.679 159.839 974.526 Q161.69 972.35 161.69 968.623 Q161.69 964.874 159.839 962.721 Q158.01 960.568 154.862 960.568 M164.144 945.915 L164.144 950.175 Q162.385 949.341 160.579 948.901 Q158.797 948.462 157.038 948.462 Q152.408 948.462 149.954 951.587 Q147.524 954.712 147.177 961.031 Q148.542 959.017 150.603 957.952 Q152.663 956.864 155.14 956.864 Q160.348 956.864 163.357 960.036 Q166.39 963.184 166.39 968.623 Q166.39 973.948 163.241 977.165 Q160.093 980.383 154.862 980.383 Q148.866 980.383 145.695 975.799 Q142.524 971.193 142.524 962.466 Q142.524 954.272 146.413 949.411 Q150.302 944.526 156.853 944.526 Q158.612 944.526 160.394 944.874 Q162.2 945.221 164.144 945.915 Z" fill="#000000" fill-rule="nonzero" fill-opacity="1"></path><path clip-path="url(#clip580)" d="M184.445 948.23 Q180.834 948.23 179.005 951.795 Q177.2 955.337 177.2 962.466 Q177.2 969.573 179.005 973.137 Q180.834 976.679 184.445 976.679 Q188.079 976.679 189.885 973.137 Q191.713 969.573 191.713 962.466 Q191.713 955.337 189.885 951.795 Q188.079 948.23 184.445 948.23 M184.445 944.526 Q190.255 944.526 193.311 949.133 Q196.389 953.716 196.389 962.466 Q196.389 971.193 193.311 975.799 Q190.255 980.383 184.445 980.383 Q178.635 980.383 175.556 975.799 Q172.501 971.193 172.501 962.466 Q172.501 953.716 175.556 949.133 Q178.635 944.526 184.445 944.526 Z" fill="#000000" fill-rule="nonzero" fill-opacity="1"></path><path clip-path="url(#clip580)" d="M144.422 740.038 L144.422 735.779 Q146.181 736.613 147.987 737.052 Q149.792 737.492 151.528 737.492 Q156.158 737.492 158.589 734.39 Q161.042 731.265 161.39 724.923 Q160.047 726.913 157.987 727.978 Q155.927 729.043 153.427 729.043 Q148.241 729.043 145.209 725.918 Q142.2 722.77 142.2 717.33 Q142.2 712.006 145.348 708.789 Q148.496 705.571 153.728 705.571 Q159.723 705.571 162.871 710.177 Q166.042 714.761 166.042 723.511 Q166.042 731.682 162.153 736.566 Q158.288 741.427 151.737 741.427 Q149.978 741.427 148.172 741.08 Q146.366 740.733 144.422 740.038 M153.728 725.386 Q156.876 725.386 158.704 723.233 Q160.556 721.08 160.556 717.33 Q160.556 713.603 158.704 711.451 Q156.876 709.275 153.728 709.275 Q150.579 709.275 148.728 711.451 Q146.899 713.603 146.899 717.33 Q146.899 721.08 148.728 723.233 Q150.579 725.386 153.728 725.386 Z" fill="#000000" fill-rule="nonzero" fill-opacity="1"></path><path clip-path="url(#clip580)" d="M184.445 709.275 Q180.834 709.275 179.005 712.839 Q177.2 716.381 177.2 723.511 Q177.2 730.617 179.005 734.182 Q180.834 737.724 184.445 737.724 Q188.079 737.724 189.885 734.182 Q191.713 730.617 191.713 723.511 Q191.713 716.381 189.885 712.839 Q188.079 709.275 184.445 709.275 M184.445 705.571 Q190.255 705.571 193.311 710.177 Q196.389 714.761 196.389 723.511 Q196.389 732.238 193.311 736.844 Q190.255 741.427 184.445 741.427 Q178.635 741.427 175.556 736.844 Q172.501 732.238 172.501 723.511 Q172.501 714.761 175.556 710.177 Q178.635 705.571 184.445 705.571 Z" fill="#000000" fill-rule="nonzero" fill-opacity="1"></path><path clip-path="url(#clip580)" d="M114.931 497.865 L122.57 497.865 L122.57 471.5 L114.26 473.167 L114.26 468.907 L122.524 467.241 L127.2 467.241 L127.2 497.865 L134.839 497.865 L134.839 501.801 L114.931 501.801 L114.931 497.865 Z" fill="#000000" fill-rule="nonzero" fill-opacity="1"></path><path clip-path="url(#clip580)" d="M148.311 497.865 L164.63 497.865 L164.63 501.801 L142.686 501.801 L142.686 497.865 Q145.348 495.111 149.931 490.481 Q154.538 485.828 155.718 484.486 Q157.964 481.963 158.843 480.227 Q159.746 478.467 159.746 476.778 Q159.746 474.023 157.802 472.287 Q155.88 470.551 152.778 470.551 Q150.579 470.551 148.126 471.315 Q145.695 472.079 142.917 473.629 L142.917 468.907 Q145.741 467.773 148.195 467.194 Q150.649 466.616 152.686 466.616 Q158.056 466.616 161.251 469.301 Q164.445 471.986 164.445 476.477 Q164.445 478.606 163.635 480.528 Q162.848 482.426 160.741 485.018 Q160.163 485.69 157.061 488.907 Q153.959 492.102 148.311 497.865 Z" fill="#000000" fill-rule="nonzero" fill-opacity="1"></path><path clip-path="url(#clip580)" d="M184.445 470.319 Q180.834 470.319 179.005 473.884 Q177.2 477.426 177.2 484.555 Q177.2 491.662 179.005 495.227 Q180.834 498.768 184.445 498.768 Q188.079 498.768 189.885 495.227 Q191.713 491.662 191.713 484.555 Q191.713 477.426 189.885 473.884 Q188.079 470.319 184.445 470.319 M184.445 466.616 Q190.255 466.616 193.311 471.222 Q196.389 475.805 196.389 484.555 Q196.389 493.282 193.311 497.889 Q190.255 502.472 184.445 502.472 Q178.635 502.472 175.556 497.889 Q172.501 493.282 172.501 484.555 Q172.501 475.805 175.556 471.222 Q178.635 466.616 184.445 466.616 Z" fill="#000000" fill-rule="nonzero" fill-opacity="1"></path><path clip-path="url(#clip580)" d="M114.931 258.91 L122.57 258.91 L122.57 232.544 L114.26 234.211 L114.26 229.952 L122.524 228.285 L127.2 228.285 L127.2 258.91 L134.839 258.91 L134.839 262.845 L114.931 262.845 L114.931 258.91 Z" fill="#000000" fill-rule="nonzero" fill-opacity="1"></path><path clip-path="url(#clip580)" d="M144.329 228.285 L162.686 228.285 L162.686 232.22 L148.612 232.22 L148.612 240.693 Q149.63 240.345 150.649 240.183 Q151.667 239.998 152.686 239.998 Q158.473 239.998 161.852 243.169 Q165.232 246.341 165.232 251.757 Q165.232 257.336 161.76 260.438 Q158.288 263.517 151.968 263.517 Q149.792 263.517 147.524 263.146 Q145.279 262.776 142.871 262.035 L142.871 257.336 Q144.954 258.47 147.177 259.026 Q149.399 259.581 151.876 259.581 Q155.88 259.581 158.218 257.475 Q160.556 255.368 160.556 251.757 Q160.556 248.146 158.218 246.04 Q155.88 243.933 151.876 243.933 Q150.001 243.933 148.126 244.35 Q146.274 244.767 144.329 245.646 L144.329 228.285 Z" fill="#000000" fill-rule="nonzero" fill-opacity="1"></path><path clip-path="url(#clip580)" d="M184.445 231.364 Q180.834 231.364 179.005 234.929 Q177.2 238.47 177.2 245.6 Q177.2 252.706 179.005 256.271 Q180.834 259.813 184.445 259.813 Q188.079 259.813 189.885 256.271 Q191.713 252.706 191.713 245.6 Q191.713 238.47 189.885 234.929 Q188.079 231.364 184.445 231.364 M184.445 227.66 Q190.255 227.66 193.311 232.267 Q196.389 236.85 196.389 245.6 Q196.389 254.327 193.311 258.933 Q190.255 263.517 184.445 263.517 Q178.635 263.517 175.556 258.933 Q172.501 254.327 172.501 245.6 Q172.501 236.85 175.556 232.267 Q178.635 227.66 184.445 227.66 Z" fill="#000000" fill-rule="nonzero" fill-opacity="1"></path><path clip-path="url(#clip580)" d="M16.4842 1213.96 L16.4842 1207.53 L64.0042 1207.53 L64.0042 1213.96 L16.4842 1213.96 Z" fill="#000000" fill-rule="nonzero" fill-opacity="1"></path><path clip-path="url(#clip580)" d="M42.4881 1165.36 L64.0042 1165.36 L64.0042 1171.22 L42.679 1171.22 Q37.6183 1171.22 35.1038 1173.19 Q32.5894 1175.16 32.5894 1179.11 Q32.5894 1183.85 35.6131 1186.59 Q38.6368 1189.33 43.8567 1189.33 L64.0042 1189.33 L64.0042 1195.21 L28.3562 1195.21 L28.3562 1189.33 L33.8944 1189.33 Q30.6797 1187.22 29.0883 1184.39 Q27.4968 1181.53 27.4968 1177.8 Q27.4968 1171.66 31.3163 1168.51 Q35.1038 1165.36 42.4881 1165.36 Z" fill="#000000" fill-rule="nonzero" fill-opacity="1"></path><path clip-path="url(#clip580)" d="M14.479 1153.68 L14.479 1147.82 L64.0042 1147.82 L64.0042 1153.68 L14.479 1153.68 Z" fill="#000000" fill-rule="nonzero" fill-opacity="1"></path><path clip-path="url(#clip580)" d="M44.7161 1105.08 L47.5806 1105.08 L47.5806 1132 Q53.6281 1131.62 56.8109 1128.37 Q59.9619 1125.1 59.9619 1119.27 Q59.9619 1115.9 59.1344 1112.75 Q58.3069 1109.56 56.6518 1106.44 L62.1899 1106.44 Q63.5267 1109.6 64.227 1112.91 Q64.9272 1116.22 64.9272 1119.62 Q64.9272 1128.15 59.9619 1133.15 Q54.9967 1138.11 46.5303 1138.11 Q37.7774 1138.11 32.6531 1133.4 Q27.4968 1128.66 27.4968 1120.64 Q27.4968 1113.45 32.1438 1109.28 Q36.7589 1105.08 44.7161 1105.08 M42.9973 1110.93 Q38.1912 1111 35.3266 1113.64 Q32.4621 1116.25 32.4621 1120.58 Q32.4621 1125.48 35.2312 1128.44 Q38.0002 1131.37 43.0292 1131.81 L42.9973 1110.93 Z" fill="#000000" fill-rule="nonzero" fill-opacity="1"></path><path clip-path="url(#clip580)" d="M18.2347 1089.67 L28.3562 1089.67 L28.3562 1077.61 L32.9077 1077.61 L32.9077 1089.67 L52.2594 1089.67 Q56.6199 1089.67 57.8613 1088.49 Q59.1026 1087.28 59.1026 1083.62 L59.1026 1077.61 L64.0042 1077.61 L64.0042 1083.62 Q64.0042 1090.4 61.4897 1092.98 Q58.9434 1095.56 52.2594 1095.56 L32.9077 1095.56 L32.9077 1099.86 L28.3562 1099.86 L28.3562 1095.56 L18.2347 1095.56 L18.2347 1089.67 Z" fill="#000000" fill-rule="nonzero" fill-opacity="1"></path><path clip-path="url(#clip580)" d="M64.0042 1036.68 L16.4842 1054.82 L16.4842 1048.1 L56.4926 1033.05 L16.4842 1017.96 L16.4842 1011.28 L64.0042 1029.39 L64.0042 1036.68 Z" fill="#000000" fill-rule="nonzero" fill-opacity="1"></path><path clip-path="url(#clip580)" d="M44.7161 979.162 L47.5806 979.162 L47.5806 1006.09 Q53.6281 1005.71 56.8109 1002.46 Q59.9619 999.182 59.9619 993.357 Q59.9619 989.983 59.1344 986.832 Q58.3069 983.65 56.6518 980.53 L62.1899 980.53 Q63.5267 983.681 64.227 986.992 Q64.9272 990.302 64.9272 993.707 Q64.9272 1002.24 59.9619 1007.23 Q54.9967 1012.2 46.5303 1012.2 Q37.7774 1012.2 32.6531 1007.49 Q27.4968 1002.75 27.4968 994.726 Q27.4968 987.533 32.1438 983.363 Q36.7589 979.162 44.7161 979.162 M42.9973 985.018 Q38.1912 985.082 35.3266 987.724 Q32.4621 990.334 32.4621 994.662 Q32.4621 999.564 35.2312 1002.52 Q38.0002 1005.45 43.0292 1005.9 L42.9973 985.018 Z" fill="#000000" fill-rule="nonzero" fill-opacity="1"></path><path clip-path="url(#clip580)" d="M14.479 969.55 L14.479 963.693 L64.0042 963.693 L64.0042 969.55 L14.479 969.55 Z" fill="#000000" fill-rule="nonzero" fill-opacity="1"></path><path clip-path="url(#clip580)" d="M32.4621 937.626 Q32.4621 942.336 36.1542 945.073 Q39.8145 947.811 46.212 947.811 Q52.6095 947.811 56.3017 945.105 Q59.9619 942.368 59.9619 937.626 Q59.9619 932.947 56.2698 930.209 Q52.5777 927.472 46.212 927.472 Q39.8781 927.472 36.186 930.209 Q32.4621 932.947 32.4621 937.626 M27.4968 937.626 Q27.4968 929.987 32.4621 925.626 Q37.4273 921.266 46.212 921.266 Q54.9649 921.266 59.9619 925.626 Q64.9272 929.987 64.9272 937.626 Q64.9272 945.296 59.9619 949.657 Q54.9649 953.985 46.212 953.985 Q37.4273 953.985 32.4621 949.657 Q27.4968 945.296 27.4968 937.626 Z" fill="#000000" fill-rule="nonzero" fill-opacity="1"></path><path clip-path="url(#clip580)" d="M29.7248 885.904 L35.1993 885.904 Q33.8307 888.387 33.1623 890.901 Q32.4621 893.384 32.4621 895.93 Q32.4621 901.627 36.0905 904.778 Q39.6872 907.93 46.212 907.93 Q52.7369 907.93 56.3653 904.778 Q59.9619 901.627 59.9619 895.93 Q59.9619 893.384 59.2935 890.901 Q58.5933 888.387 57.2247 885.904 L62.6355 885.904 Q63.7814 888.355 64.3543 890.997 Q64.9272 893.607 64.9272 896.567 Q64.9272 904.619 59.8664 909.362 Q54.8057 914.104 46.212 914.104 Q37.491 914.104 32.4939 909.33 Q27.4968 904.524 27.4968 896.185 Q27.4968 893.479 28.0697 890.901 Q28.6108 888.323 29.7248 885.904 Z" fill="#000000" fill-rule="nonzero" fill-opacity="1"></path><path clip-path="url(#clip580)" d="M28.3562 875.719 L28.3562 869.863 L64.0042 869.863 L64.0042 875.719 L28.3562 875.719 M14.479 875.719 L14.479 869.863 L21.895 869.863 L21.895 875.719 L14.479 875.719 Z" fill="#000000" fill-rule="nonzero" fill-opacity="1"></path><path clip-path="url(#clip580)" d="M18.2347 851.816 L28.3562 851.816 L28.3562 839.753 L32.9077 839.753 L32.9077 851.816 L52.2594 851.816 Q56.6199 851.816 57.8613 850.638 Q59.1026 849.429 59.1026 845.768 L59.1026 839.753 L64.0042 839.753 L64.0042 845.768 Q64.0042 852.548 61.4897 855.126 Q58.9434 857.704 52.2594 857.704 L32.9077 857.704 L32.9077 862.001 L28.3562 862.001 L28.3562 857.704 L18.2347 857.704 L18.2347 851.816 Z" fill="#000000" fill-rule="nonzero" fill-opacity="1"></path><path clip-path="url(#clip580)" d="M67.3143 817.218 Q73.68 819.701 75.6216 822.056 Q77.5631 824.411 77.5631 828.358 L77.5631 833.037 L72.6615 833.037 L72.6615 829.599 Q72.6615 827.181 71.5157 825.844 Q70.3699 824.507 66.1048 822.884 L63.4312 821.833 L28.3562 836.252 L28.3562 830.045 L56.238 818.905 L28.3562 807.765 L28.3562 801.559 L67.3143 817.218 Z" fill="#000000" fill-rule="nonzero" fill-opacity="1"></path><path clip-path="url(#clip580)" d="M21.7677 766.07 L58.7206 766.07 L58.7206 758.304 Q58.7206 748.469 54.2646 743.917 Q49.8086 739.334 40.1964 739.334 Q30.6479 739.334 26.2237 743.917 Q21.7677 748.469 21.7677 758.304 L21.7677 766.07 M16.4842 772.499 L16.4842 759.29 Q16.4842 745.477 22.2451 739.015 Q27.9743 732.554 40.1964 732.554 Q52.4822 732.554 58.2432 739.047 Q64.0042 745.54 64.0042 759.29 L64.0042 772.499 L16.4842 772.499 Z" fill="#000000" fill-rule="nonzero" fill-opacity="1"></path><path clip-path="url(#clip580)" d="M28.3562 722.56 L28.3562 716.704 L64.0042 716.704 L64.0042 722.56 L28.3562 722.56 M14.479 722.56 L14.479 716.704 L21.895 716.704 L21.895 722.56 L14.479 722.56 Z" fill="#000000" fill-rule="nonzero" fill-opacity="1"></path><path clip-path="url(#clip580)" d="M14.479 686.403 L19.3487 686.403 L19.3487 692.005 Q19.3487 695.156 20.6219 696.397 Q21.895 697.607 25.2052 697.607 L28.3562 697.607 L28.3562 687.963 L32.9077 687.963 L32.9077 697.607 L64.0042 697.607 L64.0042 703.495 L32.9077 703.495 L32.9077 709.097 L28.3562 709.097 L28.3562 703.495 L25.8736 703.495 Q19.9216 703.495 17.2162 700.726 Q14.479 697.957 14.479 691.941 L14.479 686.403 Z" fill="#000000" fill-rule="nonzero" fill-opacity="1"></path><path clip-path="url(#clip580)" d="M14.479 663.455 L19.3487 663.455 L19.3487 669.056 Q19.3487 672.207 20.6219 673.449 Q21.895 674.658 25.2052 674.658 L28.3562 674.658 L28.3562 665.014 L32.9077 665.014 L32.9077 674.658 L64.0042 674.658 L64.0042 680.546 L32.9077 680.546 L32.9077 686.148 L28.3562 686.148 L28.3562 680.546 L25.8736 680.546 Q19.9216 680.546 17.2162 677.777 Q14.479 675.008 14.479 668.993 L14.479 663.455 Z" fill="#000000" fill-rule="nonzero" fill-opacity="1"></path><path clip-path="url(#clip580)" d="M44.7161 628.061 L47.5806 628.061 L47.5806 654.988 Q53.6281 654.606 56.8109 651.36 Q59.9619 648.081 59.9619 642.257 Q59.9619 638.883 59.1344 635.732 Q58.3069 632.549 56.6518 629.43 L62.1899 629.43 Q63.5267 632.581 64.227 635.891 Q64.9272 639.201 64.9272 642.607 Q64.9272 651.137 59.9619 656.134 Q54.9967 661.099 46.5303 661.099 Q37.7774 661.099 32.6531 656.389 Q27.4968 651.646 27.4968 643.625 Q27.4968 636.432 32.1438 632.263 Q36.7589 628.061 44.7161 628.061 M42.9973 633.918 Q38.1912 633.981 35.3266 636.623 Q32.4621 639.233 32.4621 643.562 Q32.4621 648.463 35.2312 651.423 Q38.0002 654.352 43.0292 654.797 L42.9973 633.918 Z" fill="#000000" fill-rule="nonzero" fill-opacity="1"></path><path clip-path="url(#clip580)" d="M33.8307 597.792 Q33.2578 598.779 33.0032 599.957 Q32.7167 601.102 32.7167 602.503 Q32.7167 607.468 35.9632 610.142 Q39.1779 612.784 45.2253 612.784 L64.0042 612.784 L64.0042 618.672 L28.3562 618.672 L28.3562 612.784 L33.8944 612.784 Q30.6479 610.937 29.0883 607.977 Q27.4968 605.017 27.4968 600.784 Q27.4968 600.179 27.5923 599.447 Q27.656 598.715 27.8151 597.824 L33.8307 597.792 Z" fill="#000000" fill-rule="nonzero" fill-opacity="1"></path><path clip-path="url(#clip580)" d="M44.7161 562.59 L47.5806 562.59 L47.5806 589.517 Q53.6281 589.135 56.8109 585.888 Q59.9619 582.61 59.9619 576.785 Q59.9619 573.412 59.1344 570.261 Q58.3069 567.078 56.6518 563.959 L62.1899 563.959 Q63.5267 567.11 64.227 570.42 Q64.9272 573.73 64.9272 577.136 Q64.9272 585.666 59.9619 590.663 Q54.9967 595.628 46.5303 595.628 Q37.7774 595.628 32.6531 590.917 Q27.4968 586.175 27.4968 578.154 Q27.4968 570.961 32.1438 566.791 Q36.7589 562.59 44.7161 562.59 M42.9973 568.446 Q38.1912 568.51 35.3266 571.152 Q32.4621 573.762 32.4621 578.09 Q32.4621 582.992 35.2312 585.952 Q38.0002 588.88 43.0292 589.326 L42.9973 568.446 Z" fill="#000000" fill-rule="nonzero" fill-opacity="1"></path><path clip-path="url(#clip580)" d="M42.4881 523.345 L64.0042 523.345 L64.0042 529.202 L42.679 529.202 Q37.6183 529.202 35.1038 531.175 Q32.5894 533.149 32.5894 537.095 Q32.5894 541.838 35.6131 544.575 Q38.6368 547.312 43.8567 547.312 L64.0042 547.312 L64.0042 553.201 L28.3562 553.201 L28.3562 547.312 L33.8944 547.312 Q30.6797 545.212 29.0883 542.379 Q27.4968 539.514 27.4968 535.79 Q27.4968 529.647 31.3163 526.496 Q35.1038 523.345 42.4881 523.345 Z" fill="#000000" fill-rule="nonzero" fill-opacity="1"></path><path clip-path="url(#clip580)" d="M29.7248 486.01 L35.1993 486.01 Q33.8307 488.493 33.1623 491.008 Q32.4621 493.49 32.4621 496.036 Q32.4621 501.734 36.0905 504.885 Q39.6872 508.036 46.212 508.036 Q52.7369 508.036 56.3653 504.885 Q59.9619 501.734 59.9619 496.036 Q59.9619 493.49 59.2935 491.008 Q58.5933 488.493 57.2247 486.01 L62.6355 486.01 Q63.7814 488.461 64.3543 491.103 Q64.9272 493.713 64.9272 496.673 Q64.9272 504.726 59.8664 509.468 Q54.8057 514.211 46.212 514.211 Q37.491 514.211 32.4939 509.436 Q27.4968 504.63 27.4968 496.291 Q27.4968 493.586 28.0697 491.008 Q28.6108 488.429 29.7248 486.01 Z" fill="#000000" fill-rule="nonzero" fill-opacity="1"></path><path clip-path="url(#clip580)" d="M44.7161 445.334 L47.5806 445.334 L47.5806 472.261 Q53.6281 471.879 56.8109 468.632 Q59.9619 465.354 59.9619 459.529 Q59.9619 456.155 59.1344 453.004 Q58.3069 449.821 56.6518 446.702 L62.1899 446.702 Q63.5267 449.853 64.227 453.163 Q64.9272 456.474 64.9272 459.879 Q64.9272 468.409 59.9619 473.406 Q54.9967 478.372 46.5303 478.372 Q37.7774 478.372 32.6531 473.661 Q27.4968 468.919 27.4968 460.898 Q27.4968 453.705 32.1438 449.535 Q36.7589 445.334 44.7161 445.334 M42.9973 451.19 Q38.1912 451.254 35.3266 453.895 Q32.4621 456.505 32.4621 460.834 Q32.4621 465.736 35.2312 468.696 Q38.0002 471.624 43.0292 472.07 L42.9973 451.19 Z" fill="#000000" fill-rule="nonzero" fill-opacity="1"></path><path clip-path="url(#clip580)" d="M14.479 415.542 L14.479 402.047 L19.0304 402.047 L19.0304 409.686 L68.0464 409.686 L68.0464 402.047 L72.5979 402.047 L72.5979 415.542 L14.479 415.542 Z" fill="#000000" fill-rule="nonzero" fill-opacity="1"></path><path clip-path="url(#clip580)" d="M35.1993 361.816 Q31.2526 359.619 29.3747 356.564 Q27.4968 353.508 27.4968 349.371 Q27.4968 343.801 31.4117 340.777 Q35.2948 337.753 42.4881 337.753 L64.0042 337.753 L64.0042 343.641 L42.679 343.641 Q37.5546 343.641 35.072 345.456 Q32.5894 347.27 32.5894 350.994 Q32.5894 355.545 35.6131 358.187 Q38.6368 360.829 43.8567 360.829 L64.0042 360.829 L64.0042 366.717 L42.679 366.717 Q37.5228 366.717 35.072 368.531 Q32.5894 370.346 32.5894 374.133 Q32.5894 378.621 35.6449 381.263 Q38.6686 383.905 43.8567 383.905 L64.0042 383.905 L64.0042 389.793 L28.3562 389.793 L28.3562 383.905 L33.8944 383.905 Q30.616 381.899 29.0564 379.098 Q27.4968 376.298 27.4968 372.446 Q27.4968 368.563 29.4702 365.858 Q31.4436 363.121 35.1993 361.816 Z" fill="#000000" fill-rule="nonzero" fill-opacity="1"></path><path clip-path="url(#clip580)" d="M16.4842 315.664 L16.4842 310.253 L70.0516 326.804 L70.0516 332.215 L16.4842 315.664 Z" fill="#000000" fill-rule="nonzero" fill-opacity="1"></path><path clip-path="url(#clip580)" d="M29.4065 281.385 L34.9447 281.385 Q33.6716 283.867 33.035 286.541 Q32.3984 289.215 32.3984 292.079 Q32.3984 296.44 33.7352 298.636 Q35.072 300.8 37.7456 300.8 Q39.7826 300.8 40.9603 299.241 Q42.1061 297.681 43.1565 292.97 L43.6021 290.965 Q44.9389 284.727 47.3897 282.117 Q49.8086 279.475 54.1691 279.475 Q59.1344 279.475 62.0308 283.422 Q64.9272 287.337 64.9272 294.212 Q64.9272 297.076 64.3543 300.195 Q63.8132 303.283 62.6992 306.72 L56.6518 306.72 Q58.3387 303.474 59.198 300.323 Q60.0256 297.172 60.0256 294.084 Q60.0256 289.947 58.6251 287.719 Q57.1929 285.491 54.6147 285.491 Q52.2276 285.491 50.9545 287.114 Q49.6813 288.705 48.5037 294.148 L48.0262 296.185 Q46.8804 301.628 44.5251 304.047 Q42.138 306.466 38.0002 306.466 Q32.9713 306.466 30.2341 302.901 Q27.4968 299.336 27.4968 292.779 Q27.4968 289.533 27.9743 286.668 Q28.4517 283.804 29.4065 281.385 Z" fill="#000000" fill-rule="nonzero" fill-opacity="1"></path><path clip-path="url(#clip580)" d="M14.479 256.463 L72.5979 256.463 L72.5979 269.958 L68.0464 269.958 L68.0464 262.351 L19.0304 262.351 L19.0304 269.958 L14.479 269.958 L14.479 256.463 Z" fill="#000000" fill-rule="nonzero" fill-opacity="1"></path><circle clip-path="url(#clip582)" cx="292.4" cy="103.333" r="14.4" fill="#009af9" fill-rule="evenodd" fill-opacity="1" stroke="#000000" stroke-opacity="1" stroke-width="3.2"></circle>
<circle clip-path="url(#clip582)" cx="328.12" cy="103.333" r="14.4" fill="#009af9" fill-rule="evenodd" fill-opacity="1" stroke="#000000" stroke-opacity="1" stroke-width="3.2"></circle>
<circle clip-path="url(#clip582)" cx="363.841" cy="138.071" r="14.4" fill="#009af9" fill-rule="evenodd" fill-opacity="1" stroke="#000000" stroke-opacity="1" stroke-width="3.2"></circle>
<circle clip-path="url(#clip582)" cx="399.561" cy="154.769" r="14.4" fill="#009af9" fill-rule="evenodd" fill-opacity="1" stroke="#000000" stroke-opacity="1" stroke-width="3.2"></circle>
<circle clip-path="url(#clip582)" cx="435.282" cy="171.7" r="14.4" fill="#009af9" fill-rule="evenodd" fill-opacity="1" stroke="#000000" stroke-opacity="1" stroke-width="3.2"></circle>
<circle clip-path="url(#clip582)" cx="471.002" cy="188.387" r="14.4" fill="#009af9" fill-rule="evenodd" fill-opacity="1" stroke="#000000" stroke-opacity="1" stroke-width="3.2"></circle>
<circle clip-path="url(#clip582)" cx="506.722" cy="205.303" r="14.4" fill="#009af9" fill-rule="evenodd" fill-opacity="1" stroke="#000000" stroke-opacity="1" stroke-width="3.2"></circle>
<circle clip-path="url(#clip582)" cx="542.443" cy="222.485" r="14.4" fill="#009af9" fill-rule="evenodd" fill-opacity="1" stroke="#000000" stroke-opacity="1" stroke-width="3.2"></circle>
<circle clip-path="url(#clip582)" cx="578.163" cy="238.175" r="14.4" fill="#009af9" fill-rule="evenodd" fill-opacity="1" stroke="#000000" stroke-opacity="1" stroke-width="3.2"></circle>
<circle clip-path="url(#clip582)" cx="613.884" cy="238.175" r="14.4" fill="#009af9" fill-rule="evenodd" fill-opacity="1" stroke="#000000" stroke-opacity="1" stroke-width="3.2"></circle>
<circle clip-path="url(#clip582)" cx="649.604" cy="271.503" r="14.4" fill="#009af9" fill-rule="evenodd" fill-opacity="1" stroke="#000000" stroke-opacity="1" stroke-width="3.2"></circle>
<circle clip-path="url(#clip582)" cx="685.325" cy="289.192" r="14.4" fill="#009af9" fill-rule="evenodd" fill-opacity="1" stroke="#000000" stroke-opacity="1" stroke-width="3.2"></circle>
<circle clip-path="url(#clip582)" cx="721.045" cy="305.322" r="14.4" fill="#009af9" fill-rule="evenodd" fill-opacity="1" stroke="#000000" stroke-opacity="1" stroke-width="3.2"></circle>
<circle clip-path="url(#clip582)" cx="756.766" cy="321.693" r="14.4" fill="#009af9" fill-rule="evenodd" fill-opacity="1" stroke="#000000" stroke-opacity="1" stroke-width="3.2"></circle>
<circle clip-path="url(#clip582)" cx="792.486" cy="338.318" r="14.4" fill="#009af9" fill-rule="evenodd" fill-opacity="1" stroke="#000000" stroke-opacity="1" stroke-width="3.2"></circle>
<circle clip-path="url(#clip582)" cx="828.207" cy="355.215" r="14.4" fill="#009af9" fill-rule="evenodd" fill-opacity="1" stroke="#000000" stroke-opacity="1" stroke-width="3.2"></circle>
<circle clip-path="url(#clip582)" cx="863.927" cy="371.811" r="14.4" fill="#009af9" fill-rule="evenodd" fill-opacity="1" stroke="#000000" stroke-opacity="1" stroke-width="3.2"></circle>
<circle clip-path="url(#clip582)" cx="899.648" cy="388.678" r="14.4" fill="#009af9" fill-rule="evenodd" fill-opacity="1" stroke="#000000" stroke-opacity="1" stroke-width="3.2"></circle>
<circle clip-path="url(#clip582)" cx="935.368" cy="405.838" r="14.4" fill="#009af9" fill-rule="evenodd" fill-opacity="1" stroke="#000000" stroke-opacity="1" stroke-width="3.2"></circle>
<circle clip-path="url(#clip582)" cx="971.088" cy="422.681" r="14.4" fill="#009af9" fill-rule="evenodd" fill-opacity="1" stroke="#000000" stroke-opacity="1" stroke-width="3.2"></circle>
<circle clip-path="url(#clip582)" cx="1006.81" cy="438.952" r="14.4" fill="#009af9" fill-rule="evenodd" fill-opacity="1" stroke="#000000" stroke-opacity="1" stroke-width="3.2"></circle>
<circle clip-path="url(#clip582)" cx="1042.53" cy="438.952" r="14.4" fill="#009af9" fill-rule="evenodd" fill-opacity="1" stroke="#000000" stroke-opacity="1" stroke-width="3.2"></circle>
<circle clip-path="url(#clip582)" cx="1078.25" cy="472.606" r="14.4" fill="#009af9" fill-rule="evenodd" fill-opacity="1" stroke="#000000" stroke-opacity="1" stroke-width="3.2"></circle>
<circle clip-path="url(#clip582)" cx="1113.97" cy="490.688" r="14.4" fill="#009af9" fill-rule="evenodd" fill-opacity="1" stroke="#000000" stroke-opacity="1" stroke-width="3.2"></circle>
<circle clip-path="url(#clip582)" cx="1149.69" cy="506.849" r="14.4" fill="#009af9" fill-rule="evenodd" fill-opacity="1" stroke="#000000" stroke-opacity="1" stroke-width="3.2"></circle>
<circle clip-path="url(#clip582)" cx="1185.41" cy="525.641" r="14.4" fill="#009af9" fill-rule="evenodd" fill-opacity="1" stroke="#000000" stroke-opacity="1" stroke-width="3.2"></circle>
<circle clip-path="url(#clip582)" cx="1221.13" cy="542.446" r="14.4" fill="#009af9" fill-rule="evenodd" fill-opacity="1" stroke="#000000" stroke-opacity="1" stroke-width="3.2"></circle>
<circle clip-path="url(#clip582)" cx="1256.85" cy="559.588" r="14.4" fill="#009af9" fill-rule="evenodd" fill-opacity="1" stroke="#000000" stroke-opacity="1" stroke-width="3.2"></circle>
<circle clip-path="url(#clip582)" cx="1292.57" cy="577.081" r="14.4" fill="#009af9" fill-rule="evenodd" fill-opacity="1" stroke="#000000" stroke-opacity="1" stroke-width="3.2"></circle>
<circle clip-path="url(#clip582)" cx="1328.29" cy="594.208" r="14.4" fill="#009af9" fill-rule="evenodd" fill-opacity="1" stroke="#000000" stroke-opacity="1" stroke-width="3.2"></circle>
<circle clip-path="url(#clip582)" cx="1364.01" cy="612.454" r="14.4" fill="#009af9" fill-rule="evenodd" fill-opacity="1" stroke="#000000" stroke-opacity="1" stroke-width="3.2"></circle>
<circle clip-path="url(#clip582)" cx="1399.73" cy="630.349" r="14.4" fill="#009af9" fill-rule="evenodd" fill-opacity="1" stroke="#000000" stroke-opacity="1" stroke-width="3.2"></circle>
<circle clip-path="url(#clip582)" cx="1435.45" cy="648.66" r="14.4" fill="#009af9" fill-rule="evenodd" fill-opacity="1" stroke="#000000" stroke-opacity="1" stroke-width="3.2"></circle>
<circle clip-path="url(#clip582)" cx="1471.17" cy="667.415" r="14.4" fill="#009af9" fill-rule="evenodd" fill-opacity="1" stroke="#000000" stroke-opacity="1" stroke-width="3.2"></circle>
<circle clip-path="url(#clip582)" cx="1506.9" cy="686.651" r="14.4" fill="#009af9" fill-rule="evenodd" fill-opacity="1" stroke="#000000" stroke-opacity="1" stroke-width="3.2"></circle>
<circle clip-path="url(#clip582)" cx="1542.62" cy="706.405" r="14.4" fill="#009af9" fill-rule="evenodd" fill-opacity="1" stroke="#000000" stroke-opacity="1" stroke-width="3.2"></circle>
<circle clip-path="url(#clip582)" cx="1578.34" cy="706.405" r="14.4" fill="#009af9" fill-rule="evenodd" fill-opacity="1" stroke="#000000" stroke-opacity="1" stroke-width="3.2"></circle>
<circle clip-path="url(#clip582)" cx="1614.06" cy="745.82" r="14.4" fill="#009af9" fill-rule="evenodd" fill-opacity="1" stroke="#000000" stroke-opacity="1" stroke-width="3.2"></circle>
<circle clip-path="url(#clip582)" cx="1649.78" cy="765.063" r="14.4" fill="#009af9" fill-rule="evenodd" fill-opacity="1" stroke="#000000" stroke-opacity="1" stroke-width="3.2"></circle>
<circle clip-path="url(#clip582)" cx="1685.5" cy="786.269" r="14.4" fill="#009af9" fill-rule="evenodd" fill-opacity="1" stroke="#000000" stroke-opacity="1" stroke-width="3.2"></circle>
<circle clip-path="url(#clip582)" cx="1721.22" cy="808.206" r="14.4" fill="#009af9" fill-rule="evenodd" fill-opacity="1" stroke="#000000" stroke-opacity="1" stroke-width="3.2"></circle>
<circle clip-path="url(#clip582)" cx="1756.94" cy="827.38" r="14.4" fill="#009af9" fill-rule="evenodd" fill-opacity="1" stroke="#000000" stroke-opacity="1" stroke-width="3.2"></circle>
<circle clip-path="url(#clip582)" cx="1792.66" cy="850.87" r="14.4" fill="#009af9" fill-rule="evenodd" fill-opacity="1" stroke="#000000" stroke-opacity="1" stroke-width="3.2"></circle>
<circle clip-path="url(#clip582)" cx="1828.38" cy="872.612" r="14.4" fill="#009af9" fill-rule="evenodd" fill-opacity="1" stroke="#000000" stroke-opacity="1" stroke-width="3.2"></circle>
<circle clip-path="url(#clip582)" cx="1864.1" cy="896.926" r="14.4" fill="#009af9" fill-rule="evenodd" fill-opacity="1" stroke="#000000" stroke-opacity="1" stroke-width="3.2"></circle>
<circle clip-path="url(#clip582)" cx="1899.82" cy="919.402" r="14.4" fill="#009af9" fill-rule="evenodd" fill-opacity="1" stroke="#000000" stroke-opacity="1" stroke-width="3.2"></circle>
<circle clip-path="url(#clip582)" cx="1935.54" cy="946.042" r="14.4" fill="#009af9" fill-rule="evenodd" fill-opacity="1" stroke="#000000" stroke-opacity="1" stroke-width="3.2"></circle>
<circle clip-path="url(#clip582)" cx="1971.26" cy="972.239" r="14.4" fill="#009af9" fill-rule="evenodd" fill-opacity="1" stroke="#000000" stroke-opacity="1" stroke-width="3.2"></circle>
<circle clip-path="url(#clip582)" cx="2006.98" cy="997.142" r="14.4" fill="#009af9" fill-rule="evenodd" fill-opacity="1" stroke="#000000" stroke-opacity="1" stroke-width="3.2"></circle>
<circle clip-path="url(#clip582)" cx="2042.7" cy="1028.84" r="14.4" fill="#009af9" fill-rule="evenodd" fill-opacity="1" stroke="#000000" stroke-opacity="1" stroke-width="3.2"></circle>
<circle clip-path="url(#clip582)" cx="2078.42" cy="1059.09" r="14.4" fill="#009af9" fill-rule="evenodd" fill-opacity="1" stroke="#000000" stroke-opacity="1" stroke-width="3.2"></circle>
<circle clip-path="url(#clip582)" cx="2114.14" cy="1090.17" r="14.4" fill="#009af9" fill-rule="evenodd" fill-opacity="1" stroke="#000000" stroke-opacity="1" stroke-width="3.2"></circle>
<circle clip-path="url(#clip582)" cx="2149.86" cy="1090.17" r="14.4" fill="#009af9" fill-rule="evenodd" fill-opacity="1" stroke="#000000" stroke-opacity="1" stroke-width="3.2"></circle>
<circle clip-path="url(#clip582)" cx="2185.58" cy="1170.65" r="14.4" fill="#009af9" fill-rule="evenodd" fill-opacity="1" stroke="#000000" stroke-opacity="1" stroke-width="3.2"></circle>
<circle clip-path="url(#clip582)" cx="2221.3" cy="1219.65" r="14.4" fill="#009af9" fill-rule="evenodd" fill-opacity="1" stroke="#000000" stroke-opacity="1" stroke-width="3.2"></circle>
<circle clip-path="url(#clip582)" cx="2257.03" cy="1279.31" r="14.4" fill="#009af9" fill-rule="evenodd" fill-opacity="1" stroke="#000000" stroke-opacity="1" stroke-width="3.2"></circle>
<circle clip-path="url(#clip582)" cx="2292.75" cy="1384.24" r="14.4" fill="#009af9" fill-rule="evenodd" fill-opacity="1" stroke="#000000" stroke-opacity="1" stroke-width="3.2"></circle>
<circle clip-path="url(#clip582)" cx="292.4" cy="86.1857" r="14.4" fill="#e26f46" fill-rule="evenodd" fill-opacity="1" stroke="#000000" stroke-opacity="1" stroke-width="3.2"></circle>
<circle clip-path="url(#clip582)" cx="328.12" cy="86.1857" r="14.4" fill="#e26f46" fill-rule="evenodd" fill-opacity="1" stroke="#000000" stroke-opacity="1" stroke-width="3.2"></circle>
<circle clip-path="url(#clip582)" cx="363.841" cy="99.6427" r="14.4" fill="#e26f46" fill-rule="evenodd" fill-opacity="1" stroke="#000000" stroke-opacity="1" stroke-width="3.2"></circle>
<circle clip-path="url(#clip582)" cx="399.561" cy="105.988" r="14.4" fill="#e26f46" fill-rule="evenodd" fill-opacity="1" stroke="#000000" stroke-opacity="1" stroke-width="3.2"></circle>
<circle clip-path="url(#clip582)" cx="435.282" cy="112.242" r="14.4" fill="#e26f46" fill-rule="evenodd" fill-opacity="1" stroke="#000000" stroke-opacity="1" stroke-width="3.2"></circle>
<circle clip-path="url(#clip582)" cx="471.002" cy="118.587" r="14.4" fill="#e26f46" fill-rule="evenodd" fill-opacity="1" stroke="#000000" stroke-opacity="1" stroke-width="3.2"></circle>
<circle clip-path="url(#clip582)" cx="506.722" cy="124.471" r="14.4" fill="#e26f46" fill-rule="evenodd" fill-opacity="1" stroke="#000000" stroke-opacity="1" stroke-width="3.2"></circle>
<circle clip-path="url(#clip582)" cx="542.443" cy="130.862" r="14.4" fill="#e26f46" fill-rule="evenodd" fill-opacity="1" stroke="#000000" stroke-opacity="1" stroke-width="3.2"></circle>
<circle clip-path="url(#clip582)" cx="578.163" cy="136.245" r="14.4" fill="#e26f46" fill-rule="evenodd" fill-opacity="1" stroke="#000000" stroke-opacity="1" stroke-width="3.2"></circle>
<circle clip-path="url(#clip582)" cx="613.884" cy="136.245" r="14.4" fill="#e26f46" fill-rule="evenodd" fill-opacity="1" stroke="#000000" stroke-opacity="1" stroke-width="3.2"></circle>
<circle clip-path="url(#clip582)" cx="649.604" cy="147.998" r="14.4" fill="#e26f46" fill-rule="evenodd" fill-opacity="1" stroke="#000000" stroke-opacity="1" stroke-width="3.2"></circle>
<circle clip-path="url(#clip582)" cx="685.325" cy="154.07" r="14.4" fill="#e26f46" fill-rule="evenodd" fill-opacity="1" stroke="#000000" stroke-opacity="1" stroke-width="3.2"></circle>
<circle clip-path="url(#clip582)" cx="721.045" cy="159.665" r="14.4" fill="#e26f46" fill-rule="evenodd" fill-opacity="1" stroke="#000000" stroke-opacity="1" stroke-width="3.2"></circle>
<circle clip-path="url(#clip582)" cx="756.766" cy="165.093" r="14.4" fill="#e26f46" fill-rule="evenodd" fill-opacity="1" stroke="#000000" stroke-opacity="1" stroke-width="3.2"></circle>
<circle clip-path="url(#clip582)" cx="792.486" cy="170.424" r="14.4" fill="#e26f46" fill-rule="evenodd" fill-opacity="1" stroke="#000000" stroke-opacity="1" stroke-width="3.2"></circle>
<circle clip-path="url(#clip582)" cx="828.207" cy="175.9" r="14.4" fill="#e26f46" fill-rule="evenodd" fill-opacity="1" stroke="#000000" stroke-opacity="1" stroke-width="3.2"></circle>
<circle clip-path="url(#clip582)" cx="863.927" cy="181.337" r="14.4" fill="#e26f46" fill-rule="evenodd" fill-opacity="1" stroke="#000000" stroke-opacity="1" stroke-width="3.2"></circle>
<circle clip-path="url(#clip582)" cx="899.648" cy="186.604" r="14.4" fill="#e26f46" fill-rule="evenodd" fill-opacity="1" stroke="#000000" stroke-opacity="1" stroke-width="3.2"></circle>
<circle clip-path="url(#clip582)" cx="935.368" cy="192.019" r="14.4" fill="#e26f46" fill-rule="evenodd" fill-opacity="1" stroke="#000000" stroke-opacity="1" stroke-width="3.2"></circle>
<circle clip-path="url(#clip582)" cx="971.088" cy="197.077" r="14.4" fill="#e26f46" fill-rule="evenodd" fill-opacity="1" stroke="#000000" stroke-opacity="1" stroke-width="3.2"></circle>
<circle clip-path="url(#clip582)" cx="1006.81" cy="202.024" r="14.4" fill="#e26f46" fill-rule="evenodd" fill-opacity="1" stroke="#000000" stroke-opacity="1" stroke-width="3.2"></circle>
<circle clip-path="url(#clip582)" cx="1042.53" cy="202.024" r="14.4" fill="#e26f46" fill-rule="evenodd" fill-opacity="1" stroke="#000000" stroke-opacity="1" stroke-width="3.2"></circle>
<circle clip-path="url(#clip582)" cx="1078.25" cy="212.121" r="14.4" fill="#e26f46" fill-rule="evenodd" fill-opacity="1" stroke="#000000" stroke-opacity="1" stroke-width="3.2"></circle>
<circle clip-path="url(#clip582)" cx="1113.97" cy="217.132" r="14.4" fill="#e26f46" fill-rule="evenodd" fill-opacity="1" stroke="#000000" stroke-opacity="1" stroke-width="3.2"></circle>
<circle clip-path="url(#clip582)" cx="1149.69" cy="221.91" r="14.4" fill="#e26f46" fill-rule="evenodd" fill-opacity="1" stroke="#000000" stroke-opacity="1" stroke-width="3.2"></circle>
<circle clip-path="url(#clip582)" cx="1185.41" cy="227.154" r="14.4" fill="#e26f46" fill-rule="evenodd" fill-opacity="1" stroke="#000000" stroke-opacity="1" stroke-width="3.2"></circle>
<circle clip-path="url(#clip582)" cx="1221.13" cy="231.496" r="14.4" fill="#e26f46" fill-rule="evenodd" fill-opacity="1" stroke="#000000" stroke-opacity="1" stroke-width="3.2"></circle>
<circle clip-path="url(#clip582)" cx="1256.85" cy="236.076" r="14.4" fill="#e26f46" fill-rule="evenodd" fill-opacity="1" stroke="#000000" stroke-opacity="1" stroke-width="3.2"></circle>
<circle clip-path="url(#clip582)" cx="1292.57" cy="240.65" r="14.4" fill="#e26f46" fill-rule="evenodd" fill-opacity="1" stroke="#000000" stroke-opacity="1" stroke-width="3.2"></circle>
<circle clip-path="url(#clip582)" cx="1328.29" cy="245.277" r="14.4" fill="#e26f46" fill-rule="evenodd" fill-opacity="1" stroke="#000000" stroke-opacity="1" stroke-width="3.2"></circle>
<circle clip-path="url(#clip582)" cx="1364.01" cy="249.749" r="14.4" fill="#e26f46" fill-rule="evenodd" fill-opacity="1" stroke="#000000" stroke-opacity="1" stroke-width="3.2"></circle>
<circle clip-path="url(#clip582)" cx="1399.73" cy="254.275" r="14.4" fill="#e26f46" fill-rule="evenodd" fill-opacity="1" stroke="#000000" stroke-opacity="1" stroke-width="3.2"></circle>
<circle clip-path="url(#clip582)" cx="1435.45" cy="258.798" r="14.4" fill="#e26f46" fill-rule="evenodd" fill-opacity="1" stroke="#000000" stroke-opacity="1" stroke-width="3.2"></circle>
<circle clip-path="url(#clip582)" cx="1471.17" cy="263.138" r="14.4" fill="#e26f46" fill-rule="evenodd" fill-opacity="1" stroke="#000000" stroke-opacity="1" stroke-width="3.2"></circle>
<circle clip-path="url(#clip582)" cx="1506.9" cy="267.643" r="14.4" fill="#e26f46" fill-rule="evenodd" fill-opacity="1" stroke="#000000" stroke-opacity="1" stroke-width="3.2"></circle>
<circle clip-path="url(#clip582)" cx="1542.62" cy="272.23" r="14.4" fill="#e26f46" fill-rule="evenodd" fill-opacity="1" stroke="#000000" stroke-opacity="1" stroke-width="3.2"></circle>
<circle clip-path="url(#clip582)" cx="1578.34" cy="272.23" r="14.4" fill="#e26f46" fill-rule="evenodd" fill-opacity="1" stroke="#000000" stroke-opacity="1" stroke-width="3.2"></circle>
<circle clip-path="url(#clip582)" cx="1614.06" cy="280.919" r="14.4" fill="#e26f46" fill-rule="evenodd" fill-opacity="1" stroke="#000000" stroke-opacity="1" stroke-width="3.2"></circle>
<circle clip-path="url(#clip582)" cx="1649.78" cy="284.934" r="14.4" fill="#e26f46" fill-rule="evenodd" fill-opacity="1" stroke="#000000" stroke-opacity="1" stroke-width="3.2"></circle>
<circle clip-path="url(#clip582)" cx="1685.5" cy="289.037" r="14.4" fill="#e26f46" fill-rule="evenodd" fill-opacity="1" stroke="#000000" stroke-opacity="1" stroke-width="3.2"></circle>
<circle clip-path="url(#clip582)" cx="1721.22" cy="293.583" r="14.4" fill="#e26f46" fill-rule="evenodd" fill-opacity="1" stroke="#000000" stroke-opacity="1" stroke-width="3.2"></circle>
<circle clip-path="url(#clip582)" cx="1756.94" cy="297.191" r="14.4" fill="#e26f46" fill-rule="evenodd" fill-opacity="1" stroke="#000000" stroke-opacity="1" stroke-width="3.2"></circle>
<circle clip-path="url(#clip582)" cx="1792.66" cy="301.547" r="14.4" fill="#e26f46" fill-rule="evenodd" fill-opacity="1" stroke="#000000" stroke-opacity="1" stroke-width="3.2"></circle>
<circle clip-path="url(#clip582)" cx="1828.38" cy="305.24" r="14.4" fill="#e26f46" fill-rule="evenodd" fill-opacity="1" stroke="#000000" stroke-opacity="1" stroke-width="3.2"></circle>
<circle clip-path="url(#clip582)" cx="1864.1" cy="309.576" r="14.4" fill="#e26f46" fill-rule="evenodd" fill-opacity="1" stroke="#000000" stroke-opacity="1" stroke-width="3.2"></circle>
<circle clip-path="url(#clip582)" cx="1899.82" cy="313.246" r="14.4" fill="#e26f46" fill-rule="evenodd" fill-opacity="1" stroke="#000000" stroke-opacity="1" stroke-width="3.2"></circle>
<circle clip-path="url(#clip582)" cx="1935.54" cy="317.389" r="14.4" fill="#e26f46" fill-rule="evenodd" fill-opacity="1" stroke="#000000" stroke-opacity="1" stroke-width="3.2"></circle>
<circle clip-path="url(#clip582)" cx="1971.26" cy="321.055" r="14.4" fill="#e26f46" fill-rule="evenodd" fill-opacity="1" stroke="#000000" stroke-opacity="1" stroke-width="3.2"></circle>
<circle clip-path="url(#clip582)" cx="2006.98" cy="324.793" r="14.4" fill="#e26f46" fill-rule="evenodd" fill-opacity="1" stroke="#000000" stroke-opacity="1" stroke-width="3.2"></circle>
<circle clip-path="url(#clip582)" cx="2042.7" cy="328.826" r="14.4" fill="#e26f46" fill-rule="evenodd" fill-opacity="1" stroke="#000000" stroke-opacity="1" stroke-width="3.2"></circle>
<circle clip-path="url(#clip582)" cx="2078.42" cy="332.561" r="14.4" fill="#e26f46" fill-rule="evenodd" fill-opacity="1" stroke="#000000" stroke-opacity="1" stroke-width="3.2"></circle>
<circle clip-path="url(#clip582)" cx="2114.14" cy="336.097" r="14.4" fill="#e26f46" fill-rule="evenodd" fill-opacity="1" stroke="#000000" stroke-opacity="1" stroke-width="3.2"></circle>
<circle clip-path="url(#clip582)" cx="2149.86" cy="336.097" r="14.4" fill="#e26f46" fill-rule="evenodd" fill-opacity="1" stroke="#000000" stroke-opacity="1" stroke-width="3.2"></circle>
<circle clip-path="url(#clip582)" cx="2185.58" cy="343.831" r="14.4" fill="#e26f46" fill-rule="evenodd" fill-opacity="1" stroke="#000000" stroke-opacity="1" stroke-width="3.2"></circle>
<circle clip-path="url(#clip582)" cx="2221.3" cy="347.546" r="14.4" fill="#e26f46" fill-rule="evenodd" fill-opacity="1" stroke="#000000" stroke-opacity="1" stroke-width="3.2"></circle>
<circle clip-path="url(#clip582)" cx="2257.03" cy="351.062" r="14.4" fill="#e26f46" fill-rule="evenodd" fill-opacity="1" stroke="#000000" stroke-opacity="1" stroke-width="3.2"></circle>
<circle clip-path="url(#clip582)" cx="2292.75" cy="354.669" r="14.4" fill="#e26f46" fill-rule="evenodd" fill-opacity="1" stroke="#000000" stroke-opacity="1" stroke-width="3.2"></circle>
<path clip-path="url(#clip580)" d="M303.068 1377.32 L605.26 1377.32 L605.26 1221.8 L303.068 1221.8  Z" fill="#ffffff" fill-rule="evenodd" fill-opacity="1"></path>
<polyline clip-path="url(#clip580)" style="stroke:#000000; stroke-linecap:round; stroke-linejoin:round; stroke-width:4; stroke-opacity:1; fill:none" points="303.068,1377.32 605.26,1377.32 605.26,1221.8 303.068,1221.8 303.068,1377.32 "></polyline>
<circle clip-path="url(#clip580)" cx="397.307" cy="1273.64" r="23.04" fill="#009af9" fill-rule="evenodd" fill-opacity="1" stroke="#000000" stroke-opacity="1" stroke-width="5.12"></circle>
<path clip-path="url(#clip580)" d="M525.742 1250.73 Q525.695 1251.59 525.11 1251.64 Q524.22 1251.69 523.681 1251.8 Q523.142 1251.9 522.299 1252.25 Q521.456 1252.6 520.636 1253.44 Q519.816 1254.29 518.973 1255.62 L501.711 1283.1 Q501.406 1283.61 501.148 1283.77 Q500.914 1283.96 500.376 1283.96 Q499.884 1283.96 499.696 1283.75 Q499.509 1283.56 499.415 1282.86 L495.621 1253.26 Q495.55 1252.72 495.48 1252.48 Q495.41 1252.25 495.129 1252.01 Q494.871 1251.78 494.309 1251.71 Q493.747 1251.64 492.74 1251.64 Q492.271 1251.64 492.061 1251.62 Q491.873 1251.59 491.709 1251.48 Q491.545 1251.33 491.545 1251.05 Q491.545 1250.63 491.709 1250.42 Q491.897 1250.19 492.037 1250.16 Q492.201 1250.14 492.459 1250.14 Q492.857 1250.14 493.724 1250.19 Q494.59 1250.23 495.035 1250.23 Q495.457 1250.23 496.347 1250.26 Q497.237 1250.28 497.682 1250.28 Q498.666 1250.28 500.657 1250.21 Q502.671 1250.14 503.631 1250.14 Q504.287 1250.14 504.287 1250.68 Q504.287 1251.33 504.006 1251.5 Q503.725 1251.64 503.093 1251.64 Q501.5 1251.64 500.633 1252.04 Q499.79 1252.44 499.79 1253.07 L503.046 1278.46 L517.778 1255.04 Q518.504 1253.93 518.504 1253.21 Q518.504 1251.8 516.279 1251.64 Q515.53 1251.64 515.53 1251.05 Q515.53 1250.63 515.717 1250.42 Q515.905 1250.19 516.045 1250.16 Q516.209 1250.14 516.443 1250.14 Q517.216 1250.14 518.786 1250.21 Q520.378 1250.28 521.175 1250.28 Q521.83 1250.28 523.166 1250.21 Q524.501 1250.14 525.11 1250.14 Q525.742 1250.14 525.742 1250.73 Z" fill="#000000" fill-rule="nonzero" fill-opacity="1"></path><path clip-path="url(#clip580)" d="M544.904 1287.28 Q544.904 1289.07 544.117 1290.84 Q543.33 1292.59 542.067 1293.9 Q540.821 1295.2 539.182 1296.02 Q537.542 1296.82 535.902 1296.82 Q533.558 1296.82 532.033 1295.23 Q530.525 1293.62 530.525 1291.13 Q530.525 1288.8 531.82 1286.59 Q533.132 1284.36 535.23 1282.98 Q537.329 1281.61 539.526 1281.61 Q541.838 1281.61 543.362 1283.16 Q544.904 1284.72 544.904 1287.28 M542.444 1285.97 Q542.444 1284.38 541.674 1283.36 Q540.903 1282.34 539.493 1282.34 Q539.083 1282.34 538.608 1282.47 Q538.132 1282.59 537.509 1282.9 Q536.903 1283.21 536.214 1283.87 Q535.542 1284.51 534.951 1285.43 Q534.181 1286.64 533.591 1288.87 Q533.017 1291.08 533.017 1292.41 Q533.017 1294.25 533.869 1295.16 Q534.722 1296.07 535.935 1296.07 Q537.116 1296.07 538.362 1295.25 Q539.624 1294.41 540.493 1292.98 Q541.362 1291.51 541.903 1289.34 Q542.444 1287.16 542.444 1285.97 Z" fill="#000000" fill-rule="nonzero" fill-opacity="1"></path><path clip-path="url(#clip580)" d="M563.239 1291.64 Q562.813 1293.75 562.239 1294.97 Q561.304 1296.82 559.747 1296.82 Q558.665 1296.82 557.845 1296.21 Q557.041 1295.59 556.763 1294.56 Q556.451 1294.97 556.172 1295.25 Q555.91 1295.53 555.402 1295.95 Q554.894 1296.36 554.205 1296.59 Q553.533 1296.82 552.762 1296.82 Q552.172 1296.82 551.631 1296.71 Q551.09 1296.61 550.516 1296.33 Q549.958 1296.03 549.549 1295.59 Q549.155 1295.15 548.893 1294.43 Q548.63 1293.71 548.63 1292.79 Q548.63 1291.64 549.073 1290.08 Q549.532 1288.52 550.582 1285.74 Q551.155 1284.26 551.155 1283.44 Q551.155 1283.06 551.073 1282.82 Q550.991 1282.57 550.827 1282.49 Q550.68 1282.39 550.582 1282.38 Q550.483 1282.34 550.319 1282.34 Q549.303 1282.34 548.417 1283.38 Q547.532 1284.41 546.925 1286.51 Q546.794 1286.92 546.712 1287.02 Q546.63 1287.11 546.384 1287.11 Q545.974 1287.1 545.974 1286.77 Q545.974 1286.64 546.122 1286.13 Q546.269 1285.61 546.614 1284.84 Q546.974 1284.05 547.466 1283.34 Q547.958 1282.62 548.729 1282.11 Q549.516 1281.61 550.418 1281.61 Q551.647 1281.61 552.401 1282.41 Q553.172 1283.2 553.172 1284.36 Q553.172 1285.08 552.598 1286.48 Q550.778 1291.31 550.778 1293.33 Q550.778 1296.07 552.861 1296.07 Q553.549 1296.07 554.189 1295.79 Q554.844 1295.51 555.271 1295.12 Q555.697 1294.72 556.025 1294.3 Q556.369 1293.87 556.517 1293.59 Q556.681 1293.31 556.697 1293.25 L559.206 1283.15 Q559.304 1282.75 559.484 1282.49 Q559.681 1282.21 559.911 1282.11 Q560.14 1282.02 560.271 1282 Q560.403 1281.97 560.517 1281.97 Q560.927 1281.97 561.206 1282.21 Q561.501 1282.46 561.501 1282.88 Q561.501 1282.97 561.403 1283.36 Q561.321 1283.74 561.19 1284.29 Q561.058 1284.84 560.993 1285.13 Q560.468 1287.2 560.419 1287.41 L559.484 1291.03 Q559.435 1291.25 559.271 1291.93 Q559.124 1292.62 559.042 1292.98 Q558.96 1293.33 558.878 1293.8 Q558.812 1294.26 558.812 1294.53 Q558.812 1295.35 559.058 1295.71 Q559.304 1296.07 559.845 1296.07 Q560.353 1296.07 560.747 1295.72 Q561.157 1295.36 561.468 1294.67 Q561.78 1293.97 561.96 1293.39 Q562.141 1292.82 562.37 1291.92 Q562.452 1291.52 562.518 1291.43 Q562.6 1291.31 562.829 1291.31 Q563.239 1291.31 563.239 1291.64 Z" fill="#000000" fill-rule="nonzero" fill-opacity="1"></path><path clip-path="url(#clip580)" d="M574.896 1282.34 Q574.896 1282.8 574.682 1282.92 Q574.469 1283.02 573.879 1283.02 L570.731 1283.02 L568.239 1292.92 Q568.042 1293.79 568.042 1294.53 Q568.042 1295.35 568.288 1295.71 Q568.55 1296.07 569.092 1296.07 Q570.157 1296.07 571.305 1295.1 Q572.469 1294.13 573.453 1291.77 Q573.584 1291.46 573.65 1291.39 Q573.732 1291.31 573.945 1291.31 Q574.355 1291.31 574.355 1291.64 Q574.355 1291.75 574.125 1292.28 Q573.912 1292.8 573.436 1293.57 Q572.977 1294.34 572.371 1295.07 Q571.78 1295.79 570.879 1296.31 Q569.977 1296.82 569.01 1296.82 Q567.649 1296.82 566.78 1295.95 Q565.927 1295.08 565.927 1293.72 Q565.927 1293.28 566.271 1291.87 Q566.616 1290.44 568.485 1283.02 L565.517 1283.02 Q565.107 1283.02 564.943 1283 Q564.796 1282.98 564.681 1282.9 Q564.583 1282.8 564.583 1282.61 Q564.583 1282.29 564.714 1282.16 Q564.845 1282.02 565.009 1282 Q565.189 1281.97 565.599 1281.97 L568.747 1281.97 L570.059 1276.64 Q570.19 1276.11 570.518 1275.82 Q570.862 1275.51 571.059 1275.47 Q571.256 1275.42 571.403 1275.42 Q571.846 1275.42 572.108 1275.67 Q572.371 1275.9 572.371 1276.33 Q572.371 1276.56 570.993 1281.97 L573.945 1281.97 Q574.322 1281.97 574.469 1281.98 Q574.633 1282 574.764 1282.08 Q574.896 1282.16 574.896 1282.34 Z" fill="#000000" fill-rule="nonzero" fill-opacity="1"></path><circle clip-path="url(#clip580)" cx="397.307" cy="1325.48" r="23.04" fill="#e26f46" fill-rule="evenodd" fill-opacity="1" stroke="#000000" stroke-opacity="1" stroke-width="5.12"></circle>
<path clip-path="url(#clip580)" d="M525.742 1302.21 Q525.695 1303.08 525.11 1303.13 Q524.22 1303.18 523.681 1303.29 Q523.142 1303.39 522.299 1303.74 Q521.456 1304.09 520.636 1304.93 Q519.816 1305.77 518.973 1307.11 L501.711 1334.58 Q501.406 1335.1 501.148 1335.26 Q500.914 1335.45 500.376 1335.45 Q499.884 1335.45 499.696 1335.24 Q499.509 1335.05 499.415 1334.35 L495.621 1304.74 Q495.55 1304.21 495.48 1303.97 Q495.41 1303.74 495.129 1303.5 Q494.871 1303.27 494.309 1303.2 Q493.747 1303.13 492.74 1303.13 Q492.271 1303.13 492.061 1303.1 Q491.873 1303.08 491.709 1302.96 Q491.545 1302.82 491.545 1302.54 Q491.545 1302.12 491.709 1301.91 Q491.897 1301.68 492.037 1301.65 Q492.201 1301.63 492.459 1301.63 Q492.857 1301.63 493.724 1301.68 Q494.59 1301.72 495.035 1301.72 Q495.457 1301.72 496.347 1301.75 Q497.237 1301.77 497.682 1301.77 Q498.666 1301.77 500.657 1301.7 Q502.671 1301.63 503.631 1301.63 Q504.287 1301.63 504.287 1302.17 Q504.287 1302.82 504.006 1302.99 Q503.725 1303.13 503.093 1303.13 Q501.5 1303.13 500.633 1303.53 Q499.79 1303.92 499.79 1304.56 L503.046 1329.95 L517.778 1306.52 Q518.504 1305.42 518.504 1304.7 Q518.504 1303.29 516.279 1303.13 Q515.53 1303.13 515.53 1302.54 Q515.53 1302.12 515.717 1301.91 Q515.905 1301.68 516.045 1301.65 Q516.209 1301.63 516.443 1301.63 Q517.216 1301.63 518.786 1301.7 Q520.378 1301.77 521.175 1301.77 Q521.83 1301.77 523.166 1301.7 Q524.501 1301.63 525.11 1301.63 Q525.742 1301.63 525.742 1302.21 Z" fill="#000000" fill-rule="nonzero" fill-opacity="1"></path><path clip-path="url(#clip580)" d="M539.1 1327.65 Q539.1 1328.37 538.509 1328.91 Q537.935 1329.44 537.312 1329.44 Q536.739 1329.44 536.378 1329.09 Q536.034 1328.73 536.034 1328.22 Q536.034 1327.55 536.607 1326.99 Q537.181 1326.43 537.854 1326.43 Q538.411 1326.43 538.755 1326.78 Q539.1 1327.12 539.1 1327.65 M539.395 1343.83 Q539.395 1343.96 539.247 1344.49 Q539.1 1344.99 538.739 1345.78 Q538.395 1346.55 537.919 1347.27 Q537.444 1348 536.657 1348.5 Q535.886 1349.01 535.001 1349.01 Q533.804 1349.01 533.017 1348.22 Q532.246 1347.44 532.246 1346.26 Q532.246 1345.62 533.017 1343.57 Q535.247 1337.6 535.329 1337.35 Q535.706 1336.42 535.706 1335.6 Q535.706 1335.22 535.624 1334.99 Q535.542 1334.75 535.378 1334.67 Q535.214 1334.57 535.115 1334.55 Q535.033 1334.53 534.869 1334.53 Q533.902 1334.53 533 1335.52 Q532.099 1336.5 531.476 1338.7 Q531.344 1339.11 531.262 1339.21 Q531.18 1339.31 530.935 1339.31 Q530.525 1339.29 530.525 1338.96 Q530.525 1338.86 530.639 1338.49 Q530.754 1338.09 530.967 1337.5 Q531.18 1336.9 531.558 1336.27 Q531.935 1335.63 532.394 1335.08 Q532.869 1334.52 533.541 1334.16 Q534.214 1333.8 534.968 1333.8 Q536.198 1333.8 536.952 1334.6 Q537.722 1335.39 537.722 1336.55 Q537.722 1337.19 537.28 1338.32 Q536.739 1339.8 536.542 1340.27 L535.23 1343.8 Q534.755 1345.08 534.607 1345.47 Q534.476 1345.85 534.361 1346.31 Q534.263 1346.75 534.263 1347.16 Q534.263 1347.73 534.443 1348 Q534.64 1348.26 535.066 1348.26 Q536.247 1348.26 537.116 1347.09 Q537.985 1345.91 538.493 1344.11 Q538.509 1344.06 538.526 1343.98 Q538.657 1343.57 538.788 1343.52 Q538.854 1343.5 538.985 1343.5 Q539.395 1343.5 539.395 1343.83 Z" fill="#000000" fill-rule="nonzero" fill-opacity="1"></path><path clip-path="url(#clip580)" d="M560.455 1343.83 Q560.455 1343.96 560.307 1344.47 Q560.16 1344.98 559.799 1345.77 Q559.455 1346.55 558.979 1347.27 Q558.504 1347.98 557.717 1348.5 Q556.946 1349.01 556.061 1349.01 Q554.88 1349.01 554.093 1348.22 Q553.306 1347.44 553.306 1346.26 Q553.306 1345.6 553.651 1344.7 Q555.831 1338.88 555.831 1336.88 Q555.831 1334.53 554.011 1334.53 Q553.11 1334.53 552.257 1334.88 Q551.421 1335.21 550.847 1335.67 Q550.273 1336.12 549.748 1336.76 Q549.24 1337.39 548.978 1337.81 Q548.732 1338.22 548.535 1338.63 L548.109 1340.31 Q548.01 1340.76 547.535 1342.55 L546.797 1345.59 Q546.273 1347.85 546.158 1348.06 Q545.994 1348.52 545.633 1348.77 Q545.272 1349.01 544.912 1349.01 Q544.502 1349.01 544.223 1348.77 Q543.944 1348.52 543.944 1348.09 Q543.944 1348.03 543.994 1347.78 Q544.043 1347.54 544.125 1347.19 Q544.207 1346.85 544.239 1346.65 L546.191 1338.9 Q546.551 1337.49 546.633 1337.04 Q546.732 1336.58 546.732 1336.08 Q546.732 1334.53 545.682 1334.53 Q544.83 1334.53 544.272 1335.55 Q543.715 1336.57 543.239 1338.53 Q543.092 1339.08 542.993 1339.19 Q542.911 1339.31 542.665 1339.31 Q542.256 1339.29 542.256 1338.96 Q542.256 1338.88 542.387 1338.34 Q542.518 1337.8 542.764 1337.03 Q543.026 1336.24 543.272 1335.71 Q543.485 1335.32 543.6 1335.14 Q543.731 1334.94 544.043 1334.57 Q544.371 1334.17 544.797 1333.99 Q545.24 1333.8 545.781 1333.8 Q546.994 1333.8 547.879 1334.58 Q548.765 1335.35 548.879 1336.72 Q551.06 1333.8 554.11 1333.8 Q555.913 1333.8 556.946 1334.75 Q557.979 1335.7 557.979 1337.39 Q557.979 1337.78 557.897 1338.29 Q557.832 1338.78 557.668 1339.4 Q557.52 1340.03 557.389 1340.5 Q557.258 1340.98 556.995 1341.75 Q556.733 1342.5 556.618 1342.83 Q556.503 1343.16 556.225 1343.93 Q555.962 1344.68 555.93 1344.77 Q555.323 1346.29 555.323 1347.16 Q555.323 1347.73 555.503 1348 Q555.7 1348.26 556.126 1348.26 Q557.274 1348.26 558.127 1347.13 Q558.996 1345.98 559.553 1344.11 Q559.684 1343.7 559.75 1343.6 Q559.832 1343.5 560.061 1343.5 Q560.455 1343.5 560.455 1343.83 Z" fill="#000000" fill-rule="nonzero" fill-opacity="1"></path></svg>