<svg xmlns="http://www.w3.org/2000/svg" xmlns:xlink="http://www.w3.org/1999/xlink" width="600" height="400" viewBox="0 0 2400 1600">
<defs>
  <clipPath id="clip820">
    <rect x="0" y="0" width="2400" height="1600"></rect>
  </clipPath>
</defs>
<path clip-path="url(#clip820)" d="M0 1600 L2400 1600 L2400 0 L0 0  Z" fill="#ffffff" fill-rule="evenodd" fill-opacity="1"></path>
<defs>
  <clipPath id="clip821">
    <rect x="480" y="0" width="1681" height="1600"></rect>
  </clipPath>
</defs>
<path clip-path="url(#clip820)" d="M277.621 1423.18 L2352.76 1423.18 L2352.76 47.2441 L277.621 47.2441  Z" fill="#ffffff" fill-rule="evenodd" fill-opacity="1"></path>
<defs>
  <clipPath id="clip822">
    <rect x="277" y="47" width="2076" height="1377"></rect>
  </clipPath>
</defs>
<polyline clip-path="url(#clip822)" style="stroke:#000000; stroke-linecap:round; stroke-linejoin:round; stroke-width:2; stroke-opacity:0.1; fill:none" points="336.351,1423.18 336.351,47.2441 "></polyline>
<polyline clip-path="url(#clip822)" style="stroke:#000000; stroke-linecap:round; stroke-linejoin:round; stroke-width:2; stroke-opacity:0.1; fill:none" points="685.936,1423.18 685.936,47.2441 "></polyline>
<polyline clip-path="url(#clip822)" style="stroke:#000000; stroke-linecap:round; stroke-linejoin:round; stroke-width:2; stroke-opacity:0.1; fill:none" points="1035.52,1423.18 1035.52,47.2441 "></polyline>
<polyline clip-path="url(#clip822)" style="stroke:#000000; stroke-linecap:round; stroke-linejoin:round; stroke-width:2; stroke-opacity:0.1; fill:none" points="1385.11,1423.18 1385.11,47.2441 "></polyline>
<polyline clip-path="url(#clip822)" style="stroke:#000000; stroke-linecap:round; stroke-linejoin:round; stroke-width:2; stroke-opacity:0.1; fill:none" points="1734.69,1423.18 1734.69,47.2441 "></polyline>
<polyline clip-path="url(#clip822)" style="stroke:#000000; stroke-linecap:round; stroke-linejoin:round; stroke-width:2; stroke-opacity:0.1; fill:none" points="2084.27,1423.18 2084.27,47.2441 "></polyline>
<polyline clip-path="url(#clip820)" style="stroke:#000000; stroke-linecap:round; stroke-linejoin:round; stroke-width:4; stroke-opacity:1; fill:none" points="277.621,1423.18 2352.76,1423.18 "></polyline>
<polyline clip-path="url(#clip820)" style="stroke:#000000; stroke-linecap:round; stroke-linejoin:round; stroke-width:4; stroke-opacity:1; fill:none" points="336.351,1423.18 336.351,1404.28 "></polyline>
<polyline clip-path="url(#clip820)" style="stroke:#000000; stroke-linecap:round; stroke-linejoin:round; stroke-width:4; stroke-opacity:1; fill:none" points="685.936,1423.18 685.936,1404.28 "></polyline>
<polyline clip-path="url(#clip820)" style="stroke:#000000; stroke-linecap:round; stroke-linejoin:round; stroke-width:4; stroke-opacity:1; fill:none" points="1035.52,1423.18 1035.52,1404.28 "></polyline>
<polyline clip-path="url(#clip820)" style="stroke:#000000; stroke-linecap:round; stroke-linejoin:round; stroke-width:4; stroke-opacity:1; fill:none" points="1385.11,1423.18 1385.11,1404.28 "></polyline>
<polyline clip-path="url(#clip820)" style="stroke:#000000; stroke-linecap:round; stroke-linejoin:round; stroke-width:4; stroke-opacity:1; fill:none" points="1734.69,1423.18 1734.69,1404.28 "></polyline>
<polyline clip-path="url(#clip820)" style="stroke:#000000; stroke-linecap:round; stroke-linejoin:round; stroke-width:4; stroke-opacity:1; fill:none" points="2084.27,1423.18 2084.27,1404.28 "></polyline>
<path clip-path="url(#clip820)" d="M299.152 1454.1 Q295.541 1454.1 293.712 1457.66 Q291.907 1461.2 291.907 1468.33 Q291.907 1475.44 293.712 1479.01 Q295.541 1482.55 299.152 1482.55 Q302.786 1482.55 304.592 1479.01 Q306.42 1475.44 306.42 1468.33 Q306.42 1461.2 304.592 1457.66 Q302.786 1454.1 299.152 1454.1 M299.152 1450.39 Q304.962 1450.39 308.018 1455 Q311.096 1459.58 311.096 1468.33 Q311.096 1477.06 308.018 1481.67 Q304.962 1486.25 299.152 1486.25 Q293.342 1486.25 290.263 1481.67 Q287.208 1477.06 287.208 1468.33 Q287.208 1459.58 290.263 1455 Q293.342 1450.39 299.152 1450.39 Z" fill="#000000" fill-rule="nonzero" fill-opacity="1"></path><path clip-path="url(#clip820)" d="M319.314 1479.7 L324.198 1479.7 L324.198 1485.58 L319.314 1485.58 L319.314 1479.7 Z" fill="#000000" fill-rule="nonzero" fill-opacity="1"></path><path clip-path="url(#clip820)" d="M344.383 1454.1 Q340.772 1454.1 338.943 1457.66 Q337.138 1461.2 337.138 1468.33 Q337.138 1475.44 338.943 1479.01 Q340.772 1482.55 344.383 1482.55 Q348.017 1482.55 349.823 1479.01 Q351.652 1475.44 351.652 1468.33 Q351.652 1461.2 349.823 1457.66 Q348.017 1454.1 344.383 1454.1 M344.383 1450.39 Q350.193 1450.39 353.249 1455 Q356.328 1459.58 356.328 1468.33 Q356.328 1477.06 353.249 1481.67 Q350.193 1486.25 344.383 1486.25 Q338.573 1486.25 335.494 1481.67 Q332.439 1477.06 332.439 1468.33 Q332.439 1459.58 335.494 1455 Q338.573 1450.39 344.383 1450.39 Z" fill="#000000" fill-rule="nonzero" fill-opacity="1"></path><path clip-path="url(#clip820)" d="M364.591 1451.02 L382.948 1451.02 L382.948 1454.96 L368.874 1454.96 L368.874 1463.43 Q369.892 1463.08 370.911 1462.92 Q371.929 1462.73 372.948 1462.73 Q378.735 1462.73 382.114 1465.9 Q385.494 1469.08 385.494 1474.49 Q385.494 1480.07 382.022 1483.17 Q378.55 1486.25 372.23 1486.25 Q370.054 1486.25 367.786 1485.88 Q365.54 1485.51 363.133 1484.77 L363.133 1480.07 Q365.216 1481.2 367.439 1481.76 Q369.661 1482.32 372.138 1482.32 Q376.142 1482.32 378.48 1480.21 Q380.818 1478.1 380.818 1474.49 Q380.818 1470.88 378.48 1468.77 Q376.142 1466.67 372.138 1466.67 Q370.263 1466.67 368.388 1467.08 Q366.536 1467.5 364.591 1468.38 L364.591 1451.02 Z" fill="#000000" fill-rule="nonzero" fill-opacity="1"></path><path clip-path="url(#clip820)" d="M648.158 1454.1 Q644.547 1454.1 642.718 1457.66 Q640.913 1461.2 640.913 1468.33 Q640.913 1475.44 642.718 1479.01 Q644.547 1482.55 648.158 1482.55 Q651.792 1482.55 653.598 1479.01 Q655.427 1475.44 655.427 1468.33 Q655.427 1461.2 653.598 1457.66 Q651.792 1454.1 648.158 1454.1 M648.158 1450.39 Q653.968 1450.39 657.024 1455 Q660.102 1459.58 660.102 1468.33 Q660.102 1477.06 657.024 1481.67 Q653.968 1486.25 648.158 1486.25 Q642.348 1486.25 639.269 1481.67 Q636.214 1477.06 636.214 1468.33 Q636.214 1459.58 639.269 1455 Q642.348 1450.39 648.158 1450.39 Z" fill="#000000" fill-rule="nonzero" fill-opacity="1"></path><path clip-path="url(#clip820)" d="M668.32 1479.7 L673.204 1479.7 L673.204 1485.58 L668.32 1485.58 L668.32 1479.7 Z" fill="#000000" fill-rule="nonzero" fill-opacity="1"></path><path clip-path="url(#clip820)" d="M693.389 1454.1 Q689.778 1454.1 687.95 1457.66 Q686.144 1461.2 686.144 1468.33 Q686.144 1475.44 687.95 1479.01 Q689.778 1482.55 693.389 1482.55 Q697.024 1482.55 698.829 1479.01 Q700.658 1475.44 700.658 1468.33 Q700.658 1461.2 698.829 1457.66 Q697.024 1454.1 693.389 1454.1 M693.389 1450.39 Q699.199 1450.39 702.255 1455 Q705.334 1459.58 705.334 1468.33 Q705.334 1477.06 702.255 1481.67 Q699.199 1486.25 693.389 1486.25 Q687.579 1486.25 684.5 1481.67 Q681.445 1477.06 681.445 1468.33 Q681.445 1459.58 684.5 1455 Q687.579 1450.39 693.389 1450.39 Z" fill="#000000" fill-rule="nonzero" fill-opacity="1"></path><path clip-path="url(#clip820)" d="M724.13 1466.44 Q720.982 1466.44 719.13 1468.59 Q717.301 1470.74 717.301 1474.49 Q717.301 1478.22 719.13 1480.39 Q720.982 1482.55 724.13 1482.55 Q727.278 1482.55 729.107 1480.39 Q730.959 1478.22 730.959 1474.49 Q730.959 1470.74 729.107 1468.59 Q727.278 1466.44 724.13 1466.44 M733.412 1451.78 L733.412 1456.04 Q731.653 1455.21 729.847 1454.77 Q728.065 1454.33 726.306 1454.33 Q721.676 1454.33 719.222 1457.45 Q716.792 1460.58 716.445 1466.9 Q717.81 1464.89 719.871 1463.82 Q721.931 1462.73 724.408 1462.73 Q729.616 1462.73 732.625 1465.9 Q735.658 1469.05 735.658 1474.49 Q735.658 1479.82 732.509 1483.03 Q729.361 1486.25 724.13 1486.25 Q718.135 1486.25 714.963 1481.67 Q711.792 1477.06 711.792 1468.33 Q711.792 1460.14 715.681 1455.28 Q719.57 1450.39 726.121 1450.39 Q727.88 1450.39 729.662 1450.74 Q731.468 1451.09 733.412 1451.78 Z" fill="#000000" fill-rule="nonzero" fill-opacity="1"></path><path clip-path="url(#clip820)" d="M998.275 1454.1 Q994.664 1454.1 992.835 1457.66 Q991.03 1461.2 991.03 1468.33 Q991.03 1475.44 992.835 1479.01 Q994.664 1482.55 998.275 1482.55 Q1001.91 1482.55 1003.72 1479.01 Q1005.54 1475.44 1005.54 1468.33 Q1005.54 1461.2 1003.72 1457.66 Q1001.91 1454.1 998.275 1454.1 M998.275 1450.39 Q1004.09 1450.39 1007.14 1455 Q1010.22 1459.58 1010.22 1468.33 Q1010.22 1477.06 1007.14 1481.67 Q1004.09 1486.25 998.275 1486.25 Q992.465 1486.25 989.386 1481.67 Q986.331 1477.06 986.331 1468.33 Q986.331 1459.58 989.386 1455 Q992.465 1450.39 998.275 1450.39 Z" fill="#000000" fill-rule="nonzero" fill-opacity="1"></path><path clip-path="url(#clip820)" d="M1018.44 1479.7 L1023.32 1479.7 L1023.32 1485.58 L1018.44 1485.58 L1018.44 1479.7 Z" fill="#000000" fill-rule="nonzero" fill-opacity="1"></path><path clip-path="url(#clip820)" d="M1043.51 1454.1 Q1039.9 1454.1 1038.07 1457.66 Q1036.26 1461.2 1036.26 1468.33 Q1036.26 1475.44 1038.07 1479.01 Q1039.9 1482.55 1043.51 1482.55 Q1047.14 1482.55 1048.95 1479.01 Q1050.77 1475.44 1050.77 1468.33 Q1050.77 1461.2 1048.95 1457.66 Q1047.14 1454.1 1043.51 1454.1 M1043.51 1450.39 Q1049.32 1450.39 1052.37 1455 Q1055.45 1459.58 1055.45 1468.33 Q1055.45 1477.06 1052.37 1481.67 Q1049.32 1486.25 1043.51 1486.25 Q1037.7 1486.25 1034.62 1481.67 Q1031.56 1477.06 1031.56 1468.33 Q1031.56 1459.58 1034.62 1455 Q1037.7 1450.39 1043.51 1450.39 Z" fill="#000000" fill-rule="nonzero" fill-opacity="1"></path><path clip-path="url(#clip820)" d="M1062.49 1451.02 L1084.71 1451.02 L1084.71 1453.01 L1072.16 1485.58 L1067.28 1485.58 L1079.08 1454.96 L1062.49 1454.96 L1062.49 1451.02 Z" fill="#000000" fill-rule="nonzero" fill-opacity="1"></path><path clip-path="url(#clip820)" d="M1347.45 1454.1 Q1343.84 1454.1 1342.02 1457.66 Q1340.21 1461.2 1340.21 1468.33 Q1340.21 1475.44 1342.02 1479.01 Q1343.84 1482.55 1347.45 1482.55 Q1351.09 1482.55 1352.89 1479.01 Q1354.72 1475.44 1354.72 1468.33 Q1354.72 1461.2 1352.89 1457.66 Q1351.09 1454.1 1347.45 1454.1 M1347.45 1450.39 Q1353.27 1450.39 1356.32 1455 Q1359.4 1459.58 1359.4 1468.33 Q1359.4 1477.06 1356.32 1481.67 Q1353.27 1486.25 1347.45 1486.25 Q1341.64 1486.25 1338.57 1481.67 Q1335.51 1477.06 1335.51 1468.33 Q1335.51 1459.58 1338.57 1455 Q1341.64 1450.39 1347.45 1450.39 Z" fill="#000000" fill-rule="nonzero" fill-opacity="1"></path><path clip-path="url(#clip820)" d="M1367.62 1479.7 L1372.5 1479.7 L1372.5 1485.58 L1367.62 1485.58 L1367.62 1479.7 Z" fill="#000000" fill-rule="nonzero" fill-opacity="1"></path><path clip-path="url(#clip820)" d="M1392.69 1454.1 Q1389.08 1454.1 1387.25 1457.66 Q1385.44 1461.2 1385.44 1468.33 Q1385.44 1475.44 1387.25 1479.01 Q1389.08 1482.55 1392.69 1482.55 Q1396.32 1482.55 1398.13 1479.01 Q1399.95 1475.44 1399.95 1468.33 Q1399.95 1461.2 1398.13 1457.66 Q1396.32 1454.1 1392.69 1454.1 M1392.69 1450.39 Q1398.5 1450.39 1401.55 1455 Q1404.63 1459.58 1404.63 1468.33 Q1404.63 1477.06 1401.55 1481.67 Q1398.5 1486.25 1392.69 1486.25 Q1386.88 1486.25 1383.8 1481.67 Q1380.74 1477.06 1380.74 1468.33 Q1380.74 1459.58 1383.8 1455 Q1386.88 1450.39 1392.69 1450.39 Z" fill="#000000" fill-rule="nonzero" fill-opacity="1"></path><path clip-path="url(#clip820)" d="M1422.85 1469.17 Q1419.51 1469.17 1417.59 1470.95 Q1415.7 1472.73 1415.7 1475.86 Q1415.7 1478.98 1417.59 1480.77 Q1419.51 1482.55 1422.85 1482.55 Q1426.18 1482.55 1428.1 1480.77 Q1430.02 1478.96 1430.02 1475.86 Q1430.02 1472.73 1428.1 1470.95 Q1426.2 1469.17 1422.85 1469.17 M1418.17 1467.18 Q1415.16 1466.44 1413.47 1464.38 Q1411.81 1462.32 1411.81 1459.35 Q1411.81 1455.21 1414.75 1452.8 Q1417.71 1450.39 1422.85 1450.39 Q1428.01 1450.39 1430.95 1452.8 Q1433.89 1455.21 1433.89 1459.35 Q1433.89 1462.32 1432.2 1464.38 Q1430.53 1466.44 1427.55 1467.18 Q1430.93 1467.96 1432.8 1470.26 Q1434.7 1472.55 1434.7 1475.86 Q1434.7 1480.88 1431.62 1483.57 Q1428.57 1486.25 1422.85 1486.25 Q1417.13 1486.25 1414.05 1483.57 Q1411 1480.88 1411 1475.86 Q1411 1472.55 1412.89 1470.26 Q1414.79 1467.96 1418.17 1467.18 M1416.46 1459.79 Q1416.46 1462.48 1418.13 1463.98 Q1419.82 1465.49 1422.85 1465.49 Q1425.86 1465.49 1427.55 1463.98 Q1429.26 1462.48 1429.26 1459.79 Q1429.26 1457.11 1427.55 1455.6 Q1425.86 1454.1 1422.85 1454.1 Q1419.82 1454.1 1418.13 1455.6 Q1416.46 1457.11 1416.46 1459.79 Z" fill="#000000" fill-rule="nonzero" fill-opacity="1"></path><path clip-path="url(#clip820)" d="M1697.09 1454.1 Q1693.47 1454.1 1691.65 1457.66 Q1689.84 1461.2 1689.84 1468.33 Q1689.84 1475.44 1691.65 1479.01 Q1693.47 1482.55 1697.09 1482.55 Q1700.72 1482.55 1702.53 1479.01 Q1704.35 1475.44 1704.35 1468.33 Q1704.35 1461.2 1702.53 1457.66 Q1700.72 1454.1 1697.09 1454.1 M1697.09 1450.39 Q1702.9 1450.39 1705.95 1455 Q1709.03 1459.58 1709.03 1468.33 Q1709.03 1477.06 1705.95 1481.67 Q1702.9 1486.25 1697.09 1486.25 Q1691.28 1486.25 1688.2 1481.67 Q1685.14 1477.06 1685.14 1468.33 Q1685.14 1459.58 1688.2 1455 Q1691.28 1450.39 1697.09 1450.39 Z" fill="#000000" fill-rule="nonzero" fill-opacity="1"></path><path clip-path="url(#clip820)" d="M1717.25 1479.7 L1722.13 1479.7 L1722.13 1485.58 L1717.25 1485.58 L1717.25 1479.7 Z" fill="#000000" fill-rule="nonzero" fill-opacity="1"></path><path clip-path="url(#clip820)" d="M1742.32 1454.1 Q1738.71 1454.1 1736.88 1457.66 Q1735.07 1461.2 1735.07 1468.33 Q1735.07 1475.44 1736.88 1479.01 Q1738.71 1482.55 1742.32 1482.55 Q1745.95 1482.55 1747.76 1479.01 Q1749.59 1475.44 1749.59 1468.33 Q1749.59 1461.2 1747.76 1457.66 Q1745.95 1454.1 1742.32 1454.1 M1742.32 1450.39 Q1748.13 1450.39 1751.18 1455 Q1754.26 1459.58 1754.26 1468.33 Q1754.26 1477.06 1751.18 1481.67 Q1748.13 1486.25 1742.32 1486.25 Q1736.51 1486.25 1733.43 1481.67 Q1730.37 1477.06 1730.37 1468.33 Q1730.37 1459.58 1733.43 1455 Q1736.51 1450.39 1742.32 1450.39 Z" fill="#000000" fill-rule="nonzero" fill-opacity="1"></path><path clip-path="url(#clip820)" d="M1762.62 1484.86 L1762.62 1480.6 Q1764.38 1481.44 1766.18 1481.88 Q1767.99 1482.32 1769.72 1482.32 Q1774.35 1482.32 1776.78 1479.21 Q1779.24 1476.09 1779.59 1469.75 Q1778.24 1471.74 1776.18 1472.8 Q1774.12 1473.87 1771.62 1473.87 Q1766.44 1473.87 1763.41 1470.74 Q1760.4 1467.59 1760.4 1462.15 Q1760.4 1456.83 1763.54 1453.61 Q1766.69 1450.39 1771.92 1450.39 Q1777.92 1450.39 1781.07 1455 Q1784.24 1459.58 1784.24 1468.33 Q1784.24 1476.51 1780.35 1481.39 Q1776.48 1486.25 1769.93 1486.25 Q1768.17 1486.25 1766.37 1485.9 Q1764.56 1485.56 1762.62 1484.86 M1771.92 1470.21 Q1775.07 1470.21 1776.9 1468.06 Q1778.75 1465.9 1778.75 1462.15 Q1778.75 1458.43 1776.9 1456.27 Q1775.07 1454.1 1771.92 1454.1 Q1768.78 1454.1 1766.92 1456.27 Q1765.09 1458.43 1765.09 1462.15 Q1765.09 1465.9 1766.92 1468.06 Q1768.78 1470.21 1771.92 1470.21 Z" fill="#000000" fill-rule="nonzero" fill-opacity="1"></path><path clip-path="url(#clip820)" d="M2046.58 1454.1 Q2042.97 1454.1 2041.14 1457.66 Q2039.33 1461.2 2039.33 1468.33 Q2039.33 1475.44 2041.14 1479.01 Q2042.97 1482.55 2046.58 1482.55 Q2050.21 1482.55 2052.02 1479.01 Q2053.85 1475.44 2053.85 1468.33 Q2053.85 1461.2 2052.02 1457.66 Q2050.21 1454.1 2046.58 1454.1 M2046.58 1450.39 Q2052.39 1450.39 2055.44 1455 Q2058.52 1459.58 2058.52 1468.33 Q2058.52 1477.06 2055.44 1481.67 Q2052.39 1486.25 2046.58 1486.25 Q2040.77 1486.25 2037.69 1481.67 Q2034.63 1477.06 2034.63 1468.33 Q2034.63 1459.58 2037.69 1455 Q2040.77 1450.39 2046.58 1450.39 Z" fill="#000000" fill-rule="nonzero" fill-opacity="1"></path><path clip-path="url(#clip820)" d="M2066.74 1479.7 L2071.62 1479.7 L2071.62 1485.58 L2066.74 1485.58 L2066.74 1479.7 Z" fill="#000000" fill-rule="nonzero" fill-opacity="1"></path><path clip-path="url(#clip820)" d="M2082.62 1481.64 L2090.26 1481.64 L2090.26 1455.28 L2081.95 1456.95 L2081.95 1452.69 L2090.21 1451.02 L2094.89 1451.02 L2094.89 1481.64 L2102.53 1481.64 L2102.53 1485.58 L2082.62 1485.58 L2082.62 1481.64 Z" fill="#000000" fill-rule="nonzero" fill-opacity="1"></path><path clip-path="url(#clip820)" d="M2121.97 1454.1 Q2118.36 1454.1 2116.53 1457.66 Q2114.73 1461.2 2114.73 1468.33 Q2114.73 1475.44 2116.53 1479.01 Q2118.36 1482.55 2121.97 1482.55 Q2125.61 1482.55 2127.41 1479.01 Q2129.24 1475.44 2129.24 1468.33 Q2129.24 1461.2 2127.41 1457.66 Q2125.61 1454.1 2121.97 1454.1 M2121.97 1450.39 Q2127.78 1450.39 2130.84 1455 Q2133.92 1459.58 2133.92 1468.33 Q2133.92 1477.06 2130.84 1481.67 Q2127.78 1486.25 2121.97 1486.25 Q2116.16 1486.25 2113.08 1481.67 Q2110.03 1477.06 2110.03 1468.33 Q2110.03 1459.58 2113.08 1455 Q2116.16 1450.39 2121.97 1450.39 Z" fill="#000000" fill-rule="nonzero" fill-opacity="1"></path><path clip-path="url(#clip820)" d="M962.719 1520.52 L972.299 1520.52 L984.426 1552.86 L996.616 1520.52 L1006.2 1520.52 L1006.2 1568.04 L999.927 1568.04 L999.927 1526.32 L987.673 1558.91 L981.211 1558.91 L968.957 1526.32 L968.957 1568.04 L962.719 1568.04 L962.719 1520.52 Z" fill="#000000" fill-rule="nonzero" fill-opacity="1"></path><path clip-path="url(#clip820)" d="M1018.71 1532.4 L1024.56 1532.4 L1024.56 1568.04 L1018.71 1568.04 L1018.71 1532.4 M1018.71 1518.52 L1024.56 1518.52 L1024.56 1525.93 L1018.71 1525.93 L1018.71 1518.52 Z" fill="#000000" fill-rule="nonzero" fill-opacity="1"></path><path clip-path="url(#clip820)" d="M1066.45 1532.4 L1053.56 1549.74 L1067.12 1568.04 L1060.21 1568.04 L1049.83 1554.04 L1039.46 1568.04 L1032.55 1568.04 L1046.4 1549.39 L1033.73 1532.4 L1040.64 1532.4 L1050.09 1545.1 L1059.54 1532.4 L1066.45 1532.4 Z" fill="#000000" fill-rule="nonzero" fill-opacity="1"></path><path clip-path="url(#clip820)" d="M1075.39 1532.4 L1081.25 1532.4 L1081.25 1568.04 L1075.39 1568.04 L1075.39 1532.4 M1075.39 1518.52 L1081.25 1518.52 L1081.25 1525.93 L1075.39 1525.93 L1075.39 1518.52 Z" fill="#000000" fill-rule="nonzero" fill-opacity="1"></path><path clip-path="url(#clip820)" d="M1123.13 1546.53 L1123.13 1568.04 L1117.28 1568.04 L1117.28 1546.72 Q1117.28 1541.66 1115.31 1539.14 Q1113.33 1536.63 1109.38 1536.63 Q1104.64 1536.63 1101.91 1539.65 Q1099.17 1542.68 1099.17 1547.9 L1099.17 1568.04 L1093.28 1568.04 L1093.28 1532.4 L1099.17 1532.4 L1099.17 1537.93 Q1101.27 1534.72 1104.1 1533.13 Q1106.97 1531.54 1110.69 1531.54 Q1116.83 1531.54 1119.98 1535.36 Q1123.13 1539.14 1123.13 1546.53 Z" fill="#000000" fill-rule="nonzero" fill-opacity="1"></path><path clip-path="url(#clip820)" d="M1158.27 1549.81 Q1158.27 1543.44 1155.63 1539.94 Q1153.02 1536.44 1148.28 1536.44 Q1143.57 1536.44 1140.93 1539.94 Q1138.32 1543.44 1138.32 1549.81 Q1138.32 1556.14 1140.93 1559.64 Q1143.57 1563.14 1148.28 1563.14 Q1153.02 1563.14 1155.63 1559.64 Q1158.27 1556.14 1158.27 1549.81 M1164.13 1563.62 Q1164.13 1572.72 1160.09 1577.15 Q1156.05 1581.6 1147.71 1581.6 Q1144.62 1581.6 1141.88 1581.13 Q1139.14 1580.68 1136.57 1579.72 L1136.57 1574.03 Q1139.14 1575.43 1141.66 1576.1 Q1144.17 1576.76 1146.78 1576.76 Q1152.54 1576.76 1155.41 1573.74 Q1158.27 1570.75 1158.27 1564.67 L1158.27 1561.77 Q1156.46 1564.92 1153.63 1566.48 Q1150.79 1568.04 1146.85 1568.04 Q1140.29 1568.04 1136.28 1563.05 Q1132.27 1558.05 1132.27 1549.81 Q1132.27 1541.53 1136.28 1536.53 Q1140.29 1531.54 1146.85 1531.54 Q1150.79 1531.54 1153.63 1533.1 Q1156.46 1534.66 1158.27 1537.81 L1158.27 1532.4 L1164.13 1532.4 L1164.13 1563.62 Z" fill="#000000" fill-rule="nonzero" fill-opacity="1"></path><path clip-path="url(#clip820)" d="M1203.6 1525.81 L1203.6 1543.66 L1211.68 1543.66 Q1216.17 1543.66 1218.62 1541.34 Q1221.07 1539.02 1221.07 1534.72 Q1221.07 1530.45 1218.62 1528.13 Q1216.17 1525.81 1211.68 1525.81 L1203.6 1525.81 M1197.17 1520.52 L1211.68 1520.52 Q1219.67 1520.52 1223.74 1524.15 Q1227.85 1527.75 1227.85 1534.72 Q1227.85 1541.75 1223.74 1545.35 Q1219.67 1548.95 1211.68 1548.95 L1203.6 1548.95 L1203.6 1568.04 L1197.17 1568.04 L1197.17 1520.52 Z" fill="#000000" fill-rule="nonzero" fill-opacity="1"></path><path clip-path="url(#clip820)" d="M1255.73 1537.87 Q1254.75 1537.3 1253.57 1537.04 Q1252.42 1536.76 1251.02 1536.76 Q1246.06 1536.76 1243.38 1540 Q1240.74 1543.22 1240.74 1549.27 L1240.74 1568.04 L1234.85 1568.04 L1234.85 1532.4 L1240.74 1532.4 L1240.74 1537.93 Q1242.59 1534.69 1245.55 1533.13 Q1248.51 1531.54 1252.74 1531.54 Q1253.35 1531.54 1254.08 1531.63 Q1254.81 1531.7 1255.7 1531.85 L1255.73 1537.87 Z" fill="#000000" fill-rule="nonzero" fill-opacity="1"></path><path clip-path="url(#clip820)" d="M1290.93 1548.76 L1290.93 1551.62 L1264.01 1551.62 Q1264.39 1557.67 1267.64 1560.85 Q1270.91 1564 1276.74 1564 Q1280.11 1564 1283.26 1563.17 Q1286.45 1562.35 1289.57 1560.69 L1289.57 1566.23 Q1286.42 1567.57 1283.11 1568.27 Q1279.79 1568.97 1276.39 1568.97 Q1267.86 1568.97 1262.86 1564 Q1257.9 1559.04 1257.9 1550.57 Q1257.9 1541.82 1262.61 1536.69 Q1267.35 1531.54 1275.37 1531.54 Q1282.56 1531.54 1286.73 1536.18 Q1290.93 1540.8 1290.93 1548.76 M1285.08 1547.04 Q1285.01 1542.23 1282.37 1539.37 Q1279.76 1536.5 1275.43 1536.5 Q1270.53 1536.5 1267.57 1539.27 Q1264.64 1542.04 1264.2 1547.07 L1285.08 1547.04 Z" fill="#000000" fill-rule="nonzero" fill-opacity="1"></path><path clip-path="url(#clip820)" d="M1323.27 1533.45 L1323.27 1538.98 Q1320.79 1537.71 1318.12 1537.07 Q1315.44 1536.44 1312.58 1536.44 Q1308.22 1536.44 1306.02 1537.77 Q1303.86 1539.11 1303.86 1541.79 Q1303.86 1543.82 1305.42 1545 Q1306.98 1546.15 1311.69 1547.2 L1313.69 1547.64 Q1319.93 1548.98 1322.54 1551.43 Q1325.18 1553.85 1325.18 1558.21 Q1325.18 1563.17 1321.24 1566.07 Q1317.32 1568.97 1310.45 1568.97 Q1307.58 1568.97 1304.46 1568.39 Q1301.37 1567.85 1297.94 1566.74 L1297.94 1560.69 Q1301.18 1562.38 1304.33 1563.24 Q1307.49 1564.07 1310.57 1564.07 Q1314.71 1564.07 1316.94 1562.66 Q1319.17 1561.23 1319.17 1558.65 Q1319.17 1556.27 1317.54 1554.99 Q1315.95 1553.72 1310.51 1552.54 L1308.47 1552.07 Q1303.03 1550.92 1300.61 1548.56 Q1298.19 1546.18 1298.19 1542.04 Q1298.19 1537.01 1301.76 1534.27 Q1305.32 1531.54 1311.88 1531.54 Q1315.12 1531.54 1317.99 1532.01 Q1320.85 1532.49 1323.27 1533.45 Z" fill="#000000" fill-rule="nonzero" fill-opacity="1"></path><path clip-path="url(#clip820)" d="M1357.23 1533.45 L1357.23 1538.98 Q1354.75 1537.71 1352.08 1537.07 Q1349.4 1536.44 1346.54 1536.44 Q1342.18 1536.44 1339.98 1537.77 Q1337.82 1539.11 1337.82 1541.79 Q1337.82 1543.82 1339.38 1545 Q1340.94 1546.15 1345.65 1547.2 L1347.65 1547.64 Q1353.89 1548.98 1356.5 1551.43 Q1359.14 1553.85 1359.14 1558.21 Q1359.14 1563.17 1355.2 1566.07 Q1351.28 1568.97 1344.41 1568.97 Q1341.54 1568.97 1338.42 1568.39 Q1335.34 1567.85 1331.9 1566.74 L1331.9 1560.69 Q1335.14 1562.38 1338.3 1563.24 Q1341.45 1564.07 1344.53 1564.07 Q1348.67 1564.07 1350.9 1562.66 Q1353.13 1561.23 1353.13 1558.65 Q1353.13 1556.27 1351.5 1554.99 Q1349.91 1553.72 1344.47 1552.54 L1342.43 1552.07 Q1336.99 1550.92 1334.57 1548.56 Q1332.15 1546.18 1332.15 1542.04 Q1332.15 1537.01 1335.72 1534.27 Q1339.28 1531.54 1345.84 1531.54 Q1349.09 1531.54 1351.95 1532.01 Q1354.81 1532.49 1357.23 1533.45 Z" fill="#000000" fill-rule="nonzero" fill-opacity="1"></path><path clip-path="url(#clip820)" d="M1367.86 1553.98 L1367.86 1532.4 L1373.72 1532.4 L1373.72 1553.75 Q1373.72 1558.81 1375.69 1561.36 Q1377.67 1563.87 1381.61 1563.87 Q1386.36 1563.87 1389.09 1560.85 Q1391.86 1557.83 1391.86 1552.61 L1391.86 1532.4 L1397.72 1532.4 L1397.72 1568.04 L1391.86 1568.04 L1391.86 1562.57 Q1389.73 1565.82 1386.9 1567.41 Q1384.1 1568.97 1380.37 1568.97 Q1374.23 1568.97 1371.05 1565.15 Q1367.86 1561.33 1367.86 1553.98 M1382.6 1531.54 L1382.6 1531.54 Z" fill="#000000" fill-rule="nonzero" fill-opacity="1"></path><path clip-path="url(#clip820)" d="M1430.44 1537.87 Q1429.45 1537.3 1428.28 1537.04 Q1427.13 1536.76 1425.73 1536.76 Q1420.76 1536.76 1418.09 1540 Q1415.45 1543.22 1415.45 1549.27 L1415.45 1568.04 L1409.56 1568.04 L1409.56 1532.4 L1415.45 1532.4 L1415.45 1537.93 Q1417.29 1534.69 1420.25 1533.13 Q1423.21 1531.54 1427.45 1531.54 Q1428.05 1531.54 1428.78 1531.63 Q1429.52 1531.7 1430.41 1531.85 L1430.44 1537.87 Z" fill="#000000" fill-rule="nonzero" fill-opacity="1"></path><path clip-path="url(#clip820)" d="M1465.64 1548.76 L1465.64 1551.62 L1438.71 1551.62 Q1439.1 1557.67 1442.34 1560.85 Q1445.62 1564 1451.45 1564 Q1454.82 1564 1457.97 1563.17 Q1461.15 1562.35 1464.27 1560.69 L1464.27 1566.23 Q1461.12 1567.57 1457.81 1568.27 Q1454.5 1568.97 1451.1 1568.97 Q1442.57 1568.97 1437.57 1564 Q1432.6 1559.04 1432.6 1550.57 Q1432.6 1541.82 1437.31 1536.69 Q1442.06 1531.54 1450.08 1531.54 Q1457.27 1531.54 1461.44 1536.18 Q1465.64 1540.8 1465.64 1548.76 M1459.79 1547.04 Q1459.72 1542.23 1457.08 1539.37 Q1454.47 1536.5 1450.14 1536.5 Q1445.24 1536.5 1442.28 1539.27 Q1439.35 1542.04 1438.91 1547.07 L1459.79 1547.04 Z" fill="#000000" fill-rule="nonzero" fill-opacity="1"></path><path clip-path="url(#clip820)" d="M1495.43 1518.52 L1508.93 1518.52 L1508.93 1523.07 L1501.29 1523.07 L1501.29 1572.09 L1508.93 1572.09 L1508.93 1576.64 L1495.43 1576.64 L1495.43 1518.52 Z" fill="#000000" fill-rule="nonzero" fill-opacity="1"></path><path clip-path="url(#clip820)" d="M1521.66 1520.52 L1531.24 1520.52 L1543.37 1552.86 L1555.56 1520.52 L1565.14 1520.52 L1565.14 1568.04 L1558.87 1568.04 L1558.87 1526.32 L1546.61 1558.91 L1540.15 1558.91 L1527.9 1526.32 L1527.9 1568.04 L1521.66 1568.04 L1521.66 1520.52 Z" fill="#000000" fill-rule="nonzero" fill-opacity="1"></path><path clip-path="url(#clip820)" d="M1584.33 1525.81 L1584.33 1543.66 L1592.41 1543.66 Q1596.9 1543.66 1599.35 1541.34 Q1601.8 1539.02 1601.8 1534.72 Q1601.8 1530.45 1599.35 1528.13 Q1596.9 1525.81 1592.41 1525.81 L1584.33 1525.81 M1577.9 1520.52 L1592.41 1520.52 Q1600.4 1520.52 1604.48 1524.15 Q1608.58 1527.75 1608.58 1534.72 Q1608.58 1541.75 1604.48 1545.35 Q1600.4 1548.95 1592.41 1548.95 L1584.33 1548.95 L1584.33 1568.04 L1577.9 1568.04 L1577.9 1520.52 Z" fill="#000000" fill-rule="nonzero" fill-opacity="1"></path><path clip-path="url(#clip820)" d="M1630.23 1550.12 Q1623.13 1550.12 1620.39 1551.75 Q1617.65 1553.37 1617.65 1557.29 Q1617.65 1560.4 1619.69 1562.25 Q1621.76 1564.07 1625.29 1564.07 Q1630.16 1564.07 1633.09 1560.63 Q1636.05 1557.16 1636.05 1551.43 L1636.05 1550.12 L1630.23 1550.12 M1641.91 1547.71 L1641.91 1568.04 L1636.05 1568.04 L1636.05 1562.63 Q1634.05 1565.88 1631.05 1567.44 Q1628.06 1568.97 1623.73 1568.97 Q1618.26 1568.97 1615.01 1565.91 Q1611.8 1562.82 1611.8 1557.67 Q1611.8 1551.65 1615.81 1548.6 Q1619.85 1545.54 1627.84 1545.54 L1636.05 1545.54 L1636.05 1544.97 Q1636.05 1540.93 1633.38 1538.73 Q1630.74 1536.5 1625.93 1536.5 Q1622.87 1536.5 1619.98 1537.23 Q1617.08 1537.97 1614.41 1539.43 L1614.41 1534.02 Q1617.62 1532.78 1620.65 1532.17 Q1623.67 1531.54 1626.53 1531.54 Q1634.27 1531.54 1638.09 1535.55 Q1641.91 1539.56 1641.91 1547.71 Z" fill="#000000" fill-rule="nonzero" fill-opacity="1"></path><path clip-path="url(#clip820)" d="M1667.66 1518.52 L1667.66 1576.64 L1654.16 1576.64 L1654.16 1572.09 L1661.77 1572.09 L1661.77 1523.07 L1654.16 1523.07 L1654.16 1518.52 L1667.66 1518.52 Z" fill="#000000" fill-rule="nonzero" fill-opacity="1"></path><polyline clip-path="url(#clip822)" style="stroke:#000000; stroke-linecap:round; stroke-linejoin:round; stroke-width:2; stroke-opacity:0.1; fill:none" points="277.621,1241.36 2352.76,1241.36 "></polyline>
<polyline clip-path="url(#clip822)" style="stroke:#000000; stroke-linecap:round; stroke-linejoin:round; stroke-width:2; stroke-opacity:0.1; fill:none" points="277.621,958.69 2352.76,958.69 "></polyline>
<polyline clip-path="url(#clip822)" style="stroke:#000000; stroke-linecap:round; stroke-linejoin:round; stroke-width:2; stroke-opacity:0.1; fill:none" points="277.621,676.022 2352.76,676.022 "></polyline>
<polyline clip-path="url(#clip822)" style="stroke:#000000; stroke-linecap:round; stroke-linejoin:round; stroke-width:2; stroke-opacity:0.1; fill:none" points="277.621,393.354 2352.76,393.354 "></polyline>
<polyline clip-path="url(#clip822)" style="stroke:#000000; stroke-linecap:round; stroke-linejoin:round; stroke-width:2; stroke-opacity:0.1; fill:none" points="277.621,110.686 2352.76,110.686 "></polyline>
<polyline clip-path="url(#clip820)" style="stroke:#000000; stroke-linecap:round; stroke-linejoin:round; stroke-width:4; stroke-opacity:1; fill:none" points="277.621,1423.18 277.621,47.2441 "></polyline>
<polyline clip-path="url(#clip820)" style="stroke:#000000; stroke-linecap:round; stroke-linejoin:round; stroke-width:4; stroke-opacity:1; fill:none" points="277.621,1241.36 296.518,1241.36 "></polyline>
<polyline clip-path="url(#clip820)" style="stroke:#000000; stroke-linecap:round; stroke-linejoin:round; stroke-width:4; stroke-opacity:1; fill:none" points="277.621,958.69 296.518,958.69 "></polyline>
<polyline clip-path="url(#clip820)" style="stroke:#000000; stroke-linecap:round; stroke-linejoin:round; stroke-width:4; stroke-opacity:1; fill:none" points="277.621,676.022 296.518,676.022 "></polyline>
<polyline clip-path="url(#clip820)" style="stroke:#000000; stroke-linecap:round; stroke-linejoin:round; stroke-width:4; stroke-opacity:1; fill:none" points="277.621,393.354 296.518,393.354 "></polyline>
<polyline clip-path="url(#clip820)" style="stroke:#000000; stroke-linecap:round; stroke-linejoin:round; stroke-width:4; stroke-opacity:1; fill:none" points="277.621,110.686 296.518,110.686 "></polyline>
<path clip-path="url(#clip820)" d="M114.931 1254.7 L122.57 1254.7 L122.57 1228.34 L114.26 1230 L114.26 1225.74 L122.524 1224.08 L127.2 1224.08 L127.2 1254.7 L134.839 1254.7 L134.839 1258.64 L114.931 1258.64 L114.931 1254.7 Z" fill="#000000" fill-rule="nonzero" fill-opacity="1"></path><path clip-path="url(#clip820)" d="M158.45 1240 Q161.806 1240.72 163.681 1242.99 Q165.579 1245.26 165.579 1248.59 Q165.579 1253.71 162.061 1256.51 Q158.542 1259.31 152.061 1259.31 Q149.885 1259.31 147.57 1258.87 Q145.279 1258.45 142.825 1257.6 L142.825 1253.08 Q144.769 1254.22 147.084 1254.8 Q149.399 1255.37 151.922 1255.37 Q156.32 1255.37 158.612 1253.64 Q160.927 1251.9 160.927 1248.59 Q160.927 1245.54 158.774 1243.82 Q156.644 1242.09 152.825 1242.09 L148.797 1242.09 L148.797 1238.24 L153.01 1238.24 Q156.459 1238.24 158.288 1236.88 Q160.116 1235.49 160.116 1232.9 Q160.116 1230.24 158.218 1228.82 Q156.343 1227.39 152.825 1227.39 Q150.903 1227.39 148.704 1227.8 Q146.505 1228.22 143.866 1229.1 L143.866 1224.93 Q146.529 1224.19 148.843 1223.82 Q151.181 1223.45 153.241 1223.45 Q158.565 1223.45 161.667 1225.88 Q164.769 1228.29 164.769 1232.41 Q164.769 1235.28 163.126 1237.27 Q161.482 1239.24 158.45 1240 Z" fill="#000000" fill-rule="nonzero" fill-opacity="1"></path><path clip-path="url(#clip820)" d="M174.491 1224.08 L192.848 1224.08 L192.848 1228.01 L178.774 1228.01 L178.774 1236.49 Q179.792 1236.14 180.811 1235.98 Q181.829 1235.79 182.848 1235.79 Q188.635 1235.79 192.014 1238.96 Q195.394 1242.13 195.394 1247.55 Q195.394 1253.13 191.922 1256.23 Q188.45 1259.31 182.13 1259.31 Q179.954 1259.31 177.686 1258.94 Q175.44 1258.57 173.033 1257.83 L173.033 1253.13 Q175.116 1254.26 177.339 1254.82 Q179.561 1255.37 182.038 1255.37 Q186.042 1255.37 188.38 1253.27 Q190.718 1251.16 190.718 1247.55 Q190.718 1243.94 188.38 1241.83 Q186.042 1239.73 182.038 1239.73 Q180.163 1239.73 178.288 1240.14 Q176.436 1240.56 174.491 1241.44 L174.491 1224.08 Z" fill="#000000" fill-rule="nonzero" fill-opacity="1"></path><path clip-path="url(#clip820)" d="M204.607 1252.76 L209.491 1252.76 L209.491 1258.64 L204.607 1258.64 L204.607 1252.76 Z" fill="#000000" fill-rule="nonzero" fill-opacity="1"></path><path clip-path="url(#clip820)" d="M229.676 1227.16 Q226.065 1227.16 224.236 1230.72 Q222.431 1234.26 222.431 1241.39 Q222.431 1248.5 224.236 1252.06 Q226.065 1255.61 229.676 1255.61 Q233.31 1255.61 235.116 1252.06 Q236.945 1248.5 236.945 1241.39 Q236.945 1234.26 235.116 1230.72 Q233.31 1227.16 229.676 1227.16 M229.676 1223.45 Q235.486 1223.45 238.542 1228.06 Q241.621 1232.64 241.621 1241.39 Q241.621 1250.12 238.542 1254.73 Q235.486 1259.31 229.676 1259.31 Q223.866 1259.31 220.787 1254.73 Q217.732 1250.12 217.732 1241.39 Q217.732 1232.64 220.787 1228.06 Q223.866 1223.45 229.676 1223.45 Z" fill="#000000" fill-rule="nonzero" fill-opacity="1"></path><path clip-path="url(#clip820)" d="M115.927 972.035 L123.566 972.035 L123.566 945.669 L115.256 947.336 L115.256 943.077 L123.519 941.41 L128.195 941.41 L128.195 972.035 L135.834 972.035 L135.834 975.97 L115.927 975.97 L115.927 972.035 Z" fill="#000000" fill-rule="nonzero" fill-opacity="1"></path><path clip-path="url(#clip820)" d="M159.445 957.336 Q162.802 958.053 164.677 960.322 Q166.575 962.59 166.575 965.924 Q166.575 971.039 163.056 973.84 Q159.538 976.641 153.056 976.641 Q150.88 976.641 148.566 976.201 Q146.274 975.785 143.82 974.928 L143.82 970.414 Q145.765 971.549 148.079 972.127 Q150.394 972.706 152.917 972.706 Q157.315 972.706 159.607 970.97 Q161.922 969.234 161.922 965.924 Q161.922 962.868 159.769 961.155 Q157.64 959.419 153.82 959.419 L149.792 959.419 L149.792 955.576 L154.005 955.576 Q157.454 955.576 159.283 954.211 Q161.112 952.822 161.112 950.229 Q161.112 947.567 159.214 946.155 Q157.339 944.72 153.82 944.72 Q151.899 944.72 149.7 945.137 Q147.501 945.553 144.862 946.433 L144.862 942.266 Q147.524 941.526 149.839 941.155 Q152.177 940.785 154.237 940.785 Q159.561 940.785 162.663 943.215 Q165.765 945.623 165.765 949.743 Q165.765 952.614 164.121 954.604 Q162.477 956.572 159.445 957.336 Z" fill="#000000" fill-rule="nonzero" fill-opacity="1"></path><path clip-path="url(#clip820)" d="M174.26 941.41 L196.482 941.41 L196.482 943.401 L183.936 975.97 L179.051 975.97 L190.857 945.345 L174.26 945.345 L174.26 941.41 Z" fill="#000000" fill-rule="nonzero" fill-opacity="1"></path><path clip-path="url(#clip820)" d="M205.602 970.09 L210.486 970.09 L210.486 975.97 L205.602 975.97 L205.602 970.09 Z" fill="#000000" fill-rule="nonzero" fill-opacity="1"></path><path clip-path="url(#clip820)" d="M220.718 941.41 L239.074 941.41 L239.074 945.345 L225 945.345 L225 953.817 Q226.019 953.47 227.037 953.308 Q228.056 953.123 229.074 953.123 Q234.861 953.123 238.241 956.294 Q241.621 959.465 241.621 964.882 Q241.621 970.461 238.148 973.562 Q234.676 976.641 228.357 976.641 Q226.181 976.641 223.912 976.271 Q221.667 975.9 219.26 975.16 L219.26 970.461 Q221.343 971.595 223.565 972.15 Q225.787 972.706 228.264 972.706 Q232.269 972.706 234.607 970.6 Q236.945 968.493 236.945 964.882 Q236.945 961.271 234.607 959.164 Q232.269 957.058 228.264 957.058 Q226.389 957.058 224.514 957.475 Q222.662 957.891 220.718 958.771 L220.718 941.41 Z" fill="#000000" fill-rule="nonzero" fill-opacity="1"></path><path clip-path="url(#clip820)" d="M114.931 689.367 L122.57 689.367 L122.57 663.001 L114.26 664.668 L114.26 660.408 L122.524 658.742 L127.2 658.742 L127.2 689.367 L134.839 689.367 L134.839 693.302 L114.931 693.302 L114.931 689.367 Z" fill="#000000" fill-rule="nonzero" fill-opacity="1"></path><path clip-path="url(#clip820)" d="M157.13 662.816 L145.325 681.265 L157.13 681.265 L157.13 662.816 M155.903 658.742 L161.783 658.742 L161.783 681.265 L166.714 681.265 L166.714 685.154 L161.783 685.154 L161.783 693.302 L157.13 693.302 L157.13 685.154 L141.529 685.154 L141.529 680.64 L155.903 658.742 Z" fill="#000000" fill-rule="nonzero" fill-opacity="1"></path><path clip-path="url(#clip820)" d="M184.445 661.821 Q180.834 661.821 179.005 665.385 Q177.2 668.927 177.2 676.057 Q177.2 683.163 179.005 686.728 Q180.834 690.269 184.445 690.269 Q188.079 690.269 189.885 686.728 Q191.713 683.163 191.713 676.057 Q191.713 668.927 189.885 665.385 Q188.079 661.821 184.445 661.821 M184.445 658.117 Q190.255 658.117 193.311 662.723 Q196.389 667.307 196.389 676.057 Q196.389 684.783 193.311 689.39 Q190.255 693.973 184.445 693.973 Q178.635 693.973 175.556 689.39 Q172.501 684.783 172.501 676.057 Q172.501 667.307 175.556 662.723 Q178.635 658.117 184.445 658.117 Z" fill="#000000" fill-rule="nonzero" fill-opacity="1"></path><path clip-path="url(#clip820)" d="M204.607 687.422 L209.491 687.422 L209.491 693.302 L204.607 693.302 L204.607 687.422 Z" fill="#000000" fill-rule="nonzero" fill-opacity="1"></path><path clip-path="url(#clip820)" d="M229.676 661.821 Q226.065 661.821 224.236 665.385 Q222.431 668.927 222.431 676.057 Q222.431 683.163 224.236 686.728 Q226.065 690.269 229.676 690.269 Q233.31 690.269 235.116 686.728 Q236.945 683.163 236.945 676.057 Q236.945 668.927 235.116 665.385 Q233.31 661.821 229.676 661.821 M229.676 658.117 Q235.486 658.117 238.542 662.723 Q241.621 667.307 241.621 676.057 Q241.621 684.783 238.542 689.39 Q235.486 693.973 229.676 693.973 Q223.866 693.973 220.787 689.39 Q217.732 684.783 217.732 676.057 Q217.732 667.307 220.787 662.723 Q223.866 658.117 229.676 658.117 Z" fill="#000000" fill-rule="nonzero" fill-opacity="1"></path><path clip-path="url(#clip820)" d="M115.927 406.699 L123.566 406.699 L123.566 380.333 L115.256 382 L115.256 377.74 L123.519 376.074 L128.195 376.074 L128.195 406.699 L135.834 406.699 L135.834 410.634 L115.927 410.634 L115.927 406.699 Z" fill="#000000" fill-rule="nonzero" fill-opacity="1"></path><path clip-path="url(#clip820)" d="M158.126 380.148 L146.32 398.597 L158.126 398.597 L158.126 380.148 M156.899 376.074 L162.778 376.074 L162.778 398.597 L167.709 398.597 L167.709 402.486 L162.778 402.486 L162.778 410.634 L158.126 410.634 L158.126 402.486 L142.524 402.486 L142.524 397.972 L156.899 376.074 Z" fill="#000000" fill-rule="nonzero" fill-opacity="1"></path><path clip-path="url(#clip820)" d="M179.468 406.699 L195.787 406.699 L195.787 410.634 L173.843 410.634 L173.843 406.699 Q176.505 403.944 181.089 399.314 Q185.695 394.662 186.876 393.319 Q189.121 390.796 190 389.06 Q190.903 387.301 190.903 385.611 Q190.903 382.856 188.959 381.12 Q187.038 379.384 183.936 379.384 Q181.737 379.384 179.283 380.148 Q176.852 380.912 174.075 382.463 L174.075 377.74 Q176.899 376.606 179.352 376.027 Q181.806 375.449 183.843 375.449 Q189.213 375.449 192.408 378.134 Q195.602 380.819 195.602 385.31 Q195.602 387.439 194.792 389.361 Q194.005 391.259 191.899 393.851 Q191.32 394.523 188.218 397.74 Q185.116 400.935 179.468 406.699 Z" fill="#000000" fill-rule="nonzero" fill-opacity="1"></path><path clip-path="url(#clip820)" d="M205.602 404.754 L210.486 404.754 L210.486 410.634 L205.602 410.634 L205.602 404.754 Z" fill="#000000" fill-rule="nonzero" fill-opacity="1"></path><path clip-path="url(#clip820)" d="M220.718 376.074 L239.074 376.074 L239.074 380.009 L225 380.009 L225 388.481 Q226.019 388.134 227.037 387.972 Q228.056 387.787 229.074 387.787 Q234.861 387.787 238.241 390.958 Q241.621 394.129 241.621 399.546 Q241.621 405.125 238.148 408.226 Q234.676 411.305 228.357 411.305 Q226.181 411.305 223.912 410.935 Q221.667 410.564 219.26 409.824 L219.26 405.125 Q221.343 406.259 223.565 406.814 Q225.787 407.37 228.264 407.37 Q232.269 407.37 234.607 405.263 Q236.945 403.157 236.945 399.546 Q236.945 395.935 234.607 393.828 Q232.269 391.722 228.264 391.722 Q226.389 391.722 224.514 392.138 Q222.662 392.555 220.718 393.435 L220.718 376.074 Z" fill="#000000" fill-rule="nonzero" fill-opacity="1"></path><path clip-path="url(#clip820)" d="M114.931 124.031 L122.57 124.031 L122.57 97.6649 L114.26 99.3316 L114.26 95.0724 L122.524 93.4057 L127.2 93.4057 L127.2 124.031 L134.839 124.031 L134.839 127.966 L114.931 127.966 L114.931 124.031 Z" fill="#000000" fill-rule="nonzero" fill-opacity="1"></path><path clip-path="url(#clip820)" d="M157.13 97.4798 L145.325 115.929 L157.13 115.929 L157.13 97.4798 M155.903 93.4057 L161.783 93.4057 L161.783 115.929 L166.714 115.929 L166.714 119.818 L161.783 119.818 L161.783 127.966 L157.13 127.966 L157.13 119.818 L141.529 119.818 L141.529 115.304 L155.903 93.4057 Z" fill="#000000" fill-rule="nonzero" fill-opacity="1"></path><path clip-path="url(#clip820)" d="M174.491 93.4057 L192.848 93.4057 L192.848 97.3409 L178.774 97.3409 L178.774 105.813 Q179.792 105.466 180.811 105.304 Q181.829 105.119 182.848 105.119 Q188.635 105.119 192.014 108.29 Q195.394 111.461 195.394 116.878 Q195.394 122.456 191.922 125.558 Q188.45 128.637 182.13 128.637 Q179.954 128.637 177.686 128.267 Q175.44 127.896 173.033 127.156 L173.033 122.456 Q175.116 123.591 177.339 124.146 Q179.561 124.702 182.038 124.702 Q186.042 124.702 188.38 122.595 Q190.718 120.489 190.718 116.878 Q190.718 113.267 188.38 111.16 Q186.042 109.054 182.038 109.054 Q180.163 109.054 178.288 109.47 Q176.436 109.887 174.491 110.767 L174.491 93.4057 Z" fill="#000000" fill-rule="nonzero" fill-opacity="1"></path><path clip-path="url(#clip820)" d="M204.607 122.086 L209.491 122.086 L209.491 127.966 L204.607 127.966 L204.607 122.086 Z" fill="#000000" fill-rule="nonzero" fill-opacity="1"></path><path clip-path="url(#clip820)" d="M229.676 96.4844 Q226.065 96.4844 224.236 100.049 Q222.431 103.591 222.431 110.72 Q222.431 117.827 224.236 121.392 Q226.065 124.933 229.676 124.933 Q233.31 124.933 235.116 121.392 Q236.945 117.827 236.945 110.72 Q236.945 103.591 235.116 100.049 Q233.31 96.4844 229.676 96.4844 M229.676 92.7807 Q235.486 92.7807 238.542 97.3872 Q241.621 101.97 241.621 110.72 Q241.621 119.447 238.542 124.054 Q235.486 128.637 229.676 128.637 Q223.866 128.637 220.787 124.054 Q217.732 119.447 217.732 110.72 Q217.732 101.97 220.787 97.3872 Q223.866 92.7807 229.676 92.7807 Z" fill="#000000" fill-rule="nonzero" fill-opacity="1"></path><path clip-path="url(#clip820)" d="M16.4842 918.767 L16.4842 912.274 L56.6518 902.28 L16.4842 892.318 L16.4842 885.093 L56.6518 875.098 L16.4842 865.136 L16.4842 858.611 L64.0042 870.547 L64.0042 878.631 L22.7544 888.657 L64.0042 898.779 L64.0042 906.863 L16.4842 918.767 Z" fill="#000000" fill-rule="nonzero" fill-opacity="1"></path><path clip-path="url(#clip820)" d="M32.4621 840.342 Q32.4621 845.052 36.1542 847.789 Q39.8145 850.527 46.212 850.527 Q52.6095 850.527 56.3017 847.821 Q59.9619 845.084 59.9619 840.342 Q59.9619 835.663 56.2698 832.926 Q52.5777 830.188 46.212 830.188 Q39.8781 830.188 36.186 832.926 Q32.4621 835.663 32.4621 840.342 M27.4968 840.342 Q27.4968 832.703 32.4621 828.342 Q37.4273 823.982 46.212 823.982 Q54.9649 823.982 59.9619 828.342 Q64.9272 832.703 64.9272 840.342 Q64.9272 848.012 59.9619 852.373 Q54.9649 856.701 46.212 856.701 Q37.4273 856.701 32.4621 852.373 Q27.4968 848.012 27.4968 840.342 Z" fill="#000000" fill-rule="nonzero" fill-opacity="1"></path><path clip-path="url(#clip820)" d="M33.8307 793.617 Q33.2578 794.604 33.0032 795.782 Q32.7167 796.927 32.7167 798.328 Q32.7167 803.293 35.9632 805.967 Q39.1779 808.609 45.2253 808.609 L64.0042 808.609 L64.0042 814.497 L28.3562 814.497 L28.3562 808.609 L33.8944 808.609 Q30.6479 806.763 29.0883 803.802 Q27.4968 800.842 27.4968 796.609 Q27.4968 796.004 27.5923 795.272 Q27.656 794.54 27.8151 793.649 L33.8307 793.617 Z" fill="#000000" fill-rule="nonzero" fill-opacity="1"></path><path clip-path="url(#clip820)" d="M14.479 787.697 L14.479 781.809 L43.7294 781.809 L28.3562 764.335 L28.3562 756.855 L45.0344 775.762 L64.0042 756.06 L64.0042 763.699 L46.5939 781.809 L64.0042 781.809 L64.0042 787.697 L14.479 787.697 Z" fill="#000000" fill-rule="nonzero" fill-opacity="1"></path><path clip-path="url(#clip820)" d="M16.4842 728.751 L16.4842 722.321 L64.0042 722.321 L64.0042 728.751 L16.4842 728.751 Z" fill="#000000" fill-rule="nonzero" fill-opacity="1"></path><path clip-path="url(#clip820)" d="M42.4881 680.149 L64.0042 680.149 L64.0042 686.005 L42.679 686.005 Q37.6183 686.005 35.1038 687.978 Q32.5894 689.952 32.5894 693.899 Q32.5894 698.641 35.6131 701.378 Q38.6368 704.115 43.8567 704.115 L64.0042 704.115 L64.0042 710.004 L28.3562 710.004 L28.3562 704.115 L33.8944 704.115 Q30.6797 702.015 29.0883 699.182 Q27.4968 696.318 27.4968 692.594 Q27.4968 686.451 31.3163 683.3 Q35.1038 680.149 42.4881 680.149 Z" fill="#000000" fill-rule="nonzero" fill-opacity="1"></path><path clip-path="url(#clip820)" d="M14.479 648.288 L14.479 634.793 L19.0304 634.793 L19.0304 642.432 L68.0464 642.432 L68.0464 634.793 L72.5979 634.793 L72.5979 648.288 L14.479 648.288 Z" fill="#000000" fill-rule="nonzero" fill-opacity="1"></path><path clip-path="url(#clip820)" d="M14.479 622.539 L14.479 616.651 L43.7294 616.651 L28.3562 599.177 L28.3562 591.697 L45.0344 610.603 L64.0042 590.901 L64.0042 598.54 L46.5939 616.651 L64.0042 616.651 L64.0042 622.539 L14.479 622.539 Z" fill="#000000" fill-rule="nonzero" fill-opacity="1"></path><path clip-path="url(#clip820)" d="M16.4842 584.313 L16.4842 577.884 L60.694 577.884 Q69.2877 577.884 73.1708 581.162 Q77.0539 584.408 77.0539 591.633 L77.0539 594.084 L71.643 594.084 L71.643 592.079 Q71.643 587.814 69.2559 586.063 Q66.8687 584.313 60.694 584.313 L16.4842 584.313 Z" fill="#000000" fill-rule="nonzero" fill-opacity="1"></path><path clip-path="url(#clip820)" d="M14.479 551.657 L72.5979 551.657 L72.5979 565.152 L68.0464 565.152 L68.0464 557.545 L19.0304 557.545 L19.0304 565.152 L14.479 565.152 L14.479 551.657 Z" fill="#000000" fill-rule="nonzero" fill-opacity="1"></path><circle clip-path="url(#clip822)" cx="336.351" cy="807.24" r="14.4" fill="#009af9" fill-rule="evenodd" fill-opacity="1" stroke="#000000" stroke-opacity="1" stroke-width="3.2"></circle>
<circle clip-path="url(#clip822)" cx="371.309" cy="807.24" r="14.4" fill="#009af9" fill-rule="evenodd" fill-opacity="1" stroke="#000000" stroke-opacity="1" stroke-width="3.2"></circle>
<circle clip-path="url(#clip822)" cx="406.268" cy="660.663" r="14.4" fill="#009af9" fill-rule="evenodd" fill-opacity="1" stroke="#000000" stroke-opacity="1" stroke-width="3.2"></circle>
<circle clip-path="url(#clip822)" cx="441.226" cy="952.781" r="14.4" fill="#009af9" fill-rule="evenodd" fill-opacity="1" stroke="#000000" stroke-opacity="1" stroke-width="3.2"></circle>
<circle clip-path="url(#clip822)" cx="476.185" cy="952.781" r="14.4" fill="#009af9" fill-rule="evenodd" fill-opacity="1" stroke="#000000" stroke-opacity="1" stroke-width="3.2"></circle>
<circle clip-path="url(#clip822)" cx="511.143" cy="1108.07" r="14.4" fill="#009af9" fill-rule="evenodd" fill-opacity="1" stroke="#000000" stroke-opacity="1" stroke-width="3.2"></circle>
<circle clip-path="url(#clip822)" cx="546.102" cy="1108.07" r="14.4" fill="#009af9" fill-rule="evenodd" fill-opacity="1" stroke="#000000" stroke-opacity="1" stroke-width="3.2"></circle>
<circle clip-path="url(#clip822)" cx="581.06" cy="1108.07" r="14.4" fill="#009af9" fill-rule="evenodd" fill-opacity="1" stroke="#000000" stroke-opacity="1" stroke-width="3.2"></circle>
<circle clip-path="url(#clip822)" cx="616.019" cy="1108.07" r="14.4" fill="#009af9" fill-rule="evenodd" fill-opacity="1" stroke="#000000" stroke-opacity="1" stroke-width="3.2"></circle>
<circle clip-path="url(#clip822)" cx="650.977" cy="1108.07" r="14.4" fill="#009af9" fill-rule="evenodd" fill-opacity="1" stroke="#000000" stroke-opacity="1" stroke-width="3.2"></circle>
<circle clip-path="url(#clip822)" cx="685.936" cy="952.781" r="14.4" fill="#009af9" fill-rule="evenodd" fill-opacity="1" stroke="#000000" stroke-opacity="1" stroke-width="3.2"></circle>
<circle clip-path="url(#clip822)" cx="720.894" cy="1246.87" r="14.4" fill="#009af9" fill-rule="evenodd" fill-opacity="1" stroke="#000000" stroke-opacity="1" stroke-width="3.2"></circle>
<circle clip-path="url(#clip822)" cx="755.853" cy="1246.87" r="14.4" fill="#009af9" fill-rule="evenodd" fill-opacity="1" stroke="#000000" stroke-opacity="1" stroke-width="3.2"></circle>
<circle clip-path="url(#clip822)" cx="790.811" cy="1246.87" r="14.4" fill="#009af9" fill-rule="evenodd" fill-opacity="1" stroke="#000000" stroke-opacity="1" stroke-width="3.2"></circle>
<circle clip-path="url(#clip822)" cx="825.77" cy="1246.87" r="14.4" fill="#009af9" fill-rule="evenodd" fill-opacity="1" stroke="#000000" stroke-opacity="1" stroke-width="3.2"></circle>
<circle clip-path="url(#clip822)" cx="860.728" cy="1246.87" r="14.4" fill="#009af9" fill-rule="evenodd" fill-opacity="1" stroke="#000000" stroke-opacity="1" stroke-width="3.2"></circle>
<circle clip-path="url(#clip822)" cx="895.686" cy="1246.87" r="14.4" fill="#009af9" fill-rule="evenodd" fill-opacity="1" stroke="#000000" stroke-opacity="1" stroke-width="3.2"></circle>
<circle clip-path="url(#clip822)" cx="930.645" cy="1246.87" r="14.4" fill="#009af9" fill-rule="evenodd" fill-opacity="1" stroke="#000000" stroke-opacity="1" stroke-width="3.2"></circle>
<circle clip-path="url(#clip822)" cx="965.603" cy="1246.87" r="14.4" fill="#009af9" fill-rule="evenodd" fill-opacity="1" stroke="#000000" stroke-opacity="1" stroke-width="3.2"></circle>
<circle clip-path="url(#clip822)" cx="1000.56" cy="1246.87" r="14.4" fill="#009af9" fill-rule="evenodd" fill-opacity="1" stroke="#000000" stroke-opacity="1" stroke-width="3.2"></circle>
<circle clip-path="url(#clip822)" cx="1035.52" cy="1384.24" r="14.4" fill="#009af9" fill-rule="evenodd" fill-opacity="1" stroke="#000000" stroke-opacity="1" stroke-width="3.2"></circle>
<circle clip-path="url(#clip822)" cx="1070.48" cy="1384.24" r="14.4" fill="#009af9" fill-rule="evenodd" fill-opacity="1" stroke="#000000" stroke-opacity="1" stroke-width="3.2"></circle>
<circle clip-path="url(#clip822)" cx="1105.44" cy="1246.87" r="14.4" fill="#009af9" fill-rule="evenodd" fill-opacity="1" stroke="#000000" stroke-opacity="1" stroke-width="3.2"></circle>
<circle clip-path="url(#clip822)" cx="1140.4" cy="1246.87" r="14.4" fill="#009af9" fill-rule="evenodd" fill-opacity="1" stroke="#000000" stroke-opacity="1" stroke-width="3.2"></circle>
<circle clip-path="url(#clip822)" cx="1175.35" cy="1246.87" r="14.4" fill="#009af9" fill-rule="evenodd" fill-opacity="1" stroke="#000000" stroke-opacity="1" stroke-width="3.2"></circle>
<circle clip-path="url(#clip822)" cx="1210.31" cy="1246.87" r="14.4" fill="#009af9" fill-rule="evenodd" fill-opacity="1" stroke="#000000" stroke-opacity="1" stroke-width="3.2"></circle>
<circle clip-path="url(#clip822)" cx="1245.27" cy="1246.87" r="14.4" fill="#009af9" fill-rule="evenodd" fill-opacity="1" stroke="#000000" stroke-opacity="1" stroke-width="3.2"></circle>
<circle clip-path="url(#clip822)" cx="1280.23" cy="1246.87" r="14.4" fill="#009af9" fill-rule="evenodd" fill-opacity="1" stroke="#000000" stroke-opacity="1" stroke-width="3.2"></circle>
<circle clip-path="url(#clip822)" cx="1315.19" cy="1246.87" r="14.4" fill="#009af9" fill-rule="evenodd" fill-opacity="1" stroke="#000000" stroke-opacity="1" stroke-width="3.2"></circle>
<circle clip-path="url(#clip822)" cx="1350.15" cy="1246.87" r="14.4" fill="#009af9" fill-rule="evenodd" fill-opacity="1" stroke="#000000" stroke-opacity="1" stroke-width="3.2"></circle>
<circle clip-path="url(#clip822)" cx="1385.11" cy="1246.87" r="14.4" fill="#009af9" fill-rule="evenodd" fill-opacity="1" stroke="#000000" stroke-opacity="1" stroke-width="3.2"></circle>
<circle clip-path="url(#clip822)" cx="1420.06" cy="1384.24" r="14.4" fill="#009af9" fill-rule="evenodd" fill-opacity="1" stroke="#000000" stroke-opacity="1" stroke-width="3.2"></circle>
<circle clip-path="url(#clip822)" cx="1455.02" cy="1384.24" r="14.4" fill="#009af9" fill-rule="evenodd" fill-opacity="1" stroke="#000000" stroke-opacity="1" stroke-width="3.2"></circle>
<circle clip-path="url(#clip822)" cx="1489.98" cy="1384.24" r="14.4" fill="#009af9" fill-rule="evenodd" fill-opacity="1" stroke="#000000" stroke-opacity="1" stroke-width="3.2"></circle>
<circle clip-path="url(#clip822)" cx="1524.94" cy="1384.24" r="14.4" fill="#009af9" fill-rule="evenodd" fill-opacity="1" stroke="#000000" stroke-opacity="1" stroke-width="3.2"></circle>
<circle clip-path="url(#clip822)" cx="1559.9" cy="1384.24" r="14.4" fill="#009af9" fill-rule="evenodd" fill-opacity="1" stroke="#000000" stroke-opacity="1" stroke-width="3.2"></circle>
<circle clip-path="url(#clip822)" cx="1594.86" cy="1384.24" r="14.4" fill="#009af9" fill-rule="evenodd" fill-opacity="1" stroke="#000000" stroke-opacity="1" stroke-width="3.2"></circle>
<circle clip-path="url(#clip822)" cx="1629.81" cy="1246.87" r="14.4" fill="#009af9" fill-rule="evenodd" fill-opacity="1" stroke="#000000" stroke-opacity="1" stroke-width="3.2"></circle>
<circle clip-path="url(#clip822)" cx="1664.77" cy="1246.87" r="14.4" fill="#009af9" fill-rule="evenodd" fill-opacity="1" stroke="#000000" stroke-opacity="1" stroke-width="3.2"></circle>
<circle clip-path="url(#clip822)" cx="1699.73" cy="1246.87" r="14.4" fill="#009af9" fill-rule="evenodd" fill-opacity="1" stroke="#000000" stroke-opacity="1" stroke-width="3.2"></circle>
<circle clip-path="url(#clip822)" cx="1734.69" cy="1246.87" r="14.4" fill="#009af9" fill-rule="evenodd" fill-opacity="1" stroke="#000000" stroke-opacity="1" stroke-width="3.2"></circle>
<circle clip-path="url(#clip822)" cx="1769.65" cy="1246.87" r="14.4" fill="#009af9" fill-rule="evenodd" fill-opacity="1" stroke="#000000" stroke-opacity="1" stroke-width="3.2"></circle>
<circle clip-path="url(#clip822)" cx="1804.61" cy="1246.87" r="14.4" fill="#009af9" fill-rule="evenodd" fill-opacity="1" stroke="#000000" stroke-opacity="1" stroke-width="3.2"></circle>
<circle clip-path="url(#clip822)" cx="1839.57" cy="1246.87" r="14.4" fill="#009af9" fill-rule="evenodd" fill-opacity="1" stroke="#000000" stroke-opacity="1" stroke-width="3.2"></circle>
<circle clip-path="url(#clip822)" cx="1874.52" cy="1108.07" r="14.4" fill="#009af9" fill-rule="evenodd" fill-opacity="1" stroke="#000000" stroke-opacity="1" stroke-width="3.2"></circle>
<circle clip-path="url(#clip822)" cx="1909.48" cy="1108.07" r="14.4" fill="#009af9" fill-rule="evenodd" fill-opacity="1" stroke="#000000" stroke-opacity="1" stroke-width="3.2"></circle>
<circle clip-path="url(#clip822)" cx="1944.44" cy="1246.87" r="14.4" fill="#009af9" fill-rule="evenodd" fill-opacity="1" stroke="#000000" stroke-opacity="1" stroke-width="3.2"></circle>
<circle clip-path="url(#clip822)" cx="1979.4" cy="1246.87" r="14.4" fill="#009af9" fill-rule="evenodd" fill-opacity="1" stroke="#000000" stroke-opacity="1" stroke-width="3.2"></circle>
<circle clip-path="url(#clip822)" cx="2014.36" cy="1246.87" r="14.4" fill="#009af9" fill-rule="evenodd" fill-opacity="1" stroke="#000000" stroke-opacity="1" stroke-width="3.2"></circle>
<circle clip-path="url(#clip822)" cx="2049.32" cy="1108.07" r="14.4" fill="#009af9" fill-rule="evenodd" fill-opacity="1" stroke="#000000" stroke-opacity="1" stroke-width="3.2"></circle>
<circle clip-path="url(#clip822)" cx="2084.27" cy="1108.07" r="14.4" fill="#009af9" fill-rule="evenodd" fill-opacity="1" stroke="#000000" stroke-opacity="1" stroke-width="3.2"></circle>
<circle clip-path="url(#clip822)" cx="2119.23" cy="1108.07" r="14.4" fill="#009af9" fill-rule="evenodd" fill-opacity="1" stroke="#000000" stroke-opacity="1" stroke-width="3.2"></circle>
<circle clip-path="url(#clip822)" cx="2154.19" cy="1108.07" r="14.4" fill="#009af9" fill-rule="evenodd" fill-opacity="1" stroke="#000000" stroke-opacity="1" stroke-width="3.2"></circle>
<circle clip-path="url(#clip822)" cx="2189.15" cy="807.24" r="14.4" fill="#009af9" fill-rule="evenodd" fill-opacity="1" stroke="#000000" stroke-opacity="1" stroke-width="3.2"></circle>
<circle clip-path="url(#clip822)" cx="2224.11" cy="660.663" r="14.4" fill="#009af9" fill-rule="evenodd" fill-opacity="1" stroke="#000000" stroke-opacity="1" stroke-width="3.2"></circle>
<circle clip-path="url(#clip822)" cx="2259.07" cy="406.18" r="14.4" fill="#009af9" fill-rule="evenodd" fill-opacity="1" stroke="#000000" stroke-opacity="1" stroke-width="3.2"></circle>
<circle clip-path="url(#clip822)" cx="2294.03" cy="86.1857" r="14.4" fill="#009af9" fill-rule="evenodd" fill-opacity="1" stroke="#000000" stroke-opacity="1" stroke-width="3.2"></circle>
<path clip-path="url(#clip820)" d="M346.792 196.789 L744.304 196.789 L744.304 93.1086 L346.792 93.1086  Z" fill="#ffffff" fill-rule="evenodd" fill-opacity="1"></path>
<polyline clip-path="url(#clip820)" style="stroke:#000000; stroke-linecap:round; stroke-linejoin:round; stroke-width:4; stroke-opacity:1; fill:none" points="346.792,196.789 744.304,196.789 744.304,93.1086 346.792,93.1086 346.792,196.789 "></polyline>
<circle clip-path="url(#clip820)" cx="439.02" cy="144.949" r="23.04" fill="#009af9" fill-rule="evenodd" fill-opacity="1" stroke="#000000" stroke-opacity="1" stroke-width="5.12"></circle>
<path clip-path="url(#clip820)" d="M560.269 134.114 Q560.269 133.341 560.058 132.709 Q559.87 132.053 559.566 131.608 Q559.285 131.139 558.746 130.788 Q558.207 130.413 557.762 130.179 Q557.317 129.945 556.568 129.804 Q555.818 129.64 555.327 129.57 Q554.835 129.476 553.991 129.43 Q553.148 129.383 552.727 129.383 Q552.328 129.383 551.532 129.383 Q549.026 129.383 548.604 129.43 Q547.972 129.523 547.738 129.898 Q547.503 130.249 547.269 131.21 L544.154 143.717 L549.518 143.717 Q552.446 143.717 554.46 142.898 Q556.474 142.078 557.622 140.93 Q558.887 139.665 559.566 137.627 Q560.269 135.59 560.269 134.114 M565.492 156.201 Q565.492 156.459 565.281 157.045 Q565.094 157.63 564.625 158.45 Q564.157 159.246 563.524 159.972 Q562.892 160.699 561.885 161.19 Q560.878 161.706 559.73 161.706 Q559.449 161.706 559.168 161.682 Q558.887 161.682 558.184 161.565 Q557.505 161.472 556.943 161.284 Q556.381 161.12 555.678 160.722 Q554.975 160.347 554.483 159.832 Q554.015 159.293 553.687 158.45 Q553.359 157.583 553.359 156.529 Q553.359 155.592 554.132 152.454 Q554.811 149.784 554.811 149.128 Q554.811 148.402 554.577 147.723 Q554.366 147.043 553.827 146.341 Q553.312 145.638 552.211 145.216 Q551.11 144.771 549.565 144.771 L543.873 144.771 L540.687 157.49 Q540.687 157.513 540.617 157.841 Q540.547 158.146 540.547 158.309 Q540.547 158.614 540.734 158.801 Q540.945 158.989 541.46 159.082 Q541.976 159.153 542.374 159.176 Q542.796 159.176 543.662 159.176 Q544.74 159.176 544.927 159.364 Q545.021 159.481 545.021 159.691 Q545.021 160.019 544.927 160.254 Q544.857 160.464 544.669 160.535 Q544.505 160.605 544.388 160.628 Q544.271 160.652 544.06 160.652 L537.97 160.511 L531.927 160.652 Q531.248 160.652 531.248 160.113 Q531.248 159.645 531.412 159.457 Q531.576 159.246 531.787 159.223 Q531.998 159.176 532.536 159.176 Q533.708 159.176 534.41 159.106 Q535.113 159.036 535.558 158.942 Q536.026 158.825 536.261 158.497 Q536.518 158.169 536.635 157.888 Q536.753 157.583 536.916 156.904 L543.334 131.139 Q543.522 130.367 543.522 130.249 Q543.522 129.804 543.241 129.687 Q542.983 129.547 542.233 129.476 L540.406 129.383 Q539.844 129.383 539.61 129.359 Q539.399 129.336 539.235 129.219 Q539.071 129.102 539.071 128.844 Q539.071 128.188 539.352 128.048 Q539.633 127.884 540.453 127.884 L554.132 127.884 Q558.793 127.884 561.744 129.921 Q564.719 131.959 564.719 135.074 Q564.719 136.48 564.087 137.791 Q563.454 139.103 562.4 140.134 Q561.37 141.164 559.988 142.031 Q558.606 142.874 557.13 143.46 Q555.678 144.022 554.179 144.35 Q554.835 144.584 555.444 144.935 Q556.076 145.287 556.872 145.942 Q557.692 146.598 558.184 147.652 Q558.676 148.706 558.676 149.995 Q558.676 150.908 558.489 152.267 Q558.02 156.131 558.02 157.724 Q558.02 159.246 558.418 159.949 Q558.816 160.652 559.941 160.652 Q561.042 160.652 562.26 159.668 Q563.501 158.661 564.297 156.295 Q564.485 155.616 564.93 155.616 Q564.953 155.616 564.977 155.616 Q565.023 155.616 565.117 155.663 Q565.211 155.686 565.281 155.756 Q565.375 155.803 565.422 155.92 Q565.492 156.038 565.492 156.201 Z" fill="#000000" fill-rule="nonzero" fill-opacity="1"></path><path clip-path="url(#clip820)" d="M612.263 147.98 Q612.544 148.261 612.544 148.659 Q612.544 149.058 612.263 149.339 Q611.981 149.62 611.583 149.62 L581.556 149.62 Q581.158 149.62 580.876 149.339 Q580.595 149.058 580.595 148.659 Q580.595 148.261 580.876 147.98 Q581.158 147.699 581.556 147.699 L611.583 147.699 Q611.981 147.699 612.263 147.98 Z" fill="#000000" fill-rule="nonzero" fill-opacity="1"></path><path clip-path="url(#clip820)" d="M630.847 133.271 L630.847 131.772 Q636.609 131.772 639.584 128.704 Q640.403 128.704 640.544 128.891 Q640.685 129.078 640.685 129.945 L640.685 156.857 Q640.685 158.286 641.387 158.731 Q642.09 159.176 645.158 159.176 L646.681 159.176 L646.681 160.652 Q644.994 160.511 638.904 160.511 Q632.815 160.511 631.152 160.652 L631.152 159.176 L632.674 159.176 Q635.696 159.176 636.422 158.755 Q637.148 158.309 637.148 156.857 L637.148 132.006 Q634.642 133.271 630.847 133.271 Z" fill="#000000" fill-rule="nonzero" fill-opacity="1"></path><path clip-path="url(#clip820)" d="M650.369 154.187 Q650.369 152.758 651.189 152.079 Q652.009 151.4 653.063 151.4 Q654.164 151.4 654.937 152.126 Q655.733 152.829 655.733 154.07 Q655.733 155.405 654.796 156.155 Q653.883 156.904 652.571 156.717 Q653.719 158.637 655.827 159.504 Q657.958 160.371 659.925 160.371 Q661.987 160.371 663.65 158.591 Q665.336 156.81 665.336 152.454 Q665.336 148.753 663.884 146.622 Q662.455 144.49 659.621 144.49 L657.513 144.49 Q656.787 144.49 656.576 144.42 Q656.365 144.35 656.365 143.952 Q656.365 143.483 657.091 143.389 Q657.817 143.389 658.965 143.249 Q661.752 143.155 663.228 140.743 Q664.563 138.494 664.563 135.285 Q664.563 132.357 663.158 131.139 Q661.776 129.898 659.972 129.898 Q658.286 129.898 656.436 130.601 Q654.585 131.303 653.578 132.873 Q656.553 132.873 656.553 135.285 Q656.553 136.339 655.873 137.042 Q655.218 137.721 654.117 137.721 Q653.063 137.721 652.36 137.065 Q651.657 136.386 651.657 135.238 Q651.657 132.498 654.093 130.601 Q656.553 128.704 660.16 128.704 Q663.72 128.704 666.343 130.577 Q668.99 132.451 668.99 135.332 Q668.99 138.166 667.116 140.485 Q665.242 142.804 662.268 143.764 Q665.922 144.49 668.1 146.973 Q670.278 149.432 670.278 152.454 Q670.278 156.201 667.327 158.965 Q664.376 161.706 660.066 161.706 Q656.084 161.706 653.227 159.551 Q650.369 157.396 650.369 154.187 Z" fill="#000000" fill-rule="nonzero" fill-opacity="1"></path><path clip-path="url(#clip820)" d="M671.226 152.735 L671.226 151.259 L685.959 128.75 Q686.334 128.165 686.919 128.188 Q687.458 128.188 687.575 128.399 Q687.692 128.61 687.692 129.43 L687.692 151.259 L692.494 151.259 L692.494 152.735 L687.692 152.735 L687.692 156.904 Q687.692 158.286 688.254 158.731 Q688.84 159.176 691.323 159.176 L692.33 159.176 L692.33 160.652 Q690.362 160.511 685.818 160.511 Q681.298 160.511 679.33 160.652 L679.33 159.176 L680.337 159.176 Q682.82 159.176 683.406 158.755 Q683.991 158.309 683.991 156.904 L683.991 152.735 L671.226 152.735 M672.585 151.259 L684.272 151.259 L684.272 133.365 L672.585 151.259 Z" fill="#000000" fill-rule="nonzero" fill-opacity="1"></path><path clip-path="url(#clip820)" d="M718.098 153.789 Q717.466 156.81 716.646 158.544 Q715.335 161.19 713.109 161.19 Q711.423 161.19 710.228 160.16 Q709.034 159.129 708.753 157.583 Q705.684 161.19 702.499 161.19 Q699.688 161.19 697.908 159.059 Q696.128 156.904 696.128 153.508 Q696.128 150.088 697.815 146.809 Q699.524 143.53 702.218 141.492 Q704.912 139.454 707.675 139.454 Q710.603 139.454 712.102 142.523 Q712.219 141.68 712.758 141.047 Q713.297 140.415 714.117 140.415 Q714.749 140.415 715.124 140.766 Q715.498 141.094 715.498 141.703 Q715.498 142.007 715.171 143.343 L713.437 150.041 L712.383 154.375 Q711.985 155.967 711.868 156.553 Q711.774 157.138 711.774 157.911 Q711.774 160.113 713.203 160.113 Q713.906 160.113 714.468 159.668 Q715.03 159.223 715.475 158.286 Q715.92 157.349 716.201 156.483 Q716.482 155.592 716.857 154.187 Q716.974 153.625 717.068 153.484 Q717.185 153.321 717.513 153.321 Q718.098 153.321 718.098 153.789 M711.517 144.724 Q711.517 144.514 711.353 143.928 Q711.189 143.343 710.814 142.523 Q710.439 141.703 709.619 141.117 Q708.823 140.508 707.746 140.508 Q706.293 140.508 704.771 141.75 Q703.272 142.991 702.171 145.099 Q701.328 146.786 700.414 150.322 Q699.524 153.859 699.524 155.616 Q699.524 156.693 699.759 157.654 Q700.016 158.591 700.742 159.364 Q701.468 160.113 702.593 160.113 Q705.333 160.113 708.027 156.717 Q708.542 156.131 708.659 155.897 Q708.8 155.639 708.987 154.937 L711.376 145.544 Q711.517 144.842 711.517 144.724 Z" fill="#000000" fill-rule="nonzero" fill-opacity="1"></path></svg>