<svg xmlns="http://www.w3.org/2000/svg" xmlns:xlink="http://www.w3.org/1999/xlink" width="600" height="400" viewBox="0 0 2400 1600">
<defs>
  <clipPath id="clip250">
    <rect x="0" y="0" width="2400" height="1600"></rect>
  </clipPath>
</defs>
<path clip-path="url(#clip250)" d="M0 1600 L2400 1600 L2400 0 L0 0  Z" fill="#ffffff" fill-rule="evenodd" fill-opacity="1"></path>
<defs>
  <clipPath id="clip251">
    <rect x="480" y="0" width="1681" height="1600"></rect>
  </clipPath>
</defs>
<path clip-path="url(#clip250)" d="M219.38 1423.18 L2352.76 1423.18 L2352.76 47.2441 L219.38 47.2441  Z" fill="#ffffff" fill-rule="evenodd" fill-opacity="1"></path>
<defs>
  <clipPath id="clip252">
    <rect x="219" y="47" width="2134" height="1377"></rect>
  </clipPath>
</defs>
<polyline clip-path="url(#clip252)" style="stroke:#000000; stroke-linecap:round; stroke-linejoin:round; stroke-width:2; stroke-opacity:0.1; fill:none" points="248.432,1423.18 248.432,47.2441 "></polyline>
<polyline clip-path="url(#clip252)" style="stroke:#000000; stroke-linecap:round; stroke-linejoin:round; stroke-width:2; stroke-opacity:0.1; fill:none" points="685.958,1423.18 685.958,47.2441 "></polyline>
<polyline clip-path="url(#clip252)" style="stroke:#000000; stroke-linecap:round; stroke-linejoin:round; stroke-width:2; stroke-opacity:0.1; fill:none" points="1123.48,1423.18 1123.48,47.2441 "></polyline>
<polyline clip-path="url(#clip252)" style="stroke:#000000; stroke-linecap:round; stroke-linejoin:round; stroke-width:2; stroke-opacity:0.1; fill:none" points="1561.01,1423.18 1561.01,47.2441 "></polyline>
<polyline clip-path="url(#clip252)" style="stroke:#000000; stroke-linecap:round; stroke-linejoin:round; stroke-width:2; stroke-opacity:0.1; fill:none" points="1998.54,1423.18 1998.54,47.2441 "></polyline>
<polyline clip-path="url(#clip250)" style="stroke:#000000; stroke-linecap:round; stroke-linejoin:round; stroke-width:4; stroke-opacity:1; fill:none" points="219.38,1423.18 2352.76,1423.18 "></polyline>
<polyline clip-path="url(#clip250)" style="stroke:#000000; stroke-linecap:round; stroke-linejoin:round; stroke-width:4; stroke-opacity:1; fill:none" points="248.432,1423.18 248.432,1404.28 "></polyline>
<polyline clip-path="url(#clip250)" style="stroke:#000000; stroke-linecap:round; stroke-linejoin:round; stroke-width:4; stroke-opacity:1; fill:none" points="685.958,1423.18 685.958,1404.28 "></polyline>
<polyline clip-path="url(#clip250)" style="stroke:#000000; stroke-linecap:round; stroke-linejoin:round; stroke-width:4; stroke-opacity:1; fill:none" points="1123.48,1423.18 1123.48,1404.28 "></polyline>
<polyline clip-path="url(#clip250)" style="stroke:#000000; stroke-linecap:round; stroke-linejoin:round; stroke-width:4; stroke-opacity:1; fill:none" points="1561.01,1423.18 1561.01,1404.28 "></polyline>
<polyline clip-path="url(#clip250)" style="stroke:#000000; stroke-linecap:round; stroke-linejoin:round; stroke-width:4; stroke-opacity:1; fill:none" points="1998.54,1423.18 1998.54,1404.28 "></polyline>
<path clip-path="url(#clip250)" d="M208.05 1451.02 L226.407 1451.02 L226.407 1454.96 L212.333 1454.96 L212.333 1463.43 Q213.351 1463.08 214.37 1462.92 Q215.388 1462.73 216.407 1462.73 Q222.194 1462.73 225.573 1465.9 Q228.953 1469.08 228.953 1474.49 Q228.953 1480.07 225.481 1483.17 Q222.008 1486.25 215.689 1486.25 Q213.513 1486.25 211.245 1485.88 Q208.999 1485.51 206.592 1484.77 L206.592 1480.07 Q208.675 1481.2 210.897 1481.76 Q213.12 1482.32 215.596 1482.32 Q219.601 1482.32 221.939 1480.21 Q224.277 1478.1 224.277 1474.49 Q224.277 1470.88 221.939 1468.77 Q219.601 1466.67 215.596 1466.67 Q213.721 1466.67 211.846 1467.08 Q209.995 1467.5 208.05 1468.38 L208.05 1451.02 Z" fill="#000000" fill-rule="nonzero" fill-opacity="1"></path><path clip-path="url(#clip250)" d="M248.166 1454.1 Q244.555 1454.1 242.726 1457.66 Q240.92 1461.2 240.92 1468.33 Q240.92 1475.44 242.726 1479.01 Q244.555 1482.55 248.166 1482.55 Q251.8 1482.55 253.605 1479.01 Q255.434 1475.44 255.434 1468.33 Q255.434 1461.2 253.605 1457.66 Q251.8 1454.1 248.166 1454.1 M248.166 1450.39 Q253.976 1450.39 257.031 1455 Q260.11 1459.58 260.11 1468.33 Q260.11 1477.06 257.031 1481.67 Q253.976 1486.25 248.166 1486.25 Q242.356 1486.25 239.277 1481.67 Q236.221 1477.06 236.221 1468.33 Q236.221 1459.58 239.277 1455 Q242.356 1450.39 248.166 1450.39 Z" fill="#000000" fill-rule="nonzero" fill-opacity="1"></path><path clip-path="url(#clip250)" d="M278.328 1454.1 Q274.716 1454.1 272.888 1457.66 Q271.082 1461.2 271.082 1468.33 Q271.082 1475.44 272.888 1479.01 Q274.716 1482.55 278.328 1482.55 Q281.962 1482.55 283.767 1479.01 Q285.596 1475.44 285.596 1468.33 Q285.596 1461.2 283.767 1457.66 Q281.962 1454.1 278.328 1454.1 M278.328 1450.39 Q284.138 1450.39 287.193 1455 Q290.272 1459.58 290.272 1468.33 Q290.272 1477.06 287.193 1481.67 Q284.138 1486.25 278.328 1486.25 Q272.517 1486.25 269.439 1481.67 Q266.383 1477.06 266.383 1468.33 Q266.383 1459.58 269.439 1455 Q272.517 1450.39 278.328 1450.39 Z" fill="#000000" fill-rule="nonzero" fill-opacity="1"></path><path clip-path="url(#clip250)" d="M644.233 1451.02 L666.455 1451.02 L666.455 1453.01 L653.909 1485.58 L649.025 1485.58 L660.83 1454.96 L644.233 1454.96 L644.233 1451.02 Z" fill="#000000" fill-rule="nonzero" fill-opacity="1"></path><path clip-path="url(#clip250)" d="M675.622 1451.02 L693.978 1451.02 L693.978 1454.96 L679.904 1454.96 L679.904 1463.43 Q680.923 1463.08 681.941 1462.92 Q682.96 1462.73 683.979 1462.73 Q689.766 1462.73 693.145 1465.9 Q696.525 1469.08 696.525 1474.49 Q696.525 1480.07 693.053 1483.17 Q689.58 1486.25 683.261 1486.25 Q681.085 1486.25 678.816 1485.88 Q676.571 1485.51 674.164 1484.77 L674.164 1480.07 Q676.247 1481.2 678.469 1481.76 Q680.691 1482.32 683.168 1482.32 Q687.173 1482.32 689.511 1480.21 Q691.849 1478.1 691.849 1474.49 Q691.849 1470.88 689.511 1468.77 Q687.173 1466.67 683.168 1466.67 Q681.293 1466.67 679.418 1467.08 Q677.567 1467.5 675.622 1468.38 L675.622 1451.02 Z" fill="#000000" fill-rule="nonzero" fill-opacity="1"></path><path clip-path="url(#clip250)" d="M715.738 1454.1 Q712.127 1454.1 710.298 1457.66 Q708.492 1461.2 708.492 1468.33 Q708.492 1475.44 710.298 1479.01 Q712.127 1482.55 715.738 1482.55 Q719.372 1482.55 721.177 1479.01 Q723.006 1475.44 723.006 1468.33 Q723.006 1461.2 721.177 1457.66 Q719.372 1454.1 715.738 1454.1 M715.738 1450.39 Q721.548 1450.39 724.603 1455 Q727.682 1459.58 727.682 1468.33 Q727.682 1477.06 724.603 1481.67 Q721.548 1486.25 715.738 1486.25 Q709.927 1486.25 706.849 1481.67 Q703.793 1477.06 703.793 1468.33 Q703.793 1459.58 706.849 1455 Q709.927 1450.39 715.738 1450.39 Z" fill="#000000" fill-rule="nonzero" fill-opacity="1"></path><path clip-path="url(#clip250)" d="M1068.01 1481.64 L1075.65 1481.64 L1075.65 1455.28 L1067.34 1456.95 L1067.34 1452.69 L1075.6 1451.02 L1080.28 1451.02 L1080.28 1481.64 L1087.92 1481.64 L1087.92 1485.58 L1068.01 1485.58 L1068.01 1481.64 Z" fill="#000000" fill-rule="nonzero" fill-opacity="1"></path><path clip-path="url(#clip250)" d="M1107.36 1454.1 Q1103.75 1454.1 1101.92 1457.66 Q1100.12 1461.2 1100.12 1468.33 Q1100.12 1475.44 1101.92 1479.01 Q1103.75 1482.55 1107.36 1482.55 Q1111 1482.55 1112.8 1479.01 Q1114.63 1475.44 1114.63 1468.33 Q1114.63 1461.2 1112.8 1457.66 Q1111 1454.1 1107.36 1454.1 M1107.36 1450.39 Q1113.17 1450.39 1116.23 1455 Q1119.31 1459.58 1119.31 1468.33 Q1119.31 1477.06 1116.23 1481.67 Q1113.17 1486.25 1107.36 1486.25 Q1101.55 1486.25 1098.47 1481.67 Q1095.42 1477.06 1095.42 1468.33 Q1095.42 1459.58 1098.47 1455 Q1101.55 1450.39 1107.36 1450.39 Z" fill="#000000" fill-rule="nonzero" fill-opacity="1"></path><path clip-path="url(#clip250)" d="M1137.52 1454.1 Q1133.91 1454.1 1132.08 1457.66 Q1130.28 1461.2 1130.28 1468.33 Q1130.28 1475.44 1132.08 1479.01 Q1133.91 1482.55 1137.52 1482.55 Q1141.16 1482.55 1142.96 1479.01 Q1144.79 1475.44 1144.79 1468.33 Q1144.79 1461.2 1142.96 1457.66 Q1141.16 1454.1 1137.52 1454.1 M1137.52 1450.39 Q1143.33 1450.39 1146.39 1455 Q1149.47 1459.58 1149.47 1468.33 Q1149.47 1477.06 1146.39 1481.67 Q1143.33 1486.25 1137.52 1486.25 Q1131.71 1486.25 1128.63 1481.67 Q1125.58 1477.06 1125.58 1468.33 Q1125.58 1459.58 1128.63 1455 Q1131.71 1450.39 1137.52 1450.39 Z" fill="#000000" fill-rule="nonzero" fill-opacity="1"></path><path clip-path="url(#clip250)" d="M1167.68 1454.1 Q1164.07 1454.1 1162.24 1457.66 Q1160.44 1461.2 1160.44 1468.33 Q1160.44 1475.44 1162.24 1479.01 Q1164.07 1482.55 1167.68 1482.55 Q1171.32 1482.55 1173.12 1479.01 Q1174.95 1475.44 1174.95 1468.33 Q1174.95 1461.2 1173.12 1457.66 Q1171.32 1454.1 1167.68 1454.1 M1167.68 1450.39 Q1173.49 1450.39 1176.55 1455 Q1179.63 1459.58 1179.63 1468.33 Q1179.63 1477.06 1176.55 1481.67 Q1173.49 1486.25 1167.68 1486.25 Q1161.87 1486.25 1158.8 1481.67 Q1155.74 1477.06 1155.74 1468.33 Q1155.74 1459.58 1158.8 1455 Q1161.87 1450.39 1167.68 1450.39 Z" fill="#000000" fill-rule="nonzero" fill-opacity="1"></path><path clip-path="url(#clip250)" d="M1505.53 1481.64 L1513.17 1481.64 L1513.17 1455.28 L1504.86 1456.95 L1504.86 1452.69 L1513.13 1451.02 L1517.8 1451.02 L1517.8 1481.64 L1525.44 1481.64 L1525.44 1485.58 L1505.53 1485.58 L1505.53 1481.64 Z" fill="#000000" fill-rule="nonzero" fill-opacity="1"></path><path clip-path="url(#clip250)" d="M1538.91 1481.64 L1555.23 1481.64 L1555.23 1485.58 L1533.29 1485.58 L1533.29 1481.64 Q1535.95 1478.89 1540.53 1474.26 Q1545.14 1469.61 1546.32 1468.27 Q1548.57 1465.74 1549.45 1464.01 Q1550.35 1462.25 1550.35 1460.56 Q1550.35 1457.8 1548.41 1456.07 Q1546.48 1454.33 1543.38 1454.33 Q1541.18 1454.33 1538.73 1455.09 Q1536.3 1455.86 1533.52 1457.41 L1533.52 1452.69 Q1536.35 1451.55 1538.8 1450.97 Q1541.25 1450.39 1543.29 1450.39 Q1548.66 1450.39 1551.85 1453.08 Q1555.05 1455.77 1555.05 1460.26 Q1555.05 1462.39 1554.24 1464.31 Q1553.45 1466.2 1551.34 1468.8 Q1550.77 1469.47 1547.66 1472.69 Q1544.56 1475.88 1538.91 1481.64 Z" fill="#000000" fill-rule="nonzero" fill-opacity="1"></path><path clip-path="url(#clip250)" d="M1565.09 1451.02 L1583.45 1451.02 L1583.45 1454.96 L1569.38 1454.96 L1569.38 1463.43 Q1570.4 1463.08 1571.41 1462.92 Q1572.43 1462.73 1573.45 1462.73 Q1579.24 1462.73 1582.62 1465.9 Q1586 1469.08 1586 1474.49 Q1586 1480.07 1582.53 1483.17 Q1579.05 1486.25 1572.73 1486.25 Q1570.56 1486.25 1568.29 1485.88 Q1566.04 1485.51 1563.64 1484.77 L1563.64 1480.07 Q1565.72 1481.2 1567.94 1481.76 Q1570.16 1482.32 1572.64 1482.32 Q1576.65 1482.32 1578.98 1480.21 Q1581.32 1478.1 1581.32 1474.49 Q1581.32 1470.88 1578.98 1468.77 Q1576.65 1466.67 1572.64 1466.67 Q1570.77 1466.67 1568.89 1467.08 Q1567.04 1467.5 1565.09 1468.38 L1565.09 1451.02 Z" fill="#000000" fill-rule="nonzero" fill-opacity="1"></path><path clip-path="url(#clip250)" d="M1605.21 1454.1 Q1601.6 1454.1 1599.77 1457.66 Q1597.97 1461.2 1597.97 1468.33 Q1597.97 1475.44 1599.77 1479.01 Q1601.6 1482.55 1605.21 1482.55 Q1608.84 1482.55 1610.65 1479.01 Q1612.48 1475.44 1612.48 1468.33 Q1612.48 1461.2 1610.65 1457.66 Q1608.84 1454.1 1605.21 1454.1 M1605.21 1450.39 Q1611.02 1450.39 1614.08 1455 Q1617.15 1459.58 1617.15 1468.33 Q1617.15 1477.06 1614.08 1481.67 Q1611.02 1486.25 1605.21 1486.25 Q1599.4 1486.25 1596.32 1481.67 Q1593.27 1477.06 1593.27 1468.33 Q1593.27 1459.58 1596.32 1455 Q1599.4 1450.39 1605.21 1450.39 Z" fill="#000000" fill-rule="nonzero" fill-opacity="1"></path><path clip-path="url(#clip250)" d="M1943.06 1481.64 L1950.7 1481.64 L1950.7 1455.28 L1942.39 1456.95 L1942.39 1452.69 L1950.65 1451.02 L1955.33 1451.02 L1955.33 1481.64 L1962.97 1481.64 L1962.97 1485.58 L1943.06 1485.58 L1943.06 1481.64 Z" fill="#000000" fill-rule="nonzero" fill-opacity="1"></path><path clip-path="url(#clip250)" d="M1972.46 1451.02 L1990.82 1451.02 L1990.82 1454.96 L1976.74 1454.96 L1976.74 1463.43 Q1977.76 1463.08 1978.78 1462.92 Q1979.8 1462.73 1980.82 1462.73 Q1986.6 1462.73 1989.98 1465.9 Q1993.36 1469.08 1993.36 1474.49 Q1993.36 1480.07 1989.89 1483.17 Q1986.42 1486.25 1980.1 1486.25 Q1977.92 1486.25 1975.65 1485.88 Q1973.41 1485.51 1971 1484.77 L1971 1480.07 Q1973.08 1481.2 1975.31 1481.76 Q1977.53 1482.32 1980.01 1482.32 Q1984.01 1482.32 1986.35 1480.21 Q1988.69 1478.1 1988.69 1474.49 Q1988.69 1470.88 1986.35 1468.77 Q1984.01 1466.67 1980.01 1466.67 Q1978.13 1466.67 1976.26 1467.08 Q1974.4 1467.5 1972.46 1468.38 L1972.46 1451.02 Z" fill="#000000" fill-rule="nonzero" fill-opacity="1"></path><path clip-path="url(#clip250)" d="M2012.57 1454.1 Q2008.96 1454.1 2007.13 1457.66 Q2005.33 1461.2 2005.33 1468.33 Q2005.33 1475.44 2007.13 1479.01 Q2008.96 1482.55 2012.57 1482.55 Q2016.21 1482.55 2018.01 1479.01 Q2019.84 1475.44 2019.84 1468.33 Q2019.84 1461.2 2018.01 1457.66 Q2016.21 1454.1 2012.57 1454.1 M2012.57 1450.39 Q2018.38 1450.39 2021.44 1455 Q2024.52 1459.58 2024.52 1468.33 Q2024.52 1477.06 2021.44 1481.67 Q2018.38 1486.25 2012.57 1486.25 Q2006.76 1486.25 2003.69 1481.67 Q2000.63 1477.06 2000.63 1468.33 Q2000.63 1459.58 2003.69 1455 Q2006.76 1450.39 2012.57 1450.39 Z" fill="#000000" fill-rule="nonzero" fill-opacity="1"></path><path clip-path="url(#clip250)" d="M2042.74 1454.1 Q2039.13 1454.1 2037.3 1457.66 Q2035.49 1461.2 2035.49 1468.33 Q2035.49 1475.44 2037.3 1479.01 Q2039.13 1482.55 2042.74 1482.55 Q2046.37 1482.55 2048.18 1479.01 Q2050 1475.44 2050 1468.33 Q2050 1461.2 2048.18 1457.66 Q2046.37 1454.1 2042.74 1454.1 M2042.74 1450.39 Q2048.55 1450.39 2051.6 1455 Q2054.68 1459.58 2054.68 1468.33 Q2054.68 1477.06 2051.6 1481.67 Q2048.55 1486.25 2042.74 1486.25 Q2036.93 1486.25 2033.85 1481.67 Q2030.79 1477.06 2030.79 1468.33 Q2030.79 1459.58 2033.85 1455 Q2036.93 1450.39 2042.74 1450.39 Z" fill="#000000" fill-rule="nonzero" fill-opacity="1"></path><path clip-path="url(#clip250)" d="M942.845 1520.52 L952.425 1520.52 L964.552 1552.86 L976.742 1520.52 L986.323 1520.52 L986.323 1568.04 L980.053 1568.04 L980.053 1526.32 L967.799 1558.91 L961.337 1558.91 L949.083 1526.32 L949.083 1568.04 L942.845 1568.04 L942.845 1520.52 Z" fill="#000000" fill-rule="nonzero" fill-opacity="1"></path><path clip-path="url(#clip250)" d="M998.831 1532.4 L1004.69 1532.4 L1004.69 1568.04 L998.831 1568.04 L998.831 1532.4 M998.831 1518.52 L1004.69 1518.52 L1004.69 1525.93 L998.831 1525.93 L998.831 1518.52 Z" fill="#000000" fill-rule="nonzero" fill-opacity="1"></path><path clip-path="url(#clip250)" d="M1046.57 1532.4 L1033.68 1549.74 L1047.24 1568.04 L1040.34 1568.04 L1029.96 1554.04 L1019.58 1568.04 L1012.68 1568.04 L1026.52 1549.39 L1013.85 1532.4 L1020.76 1532.4 L1030.21 1545.1 L1039.67 1532.4 L1046.57 1532.4 Z" fill="#000000" fill-rule="nonzero" fill-opacity="1"></path><path clip-path="url(#clip250)" d="M1055.52 1532.4 L1061.37 1532.4 L1061.37 1568.04 L1055.52 1568.04 L1055.52 1532.4 M1055.52 1518.52 L1061.37 1518.52 L1061.37 1525.93 L1055.52 1525.93 L1055.52 1518.52 Z" fill="#000000" fill-rule="nonzero" fill-opacity="1"></path><path clip-path="url(#clip250)" d="M1103.26 1546.53 L1103.26 1568.04 L1097.4 1568.04 L1097.4 1546.72 Q1097.4 1541.66 1095.43 1539.14 Q1093.46 1536.63 1089.51 1536.63 Q1084.77 1536.63 1082.03 1539.65 Q1079.29 1542.68 1079.29 1547.9 L1079.29 1568.04 L1073.41 1568.04 L1073.41 1532.4 L1079.29 1532.4 L1079.29 1537.93 Q1081.39 1534.72 1084.23 1533.13 Q1087.09 1531.54 1090.82 1531.54 Q1096.96 1531.54 1100.11 1535.36 Q1103.26 1539.14 1103.26 1546.53 Z" fill="#000000" fill-rule="nonzero" fill-opacity="1"></path><path clip-path="url(#clip250)" d="M1138.4 1549.81 Q1138.4 1543.44 1135.76 1539.94 Q1133.15 1536.44 1128.41 1536.44 Q1123.69 1536.44 1121.05 1539.94 Q1118.44 1543.44 1118.44 1549.81 Q1118.44 1556.14 1121.05 1559.64 Q1123.69 1563.14 1128.41 1563.14 Q1133.15 1563.14 1135.76 1559.64 Q1138.4 1556.14 1138.4 1549.81 M1144.26 1563.62 Q1144.26 1572.72 1140.21 1577.15 Q1136.17 1581.6 1127.83 1581.6 Q1124.75 1581.6 1122.01 1581.13 Q1119.27 1580.68 1116.69 1579.72 L1116.69 1574.03 Q1119.27 1575.43 1121.79 1576.1 Q1124.3 1576.76 1126.91 1576.76 Q1132.67 1576.76 1135.53 1573.74 Q1138.4 1570.75 1138.4 1564.67 L1138.4 1561.77 Q1136.59 1564.92 1133.75 1566.48 Q1130.92 1568.04 1126.97 1568.04 Q1120.42 1568.04 1116.41 1563.05 Q1112.4 1558.05 1112.4 1549.81 Q1112.4 1541.53 1116.41 1536.53 Q1120.42 1531.54 1126.97 1531.54 Q1130.92 1531.54 1133.75 1533.1 Q1136.59 1534.66 1138.4 1537.81 L1138.4 1532.4 L1144.26 1532.4 L1144.26 1563.62 Z" fill="#000000" fill-rule="nonzero" fill-opacity="1"></path><path clip-path="url(#clip250)" d="M1183.72 1525.81 L1183.72 1543.66 L1191.81 1543.66 Q1196.3 1543.66 1198.75 1541.34 Q1201.2 1539.02 1201.2 1534.72 Q1201.2 1530.45 1198.75 1528.13 Q1196.3 1525.81 1191.81 1525.81 L1183.72 1525.81 M1177.29 1520.52 L1191.81 1520.52 Q1199.8 1520.52 1203.87 1524.15 Q1207.98 1527.75 1207.98 1534.72 Q1207.98 1541.75 1203.87 1545.35 Q1199.8 1548.95 1191.81 1548.95 L1183.72 1548.95 L1183.72 1568.04 L1177.29 1568.04 L1177.29 1520.52 Z" fill="#000000" fill-rule="nonzero" fill-opacity="1"></path><path clip-path="url(#clip250)" d="M1235.86 1537.87 Q1234.87 1537.3 1233.69 1537.04 Q1232.55 1536.76 1231.15 1536.76 Q1226.18 1536.76 1223.51 1540 Q1220.87 1543.22 1220.87 1549.27 L1220.87 1568.04 L1214.98 1568.04 L1214.98 1532.4 L1220.87 1532.4 L1220.87 1537.93 Q1222.71 1534.69 1225.67 1533.13 Q1228.63 1531.54 1232.87 1531.54 Q1233.47 1531.54 1234.2 1531.63 Q1234.94 1531.7 1235.83 1531.85 L1235.86 1537.87 Z" fill="#000000" fill-rule="nonzero" fill-opacity="1"></path><path clip-path="url(#clip250)" d="M1271.06 1548.76 L1271.06 1551.62 L1244.13 1551.62 Q1244.52 1557.67 1247.76 1560.85 Q1251.04 1564 1256.87 1564 Q1260.24 1564 1263.39 1563.17 Q1266.57 1562.35 1269.69 1560.69 L1269.69 1566.23 Q1266.54 1567.57 1263.23 1568.27 Q1259.92 1568.97 1256.52 1568.97 Q1247.99 1568.97 1242.99 1564 Q1238.02 1559.04 1238.02 1550.57 Q1238.02 1541.82 1242.73 1536.69 Q1247.48 1531.54 1255.5 1531.54 Q1262.69 1531.54 1266.86 1536.18 Q1271.06 1540.8 1271.06 1548.76 M1265.2 1547.04 Q1265.14 1542.23 1262.5 1539.37 Q1259.89 1536.5 1255.56 1536.5 Q1250.66 1536.5 1247.7 1539.27 Q1244.77 1542.04 1244.32 1547.07 L1265.2 1547.04 Z" fill="#000000" fill-rule="nonzero" fill-opacity="1"></path><path clip-path="url(#clip250)" d="M1303.4 1533.45 L1303.4 1538.98 Q1300.92 1537.71 1298.24 1537.07 Q1295.57 1536.44 1292.7 1536.44 Q1288.34 1536.44 1286.15 1537.77 Q1283.98 1539.11 1283.98 1541.79 Q1283.98 1543.82 1285.54 1545 Q1287.1 1546.15 1291.81 1547.2 L1293.82 1547.64 Q1300.06 1548.98 1302.67 1551.43 Q1305.31 1553.85 1305.31 1558.21 Q1305.31 1563.17 1301.36 1566.07 Q1297.45 1568.97 1290.57 1568.97 Q1287.71 1568.97 1284.59 1568.39 Q1281.5 1567.85 1278.06 1566.74 L1278.06 1560.69 Q1281.31 1562.38 1284.46 1563.24 Q1287.61 1564.07 1290.7 1564.07 Q1294.84 1564.07 1297.06 1562.66 Q1299.29 1561.23 1299.29 1558.65 Q1299.29 1556.27 1297.67 1554.99 Q1296.08 1553.72 1290.64 1552.54 L1288.6 1552.07 Q1283.16 1550.92 1280.74 1548.56 Q1278.32 1546.18 1278.32 1542.04 Q1278.32 1537.01 1281.88 1534.27 Q1285.45 1531.54 1292 1531.54 Q1295.25 1531.54 1298.12 1532.01 Q1300.98 1532.49 1303.4 1533.45 Z" fill="#000000" fill-rule="nonzero" fill-opacity="1"></path><path clip-path="url(#clip250)" d="M1337.36 1533.45 L1337.36 1538.98 Q1334.88 1537.71 1332.2 1537.07 Q1329.53 1536.44 1326.67 1536.44 Q1322.3 1536.44 1320.11 1537.77 Q1317.94 1539.11 1317.94 1541.79 Q1317.94 1543.82 1319.5 1545 Q1321.06 1546.15 1325.77 1547.2 L1327.78 1547.64 Q1334.02 1548.98 1336.63 1551.43 Q1339.27 1553.85 1339.27 1558.21 Q1339.27 1563.17 1335.32 1566.07 Q1331.41 1568.97 1324.53 1568.97 Q1321.67 1568.97 1318.55 1568.39 Q1315.46 1567.85 1312.02 1566.74 L1312.02 1560.69 Q1315.27 1562.38 1318.42 1563.24 Q1321.57 1564.07 1324.66 1564.07 Q1328.8 1564.07 1331.03 1562.66 Q1333.25 1561.23 1333.25 1558.65 Q1333.25 1556.27 1331.63 1554.99 Q1330.04 1553.72 1324.6 1552.54 L1322.56 1552.07 Q1317.12 1550.92 1314.7 1548.56 Q1312.28 1546.18 1312.28 1542.04 Q1312.28 1537.01 1315.84 1534.27 Q1319.41 1531.54 1325.97 1531.54 Q1329.21 1531.54 1332.08 1532.01 Q1334.94 1532.49 1337.36 1533.45 Z" fill="#000000" fill-rule="nonzero" fill-opacity="1"></path><path clip-path="url(#clip250)" d="M1347.99 1553.98 L1347.99 1532.4 L1353.85 1532.4 L1353.85 1553.75 Q1353.85 1558.81 1355.82 1561.36 Q1357.79 1563.87 1361.74 1563.87 Q1366.48 1563.87 1369.22 1560.85 Q1371.99 1557.83 1371.99 1552.61 L1371.99 1532.4 L1377.85 1532.4 L1377.85 1568.04 L1371.99 1568.04 L1371.99 1562.57 Q1369.86 1565.82 1367.02 1567.41 Q1364.22 1568.97 1360.5 1568.97 Q1354.36 1568.97 1351.17 1565.15 Q1347.99 1561.33 1347.99 1553.98 M1362.73 1531.54 L1362.73 1531.54 Z" fill="#000000" fill-rule="nonzero" fill-opacity="1"></path><path clip-path="url(#clip250)" d="M1410.57 1537.87 Q1409.58 1537.3 1408.4 1537.04 Q1407.26 1536.76 1405.85 1536.76 Q1400.89 1536.76 1398.22 1540 Q1395.57 1543.22 1395.57 1549.27 L1395.57 1568.04 L1389.69 1568.04 L1389.69 1532.4 L1395.57 1532.4 L1395.57 1537.93 Q1397.42 1534.69 1400.38 1533.13 Q1403.34 1531.54 1407.57 1531.54 Q1408.18 1531.54 1408.91 1531.63 Q1409.64 1531.7 1410.53 1531.85 L1410.57 1537.87 Z" fill="#000000" fill-rule="nonzero" fill-opacity="1"></path><path clip-path="url(#clip250)" d="M1445.77 1548.76 L1445.77 1551.62 L1418.84 1551.62 Q1419.22 1557.67 1422.47 1560.85 Q1425.75 1564 1431.57 1564 Q1434.95 1564 1438.1 1563.17 Q1441.28 1562.35 1444.4 1560.69 L1444.4 1566.23 Q1441.25 1567.57 1437.94 1568.27 Q1434.63 1568.97 1431.22 1568.97 Q1422.69 1568.97 1417.69 1564 Q1412.73 1559.04 1412.73 1550.57 Q1412.73 1541.82 1417.44 1536.69 Q1422.18 1531.54 1430.2 1531.54 Q1437.4 1531.54 1441.57 1536.18 Q1445.77 1540.8 1445.77 1548.76 M1439.91 1547.04 Q1439.85 1542.23 1437.21 1539.37 Q1434.6 1536.5 1430.27 1536.5 Q1425.37 1536.5 1422.41 1539.27 Q1419.48 1542.04 1419.03 1547.07 L1439.91 1547.04 Z" fill="#000000" fill-rule="nonzero" fill-opacity="1"></path><path clip-path="url(#clip250)" d="M1475.56 1518.52 L1489.05 1518.52 L1489.05 1523.07 L1481.42 1523.07 L1481.42 1572.09 L1489.05 1572.09 L1489.05 1576.64 L1475.56 1576.64 L1475.56 1518.52 Z" fill="#000000" fill-rule="nonzero" fill-opacity="1"></path><path clip-path="url(#clip250)" d="M1501.31 1518.52 L1507.2 1518.52 L1507.2 1547.77 L1524.67 1532.4 L1532.15 1532.4 L1513.24 1549.07 L1532.95 1568.04 L1525.31 1568.04 L1507.2 1550.63 L1507.2 1568.04 L1501.31 1568.04 L1501.31 1518.52 Z" fill="#000000" fill-rule="nonzero" fill-opacity="1"></path><path clip-path="url(#clip250)" d="M1545.96 1525.81 L1545.96 1543.66 L1554.05 1543.66 Q1558.54 1543.66 1560.99 1541.34 Q1563.44 1539.02 1563.44 1534.72 Q1563.44 1530.45 1560.99 1528.13 Q1558.54 1525.81 1554.05 1525.81 L1545.96 1525.81 M1539.53 1520.52 L1554.05 1520.52 Q1562.04 1520.52 1566.11 1524.15 Q1570.22 1527.75 1570.22 1534.72 Q1570.22 1541.75 1566.11 1545.35 Q1562.04 1548.95 1554.05 1548.95 L1545.96 1548.95 L1545.96 1568.04 L1539.53 1568.04 L1539.53 1520.52 Z" fill="#000000" fill-rule="nonzero" fill-opacity="1"></path><path clip-path="url(#clip250)" d="M1591.86 1550.12 Q1584.76 1550.12 1582.03 1551.75 Q1579.29 1553.37 1579.29 1557.29 Q1579.29 1560.4 1581.33 1562.25 Q1583.39 1564.07 1586.93 1564.07 Q1591.8 1564.07 1594.73 1560.63 Q1597.69 1557.16 1597.69 1551.43 L1597.69 1550.12 L1591.86 1550.12 M1603.54 1547.71 L1603.54 1568.04 L1597.69 1568.04 L1597.69 1562.63 Q1595.68 1565.88 1592.69 1567.44 Q1589.7 1568.97 1585.37 1568.97 Q1579.89 1568.97 1576.65 1565.91 Q1573.43 1562.82 1573.43 1557.67 Q1573.43 1551.65 1577.44 1548.6 Q1581.48 1545.54 1589.47 1545.54 L1597.69 1545.54 L1597.69 1544.97 Q1597.69 1540.93 1595.01 1538.73 Q1592.37 1536.5 1587.56 1536.5 Q1584.51 1536.5 1581.61 1537.23 Q1578.72 1537.97 1576.04 1539.43 L1576.04 1534.02 Q1579.26 1532.78 1582.28 1532.17 Q1585.3 1531.54 1588.17 1531.54 Q1595.9 1531.54 1599.72 1535.55 Q1603.54 1539.56 1603.54 1547.71 Z" fill="#000000" fill-rule="nonzero" fill-opacity="1"></path><path clip-path="url(#clip250)" d="M1629.29 1518.52 L1629.29 1576.64 L1615.8 1576.64 L1615.8 1572.09 L1623.4 1572.09 L1623.4 1523.07 L1615.8 1523.07 L1615.8 1518.52 L1629.29 1518.52 Z" fill="#000000" fill-rule="nonzero" fill-opacity="1"></path><polyline clip-path="url(#clip252)" style="stroke:#000000; stroke-linecap:round; stroke-linejoin:round; stroke-width:2; stroke-opacity:0.1; fill:none" points="219.38,1332.57 2352.76,1332.57 "></polyline>
<polyline clip-path="url(#clip252)" style="stroke:#000000; stroke-linecap:round; stroke-linejoin:round; stroke-width:2; stroke-opacity:0.1; fill:none" points="219.38,980.969 2352.76,980.969 "></polyline>
<polyline clip-path="url(#clip252)" style="stroke:#000000; stroke-linecap:round; stroke-linejoin:round; stroke-width:2; stroke-opacity:0.1; fill:none" points="219.38,629.37 2352.76,629.37 "></polyline>
<polyline clip-path="url(#clip252)" style="stroke:#000000; stroke-linecap:round; stroke-linejoin:round; stroke-width:2; stroke-opacity:0.1; fill:none" points="219.38,277.771 2352.76,277.771 "></polyline>
<polyline clip-path="url(#clip250)" style="stroke:#000000; stroke-linecap:round; stroke-linejoin:round; stroke-width:4; stroke-opacity:1; fill:none" points="219.38,1423.18 219.38,47.2441 "></polyline>
<polyline clip-path="url(#clip250)" style="stroke:#000000; stroke-linecap:round; stroke-linejoin:round; stroke-width:4; stroke-opacity:1; fill:none" points="219.38,1332.57 238.278,1332.57 "></polyline>
<polyline clip-path="url(#clip250)" style="stroke:#000000; stroke-linecap:round; stroke-linejoin:round; stroke-width:4; stroke-opacity:1; fill:none" points="219.38,980.969 238.278,980.969 "></polyline>
<polyline clip-path="url(#clip250)" style="stroke:#000000; stroke-linecap:round; stroke-linejoin:round; stroke-width:4; stroke-opacity:1; fill:none" points="219.38,629.37 238.278,629.37 "></polyline>
<polyline clip-path="url(#clip250)" style="stroke:#000000; stroke-linecap:round; stroke-linejoin:round; stroke-width:4; stroke-opacity:1; fill:none" points="219.38,277.771 238.278,277.771 "></polyline>
<path clip-path="url(#clip250)" d="M130.371 1331.21 Q133.728 1331.93 135.603 1334.2 Q137.501 1336.47 137.501 1339.8 Q137.501 1344.92 133.982 1347.72 Q130.464 1350.52 123.982 1350.52 Q121.806 1350.52 119.492 1350.08 Q117.2 1349.66 114.746 1348.81 L114.746 1344.29 Q116.691 1345.43 119.006 1346.01 Q121.32 1346.58 123.843 1346.58 Q128.242 1346.58 130.533 1344.85 Q132.848 1343.11 132.848 1339.8 Q132.848 1336.75 130.695 1335.03 Q128.566 1333.3 124.746 1333.3 L120.718 1333.3 L120.718 1329.45 L124.931 1329.45 Q128.38 1329.45 130.209 1328.09 Q132.038 1326.7 132.038 1324.11 Q132.038 1321.45 130.14 1320.03 Q128.265 1318.6 124.746 1318.6 Q122.825 1318.6 120.626 1319.01 Q118.427 1319.43 115.788 1320.31 L115.788 1316.14 Q118.45 1315.4 120.765 1315.03 Q123.103 1314.66 125.163 1314.66 Q130.487 1314.66 133.589 1317.09 Q136.691 1319.5 136.691 1323.62 Q136.691 1326.49 135.047 1328.48 Q133.404 1330.45 130.371 1331.21 Z" fill="#000000" fill-rule="nonzero" fill-opacity="1"></path><path clip-path="url(#clip250)" d="M146.366 1343.97 L151.251 1343.97 L151.251 1349.85 L146.366 1349.85 L146.366 1343.97 Z" fill="#000000" fill-rule="nonzero" fill-opacity="1"></path><path clip-path="url(#clip250)" d="M171.436 1318.37 Q167.825 1318.37 165.996 1321.93 Q164.19 1325.47 164.19 1332.6 Q164.19 1339.71 165.996 1343.27 Q167.825 1346.82 171.436 1346.82 Q175.07 1346.82 176.876 1343.27 Q178.704 1339.71 178.704 1332.6 Q178.704 1325.47 176.876 1321.93 Q175.07 1318.37 171.436 1318.37 M171.436 1314.66 Q177.246 1314.66 180.301 1319.27 Q183.38 1323.85 183.38 1332.6 Q183.38 1341.33 180.301 1345.94 Q177.246 1350.52 171.436 1350.52 Q165.626 1350.52 162.547 1345.94 Q159.491 1341.33 159.491 1332.6 Q159.491 1323.85 162.547 1319.27 Q165.626 1314.66 171.436 1314.66 Z" fill="#000000" fill-rule="nonzero" fill-opacity="1"></path><path clip-path="url(#clip250)" d="M131.968 979.615 Q135.325 980.332 137.2 982.601 Q139.098 984.869 139.098 988.203 Q139.098 993.318 135.579 996.119 Q132.061 998.92 125.58 998.92 Q123.404 998.92 121.089 998.48 Q118.797 998.064 116.343 997.207 L116.343 992.693 Q118.288 993.828 120.603 994.406 Q122.918 994.985 125.441 994.985 Q129.839 994.985 132.13 993.249 Q134.445 991.513 134.445 988.203 Q134.445 985.147 132.292 983.434 Q130.163 981.698 126.343 981.698 L122.316 981.698 L122.316 977.855 L126.529 977.855 Q129.978 977.855 131.806 976.49 Q133.635 975.101 133.635 972.508 Q133.635 969.846 131.737 968.434 Q129.862 966.999 126.343 966.999 Q124.422 966.999 122.223 967.416 Q120.024 967.832 117.385 968.712 L117.385 964.545 Q120.047 963.805 122.362 963.434 Q124.7 963.064 126.76 963.064 Q132.084 963.064 135.186 965.494 Q138.288 967.902 138.288 972.022 Q138.288 974.893 136.644 976.883 Q135.001 978.851 131.968 979.615 Z" fill="#000000" fill-rule="nonzero" fill-opacity="1"></path><path clip-path="url(#clip250)" d="M147.964 992.369 L152.848 992.369 L152.848 998.249 L147.964 998.249 L147.964 992.369 Z" fill="#000000" fill-rule="nonzero" fill-opacity="1"></path><path clip-path="url(#clip250)" d="M167.061 994.314 L183.38 994.314 L183.38 998.249 L161.436 998.249 L161.436 994.314 Q164.098 991.559 168.681 986.93 Q173.288 982.277 174.468 980.934 Q176.714 978.411 177.593 976.675 Q178.496 974.916 178.496 973.226 Q178.496 970.471 176.551 968.735 Q174.63 966.999 171.528 966.999 Q169.329 966.999 166.876 967.763 Q164.445 968.527 161.667 970.078 L161.667 965.356 Q164.491 964.221 166.945 963.643 Q169.399 963.064 171.436 963.064 Q176.806 963.064 180.001 965.749 Q183.195 968.434 183.195 972.925 Q183.195 975.055 182.385 976.976 Q181.598 978.874 179.491 981.467 Q178.913 982.138 175.811 985.355 Q172.709 988.55 167.061 994.314 Z" fill="#000000" fill-rule="nonzero" fill-opacity="1"></path><path clip-path="url(#clip250)" d="M129.885 628.016 Q133.242 628.733 135.117 631.002 Q137.015 633.27 137.015 636.604 Q137.015 641.719 133.496 644.52 Q129.978 647.321 123.496 647.321 Q121.32 647.321 119.006 646.881 Q116.714 646.465 114.26 645.608 L114.26 641.094 Q116.205 642.229 118.519 642.807 Q120.834 643.386 123.357 643.386 Q127.755 643.386 130.047 641.65 Q132.362 639.914 132.362 636.604 Q132.362 633.548 130.209 631.835 Q128.08 630.099 124.26 630.099 L120.232 630.099 L120.232 626.256 L124.445 626.256 Q127.894 626.256 129.723 624.891 Q131.552 623.502 131.552 620.909 Q131.552 618.247 129.654 616.835 Q127.779 615.4 124.26 615.4 Q122.339 615.4 120.14 615.817 Q117.941 616.233 115.302 617.113 L115.302 612.946 Q117.964 612.206 120.279 611.835 Q122.617 611.465 124.677 611.465 Q130.001 611.465 133.103 613.895 Q136.204 616.303 136.204 620.423 Q136.204 623.294 134.561 625.284 Q132.917 627.252 129.885 628.016 Z" fill="#000000" fill-rule="nonzero" fill-opacity="1"></path><path clip-path="url(#clip250)" d="M145.88 640.77 L150.765 640.77 L150.765 646.65 L145.88 646.65 L145.88 640.77 Z" fill="#000000" fill-rule="nonzero" fill-opacity="1"></path><path clip-path="url(#clip250)" d="M173.797 616.164 L161.991 634.613 L173.797 634.613 L173.797 616.164 M172.57 612.09 L178.45 612.09 L178.45 634.613 L183.38 634.613 L183.38 638.502 L178.45 638.502 L178.45 646.65 L173.797 646.65 L173.797 638.502 L158.195 638.502 L158.195 633.988 L172.57 612.09 Z" fill="#000000" fill-rule="nonzero" fill-opacity="1"></path><path clip-path="url(#clip250)" d="M130.209 276.417 Q133.566 277.134 135.441 279.403 Q137.339 281.671 137.339 285.005 Q137.339 290.12 133.82 292.921 Q130.302 295.722 123.82 295.722 Q121.644 295.722 119.33 295.282 Q117.038 294.866 114.584 294.009 L114.584 289.495 Q116.529 290.63 118.843 291.208 Q121.158 291.787 123.681 291.787 Q128.08 291.787 130.371 290.051 Q132.686 288.315 132.686 285.005 Q132.686 281.949 130.533 280.236 Q128.404 278.5 124.584 278.5 L120.556 278.5 L120.556 274.657 L124.769 274.657 Q128.218 274.657 130.047 273.292 Q131.876 271.903 131.876 269.31 Q131.876 266.648 129.978 265.236 Q128.103 263.801 124.584 263.801 Q122.663 263.801 120.464 264.218 Q118.265 264.634 115.626 265.514 L115.626 261.347 Q118.288 260.607 120.603 260.236 Q122.941 259.866 125.001 259.866 Q130.325 259.866 133.427 262.296 Q136.529 264.704 136.529 268.824 Q136.529 271.694 134.885 273.685 Q133.242 275.653 130.209 276.417 Z" fill="#000000" fill-rule="nonzero" fill-opacity="1"></path><path clip-path="url(#clip250)" d="M146.204 289.171 L151.089 289.171 L151.089 295.051 L146.204 295.051 L146.204 289.171 Z" fill="#000000" fill-rule="nonzero" fill-opacity="1"></path><path clip-path="url(#clip250)" d="M171.852 275.907 Q168.704 275.907 166.852 278.06 Q165.024 280.213 165.024 283.963 Q165.024 287.69 166.852 289.866 Q168.704 292.018 171.852 292.018 Q175.001 292.018 176.829 289.866 Q178.681 287.69 178.681 283.963 Q178.681 280.213 176.829 278.06 Q175.001 275.907 171.852 275.907 M181.135 261.255 L181.135 265.514 Q179.376 264.681 177.57 264.241 Q175.788 263.801 174.028 263.801 Q169.399 263.801 166.945 266.926 Q164.515 270.051 164.167 276.37 Q165.533 274.356 167.593 273.292 Q169.653 272.204 172.13 272.204 Q177.339 272.204 180.348 275.375 Q183.38 278.523 183.38 283.963 Q183.38 289.287 180.232 292.505 Q177.084 295.722 171.852 295.722 Q165.857 295.722 162.686 291.139 Q159.515 286.532 159.515 277.806 Q159.515 269.611 163.403 264.75 Q167.292 259.866 173.843 259.866 Q175.602 259.866 177.385 260.213 Q179.19 260.56 181.135 261.255 Z" fill="#000000" fill-rule="nonzero" fill-opacity="1"></path><path clip-path="url(#clip250)" d="M20.1444 756.298 L26.9239 756.298 Q23.9002 759.545 22.4043 763.237 Q20.9083 766.897 20.9083 771.035 Q20.9083 779.183 25.9054 783.512 Q30.8707 787.84 40.2919 787.84 Q49.6813 787.84 54.6784 783.512 Q59.6436 779.183 59.6436 771.035 Q59.6436 766.897 58.1477 763.237 Q56.6518 759.545 53.6281 756.298 L60.3439 756.298 Q62.6355 759.672 63.7814 763.46 Q64.9272 767.216 64.9272 771.417 Q64.9272 782.207 58.3387 788.413 Q51.7183 794.62 40.2919 794.62 Q28.8336 794.62 22.2451 788.413 Q15.6248 782.207 15.6248 771.417 Q15.6248 767.152 16.7706 763.396 Q17.8846 759.609 20.1444 756.298 Z" fill="#000000" fill-rule="nonzero" fill-opacity="1"></path><path clip-path="url(#clip250)" d="M32.4621 732.809 Q32.4621 737.52 36.1542 740.257 Q39.8145 742.994 46.212 742.994 Q52.6095 742.994 56.3017 740.289 Q59.9619 737.551 59.9619 732.809 Q59.9619 728.13 56.2698 725.393 Q52.5777 722.656 46.212 722.656 Q39.8781 722.656 36.186 725.393 Q32.4621 728.13 32.4621 732.809 M27.4968 732.809 Q27.4968 725.17 32.4621 720.81 Q37.4273 716.449 46.212 716.449 Q54.9649 716.449 59.9619 720.81 Q64.9272 725.17 64.9272 732.809 Q64.9272 740.48 59.9619 744.84 Q54.9649 749.169 46.212 749.169 Q37.4273 749.169 32.4621 744.84 Q27.4968 740.48 27.4968 732.809 Z" fill="#000000" fill-rule="nonzero" fill-opacity="1"></path><path clip-path="url(#clip250)" d="M21.7677 700.057 L39.6235 700.057 L39.6235 691.973 Q39.6235 687.485 37.3 685.034 Q34.9765 682.583 30.6797 682.583 Q26.4147 682.583 24.0912 685.034 Q21.7677 687.485 21.7677 691.973 L21.7677 700.057 M16.4842 706.487 L16.4842 691.973 Q16.4842 683.984 20.1126 679.91 Q23.7092 675.804 30.6797 675.804 Q37.7138 675.804 41.3104 679.91 Q44.907 683.984 44.907 691.973 L44.907 700.057 L64.0042 700.057 L64.0042 706.487 L16.4842 706.487 Z" fill="#000000" fill-rule="nonzero" fill-opacity="1"></path><circle clip-path="url(#clip252)" cx="279.759" cy="100.6" r="14.4" fill="#009af9" fill-rule="evenodd" fill-opacity="1" stroke="#000000" stroke-opacity="1" stroke-width="3.2"></circle>
<circle clip-path="url(#clip252)" cx="297.26" cy="100.9" r="14.4" fill="#009af9" fill-rule="evenodd" fill-opacity="1" stroke="#000000" stroke-opacity="1" stroke-width="3.2"></circle>
<circle clip-path="url(#clip252)" cx="314.761" cy="101.226" r="14.4" fill="#009af9" fill-rule="evenodd" fill-opacity="1" stroke="#000000" stroke-opacity="1" stroke-width="3.2"></circle>
<circle clip-path="url(#clip252)" cx="332.262" cy="101.588" r="14.4" fill="#009af9" fill-rule="evenodd" fill-opacity="1" stroke="#000000" stroke-opacity="1" stroke-width="3.2"></circle>
<circle clip-path="url(#clip252)" cx="349.763" cy="101.955" r="14.4" fill="#009af9" fill-rule="evenodd" fill-opacity="1" stroke="#000000" stroke-opacity="1" stroke-width="3.2"></circle>
<circle clip-path="url(#clip252)" cx="367.264" cy="102.319" r="14.4" fill="#009af9" fill-rule="evenodd" fill-opacity="1" stroke="#000000" stroke-opacity="1" stroke-width="3.2"></circle>
<circle clip-path="url(#clip252)" cx="384.765" cy="102.725" r="14.4" fill="#009af9" fill-rule="evenodd" fill-opacity="1" stroke="#000000" stroke-opacity="1" stroke-width="3.2"></circle>
<circle clip-path="url(#clip252)" cx="402.266" cy="143.587" r="14.4" fill="#009af9" fill-rule="evenodd" fill-opacity="1" stroke="#000000" stroke-opacity="1" stroke-width="3.2"></circle>
<circle clip-path="url(#clip252)" cx="419.767" cy="144" r="14.4" fill="#009af9" fill-rule="evenodd" fill-opacity="1" stroke="#000000" stroke-opacity="1" stroke-width="3.2"></circle>
<circle clip-path="url(#clip252)" cx="437.268" cy="86.1857" r="14.4" fill="#009af9" fill-rule="evenodd" fill-opacity="1" stroke="#000000" stroke-opacity="1" stroke-width="3.2"></circle>
<circle clip-path="url(#clip252)" cx="454.769" cy="86.655" r="14.4" fill="#009af9" fill-rule="evenodd" fill-opacity="1" stroke="#000000" stroke-opacity="1" stroke-width="3.2"></circle>
<circle clip-path="url(#clip252)" cx="472.27" cy="87.1321" r="14.4" fill="#009af9" fill-rule="evenodd" fill-opacity="1" stroke="#000000" stroke-opacity="1" stroke-width="3.2"></circle>
<circle clip-path="url(#clip252)" cx="489.771" cy="128.159" r="14.4" fill="#009af9" fill-rule="evenodd" fill-opacity="1" stroke="#000000" stroke-opacity="1" stroke-width="3.2"></circle>
<circle clip-path="url(#clip252)" cx="507.272" cy="128.659" r="14.4" fill="#009af9" fill-rule="evenodd" fill-opacity="1" stroke="#000000" stroke-opacity="1" stroke-width="3.2"></circle>
<circle clip-path="url(#clip252)" cx="524.773" cy="129.175" r="14.4" fill="#009af9" fill-rule="evenodd" fill-opacity="1" stroke="#000000" stroke-opacity="1" stroke-width="3.2"></circle>
<circle clip-path="url(#clip252)" cx="542.274" cy="129.692" r="14.4" fill="#009af9" fill-rule="evenodd" fill-opacity="1" stroke="#000000" stroke-opacity="1" stroke-width="3.2"></circle>
<circle clip-path="url(#clip252)" cx="559.775" cy="130.233" r="14.4" fill="#009af9" fill-rule="evenodd" fill-opacity="1" stroke="#000000" stroke-opacity="1" stroke-width="3.2"></circle>
<circle clip-path="url(#clip252)" cx="577.276" cy="130.809" r="14.4" fill="#009af9" fill-rule="evenodd" fill-opacity="1" stroke="#000000" stroke-opacity="1" stroke-width="3.2"></circle>
<circle clip-path="url(#clip252)" cx="594.777" cy="131.398" r="14.4" fill="#009af9" fill-rule="evenodd" fill-opacity="1" stroke="#000000" stroke-opacity="1" stroke-width="3.2"></circle>
<circle clip-path="url(#clip252)" cx="612.278" cy="131.943" r="14.4" fill="#009af9" fill-rule="evenodd" fill-opacity="1" stroke="#000000" stroke-opacity="1" stroke-width="3.2"></circle>
<circle clip-path="url(#clip252)" cx="629.779" cy="120.72" r="14.4" fill="#009af9" fill-rule="evenodd" fill-opacity="1" stroke="#000000" stroke-opacity="1" stroke-width="3.2"></circle>
<circle clip-path="url(#clip252)" cx="647.28" cy="121.336" r="14.4" fill="#009af9" fill-rule="evenodd" fill-opacity="1" stroke="#000000" stroke-opacity="1" stroke-width="3.2"></circle>
<circle clip-path="url(#clip252)" cx="664.781" cy="121.95" r="14.4" fill="#009af9" fill-rule="evenodd" fill-opacity="1" stroke="#000000" stroke-opacity="1" stroke-width="3.2"></circle>
<circle clip-path="url(#clip252)" cx="682.282" cy="122.586" r="14.4" fill="#009af9" fill-rule="evenodd" fill-opacity="1" stroke="#000000" stroke-opacity="1" stroke-width="3.2"></circle>
<circle clip-path="url(#clip252)" cx="699.783" cy="123.278" r="14.4" fill="#009af9" fill-rule="evenodd" fill-opacity="1" stroke="#000000" stroke-opacity="1" stroke-width="3.2"></circle>
<circle clip-path="url(#clip252)" cx="717.285" cy="123.919" r="14.4" fill="#009af9" fill-rule="evenodd" fill-opacity="1" stroke="#000000" stroke-opacity="1" stroke-width="3.2"></circle>
<circle clip-path="url(#clip252)" cx="734.786" cy="164.7" r="14.4" fill="#009af9" fill-rule="evenodd" fill-opacity="1" stroke="#000000" stroke-opacity="1" stroke-width="3.2"></circle>
<circle clip-path="url(#clip252)" cx="752.287" cy="165.414" r="14.4" fill="#009af9" fill-rule="evenodd" fill-opacity="1" stroke="#000000" stroke-opacity="1" stroke-width="3.2"></circle>
<circle clip-path="url(#clip252)" cx="769.788" cy="166.166" r="14.4" fill="#009af9" fill-rule="evenodd" fill-opacity="1" stroke="#000000" stroke-opacity="1" stroke-width="3.2"></circle>
<circle clip-path="url(#clip252)" cx="787.289" cy="166.865" r="14.4" fill="#009af9" fill-rule="evenodd" fill-opacity="1" stroke="#000000" stroke-opacity="1" stroke-width="3.2"></circle>
<circle clip-path="url(#clip252)" cx="804.79" cy="167.633" r="14.4" fill="#009af9" fill-rule="evenodd" fill-opacity="1" stroke="#000000" stroke-opacity="1" stroke-width="3.2"></circle>
<circle clip-path="url(#clip252)" cx="822.291" cy="203.74" r="14.4" fill="#009af9" fill-rule="evenodd" fill-opacity="1" stroke="#000000" stroke-opacity="1" stroke-width="3.2"></circle>
<circle clip-path="url(#clip252)" cx="839.792" cy="204.5" r="14.4" fill="#009af9" fill-rule="evenodd" fill-opacity="1" stroke="#000000" stroke-opacity="1" stroke-width="3.2"></circle>
<circle clip-path="url(#clip252)" cx="857.293" cy="205.323" r="14.4" fill="#009af9" fill-rule="evenodd" fill-opacity="1" stroke="#000000" stroke-opacity="1" stroke-width="3.2"></circle>
<circle clip-path="url(#clip252)" cx="874.794" cy="206.134" r="14.4" fill="#009af9" fill-rule="evenodd" fill-opacity="1" stroke="#000000" stroke-opacity="1" stroke-width="3.2"></circle>
<circle clip-path="url(#clip252)" cx="892.295" cy="207.016" r="14.4" fill="#009af9" fill-rule="evenodd" fill-opacity="1" stroke="#000000" stroke-opacity="1" stroke-width="3.2"></circle>
<circle clip-path="url(#clip252)" cx="909.796" cy="196.135" r="14.4" fill="#009af9" fill-rule="evenodd" fill-opacity="1" stroke="#000000" stroke-opacity="1" stroke-width="3.2"></circle>
<circle clip-path="url(#clip252)" cx="927.297" cy="197.032" r="14.4" fill="#009af9" fill-rule="evenodd" fill-opacity="1" stroke="#000000" stroke-opacity="1" stroke-width="3.2"></circle>
<circle clip-path="url(#clip252)" cx="944.798" cy="197.944" r="14.4" fill="#009af9" fill-rule="evenodd" fill-opacity="1" stroke="#000000" stroke-opacity="1" stroke-width="3.2"></circle>
<circle clip-path="url(#clip252)" cx="962.299" cy="198.776" r="14.4" fill="#009af9" fill-rule="evenodd" fill-opacity="1" stroke="#000000" stroke-opacity="1" stroke-width="3.2"></circle>
<circle clip-path="url(#clip252)" cx="979.8" cy="237.105" r="14.4" fill="#009af9" fill-rule="evenodd" fill-opacity="1" stroke="#000000" stroke-opacity="1" stroke-width="3.2"></circle>
<circle clip-path="url(#clip252)" cx="997.301" cy="238.028" r="14.4" fill="#009af9" fill-rule="evenodd" fill-opacity="1" stroke="#000000" stroke-opacity="1" stroke-width="3.2"></circle>
<circle clip-path="url(#clip252)" cx="1014.8" cy="238.953" r="14.4" fill="#009af9" fill-rule="evenodd" fill-opacity="1" stroke="#000000" stroke-opacity="1" stroke-width="3.2"></circle>
<circle clip-path="url(#clip252)" cx="1032.3" cy="239.868" r="14.4" fill="#009af9" fill-rule="evenodd" fill-opacity="1" stroke="#000000" stroke-opacity="1" stroke-width="3.2"></circle>
<circle clip-path="url(#clip252)" cx="1049.8" cy="229.434" r="14.4" fill="#009af9" fill-rule="evenodd" fill-opacity="1" stroke="#000000" stroke-opacity="1" stroke-width="3.2"></circle>
<circle clip-path="url(#clip252)" cx="1067.31" cy="230.43" r="14.4" fill="#009af9" fill-rule="evenodd" fill-opacity="1" stroke="#000000" stroke-opacity="1" stroke-width="3.2"></circle>
<circle clip-path="url(#clip252)" cx="1084.81" cy="231.449" r="14.4" fill="#009af9" fill-rule="evenodd" fill-opacity="1" stroke="#000000" stroke-opacity="1" stroke-width="3.2"></circle>
<circle clip-path="url(#clip252)" cx="1102.31" cy="232.432" r="14.4" fill="#009af9" fill-rule="evenodd" fill-opacity="1" stroke="#000000" stroke-opacity="1" stroke-width="3.2"></circle>
<circle clip-path="url(#clip252)" cx="1119.81" cy="272.322" r="14.4" fill="#009af9" fill-rule="evenodd" fill-opacity="1" stroke="#000000" stroke-opacity="1" stroke-width="3.2"></circle>
<circle clip-path="url(#clip252)" cx="1137.31" cy="273.338" r="14.4" fill="#009af9" fill-rule="evenodd" fill-opacity="1" stroke="#000000" stroke-opacity="1" stroke-width="3.2"></circle>
<circle clip-path="url(#clip252)" cx="1154.81" cy="311.84" r="14.4" fill="#009af9" fill-rule="evenodd" fill-opacity="1" stroke="#000000" stroke-opacity="1" stroke-width="3.2"></circle>
<circle clip-path="url(#clip252)" cx="1172.31" cy="312.919" r="14.4" fill="#009af9" fill-rule="evenodd" fill-opacity="1" stroke="#000000" stroke-opacity="1" stroke-width="3.2"></circle>
<circle clip-path="url(#clip252)" cx="1189.81" cy="297.089" r="14.4" fill="#009af9" fill-rule="evenodd" fill-opacity="1" stroke="#000000" stroke-opacity="1" stroke-width="3.2"></circle>
<circle clip-path="url(#clip252)" cx="1207.31" cy="298.227" r="14.4" fill="#009af9" fill-rule="evenodd" fill-opacity="1" stroke="#000000" stroke-opacity="1" stroke-width="3.2"></circle>
<circle clip-path="url(#clip252)" cx="1224.81" cy="299.41" r="14.4" fill="#009af9" fill-rule="evenodd" fill-opacity="1" stroke="#000000" stroke-opacity="1" stroke-width="3.2"></circle>
<circle clip-path="url(#clip252)" cx="1242.32" cy="289.292" r="14.4" fill="#009af9" fill-rule="evenodd" fill-opacity="1" stroke="#000000" stroke-opacity="1" stroke-width="3.2"></circle>
<circle clip-path="url(#clip252)" cx="1259.82" cy="290.522" r="14.4" fill="#009af9" fill-rule="evenodd" fill-opacity="1" stroke="#000000" stroke-opacity="1" stroke-width="3.2"></circle>
<circle clip-path="url(#clip252)" cx="1277.32" cy="291.933" r="14.4" fill="#009af9" fill-rule="evenodd" fill-opacity="1" stroke="#000000" stroke-opacity="1" stroke-width="3.2"></circle>
<circle clip-path="url(#clip252)" cx="1294.82" cy="329.171" r="14.4" fill="#009af9" fill-rule="evenodd" fill-opacity="1" stroke="#000000" stroke-opacity="1" stroke-width="3.2"></circle>
<circle clip-path="url(#clip252)" cx="1312.32" cy="330.554" r="14.4" fill="#009af9" fill-rule="evenodd" fill-opacity="1" stroke="#000000" stroke-opacity="1" stroke-width="3.2"></circle>
<circle clip-path="url(#clip252)" cx="1329.82" cy="331.842" r="14.4" fill="#009af9" fill-rule="evenodd" fill-opacity="1" stroke="#000000" stroke-opacity="1" stroke-width="3.2"></circle>
<circle clip-path="url(#clip252)" cx="1347.32" cy="322.221" r="14.4" fill="#009af9" fill-rule="evenodd" fill-opacity="1" stroke="#000000" stroke-opacity="1" stroke-width="3.2"></circle>
<circle clip-path="url(#clip252)" cx="1364.82" cy="323.584" r="14.4" fill="#009af9" fill-rule="evenodd" fill-opacity="1" stroke="#000000" stroke-opacity="1" stroke-width="3.2"></circle>
<circle clip-path="url(#clip252)" cx="1382.32" cy="325.005" r="14.4" fill="#009af9" fill-rule="evenodd" fill-opacity="1" stroke="#000000" stroke-opacity="1" stroke-width="3.2"></circle>
<circle clip-path="url(#clip252)" cx="1399.82" cy="363.768" r="14.4" fill="#009af9" fill-rule="evenodd" fill-opacity="1" stroke="#000000" stroke-opacity="1" stroke-width="3.2"></circle>
<circle clip-path="url(#clip252)" cx="1417.33" cy="365.281" r="14.4" fill="#009af9" fill-rule="evenodd" fill-opacity="1" stroke="#000000" stroke-opacity="1" stroke-width="3.2"></circle>
<circle clip-path="url(#clip252)" cx="1434.83" cy="402.193" r="14.4" fill="#009af9" fill-rule="evenodd" fill-opacity="1" stroke="#000000" stroke-opacity="1" stroke-width="3.2"></circle>
<circle clip-path="url(#clip252)" cx="1452.33" cy="403.67" r="14.4" fill="#009af9" fill-rule="evenodd" fill-opacity="1" stroke="#000000" stroke-opacity="1" stroke-width="3.2"></circle>
<circle clip-path="url(#clip252)" cx="1469.83" cy="394.165" r="14.4" fill="#009af9" fill-rule="evenodd" fill-opacity="1" stroke="#000000" stroke-opacity="1" stroke-width="3.2"></circle>
<circle clip-path="url(#clip252)" cx="1487.33" cy="395.85" r="14.4" fill="#009af9" fill-rule="evenodd" fill-opacity="1" stroke="#000000" stroke-opacity="1" stroke-width="3.2"></circle>
<circle clip-path="url(#clip252)" cx="1504.83" cy="432.403" r="14.4" fill="#009af9" fill-rule="evenodd" fill-opacity="1" stroke="#000000" stroke-opacity="1" stroke-width="3.2"></circle>
<circle clip-path="url(#clip252)" cx="1522.33" cy="434.075" r="14.4" fill="#009af9" fill-rule="evenodd" fill-opacity="1" stroke="#000000" stroke-opacity="1" stroke-width="3.2"></circle>
<circle clip-path="url(#clip252)" cx="1539.83" cy="435.71" r="14.4" fill="#009af9" fill-rule="evenodd" fill-opacity="1" stroke="#000000" stroke-opacity="1" stroke-width="3.2"></circle>
<circle clip-path="url(#clip252)" cx="1557.33" cy="471.843" r="14.4" fill="#009af9" fill-rule="evenodd" fill-opacity="1" stroke="#000000" stroke-opacity="1" stroke-width="3.2"></circle>
<circle clip-path="url(#clip252)" cx="1574.84" cy="457.15" r="14.4" fill="#009af9" fill-rule="evenodd" fill-opacity="1" stroke="#000000" stroke-opacity="1" stroke-width="3.2"></circle>
<circle clip-path="url(#clip252)" cx="1592.34" cy="449.211" r="14.4" fill="#009af9" fill-rule="evenodd" fill-opacity="1" stroke="#000000" stroke-opacity="1" stroke-width="3.2"></circle>
<circle clip-path="url(#clip252)" cx="1609.84" cy="451.106" r="14.4" fill="#009af9" fill-rule="evenodd" fill-opacity="1" stroke="#000000" stroke-opacity="1" stroke-width="3.2"></circle>
<circle clip-path="url(#clip252)" cx="1627.34" cy="489.145" r="14.4" fill="#009af9" fill-rule="evenodd" fill-opacity="1" stroke="#000000" stroke-opacity="1" stroke-width="3.2"></circle>
<circle clip-path="url(#clip252)" cx="1644.84" cy="491.316" r="14.4" fill="#009af9" fill-rule="evenodd" fill-opacity="1" stroke="#000000" stroke-opacity="1" stroke-width="3.2"></circle>
<circle clip-path="url(#clip252)" cx="1662.34" cy="482.649" r="14.4" fill="#009af9" fill-rule="evenodd" fill-opacity="1" stroke="#000000" stroke-opacity="1" stroke-width="3.2"></circle>
<circle clip-path="url(#clip252)" cx="1679.84" cy="484.74" r="14.4" fill="#009af9" fill-rule="evenodd" fill-opacity="1" stroke="#000000" stroke-opacity="1" stroke-width="3.2"></circle>
<circle clip-path="url(#clip252)" cx="1697.34" cy="520.396" r="14.4" fill="#009af9" fill-rule="evenodd" fill-opacity="1" stroke="#000000" stroke-opacity="1" stroke-width="3.2"></circle>
<circle clip-path="url(#clip252)" cx="1714.84" cy="522.611" r="14.4" fill="#009af9" fill-rule="evenodd" fill-opacity="1" stroke="#000000" stroke-opacity="1" stroke-width="3.2"></circle>
<circle clip-path="url(#clip252)" cx="1732.34" cy="556.625" r="14.4" fill="#009af9" fill-rule="evenodd" fill-opacity="1" stroke="#000000" stroke-opacity="1" stroke-width="3.2"></circle>
<circle clip-path="url(#clip252)" cx="1749.85" cy="550.292" r="14.4" fill="#009af9" fill-rule="evenodd" fill-opacity="1" stroke="#000000" stroke-opacity="1" stroke-width="3.2"></circle>
<circle clip-path="url(#clip252)" cx="1767.35" cy="552.763" r="14.4" fill="#009af9" fill-rule="evenodd" fill-opacity="1" stroke="#000000" stroke-opacity="1" stroke-width="3.2"></circle>
<circle clip-path="url(#clip252)" cx="1784.85" cy="587.931" r="14.4" fill="#009af9" fill-rule="evenodd" fill-opacity="1" stroke="#000000" stroke-opacity="1" stroke-width="3.2"></circle>
<circle clip-path="url(#clip252)" cx="1802.35" cy="608.175" r="14.4" fill="#009af9" fill-rule="evenodd" fill-opacity="1" stroke="#000000" stroke-opacity="1" stroke-width="3.2"></circle>
<circle clip-path="url(#clip252)" cx="1819.85" cy="610.603" r="14.4" fill="#009af9" fill-rule="evenodd" fill-opacity="1" stroke="#000000" stroke-opacity="1" stroke-width="3.2"></circle>
<circle clip-path="url(#clip252)" cx="1837.35" cy="604.816" r="14.4" fill="#009af9" fill-rule="evenodd" fill-opacity="1" stroke="#000000" stroke-opacity="1" stroke-width="3.2"></circle>
<circle clip-path="url(#clip252)" cx="1854.85" cy="639.624" r="14.4" fill="#009af9" fill-rule="evenodd" fill-opacity="1" stroke="#000000" stroke-opacity="1" stroke-width="3.2"></circle>
<circle clip-path="url(#clip252)" cx="1872.35" cy="642.707" r="14.4" fill="#009af9" fill-rule="evenodd" fill-opacity="1" stroke="#000000" stroke-opacity="1" stroke-width="3.2"></circle>
<circle clip-path="url(#clip252)" cx="1889.85" cy="635.616" r="14.4" fill="#009af9" fill-rule="evenodd" fill-opacity="1" stroke="#000000" stroke-opacity="1" stroke-width="3.2"></circle>
<circle clip-path="url(#clip252)" cx="1907.35" cy="670.76" r="14.4" fill="#009af9" fill-rule="evenodd" fill-opacity="1" stroke="#000000" stroke-opacity="1" stroke-width="3.2"></circle>
<circle clip-path="url(#clip252)" cx="1924.86" cy="705.287" r="14.4" fill="#009af9" fill-rule="evenodd" fill-opacity="1" stroke="#000000" stroke-opacity="1" stroke-width="3.2"></circle>
<circle clip-path="url(#clip252)" cx="1942.36" cy="701.274" r="14.4" fill="#009af9" fill-rule="evenodd" fill-opacity="1" stroke="#000000" stroke-opacity="1" stroke-width="3.2"></circle>
<circle clip-path="url(#clip252)" cx="1959.86" cy="734.577" r="14.4" fill="#009af9" fill-rule="evenodd" fill-opacity="1" stroke="#000000" stroke-opacity="1" stroke-width="3.2"></circle>
<circle clip-path="url(#clip252)" cx="1977.36" cy="755.046" r="14.4" fill="#009af9" fill-rule="evenodd" fill-opacity="1" stroke="#000000" stroke-opacity="1" stroke-width="3.2"></circle>
<circle clip-path="url(#clip252)" cx="1994.86" cy="748.545" r="14.4" fill="#009af9" fill-rule="evenodd" fill-opacity="1" stroke="#000000" stroke-opacity="1" stroke-width="3.2"></circle>
<circle clip-path="url(#clip252)" cx="2012.36" cy="783.2" r="14.4" fill="#009af9" fill-rule="evenodd" fill-opacity="1" stroke="#000000" stroke-opacity="1" stroke-width="3.2"></circle>
<circle clip-path="url(#clip252)" cx="2029.86" cy="780.569" r="14.4" fill="#009af9" fill-rule="evenodd" fill-opacity="1" stroke="#000000" stroke-opacity="1" stroke-width="3.2"></circle>
<circle clip-path="url(#clip252)" cx="2047.36" cy="814.594" r="14.4" fill="#009af9" fill-rule="evenodd" fill-opacity="1" stroke="#000000" stroke-opacity="1" stroke-width="3.2"></circle>
<circle clip-path="url(#clip252)" cx="2064.86" cy="849.227" r="14.4" fill="#009af9" fill-rule="evenodd" fill-opacity="1" stroke="#000000" stroke-opacity="1" stroke-width="3.2"></circle>
<circle clip-path="url(#clip252)" cx="2082.36" cy="873.581" r="14.4" fill="#009af9" fill-rule="evenodd" fill-opacity="1" stroke="#000000" stroke-opacity="1" stroke-width="3.2"></circle>
<circle clip-path="url(#clip252)" cx="2099.87" cy="895.846" r="14.4" fill="#009af9" fill-rule="evenodd" fill-opacity="1" stroke="#000000" stroke-opacity="1" stroke-width="3.2"></circle>
<circle clip-path="url(#clip252)" cx="2117.37" cy="893.047" r="14.4" fill="#009af9" fill-rule="evenodd" fill-opacity="1" stroke="#000000" stroke-opacity="1" stroke-width="3.2"></circle>
<circle clip-path="url(#clip252)" cx="2134.87" cy="955.154" r="14.4" fill="#009af9" fill-rule="evenodd" fill-opacity="1" stroke="#000000" stroke-opacity="1" stroke-width="3.2"></circle>
<circle clip-path="url(#clip252)" cx="2152.37" cy="982.36" r="14.4" fill="#009af9" fill-rule="evenodd" fill-opacity="1" stroke="#000000" stroke-opacity="1" stroke-width="3.2"></circle>
<circle clip-path="url(#clip252)" cx="2169.87" cy="1009.89" r="14.4" fill="#009af9" fill-rule="evenodd" fill-opacity="1" stroke="#000000" stroke-opacity="1" stroke-width="3.2"></circle>
<circle clip-path="url(#clip252)" cx="2187.37" cy="1022.29" r="14.4" fill="#009af9" fill-rule="evenodd" fill-opacity="1" stroke="#000000" stroke-opacity="1" stroke-width="3.2"></circle>
<circle clip-path="url(#clip252)" cx="2204.87" cy="1084.59" r="14.4" fill="#009af9" fill-rule="evenodd" fill-opacity="1" stroke="#000000" stroke-opacity="1" stroke-width="3.2"></circle>
<circle clip-path="url(#clip252)" cx="2222.37" cy="1113.71" r="14.4" fill="#009af9" fill-rule="evenodd" fill-opacity="1" stroke="#000000" stroke-opacity="1" stroke-width="3.2"></circle>
<circle clip-path="url(#clip252)" cx="2239.87" cy="1155.45" r="14.4" fill="#009af9" fill-rule="evenodd" fill-opacity="1" stroke="#000000" stroke-opacity="1" stroke-width="3.2"></circle>
<circle clip-path="url(#clip252)" cx="2257.38" cy="1207.34" r="14.4" fill="#009af9" fill-rule="evenodd" fill-opacity="1" stroke="#000000" stroke-opacity="1" stroke-width="3.2"></circle>
<circle clip-path="url(#clip252)" cx="2274.88" cy="1251.63" r="14.4" fill="#009af9" fill-rule="evenodd" fill-opacity="1" stroke="#000000" stroke-opacity="1" stroke-width="3.2"></circle>
<circle clip-path="url(#clip252)" cx="2292.38" cy="1384.24" r="14.4" fill="#009af9" fill-rule="evenodd" fill-opacity="1" stroke="#000000" stroke-opacity="1" stroke-width="3.2"></circle>
<path clip-path="url(#clip250)" d="M1974.66 196.789 L2281.64 196.789 L2281.64 93.1086 L1974.66 93.1086  Z" fill="#ffffff" fill-rule="evenodd" fill-opacity="1"></path>
<polyline clip-path="url(#clip250)" style="stroke:#000000; stroke-linecap:round; stroke-linejoin:round; stroke-width:4; stroke-opacity:1; fill:none" points="1974.66,196.789 2281.64,196.789 2281.64,93.1086 1974.66,93.1086 1974.66,196.789 "></polyline>
<circle clip-path="url(#clip250)" cx="2069.47" cy="144.949" r="23.04" fill="#009af9" fill-rule="evenodd" fill-opacity="1" stroke="#000000" stroke-opacity="1" stroke-width="5.12"></circle>
<path clip-path="url(#clip250)" d="M2198.35 121.193 L2195.33 133.419 Q2195.11 134.192 2194.97 134.286 Q2194.86 134.38 2194.48 134.38 Q2193.76 134.38 2193.76 133.888 Q2193.76 133.841 2193.83 133.232 Q2193.9 132.599 2193.9 131.452 Q2193.9 127.212 2191.84 124.706 Q2189.8 122.2 2186.17 122.2 Q2183.03 122.2 2179.87 123.793 Q2176.73 125.385 2174.48 127.985 Q2172.79 129.953 2171.55 132.435 Q2170.33 134.918 2169.75 137.19 Q2169.19 139.462 2168.93 141.172 Q2168.67 142.882 2168.67 144.123 Q2168.67 145.927 2169.05 147.449 Q2169.44 148.972 2170.15 150.049 Q2170.85 151.103 2171.74 151.923 Q2172.65 152.719 2173.71 153.188 Q2174.78 153.656 2175.86 153.89 Q2176.94 154.101 2178.06 154.101 Q2182.58 154.101 2186.89 150.588 Q2190.31 147.707 2191.74 142.999 Q2191.86 142.531 2192.35 142.531 Q2192.94 142.531 2192.94 142.999 Q2192.94 143.093 2192.82 143.561 Q2192.7 144.006 2192.35 144.92 Q2192 145.81 2191.46 146.817 Q2190.92 147.824 2189.92 149.089 Q2188.91 150.354 2187.67 151.454 Q2185.56 153.281 2182.89 154.429 Q2180.22 155.577 2177.29 155.577 Q2173.64 155.577 2170.69 153.961 Q2167.73 152.345 2166 149.323 Q2164.29 146.302 2164.29 142.437 Q2164.29 138.361 2166.16 134.356 Q2168.04 130.351 2171.01 127.376 Q2173.99 124.402 2177.92 122.551 Q2181.86 120.701 2185.79 120.701 Q2187.29 120.701 2188.63 121.099 Q2189.96 121.497 2190.76 121.989 Q2191.58 122.481 2192.3 123.207 Q2193.03 123.91 2193.26 124.238 Q2193.52 124.566 2193.76 124.964 L2197.11 121.286 Q2197.69 120.701 2197.83 120.701 Q2198.11 120.701 2198.23 120.865 Q2198.35 121.029 2198.35 121.193 Z" fill="#000000" fill-rule="nonzero" fill-opacity="1"></path><path clip-path="url(#clip250)" d="M2231.41 133.607 Q2231.41 136.956 2230.22 140.282 Q2229.05 143.585 2226.99 146.302 Q2224.92 149.019 2222.3 151.127 Q2219.68 153.235 2216.61 154.406 Q2213.54 155.577 2210.54 155.577 Q2205.23 155.577 2201.74 152.087 Q2198.25 148.597 2198.25 142.765 Q2198.25 138.689 2200.07 134.637 Q2201.9 130.562 2204.8 127.54 Q2207.71 124.495 2211.53 122.598 Q2215.37 120.701 2219.16 120.701 Q2224.55 120.701 2227.97 124.284 Q2231.41 127.845 2231.41 133.607 M2227.13 131.733 Q2227.13 129.156 2226.4 127.212 Q2225.67 125.245 2224.46 124.121 Q2223.26 122.996 2221.83 122.458 Q2220.43 121.895 2218.88 121.895 Q2215.88 121.895 2212.67 123.839 Q2209.47 125.783 2207.08 129.391 Q2205.79 131.358 2204.85 133.724 Q2203.91 136.066 2203.49 138.151 Q2203.07 140.212 2202.88 141.664 Q2202.72 143.116 2202.72 144.123 Q2202.72 148.808 2204.97 151.572 Q2207.22 154.335 2210.82 154.335 Q2213.66 154.335 2216.42 152.672 Q2219.19 150.986 2221.08 148.574 Q2222.77 146.489 2224.01 143.983 Q2225.28 141.477 2225.91 139.181 Q2226.54 136.886 2226.82 135.035 Q2227.13 133.185 2227.13 131.733 Z" fill="#000000" fill-rule="nonzero" fill-opacity="1"></path><path clip-path="url(#clip250)" d="M2236.19 168.859 Q2236.19 168.252 2236.24 168.072 Q2236.31 167.891 2236.57 167.613 L2243.01 160.431 Q2246.54 156.464 2246.54 153.004 Q2246.54 150.758 2245.36 149.151 Q2244.2 147.544 2242.05 147.544 Q2240.57 147.544 2239.33 148.446 Q2238.08 149.348 2237.51 150.955 Q2237.6 150.922 2237.95 150.922 Q2238.78 150.922 2239.24 151.447 Q2239.72 151.971 2239.72 152.676 Q2239.72 153.578 2239.13 154.021 Q2238.56 154.447 2237.98 154.447 Q2237.75 154.447 2237.44 154.398 Q2237.15 154.349 2236.67 153.889 Q2236.19 153.414 2236.19 152.578 Q2236.19 150.233 2237.96 148.364 Q2239.75 146.495 2242.47 146.495 Q2245.56 146.495 2247.57 148.331 Q2249.61 150.151 2249.61 153.004 Q2249.61 154.004 2249.29 154.922 Q2249 155.824 2248.59 156.529 Q2248.2 157.234 2247.11 158.366 Q2246.03 159.497 2245.16 160.3 Q2244.29 161.104 2242.34 162.809 L2238.78 166.268 L2244.83 166.268 Q2247.79 166.268 2248.02 166.006 Q2248.34 165.53 2248.75 163.022 L2249.61 163.022 L2248.65 168.859 L2236.19 168.859 Z" fill="#000000" fill-rule="nonzero" fill-opacity="1"></path></svg>