<svg xmlns="http://www.w3.org/2000/svg" xmlns:xlink="http://www.w3.org/1999/xlink" width="600" height="400" viewBox="0 0 2400 1600">
<defs>
  <clipPath id="clip020">
    <rect x="0" y="0" width="2400" height="1600"></rect>
  </clipPath>
</defs>
<path clip-path="url(#clip020)" d="M0 1600 L2400 1600 L2400 0 L0 0  Z" fill="#ffffff" fill-rule="evenodd" fill-opacity="1"></path>
<defs>
  <clipPath id="clip021">
    <rect x="480" y="0" width="1681" height="1600"></rect>
  </clipPath>
</defs>
<defs>
  <clipPath id="clip022">
    <rect x="170" y="47" width="2183" height="1440"></rect>
  </clipPath>
</defs>
<path clip-path="url(#clip020)" d="M220.19 1423.18 L2352.76 1423.18 L2352.76 47.2441 L220.19 47.2441  Z" fill="#ffffff" fill-rule="evenodd" fill-opacity="1"></path>
<defs>
  <clipPath id="clip023">
    <rect x="220" y="47" width="2134" height="1377"></rect>
  </clipPath>
</defs>
<polyline clip-path="url(#clip023)" style="stroke:#000000; stroke-linecap:round; stroke-linejoin:round; stroke-width:2; stroke-opacity:0.1; fill:none" points="261.385,1423.18 261.385,47.2441 "></polyline>
<polyline clip-path="url(#clip023)" style="stroke:#000000; stroke-linecap:round; stroke-linejoin:round; stroke-width:2; stroke-opacity:0.1; fill:none" points="740.398,1423.18 740.398,47.2441 "></polyline>
<polyline clip-path="url(#clip023)" style="stroke:#000000; stroke-linecap:round; stroke-linejoin:round; stroke-width:2; stroke-opacity:0.1; fill:none" points="1219.41,1423.18 1219.41,47.2441 "></polyline>
<polyline clip-path="url(#clip023)" style="stroke:#000000; stroke-linecap:round; stroke-linejoin:round; stroke-width:2; stroke-opacity:0.1; fill:none" points="1698.42,1423.18 1698.42,47.2441 "></polyline>
<polyline clip-path="url(#clip023)" style="stroke:#000000; stroke-linecap:round; stroke-linejoin:round; stroke-width:2; stroke-opacity:0.1; fill:none" points="2177.44,1423.18 2177.44,47.2441 "></polyline>
<polyline clip-path="url(#clip020)" style="stroke:#000000; stroke-linecap:round; stroke-linejoin:round; stroke-width:4; stroke-opacity:1; fill:none" points="220.19,1423.18 2352.76,1423.18 "></polyline>
<polyline clip-path="url(#clip020)" style="stroke:#000000; stroke-linecap:round; stroke-linejoin:round; stroke-width:4; stroke-opacity:1; fill:none" points="261.385,1423.18 261.385,1404.28 "></polyline>
<polyline clip-path="url(#clip020)" style="stroke:#000000; stroke-linecap:round; stroke-linejoin:round; stroke-width:4; stroke-opacity:1; fill:none" points="740.398,1423.18 740.398,1404.28 "></polyline>
<polyline clip-path="url(#clip020)" style="stroke:#000000; stroke-linecap:round; stroke-linejoin:round; stroke-width:4; stroke-opacity:1; fill:none" points="1219.41,1423.18 1219.41,1404.28 "></polyline>
<polyline clip-path="url(#clip020)" style="stroke:#000000; stroke-linecap:round; stroke-linejoin:round; stroke-width:4; stroke-opacity:1; fill:none" points="1698.42,1423.18 1698.42,1404.28 "></polyline>
<polyline clip-path="url(#clip020)" style="stroke:#000000; stroke-linecap:round; stroke-linejoin:round; stroke-width:4; stroke-opacity:1; fill:none" points="2177.44,1423.18 2177.44,1404.28 "></polyline>
<path clip-path="url(#clip020)" d="M261.385 1454.1 Q257.774 1454.1 255.946 1457.66 Q254.14 1461.2 254.14 1468.33 Q254.14 1475.44 255.946 1479.01 Q257.774 1482.55 261.385 1482.55 Q265.02 1482.55 266.825 1479.01 Q268.654 1475.44 268.654 1468.33 Q268.654 1461.2 266.825 1457.66 Q265.02 1454.1 261.385 1454.1 M261.385 1450.39 Q267.196 1450.39 270.251 1455 Q273.33 1459.58 273.33 1468.33 Q273.33 1477.06 270.251 1481.67 Q267.196 1486.25 261.385 1486.25 Q255.575 1486.25 252.497 1481.67 Q249.441 1477.06 249.441 1468.33 Q249.441 1459.58 252.497 1455 Q255.575 1450.39 261.385 1450.39 Z" fill="#000000" fill-rule="nonzero" fill-opacity="1"></path><path clip-path="url(#clip020)" d="M719.669 1481.64 L735.989 1481.64 L735.989 1485.58 L714.044 1485.58 L714.044 1481.64 Q716.706 1478.89 721.29 1474.26 Q725.896 1469.61 727.077 1468.27 Q729.322 1465.74 730.202 1464.01 Q731.104 1462.25 731.104 1460.56 Q731.104 1457.8 729.16 1456.07 Q727.239 1454.33 724.137 1454.33 Q721.938 1454.33 719.484 1455.09 Q717.054 1455.86 714.276 1457.41 L714.276 1452.69 Q717.1 1451.55 719.554 1450.97 Q722.007 1450.39 724.044 1450.39 Q729.415 1450.39 732.609 1453.08 Q735.803 1455.77 735.803 1460.26 Q735.803 1462.39 734.993 1464.31 Q734.206 1466.2 732.1 1468.8 Q731.521 1469.47 728.419 1472.69 Q725.317 1475.88 719.669 1481.64 Z" fill="#000000" fill-rule="nonzero" fill-opacity="1"></path><path clip-path="url(#clip020)" d="M745.85 1451.02 L764.206 1451.02 L764.206 1454.96 L750.132 1454.96 L750.132 1463.43 Q751.151 1463.08 752.169 1462.92 Q753.188 1462.73 754.206 1462.73 Q759.993 1462.73 763.373 1465.9 Q766.752 1469.08 766.752 1474.49 Q766.752 1480.07 763.28 1483.17 Q759.808 1486.25 753.489 1486.25 Q751.313 1486.25 749.044 1485.88 Q746.799 1485.51 744.391 1484.77 L744.391 1480.07 Q746.475 1481.2 748.697 1481.76 Q750.919 1482.32 753.396 1482.32 Q757.401 1482.32 759.739 1480.21 Q762.077 1478.1 762.077 1474.49 Q762.077 1470.88 759.739 1468.77 Q757.401 1466.67 753.396 1466.67 Q751.521 1466.67 749.646 1467.08 Q747.794 1467.5 745.85 1468.38 L745.85 1451.02 Z" fill="#000000" fill-rule="nonzero" fill-opacity="1"></path><path clip-path="url(#clip020)" d="M1194.11 1451.02 L1212.47 1451.02 L1212.47 1454.96 L1198.39 1454.96 L1198.39 1463.43 Q1199.41 1463.08 1200.43 1462.92 Q1201.45 1462.73 1202.47 1462.73 Q1208.25 1462.73 1211.63 1465.9 Q1215.01 1469.08 1215.01 1474.49 Q1215.01 1480.07 1211.54 1483.17 Q1208.07 1486.25 1201.75 1486.25 Q1199.57 1486.25 1197.3 1485.88 Q1195.06 1485.51 1192.65 1484.77 L1192.65 1480.07 Q1194.74 1481.2 1196.96 1481.76 Q1199.18 1482.32 1201.66 1482.32 Q1205.66 1482.32 1208 1480.21 Q1210.34 1478.1 1210.34 1474.49 Q1210.34 1470.88 1208 1468.77 Q1205.66 1466.67 1201.66 1466.67 Q1199.78 1466.67 1197.91 1467.08 Q1196.05 1467.5 1194.11 1468.38 L1194.11 1451.02 Z" fill="#000000" fill-rule="nonzero" fill-opacity="1"></path><path clip-path="url(#clip020)" d="M1234.23 1454.1 Q1230.61 1454.1 1228.79 1457.66 Q1226.98 1461.2 1226.98 1468.33 Q1226.98 1475.44 1228.79 1479.01 Q1230.61 1482.55 1234.23 1482.55 Q1237.86 1482.55 1239.67 1479.01 Q1241.49 1475.44 1241.49 1468.33 Q1241.49 1461.2 1239.67 1457.66 Q1237.86 1454.1 1234.23 1454.1 M1234.23 1450.39 Q1240.04 1450.39 1243.09 1455 Q1246.17 1459.58 1246.17 1468.33 Q1246.17 1477.06 1243.09 1481.67 Q1240.04 1486.25 1234.23 1486.25 Q1228.42 1486.25 1225.34 1481.67 Q1222.28 1477.06 1222.28 1468.33 Q1222.28 1459.58 1225.34 1455 Q1228.42 1450.39 1234.23 1450.39 Z" fill="#000000" fill-rule="nonzero" fill-opacity="1"></path><path clip-path="url(#clip020)" d="M1672.28 1451.02 L1694.5 1451.02 L1694.5 1453.01 L1681.95 1485.58 L1677.07 1485.58 L1688.88 1454.96 L1672.28 1454.96 L1672.28 1451.02 Z" fill="#000000" fill-rule="nonzero" fill-opacity="1"></path><path clip-path="url(#clip020)" d="M1703.67 1451.02 L1722.02 1451.02 L1722.02 1454.96 L1707.95 1454.96 L1707.95 1463.43 Q1708.97 1463.08 1709.99 1462.92 Q1711.01 1462.73 1712.02 1462.73 Q1717.81 1462.73 1721.19 1465.9 Q1724.57 1469.08 1724.57 1474.49 Q1724.57 1480.07 1721.1 1483.17 Q1717.63 1486.25 1711.31 1486.25 Q1709.13 1486.25 1706.86 1485.88 Q1704.62 1485.51 1702.21 1484.77 L1702.21 1480.07 Q1704.29 1481.2 1706.51 1481.76 Q1708.74 1482.32 1711.21 1482.32 Q1715.22 1482.32 1717.56 1480.21 Q1719.89 1478.1 1719.89 1474.49 Q1719.89 1470.88 1717.56 1468.77 Q1715.22 1466.67 1711.21 1466.67 Q1709.34 1466.67 1707.46 1467.08 Q1705.61 1467.5 1703.67 1468.38 L1703.67 1451.02 Z" fill="#000000" fill-rule="nonzero" fill-opacity="1"></path><path clip-path="url(#clip020)" d="M2137.04 1481.64 L2144.68 1481.64 L2144.68 1455.28 L2136.37 1456.95 L2136.37 1452.69 L2144.64 1451.02 L2149.31 1451.02 L2149.31 1481.64 L2156.95 1481.64 L2156.95 1485.58 L2137.04 1485.58 L2137.04 1481.64 Z" fill="#000000" fill-rule="nonzero" fill-opacity="1"></path><path clip-path="url(#clip020)" d="M2176.4 1454.1 Q2172.78 1454.1 2170.96 1457.66 Q2169.15 1461.2 2169.15 1468.33 Q2169.15 1475.44 2170.96 1479.01 Q2172.78 1482.55 2176.4 1482.55 Q2180.03 1482.55 2181.84 1479.01 Q2183.66 1475.44 2183.66 1468.33 Q2183.66 1461.2 2181.84 1457.66 Q2180.03 1454.1 2176.4 1454.1 M2176.4 1450.39 Q2182.21 1450.39 2185.26 1455 Q2188.34 1459.58 2188.34 1468.33 Q2188.34 1477.06 2185.26 1481.67 Q2182.21 1486.25 2176.4 1486.25 Q2170.59 1486.25 2167.51 1481.67 Q2164.45 1477.06 2164.45 1468.33 Q2164.45 1459.58 2167.51 1455 Q2170.59 1450.39 2176.4 1450.39 Z" fill="#000000" fill-rule="nonzero" fill-opacity="1"></path><path clip-path="url(#clip020)" d="M2206.56 1454.1 Q2202.95 1454.1 2201.12 1457.66 Q2199.31 1461.2 2199.31 1468.33 Q2199.31 1475.44 2201.12 1479.01 Q2202.95 1482.55 2206.56 1482.55 Q2210.19 1482.55 2212 1479.01 Q2213.83 1475.44 2213.83 1468.33 Q2213.83 1461.2 2212 1457.66 Q2210.19 1454.1 2206.56 1454.1 M2206.56 1450.39 Q2212.37 1450.39 2215.42 1455 Q2218.5 1459.58 2218.5 1468.33 Q2218.5 1477.06 2215.42 1481.67 Q2212.37 1486.25 2206.56 1486.25 Q2200.75 1486.25 2197.67 1481.67 Q2194.61 1477.06 2194.61 1468.33 Q2194.61 1459.58 2197.67 1455 Q2200.75 1450.39 2206.56 1450.39 Z" fill="#000000" fill-rule="nonzero" fill-opacity="1"></path><path clip-path="url(#clip020)" d="M943.25 1520.52 L952.831 1520.52 L964.957 1552.86 L977.148 1520.52 L986.728 1520.52 L986.728 1568.04 L980.458 1568.04 L980.458 1526.32 L968.204 1558.91 L961.743 1558.91 L949.489 1526.32 L949.489 1568.04 L943.25 1568.04 L943.25 1520.52 Z" fill="#000000" fill-rule="nonzero" fill-opacity="1"></path><path clip-path="url(#clip020)" d="M999.237 1532.4 L1005.09 1532.4 L1005.09 1568.04 L999.237 1568.04 L999.237 1532.4 M999.237 1518.52 L1005.09 1518.52 L1005.09 1525.93 L999.237 1525.93 L999.237 1518.52 Z" fill="#000000" fill-rule="nonzero" fill-opacity="1"></path><path clip-path="url(#clip020)" d="M1046.98 1532.4 L1034.09 1549.74 L1047.65 1568.04 L1040.74 1568.04 L1030.36 1554.04 L1019.99 1568.04 L1013.08 1568.04 L1026.93 1549.39 L1014.26 1532.4 L1021.17 1532.4 L1030.62 1545.1 L1040.07 1532.4 L1046.98 1532.4 Z" fill="#000000" fill-rule="nonzero" fill-opacity="1"></path><path clip-path="url(#clip020)" d="M1055.92 1532.4 L1061.78 1532.4 L1061.78 1568.04 L1055.92 1568.04 L1055.92 1532.4 M1055.92 1518.52 L1061.78 1518.52 L1061.78 1525.93 L1055.92 1525.93 L1055.92 1518.52 Z" fill="#000000" fill-rule="nonzero" fill-opacity="1"></path><path clip-path="url(#clip020)" d="M1103.67 1546.53 L1103.67 1568.04 L1097.81 1568.04 L1097.81 1546.72 Q1097.81 1541.66 1095.84 1539.14 Q1093.86 1536.63 1089.92 1536.63 Q1085.17 1536.63 1082.44 1539.65 Q1079.7 1542.68 1079.7 1547.9 L1079.7 1568.04 L1073.81 1568.04 L1073.81 1532.4 L1079.7 1532.4 L1079.7 1537.93 Q1081.8 1534.72 1084.63 1533.13 Q1087.5 1531.54 1091.22 1531.54 Q1097.36 1531.54 1100.51 1535.36 Q1103.67 1539.14 1103.67 1546.53 Z" fill="#000000" fill-rule="nonzero" fill-opacity="1"></path><path clip-path="url(#clip020)" d="M1138.8 1549.81 Q1138.8 1543.44 1136.16 1539.94 Q1133.55 1536.44 1128.81 1536.44 Q1124.1 1536.44 1121.46 1539.94 Q1118.85 1543.44 1118.85 1549.81 Q1118.85 1556.14 1121.46 1559.64 Q1124.1 1563.14 1128.81 1563.14 Q1133.55 1563.14 1136.16 1559.64 Q1138.8 1556.14 1138.8 1549.81 M1144.66 1563.62 Q1144.66 1572.72 1140.62 1577.15 Q1136.58 1581.6 1128.24 1581.6 Q1125.15 1581.6 1122.41 1581.13 Q1119.68 1580.68 1117.1 1579.72 L1117.1 1574.03 Q1119.68 1575.43 1122.19 1576.1 Q1124.7 1576.76 1127.31 1576.76 Q1133.08 1576.76 1135.94 1573.74 Q1138.8 1570.75 1138.8 1564.67 L1138.8 1561.77 Q1136.99 1564.92 1134.16 1566.48 Q1131.32 1568.04 1127.38 1568.04 Q1120.82 1568.04 1116.81 1563.05 Q1112.8 1558.05 1112.8 1549.81 Q1112.8 1541.53 1116.81 1536.53 Q1120.82 1531.54 1127.38 1531.54 Q1131.32 1531.54 1134.16 1533.1 Q1136.99 1534.66 1138.8 1537.81 L1138.8 1532.4 L1144.66 1532.4 L1144.66 1563.62 Z" fill="#000000" fill-rule="nonzero" fill-opacity="1"></path><path clip-path="url(#clip020)" d="M1184.13 1525.81 L1184.13 1543.66 L1192.21 1543.66 Q1196.7 1543.66 1199.15 1541.34 Q1201.6 1539.02 1201.6 1534.72 Q1201.6 1530.45 1199.15 1528.13 Q1196.7 1525.81 1192.21 1525.81 L1184.13 1525.81 M1177.7 1520.52 L1192.21 1520.52 Q1200.2 1520.52 1204.28 1524.15 Q1208.38 1527.75 1208.38 1534.72 Q1208.38 1541.75 1204.28 1545.35 Q1200.2 1548.95 1192.21 1548.95 L1184.13 1548.95 L1184.13 1568.04 L1177.7 1568.04 L1177.7 1520.52 Z" fill="#000000" fill-rule="nonzero" fill-opacity="1"></path><path clip-path="url(#clip020)" d="M1236.26 1537.87 Q1235.28 1537.3 1234.1 1537.04 Q1232.95 1536.76 1231.55 1536.76 Q1226.59 1536.76 1223.91 1540 Q1221.27 1543.22 1221.27 1549.27 L1221.27 1568.04 L1215.38 1568.04 L1215.38 1532.4 L1221.27 1532.4 L1221.27 1537.93 Q1223.12 1534.69 1226.08 1533.13 Q1229.04 1531.54 1233.27 1531.54 Q1233.88 1531.54 1234.61 1531.63 Q1235.34 1531.7 1236.23 1531.85 L1236.26 1537.87 Z" fill="#000000" fill-rule="nonzero" fill-opacity="1"></path><path clip-path="url(#clip020)" d="M1271.47 1548.76 L1271.47 1551.62 L1244.54 1551.62 Q1244.92 1557.67 1248.17 1560.85 Q1251.45 1564 1257.27 1564 Q1260.64 1564 1263.8 1563.17 Q1266.98 1562.35 1270.1 1560.69 L1270.1 1566.23 Q1266.95 1567.57 1263.64 1568.27 Q1260.33 1568.97 1256.92 1568.97 Q1248.39 1568.97 1243.39 1564 Q1238.43 1559.04 1238.43 1550.57 Q1238.43 1541.82 1243.14 1536.69 Q1247.88 1531.54 1255.9 1531.54 Q1263.1 1531.54 1267.26 1536.18 Q1271.47 1540.8 1271.47 1548.76 M1265.61 1547.04 Q1265.55 1542.23 1262.9 1539.37 Q1260.29 1536.5 1255.97 1536.5 Q1251.06 1536.5 1248.1 1539.27 Q1245.18 1542.04 1244.73 1547.07 L1265.61 1547.04 Z" fill="#000000" fill-rule="nonzero" fill-opacity="1"></path><path clip-path="url(#clip020)" d="M1303.8 1533.45 L1303.8 1538.98 Q1301.32 1537.71 1298.65 1537.07 Q1295.97 1536.44 1293.11 1536.44 Q1288.75 1536.44 1286.55 1537.77 Q1284.39 1539.11 1284.39 1541.79 Q1284.39 1543.82 1285.95 1545 Q1287.51 1546.15 1292.22 1547.2 L1294.22 1547.64 Q1300.46 1548.98 1303.07 1551.43 Q1305.71 1553.85 1305.71 1558.21 Q1305.71 1563.17 1301.77 1566.07 Q1297.85 1568.97 1290.98 1568.97 Q1288.11 1568.97 1284.99 1568.39 Q1281.91 1567.85 1278.47 1566.74 L1278.47 1560.69 Q1281.71 1562.38 1284.87 1563.24 Q1288.02 1564.07 1291.1 1564.07 Q1295.24 1564.07 1297.47 1562.66 Q1299.7 1561.23 1299.7 1558.65 Q1299.7 1556.27 1298.07 1554.99 Q1296.48 1553.72 1291.04 1552.54 L1289 1552.07 Q1283.56 1550.92 1281.14 1548.56 Q1278.72 1546.18 1278.72 1542.04 Q1278.72 1537.01 1282.29 1534.27 Q1285.85 1531.54 1292.41 1531.54 Q1295.66 1531.54 1298.52 1532.01 Q1301.38 1532.49 1303.8 1533.45 Z" fill="#000000" fill-rule="nonzero" fill-opacity="1"></path><path clip-path="url(#clip020)" d="M1337.76 1533.45 L1337.76 1538.98 Q1335.28 1537.71 1332.61 1537.07 Q1329.93 1536.44 1327.07 1536.44 Q1322.71 1536.44 1320.51 1537.77 Q1318.35 1539.11 1318.35 1541.79 Q1318.35 1543.82 1319.91 1545 Q1321.47 1546.15 1326.18 1547.2 L1328.18 1547.64 Q1334.42 1548.98 1337.03 1551.43 Q1339.67 1553.85 1339.67 1558.21 Q1339.67 1563.17 1335.73 1566.07 Q1331.81 1568.97 1324.94 1568.97 Q1322.07 1568.97 1318.95 1568.39 Q1315.87 1567.85 1312.43 1566.74 L1312.43 1560.69 Q1315.68 1562.38 1318.83 1563.24 Q1321.98 1564.07 1325.07 1564.07 Q1329.2 1564.07 1331.43 1562.66 Q1333.66 1561.23 1333.66 1558.65 Q1333.66 1556.27 1332.04 1554.99 Q1330.44 1553.72 1325 1552.54 L1322.96 1552.07 Q1317.52 1550.92 1315.1 1548.56 Q1312.68 1546.18 1312.68 1542.04 Q1312.68 1537.01 1316.25 1534.27 Q1319.81 1531.54 1326.37 1531.54 Q1329.62 1531.54 1332.48 1532.01 Q1335.35 1532.49 1337.76 1533.45 Z" fill="#000000" fill-rule="nonzero" fill-opacity="1"></path><path clip-path="url(#clip020)" d="M1348.4 1553.98 L1348.4 1532.4 L1354.25 1532.4 L1354.25 1553.75 Q1354.25 1558.81 1356.23 1561.36 Q1358.2 1563.87 1362.15 1563.87 Q1366.89 1563.87 1369.63 1560.85 Q1372.39 1557.83 1372.39 1552.61 L1372.39 1532.4 L1378.25 1532.4 L1378.25 1568.04 L1372.39 1568.04 L1372.39 1562.57 Q1370.26 1565.82 1367.43 1567.41 Q1364.63 1568.97 1360.9 1568.97 Q1354.76 1568.97 1351.58 1565.15 Q1348.4 1561.33 1348.4 1553.98 M1363.13 1531.54 L1363.13 1531.54 Z" fill="#000000" fill-rule="nonzero" fill-opacity="1"></path><path clip-path="url(#clip020)" d="M1410.97 1537.87 Q1409.98 1537.3 1408.81 1537.04 Q1407.66 1536.76 1406.26 1536.76 Q1401.29 1536.76 1398.62 1540 Q1395.98 1543.22 1395.98 1549.27 L1395.98 1568.04 L1390.09 1568.04 L1390.09 1532.4 L1395.98 1532.4 L1395.98 1537.93 Q1397.83 1534.69 1400.79 1533.13 Q1403.75 1531.54 1407.98 1531.54 Q1408.58 1531.54 1409.32 1531.63 Q1410.05 1531.7 1410.94 1531.85 L1410.97 1537.87 Z" fill="#000000" fill-rule="nonzero" fill-opacity="1"></path><path clip-path="url(#clip020)" d="M1446.17 1548.76 L1446.17 1551.62 L1419.25 1551.62 Q1419.63 1557.67 1422.87 1560.85 Q1426.15 1564 1431.98 1564 Q1435.35 1564 1438.5 1563.17 Q1441.68 1562.35 1444.8 1560.69 L1444.8 1566.23 Q1441.65 1567.57 1438.34 1568.27 Q1435.03 1568.97 1431.63 1568.97 Q1423.1 1568.97 1418.1 1564 Q1413.13 1559.04 1413.13 1550.57 Q1413.13 1541.82 1417.85 1536.69 Q1422.59 1531.54 1430.61 1531.54 Q1437.8 1531.54 1441.97 1536.18 Q1446.17 1540.8 1446.17 1548.76 M1440.32 1547.04 Q1440.25 1542.23 1437.61 1539.37 Q1435 1536.5 1430.67 1536.5 Q1425.77 1536.5 1422.81 1539.27 Q1419.88 1542.04 1419.44 1547.07 L1440.32 1547.04 Z" fill="#000000" fill-rule="nonzero" fill-opacity="1"></path><path clip-path="url(#clip020)" d="M1475.96 1518.52 L1489.46 1518.52 L1489.46 1523.07 L1481.82 1523.07 L1481.82 1572.09 L1489.46 1572.09 L1489.46 1576.64 L1475.96 1576.64 L1475.96 1518.52 Z" fill="#000000" fill-rule="nonzero" fill-opacity="1"></path><path clip-path="url(#clip020)" d="M1501.71 1518.52 L1507.6 1518.52 L1507.6 1547.77 L1525.08 1532.4 L1532.56 1532.4 L1513.65 1549.07 L1533.35 1568.04 L1525.71 1568.04 L1507.6 1550.63 L1507.6 1568.04 L1501.71 1568.04 L1501.71 1518.52 Z" fill="#000000" fill-rule="nonzero" fill-opacity="1"></path><path clip-path="url(#clip020)" d="M1546.37 1525.81 L1546.37 1543.66 L1554.45 1543.66 Q1558.94 1543.66 1561.39 1541.34 Q1563.84 1539.02 1563.84 1534.72 Q1563.84 1530.45 1561.39 1528.13 Q1558.94 1525.81 1554.45 1525.81 L1546.37 1525.81 M1539.94 1520.52 L1554.45 1520.52 Q1562.44 1520.52 1566.52 1524.15 Q1570.62 1527.75 1570.62 1534.72 Q1570.62 1541.75 1566.52 1545.35 Q1562.44 1548.95 1554.45 1548.95 L1546.37 1548.95 L1546.37 1568.04 L1539.94 1568.04 L1539.94 1520.52 Z" fill="#000000" fill-rule="nonzero" fill-opacity="1"></path><path clip-path="url(#clip020)" d="M1592.27 1550.12 Q1585.17 1550.12 1582.43 1551.75 Q1579.69 1553.37 1579.69 1557.29 Q1579.69 1560.4 1581.73 1562.25 Q1583.8 1564.07 1587.33 1564.07 Q1592.2 1564.07 1595.13 1560.63 Q1598.09 1557.16 1598.09 1551.43 L1598.09 1550.12 L1592.27 1550.12 M1603.95 1547.71 L1603.95 1568.04 L1598.09 1568.04 L1598.09 1562.63 Q1596.09 1565.88 1593.09 1567.44 Q1590.1 1568.97 1585.77 1568.97 Q1580.3 1568.97 1577.05 1565.91 Q1573.84 1562.82 1573.84 1557.67 Q1573.84 1551.65 1577.85 1548.6 Q1581.89 1545.54 1589.88 1545.54 L1598.09 1545.54 L1598.09 1544.97 Q1598.09 1540.93 1595.42 1538.73 Q1592.78 1536.5 1587.97 1536.5 Q1584.91 1536.5 1582.02 1537.23 Q1579.12 1537.97 1576.45 1539.43 L1576.45 1534.02 Q1579.66 1532.78 1582.69 1532.17 Q1585.71 1531.54 1588.57 1531.54 Q1596.31 1531.54 1600.13 1535.55 Q1603.95 1539.56 1603.95 1547.71 Z" fill="#000000" fill-rule="nonzero" fill-opacity="1"></path><path clip-path="url(#clip020)" d="M1629.7 1518.52 L1629.7 1576.64 L1616.2 1576.64 L1616.2 1572.09 L1623.81 1572.09 L1623.81 1523.07 L1616.2 1523.07 L1616.2 1518.52 L1629.7 1518.52 Z" fill="#000000" fill-rule="nonzero" fill-opacity="1"></path><polyline clip-path="url(#clip023)" style="stroke:#000000; stroke-linecap:round; stroke-linejoin:round; stroke-width:2; stroke-opacity:0.1; fill:none" points="220.19,1185.05 2352.76,1185.05 "></polyline>
<polyline clip-path="url(#clip023)" style="stroke:#000000; stroke-linecap:round; stroke-linejoin:round; stroke-width:2; stroke-opacity:0.1; fill:none" points="220.19,878.68 2352.76,878.68 "></polyline>
<polyline clip-path="url(#clip023)" style="stroke:#000000; stroke-linecap:round; stroke-linejoin:round; stroke-width:2; stroke-opacity:0.1; fill:none" points="220.19,572.313 2352.76,572.313 "></polyline>
<polyline clip-path="url(#clip023)" style="stroke:#000000; stroke-linecap:round; stroke-linejoin:round; stroke-width:2; stroke-opacity:0.1; fill:none" points="220.19,265.947 2352.76,265.947 "></polyline>
<polyline clip-path="url(#clip020)" style="stroke:#000000; stroke-linecap:round; stroke-linejoin:round; stroke-width:4; stroke-opacity:1; fill:none" points="220.19,1423.18 220.19,47.2441 "></polyline>
<polyline clip-path="url(#clip020)" style="stroke:#000000; stroke-linecap:round; stroke-linejoin:round; stroke-width:4; stroke-opacity:1; fill:none" points="220.19,1185.05 239.088,1185.05 "></polyline>
<polyline clip-path="url(#clip020)" style="stroke:#000000; stroke-linecap:round; stroke-linejoin:round; stroke-width:4; stroke-opacity:1; fill:none" points="220.19,878.68 239.088,878.68 "></polyline>
<polyline clip-path="url(#clip020)" style="stroke:#000000; stroke-linecap:round; stroke-linejoin:round; stroke-width:4; stroke-opacity:1; fill:none" points="220.19,572.313 239.088,572.313 "></polyline>
<polyline clip-path="url(#clip020)" style="stroke:#000000; stroke-linecap:round; stroke-linejoin:round; stroke-width:4; stroke-opacity:1; fill:none" points="220.19,265.947 239.088,265.947 "></polyline>
<path clip-path="url(#clip020)" d="M132.084 1183.69 Q135.441 1184.41 137.316 1186.68 Q139.214 1188.95 139.214 1192.28 Q139.214 1197.4 135.695 1200.2 Q132.177 1203 125.695 1203 Q123.519 1203 121.205 1202.56 Q118.913 1202.14 116.459 1201.28 L116.459 1196.77 Q118.404 1197.9 120.718 1198.48 Q123.033 1199.06 125.556 1199.06 Q129.955 1199.06 132.246 1197.33 Q134.561 1195.59 134.561 1192.28 Q134.561 1189.22 132.408 1187.51 Q130.279 1185.77 126.459 1185.77 L122.431 1185.77 L122.431 1181.93 L126.644 1181.93 Q130.093 1181.93 131.922 1180.57 Q133.751 1179.18 133.751 1176.58 Q133.751 1173.92 131.853 1172.51 Q129.978 1171.08 126.459 1171.08 Q124.538 1171.08 122.339 1171.49 Q120.14 1171.91 117.501 1172.79 L117.501 1168.62 Q120.163 1167.88 122.478 1167.51 Q124.816 1167.14 126.876 1167.14 Q132.2 1167.14 135.302 1169.57 Q138.404 1171.98 138.404 1176.1 Q138.404 1178.97 136.76 1180.96 Q135.117 1182.93 132.084 1183.69 Z" fill="#000000" fill-rule="nonzero" fill-opacity="1"></path><path clip-path="url(#clip020)" d="M148.079 1196.45 L152.964 1196.45 L152.964 1202.33 L148.079 1202.33 L148.079 1196.45 Z" fill="#000000" fill-rule="nonzero" fill-opacity="1"></path><path clip-path="url(#clip020)" d="M161.968 1167.77 L184.19 1167.77 L184.19 1169.76 L171.644 1202.33 L166.76 1202.33 L178.565 1171.7 L161.968 1171.7 L161.968 1167.77 Z" fill="#000000" fill-rule="nonzero" fill-opacity="1"></path><path clip-path="url(#clip020)" d="M131.274 877.325 Q134.63 878.043 136.505 880.311 Q138.404 882.58 138.404 885.913 Q138.404 891.029 134.885 893.83 Q131.367 896.631 124.885 896.631 Q122.709 896.631 120.394 896.191 Q118.103 895.774 115.649 894.918 L115.649 890.404 Q117.593 891.538 119.908 892.117 Q122.223 892.696 124.746 892.696 Q129.144 892.696 131.436 890.96 Q133.751 889.223 133.751 885.913 Q133.751 882.858 131.598 881.145 Q129.468 879.409 125.649 879.409 L121.621 879.409 L121.621 875.566 L125.834 875.566 Q129.283 875.566 131.112 874.2 Q132.941 872.812 132.941 870.219 Q132.941 867.557 131.042 866.145 Q129.167 864.71 125.649 864.71 Q123.728 864.71 121.529 865.126 Q119.33 865.543 116.691 866.423 L116.691 862.256 Q119.353 861.515 121.668 861.145 Q124.005 860.775 126.066 860.775 Q131.39 860.775 134.492 863.205 Q137.593 865.612 137.593 869.733 Q137.593 872.603 135.95 874.594 Q134.306 876.561 131.274 877.325 Z" fill="#000000" fill-rule="nonzero" fill-opacity="1"></path><path clip-path="url(#clip020)" d="M147.269 890.08 L152.153 890.08 L152.153 895.96 L147.269 895.96 L147.269 890.08 Z" fill="#000000" fill-rule="nonzero" fill-opacity="1"></path><path clip-path="url(#clip020)" d="M172.339 879.548 Q169.005 879.548 167.084 881.33 Q165.186 883.112 165.186 886.237 Q165.186 889.362 167.084 891.145 Q169.005 892.927 172.339 892.927 Q175.672 892.927 177.593 891.145 Q179.514 889.339 179.514 886.237 Q179.514 883.112 177.593 881.33 Q175.695 879.548 172.339 879.548 M167.663 877.557 Q164.653 876.816 162.964 874.756 Q161.297 872.696 161.297 869.733 Q161.297 865.589 164.237 863.182 Q167.2 860.775 172.339 860.775 Q177.501 860.775 180.44 863.182 Q183.38 865.589 183.38 869.733 Q183.38 872.696 181.69 874.756 Q180.024 876.816 177.038 877.557 Q180.417 878.344 182.292 880.636 Q184.19 882.927 184.19 886.237 Q184.19 891.26 181.112 893.946 Q178.056 896.631 172.339 896.631 Q166.621 896.631 163.542 893.946 Q160.487 891.26 160.487 886.237 Q160.487 882.927 162.385 880.636 Q164.283 878.344 167.663 877.557 M165.95 870.173 Q165.95 872.858 167.616 874.362 Q169.306 875.867 172.339 875.867 Q175.348 875.867 177.038 874.362 Q178.751 872.858 178.751 870.173 Q178.751 867.487 177.038 865.983 Q175.348 864.478 172.339 864.478 Q169.306 864.478 167.616 865.983 Q165.95 867.487 165.95 870.173 Z" fill="#000000" fill-rule="nonzero" fill-opacity="1"></path><path clip-path="url(#clip020)" d="M131.367 570.959 Q134.723 571.677 136.598 573.945 Q138.496 576.214 138.496 579.547 Q138.496 584.663 134.978 587.464 Q131.459 590.265 124.978 590.265 Q122.802 590.265 120.487 589.825 Q118.195 589.408 115.742 588.552 L115.742 584.038 Q117.686 585.172 120.001 585.751 Q122.316 586.33 124.839 586.33 Q129.237 586.33 131.529 584.593 Q133.843 582.857 133.843 579.547 Q133.843 576.492 131.691 574.779 Q129.561 573.043 125.742 573.043 L121.714 573.043 L121.714 569.2 L125.927 569.2 Q129.376 569.2 131.205 567.834 Q133.033 566.445 133.033 563.853 Q133.033 561.191 131.135 559.779 Q129.26 558.344 125.742 558.344 Q123.82 558.344 121.621 558.76 Q119.422 559.177 116.783 560.057 L116.783 555.89 Q119.445 555.149 121.76 554.779 Q124.098 554.408 126.158 554.408 Q131.482 554.408 134.584 556.839 Q137.686 559.246 137.686 563.367 Q137.686 566.237 136.042 568.228 Q134.399 570.195 131.367 570.959 Z" fill="#000000" fill-rule="nonzero" fill-opacity="1"></path><path clip-path="url(#clip020)" d="M147.362 583.714 L152.246 583.714 L152.246 589.593 L147.362 589.593 L147.362 583.714 Z" fill="#000000" fill-rule="nonzero" fill-opacity="1"></path><path clip-path="url(#clip020)" d="M162.57 588.876 L162.57 584.617 Q164.329 585.45 166.135 585.89 Q167.94 586.33 169.677 586.33 Q174.306 586.33 176.737 583.228 Q179.19 580.103 179.538 573.76 Q178.195 575.751 176.135 576.816 Q174.075 577.881 171.575 577.881 Q166.39 577.881 163.357 574.756 Q160.348 571.607 160.348 566.168 Q160.348 560.844 163.496 557.626 Q166.644 554.408 171.876 554.408 Q177.871 554.408 181.019 559.015 Q184.19 563.598 184.19 572.348 Q184.19 580.519 180.301 585.404 Q176.436 590.265 169.885 590.265 Q168.126 590.265 166.32 589.918 Q164.515 589.57 162.57 588.876 M171.876 574.223 Q175.024 574.223 176.852 572.07 Q178.704 569.918 178.704 566.168 Q178.704 562.441 176.852 560.288 Q175.024 558.112 171.876 558.112 Q168.727 558.112 166.876 560.288 Q165.047 562.441 165.047 566.168 Q165.047 569.918 166.876 572.07 Q168.727 574.223 171.876 574.223 Z" fill="#000000" fill-rule="nonzero" fill-opacity="1"></path><path clip-path="url(#clip020)" d="M129.862 252.741 L118.056 271.19 L129.862 271.19 L129.862 252.741 M128.635 248.667 L134.515 248.667 L134.515 271.19 L139.445 271.19 L139.445 275.079 L134.515 275.079 L134.515 283.227 L129.862 283.227 L129.862 275.079 L114.26 275.079 L114.26 270.565 L128.635 248.667 Z" fill="#000000" fill-rule="nonzero" fill-opacity="1"></path><path clip-path="url(#clip020)" d="M147.177 277.348 L152.061 277.348 L152.061 283.227 L147.177 283.227 L147.177 277.348 Z" fill="#000000" fill-rule="nonzero" fill-opacity="1"></path><path clip-path="url(#clip020)" d="M172.246 251.746 Q168.635 251.746 166.806 255.311 Q165.001 258.853 165.001 265.982 Q165.001 273.089 166.806 276.653 Q168.635 280.195 172.246 280.195 Q175.88 280.195 177.686 276.653 Q179.514 273.089 179.514 265.982 Q179.514 258.853 177.686 255.311 Q175.88 251.746 172.246 251.746 M172.246 248.042 Q178.056 248.042 181.112 252.649 Q184.19 257.232 184.19 265.982 Q184.19 274.709 181.112 279.315 Q178.056 283.899 172.246 283.899 Q166.436 283.899 163.357 279.315 Q160.302 274.709 160.302 265.982 Q160.302 257.232 163.357 252.649 Q166.436 248.042 172.246 248.042 Z" fill="#000000" fill-rule="nonzero" fill-opacity="1"></path><path clip-path="url(#clip020)" d="M20.1444 756.298 L26.9239 756.298 Q23.9002 759.545 22.4043 763.237 Q20.9083 766.897 20.9083 771.035 Q20.9083 779.183 25.9054 783.512 Q30.8707 787.84 40.2919 787.84 Q49.6813 787.84 54.6784 783.512 Q59.6436 779.183 59.6436 771.035 Q59.6436 766.897 58.1477 763.237 Q56.6518 759.545 53.6281 756.298 L60.3439 756.298 Q62.6355 759.672 63.7814 763.46 Q64.9272 767.216 64.9272 771.417 Q64.9272 782.207 58.3387 788.413 Q51.7183 794.62 40.2919 794.62 Q28.8336 794.62 22.2451 788.413 Q15.6248 782.207 15.6248 771.417 Q15.6248 767.152 16.7706 763.396 Q17.8846 759.609 20.1444 756.298 Z" fill="#000000" fill-rule="nonzero" fill-opacity="1"></path><path clip-path="url(#clip020)" d="M32.4621 732.809 Q32.4621 737.52 36.1542 740.257 Q39.8145 742.994 46.212 742.994 Q52.6095 742.994 56.3017 740.289 Q59.9619 737.551 59.9619 732.809 Q59.9619 728.13 56.2698 725.393 Q52.5777 722.656 46.212 722.656 Q39.8781 722.656 36.186 725.393 Q32.4621 728.13 32.4621 732.809 M27.4968 732.809 Q27.4968 725.17 32.4621 720.81 Q37.4273 716.449 46.212 716.449 Q54.9649 716.449 59.9619 720.81 Q64.9272 725.17 64.9272 732.809 Q64.9272 740.48 59.9619 744.84 Q54.9649 749.169 46.212 749.169 Q37.4273 749.169 32.4621 744.84 Q27.4968 740.48 27.4968 732.809 Z" fill="#000000" fill-rule="nonzero" fill-opacity="1"></path><path clip-path="url(#clip020)" d="M21.7677 700.057 L39.6235 700.057 L39.6235 691.973 Q39.6235 687.485 37.3 685.034 Q34.9765 682.583 30.6797 682.583 Q26.4147 682.583 24.0912 685.034 Q21.7677 687.485 21.7677 691.973 L21.7677 700.057 M16.4842 706.487 L16.4842 691.973 Q16.4842 683.984 20.1126 679.91 Q23.7092 675.804 30.6797 675.804 Q37.7138 675.804 41.3104 679.91 Q44.907 683.984 44.907 691.973 L44.907 700.057 L64.0042 700.057 L64.0042 706.487 L16.4842 706.487 Z" fill="#000000" fill-rule="nonzero" fill-opacity="1"></path><circle clip-path="url(#clip023)" cx="280.546" cy="917.716" r="14.4" fill="#009af9" fill-rule="evenodd" fill-opacity="1" stroke="#000000" stroke-opacity="1" stroke-width="3.2"></circle>
<circle clip-path="url(#clip023)" cx="299.706" cy="815.774" r="14.4" fill="#009af9" fill-rule="evenodd" fill-opacity="1" stroke="#000000" stroke-opacity="1" stroke-width="3.2"></circle>
<circle clip-path="url(#clip023)" cx="318.867" cy="777.331" r="14.4" fill="#009af9" fill-rule="evenodd" fill-opacity="1" stroke="#000000" stroke-opacity="1" stroke-width="3.2"></circle>
<circle clip-path="url(#clip023)" cx="338.028" cy="592.605" r="14.4" fill="#009af9" fill-rule="evenodd" fill-opacity="1" stroke="#000000" stroke-opacity="1" stroke-width="3.2"></circle>
<circle clip-path="url(#clip023)" cx="357.188" cy="521.294" r="14.4" fill="#009af9" fill-rule="evenodd" fill-opacity="1" stroke="#000000" stroke-opacity="1" stroke-width="3.2"></circle>
<circle clip-path="url(#clip023)" cx="376.349" cy="521.294" r="14.4" fill="#009af9" fill-rule="evenodd" fill-opacity="1" stroke="#000000" stroke-opacity="1" stroke-width="3.2"></circle>
<circle clip-path="url(#clip023)" cx="395.509" cy="486.13" r="14.4" fill="#009af9" fill-rule="evenodd" fill-opacity="1" stroke="#000000" stroke-opacity="1" stroke-width="3.2"></circle>
<circle clip-path="url(#clip023)" cx="414.67" cy="486.13" r="14.4" fill="#009af9" fill-rule="evenodd" fill-opacity="1" stroke="#000000" stroke-opacity="1" stroke-width="3.2"></circle>
<circle clip-path="url(#clip023)" cx="433.83" cy="486.13" r="14.4" fill="#009af9" fill-rule="evenodd" fill-opacity="1" stroke="#000000" stroke-opacity="1" stroke-width="3.2"></circle>
<circle clip-path="url(#clip023)" cx="452.991" cy="418.68" r="14.4" fill="#009af9" fill-rule="evenodd" fill-opacity="1" stroke="#000000" stroke-opacity="1" stroke-width="3.2"></circle>
<circle clip-path="url(#clip023)" cx="472.151" cy="418.68" r="14.4" fill="#009af9" fill-rule="evenodd" fill-opacity="1" stroke="#000000" stroke-opacity="1" stroke-width="3.2"></circle>
<circle clip-path="url(#clip023)" cx="491.312" cy="383.319" r="14.4" fill="#009af9" fill-rule="evenodd" fill-opacity="1" stroke="#000000" stroke-opacity="1" stroke-width="3.2"></circle>
<circle clip-path="url(#clip023)" cx="510.472" cy="383.319" r="14.4" fill="#009af9" fill-rule="evenodd" fill-opacity="1" stroke="#000000" stroke-opacity="1" stroke-width="3.2"></circle>
<circle clip-path="url(#clip023)" cx="529.633" cy="224.456" r="14.4" fill="#009af9" fill-rule="evenodd" fill-opacity="1" stroke="#000000" stroke-opacity="1" stroke-width="3.2"></circle>
<circle clip-path="url(#clip023)" cx="548.793" cy="224.456" r="14.4" fill="#009af9" fill-rule="evenodd" fill-opacity="1" stroke="#000000" stroke-opacity="1" stroke-width="3.2"></circle>
<circle clip-path="url(#clip023)" cx="567.954" cy="224.456" r="14.4" fill="#009af9" fill-rule="evenodd" fill-opacity="1" stroke="#000000" stroke-opacity="1" stroke-width="3.2"></circle>
<circle clip-path="url(#clip023)" cx="587.114" cy="224.456" r="14.4" fill="#009af9" fill-rule="evenodd" fill-opacity="1" stroke="#000000" stroke-opacity="1" stroke-width="3.2"></circle>
<circle clip-path="url(#clip023)" cx="606.275" cy="224.456" r="14.4" fill="#009af9" fill-rule="evenodd" fill-opacity="1" stroke="#000000" stroke-opacity="1" stroke-width="3.2"></circle>
<circle clip-path="url(#clip023)" cx="625.435" cy="192.903" r="14.4" fill="#009af9" fill-rule="evenodd" fill-opacity="1" stroke="#000000" stroke-opacity="1" stroke-width="3.2"></circle>
<circle clip-path="url(#clip023)" cx="644.596" cy="192.903" r="14.4" fill="#009af9" fill-rule="evenodd" fill-opacity="1" stroke="#000000" stroke-opacity="1" stroke-width="3.2"></circle>
<circle clip-path="url(#clip023)" cx="663.756" cy="192.903" r="14.4" fill="#009af9" fill-rule="evenodd" fill-opacity="1" stroke="#000000" stroke-opacity="1" stroke-width="3.2"></circle>
<circle clip-path="url(#clip023)" cx="682.917" cy="192.903" r="14.4" fill="#009af9" fill-rule="evenodd" fill-opacity="1" stroke="#000000" stroke-opacity="1" stroke-width="3.2"></circle>
<circle clip-path="url(#clip023)" cx="702.077" cy="123.29" r="14.4" fill="#009af9" fill-rule="evenodd" fill-opacity="1" stroke="#000000" stroke-opacity="1" stroke-width="3.2"></circle>
<circle clip-path="url(#clip023)" cx="721.238" cy="123.29" r="14.4" fill="#009af9" fill-rule="evenodd" fill-opacity="1" stroke="#000000" stroke-opacity="1" stroke-width="3.2"></circle>
<circle clip-path="url(#clip023)" cx="740.398" cy="123.29" r="14.4" fill="#009af9" fill-rule="evenodd" fill-opacity="1" stroke="#000000" stroke-opacity="1" stroke-width="3.2"></circle>
<circle clip-path="url(#clip023)" cx="759.559" cy="123.29" r="14.4" fill="#009af9" fill-rule="evenodd" fill-opacity="1" stroke="#000000" stroke-opacity="1" stroke-width="3.2"></circle>
<circle clip-path="url(#clip023)" cx="778.719" cy="123.29" r="14.4" fill="#009af9" fill-rule="evenodd" fill-opacity="1" stroke="#000000" stroke-opacity="1" stroke-width="3.2"></circle>
<circle clip-path="url(#clip023)" cx="797.88" cy="123.29" r="14.4" fill="#009af9" fill-rule="evenodd" fill-opacity="1" stroke="#000000" stroke-opacity="1" stroke-width="3.2"></circle>
<circle clip-path="url(#clip023)" cx="817.04" cy="123.29" r="14.4" fill="#009af9" fill-rule="evenodd" fill-opacity="1" stroke="#000000" stroke-opacity="1" stroke-width="3.2"></circle>
<circle clip-path="url(#clip023)" cx="836.201" cy="123.29" r="14.4" fill="#009af9" fill-rule="evenodd" fill-opacity="1" stroke="#000000" stroke-opacity="1" stroke-width="3.2"></circle>
<circle clip-path="url(#clip023)" cx="855.361" cy="86.1857" r="14.4" fill="#009af9" fill-rule="evenodd" fill-opacity="1" stroke="#000000" stroke-opacity="1" stroke-width="3.2"></circle>
<circle clip-path="url(#clip023)" cx="874.522" cy="86.1857" r="14.4" fill="#009af9" fill-rule="evenodd" fill-opacity="1" stroke="#000000" stroke-opacity="1" stroke-width="3.2"></circle>
<circle clip-path="url(#clip023)" cx="893.683" cy="86.1857" r="14.4" fill="#009af9" fill-rule="evenodd" fill-opacity="1" stroke="#000000" stroke-opacity="1" stroke-width="3.2"></circle>
<circle clip-path="url(#clip023)" cx="912.843" cy="86.1857" r="14.4" fill="#009af9" fill-rule="evenodd" fill-opacity="1" stroke="#000000" stroke-opacity="1" stroke-width="3.2"></circle>
<circle clip-path="url(#clip023)" cx="932.004" cy="86.1857" r="14.4" fill="#009af9" fill-rule="evenodd" fill-opacity="1" stroke="#000000" stroke-opacity="1" stroke-width="3.2"></circle>
<circle clip-path="url(#clip023)" cx="951.164" cy="86.1857" r="14.4" fill="#009af9" fill-rule="evenodd" fill-opacity="1" stroke="#000000" stroke-opacity="1" stroke-width="3.2"></circle>
<circle clip-path="url(#clip023)" cx="970.325" cy="86.1857" r="14.4" fill="#009af9" fill-rule="evenodd" fill-opacity="1" stroke="#000000" stroke-opacity="1" stroke-width="3.2"></circle>
<circle clip-path="url(#clip023)" cx="989.485" cy="86.1857" r="14.4" fill="#009af9" fill-rule="evenodd" fill-opacity="1" stroke="#000000" stroke-opacity="1" stroke-width="3.2"></circle>
<circle clip-path="url(#clip023)" cx="1008.65" cy="86.1857" r="14.4" fill="#009af9" fill-rule="evenodd" fill-opacity="1" stroke="#000000" stroke-opacity="1" stroke-width="3.2"></circle>
<circle clip-path="url(#clip023)" cx="1027.81" cy="86.1857" r="14.4" fill="#009af9" fill-rule="evenodd" fill-opacity="1" stroke="#000000" stroke-opacity="1" stroke-width="3.2"></circle>
<circle clip-path="url(#clip023)" cx="1046.97" cy="86.1857" r="14.4" fill="#009af9" fill-rule="evenodd" fill-opacity="1" stroke="#000000" stroke-opacity="1" stroke-width="3.2"></circle>
<circle clip-path="url(#clip023)" cx="1066.13" cy="86.1857" r="14.4" fill="#009af9" fill-rule="evenodd" fill-opacity="1" stroke="#000000" stroke-opacity="1" stroke-width="3.2"></circle>
<circle clip-path="url(#clip023)" cx="1085.29" cy="86.1857" r="14.4" fill="#009af9" fill-rule="evenodd" fill-opacity="1" stroke="#000000" stroke-opacity="1" stroke-width="3.2"></circle>
<circle clip-path="url(#clip023)" cx="1104.45" cy="86.1857" r="14.4" fill="#009af9" fill-rule="evenodd" fill-opacity="1" stroke="#000000" stroke-opacity="1" stroke-width="3.2"></circle>
<circle clip-path="url(#clip023)" cx="1123.61" cy="86.1857" r="14.4" fill="#009af9" fill-rule="evenodd" fill-opacity="1" stroke="#000000" stroke-opacity="1" stroke-width="3.2"></circle>
<circle clip-path="url(#clip023)" cx="1142.77" cy="86.1857" r="14.4" fill="#009af9" fill-rule="evenodd" fill-opacity="1" stroke="#000000" stroke-opacity="1" stroke-width="3.2"></circle>
<circle clip-path="url(#clip023)" cx="1161.93" cy="86.1857" r="14.4" fill="#009af9" fill-rule="evenodd" fill-opacity="1" stroke="#000000" stroke-opacity="1" stroke-width="3.2"></circle>
<circle clip-path="url(#clip023)" cx="1181.09" cy="86.1857" r="14.4" fill="#009af9" fill-rule="evenodd" fill-opacity="1" stroke="#000000" stroke-opacity="1" stroke-width="3.2"></circle>
<circle clip-path="url(#clip023)" cx="1200.25" cy="86.1857" r="14.4" fill="#009af9" fill-rule="evenodd" fill-opacity="1" stroke="#000000" stroke-opacity="1" stroke-width="3.2"></circle>
<circle clip-path="url(#clip023)" cx="1219.41" cy="86.1857" r="14.4" fill="#009af9" fill-rule="evenodd" fill-opacity="1" stroke="#000000" stroke-opacity="1" stroke-width="3.2"></circle>
<circle clip-path="url(#clip023)" cx="1238.57" cy="86.1857" r="14.4" fill="#009af9" fill-rule="evenodd" fill-opacity="1" stroke="#000000" stroke-opacity="1" stroke-width="3.2"></circle>
<circle clip-path="url(#clip023)" cx="1257.73" cy="86.1857" r="14.4" fill="#009af9" fill-rule="evenodd" fill-opacity="1" stroke="#000000" stroke-opacity="1" stroke-width="3.2"></circle>
<circle clip-path="url(#clip023)" cx="1276.89" cy="86.1857" r="14.4" fill="#009af9" fill-rule="evenodd" fill-opacity="1" stroke="#000000" stroke-opacity="1" stroke-width="3.2"></circle>
<circle clip-path="url(#clip023)" cx="1296.05" cy="86.1857" r="14.4" fill="#009af9" fill-rule="evenodd" fill-opacity="1" stroke="#000000" stroke-opacity="1" stroke-width="3.2"></circle>
<circle clip-path="url(#clip023)" cx="1315.21" cy="86.1857" r="14.4" fill="#009af9" fill-rule="evenodd" fill-opacity="1" stroke="#000000" stroke-opacity="1" stroke-width="3.2"></circle>
<circle clip-path="url(#clip023)" cx="1334.37" cy="86.1857" r="14.4" fill="#009af9" fill-rule="evenodd" fill-opacity="1" stroke="#000000" stroke-opacity="1" stroke-width="3.2"></circle>
<circle clip-path="url(#clip023)" cx="1353.53" cy="86.1857" r="14.4" fill="#009af9" fill-rule="evenodd" fill-opacity="1" stroke="#000000" stroke-opacity="1" stroke-width="3.2"></circle>
<circle clip-path="url(#clip023)" cx="1372.7" cy="86.1857" r="14.4" fill="#009af9" fill-rule="evenodd" fill-opacity="1" stroke="#000000" stroke-opacity="1" stroke-width="3.2"></circle>
<circle clip-path="url(#clip023)" cx="1391.86" cy="86.1857" r="14.4" fill="#009af9" fill-rule="evenodd" fill-opacity="1" stroke="#000000" stroke-opacity="1" stroke-width="3.2"></circle>
<circle clip-path="url(#clip023)" cx="1411.02" cy="86.1857" r="14.4" fill="#009af9" fill-rule="evenodd" fill-opacity="1" stroke="#000000" stroke-opacity="1" stroke-width="3.2"></circle>
<circle clip-path="url(#clip023)" cx="1430.18" cy="86.1857" r="14.4" fill="#009af9" fill-rule="evenodd" fill-opacity="1" stroke="#000000" stroke-opacity="1" stroke-width="3.2"></circle>
<circle clip-path="url(#clip023)" cx="1449.34" cy="86.1857" r="14.4" fill="#009af9" fill-rule="evenodd" fill-opacity="1" stroke="#000000" stroke-opacity="1" stroke-width="3.2"></circle>
<circle clip-path="url(#clip023)" cx="1468.5" cy="86.1857" r="14.4" fill="#009af9" fill-rule="evenodd" fill-opacity="1" stroke="#000000" stroke-opacity="1" stroke-width="3.2"></circle>
<circle clip-path="url(#clip023)" cx="1487.66" cy="86.1857" r="14.4" fill="#009af9" fill-rule="evenodd" fill-opacity="1" stroke="#000000" stroke-opacity="1" stroke-width="3.2"></circle>
<circle clip-path="url(#clip023)" cx="1506.82" cy="86.1857" r="14.4" fill="#009af9" fill-rule="evenodd" fill-opacity="1" stroke="#000000" stroke-opacity="1" stroke-width="3.2"></circle>
<circle clip-path="url(#clip023)" cx="1525.98" cy="86.1857" r="14.4" fill="#009af9" fill-rule="evenodd" fill-opacity="1" stroke="#000000" stroke-opacity="1" stroke-width="3.2"></circle>
<circle clip-path="url(#clip023)" cx="1545.14" cy="86.1857" r="14.4" fill="#009af9" fill-rule="evenodd" fill-opacity="1" stroke="#000000" stroke-opacity="1" stroke-width="3.2"></circle>
<circle clip-path="url(#clip023)" cx="1564.3" cy="123.29" r="14.4" fill="#009af9" fill-rule="evenodd" fill-opacity="1" stroke="#000000" stroke-opacity="1" stroke-width="3.2"></circle>
<circle clip-path="url(#clip023)" cx="1583.46" cy="123.29" r="14.4" fill="#009af9" fill-rule="evenodd" fill-opacity="1" stroke="#000000" stroke-opacity="1" stroke-width="3.2"></circle>
<circle clip-path="url(#clip023)" cx="1602.62" cy="123.29" r="14.4" fill="#009af9" fill-rule="evenodd" fill-opacity="1" stroke="#000000" stroke-opacity="1" stroke-width="3.2"></circle>
<circle clip-path="url(#clip023)" cx="1621.78" cy="123.29" r="14.4" fill="#009af9" fill-rule="evenodd" fill-opacity="1" stroke="#000000" stroke-opacity="1" stroke-width="3.2"></circle>
<circle clip-path="url(#clip023)" cx="1640.94" cy="123.29" r="14.4" fill="#009af9" fill-rule="evenodd" fill-opacity="1" stroke="#000000" stroke-opacity="1" stroke-width="3.2"></circle>
<circle clip-path="url(#clip023)" cx="1660.1" cy="123.29" r="14.4" fill="#009af9" fill-rule="evenodd" fill-opacity="1" stroke="#000000" stroke-opacity="1" stroke-width="3.2"></circle>
<circle clip-path="url(#clip023)" cx="1679.26" cy="123.29" r="14.4" fill="#009af9" fill-rule="evenodd" fill-opacity="1" stroke="#000000" stroke-opacity="1" stroke-width="3.2"></circle>
<circle clip-path="url(#clip023)" cx="1698.42" cy="192.903" r="14.4" fill="#009af9" fill-rule="evenodd" fill-opacity="1" stroke="#000000" stroke-opacity="1" stroke-width="3.2"></circle>
<circle clip-path="url(#clip023)" cx="1717.58" cy="192.903" r="14.4" fill="#009af9" fill-rule="evenodd" fill-opacity="1" stroke="#000000" stroke-opacity="1" stroke-width="3.2"></circle>
<circle clip-path="url(#clip023)" cx="1736.75" cy="192.903" r="14.4" fill="#009af9" fill-rule="evenodd" fill-opacity="1" stroke="#000000" stroke-opacity="1" stroke-width="3.2"></circle>
<circle clip-path="url(#clip023)" cx="1755.91" cy="192.903" r="14.4" fill="#009af9" fill-rule="evenodd" fill-opacity="1" stroke="#000000" stroke-opacity="1" stroke-width="3.2"></circle>
<circle clip-path="url(#clip023)" cx="1775.07" cy="192.903" r="14.4" fill="#009af9" fill-rule="evenodd" fill-opacity="1" stroke="#000000" stroke-opacity="1" stroke-width="3.2"></circle>
<circle clip-path="url(#clip023)" cx="1794.23" cy="192.903" r="14.4" fill="#009af9" fill-rule="evenodd" fill-opacity="1" stroke="#000000" stroke-opacity="1" stroke-width="3.2"></circle>
<circle clip-path="url(#clip023)" cx="1813.39" cy="224.456" r="14.4" fill="#009af9" fill-rule="evenodd" fill-opacity="1" stroke="#000000" stroke-opacity="1" stroke-width="3.2"></circle>
<circle clip-path="url(#clip023)" cx="1832.55" cy="224.456" r="14.4" fill="#009af9" fill-rule="evenodd" fill-opacity="1" stroke="#000000" stroke-opacity="1" stroke-width="3.2"></circle>
<circle clip-path="url(#clip023)" cx="1851.71" cy="224.456" r="14.4" fill="#009af9" fill-rule="evenodd" fill-opacity="1" stroke="#000000" stroke-opacity="1" stroke-width="3.2"></circle>
<circle clip-path="url(#clip023)" cx="1870.87" cy="224.456" r="14.4" fill="#009af9" fill-rule="evenodd" fill-opacity="1" stroke="#000000" stroke-opacity="1" stroke-width="3.2"></circle>
<circle clip-path="url(#clip023)" cx="1890.03" cy="383.319" r="14.4" fill="#009af9" fill-rule="evenodd" fill-opacity="1" stroke="#000000" stroke-opacity="1" stroke-width="3.2"></circle>
<circle clip-path="url(#clip023)" cx="1909.19" cy="383.319" r="14.4" fill="#009af9" fill-rule="evenodd" fill-opacity="1" stroke="#000000" stroke-opacity="1" stroke-width="3.2"></circle>
<circle clip-path="url(#clip023)" cx="1928.35" cy="383.319" r="14.4" fill="#009af9" fill-rule="evenodd" fill-opacity="1" stroke="#000000" stroke-opacity="1" stroke-width="3.2"></circle>
<circle clip-path="url(#clip023)" cx="1947.51" cy="383.319" r="14.4" fill="#009af9" fill-rule="evenodd" fill-opacity="1" stroke="#000000" stroke-opacity="1" stroke-width="3.2"></circle>
<circle clip-path="url(#clip023)" cx="1966.67" cy="418.68" r="14.4" fill="#009af9" fill-rule="evenodd" fill-opacity="1" stroke="#000000" stroke-opacity="1" stroke-width="3.2"></circle>
<circle clip-path="url(#clip023)" cx="1985.83" cy="418.68" r="14.4" fill="#009af9" fill-rule="evenodd" fill-opacity="1" stroke="#000000" stroke-opacity="1" stroke-width="3.2"></circle>
<circle clip-path="url(#clip023)" cx="2004.99" cy="418.68" r="14.4" fill="#009af9" fill-rule="evenodd" fill-opacity="1" stroke="#000000" stroke-opacity="1" stroke-width="3.2"></circle>
<circle clip-path="url(#clip023)" cx="2024.15" cy="486.13" r="14.4" fill="#009af9" fill-rule="evenodd" fill-opacity="1" stroke="#000000" stroke-opacity="1" stroke-width="3.2"></circle>
<circle clip-path="url(#clip023)" cx="2043.31" cy="486.13" r="14.4" fill="#009af9" fill-rule="evenodd" fill-opacity="1" stroke="#000000" stroke-opacity="1" stroke-width="3.2"></circle>
<circle clip-path="url(#clip023)" cx="2062.47" cy="486.13" r="14.4" fill="#009af9" fill-rule="evenodd" fill-opacity="1" stroke="#000000" stroke-opacity="1" stroke-width="3.2"></circle>
<circle clip-path="url(#clip023)" cx="2081.63" cy="521.294" r="14.4" fill="#009af9" fill-rule="evenodd" fill-opacity="1" stroke="#000000" stroke-opacity="1" stroke-width="3.2"></circle>
<circle clip-path="url(#clip023)" cx="2100.8" cy="521.294" r="14.4" fill="#009af9" fill-rule="evenodd" fill-opacity="1" stroke="#000000" stroke-opacity="1" stroke-width="3.2"></circle>
<circle clip-path="url(#clip023)" cx="2119.96" cy="592.605" r="14.4" fill="#009af9" fill-rule="evenodd" fill-opacity="1" stroke="#000000" stroke-opacity="1" stroke-width="3.2"></circle>
<circle clip-path="url(#clip023)" cx="2139.12" cy="592.605" r="14.4" fill="#009af9" fill-rule="evenodd" fill-opacity="1" stroke="#000000" stroke-opacity="1" stroke-width="3.2"></circle>
<circle clip-path="url(#clip023)" cx="2158.28" cy="627.179" r="14.4" fill="#009af9" fill-rule="evenodd" fill-opacity="1" stroke="#000000" stroke-opacity="1" stroke-width="3.2"></circle>
<circle clip-path="url(#clip023)" cx="2177.44" cy="777.331" r="14.4" fill="#009af9" fill-rule="evenodd" fill-opacity="1" stroke="#000000" stroke-opacity="1" stroke-width="3.2"></circle>
<circle clip-path="url(#clip023)" cx="2196.6" cy="777.331" r="14.4" fill="#009af9" fill-rule="evenodd" fill-opacity="1" stroke="#000000" stroke-opacity="1" stroke-width="3.2"></circle>
<circle clip-path="url(#clip023)" cx="2215.76" cy="777.331" r="14.4" fill="#009af9" fill-rule="evenodd" fill-opacity="1" stroke="#000000" stroke-opacity="1" stroke-width="3.2"></circle>
<circle clip-path="url(#clip023)" cx="2234.92" cy="917.716" r="14.4" fill="#009af9" fill-rule="evenodd" fill-opacity="1" stroke="#000000" stroke-opacity="1" stroke-width="3.2"></circle>
<circle clip-path="url(#clip023)" cx="2254.08" cy="1066.48" r="14.4" fill="#009af9" fill-rule="evenodd" fill-opacity="1" stroke="#000000" stroke-opacity="1" stroke-width="3.2"></circle>
<circle clip-path="url(#clip023)" cx="2273.24" cy="1139.54" r="14.4" fill="#009af9" fill-rule="evenodd" fill-opacity="1" stroke="#000000" stroke-opacity="1" stroke-width="3.2"></circle>
<circle clip-path="url(#clip023)" cx="2292.4" cy="1384.24" r="14.4" fill="#009af9" fill-rule="evenodd" fill-opacity="1" stroke="#000000" stroke-opacity="1" stroke-width="3.2"></circle>
<path clip-path="url(#clip020)" d="M291.276 1377.32 L694.531 1377.32 L694.531 1273.64 L291.276 1273.64  Z" fill="#ffffff" fill-rule="evenodd" fill-opacity="1"></path>
<polyline clip-path="url(#clip020)" style="stroke:#000000; stroke-linecap:round; stroke-linejoin:round; stroke-width:4; stroke-opacity:1; fill:none" points="291.276,1377.32 694.531,1377.32 694.531,1273.64 291.276,1273.64 291.276,1377.32 "></polyline>
<circle clip-path="url(#clip020)" cx="386.057" cy="1325.48" r="23.04" fill="#009af9" fill-rule="evenodd" fill-opacity="1" stroke="#000000" stroke-opacity="1" stroke-width="5.12"></circle>
<path clip-path="url(#clip020)" d="M509.858 1314.64 Q509.858 1313.87 509.647 1313.24 Q509.459 1312.58 509.155 1312.13 Q508.874 1311.67 508.335 1311.31 Q507.796 1310.94 507.351 1310.71 Q506.906 1310.47 506.157 1310.33 Q505.407 1310.17 504.916 1310.1 Q504.424 1310 503.58 1309.96 Q502.737 1309.91 502.316 1309.91 Q501.917 1309.91 501.121 1309.91 Q498.615 1309.91 498.193 1309.96 Q497.561 1310.05 497.327 1310.42 Q497.092 1310.78 496.858 1311.74 L493.743 1324.24 L499.107 1324.24 Q502.035 1324.24 504.049 1323.42 Q506.063 1322.6 507.211 1321.46 Q508.476 1320.19 509.155 1318.15 Q509.858 1316.12 509.858 1314.64 M515.081 1336.73 Q515.081 1336.99 514.87 1337.57 Q514.683 1338.16 514.214 1338.98 Q513.746 1339.77 513.113 1340.5 Q512.481 1341.23 511.474 1341.72 Q510.467 1342.23 509.319 1342.23 Q509.038 1342.23 508.757 1342.21 Q508.476 1342.21 507.773 1342.09 Q507.094 1342 506.532 1341.81 Q505.97 1341.65 505.267 1341.25 Q504.564 1340.87 504.072 1340.36 Q503.604 1339.82 503.276 1338.98 Q502.948 1338.11 502.948 1337.06 Q502.948 1336.12 503.721 1332.98 Q504.4 1330.31 504.4 1329.65 Q504.4 1328.93 504.166 1328.25 Q503.955 1327.57 503.416 1326.87 Q502.901 1326.16 501.8 1325.74 Q500.699 1325.3 499.154 1325.3 L493.462 1325.3 L490.276 1338.02 Q490.276 1338.04 490.206 1338.37 Q490.136 1338.67 490.136 1338.84 Q490.136 1339.14 490.323 1339.33 Q490.534 1339.52 491.049 1339.61 Q491.565 1339.68 491.963 1339.7 Q492.385 1339.7 493.251 1339.7 Q494.329 1339.7 494.516 1339.89 Q494.61 1340.01 494.61 1340.22 Q494.61 1340.55 494.516 1340.78 Q494.446 1340.99 494.258 1341.06 Q494.094 1341.13 493.977 1341.16 Q493.86 1341.18 493.649 1341.18 L487.559 1341.04 L481.516 1341.18 Q480.837 1341.18 480.837 1340.64 Q480.837 1340.17 481.001 1339.98 Q481.165 1339.77 481.376 1339.75 Q481.587 1339.7 482.125 1339.7 Q483.297 1339.7 483.999 1339.63 Q484.702 1339.56 485.147 1339.47 Q485.615 1339.35 485.85 1339.02 Q486.107 1338.7 486.224 1338.41 Q486.342 1338.11 486.505 1337.43 L492.923 1311.67 Q493.111 1310.89 493.111 1310.78 Q493.111 1310.33 492.83 1310.21 Q492.572 1310.07 491.822 1310 L489.995 1309.91 Q489.433 1309.91 489.199 1309.89 Q488.988 1309.86 488.824 1309.75 Q488.66 1309.63 488.66 1309.37 Q488.66 1308.71 488.941 1308.57 Q489.222 1308.41 490.042 1308.41 L503.721 1308.41 Q508.382 1308.41 511.333 1310.45 Q514.308 1312.49 514.308 1315.6 Q514.308 1317.01 513.676 1318.32 Q513.043 1319.63 511.989 1320.66 Q510.959 1321.69 509.577 1322.56 Q508.195 1323.4 506.719 1323.99 Q505.267 1324.55 503.768 1324.88 Q504.424 1325.11 505.033 1325.46 Q505.665 1325.81 506.461 1326.47 Q507.281 1327.12 507.773 1328.18 Q508.265 1329.23 508.265 1330.52 Q508.265 1331.43 508.078 1332.79 Q507.609 1336.66 507.609 1338.25 Q507.609 1339.77 508.007 1340.48 Q508.405 1341.18 509.53 1341.18 Q510.631 1341.18 511.849 1340.19 Q513.09 1339.19 513.886 1336.82 Q514.074 1336.14 514.519 1336.14 Q514.542 1336.14 514.566 1336.14 Q514.612 1336.14 514.706 1336.19 Q514.8 1336.21 514.87 1336.28 Q514.964 1336.33 515.011 1336.45 Q515.081 1336.56 515.081 1336.73 Z" fill="#000000" fill-rule="nonzero" fill-opacity="1"></path><path clip-path="url(#clip020)" d="M561.852 1328.51 Q562.133 1328.79 562.133 1329.19 Q562.133 1329.58 561.852 1329.87 Q561.57 1330.15 561.172 1330.15 L531.145 1330.15 Q530.747 1330.15 530.465 1329.87 Q530.184 1329.58 530.184 1329.19 Q530.184 1328.79 530.465 1328.51 Q530.747 1328.23 531.145 1328.23 L561.172 1328.23 Q561.57 1328.23 561.852 1328.51 Z" fill="#000000" fill-rule="nonzero" fill-opacity="1"></path><path clip-path="url(#clip020)" d="M580.436 1313.8 L580.436 1312.3 Q586.198 1312.3 589.173 1309.23 Q589.992 1309.23 590.133 1309.42 Q590.274 1309.6 590.274 1310.47 L590.274 1337.38 Q590.274 1338.81 590.976 1339.26 Q591.679 1339.7 594.747 1339.7 L596.27 1339.7 L596.27 1341.18 Q594.583 1341.04 588.493 1341.04 Q582.404 1341.04 580.741 1341.18 L580.741 1339.7 L582.263 1339.7 Q585.285 1339.7 586.011 1339.28 Q586.737 1338.84 586.737 1337.38 L586.737 1312.53 Q584.231 1313.8 580.436 1313.8 Z" fill="#000000" fill-rule="nonzero" fill-opacity="1"></path><path clip-path="url(#clip020)" d="M599.958 1334.71 Q599.958 1333.29 600.778 1332.61 Q601.598 1331.93 602.652 1331.93 Q603.753 1331.93 604.526 1332.65 Q605.322 1333.36 605.322 1334.6 Q605.322 1335.93 604.385 1336.68 Q603.472 1337.43 602.16 1337.24 Q603.308 1339.16 605.416 1340.03 Q607.547 1340.9 609.514 1340.9 Q611.576 1340.9 613.239 1339.12 Q614.925 1337.34 614.925 1332.98 Q614.925 1329.28 613.473 1327.15 Q612.044 1325.02 609.21 1325.02 L607.102 1325.02 Q606.376 1325.02 606.165 1324.95 Q605.954 1324.88 605.954 1324.48 Q605.954 1324.01 606.68 1323.92 Q607.406 1323.92 608.554 1323.78 Q611.341 1323.68 612.817 1321.27 Q614.152 1319.02 614.152 1315.81 Q614.152 1312.88 612.747 1311.67 Q611.365 1310.42 609.561 1310.42 Q607.875 1310.42 606.025 1311.13 Q604.174 1311.83 603.167 1313.4 Q606.142 1313.4 606.142 1315.81 Q606.142 1316.87 605.462 1317.57 Q604.807 1318.25 603.706 1318.25 Q602.652 1318.25 601.949 1317.59 Q601.246 1316.91 601.246 1315.77 Q601.246 1313.02 603.682 1311.13 Q606.142 1309.23 609.749 1309.23 Q613.309 1309.23 615.932 1311.1 Q618.579 1312.98 618.579 1315.86 Q618.579 1318.69 616.705 1321.01 Q614.831 1323.33 611.857 1324.29 Q615.511 1325.02 617.689 1327.5 Q619.867 1329.96 619.867 1332.98 Q619.867 1336.73 616.916 1339.49 Q613.965 1342.23 609.655 1342.23 Q605.673 1342.23 602.816 1340.08 Q599.958 1337.92 599.958 1334.71 Z" fill="#000000" fill-rule="nonzero" fill-opacity="1"></path><path clip-path="url(#clip020)" d="M620.815 1333.26 L620.815 1331.79 L635.548 1309.28 Q635.923 1308.69 636.508 1308.71 Q637.047 1308.71 637.164 1308.93 Q637.281 1309.14 637.281 1309.96 L637.281 1331.79 L642.083 1331.79 L642.083 1333.26 L637.281 1333.26 L637.281 1337.43 Q637.281 1338.81 637.843 1339.26 Q638.429 1339.7 640.912 1339.7 L641.919 1339.7 L641.919 1341.18 Q639.951 1341.04 635.407 1341.04 Q630.887 1341.04 628.919 1341.18 L628.919 1339.7 L629.926 1339.7 Q632.409 1339.7 632.995 1339.28 Q633.58 1338.84 633.58 1337.43 L633.58 1333.26 L620.815 1333.26 M622.174 1331.79 L633.861 1331.79 L633.861 1313.89 L622.174 1331.79 Z" fill="#000000" fill-rule="nonzero" fill-opacity="1"></path><path clip-path="url(#clip020)" d="M667.687 1334.32 Q667.055 1337.34 666.235 1339.07 Q664.924 1341.72 662.698 1341.72 Q661.012 1341.72 659.817 1340.69 Q658.623 1339.66 658.342 1338.11 Q655.273 1341.72 652.088 1341.72 Q649.277 1341.72 647.497 1339.59 Q645.717 1337.43 645.717 1334.03 Q645.717 1330.61 647.404 1327.34 Q649.113 1324.06 651.807 1322.02 Q654.501 1319.98 657.264 1319.98 Q660.192 1319.98 661.691 1323.05 Q661.808 1322.21 662.347 1321.57 Q662.886 1320.94 663.706 1320.94 Q664.338 1320.94 664.713 1321.29 Q665.088 1321.62 665.088 1322.23 Q665.088 1322.53 664.76 1323.87 L663.026 1330.57 L661.972 1334.9 Q661.574 1336.49 661.457 1337.08 Q661.363 1337.67 661.363 1338.44 Q661.363 1340.64 662.792 1340.64 Q663.495 1340.64 664.057 1340.19 Q664.619 1339.75 665.064 1338.81 Q665.509 1337.88 665.79 1337.01 Q666.071 1336.12 666.446 1334.71 Q666.563 1334.15 666.657 1334.01 Q666.774 1333.85 667.102 1333.85 Q667.687 1333.85 667.687 1334.32 M661.106 1325.25 Q661.106 1325.04 660.942 1324.45 Q660.778 1323.87 660.403 1323.05 Q660.028 1322.23 659.208 1321.64 Q658.412 1321.04 657.335 1321.04 Q655.882 1321.04 654.36 1322.28 Q652.861 1323.52 651.76 1325.63 Q650.917 1327.31 650.003 1330.85 Q649.113 1334.39 649.113 1336.14 Q649.113 1337.22 649.348 1338.18 Q649.605 1339.12 650.331 1339.89 Q651.057 1340.64 652.182 1340.64 Q654.922 1340.64 657.616 1337.24 Q658.131 1336.66 658.248 1336.42 Q658.389 1336.17 658.576 1335.46 L660.965 1326.07 Q661.106 1325.37 661.106 1325.25 Z" fill="#000000" fill-rule="nonzero" fill-opacity="1"></path></svg>