<svg xmlns="http://www.w3.org/2000/svg" xmlns:xlink="http://www.w3.org/1999/xlink" width="600" height="400" viewBox="0 0 2400 1600">
<defs>
  <clipPath id="clip740">
    <rect x="0" y="0" width="2400" height="1600"></rect>
  </clipPath>
</defs>
<path clip-path="url(#clip740)" d="M0 1600 L2400 1600 L2400 0 L0 0  Z" fill="#ffffff" fill-rule="evenodd" fill-opacity="1"></path>
<defs>
  <clipPath id="clip741">
    <rect x="480" y="0" width="1681" height="1600"></rect>
  </clipPath>
</defs>
<defs>
  <clipPath id="clip742">
    <rect x="219" y="47" width="2134" height="1377"></rect>
  </clipPath>
</defs>
<path clip-path="url(#clip740)" d="M219.38 1423.18 L2352.76 1423.18 L2352.76 47.2441 L219.38 47.2441  Z" fill="#ffffff" fill-rule="evenodd" fill-opacity="1"></path>
<polyline clip-path="url(#clip742)" style="stroke:#000000; stroke-linecap:round; stroke-linejoin:round; stroke-width:2; stroke-opacity:0.1; fill:none" points="248.432,1423.18 248.432,47.2441 "></polyline>
<polyline clip-path="url(#clip742)" style="stroke:#000000; stroke-linecap:round; stroke-linejoin:round; stroke-width:2; stroke-opacity:0.1; fill:none" points="685.958,1423.18 685.958,47.2441 "></polyline>
<polyline clip-path="url(#clip742)" style="stroke:#000000; stroke-linecap:round; stroke-linejoin:round; stroke-width:2; stroke-opacity:0.1; fill:none" points="1123.48,1423.18 1123.48,47.2441 "></polyline>
<polyline clip-path="url(#clip742)" style="stroke:#000000; stroke-linecap:round; stroke-linejoin:round; stroke-width:2; stroke-opacity:0.1; fill:none" points="1561.01,1423.18 1561.01,47.2441 "></polyline>
<polyline clip-path="url(#clip742)" style="stroke:#000000; stroke-linecap:round; stroke-linejoin:round; stroke-width:2; stroke-opacity:0.1; fill:none" points="1998.54,1423.18 1998.54,47.2441 "></polyline>
<polyline clip-path="url(#clip740)" style="stroke:#000000; stroke-linecap:round; stroke-linejoin:round; stroke-width:4; stroke-opacity:1; fill:none" points="219.38,1423.18 2352.76,1423.18 "></polyline>
<polyline clip-path="url(#clip740)" style="stroke:#000000; stroke-linecap:round; stroke-linejoin:round; stroke-width:4; stroke-opacity:1; fill:none" points="248.432,1423.18 248.432,1404.28 "></polyline>
<polyline clip-path="url(#clip740)" style="stroke:#000000; stroke-linecap:round; stroke-linejoin:round; stroke-width:4; stroke-opacity:1; fill:none" points="685.958,1423.18 685.958,1404.28 "></polyline>
<polyline clip-path="url(#clip740)" style="stroke:#000000; stroke-linecap:round; stroke-linejoin:round; stroke-width:4; stroke-opacity:1; fill:none" points="1123.48,1423.18 1123.48,1404.28 "></polyline>
<polyline clip-path="url(#clip740)" style="stroke:#000000; stroke-linecap:round; stroke-linejoin:round; stroke-width:4; stroke-opacity:1; fill:none" points="1561.01,1423.18 1561.01,1404.28 "></polyline>
<polyline clip-path="url(#clip740)" style="stroke:#000000; stroke-linecap:round; stroke-linejoin:round; stroke-width:4; stroke-opacity:1; fill:none" points="1998.54,1423.18 1998.54,1404.28 "></polyline>
<path clip-path="url(#clip740)" d="M208.05 1451.02 L226.407 1451.02 L226.407 1454.96 L212.333 1454.96 L212.333 1463.43 Q213.351 1463.08 214.37 1462.92 Q215.388 1462.73 216.407 1462.73 Q222.194 1462.73 225.573 1465.9 Q228.953 1469.08 228.953 1474.49 Q228.953 1480.07 225.481 1483.17 Q222.008 1486.25 215.689 1486.25 Q213.513 1486.25 211.245 1485.88 Q208.999 1485.51 206.592 1484.77 L206.592 1480.07 Q208.675 1481.2 210.897 1481.76 Q213.12 1482.32 215.596 1482.32 Q219.601 1482.32 221.939 1480.21 Q224.277 1478.1 224.277 1474.49 Q224.277 1470.88 221.939 1468.77 Q219.601 1466.67 215.596 1466.67 Q213.721 1466.67 211.846 1467.08 Q209.995 1467.5 208.05 1468.38 L208.05 1451.02 Z" fill="#000000" fill-rule="nonzero" fill-opacity="1"></path><path clip-path="url(#clip740)" d="M248.166 1454.1 Q244.555 1454.1 242.726 1457.66 Q240.92 1461.2 240.92 1468.33 Q240.92 1475.44 242.726 1479.01 Q244.555 1482.55 248.166 1482.55 Q251.8 1482.55 253.605 1479.01 Q255.434 1475.44 255.434 1468.33 Q255.434 1461.2 253.605 1457.66 Q251.8 1454.1 248.166 1454.1 M248.166 1450.39 Q253.976 1450.39 257.031 1455 Q260.11 1459.58 260.11 1468.33 Q260.11 1477.06 257.031 1481.67 Q253.976 1486.25 248.166 1486.25 Q242.356 1486.25 239.277 1481.67 Q236.221 1477.06 236.221 1468.33 Q236.221 1459.58 239.277 1455 Q242.356 1450.39 248.166 1450.39 Z" fill="#000000" fill-rule="nonzero" fill-opacity="1"></path><path clip-path="url(#clip740)" d="M278.328 1454.1 Q274.716 1454.1 272.888 1457.66 Q271.082 1461.2 271.082 1468.33 Q271.082 1475.44 272.888 1479.01 Q274.716 1482.55 278.328 1482.55 Q281.962 1482.55 283.767 1479.01 Q285.596 1475.44 285.596 1468.33 Q285.596 1461.2 283.767 1457.66 Q281.962 1454.1 278.328 1454.1 M278.328 1450.39 Q284.138 1450.39 287.193 1455 Q290.272 1459.58 290.272 1468.33 Q290.272 1477.06 287.193 1481.67 Q284.138 1486.25 278.328 1486.25 Q272.517 1486.25 269.439 1481.67 Q266.383 1477.06 266.383 1468.33 Q266.383 1459.58 269.439 1455 Q272.517 1450.39 278.328 1450.39 Z" fill="#000000" fill-rule="nonzero" fill-opacity="1"></path><path clip-path="url(#clip740)" d="M644.233 1451.02 L666.455 1451.02 L666.455 1453.01 L653.909 1485.58 L649.025 1485.58 L660.83 1454.96 L644.233 1454.96 L644.233 1451.02 Z" fill="#000000" fill-rule="nonzero" fill-opacity="1"></path><path clip-path="url(#clip740)" d="M675.622 1451.02 L693.978 1451.02 L693.978 1454.96 L679.904 1454.96 L679.904 1463.43 Q680.923 1463.08 681.941 1462.92 Q682.96 1462.73 683.979 1462.73 Q689.766 1462.73 693.145 1465.9 Q696.525 1469.08 696.525 1474.49 Q696.525 1480.07 693.053 1483.17 Q689.58 1486.25 683.261 1486.25 Q681.085 1486.25 678.816 1485.88 Q676.571 1485.51 674.164 1484.77 L674.164 1480.07 Q676.247 1481.2 678.469 1481.76 Q680.691 1482.32 683.168 1482.32 Q687.173 1482.32 689.511 1480.21 Q691.849 1478.1 691.849 1474.49 Q691.849 1470.88 689.511 1468.77 Q687.173 1466.67 683.168 1466.67 Q681.293 1466.67 679.418 1467.08 Q677.567 1467.5 675.622 1468.38 L675.622 1451.02 Z" fill="#000000" fill-rule="nonzero" fill-opacity="1"></path><path clip-path="url(#clip740)" d="M715.738 1454.1 Q712.127 1454.1 710.298 1457.66 Q708.492 1461.2 708.492 1468.33 Q708.492 1475.44 710.298 1479.01 Q712.127 1482.55 715.738 1482.55 Q719.372 1482.55 721.177 1479.01 Q723.006 1475.44 723.006 1468.33 Q723.006 1461.2 721.177 1457.66 Q719.372 1454.1 715.738 1454.1 M715.738 1450.39 Q721.548 1450.39 724.603 1455 Q727.682 1459.58 727.682 1468.33 Q727.682 1477.06 724.603 1481.67 Q721.548 1486.25 715.738 1486.25 Q709.927 1486.25 706.849 1481.67 Q703.793 1477.06 703.793 1468.33 Q703.793 1459.58 706.849 1455 Q709.927 1450.39 715.738 1450.39 Z" fill="#000000" fill-rule="nonzero" fill-opacity="1"></path><path clip-path="url(#clip740)" d="M1068.01 1481.64 L1075.65 1481.64 L1075.65 1455.28 L1067.34 1456.95 L1067.34 1452.69 L1075.6 1451.02 L1080.28 1451.02 L1080.28 1481.64 L1087.92 1481.64 L1087.92 1485.58 L1068.01 1485.58 L1068.01 1481.64 Z" fill="#000000" fill-rule="nonzero" fill-opacity="1"></path><path clip-path="url(#clip740)" d="M1107.36 1454.1 Q1103.75 1454.1 1101.92 1457.66 Q1100.12 1461.2 1100.12 1468.33 Q1100.12 1475.44 1101.92 1479.01 Q1103.75 1482.55 1107.36 1482.55 Q1111 1482.55 1112.8 1479.01 Q1114.63 1475.44 1114.63 1468.33 Q1114.63 1461.2 1112.8 1457.66 Q1111 1454.1 1107.36 1454.1 M1107.36 1450.39 Q1113.17 1450.39 1116.23 1455 Q1119.31 1459.58 1119.31 1468.33 Q1119.31 1477.06 1116.23 1481.67 Q1113.17 1486.25 1107.36 1486.25 Q1101.55 1486.25 1098.47 1481.67 Q1095.42 1477.06 1095.42 1468.33 Q1095.42 1459.58 1098.47 1455 Q1101.55 1450.39 1107.36 1450.39 Z" fill="#000000" fill-rule="nonzero" fill-opacity="1"></path><path clip-path="url(#clip740)" d="M1137.52 1454.1 Q1133.91 1454.1 1132.08 1457.66 Q1130.28 1461.2 1130.28 1468.33 Q1130.28 1475.44 1132.08 1479.01 Q1133.91 1482.55 1137.52 1482.55 Q1141.16 1482.55 1142.96 1479.01 Q1144.79 1475.44 1144.79 1468.33 Q1144.79 1461.2 1142.96 1457.66 Q1141.16 1454.1 1137.52 1454.1 M1137.52 1450.39 Q1143.33 1450.39 1146.39 1455 Q1149.47 1459.58 1149.47 1468.33 Q1149.47 1477.06 1146.39 1481.67 Q1143.33 1486.25 1137.52 1486.25 Q1131.71 1486.25 1128.63 1481.67 Q1125.58 1477.06 1125.58 1468.33 Q1125.58 1459.58 1128.63 1455 Q1131.71 1450.39 1137.52 1450.39 Z" fill="#000000" fill-rule="nonzero" fill-opacity="1"></path><path clip-path="url(#clip740)" d="M1167.68 1454.1 Q1164.07 1454.1 1162.24 1457.66 Q1160.44 1461.2 1160.44 1468.33 Q1160.44 1475.44 1162.24 1479.01 Q1164.07 1482.55 1167.68 1482.55 Q1171.32 1482.55 1173.12 1479.01 Q1174.95 1475.44 1174.95 1468.33 Q1174.95 1461.2 1173.12 1457.66 Q1171.32 1454.1 1167.68 1454.1 M1167.68 1450.39 Q1173.49 1450.39 1176.55 1455 Q1179.63 1459.58 1179.63 1468.33 Q1179.63 1477.06 1176.55 1481.67 Q1173.49 1486.25 1167.68 1486.25 Q1161.87 1486.25 1158.8 1481.67 Q1155.74 1477.06 1155.74 1468.33 Q1155.74 1459.58 1158.8 1455 Q1161.87 1450.39 1167.68 1450.39 Z" fill="#000000" fill-rule="nonzero" fill-opacity="1"></path><path clip-path="url(#clip740)" d="M1505.53 1481.64 L1513.17 1481.64 L1513.17 1455.28 L1504.86 1456.95 L1504.86 1452.69 L1513.13 1451.02 L1517.8 1451.02 L1517.8 1481.64 L1525.44 1481.64 L1525.44 1485.58 L1505.53 1485.58 L1505.53 1481.64 Z" fill="#000000" fill-rule="nonzero" fill-opacity="1"></path><path clip-path="url(#clip740)" d="M1538.91 1481.64 L1555.23 1481.64 L1555.23 1485.58 L1533.29 1485.58 L1533.29 1481.64 Q1535.95 1478.89 1540.53 1474.26 Q1545.14 1469.61 1546.32 1468.27 Q1548.57 1465.74 1549.45 1464.01 Q1550.35 1462.25 1550.35 1460.56 Q1550.35 1457.8 1548.41 1456.07 Q1546.48 1454.33 1543.38 1454.33 Q1541.18 1454.33 1538.73 1455.09 Q1536.3 1455.86 1533.52 1457.41 L1533.52 1452.69 Q1536.35 1451.55 1538.8 1450.97 Q1541.25 1450.39 1543.29 1450.39 Q1548.66 1450.39 1551.85 1453.08 Q1555.05 1455.77 1555.05 1460.26 Q1555.05 1462.39 1554.24 1464.31 Q1553.45 1466.2 1551.34 1468.8 Q1550.77 1469.47 1547.66 1472.69 Q1544.56 1475.88 1538.91 1481.64 Z" fill="#000000" fill-rule="nonzero" fill-opacity="1"></path><path clip-path="url(#clip740)" d="M1565.09 1451.02 L1583.45 1451.02 L1583.45 1454.96 L1569.38 1454.96 L1569.38 1463.43 Q1570.4 1463.08 1571.41 1462.92 Q1572.43 1462.73 1573.45 1462.73 Q1579.24 1462.73 1582.62 1465.9 Q1586 1469.08 1586 1474.49 Q1586 1480.07 1582.53 1483.17 Q1579.05 1486.25 1572.73 1486.25 Q1570.56 1486.25 1568.29 1485.88 Q1566.04 1485.51 1563.64 1484.77 L1563.64 1480.07 Q1565.72 1481.2 1567.94 1481.76 Q1570.16 1482.32 1572.64 1482.32 Q1576.65 1482.32 1578.98 1480.21 Q1581.32 1478.1 1581.32 1474.49 Q1581.32 1470.88 1578.98 1468.77 Q1576.65 1466.67 1572.64 1466.67 Q1570.77 1466.67 1568.89 1467.08 Q1567.04 1467.5 1565.09 1468.38 L1565.09 1451.02 Z" fill="#000000" fill-rule="nonzero" fill-opacity="1"></path><path clip-path="url(#clip740)" d="M1605.21 1454.1 Q1601.6 1454.1 1599.77 1457.66 Q1597.97 1461.2 1597.97 1468.33 Q1597.97 1475.44 1599.77 1479.01 Q1601.6 1482.55 1605.21 1482.55 Q1608.84 1482.55 1610.65 1479.01 Q1612.48 1475.44 1612.48 1468.33 Q1612.48 1461.2 1610.65 1457.66 Q1608.84 1454.1 1605.21 1454.1 M1605.21 1450.39 Q1611.02 1450.39 1614.08 1455 Q1617.15 1459.58 1617.15 1468.33 Q1617.15 1477.06 1614.08 1481.67 Q1611.02 1486.25 1605.21 1486.25 Q1599.4 1486.25 1596.32 1481.67 Q1593.27 1477.06 1593.27 1468.33 Q1593.27 1459.58 1596.32 1455 Q1599.4 1450.39 1605.21 1450.39 Z" fill="#000000" fill-rule="nonzero" fill-opacity="1"></path><path clip-path="url(#clip740)" d="M1943.06 1481.64 L1950.7 1481.64 L1950.7 1455.28 L1942.39 1456.95 L1942.39 1452.69 L1950.65 1451.02 L1955.33 1451.02 L1955.33 1481.64 L1962.97 1481.64 L1962.97 1485.58 L1943.06 1485.58 L1943.06 1481.64 Z" fill="#000000" fill-rule="nonzero" fill-opacity="1"></path><path clip-path="url(#clip740)" d="M1972.46 1451.02 L1990.82 1451.02 L1990.82 1454.96 L1976.74 1454.96 L1976.74 1463.43 Q1977.76 1463.08 1978.78 1462.92 Q1979.8 1462.73 1980.82 1462.73 Q1986.6 1462.73 1989.98 1465.9 Q1993.36 1469.08 1993.36 1474.49 Q1993.36 1480.07 1989.89 1483.17 Q1986.42 1486.25 1980.1 1486.25 Q1977.92 1486.25 1975.65 1485.88 Q1973.41 1485.51 1971 1484.77 L1971 1480.07 Q1973.08 1481.2 1975.31 1481.76 Q1977.53 1482.32 1980.01 1482.32 Q1984.01 1482.32 1986.35 1480.21 Q1988.69 1478.1 1988.69 1474.49 Q1988.69 1470.88 1986.35 1468.77 Q1984.01 1466.67 1980.01 1466.67 Q1978.13 1466.67 1976.26 1467.08 Q1974.4 1467.5 1972.46 1468.38 L1972.46 1451.02 Z" fill="#000000" fill-rule="nonzero" fill-opacity="1"></path><path clip-path="url(#clip740)" d="M2012.57 1454.1 Q2008.96 1454.1 2007.13 1457.66 Q2005.33 1461.2 2005.33 1468.33 Q2005.33 1475.44 2007.13 1479.01 Q2008.96 1482.55 2012.57 1482.55 Q2016.21 1482.55 2018.01 1479.01 Q2019.84 1475.44 2019.84 1468.33 Q2019.84 1461.2 2018.01 1457.66 Q2016.21 1454.1 2012.57 1454.1 M2012.57 1450.39 Q2018.38 1450.39 2021.44 1455 Q2024.52 1459.58 2024.52 1468.33 Q2024.52 1477.06 2021.44 1481.67 Q2018.38 1486.25 2012.57 1486.25 Q2006.76 1486.25 2003.69 1481.67 Q2000.63 1477.06 2000.63 1468.33 Q2000.63 1459.58 2003.69 1455 Q2006.76 1450.39 2012.57 1450.39 Z" fill="#000000" fill-rule="nonzero" fill-opacity="1"></path><path clip-path="url(#clip740)" d="M2042.74 1454.1 Q2039.13 1454.1 2037.3 1457.66 Q2035.49 1461.2 2035.49 1468.33 Q2035.49 1475.44 2037.3 1479.01 Q2039.13 1482.55 2042.74 1482.55 Q2046.37 1482.55 2048.18 1479.01 Q2050 1475.44 2050 1468.33 Q2050 1461.2 2048.18 1457.66 Q2046.37 1454.1 2042.74 1454.1 M2042.74 1450.39 Q2048.55 1450.39 2051.6 1455 Q2054.68 1459.58 2054.68 1468.33 Q2054.68 1477.06 2051.6 1481.67 Q2048.55 1486.25 2042.74 1486.25 Q2036.93 1486.25 2033.85 1481.67 Q2030.79 1477.06 2030.79 1468.33 Q2030.79 1459.58 2033.85 1455 Q2036.93 1450.39 2042.74 1450.39 Z" fill="#000000" fill-rule="nonzero" fill-opacity="1"></path><path clip-path="url(#clip740)" d="M942.845 1520.52 L952.425 1520.52 L964.552 1552.86 L976.742 1520.52 L986.323 1520.52 L986.323 1568.04 L980.053 1568.04 L980.053 1526.32 L967.799 1558.91 L961.337 1558.91 L949.083 1526.32 L949.083 1568.04 L942.845 1568.04 L942.845 1520.52 Z" fill="#000000" fill-rule="nonzero" fill-opacity="1"></path><path clip-path="url(#clip740)" d="M998.831 1532.4 L1004.69 1532.4 L1004.69 1568.04 L998.831 1568.04 L998.831 1532.4 M998.831 1518.52 L1004.69 1518.52 L1004.69 1525.93 L998.831 1525.93 L998.831 1518.52 Z" fill="#000000" fill-rule="nonzero" fill-opacity="1"></path><path clip-path="url(#clip740)" d="M1046.57 1532.4 L1033.68 1549.74 L1047.24 1568.04 L1040.34 1568.04 L1029.96 1554.04 L1019.58 1568.04 L1012.68 1568.04 L1026.52 1549.39 L1013.85 1532.4 L1020.76 1532.4 L1030.21 1545.1 L1039.67 1532.4 L1046.57 1532.4 Z" fill="#000000" fill-rule="nonzero" fill-opacity="1"></path><path clip-path="url(#clip740)" d="M1055.52 1532.4 L1061.37 1532.4 L1061.37 1568.04 L1055.52 1568.04 L1055.52 1532.4 M1055.52 1518.52 L1061.37 1518.52 L1061.37 1525.93 L1055.52 1525.93 L1055.52 1518.52 Z" fill="#000000" fill-rule="nonzero" fill-opacity="1"></path><path clip-path="url(#clip740)" d="M1103.26 1546.53 L1103.26 1568.04 L1097.4 1568.04 L1097.4 1546.72 Q1097.4 1541.66 1095.43 1539.14 Q1093.46 1536.63 1089.51 1536.63 Q1084.77 1536.63 1082.03 1539.65 Q1079.29 1542.68 1079.29 1547.9 L1079.29 1568.04 L1073.41 1568.04 L1073.41 1532.4 L1079.29 1532.4 L1079.29 1537.93 Q1081.39 1534.72 1084.23 1533.13 Q1087.09 1531.54 1090.82 1531.54 Q1096.96 1531.54 1100.11 1535.36 Q1103.26 1539.14 1103.26 1546.53 Z" fill="#000000" fill-rule="nonzero" fill-opacity="1"></path><path clip-path="url(#clip740)" d="M1138.4 1549.81 Q1138.4 1543.44 1135.76 1539.94 Q1133.15 1536.44 1128.41 1536.44 Q1123.69 1536.44 1121.05 1539.94 Q1118.44 1543.44 1118.44 1549.81 Q1118.44 1556.14 1121.05 1559.64 Q1123.69 1563.14 1128.41 1563.14 Q1133.15 1563.14 1135.76 1559.64 Q1138.4 1556.14 1138.4 1549.81 M1144.26 1563.62 Q1144.26 1572.72 1140.21 1577.15 Q1136.17 1581.6 1127.83 1581.6 Q1124.75 1581.6 1122.01 1581.13 Q1119.27 1580.68 1116.69 1579.72 L1116.69 1574.03 Q1119.27 1575.43 1121.79 1576.1 Q1124.3 1576.76 1126.91 1576.76 Q1132.67 1576.76 1135.53 1573.74 Q1138.4 1570.75 1138.4 1564.67 L1138.4 1561.77 Q1136.59 1564.92 1133.75 1566.48 Q1130.92 1568.04 1126.97 1568.04 Q1120.42 1568.04 1116.41 1563.05 Q1112.4 1558.05 1112.4 1549.81 Q1112.4 1541.53 1116.41 1536.53 Q1120.42 1531.54 1126.97 1531.54 Q1130.92 1531.54 1133.75 1533.1 Q1136.59 1534.66 1138.4 1537.81 L1138.4 1532.4 L1144.26 1532.4 L1144.26 1563.62 Z" fill="#000000" fill-rule="nonzero" fill-opacity="1"></path><path clip-path="url(#clip740)" d="M1183.72 1525.81 L1183.72 1543.66 L1191.81 1543.66 Q1196.3 1543.66 1198.75 1541.34 Q1201.2 1539.02 1201.2 1534.72 Q1201.2 1530.45 1198.75 1528.13 Q1196.3 1525.81 1191.81 1525.81 L1183.72 1525.81 M1177.29 1520.52 L1191.81 1520.52 Q1199.8 1520.52 1203.87 1524.15 Q1207.98 1527.75 1207.98 1534.72 Q1207.98 1541.75 1203.87 1545.35 Q1199.8 1548.95 1191.81 1548.95 L1183.72 1548.95 L1183.72 1568.04 L1177.29 1568.04 L1177.29 1520.52 Z" fill="#000000" fill-rule="nonzero" fill-opacity="1"></path><path clip-path="url(#clip740)" d="M1235.86 1537.87 Q1234.87 1537.3 1233.69 1537.04 Q1232.55 1536.76 1231.15 1536.76 Q1226.18 1536.76 1223.51 1540 Q1220.87 1543.22 1220.87 1549.27 L1220.87 1568.04 L1214.98 1568.04 L1214.98 1532.4 L1220.87 1532.4 L1220.87 1537.93 Q1222.71 1534.69 1225.67 1533.13 Q1228.63 1531.54 1232.87 1531.54 Q1233.47 1531.54 1234.2 1531.63 Q1234.94 1531.7 1235.83 1531.85 L1235.86 1537.87 Z" fill="#000000" fill-rule="nonzero" fill-opacity="1"></path><path clip-path="url(#clip740)" d="M1271.06 1548.76 L1271.06 1551.62 L1244.13 1551.62 Q1244.52 1557.67 1247.76 1560.85 Q1251.04 1564 1256.87 1564 Q1260.24 1564 1263.39 1563.17 Q1266.57 1562.35 1269.69 1560.69 L1269.69 1566.23 Q1266.54 1567.57 1263.23 1568.27 Q1259.92 1568.97 1256.52 1568.97 Q1247.99 1568.97 1242.99 1564 Q1238.02 1559.04 1238.02 1550.57 Q1238.02 1541.82 1242.73 1536.69 Q1247.48 1531.54 1255.5 1531.54 Q1262.69 1531.54 1266.86 1536.18 Q1271.06 1540.8 1271.06 1548.76 M1265.2 1547.04 Q1265.14 1542.23 1262.5 1539.37 Q1259.89 1536.5 1255.56 1536.5 Q1250.66 1536.5 1247.7 1539.27 Q1244.77 1542.04 1244.32 1547.07 L1265.2 1547.04 Z" fill="#000000" fill-rule="nonzero" fill-opacity="1"></path><path clip-path="url(#clip740)" d="M1303.4 1533.45 L1303.4 1538.98 Q1300.92 1537.71 1298.24 1537.07 Q1295.57 1536.44 1292.7 1536.44 Q1288.34 1536.44 1286.15 1537.77 Q1283.98 1539.11 1283.98 1541.79 Q1283.98 1543.82 1285.54 1545 Q1287.1 1546.15 1291.81 1547.2 L1293.82 1547.64 Q1300.06 1548.98 1302.67 1551.43 Q1305.31 1553.85 1305.31 1558.21 Q1305.31 1563.17 1301.36 1566.07 Q1297.45 1568.97 1290.57 1568.97 Q1287.71 1568.97 1284.59 1568.39 Q1281.5 1567.85 1278.06 1566.74 L1278.06 1560.69 Q1281.31 1562.38 1284.46 1563.24 Q1287.61 1564.07 1290.7 1564.07 Q1294.84 1564.07 1297.06 1562.66 Q1299.29 1561.23 1299.29 1558.65 Q1299.29 1556.27 1297.67 1554.99 Q1296.08 1553.72 1290.64 1552.54 L1288.6 1552.07 Q1283.16 1550.92 1280.74 1548.56 Q1278.32 1546.18 1278.32 1542.04 Q1278.32 1537.01 1281.88 1534.27 Q1285.45 1531.54 1292 1531.54 Q1295.25 1531.54 1298.12 1532.01 Q1300.98 1532.49 1303.4 1533.45 Z" fill="#000000" fill-rule="nonzero" fill-opacity="1"></path><path clip-path="url(#clip740)" d="M1337.36 1533.45 L1337.36 1538.98 Q1334.88 1537.71 1332.2 1537.07 Q1329.53 1536.44 1326.67 1536.44 Q1322.3 1536.44 1320.11 1537.77 Q1317.94 1539.11 1317.94 1541.79 Q1317.94 1543.82 1319.5 1545 Q1321.06 1546.15 1325.77 1547.2 L1327.78 1547.64 Q1334.02 1548.98 1336.63 1551.43 Q1339.27 1553.85 1339.27 1558.21 Q1339.27 1563.17 1335.32 1566.07 Q1331.41 1568.97 1324.53 1568.97 Q1321.67 1568.97 1318.55 1568.39 Q1315.46 1567.85 1312.02 1566.74 L1312.02 1560.69 Q1315.27 1562.38 1318.42 1563.24 Q1321.57 1564.07 1324.66 1564.07 Q1328.8 1564.07 1331.03 1562.66 Q1333.25 1561.23 1333.25 1558.65 Q1333.25 1556.27 1331.63 1554.99 Q1330.04 1553.72 1324.6 1552.54 L1322.56 1552.07 Q1317.12 1550.92 1314.7 1548.56 Q1312.28 1546.18 1312.28 1542.04 Q1312.28 1537.01 1315.84 1534.27 Q1319.41 1531.54 1325.97 1531.54 Q1329.21 1531.54 1332.08 1532.01 Q1334.94 1532.49 1337.36 1533.45 Z" fill="#000000" fill-rule="nonzero" fill-opacity="1"></path><path clip-path="url(#clip740)" d="M1347.99 1553.98 L1347.99 1532.4 L1353.85 1532.4 L1353.85 1553.75 Q1353.85 1558.81 1355.82 1561.36 Q1357.79 1563.87 1361.74 1563.87 Q1366.48 1563.87 1369.22 1560.85 Q1371.99 1557.83 1371.99 1552.61 L1371.99 1532.4 L1377.85 1532.4 L1377.85 1568.04 L1371.99 1568.04 L1371.99 1562.57 Q1369.86 1565.82 1367.02 1567.41 Q1364.22 1568.97 1360.5 1568.97 Q1354.36 1568.97 1351.17 1565.15 Q1347.99 1561.33 1347.99 1553.98 M1362.73 1531.54 L1362.73 1531.54 Z" fill="#000000" fill-rule="nonzero" fill-opacity="1"></path><path clip-path="url(#clip740)" d="M1410.57 1537.87 Q1409.58 1537.3 1408.4 1537.04 Q1407.26 1536.76 1405.85 1536.76 Q1400.89 1536.76 1398.22 1540 Q1395.57 1543.22 1395.57 1549.27 L1395.57 1568.04 L1389.69 1568.04 L1389.69 1532.4 L1395.57 1532.4 L1395.57 1537.93 Q1397.42 1534.69 1400.38 1533.13 Q1403.34 1531.54 1407.57 1531.54 Q1408.18 1531.54 1408.91 1531.63 Q1409.64 1531.7 1410.53 1531.85 L1410.57 1537.87 Z" fill="#000000" fill-rule="nonzero" fill-opacity="1"></path><path clip-path="url(#clip740)" d="M1445.77 1548.76 L1445.77 1551.62 L1418.84 1551.62 Q1419.22 1557.67 1422.47 1560.85 Q1425.75 1564 1431.57 1564 Q1434.95 1564 1438.1 1563.17 Q1441.28 1562.35 1444.4 1560.69 L1444.4 1566.23 Q1441.25 1567.57 1437.94 1568.27 Q1434.63 1568.97 1431.22 1568.97 Q1422.69 1568.97 1417.69 1564 Q1412.73 1559.04 1412.73 1550.57 Q1412.73 1541.82 1417.44 1536.69 Q1422.18 1531.54 1430.2 1531.54 Q1437.4 1531.54 1441.57 1536.18 Q1445.77 1540.8 1445.77 1548.76 M1439.91 1547.04 Q1439.85 1542.23 1437.21 1539.37 Q1434.6 1536.5 1430.27 1536.5 Q1425.37 1536.5 1422.41 1539.27 Q1419.48 1542.04 1419.03 1547.07 L1439.91 1547.04 Z" fill="#000000" fill-rule="nonzero" fill-opacity="1"></path><path clip-path="url(#clip740)" d="M1475.56 1518.52 L1489.05 1518.52 L1489.05 1523.07 L1481.42 1523.07 L1481.42 1572.09 L1489.05 1572.09 L1489.05 1576.64 L1475.56 1576.64 L1475.56 1518.52 Z" fill="#000000" fill-rule="nonzero" fill-opacity="1"></path><path clip-path="url(#clip740)" d="M1501.31 1518.52 L1507.2 1518.52 L1507.2 1547.77 L1524.67 1532.4 L1532.15 1532.4 L1513.24 1549.07 L1532.95 1568.04 L1525.31 1568.04 L1507.2 1550.63 L1507.2 1568.04 L1501.31 1568.04 L1501.31 1518.52 Z" fill="#000000" fill-rule="nonzero" fill-opacity="1"></path><path clip-path="url(#clip740)" d="M1545.96 1525.81 L1545.96 1543.66 L1554.05 1543.66 Q1558.54 1543.66 1560.99 1541.34 Q1563.44 1539.02 1563.44 1534.72 Q1563.44 1530.45 1560.99 1528.13 Q1558.54 1525.81 1554.05 1525.81 L1545.96 1525.81 M1539.53 1520.52 L1554.05 1520.52 Q1562.04 1520.52 1566.11 1524.15 Q1570.22 1527.75 1570.22 1534.72 Q1570.22 1541.75 1566.11 1545.35 Q1562.04 1548.95 1554.05 1548.95 L1545.96 1548.95 L1545.96 1568.04 L1539.53 1568.04 L1539.53 1520.52 Z" fill="#000000" fill-rule="nonzero" fill-opacity="1"></path><path clip-path="url(#clip740)" d="M1591.86 1550.12 Q1584.76 1550.12 1582.03 1551.75 Q1579.29 1553.37 1579.29 1557.29 Q1579.29 1560.4 1581.33 1562.25 Q1583.39 1564.07 1586.93 1564.07 Q1591.8 1564.07 1594.73 1560.63 Q1597.69 1557.16 1597.69 1551.43 L1597.69 1550.12 L1591.86 1550.12 M1603.54 1547.71 L1603.54 1568.04 L1597.69 1568.04 L1597.69 1562.63 Q1595.68 1565.88 1592.69 1567.44 Q1589.7 1568.97 1585.37 1568.97 Q1579.89 1568.97 1576.65 1565.91 Q1573.43 1562.82 1573.43 1557.67 Q1573.43 1551.65 1577.44 1548.6 Q1581.48 1545.54 1589.47 1545.54 L1597.69 1545.54 L1597.69 1544.97 Q1597.69 1540.93 1595.01 1538.73 Q1592.37 1536.5 1587.56 1536.5 Q1584.51 1536.5 1581.61 1537.23 Q1578.72 1537.97 1576.04 1539.43 L1576.04 1534.02 Q1579.26 1532.78 1582.28 1532.17 Q1585.3 1531.54 1588.17 1531.54 Q1595.9 1531.54 1599.72 1535.55 Q1603.54 1539.56 1603.54 1547.71 Z" fill="#000000" fill-rule="nonzero" fill-opacity="1"></path><path clip-path="url(#clip740)" d="M1629.29 1518.52 L1629.29 1576.64 L1615.8 1576.64 L1615.8 1572.09 L1623.4 1572.09 L1623.4 1523.07 L1615.8 1523.07 L1615.8 1518.52 L1629.29 1518.52 Z" fill="#000000" fill-rule="nonzero" fill-opacity="1"></path><polyline clip-path="url(#clip742)" style="stroke:#000000; stroke-linecap:round; stroke-linejoin:round; stroke-width:2; stroke-opacity:0.1; fill:none" points="219.38,1372.97 2352.76,1372.97 "></polyline>
<polyline clip-path="url(#clip742)" style="stroke:#000000; stroke-linecap:round; stroke-linejoin:round; stroke-width:2; stroke-opacity:0.1; fill:none" points="219.38,1021.31 2352.76,1021.31 "></polyline>
<polyline clip-path="url(#clip742)" style="stroke:#000000; stroke-linecap:round; stroke-linejoin:round; stroke-width:2; stroke-opacity:0.1; fill:none" points="219.38,669.654 2352.76,669.654 "></polyline>
<polyline clip-path="url(#clip742)" style="stroke:#000000; stroke-linecap:round; stroke-linejoin:round; stroke-width:2; stroke-opacity:0.1; fill:none" points="219.38,317.995 2352.76,317.995 "></polyline>
<polyline clip-path="url(#clip740)" style="stroke:#000000; stroke-linecap:round; stroke-linejoin:round; stroke-width:4; stroke-opacity:1; fill:none" points="219.38,1423.18 219.38,47.2441 "></polyline>
<polyline clip-path="url(#clip740)" style="stroke:#000000; stroke-linecap:round; stroke-linejoin:round; stroke-width:4; stroke-opacity:1; fill:none" points="219.38,1372.97 238.278,1372.97 "></polyline>
<polyline clip-path="url(#clip740)" style="stroke:#000000; stroke-linecap:round; stroke-linejoin:round; stroke-width:4; stroke-opacity:1; fill:none" points="219.38,1021.31 238.278,1021.31 "></polyline>
<polyline clip-path="url(#clip740)" style="stroke:#000000; stroke-linecap:round; stroke-linejoin:round; stroke-width:4; stroke-opacity:1; fill:none" points="219.38,669.654 238.278,669.654 "></polyline>
<polyline clip-path="url(#clip740)" style="stroke:#000000; stroke-linecap:round; stroke-linejoin:round; stroke-width:4; stroke-opacity:1; fill:none" points="219.38,317.995 238.278,317.995 "></polyline>
<path clip-path="url(#clip740)" d="M130.371 1371.62 Q133.728 1372.33 135.603 1374.6 Q137.501 1376.87 137.501 1380.2 Q137.501 1385.32 133.982 1388.12 Q130.464 1390.92 123.982 1390.92 Q121.806 1390.92 119.492 1390.48 Q117.2 1390.07 114.746 1389.21 L114.746 1384.69 Q116.691 1385.83 119.006 1386.41 Q121.32 1386.99 123.843 1386.99 Q128.242 1386.99 130.533 1385.25 Q132.848 1383.51 132.848 1380.2 Q132.848 1377.15 130.695 1375.44 Q128.566 1373.7 124.746 1373.7 L120.718 1373.7 L120.718 1369.86 L124.931 1369.86 Q128.38 1369.86 130.209 1368.49 Q132.038 1367.1 132.038 1364.51 Q132.038 1361.85 130.14 1360.44 Q128.265 1359 124.746 1359 Q122.825 1359 120.626 1359.42 Q118.427 1359.83 115.788 1360.71 L115.788 1356.55 Q118.45 1355.81 120.765 1355.44 Q123.103 1355.07 125.163 1355.07 Q130.487 1355.07 133.589 1357.5 Q136.691 1359.9 136.691 1364.02 Q136.691 1366.89 135.047 1368.88 Q133.404 1370.85 130.371 1371.62 Z" fill="#000000" fill-rule="nonzero" fill-opacity="1"></path><path clip-path="url(#clip740)" d="M146.366 1384.37 L151.251 1384.37 L151.251 1390.25 L146.366 1390.25 L146.366 1384.37 Z" fill="#000000" fill-rule="nonzero" fill-opacity="1"></path><path clip-path="url(#clip740)" d="M171.436 1358.77 Q167.825 1358.77 165.996 1362.33 Q164.19 1365.88 164.19 1373.01 Q164.19 1380.11 165.996 1383.68 Q167.825 1387.22 171.436 1387.22 Q175.07 1387.22 176.876 1383.68 Q178.704 1380.11 178.704 1373.01 Q178.704 1365.88 176.876 1362.33 Q175.07 1358.77 171.436 1358.77 M171.436 1355.07 Q177.246 1355.07 180.301 1359.67 Q183.38 1364.26 183.38 1373.01 Q183.38 1381.73 180.301 1386.34 Q177.246 1390.92 171.436 1390.92 Q165.626 1390.92 162.547 1386.34 Q159.491 1381.73 159.491 1373.01 Q159.491 1364.26 162.547 1359.67 Q165.626 1355.07 171.436 1355.07 Z" fill="#000000" fill-rule="nonzero" fill-opacity="1"></path><path clip-path="url(#clip740)" d="M131.968 1019.96 Q135.325 1020.68 137.2 1022.94 Q139.098 1025.21 139.098 1028.55 Q139.098 1033.66 135.579 1036.46 Q132.061 1039.26 125.58 1039.26 Q123.404 1039.26 121.089 1038.82 Q118.797 1038.41 116.343 1037.55 L116.343 1033.04 Q118.288 1034.17 120.603 1034.75 Q122.918 1035.33 125.441 1035.33 Q129.839 1035.33 132.13 1033.59 Q134.445 1031.86 134.445 1028.55 Q134.445 1025.49 132.292 1023.78 Q130.163 1022.04 126.343 1022.04 L122.316 1022.04 L122.316 1018.2 L126.529 1018.2 Q129.978 1018.2 131.806 1016.83 Q133.635 1015.44 133.635 1012.85 Q133.635 1010.19 131.737 1008.78 Q129.862 1007.34 126.343 1007.34 Q124.422 1007.34 122.223 1007.76 Q120.024 1008.18 117.385 1009.06 L117.385 1004.89 Q120.047 1004.15 122.362 1003.78 Q124.7 1003.41 126.76 1003.41 Q132.084 1003.41 135.186 1005.84 Q138.288 1008.24 138.288 1012.37 Q138.288 1015.24 136.644 1017.23 Q135.001 1019.19 131.968 1019.96 Z" fill="#000000" fill-rule="nonzero" fill-opacity="1"></path><path clip-path="url(#clip740)" d="M147.964 1032.71 L152.848 1032.71 L152.848 1038.59 L147.964 1038.59 L147.964 1032.71 Z" fill="#000000" fill-rule="nonzero" fill-opacity="1"></path><path clip-path="url(#clip740)" d="M167.061 1034.66 L183.38 1034.66 L183.38 1038.59 L161.436 1038.59 L161.436 1034.66 Q164.098 1031.9 168.681 1027.27 Q173.288 1022.62 174.468 1021.28 Q176.714 1018.75 177.593 1017.02 Q178.496 1015.26 178.496 1013.57 Q178.496 1010.81 176.551 1009.08 Q174.63 1007.34 171.528 1007.34 Q169.329 1007.34 166.876 1008.11 Q164.445 1008.87 161.667 1010.42 L161.667 1005.7 Q164.491 1004.56 166.945 1003.99 Q169.399 1003.41 171.436 1003.41 Q176.806 1003.41 180.001 1006.09 Q183.195 1008.78 183.195 1013.27 Q183.195 1015.4 182.385 1017.32 Q181.598 1019.22 179.491 1021.81 Q178.913 1022.48 175.811 1025.7 Q172.709 1028.89 167.061 1034.66 Z" fill="#000000" fill-rule="nonzero" fill-opacity="1"></path><path clip-path="url(#clip740)" d="M129.885 668.3 Q133.242 669.017 135.117 671.286 Q137.015 673.554 137.015 676.887 Q137.015 682.003 133.496 684.804 Q129.978 687.605 123.496 687.605 Q121.32 687.605 119.006 687.165 Q116.714 686.748 114.26 685.892 L114.26 681.378 Q116.205 682.512 118.519 683.091 Q120.834 683.67 123.357 683.67 Q127.755 683.67 130.047 681.934 Q132.362 680.198 132.362 676.887 Q132.362 673.832 130.209 672.119 Q128.08 670.383 124.26 670.383 L120.232 670.383 L120.232 666.54 L124.445 666.54 Q127.894 666.54 129.723 665.175 Q131.552 663.786 131.552 661.193 Q131.552 658.531 129.654 657.119 Q127.779 655.684 124.26 655.684 Q122.339 655.684 120.14 656.101 Q117.941 656.517 115.302 657.397 L115.302 653.23 Q117.964 652.489 120.279 652.119 Q122.617 651.749 124.677 651.749 Q130.001 651.749 133.103 654.179 Q136.204 656.587 136.204 660.707 Q136.204 663.577 134.561 665.568 Q132.917 667.536 129.885 668.3 Z" fill="#000000" fill-rule="nonzero" fill-opacity="1"></path><path clip-path="url(#clip740)" d="M145.88 681.054 L150.765 681.054 L150.765 686.934 L145.88 686.934 L145.88 681.054 Z" fill="#000000" fill-rule="nonzero" fill-opacity="1"></path><path clip-path="url(#clip740)" d="M173.797 656.448 L161.991 674.897 L173.797 674.897 L173.797 656.448 M172.57 652.374 L178.45 652.374 L178.45 674.897 L183.38 674.897 L183.38 678.786 L178.45 678.786 L178.45 686.934 L173.797 686.934 L173.797 678.786 L158.195 678.786 L158.195 674.272 L172.57 652.374 Z" fill="#000000" fill-rule="nonzero" fill-opacity="1"></path><path clip-path="url(#clip740)" d="M130.209 316.641 Q133.566 317.359 135.441 319.627 Q137.339 321.896 137.339 325.229 Q137.339 330.345 133.82 333.146 Q130.302 335.947 123.82 335.947 Q121.644 335.947 119.33 335.507 Q117.038 335.09 114.584 334.234 L114.584 329.72 Q116.529 330.854 118.843 331.433 Q121.158 332.011 123.681 332.011 Q128.08 332.011 130.371 330.275 Q132.686 328.539 132.686 325.229 Q132.686 322.174 130.533 320.461 Q128.404 318.724 124.584 318.724 L120.556 318.724 L120.556 314.882 L124.769 314.882 Q128.218 314.882 130.047 313.516 Q131.876 312.127 131.876 309.535 Q131.876 306.873 129.978 305.461 Q128.103 304.025 124.584 304.025 Q122.663 304.025 120.464 304.442 Q118.265 304.859 115.626 305.738 L115.626 301.572 Q118.288 300.831 120.603 300.461 Q122.941 300.09 125.001 300.09 Q130.325 300.09 133.427 302.521 Q136.529 304.928 136.529 309.049 Q136.529 311.919 134.885 313.91 Q133.242 315.877 130.209 316.641 Z" fill="#000000" fill-rule="nonzero" fill-opacity="1"></path><path clip-path="url(#clip740)" d="M146.204 329.396 L151.089 329.396 L151.089 335.275 L146.204 335.275 L146.204 329.396 Z" fill="#000000" fill-rule="nonzero" fill-opacity="1"></path><path clip-path="url(#clip740)" d="M171.852 316.132 Q168.704 316.132 166.852 318.285 Q165.024 320.437 165.024 324.187 Q165.024 327.914 166.852 330.09 Q168.704 332.243 171.852 332.243 Q175.001 332.243 176.829 330.09 Q178.681 327.914 178.681 324.187 Q178.681 320.437 176.829 318.285 Q175.001 316.132 171.852 316.132 M181.135 301.479 L181.135 305.738 Q179.376 304.905 177.57 304.465 Q175.788 304.025 174.028 304.025 Q169.399 304.025 166.945 307.15 Q164.515 310.275 164.167 316.595 Q165.533 314.581 167.593 313.516 Q169.653 312.428 172.13 312.428 Q177.339 312.428 180.348 315.6 Q183.38 318.748 183.38 324.187 Q183.38 329.511 180.232 332.729 Q177.084 335.947 171.852 335.947 Q165.857 335.947 162.686 331.363 Q159.515 326.757 159.515 318.03 Q159.515 309.836 163.403 304.975 Q167.292 300.09 173.843 300.09 Q175.602 300.09 177.385 300.438 Q179.19 300.785 181.135 301.479 Z" fill="#000000" fill-rule="nonzero" fill-opacity="1"></path><path clip-path="url(#clip740)" d="M20.1444 756.298 L26.9239 756.298 Q23.9002 759.545 22.4043 763.237 Q20.9083 766.897 20.9083 771.035 Q20.9083 779.183 25.9054 783.512 Q30.8707 787.84 40.2919 787.84 Q49.6813 787.84 54.6784 783.512 Q59.6436 779.183 59.6436 771.035 Q59.6436 766.897 58.1477 763.237 Q56.6518 759.545 53.6281 756.298 L60.3439 756.298 Q62.6355 759.672 63.7814 763.46 Q64.9272 767.216 64.9272 771.417 Q64.9272 782.207 58.3387 788.413 Q51.7183 794.62 40.2919 794.62 Q28.8336 794.62 22.2451 788.413 Q15.6248 782.207 15.6248 771.417 Q15.6248 767.152 16.7706 763.396 Q17.8846 759.609 20.1444 756.298 Z" fill="#000000" fill-rule="nonzero" fill-opacity="1"></path><path clip-path="url(#clip740)" d="M32.4621 732.809 Q32.4621 737.52 36.1542 740.257 Q39.8145 742.994 46.212 742.994 Q52.6095 742.994 56.3017 740.289 Q59.9619 737.551 59.9619 732.809 Q59.9619 728.13 56.2698 725.393 Q52.5777 722.656 46.212 722.656 Q39.8781 722.656 36.186 725.393 Q32.4621 728.13 32.4621 732.809 M27.4968 732.809 Q27.4968 725.17 32.4621 720.81 Q37.4273 716.449 46.212 716.449 Q54.9649 716.449 59.9619 720.81 Q64.9272 725.17 64.9272 732.809 Q64.9272 740.48 59.9619 744.84 Q54.9649 749.169 46.212 749.169 Q37.4273 749.169 32.4621 744.84 Q27.4968 740.48 27.4968 732.809 Z" fill="#000000" fill-rule="nonzero" fill-opacity="1"></path><path clip-path="url(#clip740)" d="M21.7677 700.057 L39.6235 700.057 L39.6235 691.973 Q39.6235 687.485 37.3 685.034 Q34.9765 682.583 30.6797 682.583 Q26.4147 682.583 24.0912 685.034 Q21.7677 687.485 21.7677 691.973 L21.7677 700.057 M16.4842 706.487 L16.4842 691.973 Q16.4842 683.984 20.1126 679.91 Q23.7092 675.804 30.6797 675.804 Q37.7138 675.804 41.3104 679.91 Q44.907 683.984 44.907 691.973 L44.907 700.057 L64.0042 700.057 L64.0042 706.487 L16.4842 706.487 Z" fill="#000000" fill-rule="nonzero" fill-opacity="1"></path><path clip-path="url(#clip742)" d="M263.759 70.1857 L263.759 102.186 L295.759 102.186 L295.759 70.1857 L263.759 70.1857 Z" fill="#009af9" fill-rule="evenodd" fill-opacity="1" stroke="#000000" stroke-opacity="1" stroke-width="3.2"></path>
<path clip-path="url(#clip742)" d="M281.26 70.4879 L281.26 102.488 L313.26 102.488 L313.26 70.4879 L281.26 70.4879 Z" fill="#009af9" fill-rule="evenodd" fill-opacity="1" stroke="#000000" stroke-opacity="1" stroke-width="3.2"></path>
<path clip-path="url(#clip742)" d="M298.761 70.8155 L298.761 102.815 L330.761 102.815 L330.761 70.8155 L298.761 70.8155 Z" fill="#009af9" fill-rule="evenodd" fill-opacity="1" stroke="#000000" stroke-opacity="1" stroke-width="3.2"></path>
<path clip-path="url(#clip742)" d="M316.262 107.964 L316.262 139.964 L348.262 139.964 L348.262 107.964 L316.262 107.964 Z" fill="#009af9" fill-rule="evenodd" fill-opacity="1" stroke="#000000" stroke-opacity="1" stroke-width="3.2"></path>
<path clip-path="url(#clip742)" d="M333.763 108.331 L333.763 140.331 L365.763 140.331 L365.763 108.331 L333.763 108.331 Z" fill="#009af9" fill-rule="evenodd" fill-opacity="1" stroke="#000000" stroke-opacity="1" stroke-width="3.2"></path>
<path clip-path="url(#clip742)" d="M351.264 108.696 L351.264 140.696 L383.264 140.696 L383.264 108.696 L351.264 108.696 Z" fill="#009af9" fill-rule="evenodd" fill-opacity="1" stroke="#000000" stroke-opacity="1" stroke-width="3.2"></path>
<path clip-path="url(#clip742)" d="M368.765 109.102 L368.765 141.102 L400.765 141.102 L400.765 109.102 L368.765 109.102 Z" fill="#009af9" fill-rule="evenodd" fill-opacity="1" stroke="#000000" stroke-opacity="1" stroke-width="3.2"></path>
<path clip-path="url(#clip742)" d="M386.266 109.524 L386.266 141.524 L418.266 141.524 L418.266 109.524 L386.266 109.524 Z" fill="#009af9" fill-rule="evenodd" fill-opacity="1" stroke="#000000" stroke-opacity="1" stroke-width="3.2"></path>
<path clip-path="url(#clip742)" d="M403.767 109.94 L403.767 141.94 L435.767 141.94 L435.767 109.94 L403.767 109.94 Z" fill="#009af9" fill-rule="evenodd" fill-opacity="1" stroke="#000000" stroke-opacity="1" stroke-width="3.2"></path>
<path clip-path="url(#clip742)" d="M421.268 110.378 L421.268 142.378 L453.268 142.378 L453.268 110.378 L421.268 110.378 Z" fill="#009af9" fill-rule="evenodd" fill-opacity="1" stroke="#000000" stroke-opacity="1" stroke-width="3.2"></path>
<path clip-path="url(#clip742)" d="M438.769 110.847 L438.769 142.847 L470.769 142.847 L470.769 110.847 L438.769 110.847 Z" fill="#009af9" fill-rule="evenodd" fill-opacity="1" stroke="#000000" stroke-opacity="1" stroke-width="3.2"></path>
<path clip-path="url(#clip742)" d="M456.27 111.324 L456.27 143.324 L488.27 143.324 L488.27 111.324 L456.27 111.324 Z" fill="#009af9" fill-rule="evenodd" fill-opacity="1" stroke="#000000" stroke-opacity="1" stroke-width="3.2"></path>
<path clip-path="url(#clip742)" d="M473.771 152.358 L473.771 184.358 L505.771 184.358 L505.771 152.358 L473.771 152.358 Z" fill="#009af9" fill-rule="evenodd" fill-opacity="1" stroke="#000000" stroke-opacity="1" stroke-width="3.2"></path>
<path clip-path="url(#clip742)" d="M491.272 152.858 L491.272 184.858 L523.272 184.858 L523.272 152.858 L491.272 152.858 Z" fill="#009af9" fill-rule="evenodd" fill-opacity="1" stroke="#000000" stroke-opacity="1" stroke-width="3.2"></path>
<path clip-path="url(#clip742)" d="M508.773 153.374 L508.773 185.374 L540.773 185.374 L540.773 153.374 L508.773 153.374 Z" fill="#009af9" fill-rule="evenodd" fill-opacity="1" stroke="#000000" stroke-opacity="1" stroke-width="3.2"></path>
<path clip-path="url(#clip742)" d="M526.274 153.891 L526.274 185.891 L558.274 185.891 L558.274 153.891 L526.274 153.891 Z" fill="#009af9" fill-rule="evenodd" fill-opacity="1" stroke="#000000" stroke-opacity="1" stroke-width="3.2"></path>
<path clip-path="url(#clip742)" d="M543.775 154.433 L543.775 186.433 L575.775 186.433 L575.775 154.433 L543.775 154.433 Z" fill="#009af9" fill-rule="evenodd" fill-opacity="1" stroke="#000000" stroke-opacity="1" stroke-width="3.2"></path>
<path clip-path="url(#clip742)" d="M561.276 155.008 L561.276 187.008 L593.276 187.008 L593.276 155.008 L561.276 155.008 Z" fill="#009af9" fill-rule="evenodd" fill-opacity="1" stroke="#000000" stroke-opacity="1" stroke-width="3.2"></path>
<path clip-path="url(#clip742)" d="M578.777 155.598 L578.777 187.598 L610.777 187.598 L610.777 155.598 L578.777 155.598 Z" fill="#009af9" fill-rule="evenodd" fill-opacity="1" stroke="#000000" stroke-opacity="1" stroke-width="3.2"></path>
<path clip-path="url(#clip742)" d="M596.278 156.143 L596.278 188.143 L628.278 188.143 L628.278 156.143 L596.278 156.143 Z" fill="#009af9" fill-rule="evenodd" fill-opacity="1" stroke="#000000" stroke-opacity="1" stroke-width="3.2"></path>
<path clip-path="url(#clip742)" d="M613.779 144.918 L613.779 176.918 L645.779 176.918 L645.779 144.918 L613.779 144.918 Z" fill="#009af9" fill-rule="evenodd" fill-opacity="1" stroke="#000000" stroke-opacity="1" stroke-width="3.2"></path>
<path clip-path="url(#clip742)" d="M631.28 145.534 L631.28 177.534 L663.28 177.534 L663.28 145.534 L631.28 145.534 Z" fill="#009af9" fill-rule="evenodd" fill-opacity="1" stroke="#000000" stroke-opacity="1" stroke-width="3.2"></path>
<path clip-path="url(#clip742)" d="M648.781 146.149 L648.781 178.149 L680.781 178.149 L680.781 146.149 L648.781 146.149 Z" fill="#009af9" fill-rule="evenodd" fill-opacity="1" stroke="#000000" stroke-opacity="1" stroke-width="3.2"></path>
<path clip-path="url(#clip742)" d="M666.282 146.784 L666.282 178.784 L698.282 178.784 L698.282 146.784 L666.282 146.784 Z" fill="#009af9" fill-rule="evenodd" fill-opacity="1" stroke="#000000" stroke-opacity="1" stroke-width="3.2"></path>
<path clip-path="url(#clip742)" d="M683.783 147.476 L683.783 179.476 L715.783 179.476 L715.783 147.476 L683.783 147.476 Z" fill="#009af9" fill-rule="evenodd" fill-opacity="1" stroke="#000000" stroke-opacity="1" stroke-width="3.2"></path>
<path clip-path="url(#clip742)" d="M701.285 148.117 L701.285 180.117 L733.285 180.117 L733.285 148.117 L701.285 148.117 Z" fill="#009af9" fill-rule="evenodd" fill-opacity="1" stroke="#000000" stroke-opacity="1" stroke-width="3.2"></path>
<path clip-path="url(#clip742)" d="M718.786 188.905 L718.786 220.905 L750.786 220.905 L750.786 188.905 L718.786 188.905 Z" fill="#009af9" fill-rule="evenodd" fill-opacity="1" stroke="#000000" stroke-opacity="1" stroke-width="3.2"></path>
<path clip-path="url(#clip742)" d="M736.287 189.62 L736.287 221.62 L768.287 221.62 L768.287 189.62 L736.287 189.62 Z" fill="#009af9" fill-rule="evenodd" fill-opacity="1" stroke="#000000" stroke-opacity="1" stroke-width="3.2"></path>
<path clip-path="url(#clip742)" d="M753.788 190.372 L753.788 222.372 L785.788 222.372 L785.788 190.372 L753.788 190.372 Z" fill="#009af9" fill-rule="evenodd" fill-opacity="1" stroke="#000000" stroke-opacity="1" stroke-width="3.2"></path>
<path clip-path="url(#clip742)" d="M771.289 191.071 L771.289 223.071 L803.289 223.071 L803.289 191.071 L771.289 191.071 Z" fill="#009af9" fill-rule="evenodd" fill-opacity="1" stroke="#000000" stroke-opacity="1" stroke-width="3.2"></path>
<path clip-path="url(#clip742)" d="M788.79 191.839 L788.79 223.839 L820.79 223.839 L820.79 191.839 L788.79 191.839 Z" fill="#009af9" fill-rule="evenodd" fill-opacity="1" stroke="#000000" stroke-opacity="1" stroke-width="3.2"></path>
<path clip-path="url(#clip742)" d="M806.291 227.952 L806.291 259.952 L838.291 259.952 L838.291 227.952 L806.291 227.952 Z" fill="#009af9" fill-rule="evenodd" fill-opacity="1" stroke="#000000" stroke-opacity="1" stroke-width="3.2"></path>
<path clip-path="url(#clip742)" d="M823.792 228.712 L823.792 260.712 L855.792 260.712 L855.792 228.712 L823.792 228.712 Z" fill="#009af9" fill-rule="evenodd" fill-opacity="1" stroke="#000000" stroke-opacity="1" stroke-width="3.2"></path>
<path clip-path="url(#clip742)" d="M841.293 229.535 L841.293 261.535 L873.293 261.535 L873.293 229.535 L841.293 229.535 Z" fill="#009af9" fill-rule="evenodd" fill-opacity="1" stroke="#000000" stroke-opacity="1" stroke-width="3.2"></path>
<path clip-path="url(#clip742)" d="M858.794 230.347 L858.794 262.347 L890.794 262.347 L890.794 230.347 L858.794 230.347 Z" fill="#009af9" fill-rule="evenodd" fill-opacity="1" stroke="#000000" stroke-opacity="1" stroke-width="3.2"></path>
<path clip-path="url(#clip742)" d="M876.295 231.229 L876.295 263.229 L908.295 263.229 L908.295 231.229 L876.295 231.229 Z" fill="#009af9" fill-rule="evenodd" fill-opacity="1" stroke="#000000" stroke-opacity="1" stroke-width="3.2"></path>
<path clip-path="url(#clip742)" d="M893.796 220.346 L893.796 252.346 L925.796 252.346 L925.796 220.346 L893.796 220.346 Z" fill="#009af9" fill-rule="evenodd" fill-opacity="1" stroke="#000000" stroke-opacity="1" stroke-width="3.2"></path>
<path clip-path="url(#clip742)" d="M911.297 221.243 L911.297 253.243 L943.297 253.243 L943.297 221.243 L911.297 221.243 Z" fill="#009af9" fill-rule="evenodd" fill-opacity="1" stroke="#000000" stroke-opacity="1" stroke-width="3.2"></path>
<path clip-path="url(#clip742)" d="M928.798 222.155 L928.798 254.155 L960.798 254.155 L960.798 222.155 L928.798 222.155 Z" fill="#009af9" fill-rule="evenodd" fill-opacity="1" stroke="#000000" stroke-opacity="1" stroke-width="3.2"></path>
<path clip-path="url(#clip742)" d="M946.299 222.987 L946.299 254.987 L978.299 254.987 L978.299 222.987 L946.299 222.987 Z" fill="#009af9" fill-rule="evenodd" fill-opacity="1" stroke="#000000" stroke-opacity="1" stroke-width="3.2"></path>
<path clip-path="url(#clip742)" d="M963.8 261.323 L963.8 293.323 L995.8 293.323 L995.8 261.323 L963.8 261.323 Z" fill="#009af9" fill-rule="evenodd" fill-opacity="1" stroke="#000000" stroke-opacity="1" stroke-width="3.2"></path>
<path clip-path="url(#clip742)" d="M981.301 262.245 L981.301 294.245 L1013.3 294.245 L1013.3 262.245 L981.301 262.245 Z" fill="#009af9" fill-rule="evenodd" fill-opacity="1" stroke="#000000" stroke-opacity="1" stroke-width="3.2"></path>
<path clip-path="url(#clip742)" d="M998.802 263.171 L998.802 295.171 L1030.8 295.171 L1030.8 263.171 L998.802 263.171 Z" fill="#009af9" fill-rule="evenodd" fill-opacity="1" stroke="#000000" stroke-opacity="1" stroke-width="3.2"></path>
<path clip-path="url(#clip742)" d="M1016.3 264.086 L1016.3 296.086 L1048.3 296.086 L1048.3 264.086 L1016.3 264.086 Z" fill="#009af9" fill-rule="evenodd" fill-opacity="1" stroke="#000000" stroke-opacity="1" stroke-width="3.2"></path>
<path clip-path="url(#clip742)" d="M1033.8 253.65 L1033.8 285.65 L1065.8 285.65 L1065.8 253.65 L1033.8 253.65 Z" fill="#009af9" fill-rule="evenodd" fill-opacity="1" stroke="#000000" stroke-opacity="1" stroke-width="3.2"></path>
<path clip-path="url(#clip742)" d="M1051.31 254.647 L1051.31 286.647 L1083.31 286.647 L1083.31 254.647 L1051.31 254.647 Z" fill="#009af9" fill-rule="evenodd" fill-opacity="1" stroke="#000000" stroke-opacity="1" stroke-width="3.2"></path>
<path clip-path="url(#clip742)" d="M1068.81 238.293 L1068.81 270.293 L1100.81 270.293 L1100.81 238.293 L1068.81 238.293 Z" fill="#009af9" fill-rule="evenodd" fill-opacity="1" stroke="#000000" stroke-opacity="1" stroke-width="3.2"></path>
<path clip-path="url(#clip742)" d="M1086.31 239.276 L1086.31 271.276 L1118.31 271.276 L1118.31 239.276 L1086.31 239.276 Z" fill="#009af9" fill-rule="evenodd" fill-opacity="1" stroke="#000000" stroke-opacity="1" stroke-width="3.2"></path>
<path clip-path="url(#clip742)" d="M1103.81 240.521 L1103.81 272.521 L1135.81 272.521 L1135.81 240.521 L1103.81 240.521 Z" fill="#009af9" fill-rule="evenodd" fill-opacity="1" stroke="#000000" stroke-opacity="1" stroke-width="3.2"></path>
<path clip-path="url(#clip742)" d="M1121.31 241.544 L1121.31 273.544 L1153.31 273.544 L1153.31 241.544 L1121.31 241.544 Z" fill="#009af9" fill-rule="evenodd" fill-opacity="1" stroke="#000000" stroke-opacity="1" stroke-width="3.2"></path>
<path clip-path="url(#clip742)" d="M1138.81 281.473 L1138.81 313.473 L1170.81 313.473 L1170.81 281.473 L1138.81 281.473 Z" fill="#009af9" fill-rule="evenodd" fill-opacity="1" stroke="#000000" stroke-opacity="1" stroke-width="3.2"></path>
<path clip-path="url(#clip742)" d="M1156.31 282.561 L1156.31 314.561 L1188.31 314.561 L1188.31 282.561 L1156.31 282.561 Z" fill="#009af9" fill-rule="evenodd" fill-opacity="1" stroke="#000000" stroke-opacity="1" stroke-width="3.2"></path>
<path clip-path="url(#clip742)" d="M1173.81 321.317 L1173.81 353.317 L1205.81 353.317 L1205.81 321.317 L1173.81 321.317 Z" fill="#009af9" fill-rule="evenodd" fill-opacity="1" stroke="#000000" stroke-opacity="1" stroke-width="3.2"></path>
<path clip-path="url(#clip742)" d="M1191.31 322.455 L1191.31 354.455 L1223.31 354.455 L1223.31 322.455 L1191.31 322.455 Z" fill="#009af9" fill-rule="evenodd" fill-opacity="1" stroke="#000000" stroke-opacity="1" stroke-width="3.2"></path>
<path clip-path="url(#clip742)" d="M1208.81 323.638 L1208.81 355.638 L1240.81 355.638 L1240.81 323.638 L1208.81 323.638 Z" fill="#009af9" fill-rule="evenodd" fill-opacity="1" stroke="#000000" stroke-opacity="1" stroke-width="3.2"></path>
<path clip-path="url(#clip742)" d="M1226.32 313.519 L1226.32 345.519 L1258.32 345.519 L1258.32 313.519 L1226.32 313.519 Z" fill="#009af9" fill-rule="evenodd" fill-opacity="1" stroke="#000000" stroke-opacity="1" stroke-width="3.2"></path>
<path clip-path="url(#clip742)" d="M1243.82 314.749 L1243.82 346.749 L1275.82 346.749 L1275.82 314.749 L1243.82 314.749 Z" fill="#009af9" fill-rule="evenodd" fill-opacity="1" stroke="#000000" stroke-opacity="1" stroke-width="3.2"></path>
<path clip-path="url(#clip742)" d="M1261.32 316.159 L1261.32 348.159 L1293.32 348.159 L1293.32 316.159 L1261.32 316.159 Z" fill="#009af9" fill-rule="evenodd" fill-opacity="1" stroke="#000000" stroke-opacity="1" stroke-width="3.2"></path>
<path clip-path="url(#clip742)" d="M1278.82 353.404 L1278.82 385.404 L1310.82 385.404 L1310.82 353.404 L1278.82 353.404 Z" fill="#009af9" fill-rule="evenodd" fill-opacity="1" stroke="#000000" stroke-opacity="1" stroke-width="3.2"></path>
<path clip-path="url(#clip742)" d="M1296.32 354.788 L1296.32 386.788 L1328.32 386.788 L1328.32 354.788 L1296.32 354.788 Z" fill="#009af9" fill-rule="evenodd" fill-opacity="1" stroke="#000000" stroke-opacity="1" stroke-width="3.2"></path>
<path clip-path="url(#clip742)" d="M1313.82 356.076 L1313.82 388.076 L1345.82 388.076 L1345.82 356.076 L1313.82 356.076 Z" fill="#009af9" fill-rule="evenodd" fill-opacity="1" stroke="#000000" stroke-opacity="1" stroke-width="3.2"></path>
<path clip-path="url(#clip742)" d="M1331.32 346.453 L1331.32 378.453 L1363.32 378.453 L1363.32 346.453 L1331.32 346.453 Z" fill="#009af9" fill-rule="evenodd" fill-opacity="1" stroke="#000000" stroke-opacity="1" stroke-width="3.2"></path>
<path clip-path="url(#clip742)" d="M1348.82 347.816 L1348.82 379.816 L1380.82 379.816 L1380.82 347.816 L1348.82 347.816 Z" fill="#009af9" fill-rule="evenodd" fill-opacity="1" stroke="#000000" stroke-opacity="1" stroke-width="3.2"></path>
<path clip-path="url(#clip742)" d="M1366.32 349.238 L1366.32 381.238 L1398.32 381.238 L1398.32 349.238 L1366.32 349.238 Z" fill="#009af9" fill-rule="evenodd" fill-opacity="1" stroke="#000000" stroke-opacity="1" stroke-width="3.2"></path>
<path clip-path="url(#clip742)" d="M1383.82 388.007 L1383.82 420.007 L1415.82 420.007 L1415.82 388.007 L1383.82 388.007 Z" fill="#009af9" fill-rule="evenodd" fill-opacity="1" stroke="#000000" stroke-opacity="1" stroke-width="3.2"></path>
<path clip-path="url(#clip742)" d="M1401.33 389.521 L1401.33 421.521 L1433.33 421.521 L1433.33 389.521 L1401.33 389.521 Z" fill="#009af9" fill-rule="evenodd" fill-opacity="1" stroke="#000000" stroke-opacity="1" stroke-width="3.2"></path>
<path clip-path="url(#clip742)" d="M1418.83 426.439 L1418.83 458.439 L1450.83 458.439 L1450.83 426.439 L1418.83 426.439 Z" fill="#009af9" fill-rule="evenodd" fill-opacity="1" stroke="#000000" stroke-opacity="1" stroke-width="3.2"></path>
<path clip-path="url(#clip742)" d="M1436.33 427.915 L1436.33 459.915 L1468.33 459.915 L1468.33 427.915 L1436.33 427.915 Z" fill="#009af9" fill-rule="evenodd" fill-opacity="1" stroke="#000000" stroke-opacity="1" stroke-width="3.2"></path>
<path clip-path="url(#clip742)" d="M1453.83 418.409 L1453.83 450.409 L1485.83 450.409 L1485.83 418.409 L1453.83 418.409 Z" fill="#009af9" fill-rule="evenodd" fill-opacity="1" stroke="#000000" stroke-opacity="1" stroke-width="3.2"></path>
<path clip-path="url(#clip742)" d="M1471.33 420.094 L1471.33 452.094 L1503.33 452.094 L1503.33 420.094 L1471.33 420.094 Z" fill="#009af9" fill-rule="evenodd" fill-opacity="1" stroke="#000000" stroke-opacity="1" stroke-width="3.2"></path>
<path clip-path="url(#clip742)" d="M1488.83 405.087 L1488.83 437.087 L1520.83 437.087 L1520.83 405.087 L1488.83 405.087 Z" fill="#009af9" fill-rule="evenodd" fill-opacity="1" stroke="#000000" stroke-opacity="1" stroke-width="3.2"></path>
<path clip-path="url(#clip742)" d="M1506.33 406.771 L1506.33 438.771 L1538.33 438.771 L1538.33 406.771 L1506.33 406.771 Z" fill="#009af9" fill-rule="evenodd" fill-opacity="1" stroke="#000000" stroke-opacity="1" stroke-width="3.2"></path>
<path clip-path="url(#clip742)" d="M1523.83 443.25 L1523.83 475.25 L1555.83 475.25 L1555.83 443.25 L1523.83 443.25 Z" fill="#009af9" fill-rule="evenodd" fill-opacity="1" stroke="#000000" stroke-opacity="1" stroke-width="3.2"></path>
<path clip-path="url(#clip742)" d="M1541.33 445.123 L1541.33 477.123 L1573.33 477.123 L1573.33 445.123 L1541.33 445.123 Z" fill="#009af9" fill-rule="evenodd" fill-opacity="1" stroke="#000000" stroke-opacity="1" stroke-width="3.2"></path>
<path clip-path="url(#clip742)" d="M1558.84 481.405 L1558.84 513.405 L1590.84 513.405 L1590.84 481.405 L1558.84 481.405 Z" fill="#009af9" fill-rule="evenodd" fill-opacity="1" stroke="#000000" stroke-opacity="1" stroke-width="3.2"></path>
<path clip-path="url(#clip742)" d="M1576.34 473.465 L1576.34 505.465 L1608.34 505.465 L1608.34 473.465 L1576.34 473.465 Z" fill="#009af9" fill-rule="evenodd" fill-opacity="1" stroke="#000000" stroke-opacity="1" stroke-width="3.2"></path>
<path clip-path="url(#clip742)" d="M1593.84 475.359 L1593.84 507.359 L1625.84 507.359 L1625.84 475.359 L1593.84 475.359 Z" fill="#009af9" fill-rule="evenodd" fill-opacity="1" stroke="#000000" stroke-opacity="1" stroke-width="3.2"></path>
<path clip-path="url(#clip742)" d="M1611.34 513.405 L1611.34 545.405 L1643.34 545.405 L1643.34 513.405 L1611.34 513.405 Z" fill="#009af9" fill-rule="evenodd" fill-opacity="1" stroke="#000000" stroke-opacity="1" stroke-width="3.2"></path>
<path clip-path="url(#clip742)" d="M1628.84 515.577 L1628.84 547.577 L1660.84 547.577 L1660.84 515.577 L1628.84 515.577 Z" fill="#009af9" fill-rule="evenodd" fill-opacity="1" stroke="#000000" stroke-opacity="1" stroke-width="3.2"></path>
<path clip-path="url(#clip742)" d="M1646.34 506.908 L1646.34 538.908 L1678.34 538.908 L1678.34 506.908 L1646.34 506.908 Z" fill="#009af9" fill-rule="evenodd" fill-opacity="1" stroke="#000000" stroke-opacity="1" stroke-width="3.2"></path>
<path clip-path="url(#clip742)" d="M1663.84 508.999 L1663.84 540.999 L1695.84 540.999 L1695.84 508.999 L1663.84 508.999 Z" fill="#009af9" fill-rule="evenodd" fill-opacity="1" stroke="#000000" stroke-opacity="1" stroke-width="3.2"></path>
<path clip-path="url(#clip742)" d="M1681.34 544.662 L1681.34 576.662 L1713.34 576.662 L1713.34 544.662 L1681.34 544.662 Z" fill="#009af9" fill-rule="evenodd" fill-opacity="1" stroke="#000000" stroke-opacity="1" stroke-width="3.2"></path>
<path clip-path="url(#clip742)" d="M1698.84 546.877 L1698.84 578.877 L1730.84 578.877 L1730.84 546.877 L1698.84 546.877 Z" fill="#009af9" fill-rule="evenodd" fill-opacity="1" stroke="#000000" stroke-opacity="1" stroke-width="3.2"></path>
<path clip-path="url(#clip742)" d="M1716.34 580.897 L1716.34 612.897 L1748.34 612.897 L1748.34 580.897 L1716.34 580.897 Z" fill="#009af9" fill-rule="evenodd" fill-opacity="1" stroke="#000000" stroke-opacity="1" stroke-width="3.2"></path>
<path clip-path="url(#clip742)" d="M1733.85 574.563 L1733.85 606.563 L1765.85 606.563 L1765.85 574.563 L1733.85 574.563 Z" fill="#009af9" fill-rule="evenodd" fill-opacity="1" stroke="#000000" stroke-opacity="1" stroke-width="3.2"></path>
<path clip-path="url(#clip742)" d="M1751.35 560.717 L1751.35 592.717 L1783.35 592.717 L1783.35 560.717 L1751.35 560.717 Z" fill="#009af9" fill-rule="evenodd" fill-opacity="1" stroke="#000000" stroke-opacity="1" stroke-width="3.2"></path>
<path clip-path="url(#clip742)" d="M1768.85 563.065 L1768.85 595.065 L1800.85 595.065 L1800.85 563.065 L1768.85 563.065 Z" fill="#009af9" fill-rule="evenodd" fill-opacity="1" stroke="#000000" stroke-opacity="1" stroke-width="3.2"></path>
<path clip-path="url(#clip742)" d="M1786.35 632.455 L1786.35 664.455 L1818.35 664.455 L1818.35 632.455 L1786.35 632.455 Z" fill="#009af9" fill-rule="evenodd" fill-opacity="1" stroke="#000000" stroke-opacity="1" stroke-width="3.2"></path>
<path clip-path="url(#clip742)" d="M1803.85 634.884 L1803.85 666.884 L1835.85 666.884 L1835.85 634.884 L1803.85 634.884 Z" fill="#009af9" fill-rule="evenodd" fill-opacity="1" stroke="#000000" stroke-opacity="1" stroke-width="3.2"></path>
<path clip-path="url(#clip742)" d="M1821.35 629.096 L1821.35 661.096 L1853.35 661.096 L1853.35 629.096 L1821.35 629.096 Z" fill="#009af9" fill-rule="evenodd" fill-opacity="1" stroke="#000000" stroke-opacity="1" stroke-width="3.2"></path>
<path clip-path="url(#clip742)" d="M1838.85 663.91 L1838.85 695.91 L1870.85 695.91 L1870.85 663.91 L1838.85 663.91 Z" fill="#009af9" fill-rule="evenodd" fill-opacity="1" stroke="#000000" stroke-opacity="1" stroke-width="3.2"></path>
<path clip-path="url(#clip742)" d="M1856.35 666.993 L1856.35 698.993 L1888.35 698.993 L1888.35 666.993 L1856.35 666.993 Z" fill="#009af9" fill-rule="evenodd" fill-opacity="1" stroke="#000000" stroke-opacity="1" stroke-width="3.2"></path>
<path clip-path="url(#clip742)" d="M1873.85 659.9 L1873.85 691.9 L1905.85 691.9 L1905.85 659.9 L1873.85 659.9 Z" fill="#009af9" fill-rule="evenodd" fill-opacity="1" stroke="#000000" stroke-opacity="1" stroke-width="3.2"></path>
<path clip-path="url(#clip742)" d="M1891.35 695.051 L1891.35 727.051 L1923.35 727.051 L1923.35 695.051 L1891.35 695.051 Z" fill="#009af9" fill-rule="evenodd" fill-opacity="1" stroke="#000000" stroke-opacity="1" stroke-width="3.2"></path>
<path clip-path="url(#clip742)" d="M1908.86 729.583 L1908.86 761.583 L1940.86 761.583 L1940.86 729.583 L1908.86 729.583 Z" fill="#009af9" fill-rule="evenodd" fill-opacity="1" stroke="#000000" stroke-opacity="1" stroke-width="3.2"></path>
<path clip-path="url(#clip742)" d="M1926.36 709.739 L1926.36 741.739 L1958.36 741.739 L1958.36 709.739 L1926.36 709.739 Z" fill="#009af9" fill-rule="evenodd" fill-opacity="1" stroke="#000000" stroke-opacity="1" stroke-width="3.2"></path>
<path clip-path="url(#clip742)" d="M1943.86 743.145 L1943.86 775.145 L1975.86 775.145 L1975.86 743.145 L1943.86 743.145 Z" fill="#009af9" fill-rule="evenodd" fill-opacity="1" stroke="#000000" stroke-opacity="1" stroke-width="3.2"></path>
<path clip-path="url(#clip742)" d="M1961.36 779.351 L1961.36 811.351 L1993.36 811.351 L1993.36 779.351 L1961.36 779.351 Z" fill="#009af9" fill-rule="evenodd" fill-opacity="1" stroke="#000000" stroke-opacity="1" stroke-width="3.2"></path>
<path clip-path="url(#clip742)" d="M1978.86 772.848 L1978.86 804.848 L2010.86 804.848 L2010.86 772.848 L1978.86 772.848 Z" fill="#009af9" fill-rule="evenodd" fill-opacity="1" stroke="#000000" stroke-opacity="1" stroke-width="3.2"></path>
<path clip-path="url(#clip742)" d="M1996.36 807.51 L1996.36 839.51 L2028.36 839.51 L2028.36 807.51 L1996.36 807.51 Z" fill="#009af9" fill-rule="evenodd" fill-opacity="1" stroke="#000000" stroke-opacity="1" stroke-width="3.2"></path>
<path clip-path="url(#clip742)" d="M2013.86 804.878 L2013.86 836.878 L2045.86 836.878 L2045.86 804.878 L2013.86 804.878 Z" fill="#009af9" fill-rule="evenodd" fill-opacity="1" stroke="#000000" stroke-opacity="1" stroke-width="3.2"></path>
<path clip-path="url(#clip742)" d="M2031.36 838.909 L2031.36 870.909 L2063.36 870.909 L2063.36 838.909 L2031.36 838.909 Z" fill="#009af9" fill-rule="evenodd" fill-opacity="1" stroke="#000000" stroke-opacity="1" stroke-width="3.2"></path>
<path clip-path="url(#clip742)" d="M2048.86 873.548 L2048.86 905.548 L2080.86 905.548 L2080.86 873.548 L2048.86 873.548 Z" fill="#009af9" fill-rule="evenodd" fill-opacity="1" stroke="#000000" stroke-opacity="1" stroke-width="3.2"></path>
<path clip-path="url(#clip742)" d="M2066.36 854.663 L2066.36 886.663 L2098.36 886.663 L2098.36 854.663 L2066.36 854.663 Z" fill="#009af9" fill-rule="evenodd" fill-opacity="1" stroke="#000000" stroke-opacity="1" stroke-width="3.2"></path>
<path clip-path="url(#clip742)" d="M2083.87 920.175 L2083.87 952.175 L2115.87 952.175 L2115.87 920.175 L2083.87 920.175 Z" fill="#009af9" fill-rule="evenodd" fill-opacity="1" stroke="#000000" stroke-opacity="1" stroke-width="3.2"></path>
<path clip-path="url(#clip742)" d="M2101.37 917.375 L2101.37 949.375 L2133.37 949.375 L2133.37 917.375 L2101.37 917.375 Z" fill="#009af9" fill-rule="evenodd" fill-opacity="1" stroke="#000000" stroke-opacity="1" stroke-width="3.2"></path>
<path clip-path="url(#clip742)" d="M2118.87 979.493 L2118.87 1011.49 L2150.87 1011.49 L2150.87 979.493 L2118.87 979.493 Z" fill="#009af9" fill-rule="evenodd" fill-opacity="1" stroke="#000000" stroke-opacity="1" stroke-width="3.2"></path>
<path clip-path="url(#clip742)" d="M2136.37 1006.7 L2136.37 1038.7 L2168.37 1038.7 L2168.37 1006.7 L2136.37 1006.7 Z" fill="#009af9" fill-rule="evenodd" fill-opacity="1" stroke="#000000" stroke-opacity="1" stroke-width="3.2"></path>
<path clip-path="url(#clip742)" d="M2153.87 991.06 L2153.87 1023.06 L2185.87 1023.06 L2185.87 991.06 L2153.87 991.06 Z" fill="#009af9" fill-rule="evenodd" fill-opacity="1" stroke="#000000" stroke-opacity="1" stroke-width="3.2"></path>
<path clip-path="url(#clip742)" d="M2171.37 1046.64 L2171.37 1078.64 L2203.37 1078.64 L2203.37 1046.64 L2171.37 1046.64 Z" fill="#009af9" fill-rule="evenodd" fill-opacity="1" stroke="#000000" stroke-opacity="1" stroke-width="3.2"></path>
<path clip-path="url(#clip742)" d="M2188.87 1108.95 L2188.87 1140.95 L2220.87 1140.95 L2220.87 1108.95 L2188.87 1108.95 Z" fill="#009af9" fill-rule="evenodd" fill-opacity="1" stroke="#000000" stroke-opacity="1" stroke-width="3.2"></path>
<path clip-path="url(#clip742)" d="M2206.37 1138.08 L2206.37 1170.08 L2238.37 1170.08 L2238.37 1138.08 L2206.37 1138.08 Z" fill="#009af9" fill-rule="evenodd" fill-opacity="1" stroke="#000000" stroke-opacity="1" stroke-width="3.2"></path>
<path clip-path="url(#clip742)" d="M2223.87 1179.82 L2223.87 1211.82 L2255.87 1211.82 L2255.87 1179.82 L2223.87 1179.82 Z" fill="#009af9" fill-rule="evenodd" fill-opacity="1" stroke="#000000" stroke-opacity="1" stroke-width="3.2"></path>
<path clip-path="url(#clip742)" d="M2241.38 1231.72 L2241.38 1263.72 L2273.38 1263.72 L2273.38 1231.72 L2241.38 1231.72 Z" fill="#009af9" fill-rule="evenodd" fill-opacity="1" stroke="#000000" stroke-opacity="1" stroke-width="3.2"></path>
<path clip-path="url(#clip742)" d="M2258.88 1276.02 L2258.88 1308.02 L2290.88 1308.02 L2290.88 1276.02 L2258.88 1276.02 Z" fill="#009af9" fill-rule="evenodd" fill-opacity="1" stroke="#000000" stroke-opacity="1" stroke-width="3.2"></path>
<path clip-path="url(#clip742)" d="M2276.38 1368.24 L2276.38 1400.24 L2308.38 1400.24 L2308.38 1368.24 L2276.38 1368.24 Z" fill="#009af9" fill-rule="evenodd" fill-opacity="1" stroke="#000000" stroke-opacity="1" stroke-width="3.2"></path>
<path clip-path="url(#clip740)" d="M1974.66 196.789 L2281.64 196.789 L2281.64 93.1086 L1974.66 93.1086  Z" fill="#ffffff" fill-rule="evenodd" fill-opacity="1"></path>
<polyline clip-path="url(#clip740)" style="stroke:#000000; stroke-linecap:round; stroke-linejoin:round; stroke-width:4; stroke-opacity:1; fill:none" points="1974.66,196.789 2281.64,196.789 2281.64,93.1086 1974.66,93.1086 1974.66,196.789 "></polyline>
<path clip-path="url(#clip740)" d="M2043.87 119.349 L2043.87 170.549 L2095.07 170.549 L2095.07 119.349 L2043.87 119.349 Z" fill="#009af9" fill-rule="evenodd" fill-opacity="1" stroke="#000000" stroke-opacity="1" stroke-width="5.12"></path>
<path clip-path="url(#clip740)" d="M2198.35 121.193 L2195.33 133.419 Q2195.11 134.192 2194.97 134.286 Q2194.86 134.38 2194.48 134.38 Q2193.76 134.38 2193.76 133.888 Q2193.76 133.841 2193.83 133.232 Q2193.9 132.599 2193.9 131.452 Q2193.9 127.212 2191.84 124.706 Q2189.8 122.2 2186.17 122.2 Q2183.03 122.2 2179.87 123.793 Q2176.73 125.385 2174.48 127.985 Q2172.79 129.953 2171.55 132.435 Q2170.33 134.918 2169.75 137.19 Q2169.19 139.462 2168.93 141.172 Q2168.67 142.882 2168.67 144.123 Q2168.67 145.927 2169.05 147.449 Q2169.44 148.972 2170.15 150.049 Q2170.85 151.103 2171.74 151.923 Q2172.65 152.719 2173.71 153.188 Q2174.78 153.656 2175.86 153.89 Q2176.94 154.101 2178.06 154.101 Q2182.58 154.101 2186.89 150.588 Q2190.31 147.707 2191.74 142.999 Q2191.86 142.531 2192.35 142.531 Q2192.94 142.531 2192.94 142.999 Q2192.94 143.093 2192.82 143.561 Q2192.7 144.006 2192.35 144.92 Q2192 145.81 2191.46 146.817 Q2190.92 147.824 2189.92 149.089 Q2188.91 150.354 2187.67 151.454 Q2185.56 153.281 2182.89 154.429 Q2180.22 155.577 2177.29 155.577 Q2173.64 155.577 2170.69 153.961 Q2167.73 152.345 2166 149.323 Q2164.29 146.302 2164.29 142.437 Q2164.29 138.361 2166.16 134.356 Q2168.04 130.351 2171.01 127.376 Q2173.99 124.402 2177.92 122.551 Q2181.86 120.701 2185.79 120.701 Q2187.29 120.701 2188.63 121.099 Q2189.96 121.497 2190.76 121.989 Q2191.58 122.481 2192.3 123.207 Q2193.03 123.91 2193.26 124.238 Q2193.52 124.566 2193.76 124.964 L2197.11 121.286 Q2197.69 120.701 2197.83 120.701 Q2198.11 120.701 2198.23 120.865 Q2198.35 121.029 2198.35 121.193 Z" fill="#000000" fill-rule="nonzero" fill-opacity="1"></path><path clip-path="url(#clip740)" d="M2231.41 133.607 Q2231.41 136.956 2230.22 140.282 Q2229.05 143.585 2226.99 146.302 Q2224.92 149.019 2222.3 151.127 Q2219.68 153.235 2216.61 154.406 Q2213.54 155.577 2210.54 155.577 Q2205.23 155.577 2201.74 152.087 Q2198.25 148.597 2198.25 142.765 Q2198.25 138.689 2200.07 134.637 Q2201.9 130.562 2204.8 127.54 Q2207.71 124.495 2211.53 122.598 Q2215.37 120.701 2219.16 120.701 Q2224.55 120.701 2227.97 124.284 Q2231.41 127.845 2231.41 133.607 M2227.13 131.733 Q2227.13 129.156 2226.4 127.212 Q2225.67 125.245 2224.46 124.121 Q2223.26 122.996 2221.83 122.458 Q2220.43 121.895 2218.88 121.895 Q2215.88 121.895 2212.67 123.839 Q2209.47 125.783 2207.08 129.391 Q2205.79 131.358 2204.85 133.724 Q2203.91 136.066 2203.49 138.151 Q2203.07 140.212 2202.88 141.664 Q2202.72 143.116 2202.72 144.123 Q2202.72 148.808 2204.97 151.572 Q2207.22 154.335 2210.82 154.335 Q2213.66 154.335 2216.42 152.672 Q2219.19 150.986 2221.08 148.574 Q2222.77 146.489 2224.01 143.983 Q2225.28 141.477 2225.91 139.181 Q2226.54 136.886 2226.82 135.035 Q2227.13 133.185 2227.13 131.733 Z" fill="#000000" fill-rule="nonzero" fill-opacity="1"></path><path clip-path="url(#clip740)" d="M2236.19 168.859 Q2236.19 168.252 2236.24 168.072 Q2236.31 167.891 2236.57 167.613 L2243.01 160.431 Q2246.54 156.464 2246.54 153.004 Q2246.54 150.758 2245.36 149.151 Q2244.2 147.544 2242.05 147.544 Q2240.57 147.544 2239.33 148.446 Q2238.08 149.348 2237.51 150.955 Q2237.6 150.922 2237.95 150.922 Q2238.78 150.922 2239.24 151.447 Q2239.72 151.971 2239.72 152.676 Q2239.72 153.578 2239.13 154.021 Q2238.56 154.447 2237.98 154.447 Q2237.75 154.447 2237.44 154.398 Q2237.15 154.349 2236.67 153.889 Q2236.19 153.414 2236.19 152.578 Q2236.19 150.233 2237.96 148.364 Q2239.75 146.495 2242.47 146.495 Q2245.56 146.495 2247.57 148.331 Q2249.61 150.151 2249.61 153.004 Q2249.61 154.004 2249.29 154.922 Q2249 155.824 2248.59 156.529 Q2248.2 157.234 2247.11 158.366 Q2246.03 159.497 2245.16 160.3 Q2244.29 161.104 2242.34 162.809 L2238.78 166.268 L2244.83 166.268 Q2247.79 166.268 2248.02 166.006 Q2248.34 165.53 2248.75 163.022 L2249.61 163.022 L2248.65 168.859 L2236.19 168.859 Z" fill="#000000" fill-rule="nonzero" fill-opacity="1"></path></svg>