<svg xmlns="http://www.w3.org/2000/svg" xmlns:xlink="http://www.w3.org/1999/xlink" width="600" height="400" viewBox="0 0 2400 1600">
<defs>
  <clipPath id="clip770">
    <rect x="0" y="0" width="2400" height="1600"></rect>
  </clipPath>
</defs>
<path clip-path="url(#clip770)" d="M0 1600 L2400 1600 L2400 0 L0 0  Z" fill="#ffffff" fill-rule="evenodd" fill-opacity="1"></path>
<defs>
  <clipPath id="clip771">
    <rect x="480" y="0" width="1681" height="1600"></rect>
  </clipPath>
</defs>
<path clip-path="url(#clip770)" d="M205.028 1423.18 L2352.76 1423.18 L2352.76 47.2441 L205.028 47.2441  Z" fill="#ffffff" fill-rule="evenodd" fill-opacity="1"></path>
<defs>
  <clipPath id="clip772">
    <rect x="205" y="47" width="2149" height="1377"></rect>
  </clipPath>
</defs>
<polyline clip-path="url(#clip772)" style="stroke:#000000; stroke-linecap:round; stroke-linejoin:round; stroke-width:2; stroke-opacity:0.1; fill:none" points="246.516,1423.18 246.516,47.2441 "></polyline>
<polyline clip-path="url(#clip772)" style="stroke:#000000; stroke-linecap:round; stroke-linejoin:round; stroke-width:2; stroke-opacity:0.1; fill:none" points="728.935,1423.18 728.935,47.2441 "></polyline>
<polyline clip-path="url(#clip772)" style="stroke:#000000; stroke-linecap:round; stroke-linejoin:round; stroke-width:2; stroke-opacity:0.1; fill:none" points="1211.35,1423.18 1211.35,47.2441 "></polyline>
<polyline clip-path="url(#clip772)" style="stroke:#000000; stroke-linecap:round; stroke-linejoin:round; stroke-width:2; stroke-opacity:0.1; fill:none" points="1693.77,1423.18 1693.77,47.2441 "></polyline>
<polyline clip-path="url(#clip772)" style="stroke:#000000; stroke-linecap:round; stroke-linejoin:round; stroke-width:2; stroke-opacity:0.1; fill:none" points="2176.19,1423.18 2176.19,47.2441 "></polyline>
<polyline clip-path="url(#clip770)" style="stroke:#000000; stroke-linecap:round; stroke-linejoin:round; stroke-width:4; stroke-opacity:1; fill:none" points="205.028,1423.18 2352.76,1423.18 "></polyline>
<polyline clip-path="url(#clip770)" style="stroke:#000000; stroke-linecap:round; stroke-linejoin:round; stroke-width:4; stroke-opacity:1; fill:none" points="246.516,1423.18 246.516,1404.28 "></polyline>
<polyline clip-path="url(#clip770)" style="stroke:#000000; stroke-linecap:round; stroke-linejoin:round; stroke-width:4; stroke-opacity:1; fill:none" points="728.935,1423.18 728.935,1404.28 "></polyline>
<polyline clip-path="url(#clip770)" style="stroke:#000000; stroke-linecap:round; stroke-linejoin:round; stroke-width:4; stroke-opacity:1; fill:none" points="1211.35,1423.18 1211.35,1404.28 "></polyline>
<polyline clip-path="url(#clip770)" style="stroke:#000000; stroke-linecap:round; stroke-linejoin:round; stroke-width:4; stroke-opacity:1; fill:none" points="1693.77,1423.18 1693.77,1404.28 "></polyline>
<polyline clip-path="url(#clip770)" style="stroke:#000000; stroke-linecap:round; stroke-linejoin:round; stroke-width:4; stroke-opacity:1; fill:none" points="2176.19,1423.18 2176.19,1404.28 "></polyline>
<path clip-path="url(#clip770)" d="M246.516 1454.1 Q242.905 1454.1 241.077 1457.66 Q239.271 1461.2 239.271 1468.33 Q239.271 1475.44 241.077 1479.01 Q242.905 1482.55 246.516 1482.55 Q250.151 1482.55 251.956 1479.01 Q253.785 1475.44 253.785 1468.33 Q253.785 1461.2 251.956 1457.66 Q250.151 1454.1 246.516 1454.1 M246.516 1450.39 Q252.327 1450.39 255.382 1455 Q258.461 1459.58 258.461 1468.33 Q258.461 1477.06 255.382 1481.67 Q252.327 1486.25 246.516 1486.25 Q240.706 1486.25 237.628 1481.67 Q234.572 1477.06 234.572 1468.33 Q234.572 1459.58 237.628 1455 Q240.706 1450.39 246.516 1450.39 Z" fill="#000000" fill-rule="nonzero" fill-opacity="1"></path><path clip-path="url(#clip770)" d="M708.206 1481.64 L724.525 1481.64 L724.525 1485.58 L702.581 1485.58 L702.581 1481.64 Q705.243 1478.89 709.826 1474.26 Q714.433 1469.61 715.613 1468.27 Q717.859 1465.74 718.738 1464.01 Q719.641 1462.25 719.641 1460.56 Q719.641 1457.8 717.697 1456.07 Q715.775 1454.33 712.673 1454.33 Q710.474 1454.33 708.021 1455.09 Q705.59 1455.86 702.812 1457.41 L702.812 1452.69 Q705.636 1451.55 708.09 1450.97 Q710.544 1450.39 712.581 1450.39 Q717.951 1450.39 721.146 1453.08 Q724.34 1455.77 724.34 1460.26 Q724.34 1462.39 723.53 1464.31 Q722.743 1466.2 720.636 1468.8 Q720.058 1469.47 716.956 1472.69 Q713.854 1475.88 708.206 1481.64 Z" fill="#000000" fill-rule="nonzero" fill-opacity="1"></path><path clip-path="url(#clip770)" d="M734.386 1451.02 L752.743 1451.02 L752.743 1454.96 L738.669 1454.96 L738.669 1463.43 Q739.687 1463.08 740.706 1462.92 Q741.724 1462.73 742.743 1462.73 Q748.53 1462.73 751.909 1465.9 Q755.289 1469.08 755.289 1474.49 Q755.289 1480.07 751.817 1483.17 Q748.345 1486.25 742.025 1486.25 Q739.849 1486.25 737.581 1485.88 Q735.335 1485.51 732.928 1484.77 L732.928 1480.07 Q735.011 1481.2 737.234 1481.76 Q739.456 1482.32 741.933 1482.32 Q745.937 1482.32 748.275 1480.21 Q750.613 1478.1 750.613 1474.49 Q750.613 1470.88 748.275 1468.77 Q745.937 1466.67 741.933 1466.67 Q740.058 1466.67 738.183 1467.08 Q736.331 1467.5 734.386 1468.38 L734.386 1451.02 Z" fill="#000000" fill-rule="nonzero" fill-opacity="1"></path><path clip-path="url(#clip770)" d="M1186.05 1451.02 L1204.41 1451.02 L1204.41 1454.96 L1190.34 1454.96 L1190.34 1463.43 Q1191.35 1463.08 1192.37 1462.92 Q1193.39 1462.73 1194.41 1462.73 Q1200.2 1462.73 1203.58 1465.9 Q1206.96 1469.08 1206.96 1474.49 Q1206.96 1480.07 1203.48 1483.17 Q1200.01 1486.25 1193.69 1486.25 Q1191.52 1486.25 1189.25 1485.88 Q1187 1485.51 1184.59 1484.77 L1184.59 1480.07 Q1186.68 1481.2 1188.9 1481.76 Q1191.12 1482.32 1193.6 1482.32 Q1197.6 1482.32 1199.94 1480.21 Q1202.28 1478.1 1202.28 1474.49 Q1202.28 1470.88 1199.94 1468.77 Q1197.6 1466.67 1193.6 1466.67 Q1191.72 1466.67 1189.85 1467.08 Q1188 1467.5 1186.05 1468.38 L1186.05 1451.02 Z" fill="#000000" fill-rule="nonzero" fill-opacity="1"></path><path clip-path="url(#clip770)" d="M1226.17 1454.1 Q1222.56 1454.1 1220.73 1457.66 Q1218.92 1461.2 1218.92 1468.33 Q1218.92 1475.44 1220.73 1479.01 Q1222.56 1482.55 1226.17 1482.55 Q1229.8 1482.55 1231.61 1479.01 Q1233.44 1475.44 1233.44 1468.33 Q1233.44 1461.2 1231.61 1457.66 Q1229.8 1454.1 1226.17 1454.1 M1226.17 1450.39 Q1231.98 1450.39 1235.03 1455 Q1238.11 1459.58 1238.11 1468.33 Q1238.11 1477.06 1235.03 1481.67 Q1231.98 1486.25 1226.17 1486.25 Q1220.36 1486.25 1217.28 1481.67 Q1214.22 1477.06 1214.22 1468.33 Q1214.22 1459.58 1217.28 1455 Q1220.36 1450.39 1226.17 1450.39 Z" fill="#000000" fill-rule="nonzero" fill-opacity="1"></path><path clip-path="url(#clip770)" d="M1667.63 1451.02 L1689.85 1451.02 L1689.85 1453.01 L1677.3 1485.58 L1672.42 1485.58 L1684.22 1454.96 L1667.63 1454.96 L1667.63 1451.02 Z" fill="#000000" fill-rule="nonzero" fill-opacity="1"></path><path clip-path="url(#clip770)" d="M1699.02 1451.02 L1717.37 1451.02 L1717.37 1454.96 L1703.3 1454.96 L1703.3 1463.43 Q1704.32 1463.08 1705.33 1462.92 Q1706.35 1462.73 1707.37 1462.73 Q1713.16 1462.73 1716.54 1465.9 Q1719.92 1469.08 1719.92 1474.49 Q1719.92 1480.07 1716.45 1483.17 Q1712.97 1486.25 1706.65 1486.25 Q1704.48 1486.25 1702.21 1485.88 Q1699.96 1485.51 1697.56 1484.77 L1697.56 1480.07 Q1699.64 1481.2 1701.86 1481.76 Q1704.08 1482.32 1706.56 1482.32 Q1710.57 1482.32 1712.9 1480.21 Q1715.24 1478.1 1715.24 1474.49 Q1715.24 1470.88 1712.9 1468.77 Q1710.57 1466.67 1706.56 1466.67 Q1704.69 1466.67 1702.81 1467.08 Q1700.96 1467.5 1699.02 1468.38 L1699.02 1451.02 Z" fill="#000000" fill-rule="nonzero" fill-opacity="1"></path><path clip-path="url(#clip770)" d="M2135.8 1481.64 L2143.44 1481.64 L2143.44 1455.28 L2135.13 1456.95 L2135.13 1452.69 L2143.39 1451.02 L2148.07 1451.02 L2148.07 1481.64 L2155.7 1481.64 L2155.7 1485.58 L2135.8 1485.58 L2135.8 1481.64 Z" fill="#000000" fill-rule="nonzero" fill-opacity="1"></path><path clip-path="url(#clip770)" d="M2175.15 1454.1 Q2171.54 1454.1 2169.71 1457.66 Q2167.9 1461.2 2167.9 1468.33 Q2167.9 1475.44 2169.71 1479.01 Q2171.54 1482.55 2175.15 1482.55 Q2178.78 1482.55 2180.59 1479.01 Q2182.42 1475.44 2182.42 1468.33 Q2182.42 1461.2 2180.59 1457.66 Q2178.78 1454.1 2175.15 1454.1 M2175.15 1450.39 Q2180.96 1450.39 2184.01 1455 Q2187.09 1459.58 2187.09 1468.33 Q2187.09 1477.06 2184.01 1481.67 Q2180.96 1486.25 2175.15 1486.25 Q2169.34 1486.25 2166.26 1481.67 Q2163.2 1477.06 2163.2 1468.33 Q2163.2 1459.58 2166.26 1455 Q2169.34 1450.39 2175.15 1450.39 Z" fill="#000000" fill-rule="nonzero" fill-opacity="1"></path><path clip-path="url(#clip770)" d="M2205.31 1454.1 Q2201.7 1454.1 2199.87 1457.66 Q2198.07 1461.2 2198.07 1468.33 Q2198.07 1475.44 2199.87 1479.01 Q2201.7 1482.55 2205.31 1482.55 Q2208.95 1482.55 2210.75 1479.01 Q2212.58 1475.44 2212.58 1468.33 Q2212.58 1461.2 2210.75 1457.66 Q2208.95 1454.1 2205.31 1454.1 M2205.31 1450.39 Q2211.12 1450.39 2214.18 1455 Q2217.26 1459.58 2217.26 1468.33 Q2217.26 1477.06 2214.18 1481.67 Q2211.12 1486.25 2205.31 1486.25 Q2199.5 1486.25 2196.42 1481.67 Q2193.37 1477.06 2193.37 1468.33 Q2193.37 1459.58 2196.42 1455 Q2199.5 1450.39 2205.31 1450.39 Z" fill="#000000" fill-rule="nonzero" fill-opacity="1"></path><path clip-path="url(#clip770)" d="M953.62 1520.52 L963.201 1520.52 L975.328 1552.86 L987.518 1520.52 L997.098 1520.52 L997.098 1568.04 L990.828 1568.04 L990.828 1526.32 L978.574 1558.91 L972.113 1558.91 L959.859 1526.32 L959.859 1568.04 L953.62 1568.04 L953.62 1520.52 Z" fill="#000000" fill-rule="nonzero" fill-opacity="1"></path><path clip-path="url(#clip770)" d="M1009.61 1532.4 L1015.46 1532.4 L1015.46 1568.04 L1009.61 1568.04 L1009.61 1532.4 M1009.61 1518.52 L1015.46 1518.52 L1015.46 1525.93 L1009.61 1525.93 L1009.61 1518.52 Z" fill="#000000" fill-rule="nonzero" fill-opacity="1"></path><path clip-path="url(#clip770)" d="M1057.35 1532.4 L1044.46 1549.74 L1058.02 1568.04 L1051.11 1568.04 L1040.74 1554.04 L1030.36 1568.04 L1023.45 1568.04 L1037.3 1549.39 L1024.63 1532.4 L1031.54 1532.4 L1040.99 1545.1 L1050.44 1532.4 L1057.35 1532.4 Z" fill="#000000" fill-rule="nonzero" fill-opacity="1"></path><path clip-path="url(#clip770)" d="M1094.78 1548.76 L1094.78 1551.62 L1067.85 1551.62 Q1068.23 1557.67 1071.48 1560.85 Q1074.76 1564 1080.58 1564 Q1083.96 1564 1087.11 1563.17 Q1090.29 1562.35 1093.41 1560.69 L1093.41 1566.23 Q1090.26 1567.57 1086.95 1568.27 Q1083.64 1568.97 1080.23 1568.97 Q1071.7 1568.97 1066.71 1564 Q1061.74 1559.04 1061.74 1550.57 Q1061.74 1541.82 1066.45 1536.69 Q1071.2 1531.54 1079.22 1531.54 Q1086.41 1531.54 1090.58 1536.18 Q1094.78 1540.8 1094.78 1548.76 M1088.92 1547.04 Q1088.86 1542.23 1086.22 1539.37 Q1083.61 1536.5 1079.28 1536.5 Q1074.38 1536.5 1071.42 1539.27 Q1068.49 1542.04 1068.04 1547.07 L1088.92 1547.04 Z" fill="#000000" fill-rule="nonzero" fill-opacity="1"></path><path clip-path="url(#clip770)" d="M1125.05 1537.87 Q1124.06 1537.3 1122.88 1537.04 Q1121.74 1536.76 1120.34 1536.76 Q1115.37 1536.76 1112.7 1540 Q1110.06 1543.22 1110.06 1549.27 L1110.06 1568.04 L1104.17 1568.04 L1104.17 1532.4 L1110.06 1532.4 L1110.06 1537.93 Q1111.9 1534.69 1114.86 1533.13 Q1117.82 1531.54 1122.06 1531.54 Q1122.66 1531.54 1123.39 1531.63 Q1124.13 1531.7 1125.02 1531.85 L1125.05 1537.87 Z" fill="#000000" fill-rule="nonzero" fill-opacity="1"></path><path clip-path="url(#clip770)" d="M1158.6 1525.81 L1158.6 1543.66 L1166.68 1543.66 Q1171.17 1543.66 1173.62 1541.34 Q1176.07 1539.02 1176.07 1534.72 Q1176.07 1530.45 1173.62 1528.13 Q1171.17 1525.81 1166.68 1525.81 L1158.6 1525.81 M1152.17 1520.52 L1166.68 1520.52 Q1174.67 1520.52 1178.74 1524.15 Q1182.85 1527.75 1182.85 1534.72 Q1182.85 1541.75 1178.74 1545.35 Q1174.67 1548.95 1166.68 1548.95 L1158.6 1548.95 L1158.6 1568.04 L1152.17 1568.04 L1152.17 1520.52 Z" fill="#000000" fill-rule="nonzero" fill-opacity="1"></path><path clip-path="url(#clip770)" d="M1210.73 1537.87 Q1209.74 1537.3 1208.57 1537.04 Q1207.42 1536.76 1206.02 1536.76 Q1201.06 1536.76 1198.38 1540 Q1195.74 1543.22 1195.74 1549.27 L1195.74 1568.04 L1189.85 1568.04 L1189.85 1532.4 L1195.74 1532.4 L1195.74 1537.93 Q1197.59 1534.69 1200.55 1533.13 Q1203.51 1531.54 1207.74 1531.54 Q1208.34 1531.54 1209.08 1531.63 Q1209.81 1531.7 1210.7 1531.85 L1210.73 1537.87 Z" fill="#000000" fill-rule="nonzero" fill-opacity="1"></path><path clip-path="url(#clip770)" d="M1245.93 1548.76 L1245.93 1551.62 L1219.01 1551.62 Q1219.39 1557.67 1222.64 1560.85 Q1225.91 1564 1231.74 1564 Q1235.11 1564 1238.26 1563.17 Q1241.45 1562.35 1244.57 1560.69 L1244.57 1566.23 Q1241.41 1567.57 1238.1 1568.27 Q1234.79 1568.97 1231.39 1568.97 Q1222.86 1568.97 1217.86 1564 Q1212.9 1559.04 1212.9 1550.57 Q1212.9 1541.82 1217.61 1536.69 Q1222.35 1531.54 1230.37 1531.54 Q1237.56 1531.54 1241.73 1536.18 Q1245.93 1540.8 1245.93 1548.76 M1240.08 1547.04 Q1240.01 1542.23 1237.37 1539.37 Q1234.76 1536.5 1230.43 1536.5 Q1225.53 1536.5 1222.57 1539.27 Q1219.64 1542.04 1219.2 1547.07 L1240.08 1547.04 Z" fill="#000000" fill-rule="nonzero" fill-opacity="1"></path><path clip-path="url(#clip770)" d="M1278.27 1533.45 L1278.27 1538.98 Q1275.79 1537.71 1273.12 1537.07 Q1270.44 1536.44 1267.58 1536.44 Q1263.22 1536.44 1261.02 1537.77 Q1258.86 1539.11 1258.86 1541.79 Q1258.86 1543.82 1260.42 1545 Q1261.98 1546.15 1266.69 1547.2 L1268.69 1547.64 Q1274.93 1548.98 1277.54 1551.43 Q1280.18 1553.85 1280.18 1558.21 Q1280.18 1563.17 1276.23 1566.07 Q1272.32 1568.97 1265.44 1568.97 Q1262.58 1568.97 1259.46 1568.39 Q1256.37 1567.85 1252.94 1566.74 L1252.94 1560.69 Q1256.18 1562.38 1259.33 1563.24 Q1262.48 1564.07 1265.57 1564.07 Q1269.71 1564.07 1271.94 1562.66 Q1274.17 1561.23 1274.17 1558.65 Q1274.17 1556.27 1272.54 1554.99 Q1270.95 1553.72 1265.51 1552.54 L1263.47 1552.07 Q1258.03 1550.92 1255.61 1548.56 Q1253.19 1546.18 1253.19 1542.04 Q1253.19 1537.01 1256.76 1534.27 Q1260.32 1531.54 1266.88 1531.54 Q1270.12 1531.54 1272.99 1532.01 Q1275.85 1532.49 1278.27 1533.45 Z" fill="#000000" fill-rule="nonzero" fill-opacity="1"></path><path clip-path="url(#clip770)" d="M1312.23 1533.45 L1312.23 1538.98 Q1309.75 1537.71 1307.08 1537.07 Q1304.4 1536.44 1301.54 1536.44 Q1297.18 1536.44 1294.98 1537.77 Q1292.82 1539.11 1292.82 1541.79 Q1292.82 1543.82 1294.38 1545 Q1295.94 1546.15 1300.65 1547.2 L1302.65 1547.64 Q1308.89 1548.98 1311.5 1551.43 Q1314.14 1553.85 1314.14 1558.21 Q1314.14 1563.17 1310.2 1566.07 Q1306.28 1568.97 1299.41 1568.97 Q1296.54 1568.97 1293.42 1568.39 Q1290.33 1567.85 1286.9 1566.74 L1286.9 1560.69 Q1290.14 1562.38 1293.29 1563.24 Q1296.45 1564.07 1299.53 1564.07 Q1303.67 1564.07 1305.9 1562.66 Q1308.13 1561.23 1308.13 1558.65 Q1308.13 1556.27 1306.5 1554.99 Q1304.91 1553.72 1299.47 1552.54 L1297.43 1552.07 Q1291.99 1550.92 1289.57 1548.56 Q1287.15 1546.18 1287.15 1542.04 Q1287.15 1537.01 1290.72 1534.27 Q1294.28 1531.54 1300.84 1531.54 Q1304.08 1531.54 1306.95 1532.01 Q1309.81 1532.49 1312.23 1533.45 Z" fill="#000000" fill-rule="nonzero" fill-opacity="1"></path><path clip-path="url(#clip770)" d="M1322.86 1553.98 L1322.86 1532.4 L1328.72 1532.4 L1328.72 1553.75 Q1328.72 1558.81 1330.69 1561.36 Q1332.67 1563.87 1336.61 1563.87 Q1341.36 1563.87 1344.09 1560.85 Q1346.86 1557.83 1346.86 1552.61 L1346.86 1532.4 L1352.72 1532.4 L1352.72 1568.04 L1346.86 1568.04 L1346.86 1562.57 Q1344.73 1565.82 1341.9 1567.41 Q1339.1 1568.97 1335.37 1568.97 Q1329.23 1568.97 1326.05 1565.15 Q1322.86 1561.33 1322.86 1553.98 M1337.6 1531.54 L1337.6 1531.54 Z" fill="#000000" fill-rule="nonzero" fill-opacity="1"></path><path clip-path="url(#clip770)" d="M1385.44 1537.87 Q1384.45 1537.3 1383.27 1537.04 Q1382.13 1536.76 1380.73 1536.76 Q1375.76 1536.76 1373.09 1540 Q1370.45 1543.22 1370.45 1549.27 L1370.45 1568.04 L1364.56 1568.04 L1364.56 1532.4 L1370.45 1532.4 L1370.45 1537.93 Q1372.29 1534.69 1375.25 1533.13 Q1378.21 1531.54 1382.45 1531.54 Q1383.05 1531.54 1383.78 1531.63 Q1384.52 1531.7 1385.41 1531.85 L1385.44 1537.87 Z" fill="#000000" fill-rule="nonzero" fill-opacity="1"></path><path clip-path="url(#clip770)" d="M1420.64 1548.76 L1420.64 1551.62 L1393.71 1551.62 Q1394.1 1557.67 1397.34 1560.85 Q1400.62 1564 1406.44 1564 Q1409.82 1564 1412.97 1563.17 Q1416.15 1562.35 1419.27 1560.69 L1419.27 1566.23 Q1416.12 1567.57 1412.81 1568.27 Q1409.5 1568.97 1406.09 1568.97 Q1397.56 1568.97 1392.57 1564 Q1387.6 1559.04 1387.6 1550.57 Q1387.6 1541.82 1392.31 1536.69 Q1397.06 1531.54 1405.08 1531.54 Q1412.27 1531.54 1416.44 1536.18 Q1420.64 1540.8 1420.64 1548.76 M1414.78 1547.04 Q1414.72 1542.23 1412.08 1539.37 Q1409.47 1536.5 1405.14 1536.5 Q1400.24 1536.5 1397.28 1539.27 Q1394.35 1542.04 1393.9 1547.07 L1414.78 1547.04 Z" fill="#000000" fill-rule="nonzero" fill-opacity="1"></path><path clip-path="url(#clip770)" d="M1450.43 1518.52 L1463.93 1518.52 L1463.93 1523.07 L1456.29 1523.07 L1456.29 1572.09 L1463.93 1572.09 L1463.93 1576.64 L1450.43 1576.64 L1450.43 1518.52 Z" fill="#000000" fill-rule="nonzero" fill-opacity="1"></path><path clip-path="url(#clip770)" d="M1476.18 1518.52 L1482.07 1518.52 L1482.07 1547.77 L1499.54 1532.4 L1507.02 1532.4 L1488.12 1549.07 L1507.82 1568.04 L1500.18 1568.04 L1482.07 1550.63 L1482.07 1568.04 L1476.18 1568.04 L1476.18 1518.52 Z" fill="#000000" fill-rule="nonzero" fill-opacity="1"></path><path clip-path="url(#clip770)" d="M1520.84 1525.81 L1520.84 1543.66 L1528.92 1543.66 Q1533.41 1543.66 1535.86 1541.34 Q1538.31 1539.02 1538.31 1534.72 Q1538.31 1530.45 1535.86 1528.13 Q1533.41 1525.81 1528.92 1525.81 L1520.84 1525.81 M1514.41 1520.52 L1528.92 1520.52 Q1536.91 1520.52 1540.98 1524.15 Q1545.09 1527.75 1545.09 1534.72 Q1545.09 1541.75 1540.98 1545.35 Q1536.91 1548.95 1528.92 1548.95 L1520.84 1548.95 L1520.84 1568.04 L1514.41 1568.04 L1514.41 1520.52 Z" fill="#000000" fill-rule="nonzero" fill-opacity="1"></path><path clip-path="url(#clip770)" d="M1566.73 1550.12 Q1559.64 1550.12 1556.9 1551.75 Q1554.16 1553.37 1554.16 1557.29 Q1554.16 1560.4 1556.2 1562.25 Q1558.27 1564.07 1561.8 1564.07 Q1566.67 1564.07 1569.6 1560.63 Q1572.56 1557.16 1572.56 1551.43 L1572.56 1550.12 L1566.73 1550.12 M1578.41 1547.71 L1578.41 1568.04 L1572.56 1568.04 L1572.56 1562.63 Q1570.55 1565.88 1567.56 1567.44 Q1564.57 1568.97 1560.24 1568.97 Q1554.77 1568.97 1551.52 1565.91 Q1548.3 1562.82 1548.3 1557.67 Q1548.3 1551.65 1552.32 1548.6 Q1556.36 1545.54 1564.35 1545.54 L1572.56 1545.54 L1572.56 1544.97 Q1572.56 1540.93 1569.88 1538.73 Q1567.24 1536.5 1562.44 1536.5 Q1559.38 1536.5 1556.48 1537.23 Q1553.59 1537.97 1550.91 1539.43 L1550.91 1534.02 Q1554.13 1532.78 1557.15 1532.17 Q1560.18 1531.54 1563.04 1531.54 Q1570.78 1531.54 1574.6 1535.55 Q1578.41 1539.56 1578.41 1547.71 Z" fill="#000000" fill-rule="nonzero" fill-opacity="1"></path><path clip-path="url(#clip770)" d="M1604.16 1518.52 L1604.16 1576.64 L1590.67 1576.64 L1590.67 1572.09 L1598.28 1572.09 L1598.28 1523.07 L1590.67 1523.07 L1590.67 1518.52 L1604.16 1518.52 Z" fill="#000000" fill-rule="nonzero" fill-opacity="1"></path><polyline clip-path="url(#clip772)" style="stroke:#000000; stroke-linecap:round; stroke-linejoin:round; stroke-width:2; stroke-opacity:0.1; fill:none" points="205.028,1295.77 2352.76,1295.77 "></polyline>
<polyline clip-path="url(#clip772)" style="stroke:#000000; stroke-linecap:round; stroke-linejoin:round; stroke-width:2; stroke-opacity:0.1; fill:none" points="205.028,1035.2 2352.76,1035.2 "></polyline>
<polyline clip-path="url(#clip772)" style="stroke:#000000; stroke-linecap:round; stroke-linejoin:round; stroke-width:2; stroke-opacity:0.1; fill:none" points="205.028,774.64 2352.76,774.64 "></polyline>
<polyline clip-path="url(#clip772)" style="stroke:#000000; stroke-linecap:round; stroke-linejoin:round; stroke-width:2; stroke-opacity:0.1; fill:none" points="205.028,514.076 2352.76,514.076 "></polyline>
<polyline clip-path="url(#clip772)" style="stroke:#000000; stroke-linecap:round; stroke-linejoin:round; stroke-width:2; stroke-opacity:0.1; fill:none" points="205.028,253.513 2352.76,253.513 "></polyline>
<polyline clip-path="url(#clip770)" style="stroke:#000000; stroke-linecap:round; stroke-linejoin:round; stroke-width:4; stroke-opacity:1; fill:none" points="205.028,1423.18 205.028,47.2441 "></polyline>
<polyline clip-path="url(#clip770)" style="stroke:#000000; stroke-linecap:round; stroke-linejoin:round; stroke-width:4; stroke-opacity:1; fill:none" points="205.028,1295.77 223.926,1295.77 "></polyline>
<polyline clip-path="url(#clip770)" style="stroke:#000000; stroke-linecap:round; stroke-linejoin:round; stroke-width:4; stroke-opacity:1; fill:none" points="205.028,1035.2 223.926,1035.2 "></polyline>
<polyline clip-path="url(#clip770)" style="stroke:#000000; stroke-linecap:round; stroke-linejoin:round; stroke-width:4; stroke-opacity:1; fill:none" points="205.028,774.64 223.926,774.64 "></polyline>
<polyline clip-path="url(#clip770)" style="stroke:#000000; stroke-linecap:round; stroke-linejoin:round; stroke-width:4; stroke-opacity:1; fill:none" points="205.028,514.076 223.926,514.076 "></polyline>
<polyline clip-path="url(#clip770)" style="stroke:#000000; stroke-linecap:round; stroke-linejoin:round; stroke-width:4; stroke-opacity:1; fill:none" points="205.028,253.513 223.926,253.513 "></polyline>
<path clip-path="url(#clip770)" d="M130.765 1282.56 L118.959 1301.01 L130.765 1301.01 L130.765 1282.56 M129.538 1278.49 L135.417 1278.49 L135.417 1301.01 L140.348 1301.01 L140.348 1304.9 L135.417 1304.9 L135.417 1313.05 L130.765 1313.05 L130.765 1304.9 L115.163 1304.9 L115.163 1300.39 L129.538 1278.49 Z" fill="#000000" fill-rule="nonzero" fill-opacity="1"></path><path clip-path="url(#clip770)" d="M148.126 1278.49 L166.482 1278.49 L166.482 1282.42 L152.408 1282.42 L152.408 1290.89 Q153.427 1290.55 154.445 1290.39 Q155.464 1290.2 156.482 1290.2 Q162.269 1290.2 165.649 1293.37 Q169.028 1296.54 169.028 1301.96 Q169.028 1307.54 165.556 1310.64 Q162.084 1313.72 155.765 1313.72 Q153.589 1313.72 151.32 1313.35 Q149.075 1312.98 146.667 1312.24 L146.667 1307.54 Q148.751 1308.67 150.973 1309.23 Q153.195 1309.78 155.672 1309.78 Q159.677 1309.78 162.015 1307.68 Q164.352 1305.57 164.352 1301.96 Q164.352 1298.35 162.015 1296.24 Q159.677 1294.14 155.672 1294.14 Q153.797 1294.14 151.922 1294.55 Q150.07 1294.97 148.126 1295.85 L148.126 1278.49 Z" fill="#000000" fill-rule="nonzero" fill-opacity="1"></path><path clip-path="url(#clip770)" d="M129.862 1022 L118.056 1040.45 L129.862 1040.45 L129.862 1022 M128.635 1017.92 L134.515 1017.92 L134.515 1040.45 L139.445 1040.45 L139.445 1044.34 L134.515 1044.34 L134.515 1052.48 L129.862 1052.48 L129.862 1044.34 L114.26 1044.34 L114.26 1039.82 L128.635 1017.92 Z" fill="#000000" fill-rule="nonzero" fill-opacity="1"></path><path clip-path="url(#clip770)" d="M157.177 1036.07 Q153.843 1036.07 151.922 1037.85 Q150.024 1039.64 150.024 1042.76 Q150.024 1045.89 151.922 1047.67 Q153.843 1049.45 157.177 1049.45 Q160.51 1049.45 162.431 1047.67 Q164.352 1045.86 164.352 1042.76 Q164.352 1039.64 162.431 1037.85 Q160.533 1036.07 157.177 1036.07 M152.501 1034.08 Q149.491 1033.34 147.802 1031.28 Q146.135 1029.22 146.135 1026.26 Q146.135 1022.11 149.075 1019.71 Q152.038 1017.3 157.177 1017.3 Q162.339 1017.3 165.278 1019.71 Q168.218 1022.11 168.218 1026.26 Q168.218 1029.22 166.528 1031.28 Q164.862 1033.34 161.876 1034.08 Q165.255 1034.87 167.13 1037.16 Q169.028 1039.45 169.028 1042.76 Q169.028 1047.78 165.95 1050.47 Q162.894 1053.16 157.177 1053.16 Q151.459 1053.16 148.38 1050.47 Q145.325 1047.78 145.325 1042.76 Q145.325 1039.45 147.223 1037.16 Q149.121 1034.87 152.501 1034.08 M150.788 1026.7 Q150.788 1029.38 152.454 1030.89 Q154.144 1032.39 157.177 1032.39 Q160.186 1032.39 161.876 1030.89 Q163.589 1029.38 163.589 1026.7 Q163.589 1024.01 161.876 1022.51 Q160.186 1021 157.177 1021 Q154.144 1021 152.454 1022.51 Q150.788 1024.01 150.788 1026.7 Z" fill="#000000" fill-rule="nonzero" fill-opacity="1"></path><path clip-path="url(#clip770)" d="M118.195 757.36 L136.552 757.36 L136.552 761.295 L122.478 761.295 L122.478 769.767 Q123.496 769.42 124.515 769.258 Q125.533 769.073 126.552 769.073 Q132.339 769.073 135.718 772.244 Q139.098 775.416 139.098 780.832 Q139.098 786.411 135.626 789.513 Q132.154 792.591 125.834 792.591 Q123.658 792.591 121.39 792.221 Q119.144 791.851 116.737 791.11 L116.737 786.411 Q118.82 787.545 121.043 788.101 Q123.265 788.656 125.742 788.656 Q129.746 788.656 132.084 786.55 Q134.422 784.443 134.422 780.832 Q134.422 777.221 132.084 775.115 Q129.746 773.008 125.742 773.008 Q123.867 773.008 121.992 773.425 Q120.14 773.842 118.195 774.721 L118.195 757.36 Z" fill="#000000" fill-rule="nonzero" fill-opacity="1"></path><path clip-path="url(#clip770)" d="M149.121 787.985 L156.76 787.985 L156.76 761.619 L148.45 763.286 L148.45 759.027 L156.714 757.36 L161.39 757.36 L161.39 787.985 L169.028 787.985 L169.028 791.92 L149.121 791.92 L149.121 787.985 Z" fill="#000000" fill-rule="nonzero" fill-opacity="1"></path><path clip-path="url(#clip770)" d="M116.482 496.796 L134.839 496.796 L134.839 500.732 L120.765 500.732 L120.765 509.204 Q121.783 508.857 122.802 508.695 Q123.82 508.509 124.839 508.509 Q130.626 508.509 134.005 511.681 Q137.385 514.852 137.385 520.269 Q137.385 525.847 133.913 528.949 Q130.441 532.028 124.121 532.028 Q121.945 532.028 119.677 531.657 Q117.431 531.287 115.024 530.546 L115.024 525.847 Q117.107 526.981 119.33 527.537 Q121.552 528.093 124.029 528.093 Q128.033 528.093 130.371 525.986 Q132.709 523.88 132.709 520.269 Q132.709 516.657 130.371 514.551 Q128.033 512.444 124.029 512.444 Q122.154 512.444 120.279 512.861 Q118.427 513.278 116.482 514.157 L116.482 496.796 Z" fill="#000000" fill-rule="nonzero" fill-opacity="1"></path><path clip-path="url(#clip770)" d="M159.445 500.87 L147.64 519.319 L159.445 519.319 L159.445 500.87 M158.218 496.796 L164.098 496.796 L164.098 519.319 L169.028 519.319 L169.028 523.208 L164.098 523.208 L164.098 531.356 L159.445 531.356 L159.445 523.208 L143.843 523.208 L143.843 518.694 L158.218 496.796 Z" fill="#000000" fill-rule="nonzero" fill-opacity="1"></path><path clip-path="url(#clip770)" d="M117.871 236.233 L136.228 236.233 L136.228 240.168 L122.154 240.168 L122.154 248.64 Q123.172 248.293 124.191 248.131 Q125.209 247.946 126.228 247.946 Q132.015 247.946 135.394 251.117 Q138.774 254.288 138.774 259.705 Q138.774 265.284 135.302 268.385 Q131.83 271.464 125.51 271.464 Q123.334 271.464 121.066 271.094 Q118.82 270.723 116.413 269.983 L116.413 265.284 Q118.496 266.418 120.718 266.973 Q122.941 267.529 125.418 267.529 Q129.422 267.529 131.76 265.422 Q134.098 263.316 134.098 259.705 Q134.098 256.094 131.76 253.987 Q129.422 251.881 125.418 251.881 Q123.543 251.881 121.668 252.297 Q119.816 252.714 117.871 253.594 L117.871 236.233 Z" fill="#000000" fill-rule="nonzero" fill-opacity="1"></path><path clip-path="url(#clip770)" d="M146.806 236.233 L169.028 236.233 L169.028 238.223 L156.482 270.793 L151.598 270.793 L163.403 240.168 L146.806 240.168 L146.806 236.233 Z" fill="#000000" fill-rule="nonzero" fill-opacity="1"></path><path clip-path="url(#clip770)" d="M16.4842 1105.76 L16.4842 1075.71 L21.895 1075.71 L21.895 1099.33 L35.9632 1099.33 L35.9632 1076.7 L41.3741 1076.7 L41.3741 1099.33 L58.5933 1099.33 L58.5933 1075.14 L64.0042 1075.14 L64.0042 1105.76 L16.4842 1105.76 Z" fill="#000000" fill-rule="nonzero" fill-opacity="1"></path><path clip-path="url(#clip770)" d="M28.3562 1035.2 L45.7028 1048.09 L64.0042 1034.53 L64.0042 1041.43 L49.9996 1051.81 L64.0042 1062.19 L64.0042 1069.09 L45.3526 1055.25 L28.3562 1067.92 L28.3562 1061.01 L41.0558 1051.56 L28.3562 1042.1 L28.3562 1035.2 Z" fill="#000000" fill-rule="nonzero" fill-opacity="1"></path><path clip-path="url(#clip770)" d="M44.7161 997.766 L47.5806 997.766 L47.5806 1024.69 Q53.6281 1024.31 56.8109 1021.06 Q59.9619 1017.79 59.9619 1011.96 Q59.9619 1008.59 59.1344 1005.44 Q58.3069 1002.25 56.6518 999.134 L62.1899 999.134 Q63.5267 1002.29 64.227 1005.6 Q64.9272 1008.91 64.9272 1012.31 Q64.9272 1020.84 59.9619 1025.84 Q54.9967 1030.8 46.5303 1030.8 Q37.7774 1030.8 32.6531 1026.09 Q27.4968 1021.35 27.4968 1013.33 Q27.4968 1006.14 32.1438 1001.97 Q36.7589 997.766 44.7161 997.766 M42.9973 1003.62 Q38.1912 1003.69 35.3266 1006.33 Q32.4621 1008.94 32.4621 1013.27 Q32.4621 1018.17 35.2312 1021.13 Q38.0002 1024.06 43.0292 1024.5 L42.9973 1003.62 Z" fill="#000000" fill-rule="nonzero" fill-opacity="1"></path><path clip-path="url(#clip770)" d="M33.8307 967.497 Q33.2578 968.483 33.0032 969.661 Q32.7167 970.807 32.7167 972.207 Q32.7167 977.172 35.9632 979.846 Q39.1779 982.488 45.2253 982.488 L64.0042 982.488 L64.0042 988.376 L28.3562 988.376 L28.3562 982.488 L33.8944 982.488 Q30.6479 980.642 29.0883 977.682 Q27.4968 974.722 27.4968 970.488 Q27.4968 969.884 27.5923 969.152 Q27.656 968.42 27.8151 967.528 L33.8307 967.497 Z" fill="#000000" fill-rule="nonzero" fill-opacity="1"></path><path clip-path="url(#clip770)" d="M45.7664 939.042 Q39.4007 939.042 35.8996 941.684 Q32.3984 944.294 32.3984 949.036 Q32.3984 953.747 35.8996 956.388 Q39.4007 958.998 45.7664 958.998 Q52.1003 958.998 55.6014 956.388 Q59.1026 953.747 59.1026 949.036 Q59.1026 944.294 55.6014 941.684 Q52.1003 939.042 45.7664 939.042 M59.58 933.185 Q68.683 933.185 73.1071 937.228 Q77.5631 941.27 77.5631 949.609 Q77.5631 952.696 77.0857 955.434 Q76.6401 958.171 75.6852 960.749 L69.9879 960.749 Q71.3884 958.171 72.0568 955.656 Q72.7252 953.142 72.7252 950.532 Q72.7252 944.771 69.7015 941.906 Q66.7096 939.042 60.6303 939.042 L57.7339 939.042 Q60.885 940.856 62.4446 943.689 Q64.0042 946.522 64.0042 950.468 Q64.0042 957.025 59.0071 961.035 Q54.01 965.046 45.7664 965.046 Q37.491 965.046 32.4939 961.035 Q27.4968 957.025 27.4968 950.468 Q27.4968 946.522 29.0564 943.689 Q30.616 940.856 33.7671 939.042 L28.3562 939.042 L28.3562 933.185 L59.58 933.185 Z" fill="#000000" fill-rule="nonzero" fill-opacity="1"></path><path clip-path="url(#clip770)" d="M67.3143 906.29 Q73.68 908.773 75.6216 911.128 Q77.5631 913.484 77.5631 917.43 L77.5631 922.109 L72.6615 922.109 L72.6615 918.672 Q72.6615 916.253 71.5157 914.916 Q70.3699 913.579 66.1048 911.956 L63.4312 910.905 L28.3562 925.324 L28.3562 919.117 L56.238 907.977 L28.3562 896.837 L28.3562 890.631 L67.3143 906.29 Z" fill="#000000" fill-rule="nonzero" fill-opacity="1"></path><path clip-path="url(#clip770)" d="M21.7677 855.142 L58.7206 855.142 L58.7206 847.376 Q58.7206 837.541 54.2646 832.989 Q49.8086 828.406 40.1964 828.406 Q30.6479 828.406 26.2237 832.989 Q21.7677 837.541 21.7677 847.376 L21.7677 855.142 M16.4842 861.571 L16.4842 848.362 Q16.4842 834.549 22.2451 828.088 Q27.9743 821.626 40.1964 821.626 Q52.4822 821.626 58.2432 828.119 Q64.0042 834.612 64.0042 848.362 L64.0042 861.571 L16.4842 861.571 Z" fill="#000000" fill-rule="nonzero" fill-opacity="1"></path><path clip-path="url(#clip770)" d="M44.7161 781.141 L47.5806 781.141 L47.5806 808.067 Q53.6281 807.686 56.8109 804.439 Q59.9619 801.161 59.9619 795.336 Q59.9619 791.962 59.1344 788.811 Q58.3069 785.628 56.6518 782.509 L62.1899 782.509 Q63.5267 785.66 64.227 788.97 Q64.9272 792.281 64.9272 795.686 Q64.9272 804.216 59.9619 809.213 Q54.9967 814.179 46.5303 814.179 Q37.7774 814.179 32.6531 809.468 Q27.4968 804.725 27.4968 796.705 Q27.4968 789.511 32.1438 785.342 Q36.7589 781.141 44.7161 781.141 M42.9973 786.997 Q38.1912 787.061 35.3266 789.702 Q32.4621 792.312 32.4621 796.641 Q32.4621 801.543 35.2312 804.503 Q38.0002 807.431 43.0292 807.877 L42.9973 786.997 Z" fill="#000000" fill-rule="nonzero" fill-opacity="1"></path><path clip-path="url(#clip770)" d="M29.4065 748.803 L34.9447 748.803 Q33.6716 751.285 33.035 753.959 Q32.3984 756.633 32.3984 759.497 Q32.3984 763.858 33.7352 766.054 Q35.072 768.218 37.7456 768.218 Q39.7826 768.218 40.9603 766.659 Q42.1061 765.099 43.1565 760.388 L43.6021 758.383 Q44.9389 752.145 47.3897 749.535 Q49.8086 746.893 54.1691 746.893 Q59.1344 746.893 62.0308 750.84 Q64.9272 754.755 64.9272 761.63 Q64.9272 764.494 64.3543 767.613 Q63.8132 770.701 62.6992 774.138 L56.6518 774.138 Q58.3387 770.892 59.198 767.741 Q60.0256 764.59 60.0256 761.502 Q60.0256 757.365 58.6251 755.137 Q57.1929 752.909 54.6147 752.909 Q52.2276 752.909 50.9545 754.532 Q49.6813 756.123 48.5037 761.566 L48.0262 763.603 Q46.8804 769.046 44.5251 771.465 Q42.138 773.884 38.0002 773.884 Q32.9713 773.884 30.2341 770.319 Q27.4968 766.754 27.4968 760.197 Q27.4968 756.951 27.9743 754.086 Q28.4517 751.222 29.4065 748.803 Z" fill="#000000" fill-rule="nonzero" fill-opacity="1"></path><path clip-path="url(#clip770)" d="M18.2347 731.774 L28.3562 731.774 L28.3562 719.711 L32.9077 719.711 L32.9077 731.774 L52.2594 731.774 Q56.6199 731.774 57.8613 730.597 Q59.1026 729.387 59.1026 725.727 L59.1026 719.711 L64.0042 719.711 L64.0042 725.727 Q64.0042 732.507 61.4897 735.085 Q58.9434 737.663 52.2594 737.663 L32.9077 737.663 L32.9077 741.96 L28.3562 741.96 L28.3562 737.663 L18.2347 737.663 L18.2347 731.774 Z" fill="#000000" fill-rule="nonzero" fill-opacity="1"></path><path clip-path="url(#clip770)" d="M33.8307 691.352 Q33.2578 692.339 33.0032 693.517 Q32.7167 694.662 32.7167 696.063 Q32.7167 701.028 35.9632 703.702 Q39.1779 706.343 45.2253 706.343 L64.0042 706.343 L64.0042 712.232 L28.3562 712.232 L28.3562 706.343 L33.8944 706.343 Q30.6479 704.497 29.0883 701.537 Q27.4968 698.577 27.4968 694.344 Q27.4968 693.739 27.5923 693.007 Q27.656 692.275 27.8151 691.384 L33.8307 691.352 Z" fill="#000000" fill-rule="nonzero" fill-opacity="1"></path><path clip-path="url(#clip770)" d="M32.4621 672.828 Q32.4621 677.539 36.1542 680.276 Q39.8145 683.013 46.212 683.013 Q52.6095 683.013 56.3017 680.308 Q59.9619 677.57 59.9619 672.828 Q59.9619 668.149 56.2698 665.412 Q52.5777 662.675 46.212 662.675 Q39.8781 662.675 36.186 665.412 Q32.4621 668.149 32.4621 672.828 M27.4968 672.828 Q27.4968 665.189 32.4621 660.829 Q37.4273 656.468 46.212 656.468 Q54.9649 656.468 59.9619 660.829 Q64.9272 665.189 64.9272 672.828 Q64.9272 680.499 59.9619 684.859 Q54.9649 689.188 46.212 689.188 Q37.4273 689.188 32.4621 684.859 Q27.4968 680.499 27.4968 672.828 Z" fill="#000000" fill-rule="nonzero" fill-opacity="1"></path><path clip-path="url(#clip770)" d="M67.3143 631.928 Q73.68 634.411 75.6216 636.766 Q77.5631 639.122 77.5631 643.068 L77.5631 647.747 L72.6615 647.747 L72.6615 644.31 Q72.6615 641.891 71.5157 640.554 Q70.3699 639.217 66.1048 637.594 L63.4312 636.544 L28.3562 650.962 L28.3562 644.755 L56.238 633.615 L28.3562 622.475 L28.3562 616.269 L67.3143 631.928 Z" fill="#000000" fill-rule="nonzero" fill-opacity="1"></path><path clip-path="url(#clip770)" d="M44.7161 577.693 L47.5806 577.693 L47.5806 604.619 Q53.6281 604.238 56.8109 600.991 Q59.9619 597.713 59.9619 591.888 Q59.9619 588.514 59.1344 585.363 Q58.3069 582.18 56.6518 579.061 L62.1899 579.061 Q63.5267 582.212 64.227 585.522 Q64.9272 588.833 64.9272 592.238 Q64.9272 600.768 59.9619 605.765 Q54.9967 610.731 46.5303 610.731 Q37.7774 610.731 32.6531 606.02 Q27.4968 601.278 27.4968 593.257 Q27.4968 586.063 32.1438 581.894 Q36.7589 577.693 44.7161 577.693 M42.9973 583.549 Q38.1912 583.613 35.3266 586.254 Q32.4621 588.864 32.4621 593.193 Q32.4621 598.095 35.2312 601.055 Q38.0002 603.983 43.0292 604.429 L42.9973 583.549 Z" fill="#000000" fill-rule="nonzero" fill-opacity="1"></path><path clip-path="url(#clip770)" d="M33.7671 544.623 L14.479 544.623 L14.479 538.766 L64.0042 538.766 L64.0042 544.623 L58.657 544.623 Q61.8398 546.469 63.3994 549.302 Q64.9272 552.102 64.9272 556.049 Q64.9272 562.51 59.771 566.584 Q54.6147 570.627 46.212 570.627 Q37.8093 570.627 32.6531 566.584 Q27.4968 562.51 27.4968 556.049 Q27.4968 552.102 29.0564 549.302 Q30.5842 546.469 33.7671 544.623 M46.212 564.579 Q52.6732 564.579 56.3653 561.937 Q60.0256 559.264 60.0256 554.617 Q60.0256 549.97 56.3653 547.296 Q52.6732 544.623 46.212 544.623 Q39.7508 544.623 36.0905 547.296 Q32.3984 549.97 32.3984 554.617 Q32.3984 559.264 36.0905 561.937 Q39.7508 564.579 46.212 564.579 Z" fill="#000000" fill-rule="nonzero" fill-opacity="1"></path><path clip-path="url(#clip770)" d="M14.479 506.524 L14.479 493.029 L19.0304 493.029 L19.0304 500.668 L68.0464 500.668 L68.0464 493.029 L72.5979 493.029 L72.5979 506.524 L14.479 506.524 Z" fill="#000000" fill-rule="nonzero" fill-opacity="1"></path><path clip-path="url(#clip770)" d="M14.479 480.775 L14.479 474.886 L43.7294 474.886 L28.3562 457.413 L28.3562 449.933 L45.0344 468.839 L64.0042 449.137 L64.0042 456.776 L46.5939 474.886 L64.0042 474.886 L64.0042 480.775 L14.479 480.775 Z" fill="#000000" fill-rule="nonzero" fill-opacity="1"></path><path clip-path="url(#clip770)" d="M16.4842 446.782 L16.4842 440.289 L56.6518 430.295 L16.4842 420.332 L16.4842 413.107 L56.6518 403.113 L16.4842 393.151 L16.4842 386.626 L64.0042 398.562 L64.0042 406.646 L22.7544 416.672 L64.0042 426.793 L64.0042 434.878 L16.4842 446.782 Z" fill="#000000" fill-rule="nonzero" fill-opacity="1"></path><path clip-path="url(#clip770)" d="M14.479 364.664 L72.5979 364.664 L72.5979 378.159 L68.0464 378.159 L68.0464 370.552 L19.0304 370.552 L19.0304 378.159 L14.479 378.159 L14.479 364.664 Z" fill="#000000" fill-rule="nonzero" fill-opacity="1"></path><circle clip-path="url(#clip772)" cx="265.813" cy="571.367" r="14.4" fill="#009af9" fill-rule="evenodd" fill-opacity="1" stroke="#000000" stroke-opacity="1" stroke-width="3.2"></circle>
<circle clip-path="url(#clip772)" cx="285.11" cy="713.805" r="14.4" fill="#009af9" fill-rule="evenodd" fill-opacity="1" stroke="#000000" stroke-opacity="1" stroke-width="3.2"></circle>
<circle clip-path="url(#clip772)" cx="304.407" cy="721.591" r="14.4" fill="#009af9" fill-rule="evenodd" fill-opacity="1" stroke="#000000" stroke-opacity="1" stroke-width="3.2"></circle>
<circle clip-path="url(#clip772)" cx="323.703" cy="848.399" r="14.4" fill="#009af9" fill-rule="evenodd" fill-opacity="1" stroke="#000000" stroke-opacity="1" stroke-width="3.2"></circle>
<circle clip-path="url(#clip772)" cx="343" cy="966.472" r="14.4" fill="#009af9" fill-rule="evenodd" fill-opacity="1" stroke="#000000" stroke-opacity="1" stroke-width="3.2"></circle>
<circle clip-path="url(#clip772)" cx="362.297" cy="1012.49" r="14.4" fill="#009af9" fill-rule="evenodd" fill-opacity="1" stroke="#000000" stroke-opacity="1" stroke-width="3.2"></circle>
<circle clip-path="url(#clip772)" cx="381.594" cy="957.186" r="14.4" fill="#009af9" fill-rule="evenodd" fill-opacity="1" stroke="#000000" stroke-opacity="1" stroke-width="3.2"></circle>
<circle clip-path="url(#clip772)" cx="400.89" cy="991.094" r="14.4" fill="#009af9" fill-rule="evenodd" fill-opacity="1" stroke="#000000" stroke-opacity="1" stroke-width="3.2"></circle>
<circle clip-path="url(#clip772)" cx="420.187" cy="991.094" r="14.4" fill="#009af9" fill-rule="evenodd" fill-opacity="1" stroke="#000000" stroke-opacity="1" stroke-width="3.2"></circle>
<circle clip-path="url(#clip772)" cx="439.484" cy="1115.15" r="14.4" fill="#009af9" fill-rule="evenodd" fill-opacity="1" stroke="#000000" stroke-opacity="1" stroke-width="3.2"></circle>
<circle clip-path="url(#clip772)" cx="458.781" cy="1115.15" r="14.4" fill="#009af9" fill-rule="evenodd" fill-opacity="1" stroke="#000000" stroke-opacity="1" stroke-width="3.2"></circle>
<circle clip-path="url(#clip772)" cx="478.077" cy="1066.83" r="14.4" fill="#009af9" fill-rule="evenodd" fill-opacity="1" stroke="#000000" stroke-opacity="1" stroke-width="3.2"></circle>
<circle clip-path="url(#clip772)" cx="497.374" cy="1066.83" r="14.4" fill="#009af9" fill-rule="evenodd" fill-opacity="1" stroke="#000000" stroke-opacity="1" stroke-width="3.2"></circle>
<circle clip-path="url(#clip772)" cx="516.671" cy="1252.17" r="14.4" fill="#009af9" fill-rule="evenodd" fill-opacity="1" stroke="#000000" stroke-opacity="1" stroke-width="3.2"></circle>
<circle clip-path="url(#clip772)" cx="535.968" cy="1252.17" r="14.4" fill="#009af9" fill-rule="evenodd" fill-opacity="1" stroke="#000000" stroke-opacity="1" stroke-width="3.2"></circle>
<circle clip-path="url(#clip772)" cx="555.264" cy="1285.27" r="14.4" fill="#009af9" fill-rule="evenodd" fill-opacity="1" stroke="#000000" stroke-opacity="1" stroke-width="3.2"></circle>
<circle clip-path="url(#clip772)" cx="574.561" cy="1299.76" r="14.4" fill="#009af9" fill-rule="evenodd" fill-opacity="1" stroke="#000000" stroke-opacity="1" stroke-width="3.2"></circle>
<circle clip-path="url(#clip772)" cx="593.858" cy="1299.76" r="14.4" fill="#009af9" fill-rule="evenodd" fill-opacity="1" stroke="#000000" stroke-opacity="1" stroke-width="3.2"></circle>
<circle clip-path="url(#clip772)" cx="613.155" cy="1227.91" r="14.4" fill="#009af9" fill-rule="evenodd" fill-opacity="1" stroke="#000000" stroke-opacity="1" stroke-width="3.2"></circle>
<circle clip-path="url(#clip772)" cx="632.451" cy="1239.46" r="14.4" fill="#009af9" fill-rule="evenodd" fill-opacity="1" stroke="#000000" stroke-opacity="1" stroke-width="3.2"></circle>
<circle clip-path="url(#clip772)" cx="651.748" cy="1250.54" r="14.4" fill="#009af9" fill-rule="evenodd" fill-opacity="1" stroke="#000000" stroke-opacity="1" stroke-width="3.2"></circle>
<circle clip-path="url(#clip772)" cx="671.045" cy="1250.54" r="14.4" fill="#009af9" fill-rule="evenodd" fill-opacity="1" stroke="#000000" stroke-opacity="1" stroke-width="3.2"></circle>
<circle clip-path="url(#clip772)" cx="690.341" cy="1337.42" r="14.4" fill="#009af9" fill-rule="evenodd" fill-opacity="1" stroke="#000000" stroke-opacity="1" stroke-width="3.2"></circle>
<circle clip-path="url(#clip772)" cx="709.638" cy="1346.57" r="14.4" fill="#009af9" fill-rule="evenodd" fill-opacity="1" stroke="#000000" stroke-opacity="1" stroke-width="3.2"></circle>
<circle clip-path="url(#clip772)" cx="728.935" cy="1354.97" r="14.4" fill="#009af9" fill-rule="evenodd" fill-opacity="1" stroke="#000000" stroke-opacity="1" stroke-width="3.2"></circle>
<circle clip-path="url(#clip772)" cx="748.232" cy="1354.97" r="14.4" fill="#009af9" fill-rule="evenodd" fill-opacity="1" stroke="#000000" stroke-opacity="1" stroke-width="3.2"></circle>
<circle clip-path="url(#clip772)" cx="767.528" cy="1370.59" r="14.4" fill="#009af9" fill-rule="evenodd" fill-opacity="1" stroke="#000000" stroke-opacity="1" stroke-width="3.2"></circle>
<circle clip-path="url(#clip772)" cx="786.825" cy="1377.36" r="14.4" fill="#009af9" fill-rule="evenodd" fill-opacity="1" stroke="#000000" stroke-opacity="1" stroke-width="3.2"></circle>
<circle clip-path="url(#clip772)" cx="806.122" cy="1383.94" r="14.4" fill="#009af9" fill-rule="evenodd" fill-opacity="1" stroke="#000000" stroke-opacity="1" stroke-width="3.2"></circle>
<circle clip-path="url(#clip772)" cx="825.419" cy="1383.94" r="14.4" fill="#009af9" fill-rule="evenodd" fill-opacity="1" stroke="#000000" stroke-opacity="1" stroke-width="3.2"></circle>
<circle clip-path="url(#clip772)" cx="844.715" cy="1300.13" r="14.4" fill="#009af9" fill-rule="evenodd" fill-opacity="1" stroke="#000000" stroke-opacity="1" stroke-width="3.2"></circle>
<circle clip-path="url(#clip772)" cx="864.012" cy="1305.53" r="14.4" fill="#009af9" fill-rule="evenodd" fill-opacity="1" stroke="#000000" stroke-opacity="1" stroke-width="3.2"></circle>
<circle clip-path="url(#clip772)" cx="883.309" cy="1310.45" r="14.4" fill="#009af9" fill-rule="evenodd" fill-opacity="1" stroke="#000000" stroke-opacity="1" stroke-width="3.2"></circle>
<circle clip-path="url(#clip772)" cx="902.606" cy="1315" r="14.4" fill="#009af9" fill-rule="evenodd" fill-opacity="1" stroke="#000000" stroke-opacity="1" stroke-width="3.2"></circle>
<circle clip-path="url(#clip772)" cx="921.902" cy="1319.18" r="14.4" fill="#009af9" fill-rule="evenodd" fill-opacity="1" stroke="#000000" stroke-opacity="1" stroke-width="3.2"></circle>
<circle clip-path="url(#clip772)" cx="941.199" cy="1319.18" r="14.4" fill="#009af9" fill-rule="evenodd" fill-opacity="1" stroke="#000000" stroke-opacity="1" stroke-width="3.2"></circle>
<circle clip-path="url(#clip772)" cx="960.496" cy="1326.68" r="14.4" fill="#009af9" fill-rule="evenodd" fill-opacity="1" stroke="#000000" stroke-opacity="1" stroke-width="3.2"></circle>
<circle clip-path="url(#clip772)" cx="979.793" cy="1329.91" r="14.4" fill="#009af9" fill-rule="evenodd" fill-opacity="1" stroke="#000000" stroke-opacity="1" stroke-width="3.2"></circle>
<circle clip-path="url(#clip772)" cx="999.089" cy="1332.69" r="14.4" fill="#009af9" fill-rule="evenodd" fill-opacity="1" stroke="#000000" stroke-opacity="1" stroke-width="3.2"></circle>
<circle clip-path="url(#clip772)" cx="1018.39" cy="1335.4" r="14.4" fill="#009af9" fill-rule="evenodd" fill-opacity="1" stroke="#000000" stroke-opacity="1" stroke-width="3.2"></circle>
<circle clip-path="url(#clip772)" cx="1037.68" cy="1337.62" r="14.4" fill="#009af9" fill-rule="evenodd" fill-opacity="1" stroke="#000000" stroke-opacity="1" stroke-width="3.2"></circle>
<circle clip-path="url(#clip772)" cx="1056.98" cy="1339.6" r="14.4" fill="#009af9" fill-rule="evenodd" fill-opacity="1" stroke="#000000" stroke-opacity="1" stroke-width="3.2"></circle>
<circle clip-path="url(#clip772)" cx="1076.28" cy="1339.6" r="14.4" fill="#009af9" fill-rule="evenodd" fill-opacity="1" stroke="#000000" stroke-opacity="1" stroke-width="3.2"></circle>
<circle clip-path="url(#clip772)" cx="1095.57" cy="1342.64" r="14.4" fill="#009af9" fill-rule="evenodd" fill-opacity="1" stroke="#000000" stroke-opacity="1" stroke-width="3.2"></circle>
<circle clip-path="url(#clip772)" cx="1114.87" cy="1343.73" r="14.4" fill="#009af9" fill-rule="evenodd" fill-opacity="1" stroke="#000000" stroke-opacity="1" stroke-width="3.2"></circle>
<circle clip-path="url(#clip772)" cx="1134.17" cy="1344.53" r="14.4" fill="#009af9" fill-rule="evenodd" fill-opacity="1" stroke="#000000" stroke-opacity="1" stroke-width="3.2"></circle>
<circle clip-path="url(#clip772)" cx="1153.46" cy="1345.05" r="14.4" fill="#009af9" fill-rule="evenodd" fill-opacity="1" stroke="#000000" stroke-opacity="1" stroke-width="3.2"></circle>
<circle clip-path="url(#clip772)" cx="1172.76" cy="1345.3" r="14.4" fill="#009af9" fill-rule="evenodd" fill-opacity="1" stroke="#000000" stroke-opacity="1" stroke-width="3.2"></circle>
<circle clip-path="url(#clip772)" cx="1192.06" cy="1345.26" r="14.4" fill="#009af9" fill-rule="evenodd" fill-opacity="1" stroke="#000000" stroke-opacity="1" stroke-width="3.2"></circle>
<circle clip-path="url(#clip772)" cx="1211.35" cy="1344.94" r="14.4" fill="#009af9" fill-rule="evenodd" fill-opacity="1" stroke="#000000" stroke-opacity="1" stroke-width="3.2"></circle>
<circle clip-path="url(#clip772)" cx="1230.65" cy="1344.94" r="14.4" fill="#009af9" fill-rule="evenodd" fill-opacity="1" stroke="#000000" stroke-opacity="1" stroke-width="3.2"></circle>
<circle clip-path="url(#clip772)" cx="1249.95" cy="1343.44" r="14.4" fill="#009af9" fill-rule="evenodd" fill-opacity="1" stroke="#000000" stroke-opacity="1" stroke-width="3.2"></circle>
<circle clip-path="url(#clip772)" cx="1269.24" cy="1342.29" r="14.4" fill="#009af9" fill-rule="evenodd" fill-opacity="1" stroke="#000000" stroke-opacity="1" stroke-width="3.2"></circle>
<circle clip-path="url(#clip772)" cx="1288.54" cy="1340.83" r="14.4" fill="#009af9" fill-rule="evenodd" fill-opacity="1" stroke="#000000" stroke-opacity="1" stroke-width="3.2"></circle>
<circle clip-path="url(#clip772)" cx="1307.84" cy="1339.15" r="14.4" fill="#009af9" fill-rule="evenodd" fill-opacity="1" stroke="#000000" stroke-opacity="1" stroke-width="3.2"></circle>
<circle clip-path="url(#clip772)" cx="1327.13" cy="1337.06" r="14.4" fill="#009af9" fill-rule="evenodd" fill-opacity="1" stroke="#000000" stroke-opacity="1" stroke-width="3.2"></circle>
<circle clip-path="url(#clip772)" cx="1346.43" cy="1334.72" r="14.4" fill="#009af9" fill-rule="evenodd" fill-opacity="1" stroke="#000000" stroke-opacity="1" stroke-width="3.2"></circle>
<circle clip-path="url(#clip772)" cx="1365.73" cy="1332.22" r="14.4" fill="#009af9" fill-rule="evenodd" fill-opacity="1" stroke="#000000" stroke-opacity="1" stroke-width="3.2"></circle>
<circle clip-path="url(#clip772)" cx="1385.02" cy="1332.22" r="14.4" fill="#009af9" fill-rule="evenodd" fill-opacity="1" stroke="#000000" stroke-opacity="1" stroke-width="3.2"></circle>
<circle clip-path="url(#clip772)" cx="1404.32" cy="1326.15" r="14.4" fill="#009af9" fill-rule="evenodd" fill-opacity="1" stroke="#000000" stroke-opacity="1" stroke-width="3.2"></circle>
<circle clip-path="url(#clip772)" cx="1423.62" cy="1322.4" r="14.4" fill="#009af9" fill-rule="evenodd" fill-opacity="1" stroke="#000000" stroke-opacity="1" stroke-width="3.2"></circle>
<circle clip-path="url(#clip772)" cx="1442.91" cy="1318.73" r="14.4" fill="#009af9" fill-rule="evenodd" fill-opacity="1" stroke="#000000" stroke-opacity="1" stroke-width="3.2"></circle>
<circle clip-path="url(#clip772)" cx="1462.21" cy="1314.62" r="14.4" fill="#009af9" fill-rule="evenodd" fill-opacity="1" stroke="#000000" stroke-opacity="1" stroke-width="3.2"></circle>
<circle clip-path="url(#clip772)" cx="1481.51" cy="1310.08" r="14.4" fill="#009af9" fill-rule="evenodd" fill-opacity="1" stroke="#000000" stroke-opacity="1" stroke-width="3.2"></circle>
<circle clip-path="url(#clip772)" cx="1500.8" cy="1305.18" r="14.4" fill="#009af9" fill-rule="evenodd" fill-opacity="1" stroke="#000000" stroke-opacity="1" stroke-width="3.2"></circle>
<circle clip-path="url(#clip772)" cx="1520.1" cy="1300.09" r="14.4" fill="#009af9" fill-rule="evenodd" fill-opacity="1" stroke="#000000" stroke-opacity="1" stroke-width="3.2"></circle>
<circle clip-path="url(#clip772)" cx="1539.4" cy="1294.48" r="14.4" fill="#009af9" fill-rule="evenodd" fill-opacity="1" stroke="#000000" stroke-opacity="1" stroke-width="3.2"></circle>
<circle clip-path="url(#clip772)" cx="1558.69" cy="1384.24" r="14.4" fill="#009af9" fill-rule="evenodd" fill-opacity="1" stroke="#000000" stroke-opacity="1" stroke-width="3.2"></circle>
<circle clip-path="url(#clip772)" cx="1577.99" cy="1377.89" r="14.4" fill="#009af9" fill-rule="evenodd" fill-opacity="1" stroke="#000000" stroke-opacity="1" stroke-width="3.2"></circle>
<circle clip-path="url(#clip772)" cx="1597.29" cy="1371.48" r="14.4" fill="#009af9" fill-rule="evenodd" fill-opacity="1" stroke="#000000" stroke-opacity="1" stroke-width="3.2"></circle>
<circle clip-path="url(#clip772)" cx="1616.59" cy="1371.48" r="14.4" fill="#009af9" fill-rule="evenodd" fill-opacity="1" stroke="#000000" stroke-opacity="1" stroke-width="3.2"></circle>
<circle clip-path="url(#clip772)" cx="1635.88" cy="1357.16" r="14.4" fill="#009af9" fill-rule="evenodd" fill-opacity="1" stroke="#000000" stroke-opacity="1" stroke-width="3.2"></circle>
<circle clip-path="url(#clip772)" cx="1655.18" cy="1348.65" r="14.4" fill="#009af9" fill-rule="evenodd" fill-opacity="1" stroke="#000000" stroke-opacity="1" stroke-width="3.2"></circle>
<circle clip-path="url(#clip772)" cx="1674.48" cy="1340.92" r="14.4" fill="#009af9" fill-rule="evenodd" fill-opacity="1" stroke="#000000" stroke-opacity="1" stroke-width="3.2"></circle>
<circle clip-path="url(#clip772)" cx="1693.77" cy="1264.55" r="14.4" fill="#009af9" fill-rule="evenodd" fill-opacity="1" stroke="#000000" stroke-opacity="1" stroke-width="3.2"></circle>
<circle clip-path="url(#clip772)" cx="1713.07" cy="1255.32" r="14.4" fill="#009af9" fill-rule="evenodd" fill-opacity="1" stroke="#000000" stroke-opacity="1" stroke-width="3.2"></circle>
<circle clip-path="url(#clip772)" cx="1732.37" cy="1245.66" r="14.4" fill="#009af9" fill-rule="evenodd" fill-opacity="1" stroke="#000000" stroke-opacity="1" stroke-width="3.2"></circle>
<circle clip-path="url(#clip772)" cx="1751.66" cy="1235.33" r="14.4" fill="#009af9" fill-rule="evenodd" fill-opacity="1" stroke="#000000" stroke-opacity="1" stroke-width="3.2"></circle>
<circle clip-path="url(#clip772)" cx="1770.96" cy="1224.96" r="14.4" fill="#009af9" fill-rule="evenodd" fill-opacity="1" stroke="#000000" stroke-opacity="1" stroke-width="3.2"></circle>
<circle clip-path="url(#clip772)" cx="1790.26" cy="1213.12" r="14.4" fill="#009af9" fill-rule="evenodd" fill-opacity="1" stroke="#000000" stroke-opacity="1" stroke-width="3.2"></circle>
<circle clip-path="url(#clip772)" cx="1809.55" cy="1299.34" r="14.4" fill="#009af9" fill-rule="evenodd" fill-opacity="1" stroke="#000000" stroke-opacity="1" stroke-width="3.2"></circle>
<circle clip-path="url(#clip772)" cx="1828.85" cy="1286.63" r="14.4" fill="#009af9" fill-rule="evenodd" fill-opacity="1" stroke="#000000" stroke-opacity="1" stroke-width="3.2"></circle>
<circle clip-path="url(#clip772)" cx="1848.15" cy="1272.87" r="14.4" fill="#009af9" fill-rule="evenodd" fill-opacity="1" stroke="#000000" stroke-opacity="1" stroke-width="3.2"></circle>
<circle clip-path="url(#clip772)" cx="1867.44" cy="1258.3" r="14.4" fill="#009af9" fill-rule="evenodd" fill-opacity="1" stroke="#000000" stroke-opacity="1" stroke-width="3.2"></circle>
<circle clip-path="url(#clip772)" cx="1886.74" cy="1095.82" r="14.4" fill="#009af9" fill-rule="evenodd" fill-opacity="1" stroke="#000000" stroke-opacity="1" stroke-width="3.2"></circle>
<circle clip-path="url(#clip772)" cx="1906.04" cy="1095.82" r="14.4" fill="#009af9" fill-rule="evenodd" fill-opacity="1" stroke="#000000" stroke-opacity="1" stroke-width="3.2"></circle>
<circle clip-path="url(#clip772)" cx="1925.33" cy="1062.7" r="14.4" fill="#009af9" fill-rule="evenodd" fill-opacity="1" stroke="#000000" stroke-opacity="1" stroke-width="3.2"></circle>
<circle clip-path="url(#clip772)" cx="1944.63" cy="1045.47" r="14.4" fill="#009af9" fill-rule="evenodd" fill-opacity="1" stroke="#000000" stroke-opacity="1" stroke-width="3.2"></circle>
<circle clip-path="url(#clip772)" cx="1963.93" cy="1119.93" r="14.4" fill="#009af9" fill-rule="evenodd" fill-opacity="1" stroke="#000000" stroke-opacity="1" stroke-width="3.2"></circle>
<circle clip-path="url(#clip772)" cx="1983.22" cy="1098.93" r="14.4" fill="#009af9" fill-rule="evenodd" fill-opacity="1" stroke="#000000" stroke-opacity="1" stroke-width="3.2"></circle>
<circle clip-path="url(#clip772)" cx="2002.52" cy="1079.55" r="14.4" fill="#009af9" fill-rule="evenodd" fill-opacity="1" stroke="#000000" stroke-opacity="1" stroke-width="3.2"></circle>
<circle clip-path="url(#clip772)" cx="2021.82" cy="987.718" r="14.4" fill="#009af9" fill-rule="evenodd" fill-opacity="1" stroke="#000000" stroke-opacity="1" stroke-width="3.2"></circle>
<circle clip-path="url(#clip772)" cx="2041.11" cy="963.717" r="14.4" fill="#009af9" fill-rule="evenodd" fill-opacity="1" stroke="#000000" stroke-opacity="1" stroke-width="3.2"></circle>
<circle clip-path="url(#clip772)" cx="2060.41" cy="936.257" r="14.4" fill="#009af9" fill-rule="evenodd" fill-opacity="1" stroke="#000000" stroke-opacity="1" stroke-width="3.2"></circle>
<circle clip-path="url(#clip772)" cx="2079.71" cy="1004.44" r="14.4" fill="#009af9" fill-rule="evenodd" fill-opacity="1" stroke="#000000" stroke-opacity="1" stroke-width="3.2"></circle>
<circle clip-path="url(#clip772)" cx="2099" cy="971.476" r="14.4" fill="#009af9" fill-rule="evenodd" fill-opacity="1" stroke="#000000" stroke-opacity="1" stroke-width="3.2"></circle>
<circle clip-path="url(#clip772)" cx="2118.3" cy="875.352" r="14.4" fill="#009af9" fill-rule="evenodd" fill-opacity="1" stroke="#000000" stroke-opacity="1" stroke-width="3.2"></circle>
<circle clip-path="url(#clip772)" cx="2137.6" cy="842.103" r="14.4" fill="#009af9" fill-rule="evenodd" fill-opacity="1" stroke="#000000" stroke-opacity="1" stroke-width="3.2"></circle>
<circle clip-path="url(#clip772)" cx="2156.89" cy="882.419" r="14.4" fill="#009af9" fill-rule="evenodd" fill-opacity="1" stroke="#000000" stroke-opacity="1" stroke-width="3.2"></circle>
<circle clip-path="url(#clip772)" cx="2176.19" cy="697.108" r="14.4" fill="#009af9" fill-rule="evenodd" fill-opacity="1" stroke="#000000" stroke-opacity="1" stroke-width="3.2"></circle>
<circle clip-path="url(#clip772)" cx="2195.49" cy="648.817" r="14.4" fill="#009af9" fill-rule="evenodd" fill-opacity="1" stroke="#000000" stroke-opacity="1" stroke-width="3.2"></circle>
<circle clip-path="url(#clip772)" cx="2214.78" cy="648.817" r="14.4" fill="#009af9" fill-rule="evenodd" fill-opacity="1" stroke="#000000" stroke-opacity="1" stroke-width="3.2"></circle>
<circle clip-path="url(#clip772)" cx="2234.08" cy="625.371" r="14.4" fill="#009af9" fill-rule="evenodd" fill-opacity="1" stroke="#000000" stroke-opacity="1" stroke-width="3.2"></circle>
<circle clip-path="url(#clip772)" cx="2253.38" cy="389.695" r="14.4" fill="#009af9" fill-rule="evenodd" fill-opacity="1" stroke="#000000" stroke-opacity="1" stroke-width="3.2"></circle>
<circle clip-path="url(#clip772)" cx="2272.67" cy="441.626" r="14.4" fill="#009af9" fill-rule="evenodd" fill-opacity="1" stroke="#000000" stroke-opacity="1" stroke-width="3.2"></circle>
<circle clip-path="url(#clip772)" cx="2291.97" cy="86.1857" r="14.4" fill="#009af9" fill-rule="evenodd" fill-opacity="1" stroke="#000000" stroke-opacity="1" stroke-width="3.2"></circle>
<path clip-path="url(#clip770)" d="M276.619 196.789 L650.095 196.789 L650.095 93.1086 L276.619 93.1086  Z" fill="#ffffff" fill-rule="evenodd" fill-opacity="1"></path>
<polyline clip-path="url(#clip770)" style="stroke:#000000; stroke-linecap:round; stroke-linejoin:round; stroke-width:4; stroke-opacity:1; fill:none" points="276.619,196.789 650.095,196.789 650.095,93.1086 276.619,93.1086 276.619,196.789 "></polyline>
<circle clip-path="url(#clip770)" cx="372.074" cy="144.949" r="23.04" fill="#009af9" fill-rule="evenodd" fill-opacity="1" stroke="#000000" stroke-opacity="1" stroke-width="5.12"></circle>
<path clip-path="url(#clip770)" d="M483.917 146.025 Q485.422 146.534 486.834 148.201 Q488.269 149.868 489.704 152.784 L494.45 162.229 L489.426 162.229 L485.005 153.363 Q483.292 149.891 481.672 148.756 Q480.075 147.622 477.297 147.622 L472.204 147.622 L472.204 162.229 L467.528 162.229 L467.528 127.669 L478.084 127.669 Q484.01 127.669 486.926 130.145 Q489.843 132.622 489.843 137.622 Q489.843 140.886 488.315 143.039 Q486.811 145.192 483.917 146.025 M472.204 131.511 L472.204 143.78 L478.084 143.78 Q481.464 143.78 483.176 142.229 Q484.913 140.655 484.913 137.622 Q484.913 134.59 483.176 133.062 Q481.464 131.511 478.084 131.511 L472.204 131.511 Z" fill="#000000" fill-rule="nonzero" fill-opacity="1"></path><path clip-path="url(#clip770)" d="M496.209 147.344 L508.686 147.344 L508.686 151.141 L496.209 151.141 L496.209 147.344 Z" fill="#000000" fill-rule="nonzero" fill-opacity="1"></path><path clip-path="url(#clip770)" d="M516.88 158.293 L524.519 158.293 L524.519 131.928 L516.209 133.595 L516.209 129.335 L524.473 127.669 L529.148 127.669 L529.148 158.293 L536.787 158.293 L536.787 162.229 L516.88 162.229 L516.88 158.293 Z" fill="#000000" fill-rule="nonzero" fill-opacity="1"></path><path clip-path="url(#clip770)" d="M560.398 143.594 Q563.755 144.312 565.63 146.581 Q567.528 148.849 567.528 152.182 Q567.528 157.298 564.009 160.099 Q560.491 162.9 554.009 162.9 Q551.834 162.9 549.519 162.46 Q547.227 162.043 544.773 161.187 L544.773 156.673 Q546.718 157.807 549.033 158.386 Q551.347 158.965 553.871 158.965 Q558.269 158.965 560.56 157.229 Q562.875 155.493 562.875 152.182 Q562.875 149.127 560.722 147.414 Q558.593 145.678 554.773 145.678 L550.746 145.678 L550.746 141.835 L554.959 141.835 Q558.408 141.835 560.236 140.469 Q562.065 139.081 562.065 136.488 Q562.065 133.826 560.167 132.414 Q558.292 130.979 554.773 130.979 Q552.852 130.979 550.653 131.395 Q548.454 131.812 545.815 132.692 L545.815 128.525 Q548.477 127.784 550.792 127.414 Q553.13 127.044 555.19 127.044 Q560.514 127.044 563.616 129.474 Q566.718 131.882 566.718 136.002 Q566.718 138.872 565.074 140.863 Q563.431 142.831 560.398 143.594 Z" fill="#000000" fill-rule="nonzero" fill-opacity="1"></path><path clip-path="url(#clip770)" d="M589.241 131.743 L577.435 150.192 L589.241 150.192 L589.241 131.743 M588.014 127.669 L593.893 127.669 L593.893 150.192 L598.824 150.192 L598.824 154.081 L593.893 154.081 L593.893 162.229 L589.241 162.229 L589.241 154.081 L573.639 154.081 L573.639 149.567 L588.014 127.669 Z" fill="#000000" fill-rule="nonzero" fill-opacity="1"></path><path clip-path="url(#clip770)" d="M617.736 149.196 Q612.574 149.196 610.583 150.377 Q608.592 151.557 608.592 154.405 Q608.592 156.673 610.074 158.016 Q611.579 159.335 614.148 159.335 Q617.69 159.335 619.819 156.835 Q621.972 154.312 621.972 150.145 L621.972 149.196 L617.736 149.196 M626.231 147.437 L626.231 162.229 L621.972 162.229 L621.972 158.293 Q620.514 160.655 618.338 161.789 Q616.162 162.9 613.014 162.9 Q609.032 162.9 606.671 160.678 Q604.333 158.432 604.333 154.682 Q604.333 150.307 607.25 148.085 Q610.19 145.863 616 145.863 L621.972 145.863 L621.972 145.446 Q621.972 142.507 620.028 140.909 Q618.106 139.289 614.611 139.289 Q612.389 139.289 610.282 139.821 Q608.176 140.354 606.231 141.419 L606.231 137.483 Q608.569 136.581 610.768 136.141 Q612.967 135.678 615.051 135.678 Q620.676 135.678 623.454 138.594 Q626.231 141.511 626.231 147.437 Z" fill="#000000" fill-rule="nonzero" fill-opacity="1"></path></svg>