<svg xmlns="http://www.w3.org/2000/svg" xmlns:xlink="http://www.w3.org/1999/xlink" width="600" height="400" viewBox="0 0 2400 1600">
<defs>
  <clipPath id="clip280">
    <rect x="0" y="0" width="2400" height="1600"></rect>
  </clipPath>
</defs>
<path clip-path="url(#clip280)" d="M0 1600 L2400 1600 L2400 0 L0 0  Z" fill="#ffffff" fill-rule="evenodd" fill-opacity="1"></path>
<defs>
  <clipPath id="clip281">
    <rect x="480" y="0" width="1681" height="1600"></rect>
  </clipPath>
</defs>
<path clip-path="url(#clip280)" d="M242.135 1423.18 L2352.76 1423.18 L2352.76 47.2441 L242.135 47.2441  Z" fill="#ffffff" fill-rule="evenodd" fill-opacity="1"></path>
<defs>
  <clipPath id="clip282">
    <rect x="242" y="47" width="2112" height="1377"></rect>
  </clipPath>
</defs>
<polyline clip-path="url(#clip282)" style="stroke:#000000; stroke-linecap:round; stroke-linejoin:round; stroke-width:2; stroke-opacity:0.1; fill:none" points="282.906,1423.18 282.906,47.2441 "></polyline>
<polyline clip-path="url(#clip282)" style="stroke:#000000; stroke-linecap:round; stroke-linejoin:round; stroke-width:2; stroke-opacity:0.1; fill:none" points="756.99,1423.18 756.99,47.2441 "></polyline>
<polyline clip-path="url(#clip282)" style="stroke:#000000; stroke-linecap:round; stroke-linejoin:round; stroke-width:2; stroke-opacity:0.1; fill:none" points="1231.07,1423.18 1231.07,47.2441 "></polyline>
<polyline clip-path="url(#clip282)" style="stroke:#000000; stroke-linecap:round; stroke-linejoin:round; stroke-width:2; stroke-opacity:0.1; fill:none" points="1705.16,1423.18 1705.16,47.2441 "></polyline>
<polyline clip-path="url(#clip282)" style="stroke:#000000; stroke-linecap:round; stroke-linejoin:round; stroke-width:2; stroke-opacity:0.1; fill:none" points="2179.24,1423.18 2179.24,47.2441 "></polyline>
<polyline clip-path="url(#clip280)" style="stroke:#000000; stroke-linecap:round; stroke-linejoin:round; stroke-width:4; stroke-opacity:1; fill:none" points="242.135,1423.18 2352.76,1423.18 "></polyline>
<polyline clip-path="url(#clip280)" style="stroke:#000000; stroke-linecap:round; stroke-linejoin:round; stroke-width:4; stroke-opacity:1; fill:none" points="282.906,1423.18 282.906,1404.28 "></polyline>
<polyline clip-path="url(#clip280)" style="stroke:#000000; stroke-linecap:round; stroke-linejoin:round; stroke-width:4; stroke-opacity:1; fill:none" points="756.99,1423.18 756.99,1404.28 "></polyline>
<polyline clip-path="url(#clip280)" style="stroke:#000000; stroke-linecap:round; stroke-linejoin:round; stroke-width:4; stroke-opacity:1; fill:none" points="1231.07,1423.18 1231.07,1404.28 "></polyline>
<polyline clip-path="url(#clip280)" style="stroke:#000000; stroke-linecap:round; stroke-linejoin:round; stroke-width:4; stroke-opacity:1; fill:none" points="1705.16,1423.18 1705.16,1404.28 "></polyline>
<polyline clip-path="url(#clip280)" style="stroke:#000000; stroke-linecap:round; stroke-linejoin:round; stroke-width:4; stroke-opacity:1; fill:none" points="2179.24,1423.18 2179.24,1404.28 "></polyline>
<path clip-path="url(#clip280)" d="M282.906 1454.1 Q279.295 1454.1 277.466 1457.66 Q275.661 1461.2 275.661 1468.33 Q275.661 1475.44 277.466 1479.01 Q279.295 1482.55 282.906 1482.55 Q286.54 1482.55 288.346 1479.01 Q290.174 1475.44 290.174 1468.33 Q290.174 1461.2 288.346 1457.66 Q286.54 1454.1 282.906 1454.1 M282.906 1450.39 Q288.716 1450.39 291.772 1455 Q294.85 1459.58 294.85 1468.33 Q294.85 1477.06 291.772 1481.67 Q288.716 1486.25 282.906 1486.25 Q277.096 1486.25 274.017 1481.67 Q270.961 1477.06 270.961 1468.33 Q270.961 1459.58 274.017 1455 Q277.096 1450.39 282.906 1450.39 Z" fill="#000000" fill-rule="nonzero" fill-opacity="1"></path><path clip-path="url(#clip280)" d="M736.261 1481.64 L752.58 1481.64 L752.58 1485.58 L730.636 1485.58 L730.636 1481.64 Q733.298 1478.89 737.881 1474.26 Q742.487 1469.61 743.668 1468.27 Q745.913 1465.74 746.793 1464.01 Q747.696 1462.25 747.696 1460.56 Q747.696 1457.8 745.751 1456.07 Q743.83 1454.33 740.728 1454.33 Q738.529 1454.33 736.075 1455.09 Q733.645 1455.86 730.867 1457.41 L730.867 1452.69 Q733.691 1451.55 736.145 1450.97 Q738.599 1450.39 740.636 1450.39 Q746.006 1450.39 749.2 1453.08 Q752.395 1455.77 752.395 1460.26 Q752.395 1462.39 751.585 1464.31 Q750.798 1466.2 748.691 1468.8 Q748.112 1469.47 745.011 1472.69 Q741.909 1475.88 736.261 1481.64 Z" fill="#000000" fill-rule="nonzero" fill-opacity="1"></path><path clip-path="url(#clip280)" d="M762.441 1451.02 L780.797 1451.02 L780.797 1454.96 L766.723 1454.96 L766.723 1463.43 Q767.742 1463.08 768.76 1462.92 Q769.779 1462.73 770.798 1462.73 Q776.585 1462.73 779.964 1465.9 Q783.344 1469.08 783.344 1474.49 Q783.344 1480.07 779.872 1483.17 Q776.399 1486.25 770.08 1486.25 Q767.904 1486.25 765.635 1485.88 Q763.39 1485.51 760.983 1484.77 L760.983 1480.07 Q763.066 1481.2 765.288 1481.76 Q767.51 1482.32 769.987 1482.32 Q773.992 1482.32 776.33 1480.21 Q778.668 1478.1 778.668 1474.49 Q778.668 1470.88 776.33 1468.77 Q773.992 1466.67 769.987 1466.67 Q768.112 1466.67 766.237 1467.08 Q764.386 1467.5 762.441 1468.38 L762.441 1451.02 Z" fill="#000000" fill-rule="nonzero" fill-opacity="1"></path><path clip-path="url(#clip280)" d="M1205.77 1451.02 L1224.13 1451.02 L1224.13 1454.96 L1210.06 1454.96 L1210.06 1463.43 Q1211.07 1463.08 1212.09 1462.92 Q1213.11 1462.73 1214.13 1462.73 Q1219.92 1462.73 1223.3 1465.9 Q1226.68 1469.08 1226.68 1474.49 Q1226.68 1480.07 1223.2 1483.17 Q1219.73 1486.25 1213.41 1486.25 Q1211.24 1486.25 1208.97 1485.88 Q1206.72 1485.51 1204.31 1484.77 L1204.31 1480.07 Q1206.4 1481.2 1208.62 1481.76 Q1210.84 1482.32 1213.32 1482.32 Q1217.32 1482.32 1219.66 1480.21 Q1222 1478.1 1222 1474.49 Q1222 1470.88 1219.66 1468.77 Q1217.32 1466.67 1213.32 1466.67 Q1211.44 1466.67 1209.57 1467.08 Q1207.72 1467.5 1205.77 1468.38 L1205.77 1451.02 Z" fill="#000000" fill-rule="nonzero" fill-opacity="1"></path><path clip-path="url(#clip280)" d="M1245.89 1454.1 Q1242.28 1454.1 1240.45 1457.66 Q1238.64 1461.2 1238.64 1468.33 Q1238.64 1475.44 1240.45 1479.01 Q1242.28 1482.55 1245.89 1482.55 Q1249.52 1482.55 1251.33 1479.01 Q1253.16 1475.44 1253.16 1468.33 Q1253.16 1461.2 1251.33 1457.66 Q1249.52 1454.1 1245.89 1454.1 M1245.89 1450.39 Q1251.7 1450.39 1254.75 1455 Q1257.83 1459.58 1257.83 1468.33 Q1257.83 1477.06 1254.75 1481.67 Q1251.7 1486.25 1245.89 1486.25 Q1240.08 1486.25 1237 1481.67 Q1233.94 1477.06 1233.94 1468.33 Q1233.94 1459.58 1237 1455 Q1240.08 1450.39 1245.89 1450.39 Z" fill="#000000" fill-rule="nonzero" fill-opacity="1"></path><path clip-path="url(#clip280)" d="M1679.01 1451.02 L1701.23 1451.02 L1701.23 1453.01 L1688.69 1485.58 L1683.8 1485.58 L1695.61 1454.96 L1679.01 1454.96 L1679.01 1451.02 Z" fill="#000000" fill-rule="nonzero" fill-opacity="1"></path><path clip-path="url(#clip280)" d="M1710.4 1451.02 L1728.76 1451.02 L1728.76 1454.96 L1714.68 1454.96 L1714.68 1463.43 Q1715.7 1463.08 1716.72 1462.92 Q1717.74 1462.73 1718.76 1462.73 Q1724.54 1462.73 1727.92 1465.9 Q1731.3 1469.08 1731.3 1474.49 Q1731.3 1480.07 1727.83 1483.17 Q1724.36 1486.25 1718.04 1486.25 Q1715.86 1486.25 1713.59 1485.88 Q1711.35 1485.51 1708.94 1484.77 L1708.94 1480.07 Q1711.03 1481.2 1713.25 1481.76 Q1715.47 1482.32 1717.95 1482.32 Q1721.95 1482.32 1724.29 1480.21 Q1726.63 1478.1 1726.63 1474.49 Q1726.63 1470.88 1724.29 1468.77 Q1721.95 1466.67 1717.95 1466.67 Q1716.07 1466.67 1714.2 1467.08 Q1712.34 1467.5 1710.4 1468.38 L1710.4 1451.02 Z" fill="#000000" fill-rule="nonzero" fill-opacity="1"></path><path clip-path="url(#clip280)" d="M2138.85 1481.64 L2146.49 1481.64 L2146.49 1455.28 L2138.18 1456.95 L2138.18 1452.69 L2146.44 1451.02 L2151.12 1451.02 L2151.12 1481.64 L2158.76 1481.64 L2158.76 1485.58 L2138.85 1485.58 L2138.85 1481.64 Z" fill="#000000" fill-rule="nonzero" fill-opacity="1"></path><path clip-path="url(#clip280)" d="M2178.2 1454.1 Q2174.59 1454.1 2172.76 1457.66 Q2170.95 1461.2 2170.95 1468.33 Q2170.95 1475.44 2172.76 1479.01 Q2174.59 1482.55 2178.2 1482.55 Q2181.83 1482.55 2183.64 1479.01 Q2185.47 1475.44 2185.47 1468.33 Q2185.47 1461.2 2183.64 1457.66 Q2181.83 1454.1 2178.2 1454.1 M2178.2 1450.39 Q2184.01 1450.39 2187.07 1455 Q2190.14 1459.58 2190.14 1468.33 Q2190.14 1477.06 2187.07 1481.67 Q2184.01 1486.25 2178.2 1486.25 Q2172.39 1486.25 2169.31 1481.67 Q2166.26 1477.06 2166.26 1468.33 Q2166.26 1459.58 2169.31 1455 Q2172.39 1450.39 2178.2 1450.39 Z" fill="#000000" fill-rule="nonzero" fill-opacity="1"></path><path clip-path="url(#clip280)" d="M2208.36 1454.1 Q2204.75 1454.1 2202.92 1457.66 Q2201.12 1461.2 2201.12 1468.33 Q2201.12 1475.44 2202.92 1479.01 Q2204.75 1482.55 2208.36 1482.55 Q2212 1482.55 2213.8 1479.01 Q2215.63 1475.44 2215.63 1468.33 Q2215.63 1461.2 2213.8 1457.66 Q2212 1454.1 2208.36 1454.1 M2208.36 1450.39 Q2214.17 1450.39 2217.23 1455 Q2220.31 1459.58 2220.31 1468.33 Q2220.31 1477.06 2217.23 1481.67 Q2214.17 1486.25 2208.36 1486.25 Q2202.55 1486.25 2199.47 1481.67 Q2196.42 1477.06 2196.42 1468.33 Q2196.42 1459.58 2199.47 1455 Q2202.55 1450.39 2208.36 1450.39 Z" fill="#000000" fill-rule="nonzero" fill-opacity="1"></path><path clip-path="url(#clip280)" d="M954.222 1520.52 L963.803 1520.52 L975.929 1552.86 L988.12 1520.52 L997.7 1520.52 L997.7 1568.04 L991.43 1568.04 L991.43 1526.32 L979.176 1558.91 L972.715 1558.91 L960.461 1526.32 L960.461 1568.04 L954.222 1568.04 L954.222 1520.52 Z" fill="#000000" fill-rule="nonzero" fill-opacity="1"></path><path clip-path="url(#clip280)" d="M1010.21 1532.4 L1016.07 1532.4 L1016.07 1568.04 L1010.21 1568.04 L1010.21 1532.4 M1010.21 1518.52 L1016.07 1518.52 L1016.07 1525.93 L1010.21 1525.93 L1010.21 1518.52 Z" fill="#000000" fill-rule="nonzero" fill-opacity="1"></path><path clip-path="url(#clip280)" d="M1057.95 1532.4 L1045.06 1549.74 L1058.62 1568.04 L1051.71 1568.04 L1041.34 1554.04 L1030.96 1568.04 L1024.05 1568.04 L1037.9 1549.39 L1025.23 1532.4 L1032.14 1532.4 L1041.59 1545.1 L1051.04 1532.4 L1057.95 1532.4 Z" fill="#000000" fill-rule="nonzero" fill-opacity="1"></path><path clip-path="url(#clip280)" d="M1066.9 1532.4 L1072.75 1532.4 L1072.75 1568.04 L1066.9 1568.04 L1066.9 1532.4 M1066.9 1518.52 L1072.75 1518.52 L1072.75 1525.93 L1066.9 1525.93 L1066.9 1518.52 Z" fill="#000000" fill-rule="nonzero" fill-opacity="1"></path><path clip-path="url(#clip280)" d="M1114.64 1546.53 L1114.64 1568.04 L1108.78 1568.04 L1108.78 1546.72 Q1108.78 1541.66 1106.81 1539.14 Q1104.83 1536.63 1100.89 1536.63 Q1096.15 1536.63 1093.41 1539.65 Q1090.67 1542.68 1090.67 1547.9 L1090.67 1568.04 L1084.78 1568.04 L1084.78 1532.4 L1090.67 1532.4 L1090.67 1537.93 Q1092.77 1534.72 1095.6 1533.13 Q1098.47 1531.54 1102.19 1531.54 Q1108.34 1531.54 1111.49 1535.36 Q1114.64 1539.14 1114.64 1546.53 Z" fill="#000000" fill-rule="nonzero" fill-opacity="1"></path><path clip-path="url(#clip280)" d="M1149.78 1549.81 Q1149.78 1543.44 1147.14 1539.94 Q1144.53 1536.44 1139.78 1536.44 Q1135.07 1536.44 1132.43 1539.94 Q1129.82 1543.44 1129.82 1549.81 Q1129.82 1556.14 1132.43 1559.64 Q1135.07 1563.14 1139.78 1563.14 Q1144.53 1563.14 1147.14 1559.64 Q1149.78 1556.14 1149.78 1549.81 M1155.63 1563.62 Q1155.63 1572.72 1151.59 1577.15 Q1147.55 1581.6 1139.21 1581.6 Q1136.12 1581.6 1133.39 1581.13 Q1130.65 1580.68 1128.07 1579.72 L1128.07 1574.03 Q1130.65 1575.43 1133.16 1576.1 Q1135.68 1576.76 1138.29 1576.76 Q1144.05 1576.76 1146.91 1573.74 Q1149.78 1570.75 1149.78 1564.67 L1149.78 1561.77 Q1147.96 1564.92 1145.13 1566.48 Q1142.3 1568.04 1138.35 1568.04 Q1131.79 1568.04 1127.78 1563.05 Q1123.77 1558.05 1123.77 1549.81 Q1123.77 1541.53 1127.78 1536.53 Q1131.79 1531.54 1138.35 1531.54 Q1142.3 1531.54 1145.13 1533.1 Q1147.96 1534.66 1149.78 1537.81 L1149.78 1532.4 L1155.63 1532.4 L1155.63 1563.62 Z" fill="#000000" fill-rule="nonzero" fill-opacity="1"></path><path clip-path="url(#clip280)" d="M1195.1 1525.81 L1195.1 1543.66 L1203.19 1543.66 Q1207.67 1543.66 1210.12 1541.34 Q1212.57 1539.02 1212.57 1534.72 Q1212.57 1530.45 1210.12 1528.13 Q1207.67 1525.81 1203.19 1525.81 L1195.1 1525.81 M1188.67 1520.52 L1203.19 1520.52 Q1211.17 1520.52 1215.25 1524.15 Q1219.35 1527.75 1219.35 1534.72 Q1219.35 1541.75 1215.25 1545.35 Q1211.17 1548.95 1203.19 1548.95 L1195.1 1548.95 L1195.1 1568.04 L1188.67 1568.04 L1188.67 1520.52 Z" fill="#000000" fill-rule="nonzero" fill-opacity="1"></path><path clip-path="url(#clip280)" d="M1247.24 1537.87 Q1246.25 1537.3 1245.07 1537.04 Q1243.93 1536.76 1242.53 1536.76 Q1237.56 1536.76 1234.89 1540 Q1232.24 1543.22 1232.24 1549.27 L1232.24 1568.04 L1226.36 1568.04 L1226.36 1532.4 L1232.24 1532.4 L1232.24 1537.93 Q1234.09 1534.69 1237.05 1533.13 Q1240.01 1531.54 1244.24 1531.54 Q1244.85 1531.54 1245.58 1531.63 Q1246.31 1531.7 1247.2 1531.85 L1247.24 1537.87 Z" fill="#000000" fill-rule="nonzero" fill-opacity="1"></path><path clip-path="url(#clip280)" d="M1282.44 1548.76 L1282.44 1551.62 L1255.51 1551.62 Q1255.89 1557.67 1259.14 1560.85 Q1262.42 1564 1268.24 1564 Q1271.62 1564 1274.77 1563.17 Q1277.95 1562.35 1281.07 1560.69 L1281.07 1566.23 Q1277.92 1567.57 1274.61 1568.27 Q1271.3 1568.97 1267.89 1568.97 Q1259.36 1568.97 1254.37 1564 Q1249.4 1559.04 1249.4 1550.57 Q1249.4 1541.82 1254.11 1536.69 Q1258.85 1531.54 1266.87 1531.54 Q1274.07 1531.54 1278.24 1536.18 Q1282.44 1540.8 1282.44 1548.76 M1276.58 1547.04 Q1276.52 1542.23 1273.88 1539.37 Q1271.27 1536.5 1266.94 1536.5 Q1262.04 1536.5 1259.08 1539.27 Q1256.15 1542.04 1255.7 1547.07 L1276.58 1547.04 Z" fill="#000000" fill-rule="nonzero" fill-opacity="1"></path><path clip-path="url(#clip280)" d="M1314.78 1533.45 L1314.78 1538.98 Q1312.29 1537.71 1309.62 1537.07 Q1306.95 1536.44 1304.08 1536.44 Q1299.72 1536.44 1297.52 1537.77 Q1295.36 1539.11 1295.36 1541.79 Q1295.36 1543.82 1296.92 1545 Q1298.48 1546.15 1303.19 1547.2 L1305.2 1547.64 Q1311.43 1548.98 1314.04 1551.43 Q1316.69 1553.85 1316.69 1558.21 Q1316.69 1563.17 1312.74 1566.07 Q1308.82 1568.97 1301.95 1568.97 Q1299.08 1568.97 1295.97 1568.39 Q1292.88 1567.85 1289.44 1566.74 L1289.44 1560.69 Q1292.69 1562.38 1295.84 1563.24 Q1298.99 1564.07 1302.08 1564.07 Q1306.21 1564.07 1308.44 1562.66 Q1310.67 1561.23 1310.67 1558.65 Q1310.67 1556.27 1309.05 1554.99 Q1307.46 1553.72 1302.01 1552.54 L1299.98 1552.07 Q1294.53 1550.92 1292.11 1548.56 Q1289.7 1546.18 1289.7 1542.04 Q1289.7 1537.01 1293.26 1534.27 Q1296.82 1531.54 1303.38 1531.54 Q1306.63 1531.54 1309.49 1532.01 Q1312.36 1532.49 1314.78 1533.45 Z" fill="#000000" fill-rule="nonzero" fill-opacity="1"></path><path clip-path="url(#clip280)" d="M1348.74 1533.45 L1348.74 1538.98 Q1346.25 1537.71 1343.58 1537.07 Q1340.91 1536.44 1338.04 1536.44 Q1333.68 1536.44 1331.49 1537.77 Q1329.32 1539.11 1329.32 1541.79 Q1329.32 1543.82 1330.88 1545 Q1332.44 1546.15 1337.15 1547.2 L1339.16 1547.64 Q1345.39 1548.98 1348 1551.43 Q1350.65 1553.85 1350.65 1558.21 Q1350.65 1563.17 1346.7 1566.07 Q1342.79 1568.97 1335.91 1568.97 Q1333.05 1568.97 1329.93 1568.39 Q1326.84 1567.85 1323.4 1566.74 L1323.4 1560.69 Q1326.65 1562.38 1329.8 1563.24 Q1332.95 1564.07 1336.04 1564.07 Q1340.18 1564.07 1342.4 1562.66 Q1344.63 1561.23 1344.63 1558.65 Q1344.63 1556.27 1343.01 1554.99 Q1341.42 1553.72 1335.97 1552.54 L1333.94 1552.07 Q1328.49 1550.92 1326.08 1548.56 Q1323.66 1546.18 1323.66 1542.04 Q1323.66 1537.01 1327.22 1534.27 Q1330.79 1531.54 1337.34 1531.54 Q1340.59 1531.54 1343.45 1532.01 Q1346.32 1532.49 1348.74 1533.45 Z" fill="#000000" fill-rule="nonzero" fill-opacity="1"></path><path clip-path="url(#clip280)" d="M1359.37 1553.98 L1359.37 1532.4 L1365.22 1532.4 L1365.22 1553.75 Q1365.22 1558.81 1367.2 1561.36 Q1369.17 1563.87 1373.12 1563.87 Q1377.86 1563.87 1380.6 1560.85 Q1383.37 1557.83 1383.37 1552.61 L1383.37 1532.4 L1389.22 1532.4 L1389.22 1568.04 L1383.37 1568.04 L1383.37 1562.57 Q1381.23 1565.82 1378.4 1567.41 Q1375.6 1568.97 1371.88 1568.97 Q1365.73 1568.97 1362.55 1565.15 Q1359.37 1561.33 1359.37 1553.98 M1374.1 1531.54 L1374.1 1531.54 Z" fill="#000000" fill-rule="nonzero" fill-opacity="1"></path><path clip-path="url(#clip280)" d="M1421.94 1537.87 Q1420.96 1537.3 1419.78 1537.04 Q1418.63 1536.76 1417.23 1536.76 Q1412.27 1536.76 1409.59 1540 Q1406.95 1543.22 1406.95 1549.27 L1406.95 1568.04 L1401.06 1568.04 L1401.06 1532.4 L1406.95 1532.4 L1406.95 1537.93 Q1408.8 1534.69 1411.76 1533.13 Q1414.72 1531.54 1418.95 1531.54 Q1419.56 1531.54 1420.29 1531.63 Q1421.02 1531.7 1421.91 1531.85 L1421.94 1537.87 Z" fill="#000000" fill-rule="nonzero" fill-opacity="1"></path><path clip-path="url(#clip280)" d="M1457.14 1548.76 L1457.14 1551.62 L1430.22 1551.62 Q1430.6 1557.67 1433.85 1560.85 Q1437.12 1564 1442.95 1564 Q1446.32 1564 1449.47 1563.17 Q1452.66 1562.35 1455.78 1560.69 L1455.78 1566.23 Q1452.63 1567.57 1449.32 1568.27 Q1446 1568.97 1442.6 1568.97 Q1434.07 1568.97 1429.07 1564 Q1424.11 1559.04 1424.11 1550.57 Q1424.11 1541.82 1428.82 1536.69 Q1433.56 1531.54 1441.58 1531.54 Q1448.77 1531.54 1452.94 1536.18 Q1457.14 1540.8 1457.14 1548.76 M1451.29 1547.04 Q1451.22 1542.23 1448.58 1539.37 Q1445.97 1536.5 1441.64 1536.5 Q1436.74 1536.5 1433.78 1539.27 Q1430.85 1542.04 1430.41 1547.07 L1451.29 1547.04 Z" fill="#000000" fill-rule="nonzero" fill-opacity="1"></path><path clip-path="url(#clip280)" d="M1486.94 1518.52 L1500.43 1518.52 L1500.43 1523.07 L1492.79 1523.07 L1492.79 1572.09 L1500.43 1572.09 L1500.43 1576.64 L1486.94 1576.64 L1486.94 1518.52 Z" fill="#000000" fill-rule="nonzero" fill-opacity="1"></path><path clip-path="url(#clip280)" d="M1512.69 1518.52 L1518.57 1518.52 L1518.57 1547.77 L1536.05 1532.4 L1543.53 1532.4 L1524.62 1549.07 L1544.32 1568.04 L1536.68 1568.04 L1518.57 1550.63 L1518.57 1568.04 L1512.69 1568.04 L1512.69 1518.52 Z" fill="#000000" fill-rule="nonzero" fill-opacity="1"></path><path clip-path="url(#clip280)" d="M1557.34 1525.81 L1557.34 1543.66 L1565.43 1543.66 Q1569.91 1543.66 1572.36 1541.34 Q1574.82 1539.02 1574.82 1534.72 Q1574.82 1530.45 1572.36 1528.13 Q1569.91 1525.81 1565.43 1525.81 L1557.34 1525.81 M1550.91 1520.52 L1565.43 1520.52 Q1573.41 1520.52 1577.49 1524.15 Q1581.59 1527.75 1581.59 1534.72 Q1581.59 1541.75 1577.49 1545.35 Q1573.41 1548.95 1565.43 1548.95 L1557.34 1548.95 L1557.34 1568.04 L1550.91 1568.04 L1550.91 1520.52 Z" fill="#000000" fill-rule="nonzero" fill-opacity="1"></path><path clip-path="url(#clip280)" d="M1603.24 1550.12 Q1596.14 1550.12 1593.4 1551.75 Q1590.67 1553.37 1590.67 1557.29 Q1590.67 1560.4 1592.7 1562.25 Q1594.77 1564.07 1598.3 1564.07 Q1603.17 1564.07 1606.1 1560.63 Q1609.06 1557.16 1609.06 1551.43 L1609.06 1550.12 L1603.24 1550.12 M1614.92 1547.71 L1614.92 1568.04 L1609.06 1568.04 L1609.06 1562.63 Q1607.06 1565.88 1604.07 1567.44 Q1601.07 1568.97 1596.74 1568.97 Q1591.27 1568.97 1588.02 1565.91 Q1584.81 1562.82 1584.81 1557.67 Q1584.81 1551.65 1588.82 1548.6 Q1592.86 1545.54 1600.85 1545.54 L1609.06 1545.54 L1609.06 1544.97 Q1609.06 1540.93 1606.39 1538.73 Q1603.75 1536.5 1598.94 1536.5 Q1595.89 1536.5 1592.99 1537.23 Q1590.09 1537.97 1587.42 1539.43 L1587.42 1534.02 Q1590.63 1532.78 1593.66 1532.17 Q1596.68 1531.54 1599.55 1531.54 Q1607.28 1531.54 1611.1 1535.55 Q1614.92 1539.56 1614.92 1547.71 Z" fill="#000000" fill-rule="nonzero" fill-opacity="1"></path><path clip-path="url(#clip280)" d="M1640.67 1518.52 L1640.67 1576.64 L1627.17 1576.64 L1627.17 1572.09 L1634.78 1572.09 L1634.78 1523.07 L1627.17 1523.07 L1627.17 1518.52 L1640.67 1518.52 Z" fill="#000000" fill-rule="nonzero" fill-opacity="1"></path><polyline clip-path="url(#clip282)" style="stroke:#000000; stroke-linecap:round; stroke-linejoin:round; stroke-width:2; stroke-opacity:0.1; fill:none" points="242.135,1142.08 2352.76,1142.08 "></polyline>
<polyline clip-path="url(#clip282)" style="stroke:#000000; stroke-linecap:round; stroke-linejoin:round; stroke-width:2; stroke-opacity:0.1; fill:none" points="242.135,847.561 2352.76,847.561 "></polyline>
<polyline clip-path="url(#clip282)" style="stroke:#000000; stroke-linecap:round; stroke-linejoin:round; stroke-width:2; stroke-opacity:0.1; fill:none" points="242.135,553.045 2352.76,553.045 "></polyline>
<polyline clip-path="url(#clip282)" style="stroke:#000000; stroke-linecap:round; stroke-linejoin:round; stroke-width:2; stroke-opacity:0.1; fill:none" points="242.135,258.529 2352.76,258.529 "></polyline>
<polyline clip-path="url(#clip280)" style="stroke:#000000; stroke-linecap:round; stroke-linejoin:round; stroke-width:4; stroke-opacity:1; fill:none" points="242.135,1423.18 242.135,47.2441 "></polyline>
<polyline clip-path="url(#clip280)" style="stroke:#000000; stroke-linecap:round; stroke-linejoin:round; stroke-width:4; stroke-opacity:1; fill:none" points="242.135,1142.08 261.032,1142.08 "></polyline>
<polyline clip-path="url(#clip280)" style="stroke:#000000; stroke-linecap:round; stroke-linejoin:round; stroke-width:4; stroke-opacity:1; fill:none" points="242.135,847.561 261.032,847.561 "></polyline>
<polyline clip-path="url(#clip280)" style="stroke:#000000; stroke-linecap:round; stroke-linejoin:round; stroke-width:4; stroke-opacity:1; fill:none" points="242.135,553.045 261.032,553.045 "></polyline>
<polyline clip-path="url(#clip280)" style="stroke:#000000; stroke-linecap:round; stroke-linejoin:round; stroke-width:4; stroke-opacity:1; fill:none" points="242.135,258.529 261.032,258.529 "></polyline>
<path clip-path="url(#clip280)" d="M114.26 1142.53 L143.936 1142.53 L143.936 1146.46 L114.26 1146.46 L114.26 1142.53 Z" fill="#000000" fill-rule="nonzero" fill-opacity="1"></path><path clip-path="url(#clip280)" d="M154.075 1124.8 L172.431 1124.8 L172.431 1128.73 L158.357 1128.73 L158.357 1137.2 Q159.376 1136.86 160.394 1136.7 Q161.413 1136.51 162.431 1136.51 Q168.218 1136.51 171.598 1139.68 Q174.977 1142.85 174.977 1148.27 Q174.977 1153.85 171.505 1156.95 Q168.033 1160.03 161.714 1160.03 Q159.538 1160.03 157.269 1159.66 Q155.024 1159.29 152.616 1158.55 L152.616 1153.85 Q154.7 1154.98 156.922 1155.54 Q159.144 1156.09 161.621 1156.09 Q165.626 1156.09 167.964 1153.99 Q170.302 1151.88 170.302 1148.27 Q170.302 1144.66 167.964 1142.55 Q165.626 1140.44 161.621 1140.44 Q159.746 1140.44 157.871 1140.86 Q156.019 1141.28 154.075 1142.16 L154.075 1124.8 Z" fill="#000000" fill-rule="nonzero" fill-opacity="1"></path><path clip-path="url(#clip280)" d="M194.19 1127.88 Q190.579 1127.88 188.75 1131.44 Q186.945 1134.98 186.945 1142.11 Q186.945 1149.22 188.75 1152.78 Q190.579 1156.32 194.19 1156.32 Q197.825 1156.32 199.63 1152.78 Q201.459 1149.22 201.459 1142.11 Q201.459 1134.98 199.63 1131.44 Q197.825 1127.88 194.19 1127.88 M194.19 1124.17 Q200 1124.17 203.056 1128.78 Q206.135 1133.36 206.135 1142.11 Q206.135 1150.84 203.056 1155.44 Q200 1160.03 194.19 1160.03 Q188.38 1160.03 185.301 1155.44 Q182.246 1150.84 182.246 1142.11 Q182.246 1133.36 185.301 1128.78 Q188.38 1124.17 194.19 1124.17 Z" fill="#000000" fill-rule="nonzero" fill-opacity="1"></path><path clip-path="url(#clip280)" d="M194.19 833.36 Q190.579 833.36 188.75 836.924 Q186.945 840.466 186.945 847.596 Q186.945 854.702 188.75 858.267 Q190.579 861.809 194.19 861.809 Q197.825 861.809 199.63 858.267 Q201.459 854.702 201.459 847.596 Q201.459 840.466 199.63 836.924 Q197.825 833.36 194.19 833.36 M194.19 829.656 Q200 829.656 203.056 834.262 Q206.135 838.846 206.135 847.596 Q206.135 856.322 203.056 860.929 Q200 865.512 194.19 865.512 Q188.38 865.512 185.301 860.929 Q182.246 856.322 182.246 847.596 Q182.246 838.846 185.301 834.262 Q188.38 829.656 194.19 829.656 Z" fill="#000000" fill-rule="nonzero" fill-opacity="1"></path><path clip-path="url(#clip280)" d="M154.075 535.765 L172.431 535.765 L172.431 539.7 L158.357 539.7 L158.357 548.172 Q159.376 547.825 160.394 547.663 Q161.413 547.478 162.431 547.478 Q168.218 547.478 171.598 550.649 Q174.977 553.82 174.977 559.237 Q174.977 564.816 171.505 567.917 Q168.033 570.996 161.714 570.996 Q159.538 570.996 157.269 570.626 Q155.024 570.255 152.616 569.515 L152.616 564.816 Q154.7 565.95 156.922 566.505 Q159.144 567.061 161.621 567.061 Q165.626 567.061 167.964 564.955 Q170.302 562.848 170.302 559.237 Q170.302 555.626 167.964 553.519 Q165.626 551.413 161.621 551.413 Q159.746 551.413 157.871 551.83 Q156.019 552.246 154.075 553.126 L154.075 535.765 Z" fill="#000000" fill-rule="nonzero" fill-opacity="1"></path><path clip-path="url(#clip280)" d="M194.19 538.844 Q190.579 538.844 188.75 542.408 Q186.945 545.95 186.945 553.08 Q186.945 560.186 188.75 563.751 Q190.579 567.292 194.19 567.292 Q197.825 567.292 199.63 563.751 Q201.459 560.186 201.459 553.08 Q201.459 545.95 199.63 542.408 Q197.825 538.844 194.19 538.844 M194.19 535.14 Q200 535.14 203.056 539.746 Q206.135 544.33 206.135 553.08 Q206.135 561.806 203.056 566.413 Q200 570.996 194.19 570.996 Q188.38 570.996 185.301 566.413 Q182.246 561.806 182.246 553.08 Q182.246 544.33 185.301 539.746 Q188.38 535.14 194.19 535.14 Z" fill="#000000" fill-rule="nonzero" fill-opacity="1"></path><path clip-path="url(#clip280)" d="M124.677 271.874 L132.316 271.874 L132.316 245.508 L124.005 247.175 L124.005 242.916 L132.269 241.249 L136.945 241.249 L136.945 271.874 L144.584 271.874 L144.584 275.809 L124.677 275.809 L124.677 271.874 Z" fill="#000000" fill-rule="nonzero" fill-opacity="1"></path><path clip-path="url(#clip280)" d="M164.028 244.328 Q160.417 244.328 158.589 247.892 Q156.783 251.434 156.783 258.564 Q156.783 265.67 158.589 269.235 Q160.417 272.776 164.028 272.776 Q167.663 272.776 169.468 269.235 Q171.297 265.67 171.297 258.564 Q171.297 251.434 169.468 247.892 Q167.663 244.328 164.028 244.328 M164.028 240.624 Q169.839 240.624 172.894 245.23 Q175.973 249.814 175.973 258.564 Q175.973 267.29 172.894 271.897 Q169.839 276.48 164.028 276.48 Q158.218 276.48 155.14 271.897 Q152.084 267.29 152.084 258.564 Q152.084 249.814 155.14 245.23 Q158.218 240.624 164.028 240.624 Z" fill="#000000" fill-rule="nonzero" fill-opacity="1"></path><path clip-path="url(#clip280)" d="M194.19 244.328 Q190.579 244.328 188.75 247.892 Q186.945 251.434 186.945 258.564 Q186.945 265.67 188.75 269.235 Q190.579 272.776 194.19 272.776 Q197.825 272.776 199.63 269.235 Q201.459 265.67 201.459 258.564 Q201.459 251.434 199.63 247.892 Q197.825 244.328 194.19 244.328 M194.19 240.624 Q200 240.624 203.056 245.23 Q206.135 249.814 206.135 258.564 Q206.135 267.29 203.056 271.897 Q200 276.48 194.19 276.48 Q188.38 276.48 185.301 271.897 Q182.246 267.29 182.246 258.564 Q182.246 249.814 185.301 245.23 Q188.38 240.624 194.19 240.624 Z" fill="#000000" fill-rule="nonzero" fill-opacity="1"></path><path clip-path="url(#clip280)" d="M64.0042 1116.25 L16.4842 1134.39 L16.4842 1127.67 L56.4926 1112.62 L16.4842 1097.53 L16.4842 1090.85 L64.0042 1108.96 L64.0042 1116.25 Z" fill="#000000" fill-rule="nonzero" fill-opacity="1"></path><path clip-path="url(#clip280)" d="M44.7161 1058.73 L47.5806 1058.73 L47.5806 1085.66 Q53.6281 1085.28 56.8109 1082.03 Q59.9619 1078.75 59.9619 1072.93 Q59.9619 1069.55 59.1344 1066.4 Q58.3069 1063.22 56.6518 1060.1 L62.1899 1060.1 Q63.5267 1063.25 64.227 1066.56 Q64.9272 1069.87 64.9272 1073.28 Q64.9272 1081.81 59.9619 1086.81 Q54.9967 1091.77 46.5303 1091.77 Q37.7774 1091.77 32.6531 1087.06 Q27.4968 1082.32 27.4968 1074.3 Q27.4968 1067.1 32.1438 1062.93 Q36.7589 1058.73 44.7161 1058.73 M42.9973 1064.59 Q38.1912 1064.65 35.3266 1067.29 Q32.4621 1069.9 32.4621 1074.23 Q32.4621 1079.14 35.2312 1082.1 Q38.0002 1085.02 43.0292 1085.47 L42.9973 1064.59 Z" fill="#000000" fill-rule="nonzero" fill-opacity="1"></path><path clip-path="url(#clip280)" d="M14.479 1049.12 L14.479 1043.26 L64.0042 1043.26 L64.0042 1049.12 L14.479 1049.12 Z" fill="#000000" fill-rule="nonzero" fill-opacity="1"></path><path clip-path="url(#clip280)" d="M32.4621 1017.2 Q32.4621 1021.91 36.1542 1024.64 Q39.8145 1027.38 46.212 1027.38 Q52.6095 1027.38 56.3017 1024.68 Q59.9619 1021.94 59.9619 1017.2 Q59.9619 1012.52 56.2698 1009.78 Q52.5777 1007.04 46.212 1007.04 Q39.8781 1007.04 36.186 1009.78 Q32.4621 1012.52 32.4621 1017.2 M27.4968 1017.2 Q27.4968 1009.56 32.4621 1005.2 Q37.4273 1000.84 46.212 1000.84 Q54.9649 1000.84 59.9619 1005.2 Q64.9272 1009.56 64.9272 1017.2 Q64.9272 1024.87 59.9619 1029.23 Q54.9649 1033.56 46.212 1033.56 Q37.4273 1033.56 32.4621 1029.23 Q27.4968 1024.87 27.4968 1017.2 Z" fill="#000000" fill-rule="nonzero" fill-opacity="1"></path><path clip-path="url(#clip280)" d="M29.7248 965.475 L35.1993 965.475 Q33.8307 967.958 33.1623 970.473 Q32.4621 972.955 32.4621 975.501 Q32.4621 981.199 36.0905 984.35 Q39.6872 987.501 46.212 987.501 Q52.7369 987.501 56.3653 984.35 Q59.9619 981.199 59.9619 975.501 Q59.9619 972.955 59.2935 970.473 Q58.5933 967.958 57.2247 965.475 L62.6355 965.475 Q63.7814 967.926 64.3543 970.568 Q64.9272 973.178 64.9272 976.138 Q64.9272 984.191 59.8664 988.933 Q54.8057 993.676 46.212 993.676 Q37.491 993.676 32.4939 988.901 Q27.4968 984.095 27.4968 975.756 Q27.4968 973.051 28.0697 970.473 Q28.6108 967.894 29.7248 965.475 Z" fill="#000000" fill-rule="nonzero" fill-opacity="1"></path><path clip-path="url(#clip280)" d="M28.3562 955.29 L28.3562 949.434 L64.0042 949.434 L64.0042 955.29 L28.3562 955.29 M14.479 955.29 L14.479 949.434 L21.895 949.434 L21.895 955.29 L14.479 955.29 Z" fill="#000000" fill-rule="nonzero" fill-opacity="1"></path><path clip-path="url(#clip280)" d="M18.2347 931.387 L28.3562 931.387 L28.3562 919.324 L32.9077 919.324 L32.9077 931.387 L52.2594 931.387 Q56.6199 931.387 57.8613 930.209 Q59.1026 929 59.1026 925.34 L59.1026 919.324 L64.0042 919.324 L64.0042 925.34 Q64.0042 932.119 61.4897 934.697 Q58.9434 937.275 52.2594 937.275 L32.9077 937.275 L32.9077 941.572 L28.3562 941.572 L28.3562 937.275 L18.2347 937.275 L18.2347 931.387 Z" fill="#000000" fill-rule="nonzero" fill-opacity="1"></path><path clip-path="url(#clip280)" d="M67.3143 896.79 Q73.68 899.272 75.6216 901.627 Q77.5631 903.983 77.5631 907.93 L77.5631 912.608 L72.6615 912.608 L72.6615 909.171 Q72.6615 906.752 71.5157 905.415 Q70.3699 904.078 66.1048 902.455 L63.4312 901.405 L28.3562 915.823 L28.3562 909.616 L56.238 898.476 L28.3562 887.336 L28.3562 881.13 L67.3143 896.79 Z" fill="#000000" fill-rule="nonzero" fill-opacity="1"></path><path clip-path="url(#clip280)" d="M21.7677 845.641 L58.7206 845.641 L58.7206 837.875 Q58.7206 828.04 54.2646 823.488 Q49.8086 818.905 40.1964 818.905 Q30.6479 818.905 26.2237 823.488 Q21.7677 828.04 21.7677 837.875 L21.7677 845.641 M16.4842 852.07 L16.4842 838.862 Q16.4842 825.048 22.2451 818.587 Q27.9743 812.126 40.1964 812.126 Q52.4822 812.126 58.2432 818.619 Q64.0042 825.112 64.0042 838.862 L64.0042 852.07 L16.4842 852.07 Z" fill="#000000" fill-rule="nonzero" fill-opacity="1"></path><path clip-path="url(#clip280)" d="M28.3562 802.131 L28.3562 796.275 L64.0042 796.275 L64.0042 802.131 L28.3562 802.131 M14.479 802.131 L14.479 796.275 L21.895 796.275 L21.895 802.131 L14.479 802.131 Z" fill="#000000" fill-rule="nonzero" fill-opacity="1"></path><path clip-path="url(#clip280)" d="M14.479 765.974 L19.3487 765.974 L19.3487 771.576 Q19.3487 774.727 20.6219 775.968 Q21.895 777.178 25.2052 777.178 L28.3562 777.178 L28.3562 767.534 L32.9077 767.534 L32.9077 777.178 L64.0042 777.178 L64.0042 783.066 L32.9077 783.066 L32.9077 788.668 L28.3562 788.668 L28.3562 783.066 L25.8736 783.066 Q19.9216 783.066 17.2162 780.297 Q14.479 777.528 14.479 771.512 L14.479 765.974 Z" fill="#000000" fill-rule="nonzero" fill-opacity="1"></path><path clip-path="url(#clip280)" d="M14.479 743.026 L19.3487 743.026 L19.3487 748.628 Q19.3487 751.779 20.6219 753.02 Q21.895 754.23 25.2052 754.23 L28.3562 754.23 L28.3562 744.585 L32.9077 744.585 L32.9077 754.23 L64.0042 754.23 L64.0042 760.118 L32.9077 760.118 L32.9077 765.72 L28.3562 765.72 L28.3562 760.118 L25.8736 760.118 Q19.9216 760.118 17.2162 757.349 Q14.479 754.58 14.479 748.564 L14.479 743.026 Z" fill="#000000" fill-rule="nonzero" fill-opacity="1"></path><path clip-path="url(#clip280)" d="M44.7161 707.633 L47.5806 707.633 L47.5806 734.559 Q53.6281 734.178 56.8109 730.931 Q59.9619 727.653 59.9619 721.828 Q59.9619 718.454 59.1344 715.303 Q58.3069 712.12 56.6518 709.001 L62.1899 709.001 Q63.5267 712.152 64.227 715.462 Q64.9272 718.773 64.9272 722.178 Q64.9272 730.708 59.9619 735.705 Q54.9967 740.671 46.5303 740.671 Q37.7774 740.671 32.6531 735.96 Q27.4968 731.217 27.4968 723.197 Q27.4968 716.003 32.1438 711.834 Q36.7589 707.633 44.7161 707.633 M42.9973 713.489 Q38.1912 713.553 35.3266 716.194 Q32.4621 718.804 32.4621 723.133 Q32.4621 728.035 35.2312 730.995 Q38.0002 733.923 43.0292 734.369 L42.9973 713.489 Z" fill="#000000" fill-rule="nonzero" fill-opacity="1"></path><path clip-path="url(#clip280)" d="M33.8307 677.364 Q33.2578 678.35 33.0032 679.528 Q32.7167 680.674 32.7167 682.074 Q32.7167 687.039 35.9632 689.713 Q39.1779 692.355 45.2253 692.355 L64.0042 692.355 L64.0042 698.243 L28.3562 698.243 L28.3562 692.355 L33.8944 692.355 Q30.6479 690.509 29.0883 687.549 Q27.4968 684.589 27.4968 680.355 Q27.4968 679.751 27.5923 679.019 Q27.656 678.287 27.8151 677.395 L33.8307 677.364 Z" fill="#000000" fill-rule="nonzero" fill-opacity="1"></path><path clip-path="url(#clip280)" d="M44.7161 642.161 L47.5806 642.161 L47.5806 669.088 Q53.6281 668.706 56.8109 665.46 Q59.9619 662.181 59.9619 656.357 Q59.9619 652.983 59.1344 649.832 Q58.3069 646.649 56.6518 643.53 L62.1899 643.53 Q63.5267 646.681 64.227 649.991 Q64.9272 653.301 64.9272 656.707 Q64.9272 665.237 59.9619 670.234 Q54.9967 675.199 46.5303 675.199 Q37.7774 675.199 32.6531 670.489 Q27.4968 665.746 27.4968 657.725 Q27.4968 650.532 32.1438 646.363 Q36.7589 642.161 44.7161 642.161 M42.9973 648.018 Q38.1912 648.081 35.3266 650.723 Q32.4621 653.333 32.4621 657.662 Q32.4621 662.563 35.2312 665.523 Q38.0002 668.452 43.0292 668.897 L42.9973 648.018 Z" fill="#000000" fill-rule="nonzero" fill-opacity="1"></path><path clip-path="url(#clip280)" d="M42.4881 602.917 L64.0042 602.917 L64.0042 608.773 L42.679 608.773 Q37.6183 608.773 35.1038 610.746 Q32.5894 612.72 32.5894 616.667 Q32.5894 621.409 35.6131 624.146 Q38.6368 626.884 43.8567 626.884 L64.0042 626.884 L64.0042 632.772 L28.3562 632.772 L28.3562 626.884 L33.8944 626.884 Q30.6797 624.783 29.0883 621.95 Q27.4968 619.086 27.4968 615.362 Q27.4968 609.219 31.3163 606.068 Q35.1038 602.917 42.4881 602.917 Z" fill="#000000" fill-rule="nonzero" fill-opacity="1"></path><path clip-path="url(#clip280)" d="M29.7248 565.582 L35.1993 565.582 Q33.8307 568.064 33.1623 570.579 Q32.4621 573.062 32.4621 575.608 Q32.4621 581.305 36.0905 584.456 Q39.6872 587.607 46.212 587.607 Q52.7369 587.607 56.3653 584.456 Q59.9619 581.305 59.9619 575.608 Q59.9619 573.062 59.2935 570.579 Q58.5933 568.064 57.2247 565.582 L62.6355 565.582 Q63.7814 568.033 64.3543 570.674 Q64.9272 573.284 64.9272 576.244 Q64.9272 584.297 59.8664 589.039 Q54.8057 593.782 46.212 593.782 Q37.491 593.782 32.4939 589.008 Q27.4968 584.201 27.4968 575.862 Q27.4968 573.157 28.0697 570.579 Q28.6108 568.001 29.7248 565.582 Z" fill="#000000" fill-rule="nonzero" fill-opacity="1"></path><path clip-path="url(#clip280)" d="M44.7161 524.905 L47.5806 524.905 L47.5806 551.832 Q53.6281 551.45 56.8109 548.203 Q59.9619 544.925 59.9619 539.1 Q59.9619 535.727 59.1344 532.576 Q58.3069 529.393 56.6518 526.274 L62.1899 526.274 Q63.5267 529.425 64.227 532.735 Q64.9272 536.045 64.9272 539.451 Q64.9272 547.981 59.9619 552.978 Q54.9967 557.943 46.5303 557.943 Q37.7774 557.943 32.6531 553.232 Q27.4968 548.49 27.4968 540.469 Q27.4968 533.276 32.1438 529.106 Q36.7589 524.905 44.7161 524.905 M42.9973 530.761 Q38.1912 530.825 35.3266 533.467 Q32.4621 536.077 32.4621 540.405 Q32.4621 545.307 35.2312 548.267 Q38.0002 551.195 43.0292 551.641 L42.9973 530.761 Z" fill="#000000" fill-rule="nonzero" fill-opacity="1"></path><path clip-path="url(#clip280)" d="M14.479 495.113 L14.479 481.618 L19.0304 481.618 L19.0304 489.257 L68.0464 489.257 L68.0464 481.618 L72.5979 481.618 L72.5979 495.113 L14.479 495.113 Z" fill="#000000" fill-rule="nonzero" fill-opacity="1"></path><path clip-path="url(#clip280)" d="M35.1993 441.387 Q31.2526 439.191 29.3747 436.135 Q27.4968 433.08 27.4968 428.942 Q27.4968 423.372 31.4117 420.348 Q35.2948 417.324 42.4881 417.324 L64.0042 417.324 L64.0042 423.213 L42.679 423.213 Q37.5546 423.213 35.072 425.027 Q32.5894 426.841 32.5894 430.565 Q32.5894 435.117 35.6131 437.758 Q38.6368 440.4 43.8567 440.4 L64.0042 440.4 L64.0042 446.288 L42.679 446.288 Q37.5228 446.288 35.072 448.103 Q32.5894 449.917 32.5894 453.705 Q32.5894 458.192 35.6449 460.834 Q38.6686 463.476 43.8567 463.476 L64.0042 463.476 L64.0042 469.364 L28.3562 469.364 L28.3562 463.476 L33.8944 463.476 Q30.616 461.471 29.0564 458.67 Q27.4968 455.869 27.4968 452.018 Q27.4968 448.135 29.4702 445.429 Q31.4436 442.692 35.1993 441.387 Z" fill="#000000" fill-rule="nonzero" fill-opacity="1"></path><path clip-path="url(#clip280)" d="M16.4842 395.235 L16.4842 389.825 L70.0516 406.375 L70.0516 411.786 L16.4842 395.235 Z" fill="#000000" fill-rule="nonzero" fill-opacity="1"></path><path clip-path="url(#clip280)" d="M29.4065 360.956 L34.9447 360.956 Q33.6716 363.439 33.035 366.112 Q32.3984 368.786 32.3984 371.651 Q32.3984 376.011 33.7352 378.207 Q35.072 380.372 37.7456 380.372 Q39.7826 380.372 40.9603 378.812 Q42.1061 377.252 43.1565 372.542 L43.6021 370.537 Q44.9389 364.298 47.3897 361.688 Q49.8086 359.046 54.1691 359.046 Q59.1344 359.046 62.0308 362.993 Q64.9272 366.908 64.9272 373.783 Q64.9272 376.648 64.3543 379.767 Q63.8132 382.854 62.6992 386.292 L56.6518 386.292 Q58.3387 383.045 59.198 379.894 Q60.0256 376.743 60.0256 373.656 Q60.0256 369.518 58.6251 367.29 Q57.1929 365.062 54.6147 365.062 Q52.2276 365.062 50.9545 366.685 Q49.6813 368.277 48.5037 373.719 L48.0262 375.756 Q46.8804 381.199 44.5251 383.618 Q42.138 386.037 38.0002 386.037 Q32.9713 386.037 30.2341 382.472 Q27.4968 378.907 27.4968 372.351 Q27.4968 369.104 27.9743 366.24 Q28.4517 363.375 29.4065 360.956 Z" fill="#000000" fill-rule="nonzero" fill-opacity="1"></path><path clip-path="url(#clip280)" d="M14.479 336.034 L72.5979 336.034 L72.5979 349.53 L68.0464 349.53 L68.0464 341.923 L19.0304 341.923 L19.0304 349.53 L14.479 349.53 L14.479 336.034 Z" fill="#000000" fill-rule="nonzero" fill-opacity="1"></path><circle clip-path="url(#clip282)" cx="301.869" cy="1384.24" r="14.4" fill="#009af9" fill-rule="evenodd" fill-opacity="1" stroke="#000000" stroke-opacity="1" stroke-width="3.2"></circle>
<circle clip-path="url(#clip282)" cx="320.833" cy="1340.98" r="14.4" fill="#009af9" fill-rule="evenodd" fill-opacity="1" stroke="#000000" stroke-opacity="1" stroke-width="3.2"></circle>
<circle clip-path="url(#clip282)" cx="339.796" cy="1310.68" r="14.4" fill="#009af9" fill-rule="evenodd" fill-opacity="1" stroke="#000000" stroke-opacity="1" stroke-width="3.2"></circle>
<circle clip-path="url(#clip282)" cx="358.759" cy="1286.47" r="14.4" fill="#009af9" fill-rule="evenodd" fill-opacity="1" stroke="#000000" stroke-opacity="1" stroke-width="3.2"></circle>
<circle clip-path="url(#clip282)" cx="377.723" cy="1265.84" r="14.4" fill="#009af9" fill-rule="evenodd" fill-opacity="1" stroke="#000000" stroke-opacity="1" stroke-width="3.2"></circle>
<circle clip-path="url(#clip282)" cx="396.686" cy="1247.65" r="14.4" fill="#009af9" fill-rule="evenodd" fill-opacity="1" stroke="#000000" stroke-opacity="1" stroke-width="3.2"></circle>
<circle clip-path="url(#clip282)" cx="415.649" cy="1230.97" r="14.4" fill="#009af9" fill-rule="evenodd" fill-opacity="1" stroke="#000000" stroke-opacity="1" stroke-width="3.2"></circle>
<circle clip-path="url(#clip282)" cx="434.613" cy="1215.79" r="14.4" fill="#009af9" fill-rule="evenodd" fill-opacity="1" stroke="#000000" stroke-opacity="1" stroke-width="3.2"></circle>
<circle clip-path="url(#clip282)" cx="453.576" cy="1215.79" r="14.4" fill="#009af9" fill-rule="evenodd" fill-opacity="1" stroke="#000000" stroke-opacity="1" stroke-width="3.2"></circle>
<circle clip-path="url(#clip282)" cx="472.539" cy="1188.15" r="14.4" fill="#009af9" fill-rule="evenodd" fill-opacity="1" stroke="#000000" stroke-opacity="1" stroke-width="3.2"></circle>
<circle clip-path="url(#clip282)" cx="491.503" cy="1188.15" r="14.4" fill="#009af9" fill-rule="evenodd" fill-opacity="1" stroke="#000000" stroke-opacity="1" stroke-width="3.2"></circle>
<circle clip-path="url(#clip282)" cx="510.466" cy="1163.31" r="14.4" fill="#009af9" fill-rule="evenodd" fill-opacity="1" stroke="#000000" stroke-opacity="1" stroke-width="3.2"></circle>
<circle clip-path="url(#clip282)" cx="529.429" cy="1163.31" r="14.4" fill="#009af9" fill-rule="evenodd" fill-opacity="1" stroke="#000000" stroke-opacity="1" stroke-width="3.2"></circle>
<circle clip-path="url(#clip282)" cx="548.393" cy="1140.52" r="14.4" fill="#009af9" fill-rule="evenodd" fill-opacity="1" stroke="#000000" stroke-opacity="1" stroke-width="3.2"></circle>
<circle clip-path="url(#clip282)" cx="567.356" cy="1140.52" r="14.4" fill="#009af9" fill-rule="evenodd" fill-opacity="1" stroke="#000000" stroke-opacity="1" stroke-width="3.2"></circle>
<circle clip-path="url(#clip282)" cx="586.32" cy="1118.89" r="14.4" fill="#009af9" fill-rule="evenodd" fill-opacity="1" stroke="#000000" stroke-opacity="1" stroke-width="3.2"></circle>
<circle clip-path="url(#clip282)" cx="605.283" cy="1108.73" r="14.4" fill="#009af9" fill-rule="evenodd" fill-opacity="1" stroke="#000000" stroke-opacity="1" stroke-width="3.2"></circle>
<circle clip-path="url(#clip282)" cx="624.246" cy="1108.73" r="14.4" fill="#009af9" fill-rule="evenodd" fill-opacity="1" stroke="#000000" stroke-opacity="1" stroke-width="3.2"></circle>
<circle clip-path="url(#clip282)" cx="643.21" cy="1089.01" r="14.4" fill="#009af9" fill-rule="evenodd" fill-opacity="1" stroke="#000000" stroke-opacity="1" stroke-width="3.2"></circle>
<circle clip-path="url(#clip282)" cx="662.173" cy="1079.72" r="14.4" fill="#009af9" fill-rule="evenodd" fill-opacity="1" stroke="#000000" stroke-opacity="1" stroke-width="3.2"></circle>
<circle clip-path="url(#clip282)" cx="681.136" cy="1070.38" r="14.4" fill="#009af9" fill-rule="evenodd" fill-opacity="1" stroke="#000000" stroke-opacity="1" stroke-width="3.2"></circle>
<circle clip-path="url(#clip282)" cx="700.1" cy="1070.38" r="14.4" fill="#009af9" fill-rule="evenodd" fill-opacity="1" stroke="#000000" stroke-opacity="1" stroke-width="3.2"></circle>
<circle clip-path="url(#clip282)" cx="719.063" cy="1052.16" r="14.4" fill="#009af9" fill-rule="evenodd" fill-opacity="1" stroke="#000000" stroke-opacity="1" stroke-width="3.2"></circle>
<circle clip-path="url(#clip282)" cx="738.026" cy="1043.22" r="14.4" fill="#009af9" fill-rule="evenodd" fill-opacity="1" stroke="#000000" stroke-opacity="1" stroke-width="3.2"></circle>
<circle clip-path="url(#clip282)" cx="756.99" cy="1034.6" r="14.4" fill="#009af9" fill-rule="evenodd" fill-opacity="1" stroke="#000000" stroke-opacity="1" stroke-width="3.2"></circle>
<circle clip-path="url(#clip282)" cx="775.953" cy="1034.6" r="14.4" fill="#009af9" fill-rule="evenodd" fill-opacity="1" stroke="#000000" stroke-opacity="1" stroke-width="3.2"></circle>
<circle clip-path="url(#clip282)" cx="794.916" cy="1017.26" r="14.4" fill="#009af9" fill-rule="evenodd" fill-opacity="1" stroke="#000000" stroke-opacity="1" stroke-width="3.2"></circle>
<circle clip-path="url(#clip282)" cx="813.88" cy="1009.12" r="14.4" fill="#009af9" fill-rule="evenodd" fill-opacity="1" stroke="#000000" stroke-opacity="1" stroke-width="3.2"></circle>
<circle clip-path="url(#clip282)" cx="832.843" cy="1000.74" r="14.4" fill="#009af9" fill-rule="evenodd" fill-opacity="1" stroke="#000000" stroke-opacity="1" stroke-width="3.2"></circle>
<circle clip-path="url(#clip282)" cx="851.806" cy="1000.74" r="14.4" fill="#009af9" fill-rule="evenodd" fill-opacity="1" stroke="#000000" stroke-opacity="1" stroke-width="3.2"></circle>
<circle clip-path="url(#clip282)" cx="870.77" cy="984.124" r="14.4" fill="#009af9" fill-rule="evenodd" fill-opacity="1" stroke="#000000" stroke-opacity="1" stroke-width="3.2"></circle>
<circle clip-path="url(#clip282)" cx="889.733" cy="975.868" r="14.4" fill="#009af9" fill-rule="evenodd" fill-opacity="1" stroke="#000000" stroke-opacity="1" stroke-width="3.2"></circle>
<circle clip-path="url(#clip282)" cx="908.697" cy="967.821" r="14.4" fill="#009af9" fill-rule="evenodd" fill-opacity="1" stroke="#000000" stroke-opacity="1" stroke-width="3.2"></circle>
<circle clip-path="url(#clip282)" cx="927.66" cy="959.825" r="14.4" fill="#009af9" fill-rule="evenodd" fill-opacity="1" stroke="#000000" stroke-opacity="1" stroke-width="3.2"></circle>
<circle clip-path="url(#clip282)" cx="946.623" cy="951.921" r="14.4" fill="#009af9" fill-rule="evenodd" fill-opacity="1" stroke="#000000" stroke-opacity="1" stroke-width="3.2"></circle>
<circle clip-path="url(#clip282)" cx="965.587" cy="951.921" r="14.4" fill="#009af9" fill-rule="evenodd" fill-opacity="1" stroke="#000000" stroke-opacity="1" stroke-width="3.2"></circle>
<circle clip-path="url(#clip282)" cx="984.55" cy="935.881" r="14.4" fill="#009af9" fill-rule="evenodd" fill-opacity="1" stroke="#000000" stroke-opacity="1" stroke-width="3.2"></circle>
<circle clip-path="url(#clip282)" cx="1003.51" cy="927.94" r="14.4" fill="#009af9" fill-rule="evenodd" fill-opacity="1" stroke="#000000" stroke-opacity="1" stroke-width="3.2"></circle>
<circle clip-path="url(#clip282)" cx="1022.48" cy="920.396" r="14.4" fill="#009af9" fill-rule="evenodd" fill-opacity="1" stroke="#000000" stroke-opacity="1" stroke-width="3.2"></circle>
<circle clip-path="url(#clip282)" cx="1041.44" cy="912.178" r="14.4" fill="#009af9" fill-rule="evenodd" fill-opacity="1" stroke="#000000" stroke-opacity="1" stroke-width="3.2"></circle>
<circle clip-path="url(#clip282)" cx="1060.4" cy="904.528" r="14.4" fill="#009af9" fill-rule="evenodd" fill-opacity="1" stroke="#000000" stroke-opacity="1" stroke-width="3.2"></circle>
<circle clip-path="url(#clip282)" cx="1079.37" cy="896.721" r="14.4" fill="#009af9" fill-rule="evenodd" fill-opacity="1" stroke="#000000" stroke-opacity="1" stroke-width="3.2"></circle>
<circle clip-path="url(#clip282)" cx="1098.33" cy="896.721" r="14.4" fill="#009af9" fill-rule="evenodd" fill-opacity="1" stroke="#000000" stroke-opacity="1" stroke-width="3.2"></circle>
<circle clip-path="url(#clip282)" cx="1117.29" cy="881.232" r="14.4" fill="#009af9" fill-rule="evenodd" fill-opacity="1" stroke="#000000" stroke-opacity="1" stroke-width="3.2"></circle>
<circle clip-path="url(#clip282)" cx="1136.26" cy="873.469" r="14.4" fill="#009af9" fill-rule="evenodd" fill-opacity="1" stroke="#000000" stroke-opacity="1" stroke-width="3.2"></circle>
<circle clip-path="url(#clip282)" cx="1155.22" cy="865.795" r="14.4" fill="#009af9" fill-rule="evenodd" fill-opacity="1" stroke="#000000" stroke-opacity="1" stroke-width="3.2"></circle>
<circle clip-path="url(#clip282)" cx="1174.18" cy="858.075" r="14.4" fill="#009af9" fill-rule="evenodd" fill-opacity="1" stroke="#000000" stroke-opacity="1" stroke-width="3.2"></circle>
<circle clip-path="url(#clip282)" cx="1193.15" cy="850.208" r="14.4" fill="#009af9" fill-rule="evenodd" fill-opacity="1" stroke="#000000" stroke-opacity="1" stroke-width="3.2"></circle>
<circle clip-path="url(#clip282)" cx="1212.11" cy="842.776" r="14.4" fill="#009af9" fill-rule="evenodd" fill-opacity="1" stroke="#000000" stroke-opacity="1" stroke-width="3.2"></circle>
<circle clip-path="url(#clip282)" cx="1231.07" cy="834.88" r="14.4" fill="#009af9" fill-rule="evenodd" fill-opacity="1" stroke="#000000" stroke-opacity="1" stroke-width="3.2"></circle>
<circle clip-path="url(#clip282)" cx="1250.04" cy="834.88" r="14.4" fill="#009af9" fill-rule="evenodd" fill-opacity="1" stroke="#000000" stroke-opacity="1" stroke-width="3.2"></circle>
<circle clip-path="url(#clip282)" cx="1269" cy="819.143" r="14.4" fill="#009af9" fill-rule="evenodd" fill-opacity="1" stroke="#000000" stroke-opacity="1" stroke-width="3.2"></circle>
<circle clip-path="url(#clip282)" cx="1287.96" cy="811.488" r="14.4" fill="#009af9" fill-rule="evenodd" fill-opacity="1" stroke="#000000" stroke-opacity="1" stroke-width="3.2"></circle>
<circle clip-path="url(#clip282)" cx="1306.93" cy="803.591" r="14.4" fill="#009af9" fill-rule="evenodd" fill-opacity="1" stroke="#000000" stroke-opacity="1" stroke-width="3.2"></circle>
<circle clip-path="url(#clip282)" cx="1325.89" cy="795.943" r="14.4" fill="#009af9" fill-rule="evenodd" fill-opacity="1" stroke="#000000" stroke-opacity="1" stroke-width="3.2"></circle>
<circle clip-path="url(#clip282)" cx="1344.85" cy="787.785" r="14.4" fill="#009af9" fill-rule="evenodd" fill-opacity="1" stroke="#000000" stroke-opacity="1" stroke-width="3.2"></circle>
<circle clip-path="url(#clip282)" cx="1363.82" cy="779.805" r="14.4" fill="#009af9" fill-rule="evenodd" fill-opacity="1" stroke="#000000" stroke-opacity="1" stroke-width="3.2"></circle>
<circle clip-path="url(#clip282)" cx="1382.78" cy="772.182" r="14.4" fill="#009af9" fill-rule="evenodd" fill-opacity="1" stroke="#000000" stroke-opacity="1" stroke-width="3.2"></circle>
<circle clip-path="url(#clip282)" cx="1401.74" cy="772.182" r="14.4" fill="#009af9" fill-rule="evenodd" fill-opacity="1" stroke="#000000" stroke-opacity="1" stroke-width="3.2"></circle>
<circle clip-path="url(#clip282)" cx="1420.71" cy="756.228" r="14.4" fill="#009af9" fill-rule="evenodd" fill-opacity="1" stroke="#000000" stroke-opacity="1" stroke-width="3.2"></circle>
<circle clip-path="url(#clip282)" cx="1439.67" cy="747.636" r="14.4" fill="#009af9" fill-rule="evenodd" fill-opacity="1" stroke="#000000" stroke-opacity="1" stroke-width="3.2"></circle>
<circle clip-path="url(#clip282)" cx="1458.63" cy="739.846" r="14.4" fill="#009af9" fill-rule="evenodd" fill-opacity="1" stroke="#000000" stroke-opacity="1" stroke-width="3.2"></circle>
<circle clip-path="url(#clip282)" cx="1477.6" cy="731.754" r="14.4" fill="#009af9" fill-rule="evenodd" fill-opacity="1" stroke="#000000" stroke-opacity="1" stroke-width="3.2"></circle>
<circle clip-path="url(#clip282)" cx="1496.56" cy="723.402" r="14.4" fill="#009af9" fill-rule="evenodd" fill-opacity="1" stroke="#000000" stroke-opacity="1" stroke-width="3.2"></circle>
<circle clip-path="url(#clip282)" cx="1515.52" cy="714.956" r="14.4" fill="#009af9" fill-rule="evenodd" fill-opacity="1" stroke="#000000" stroke-opacity="1" stroke-width="3.2"></circle>
<circle clip-path="url(#clip282)" cx="1534.49" cy="706.704" r="14.4" fill="#009af9" fill-rule="evenodd" fill-opacity="1" stroke="#000000" stroke-opacity="1" stroke-width="3.2"></circle>
<circle clip-path="url(#clip282)" cx="1553.45" cy="698.125" r="14.4" fill="#009af9" fill-rule="evenodd" fill-opacity="1" stroke="#000000" stroke-opacity="1" stroke-width="3.2"></circle>
<circle clip-path="url(#clip282)" cx="1572.41" cy="689.44" r="14.4" fill="#009af9" fill-rule="evenodd" fill-opacity="1" stroke="#000000" stroke-opacity="1" stroke-width="3.2"></circle>
<circle clip-path="url(#clip282)" cx="1591.38" cy="680.725" r="14.4" fill="#009af9" fill-rule="evenodd" fill-opacity="1" stroke="#000000" stroke-opacity="1" stroke-width="3.2"></circle>
<circle clip-path="url(#clip282)" cx="1610.34" cy="672.35" r="14.4" fill="#009af9" fill-rule="evenodd" fill-opacity="1" stroke="#000000" stroke-opacity="1" stroke-width="3.2"></circle>
<circle clip-path="url(#clip282)" cx="1629.3" cy="672.35" r="14.4" fill="#009af9" fill-rule="evenodd" fill-opacity="1" stroke="#000000" stroke-opacity="1" stroke-width="3.2"></circle>
<circle clip-path="url(#clip282)" cx="1648.27" cy="654.93" r="14.4" fill="#009af9" fill-rule="evenodd" fill-opacity="1" stroke="#000000" stroke-opacity="1" stroke-width="3.2"></circle>
<circle clip-path="url(#clip282)" cx="1667.23" cy="645.264" r="14.4" fill="#009af9" fill-rule="evenodd" fill-opacity="1" stroke="#000000" stroke-opacity="1" stroke-width="3.2"></circle>
<circle clip-path="url(#clip282)" cx="1686.19" cy="636.846" r="14.4" fill="#009af9" fill-rule="evenodd" fill-opacity="1" stroke="#000000" stroke-opacity="1" stroke-width="3.2"></circle>
<circle clip-path="url(#clip282)" cx="1705.16" cy="626.827" r="14.4" fill="#009af9" fill-rule="evenodd" fill-opacity="1" stroke="#000000" stroke-opacity="1" stroke-width="3.2"></circle>
<circle clip-path="url(#clip282)" cx="1724.12" cy="617.611" r="14.4" fill="#009af9" fill-rule="evenodd" fill-opacity="1" stroke="#000000" stroke-opacity="1" stroke-width="3.2"></circle>
<circle clip-path="url(#clip282)" cx="1743.08" cy="608.32" r="14.4" fill="#009af9" fill-rule="evenodd" fill-opacity="1" stroke="#000000" stroke-opacity="1" stroke-width="3.2"></circle>
<circle clip-path="url(#clip282)" cx="1762.05" cy="598.767" r="14.4" fill="#009af9" fill-rule="evenodd" fill-opacity="1" stroke="#000000" stroke-opacity="1" stroke-width="3.2"></circle>
<circle clip-path="url(#clip282)" cx="1781.01" cy="589.524" r="14.4" fill="#009af9" fill-rule="evenodd" fill-opacity="1" stroke="#000000" stroke-opacity="1" stroke-width="3.2"></circle>
<circle clip-path="url(#clip282)" cx="1799.97" cy="579.338" r="14.4" fill="#009af9" fill-rule="evenodd" fill-opacity="1" stroke="#000000" stroke-opacity="1" stroke-width="3.2"></circle>
<circle clip-path="url(#clip282)" cx="1818.94" cy="569.451" r="14.4" fill="#009af9" fill-rule="evenodd" fill-opacity="1" stroke="#000000" stroke-opacity="1" stroke-width="3.2"></circle>
<circle clip-path="url(#clip282)" cx="1837.9" cy="559.254" r="14.4" fill="#009af9" fill-rule="evenodd" fill-opacity="1" stroke="#000000" stroke-opacity="1" stroke-width="3.2"></circle>
<circle clip-path="url(#clip282)" cx="1856.86" cy="548.595" r="14.4" fill="#009af9" fill-rule="evenodd" fill-opacity="1" stroke="#000000" stroke-opacity="1" stroke-width="3.2"></circle>
<circle clip-path="url(#clip282)" cx="1875.83" cy="537.701" r="14.4" fill="#009af9" fill-rule="evenodd" fill-opacity="1" stroke="#000000" stroke-opacity="1" stroke-width="3.2"></circle>
<circle clip-path="url(#clip282)" cx="1894.79" cy="526.485" r="14.4" fill="#009af9" fill-rule="evenodd" fill-opacity="1" stroke="#000000" stroke-opacity="1" stroke-width="3.2"></circle>
<circle clip-path="url(#clip282)" cx="1913.75" cy="526.485" r="14.4" fill="#009af9" fill-rule="evenodd" fill-opacity="1" stroke="#000000" stroke-opacity="1" stroke-width="3.2"></circle>
<circle clip-path="url(#clip282)" cx="1932.72" cy="503.762" r="14.4" fill="#009af9" fill-rule="evenodd" fill-opacity="1" stroke="#000000" stroke-opacity="1" stroke-width="3.2"></circle>
<circle clip-path="url(#clip282)" cx="1951.68" cy="492.501" r="14.4" fill="#009af9" fill-rule="evenodd" fill-opacity="1" stroke="#000000" stroke-opacity="1" stroke-width="3.2"></circle>
<circle clip-path="url(#clip282)" cx="1970.64" cy="479.853" r="14.4" fill="#009af9" fill-rule="evenodd" fill-opacity="1" stroke="#000000" stroke-opacity="1" stroke-width="3.2"></circle>
<circle clip-path="url(#clip282)" cx="1989.61" cy="466.993" r="14.4" fill="#009af9" fill-rule="evenodd" fill-opacity="1" stroke="#000000" stroke-opacity="1" stroke-width="3.2"></circle>
<circle clip-path="url(#clip282)" cx="2008.57" cy="455.482" r="14.4" fill="#009af9" fill-rule="evenodd" fill-opacity="1" stroke="#000000" stroke-opacity="1" stroke-width="3.2"></circle>
<circle clip-path="url(#clip282)" cx="2027.53" cy="441.332" r="14.4" fill="#009af9" fill-rule="evenodd" fill-opacity="1" stroke="#000000" stroke-opacity="1" stroke-width="3.2"></circle>
<circle clip-path="url(#clip282)" cx="2046.5" cy="427.984" r="14.4" fill="#009af9" fill-rule="evenodd" fill-opacity="1" stroke="#000000" stroke-opacity="1" stroke-width="3.2"></circle>
<circle clip-path="url(#clip282)" cx="2065.46" cy="413.211" r="14.4" fill="#009af9" fill-rule="evenodd" fill-opacity="1" stroke="#000000" stroke-opacity="1" stroke-width="3.2"></circle>
<circle clip-path="url(#clip282)" cx="2084.42" cy="399.303" r="14.4" fill="#009af9" fill-rule="evenodd" fill-opacity="1" stroke="#000000" stroke-opacity="1" stroke-width="3.2"></circle>
<circle clip-path="url(#clip282)" cx="2103.39" cy="382.667" r="14.4" fill="#009af9" fill-rule="evenodd" fill-opacity="1" stroke="#000000" stroke-opacity="1" stroke-width="3.2"></circle>
<circle clip-path="url(#clip282)" cx="2122.35" cy="366.005" r="14.4" fill="#009af9" fill-rule="evenodd" fill-opacity="1" stroke="#000000" stroke-opacity="1" stroke-width="3.2"></circle>
<circle clip-path="url(#clip282)" cx="2141.31" cy="350.353" r="14.4" fill="#009af9" fill-rule="evenodd" fill-opacity="1" stroke="#000000" stroke-opacity="1" stroke-width="3.2"></circle>
<circle clip-path="url(#clip282)" cx="2160.28" cy="329.896" r="14.4" fill="#009af9" fill-rule="evenodd" fill-opacity="1" stroke="#000000" stroke-opacity="1" stroke-width="3.2"></circle>
<circle clip-path="url(#clip282)" cx="2179.24" cy="310.285" r="14.4" fill="#009af9" fill-rule="evenodd" fill-opacity="1" stroke="#000000" stroke-opacity="1" stroke-width="3.2"></circle>
<circle clip-path="url(#clip282)" cx="2198.2" cy="289.921" r="14.4" fill="#009af9" fill-rule="evenodd" fill-opacity="1" stroke="#000000" stroke-opacity="1" stroke-width="3.2"></circle>
<circle clip-path="url(#clip282)" cx="2217.17" cy="289.921" r="14.4" fill="#009af9" fill-rule="evenodd" fill-opacity="1" stroke="#000000" stroke-opacity="1" stroke-width="3.2"></circle>
<circle clip-path="url(#clip282)" cx="2236.13" cy="236.12" r="14.4" fill="#009af9" fill-rule="evenodd" fill-opacity="1" stroke="#000000" stroke-opacity="1" stroke-width="3.2"></circle>
<circle clip-path="url(#clip282)" cx="2255.09" cy="202.63" r="14.4" fill="#009af9" fill-rule="evenodd" fill-opacity="1" stroke="#000000" stroke-opacity="1" stroke-width="3.2"></circle>
<circle clip-path="url(#clip282)" cx="2274.06" cy="161.112" r="14.4" fill="#009af9" fill-rule="evenodd" fill-opacity="1" stroke="#000000" stroke-opacity="1" stroke-width="3.2"></circle>
<circle clip-path="url(#clip282)" cx="2293.02" cy="86.1857" r="14.4" fill="#009af9" fill-rule="evenodd" fill-opacity="1" stroke="#000000" stroke-opacity="1" stroke-width="3.2"></circle>
</svg>