<svg xmlns="http://www.w3.org/2000/svg" xmlns:xlink="http://www.w3.org/1999/xlink" width="600" height="400" viewBox="0 0 2400 1600">
<defs>
  <clipPath id="clip860">
    <rect x="0" y="0" width="2400" height="1600"></rect>
  </clipPath>
</defs>
<path clip-path="url(#clip860)" d="M0 1600 L2400 1600 L2400 0 L0 0  Z" fill="#ffffff" fill-rule="evenodd" fill-opacity="1"></path>
<defs>
  <clipPath id="clip861">
    <rect x="480" y="0" width="1681" height="1600"></rect>
  </clipPath>
</defs>
<defs>
  <clipPath id="clip862">
    <rect x="232" y="47" width="2121" height="1377"></rect>
  </clipPath>
</defs>
<path clip-path="url(#clip860)" d="M234.125 1423.18 L2352.76 1423.18 L2352.76 47.2441 L234.125 47.2441  Z" fill="#ffffff" fill-rule="evenodd" fill-opacity="1"></path>
<defs>
  <clipPath id="clip863">
    <rect x="234" y="47" width="2120" height="1377"></rect>
  </clipPath>
</defs>
<polyline clip-path="url(#clip863)" style="stroke:#000000; stroke-linecap:round; stroke-linejoin:round; stroke-width:2; stroke-opacity:0.1; fill:none" points="262.976,1423.18 262.976,47.2441 "></polyline>
<polyline clip-path="url(#clip863)" style="stroke:#000000; stroke-linecap:round; stroke-linejoin:round; stroke-width:2; stroke-opacity:0.1; fill:none" points="697.478,1423.18 697.478,47.2441 "></polyline>
<polyline clip-path="url(#clip863)" style="stroke:#000000; stroke-linecap:round; stroke-linejoin:round; stroke-width:2; stroke-opacity:0.1; fill:none" points="1131.98,1423.18 1131.98,47.2441 "></polyline>
<polyline clip-path="url(#clip863)" style="stroke:#000000; stroke-linecap:round; stroke-linejoin:round; stroke-width:2; stroke-opacity:0.1; fill:none" points="1566.48,1423.18 1566.48,47.2441 "></polyline>
<polyline clip-path="url(#clip863)" style="stroke:#000000; stroke-linecap:round; stroke-linejoin:round; stroke-width:2; stroke-opacity:0.1; fill:none" points="2000.98,1423.18 2000.98,47.2441 "></polyline>
<polyline clip-path="url(#clip860)" style="stroke:#000000; stroke-linecap:round; stroke-linejoin:round; stroke-width:4; stroke-opacity:1; fill:none" points="234.125,1423.18 2352.76,1423.18 "></polyline>
<polyline clip-path="url(#clip860)" style="stroke:#000000; stroke-linecap:round; stroke-linejoin:round; stroke-width:4; stroke-opacity:1; fill:none" points="262.976,1423.18 262.976,1404.28 "></polyline>
<polyline clip-path="url(#clip860)" style="stroke:#000000; stroke-linecap:round; stroke-linejoin:round; stroke-width:4; stroke-opacity:1; fill:none" points="697.478,1423.18 697.478,1404.28 "></polyline>
<polyline clip-path="url(#clip860)" style="stroke:#000000; stroke-linecap:round; stroke-linejoin:round; stroke-width:4; stroke-opacity:1; fill:none" points="1131.98,1423.18 1131.98,1404.28 "></polyline>
<polyline clip-path="url(#clip860)" style="stroke:#000000; stroke-linecap:round; stroke-linejoin:round; stroke-width:4; stroke-opacity:1; fill:none" points="1566.48,1423.18 1566.48,1404.28 "></polyline>
<polyline clip-path="url(#clip860)" style="stroke:#000000; stroke-linecap:round; stroke-linejoin:round; stroke-width:4; stroke-opacity:1; fill:none" points="2000.98,1423.18 2000.98,1404.28 "></polyline>
<path clip-path="url(#clip860)" d="M222.595 1451.02 L240.951 1451.02 L240.951 1454.96 L226.877 1454.96 L226.877 1463.43 Q227.896 1463.08 228.914 1462.92 Q229.933 1462.73 230.951 1462.73 Q236.738 1462.73 240.118 1465.9 Q243.497 1469.08 243.497 1474.49 Q243.497 1480.07 240.025 1483.17 Q236.553 1486.25 230.233 1486.25 Q228.058 1486.25 225.789 1485.88 Q223.544 1485.51 221.136 1484.77 L221.136 1480.07 Q223.22 1481.2 225.442 1481.76 Q227.664 1482.32 230.141 1482.32 Q234.145 1482.32 236.483 1480.21 Q238.821 1478.1 238.821 1474.49 Q238.821 1470.88 236.483 1468.77 Q234.145 1466.67 230.141 1466.67 Q228.266 1466.67 226.391 1467.08 Q224.539 1467.5 222.595 1468.38 L222.595 1451.02 Z" fill="#000000" fill-rule="nonzero" fill-opacity="1"></path><path clip-path="url(#clip860)" d="M262.71 1454.1 Q259.099 1454.1 257.27 1457.66 Q255.465 1461.2 255.465 1468.33 Q255.465 1475.44 257.27 1479.01 Q259.099 1482.55 262.71 1482.55 Q266.344 1482.55 268.15 1479.01 Q269.979 1475.44 269.979 1468.33 Q269.979 1461.2 268.15 1457.66 Q266.344 1454.1 262.71 1454.1 M262.71 1450.39 Q268.52 1450.39 271.576 1455 Q274.655 1459.58 274.655 1468.33 Q274.655 1477.06 271.576 1481.67 Q268.52 1486.25 262.71 1486.25 Q256.9 1486.25 253.821 1481.67 Q250.766 1477.06 250.766 1468.33 Q250.766 1459.58 253.821 1455 Q256.9 1450.39 262.71 1450.39 Z" fill="#000000" fill-rule="nonzero" fill-opacity="1"></path><path clip-path="url(#clip860)" d="M292.872 1454.1 Q289.261 1454.1 287.432 1457.66 Q285.627 1461.2 285.627 1468.33 Q285.627 1475.44 287.432 1479.01 Q289.261 1482.55 292.872 1482.55 Q296.506 1482.55 298.312 1479.01 Q300.141 1475.44 300.141 1468.33 Q300.141 1461.2 298.312 1457.66 Q296.506 1454.1 292.872 1454.1 M292.872 1450.39 Q298.682 1450.39 301.738 1455 Q304.816 1459.58 304.816 1468.33 Q304.816 1477.06 301.738 1481.67 Q298.682 1486.25 292.872 1486.25 Q287.062 1486.25 283.983 1481.67 Q280.928 1477.06 280.928 1468.33 Q280.928 1459.58 283.983 1455 Q287.062 1450.39 292.872 1450.39 Z" fill="#000000" fill-rule="nonzero" fill-opacity="1"></path><path clip-path="url(#clip860)" d="M655.754 1451.02 L677.976 1451.02 L677.976 1453.01 L665.43 1485.58 L660.545 1485.58 L672.351 1454.96 L655.754 1454.96 L655.754 1451.02 Z" fill="#000000" fill-rule="nonzero" fill-opacity="1"></path><path clip-path="url(#clip860)" d="M687.143 1451.02 L705.499 1451.02 L705.499 1454.96 L691.425 1454.96 L691.425 1463.43 Q692.443 1463.08 693.462 1462.92 Q694.48 1462.73 695.499 1462.73 Q701.286 1462.73 704.666 1465.9 Q708.045 1469.08 708.045 1474.49 Q708.045 1480.07 704.573 1483.17 Q701.101 1486.25 694.781 1486.25 Q692.605 1486.25 690.337 1485.88 Q688.092 1485.51 685.684 1484.77 L685.684 1480.07 Q687.768 1481.2 689.99 1481.76 Q692.212 1482.32 694.689 1482.32 Q698.693 1482.32 701.031 1480.21 Q703.369 1478.1 703.369 1474.49 Q703.369 1470.88 701.031 1468.77 Q698.693 1466.67 694.689 1466.67 Q692.814 1466.67 690.939 1467.08 Q689.087 1467.5 687.143 1468.38 L687.143 1451.02 Z" fill="#000000" fill-rule="nonzero" fill-opacity="1"></path><path clip-path="url(#clip860)" d="M727.258 1454.1 Q723.647 1454.1 721.818 1457.66 Q720.013 1461.2 720.013 1468.33 Q720.013 1475.44 721.818 1479.01 Q723.647 1482.55 727.258 1482.55 Q730.892 1482.55 732.698 1479.01 Q734.527 1475.44 734.527 1468.33 Q734.527 1461.2 732.698 1457.66 Q730.892 1454.1 727.258 1454.1 M727.258 1450.39 Q733.068 1450.39 736.124 1455 Q739.202 1459.58 739.202 1468.33 Q739.202 1477.06 736.124 1481.67 Q733.068 1486.25 727.258 1486.25 Q721.448 1486.25 718.369 1481.67 Q715.314 1477.06 715.314 1468.33 Q715.314 1459.58 718.369 1455 Q721.448 1450.39 727.258 1450.39 Z" fill="#000000" fill-rule="nonzero" fill-opacity="1"></path><path clip-path="url(#clip860)" d="M1076.51 1481.64 L1084.14 1481.64 L1084.14 1455.28 L1075.83 1456.95 L1075.83 1452.69 L1084.1 1451.02 L1088.77 1451.02 L1088.77 1481.64 L1096.41 1481.64 L1096.41 1485.58 L1076.51 1485.58 L1076.51 1481.64 Z" fill="#000000" fill-rule="nonzero" fill-opacity="1"></path><path clip-path="url(#clip860)" d="M1115.86 1454.1 Q1112.25 1454.1 1110.42 1457.66 Q1108.61 1461.2 1108.61 1468.33 Q1108.61 1475.44 1110.42 1479.01 Q1112.25 1482.55 1115.86 1482.55 Q1119.49 1482.55 1121.3 1479.01 Q1123.13 1475.44 1123.13 1468.33 Q1123.13 1461.2 1121.3 1457.66 Q1119.49 1454.1 1115.86 1454.1 M1115.86 1450.39 Q1121.67 1450.39 1124.72 1455 Q1127.8 1459.58 1127.8 1468.33 Q1127.8 1477.06 1124.72 1481.67 Q1121.67 1486.25 1115.86 1486.25 Q1110.05 1486.25 1106.97 1481.67 Q1103.91 1477.06 1103.91 1468.33 Q1103.91 1459.58 1106.97 1455 Q1110.05 1450.39 1115.86 1450.39 Z" fill="#000000" fill-rule="nonzero" fill-opacity="1"></path><path clip-path="url(#clip860)" d="M1146.02 1454.1 Q1142.41 1454.1 1140.58 1457.66 Q1138.77 1461.2 1138.77 1468.33 Q1138.77 1475.44 1140.58 1479.01 Q1142.41 1482.55 1146.02 1482.55 Q1149.65 1482.55 1151.46 1479.01 Q1153.29 1475.44 1153.29 1468.33 Q1153.29 1461.2 1151.46 1457.66 Q1149.65 1454.1 1146.02 1454.1 M1146.02 1450.39 Q1151.83 1450.39 1154.88 1455 Q1157.96 1459.58 1157.96 1468.33 Q1157.96 1477.06 1154.88 1481.67 Q1151.83 1486.25 1146.02 1486.25 Q1140.21 1486.25 1137.13 1481.67 Q1134.07 1477.06 1134.07 1468.33 Q1134.07 1459.58 1137.13 1455 Q1140.21 1450.39 1146.02 1450.39 Z" fill="#000000" fill-rule="nonzero" fill-opacity="1"></path><path clip-path="url(#clip860)" d="M1176.18 1454.1 Q1172.57 1454.1 1170.74 1457.66 Q1168.94 1461.2 1168.94 1468.33 Q1168.94 1475.44 1170.74 1479.01 Q1172.57 1482.55 1176.18 1482.55 Q1179.82 1482.55 1181.62 1479.01 Q1183.45 1475.44 1183.45 1468.33 Q1183.45 1461.2 1181.62 1457.66 Q1179.82 1454.1 1176.18 1454.1 M1176.18 1450.39 Q1181.99 1450.39 1185.05 1455 Q1188.13 1459.58 1188.13 1468.33 Q1188.13 1477.06 1185.05 1481.67 Q1181.99 1486.25 1176.18 1486.25 Q1170.37 1486.25 1167.29 1481.67 Q1164.24 1477.06 1164.24 1468.33 Q1164.24 1459.58 1167.29 1455 Q1170.37 1450.39 1176.18 1450.39 Z" fill="#000000" fill-rule="nonzero" fill-opacity="1"></path><path clip-path="url(#clip860)" d="M1511.01 1481.64 L1518.65 1481.64 L1518.65 1455.28 L1510.34 1456.95 L1510.34 1452.69 L1518.6 1451.02 L1523.28 1451.02 L1523.28 1481.64 L1530.91 1481.64 L1530.91 1485.58 L1511.01 1485.58 L1511.01 1481.64 Z" fill="#000000" fill-rule="nonzero" fill-opacity="1"></path><path clip-path="url(#clip860)" d="M1544.39 1481.64 L1560.71 1481.64 L1560.71 1485.58 L1538.76 1485.58 L1538.76 1481.64 Q1541.42 1478.89 1546.01 1474.26 Q1550.61 1469.61 1551.79 1468.27 Q1554.04 1465.74 1554.92 1464.01 Q1555.82 1462.25 1555.82 1460.56 Q1555.82 1457.8 1553.88 1456.07 Q1551.96 1454.33 1548.85 1454.33 Q1546.66 1454.33 1544.2 1455.09 Q1541.77 1455.86 1538.99 1457.41 L1538.99 1452.69 Q1541.82 1451.55 1544.27 1450.97 Q1546.72 1450.39 1548.76 1450.39 Q1554.13 1450.39 1557.33 1453.08 Q1560.52 1455.77 1560.52 1460.26 Q1560.52 1462.39 1559.71 1464.31 Q1558.92 1466.2 1556.82 1468.8 Q1556.24 1469.47 1553.14 1472.69 Q1550.03 1475.88 1544.39 1481.64 Z" fill="#000000" fill-rule="nonzero" fill-opacity="1"></path><path clip-path="url(#clip860)" d="M1570.57 1451.02 L1588.92 1451.02 L1588.92 1454.96 L1574.85 1454.96 L1574.85 1463.43 Q1575.87 1463.08 1576.89 1462.92 Q1577.91 1462.73 1578.92 1462.73 Q1584.71 1462.73 1588.09 1465.9 Q1591.47 1469.08 1591.47 1474.49 Q1591.47 1480.07 1588 1483.17 Q1584.53 1486.25 1578.21 1486.25 Q1576.03 1486.25 1573.76 1485.88 Q1571.52 1485.51 1569.11 1484.77 L1569.11 1480.07 Q1571.19 1481.2 1573.41 1481.76 Q1575.64 1482.32 1578.11 1482.32 Q1582.12 1482.32 1584.46 1480.21 Q1586.79 1478.1 1586.79 1474.49 Q1586.79 1470.88 1584.46 1468.77 Q1582.12 1466.67 1578.11 1466.67 Q1576.24 1466.67 1574.36 1467.08 Q1572.51 1467.5 1570.57 1468.38 L1570.57 1451.02 Z" fill="#000000" fill-rule="nonzero" fill-opacity="1"></path><path clip-path="url(#clip860)" d="M1610.68 1454.1 Q1607.07 1454.1 1605.24 1457.66 Q1603.44 1461.2 1603.44 1468.33 Q1603.44 1475.44 1605.24 1479.01 Q1607.07 1482.55 1610.68 1482.55 Q1614.32 1482.55 1616.12 1479.01 Q1617.95 1475.44 1617.95 1468.33 Q1617.95 1461.2 1616.12 1457.66 Q1614.32 1454.1 1610.68 1454.1 M1610.68 1450.39 Q1616.49 1450.39 1619.55 1455 Q1622.63 1459.58 1622.63 1468.33 Q1622.63 1477.06 1619.55 1481.67 Q1616.49 1486.25 1610.68 1486.25 Q1604.87 1486.25 1601.79 1481.67 Q1598.74 1477.06 1598.74 1468.33 Q1598.74 1459.58 1601.79 1455 Q1604.87 1450.39 1610.68 1450.39 Z" fill="#000000" fill-rule="nonzero" fill-opacity="1"></path><path clip-path="url(#clip860)" d="M1945.51 1481.64 L1953.15 1481.64 L1953.15 1455.28 L1944.84 1456.95 L1944.84 1452.69 L1953.1 1451.02 L1957.78 1451.02 L1957.78 1481.64 L1965.42 1481.64 L1965.42 1485.58 L1945.51 1485.58 L1945.51 1481.64 Z" fill="#000000" fill-rule="nonzero" fill-opacity="1"></path><path clip-path="url(#clip860)" d="M1974.91 1451.02 L1993.26 1451.02 L1993.26 1454.96 L1979.19 1454.96 L1979.19 1463.43 Q1980.21 1463.08 1981.23 1462.92 Q1982.24 1462.73 1983.26 1462.73 Q1989.05 1462.73 1992.43 1465.9 Q1995.81 1469.08 1995.81 1474.49 Q1995.81 1480.07 1992.34 1483.17 Q1988.87 1486.25 1982.55 1486.25 Q1980.37 1486.25 1978.1 1485.88 Q1975.86 1485.51 1973.45 1484.77 L1973.45 1480.07 Q1975.53 1481.2 1977.75 1481.76 Q1979.98 1482.32 1982.45 1482.32 Q1986.46 1482.32 1988.8 1480.21 Q1991.13 1478.1 1991.13 1474.49 Q1991.13 1470.88 1988.8 1468.77 Q1986.46 1466.67 1982.45 1466.67 Q1980.58 1466.67 1978.7 1467.08 Q1976.85 1467.5 1974.91 1468.38 L1974.91 1451.02 Z" fill="#000000" fill-rule="nonzero" fill-opacity="1"></path><path clip-path="url(#clip860)" d="M2015.02 1454.1 Q2011.41 1454.1 2009.58 1457.66 Q2007.78 1461.2 2007.78 1468.33 Q2007.78 1475.44 2009.58 1479.01 Q2011.41 1482.55 2015.02 1482.55 Q2018.66 1482.55 2020.46 1479.01 Q2022.29 1475.44 2022.29 1468.33 Q2022.29 1461.2 2020.46 1457.66 Q2018.66 1454.1 2015.02 1454.1 M2015.02 1450.39 Q2020.83 1450.39 2023.89 1455 Q2026.97 1459.58 2026.97 1468.33 Q2026.97 1477.06 2023.89 1481.67 Q2020.83 1486.25 2015.02 1486.25 Q2009.21 1486.25 2006.13 1481.67 Q2003.08 1477.06 2003.08 1468.33 Q2003.08 1459.58 2006.13 1455 Q2009.21 1450.39 2015.02 1450.39 Z" fill="#000000" fill-rule="nonzero" fill-opacity="1"></path><path clip-path="url(#clip860)" d="M2045.18 1454.1 Q2041.57 1454.1 2039.74 1457.66 Q2037.94 1461.2 2037.94 1468.33 Q2037.94 1475.44 2039.74 1479.01 Q2041.57 1482.55 2045.18 1482.55 Q2048.82 1482.55 2050.62 1479.01 Q2052.45 1475.44 2052.45 1468.33 Q2052.45 1461.2 2050.62 1457.66 Q2048.82 1454.1 2045.18 1454.1 M2045.18 1450.39 Q2050.99 1450.39 2054.05 1455 Q2057.13 1459.58 2057.13 1468.33 Q2057.13 1477.06 2054.05 1481.67 Q2050.99 1486.25 2045.18 1486.25 Q2039.37 1486.25 2036.3 1481.67 Q2033.24 1477.06 2033.24 1468.33 Q2033.24 1459.58 2036.3 1455 Q2039.37 1450.39 2045.18 1450.39 Z" fill="#000000" fill-rule="nonzero" fill-opacity="1"></path><path clip-path="url(#clip860)" d="M968.169 1520.52 L977.749 1520.52 L989.876 1552.86 L1002.07 1520.52 L1011.65 1520.52 L1011.65 1568.04 L1005.38 1568.04 L1005.38 1526.32 L993.123 1558.91 L986.661 1558.91 L974.407 1526.32 L974.407 1568.04 L968.169 1568.04 L968.169 1520.52 Z" fill="#000000" fill-rule="nonzero" fill-opacity="1"></path><path clip-path="url(#clip860)" d="M1024.16 1532.4 L1030.01 1532.4 L1030.01 1568.04 L1024.16 1568.04 L1024.16 1532.4 M1024.16 1518.52 L1030.01 1518.52 L1030.01 1525.93 L1024.16 1525.93 L1024.16 1518.52 Z" fill="#000000" fill-rule="nonzero" fill-opacity="1"></path><path clip-path="url(#clip860)" d="M1071.9 1532.4 L1059.01 1549.74 L1072.57 1568.04 L1065.66 1568.04 L1055.28 1554.04 L1044.91 1568.04 L1038 1568.04 L1051.85 1549.39 L1039.18 1532.4 L1046.09 1532.4 L1055.54 1545.1 L1064.99 1532.4 L1071.9 1532.4 Z" fill="#000000" fill-rule="nonzero" fill-opacity="1"></path><path clip-path="url(#clip860)" d="M1109.33 1548.76 L1109.33 1551.62 L1082.4 1551.62 Q1082.78 1557.67 1086.03 1560.85 Q1089.31 1564 1095.13 1564 Q1098.51 1564 1101.66 1563.17 Q1104.84 1562.35 1107.96 1560.69 L1107.96 1566.23 Q1104.81 1567.57 1101.5 1568.27 Q1098.19 1568.97 1094.78 1568.97 Q1086.25 1568.97 1081.26 1564 Q1076.29 1559.04 1076.29 1550.57 Q1076.29 1541.82 1081 1536.69 Q1085.74 1531.54 1093.76 1531.54 Q1100.96 1531.54 1105.13 1536.18 Q1109.33 1540.8 1109.33 1548.76 M1103.47 1547.04 Q1103.41 1542.23 1100.77 1539.37 Q1098.16 1536.5 1093.83 1536.5 Q1088.93 1536.5 1085.97 1539.27 Q1083.04 1542.04 1082.59 1547.07 L1103.47 1547.04 Z" fill="#000000" fill-rule="nonzero" fill-opacity="1"></path><path clip-path="url(#clip860)" d="M1139.6 1537.87 Q1138.61 1537.3 1137.43 1537.04 Q1136.29 1536.76 1134.89 1536.76 Q1129.92 1536.76 1127.25 1540 Q1124.61 1543.22 1124.61 1549.27 L1124.61 1568.04 L1118.72 1568.04 L1118.72 1532.4 L1124.61 1532.4 L1124.61 1537.93 Q1126.45 1534.69 1129.41 1533.13 Q1132.37 1531.54 1136.61 1531.54 Q1137.21 1531.54 1137.94 1531.63 Q1138.67 1531.7 1139.57 1531.85 L1139.6 1537.87 Z" fill="#000000" fill-rule="nonzero" fill-opacity="1"></path><path clip-path="url(#clip860)" d="M1173.14 1525.81 L1173.14 1543.66 L1181.23 1543.66 Q1185.72 1543.66 1188.17 1541.34 Q1190.62 1539.02 1190.62 1534.72 Q1190.62 1530.45 1188.17 1528.13 Q1185.72 1525.81 1181.23 1525.81 L1173.14 1525.81 M1166.72 1520.52 L1181.23 1520.52 Q1189.22 1520.52 1193.29 1524.15 Q1197.4 1527.75 1197.4 1534.72 Q1197.4 1541.75 1193.29 1545.35 Q1189.22 1548.95 1181.23 1548.95 L1173.14 1548.95 L1173.14 1568.04 L1166.72 1568.04 L1166.72 1520.52 Z" fill="#000000" fill-rule="nonzero" fill-opacity="1"></path><path clip-path="url(#clip860)" d="M1225.28 1537.87 Q1224.29 1537.3 1223.12 1537.04 Q1221.97 1536.76 1220.57 1536.76 Q1215.6 1536.76 1212.93 1540 Q1210.29 1543.22 1210.29 1549.27 L1210.29 1568.04 L1204.4 1568.04 L1204.4 1532.4 L1210.29 1532.4 L1210.29 1537.93 Q1212.13 1534.69 1215.09 1533.13 Q1218.05 1531.54 1222.29 1531.54 Q1222.89 1531.54 1223.62 1531.63 Q1224.36 1531.7 1225.25 1531.85 L1225.28 1537.87 Z" fill="#000000" fill-rule="nonzero" fill-opacity="1"></path><path clip-path="url(#clip860)" d="M1260.48 1548.76 L1260.48 1551.62 L1233.56 1551.62 Q1233.94 1557.67 1237.18 1560.85 Q1240.46 1564 1246.29 1564 Q1249.66 1564 1252.81 1563.17 Q1255.99 1562.35 1259.11 1560.69 L1259.11 1566.23 Q1255.96 1567.57 1252.65 1568.27 Q1249.34 1568.97 1245.94 1568.97 Q1237.41 1568.97 1232.41 1564 Q1227.44 1559.04 1227.44 1550.57 Q1227.44 1541.82 1232.15 1536.69 Q1236.9 1531.54 1244.92 1531.54 Q1252.11 1531.54 1256.28 1536.18 Q1260.48 1540.8 1260.48 1548.76 M1254.63 1547.04 Q1254.56 1542.23 1251.92 1539.37 Q1249.31 1536.5 1244.98 1536.5 Q1240.08 1536.5 1237.12 1539.27 Q1234.19 1542.04 1233.75 1547.07 L1254.63 1547.04 Z" fill="#000000" fill-rule="nonzero" fill-opacity="1"></path><path clip-path="url(#clip860)" d="M1292.82 1533.45 L1292.82 1538.98 Q1290.34 1537.71 1287.66 1537.07 Q1284.99 1536.44 1282.13 1536.44 Q1277.77 1536.44 1275.57 1537.77 Q1273.4 1539.11 1273.4 1541.79 Q1273.4 1543.82 1274.96 1545 Q1276.52 1546.15 1281.23 1547.2 L1283.24 1547.64 Q1289.48 1548.98 1292.09 1551.43 Q1294.73 1553.85 1294.73 1558.21 Q1294.73 1563.17 1290.78 1566.07 Q1286.87 1568.97 1279.99 1568.97 Q1277.13 1568.97 1274.01 1568.39 Q1270.92 1567.85 1267.48 1566.74 L1267.48 1560.69 Q1270.73 1562.38 1273.88 1563.24 Q1277.03 1564.07 1280.12 1564.07 Q1284.26 1564.07 1286.49 1562.66 Q1288.71 1561.23 1288.71 1558.65 Q1288.71 1556.27 1287.09 1554.99 Q1285.5 1553.72 1280.06 1552.54 L1278.02 1552.07 Q1272.58 1550.92 1270.16 1548.56 Q1267.74 1546.18 1267.74 1542.04 Q1267.74 1537.01 1271.3 1534.27 Q1274.87 1531.54 1281.43 1531.54 Q1284.67 1531.54 1287.54 1532.01 Q1290.4 1532.49 1292.82 1533.45 Z" fill="#000000" fill-rule="nonzero" fill-opacity="1"></path><path clip-path="url(#clip860)" d="M1326.78 1533.45 L1326.78 1538.98 Q1324.3 1537.71 1321.62 1537.07 Q1318.95 1536.44 1316.09 1536.44 Q1311.73 1536.44 1309.53 1537.77 Q1307.37 1539.11 1307.37 1541.79 Q1307.37 1543.82 1308.93 1545 Q1310.48 1546.15 1315.2 1547.2 L1317.2 1547.64 Q1323.44 1548.98 1326.05 1551.43 Q1328.69 1553.85 1328.69 1558.21 Q1328.69 1563.17 1324.74 1566.07 Q1320.83 1568.97 1313.95 1568.97 Q1311.09 1568.97 1307.97 1568.39 Q1304.88 1567.85 1301.45 1566.74 L1301.45 1560.69 Q1304.69 1562.38 1307.84 1563.24 Q1310.99 1564.07 1314.08 1564.07 Q1318.22 1564.07 1320.45 1562.66 Q1322.68 1561.23 1322.68 1558.65 Q1322.68 1556.27 1321.05 1554.99 Q1319.46 1553.72 1314.02 1552.54 L1311.98 1552.07 Q1306.54 1550.92 1304.12 1548.56 Q1301.7 1546.18 1301.7 1542.04 Q1301.7 1537.01 1305.26 1534.27 Q1308.83 1531.54 1315.39 1531.54 Q1318.63 1531.54 1321.5 1532.01 Q1324.36 1532.49 1326.78 1533.45 Z" fill="#000000" fill-rule="nonzero" fill-opacity="1"></path><path clip-path="url(#clip860)" d="M1337.41 1553.98 L1337.41 1532.4 L1343.27 1532.4 L1343.27 1553.75 Q1343.27 1558.81 1345.24 1561.36 Q1347.21 1563.87 1351.16 1563.87 Q1355.9 1563.87 1358.64 1560.85 Q1361.41 1557.83 1361.41 1552.61 L1361.41 1532.4 L1367.27 1532.4 L1367.27 1568.04 L1361.41 1568.04 L1361.41 1562.57 Q1359.28 1565.82 1356.45 1567.41 Q1353.64 1568.97 1349.92 1568.97 Q1343.78 1568.97 1340.59 1565.15 Q1337.41 1561.33 1337.41 1553.98 M1352.15 1531.54 L1352.15 1531.54 Z" fill="#000000" fill-rule="nonzero" fill-opacity="1"></path><path clip-path="url(#clip860)" d="M1399.99 1537.87 Q1399 1537.3 1397.82 1537.04 Q1396.68 1536.76 1395.28 1536.76 Q1390.31 1536.76 1387.64 1540 Q1385 1543.22 1385 1549.27 L1385 1568.04 L1379.11 1568.04 L1379.11 1532.4 L1385 1532.4 L1385 1537.93 Q1386.84 1534.69 1389.8 1533.13 Q1392.76 1531.54 1396.99 1531.54 Q1397.6 1531.54 1398.33 1531.63 Q1399.06 1531.7 1399.95 1531.85 L1399.99 1537.87 Z" fill="#000000" fill-rule="nonzero" fill-opacity="1"></path><path clip-path="url(#clip860)" d="M1435.19 1548.76 L1435.19 1551.62 L1408.26 1551.62 Q1408.64 1557.67 1411.89 1560.85 Q1415.17 1564 1420.99 1564 Q1424.37 1564 1427.52 1563.17 Q1430.7 1562.35 1433.82 1560.69 L1433.82 1566.23 Q1430.67 1567.57 1427.36 1568.27 Q1424.05 1568.97 1420.64 1568.97 Q1412.11 1568.97 1407.12 1564 Q1402.15 1559.04 1402.15 1550.57 Q1402.15 1541.82 1406.86 1536.69 Q1411.6 1531.54 1419.62 1531.54 Q1426.82 1531.54 1430.99 1536.18 Q1435.19 1540.8 1435.19 1548.76 M1429.33 1547.04 Q1429.27 1542.23 1426.63 1539.37 Q1424.02 1536.5 1419.69 1536.5 Q1414.79 1536.5 1411.83 1539.27 Q1408.9 1542.04 1408.45 1547.07 L1429.33 1547.04 Z" fill="#000000" fill-rule="nonzero" fill-opacity="1"></path><path clip-path="url(#clip860)" d="M1464.98 1518.52 L1478.48 1518.52 L1478.48 1523.07 L1470.84 1523.07 L1470.84 1572.09 L1478.48 1572.09 L1478.48 1576.64 L1464.98 1576.64 L1464.98 1518.52 Z" fill="#000000" fill-rule="nonzero" fill-opacity="1"></path><path clip-path="url(#clip860)" d="M1490.73 1518.52 L1496.62 1518.52 L1496.62 1547.77 L1514.09 1532.4 L1521.57 1532.4 L1502.67 1549.07 L1522.37 1568.04 L1514.73 1568.04 L1496.62 1550.63 L1496.62 1568.04 L1490.73 1568.04 L1490.73 1518.52 Z" fill="#000000" fill-rule="nonzero" fill-opacity="1"></path><path clip-path="url(#clip860)" d="M1535.39 1525.81 L1535.39 1543.66 L1543.47 1543.66 Q1547.96 1543.66 1550.41 1541.34 Q1552.86 1539.02 1552.86 1534.72 Q1552.86 1530.45 1550.41 1528.13 Q1547.96 1525.81 1543.47 1525.81 L1535.39 1525.81 M1528.96 1520.52 L1543.47 1520.52 Q1551.46 1520.52 1555.53 1524.15 Q1559.64 1527.75 1559.64 1534.72 Q1559.64 1541.75 1555.53 1545.35 Q1551.46 1548.95 1543.47 1548.95 L1535.39 1548.95 L1535.39 1568.04 L1528.96 1568.04 L1528.96 1520.52 Z" fill="#000000" fill-rule="nonzero" fill-opacity="1"></path><path clip-path="url(#clip860)" d="M1581.28 1550.12 Q1574.18 1550.12 1571.45 1551.75 Q1568.71 1553.37 1568.71 1557.29 Q1568.71 1560.4 1570.75 1562.25 Q1572.82 1564.07 1576.35 1564.07 Q1581.22 1564.07 1584.15 1560.63 Q1587.11 1557.16 1587.11 1551.43 L1587.11 1550.12 L1581.28 1550.12 M1592.96 1547.71 L1592.96 1568.04 L1587.11 1568.04 L1587.11 1562.63 Q1585.1 1565.88 1582.11 1567.44 Q1579.12 1568.97 1574.79 1568.97 Q1569.31 1568.97 1566.07 1565.91 Q1562.85 1562.82 1562.85 1557.67 Q1562.85 1551.65 1566.86 1548.6 Q1570.91 1545.54 1578.89 1545.54 L1587.11 1545.54 L1587.11 1544.97 Q1587.11 1540.93 1584.43 1538.73 Q1581.79 1536.5 1576.99 1536.5 Q1573.93 1536.5 1571.03 1537.23 Q1568.14 1537.97 1565.46 1539.43 L1565.46 1534.02 Q1568.68 1532.78 1571.7 1532.17 Q1574.73 1531.54 1577.59 1531.54 Q1585.32 1531.54 1589.14 1535.55 Q1592.96 1539.56 1592.96 1547.71 Z" fill="#000000" fill-rule="nonzero" fill-opacity="1"></path><path clip-path="url(#clip860)" d="M1618.71 1518.52 L1618.71 1576.64 L1605.22 1576.64 L1605.22 1572.09 L1612.82 1572.09 L1612.82 1523.07 L1605.22 1523.07 L1605.22 1518.52 L1618.71 1518.52 Z" fill="#000000" fill-rule="nonzero" fill-opacity="1"></path><polyline clip-path="url(#clip863)" style="stroke:#000000; stroke-linecap:round; stroke-linejoin:round; stroke-width:2; stroke-opacity:0.1; fill:none" points="234.125,1167.06 2352.76,1167.06 "></polyline>
<polyline clip-path="url(#clip863)" style="stroke:#000000; stroke-linecap:round; stroke-linejoin:round; stroke-width:2; stroke-opacity:0.1; fill:none" points="234.125,818.989 2352.76,818.989 "></polyline>
<polyline clip-path="url(#clip863)" style="stroke:#000000; stroke-linecap:round; stroke-linejoin:round; stroke-width:2; stroke-opacity:0.1; fill:none" points="234.125,470.914 2352.76,470.914 "></polyline>
<polyline clip-path="url(#clip863)" style="stroke:#000000; stroke-linecap:round; stroke-linejoin:round; stroke-width:2; stroke-opacity:0.1; fill:none" points="234.125,122.839 2352.76,122.839 "></polyline>
<polyline clip-path="url(#clip860)" style="stroke:#000000; stroke-linecap:round; stroke-linejoin:round; stroke-width:4; stroke-opacity:1; fill:none" points="234.125,1423.18 234.125,47.2441 "></polyline>
<polyline clip-path="url(#clip860)" style="stroke:#000000; stroke-linecap:round; stroke-linejoin:round; stroke-width:4; stroke-opacity:1; fill:none" points="234.125,1167.06 253.023,1167.06 "></polyline>
<polyline clip-path="url(#clip860)" style="stroke:#000000; stroke-linecap:round; stroke-linejoin:round; stroke-width:4; stroke-opacity:1; fill:none" points="234.125,818.989 253.023,818.989 "></polyline>
<polyline clip-path="url(#clip860)" style="stroke:#000000; stroke-linecap:round; stroke-linejoin:round; stroke-width:4; stroke-opacity:1; fill:none" points="234.125,470.914 253.023,470.914 "></polyline>
<polyline clip-path="url(#clip860)" style="stroke:#000000; stroke-linecap:round; stroke-linejoin:round; stroke-width:4; stroke-opacity:1; fill:none" points="234.125,122.839 253.023,122.839 "></polyline>
<path clip-path="url(#clip860)" d="M146.066 1149.78 L164.422 1149.78 L164.422 1153.72 L150.348 1153.72 L150.348 1162.19 Q151.366 1161.84 152.385 1161.68 Q153.403 1161.5 154.422 1161.5 Q160.209 1161.5 163.589 1164.67 Q166.968 1167.84 166.968 1173.26 Q166.968 1178.84 163.496 1181.94 Q160.024 1185.02 153.704 1185.02 Q151.528 1185.02 149.26 1184.65 Q147.015 1184.27 144.607 1183.53 L144.607 1178.84 Q146.691 1179.97 148.913 1180.52 Q151.135 1181.08 153.612 1181.08 Q157.616 1181.08 159.954 1178.97 Q162.292 1176.87 162.292 1173.26 Q162.292 1169.65 159.954 1167.54 Q157.616 1165.43 153.612 1165.43 Q151.737 1165.43 149.862 1165.85 Q148.01 1166.27 146.066 1167.15 L146.066 1149.78 Z" fill="#000000" fill-rule="nonzero" fill-opacity="1"></path><path clip-path="url(#clip860)" d="M186.181 1152.86 Q182.57 1152.86 180.741 1156.43 Q178.936 1159.97 178.936 1167.1 Q178.936 1174.21 180.741 1177.77 Q182.57 1181.31 186.181 1181.31 Q189.815 1181.31 191.621 1177.77 Q193.45 1174.21 193.45 1167.1 Q193.45 1159.97 191.621 1156.43 Q189.815 1152.86 186.181 1152.86 M186.181 1149.16 Q191.991 1149.16 195.047 1153.77 Q198.125 1158.35 198.125 1167.1 Q198.125 1175.83 195.047 1180.43 Q191.991 1185.02 186.181 1185.02 Q180.371 1185.02 177.292 1180.43 Q174.237 1175.83 174.237 1167.1 Q174.237 1158.35 177.292 1153.77 Q180.371 1149.16 186.181 1149.16 Z" fill="#000000" fill-rule="nonzero" fill-opacity="1"></path><path clip-path="url(#clip860)" d="M116.668 832.334 L124.306 832.334 L124.306 805.968 L115.996 807.635 L115.996 803.376 L124.26 801.709 L128.936 801.709 L128.936 832.334 L136.575 832.334 L136.575 836.269 L116.668 836.269 L116.668 832.334 Z" fill="#000000" fill-rule="nonzero" fill-opacity="1"></path><path clip-path="url(#clip860)" d="M156.019 804.788 Q152.408 804.788 150.579 808.353 Q148.774 811.894 148.774 819.024 Q148.774 826.13 150.579 829.695 Q152.408 833.237 156.019 833.237 Q159.653 833.237 161.459 829.695 Q163.288 826.13 163.288 819.024 Q163.288 811.894 161.459 808.353 Q159.653 804.788 156.019 804.788 M156.019 801.084 Q161.829 801.084 164.885 805.691 Q167.964 810.274 167.964 819.024 Q167.964 827.751 164.885 832.357 Q161.829 836.941 156.019 836.941 Q150.209 836.941 147.13 832.357 Q144.075 827.751 144.075 819.024 Q144.075 810.274 147.13 805.691 Q150.209 801.084 156.019 801.084 Z" fill="#000000" fill-rule="nonzero" fill-opacity="1"></path><path clip-path="url(#clip860)" d="M186.181 804.788 Q182.57 804.788 180.741 808.353 Q178.936 811.894 178.936 819.024 Q178.936 826.13 180.741 829.695 Q182.57 833.237 186.181 833.237 Q189.815 833.237 191.621 829.695 Q193.45 826.13 193.45 819.024 Q193.45 811.894 191.621 808.353 Q189.815 804.788 186.181 804.788 M186.181 801.084 Q191.991 801.084 195.047 805.691 Q198.125 810.274 198.125 819.024 Q198.125 827.751 195.047 832.357 Q191.991 836.941 186.181 836.941 Q180.371 836.941 177.292 832.357 Q174.237 827.751 174.237 819.024 Q174.237 810.274 177.292 805.691 Q180.371 801.084 186.181 801.084 Z" fill="#000000" fill-rule="nonzero" fill-opacity="1"></path><path clip-path="url(#clip860)" d="M116.668 484.259 L124.306 484.259 L124.306 457.893 L115.996 459.56 L115.996 455.301 L124.26 453.634 L128.936 453.634 L128.936 484.259 L136.575 484.259 L136.575 488.194 L116.668 488.194 L116.668 484.259 Z" fill="#000000" fill-rule="nonzero" fill-opacity="1"></path><path clip-path="url(#clip860)" d="M146.066 453.634 L164.422 453.634 L164.422 457.569 L150.348 457.569 L150.348 466.042 Q151.366 465.694 152.385 465.532 Q153.403 465.347 154.422 465.347 Q160.209 465.347 163.589 468.518 Q166.968 471.69 166.968 477.106 Q166.968 482.685 163.496 485.787 Q160.024 488.865 153.704 488.865 Q151.528 488.865 149.26 488.495 Q147.015 488.125 144.607 487.384 L144.607 482.685 Q146.691 483.819 148.913 484.375 Q151.135 484.93 153.612 484.93 Q157.616 484.93 159.954 482.824 Q162.292 480.717 162.292 477.106 Q162.292 473.495 159.954 471.389 Q157.616 469.282 153.612 469.282 Q151.737 469.282 149.862 469.699 Q148.01 470.116 146.066 470.995 L146.066 453.634 Z" fill="#000000" fill-rule="nonzero" fill-opacity="1"></path><path clip-path="url(#clip860)" d="M186.181 456.713 Q182.57 456.713 180.741 460.278 Q178.936 463.819 178.936 470.949 Q178.936 478.055 180.741 481.62 Q182.57 485.162 186.181 485.162 Q189.815 485.162 191.621 481.62 Q193.45 478.055 193.45 470.949 Q193.45 463.819 191.621 460.278 Q189.815 456.713 186.181 456.713 M186.181 453.009 Q191.991 453.009 195.047 457.616 Q198.125 462.199 198.125 470.949 Q198.125 479.676 195.047 484.282 Q191.991 488.865 186.181 488.865 Q180.371 488.865 177.292 484.282 Q174.237 479.676 174.237 470.949 Q174.237 462.199 177.292 457.616 Q180.371 453.009 186.181 453.009 Z" fill="#000000" fill-rule="nonzero" fill-opacity="1"></path><path clip-path="url(#clip860)" d="M119.885 136.184 L136.204 136.184 L136.204 140.119 L114.26 140.119 L114.26 136.184 Q116.922 133.429 121.505 128.8 Q126.112 124.147 127.292 122.804 Q129.538 120.281 130.417 118.545 Q131.32 116.786 131.32 115.096 Q131.32 112.341 129.376 110.605 Q127.455 108.869 124.353 108.869 Q122.154 108.869 119.7 109.633 Q117.269 110.397 114.492 111.948 L114.492 107.226 Q117.316 106.092 119.769 105.513 Q122.223 104.934 124.26 104.934 Q129.63 104.934 132.825 107.619 Q136.019 110.304 136.019 114.795 Q136.019 116.925 135.209 118.846 Q134.422 120.744 132.316 123.337 Q131.737 124.008 128.635 127.226 Q125.533 130.42 119.885 136.184 Z" fill="#000000" fill-rule="nonzero" fill-opacity="1"></path><path clip-path="url(#clip860)" d="M156.019 108.638 Q152.408 108.638 150.579 112.203 Q148.774 115.744 148.774 122.874 Q148.774 129.98 150.579 133.545 Q152.408 137.087 156.019 137.087 Q159.653 137.087 161.459 133.545 Q163.288 129.98 163.288 122.874 Q163.288 115.744 161.459 112.203 Q159.653 108.638 156.019 108.638 M156.019 104.934 Q161.829 104.934 164.885 109.541 Q167.964 114.124 167.964 122.874 Q167.964 131.601 164.885 136.207 Q161.829 140.79 156.019 140.79 Q150.209 140.79 147.13 136.207 Q144.075 131.601 144.075 122.874 Q144.075 114.124 147.13 109.541 Q150.209 104.934 156.019 104.934 Z" fill="#000000" fill-rule="nonzero" fill-opacity="1"></path><path clip-path="url(#clip860)" d="M186.181 108.638 Q182.57 108.638 180.741 112.203 Q178.936 115.744 178.936 122.874 Q178.936 129.98 180.741 133.545 Q182.57 137.087 186.181 137.087 Q189.815 137.087 191.621 133.545 Q193.45 129.98 193.45 122.874 Q193.45 115.744 191.621 112.203 Q189.815 108.638 186.181 108.638 M186.181 104.934 Q191.991 104.934 195.047 109.541 Q198.125 114.124 198.125 122.874 Q198.125 131.601 195.047 136.207 Q191.991 140.79 186.181 140.79 Q180.371 140.79 177.292 136.207 Q174.237 131.601 174.237 122.874 Q174.237 114.124 177.292 109.541 Q180.371 104.934 186.181 104.934 Z" fill="#000000" fill-rule="nonzero" fill-opacity="1"></path><path clip-path="url(#clip860)" d="M64.0042 1125.3 L16.4842 1143.44 L16.4842 1136.73 L56.4926 1121.67 L16.4842 1106.59 L16.4842 1099.9 L64.0042 1118.01 L64.0042 1125.3 Z" fill="#000000" fill-rule="nonzero" fill-opacity="1"></path><path clip-path="url(#clip860)" d="M44.7161 1067.79 L47.5806 1067.79 L47.5806 1094.72 Q53.6281 1094.33 56.8109 1091.09 Q59.9619 1087.81 59.9619 1081.98 Q59.9619 1078.61 59.1344 1075.46 Q58.3069 1072.28 56.6518 1069.16 L62.1899 1069.16 Q63.5267 1072.31 64.227 1075.62 Q64.9272 1078.93 64.9272 1082.33 Q64.9272 1090.86 59.9619 1095.86 Q54.9967 1100.83 46.5303 1100.83 Q37.7774 1100.83 32.6531 1096.12 Q27.4968 1091.37 27.4968 1083.35 Q27.4968 1076.16 32.1438 1071.99 Q36.7589 1067.79 44.7161 1067.79 M42.9973 1073.64 Q38.1912 1073.71 35.3266 1076.35 Q32.4621 1078.96 32.4621 1083.29 Q32.4621 1088.19 35.2312 1091.15 Q38.0002 1094.08 43.0292 1094.52 L42.9973 1073.64 Z" fill="#000000" fill-rule="nonzero" fill-opacity="1"></path><path clip-path="url(#clip860)" d="M14.479 1058.18 L14.479 1052.32 L64.0042 1052.32 L64.0042 1058.18 L14.479 1058.18 Z" fill="#000000" fill-rule="nonzero" fill-opacity="1"></path><path clip-path="url(#clip860)" d="M32.4621 1026.25 Q32.4621 1030.96 36.1542 1033.7 Q39.8145 1036.44 46.212 1036.44 Q52.6095 1036.44 56.3017 1033.73 Q59.9619 1030.99 59.9619 1026.25 Q59.9619 1021.57 56.2698 1018.84 Q52.5777 1016.1 46.212 1016.1 Q39.8781 1016.1 36.186 1018.84 Q32.4621 1021.57 32.4621 1026.25 M27.4968 1026.25 Q27.4968 1018.61 32.4621 1014.25 Q37.4273 1009.89 46.212 1009.89 Q54.9649 1009.89 59.9619 1014.25 Q64.9272 1018.61 64.9272 1026.25 Q64.9272 1033.92 59.9619 1038.28 Q54.9649 1042.61 46.212 1042.61 Q37.4273 1042.61 32.4621 1038.28 Q27.4968 1033.92 27.4968 1026.25 Z" fill="#000000" fill-rule="nonzero" fill-opacity="1"></path><path clip-path="url(#clip860)" d="M29.7248 974.531 L35.1993 974.531 Q33.8307 977.013 33.1623 979.528 Q32.4621 982.01 32.4621 984.557 Q32.4621 990.254 36.0905 993.405 Q39.6872 996.556 46.212 996.556 Q52.7369 996.556 56.3653 993.405 Q59.9619 990.254 59.9619 984.557 Q59.9619 982.01 59.2935 979.528 Q58.5933 977.013 57.2247 974.531 L62.6355 974.531 Q63.7814 976.982 64.3543 979.623 Q64.9272 982.233 64.9272 985.193 Q64.9272 993.246 59.8664 997.988 Q54.8057 1002.73 46.212 1002.73 Q37.491 1002.73 32.4939 997.957 Q27.4968 993.15 27.4968 984.811 Q27.4968 982.106 28.0697 979.528 Q28.6108 976.95 29.7248 974.531 Z" fill="#000000" fill-rule="nonzero" fill-opacity="1"></path><path clip-path="url(#clip860)" d="M28.3562 964.346 L28.3562 958.489 L64.0042 958.489 L64.0042 964.346 L28.3562 964.346 M14.479 964.346 L14.479 958.489 L21.895 958.489 L21.895 964.346 L14.479 964.346 Z" fill="#000000" fill-rule="nonzero" fill-opacity="1"></path><path clip-path="url(#clip860)" d="M18.2347 940.442 L28.3562 940.442 L28.3562 928.379 L32.9077 928.379 L32.9077 940.442 L52.2594 940.442 Q56.6199 940.442 57.8613 939.265 Q59.1026 938.055 59.1026 934.395 L59.1026 928.379 L64.0042 928.379 L64.0042 934.395 Q64.0042 941.174 61.4897 943.753 Q58.9434 946.331 52.2594 946.331 L32.9077 946.331 L32.9077 950.627 L28.3562 950.627 L28.3562 946.331 L18.2347 946.331 L18.2347 940.442 Z" fill="#000000" fill-rule="nonzero" fill-opacity="1"></path><path clip-path="url(#clip860)" d="M28.3562 920.677 L28.3562 914.82 L64.0042 914.82 L64.0042 920.677 L28.3562 920.677 M14.479 920.677 L14.479 914.82 L21.895 914.82 L21.895 920.677 L14.479 920.677 Z" fill="#000000" fill-rule="nonzero" fill-opacity="1"></path><path clip-path="url(#clip860)" d="M67.3143 887.734 Q73.68 890.217 75.6216 892.572 Q77.5631 894.928 77.5631 898.874 L77.5631 903.553 L72.6615 903.553 L72.6615 900.116 Q72.6615 897.697 71.5157 896.36 Q70.3699 895.023 66.1048 893.4 L63.4312 892.349 L28.3562 906.768 L28.3562 900.561 L56.238 889.421 L28.3562 878.281 L28.3562 872.075 L67.3143 887.734 Z" fill="#000000" fill-rule="nonzero" fill-opacity="1"></path><path clip-path="url(#clip860)" d="M21.7677 836.586 L58.7206 836.586 L58.7206 828.82 Q58.7206 818.985 54.2646 814.433 Q49.8086 809.85 40.1964 809.85 Q30.6479 809.85 26.2237 814.433 Q21.7677 818.985 21.7677 828.82 L21.7677 836.586 M16.4842 843.015 L16.4842 829.806 Q16.4842 815.993 22.2451 809.532 Q27.9743 803.07 40.1964 803.07 Q52.4822 803.07 58.2432 809.563 Q64.0042 816.056 64.0042 829.806 L64.0042 843.015 L16.4842 843.015 Z" fill="#000000" fill-rule="nonzero" fill-opacity="1"></path><path clip-path="url(#clip860)" d="M28.3562 793.076 L28.3562 787.22 L64.0042 787.22 L64.0042 793.076 L28.3562 793.076 M14.479 793.076 L14.479 787.22 L21.895 787.22 L21.895 793.076 L14.479 793.076 Z" fill="#000000" fill-rule="nonzero" fill-opacity="1"></path><path clip-path="url(#clip860)" d="M14.479 756.919 L19.3487 756.919 L19.3487 762.521 Q19.3487 765.672 20.6219 766.913 Q21.895 768.123 25.2052 768.123 L28.3562 768.123 L28.3562 758.479 L32.9077 758.479 L32.9077 768.123 L64.0042 768.123 L64.0042 774.011 L32.9077 774.011 L32.9077 779.613 L28.3562 779.613 L28.3562 774.011 L25.8736 774.011 Q19.9216 774.011 17.2162 771.242 Q14.479 768.473 14.479 762.457 L14.479 756.919 Z" fill="#000000" fill-rule="nonzero" fill-opacity="1"></path><path clip-path="url(#clip860)" d="M14.479 733.971 L19.3487 733.971 L19.3487 739.572 Q19.3487 742.724 20.6219 743.965 Q21.895 745.174 25.2052 745.174 L28.3562 745.174 L28.3562 735.53 L32.9077 735.53 L32.9077 745.174 L64.0042 745.174 L64.0042 751.063 L32.9077 751.063 L32.9077 756.664 L28.3562 756.664 L28.3562 751.063 L25.8736 751.063 Q19.9216 751.063 17.2162 748.293 Q14.479 745.524 14.479 739.509 L14.479 733.971 Z" fill="#000000" fill-rule="nonzero" fill-opacity="1"></path><path clip-path="url(#clip860)" d="M44.7161 698.577 L47.5806 698.577 L47.5806 725.504 Q53.6281 725.122 56.8109 721.876 Q59.9619 718.597 59.9619 712.773 Q59.9619 709.399 59.1344 706.248 Q58.3069 703.065 56.6518 699.946 L62.1899 699.946 Q63.5267 703.097 64.227 706.407 Q64.9272 709.717 64.9272 713.123 Q64.9272 721.653 59.9619 726.65 Q54.9967 731.615 46.5303 731.615 Q37.7774 731.615 32.6531 726.905 Q27.4968 722.162 27.4968 714.141 Q27.4968 706.948 32.1438 702.779 Q36.7589 698.577 44.7161 698.577 M42.9973 704.434 Q38.1912 704.497 35.3266 707.139 Q32.4621 709.749 32.4621 714.078 Q32.4621 718.979 35.2312 721.939 Q38.0002 724.868 43.0292 725.313 L42.9973 704.434 Z" fill="#000000" fill-rule="nonzero" fill-opacity="1"></path><path clip-path="url(#clip860)" d="M33.8307 668.308 Q33.2578 669.295 33.0032 670.473 Q32.7167 671.619 32.7167 673.019 Q32.7167 677.984 35.9632 680.658 Q39.1779 683.3 45.2253 683.3 L64.0042 683.3 L64.0042 689.188 L28.3562 689.188 L28.3562 683.3 L33.8944 683.3 Q30.6479 681.454 29.0883 678.494 Q27.4968 675.533 27.4968 671.3 Q27.4968 670.696 27.5923 669.963 Q27.656 669.231 27.8151 668.34 L33.8307 668.308 Z" fill="#000000" fill-rule="nonzero" fill-opacity="1"></path><path clip-path="url(#clip860)" d="M44.7161 633.106 L47.5806 633.106 L47.5806 660.033 Q53.6281 659.651 56.8109 656.405 Q59.9619 653.126 59.9619 647.302 Q59.9619 643.928 59.1344 640.777 Q58.3069 637.594 56.6518 634.475 L62.1899 634.475 Q63.5267 637.626 64.227 640.936 Q64.9272 644.246 64.9272 647.652 Q64.9272 656.182 59.9619 661.179 Q54.9967 666.144 46.5303 666.144 Q37.7774 666.144 32.6531 661.433 Q27.4968 656.691 27.4968 648.67 Q27.4968 641.477 32.1438 637.307 Q36.7589 633.106 44.7161 633.106 M42.9973 638.962 Q38.1912 639.026 35.3266 641.668 Q32.4621 644.278 32.4621 648.607 Q32.4621 653.508 35.2312 656.468 Q38.0002 659.396 43.0292 659.842 L42.9973 638.962 Z" fill="#000000" fill-rule="nonzero" fill-opacity="1"></path><path clip-path="url(#clip860)" d="M42.4881 593.861 L64.0042 593.861 L64.0042 599.718 L42.679 599.718 Q37.6183 599.718 35.1038 601.691 Q32.5894 603.665 32.5894 607.611 Q32.5894 612.354 35.6131 615.091 Q38.6368 617.828 43.8567 617.828 L64.0042 617.828 L64.0042 623.717 L28.3562 623.717 L28.3562 617.828 L33.8944 617.828 Q30.6797 615.728 29.0883 612.895 Q27.4968 610.03 27.4968 606.306 Q27.4968 600.164 31.3163 597.012 Q35.1038 593.861 42.4881 593.861 Z" fill="#000000" fill-rule="nonzero" fill-opacity="1"></path><path clip-path="url(#clip860)" d="M29.7248 556.527 L35.1993 556.527 Q33.8307 559.009 33.1623 561.524 Q32.4621 564.006 32.4621 566.553 Q32.4621 572.25 36.0905 575.401 Q39.6872 578.552 46.212 578.552 Q52.7369 578.552 56.3653 575.401 Q59.9619 572.25 59.9619 566.553 Q59.9619 564.006 59.2935 561.524 Q58.5933 559.009 57.2247 556.527 L62.6355 556.527 Q63.7814 558.977 64.3543 561.619 Q64.9272 564.229 64.9272 567.189 Q64.9272 575.242 59.8664 579.984 Q54.8057 584.727 46.212 584.727 Q37.491 584.727 32.4939 579.952 Q27.4968 575.146 27.4968 566.807 Q27.4968 564.102 28.0697 561.524 Q28.6108 558.946 29.7248 556.527 Z" fill="#000000" fill-rule="nonzero" fill-opacity="1"></path><path clip-path="url(#clip860)" d="M44.7161 515.85 L47.5806 515.85 L47.5806 542.777 Q53.6281 542.395 56.8109 539.148 Q59.9619 535.87 59.9619 530.045 Q59.9619 526.671 59.1344 523.52 Q58.3069 520.338 56.6518 517.218 L62.1899 517.218 Q63.5267 520.369 64.227 523.68 Q64.9272 526.99 64.9272 530.395 Q64.9272 538.925 59.9619 543.922 Q54.9967 548.888 46.5303 548.888 Q37.7774 548.888 32.6531 544.177 Q27.4968 539.435 27.4968 531.414 Q27.4968 524.221 32.1438 520.051 Q36.7589 515.85 44.7161 515.85 M42.9973 521.706 Q38.1912 521.77 35.3266 524.412 Q32.4621 527.022 32.4621 531.35 Q32.4621 536.252 35.2312 539.212 Q38.0002 542.14 43.0292 542.586 L42.9973 521.706 Z" fill="#000000" fill-rule="nonzero" fill-opacity="1"></path><path clip-path="url(#clip860)" d="M14.479 486.058 L14.479 472.563 L19.0304 472.563 L19.0304 480.202 L68.0464 480.202 L68.0464 472.563 L72.5979 472.563 L72.5979 486.058 L14.479 486.058 Z" fill="#000000" fill-rule="nonzero" fill-opacity="1"></path><path clip-path="url(#clip860)" d="M35.1993 432.332 Q31.2526 430.135 29.3747 427.08 Q27.4968 424.024 27.4968 419.887 Q27.4968 414.317 31.4117 411.293 Q35.2948 408.269 42.4881 408.269 L64.0042 408.269 L64.0042 414.158 L42.679 414.158 Q37.5546 414.158 35.072 415.972 Q32.5894 417.786 32.5894 421.51 Q32.5894 426.061 35.6131 428.703 Q38.6368 431.345 43.8567 431.345 L64.0042 431.345 L64.0042 437.233 L42.679 437.233 Q37.5228 437.233 35.072 439.047 Q32.5894 440.862 32.5894 444.649 Q32.5894 449.137 35.6449 451.779 Q38.6686 454.421 43.8567 454.421 L64.0042 454.421 L64.0042 460.309 L28.3562 460.309 L28.3562 454.421 L33.8944 454.421 Q30.616 452.415 29.0564 449.615 Q27.4968 446.814 27.4968 442.962 Q27.4968 439.079 29.4702 436.374 Q31.4436 433.637 35.1993 432.332 Z" fill="#000000" fill-rule="nonzero" fill-opacity="1"></path><path clip-path="url(#clip860)" d="M16.4842 386.18 L16.4842 380.769 L70.0516 397.32 L70.0516 402.731 L16.4842 386.18 Z" fill="#000000" fill-rule="nonzero" fill-opacity="1"></path><path clip-path="url(#clip860)" d="M29.4065 351.901 L34.9447 351.901 Q33.6716 354.384 33.035 357.057 Q32.3984 359.731 32.3984 362.595 Q32.3984 366.956 33.7352 369.152 Q35.072 371.316 37.7456 371.316 Q39.7826 371.316 40.9603 369.757 Q42.1061 368.197 43.1565 363.487 L43.6021 361.481 Q44.9389 355.243 47.3897 352.633 Q49.8086 349.991 54.1691 349.991 Q59.1344 349.991 62.0308 353.938 Q64.9272 357.853 64.9272 364.728 Q64.9272 367.592 64.3543 370.712 Q63.8132 373.799 62.6992 377.236 L56.6518 377.236 Q58.3387 373.99 59.198 370.839 Q60.0256 367.688 60.0256 364.601 Q60.0256 360.463 58.6251 358.235 Q57.1929 356.007 54.6147 356.007 Q52.2276 356.007 50.9545 357.63 Q49.6813 359.222 48.5037 364.664 L48.0262 366.701 Q46.8804 372.144 44.5251 374.563 Q42.138 376.982 38.0002 376.982 Q32.9713 376.982 30.2341 373.417 Q27.4968 369.852 27.4968 363.296 Q27.4968 360.049 27.9743 357.184 Q28.4517 354.32 29.4065 351.901 Z" fill="#000000" fill-rule="nonzero" fill-opacity="1"></path><path clip-path="url(#clip860)" d="M14.479 326.979 L72.5979 326.979 L72.5979 340.475 L68.0464 340.475 L68.0464 332.867 L19.0304 332.867 L19.0304 340.475 L14.479 340.475 L14.479 326.979 Z" fill="#000000" fill-rule="nonzero" fill-opacity="1"></path><path clip-path="url(#clip863)" d="M278.087 1368.24 L278.087 1400.24 L310.087 1400.24 L310.087 1368.24 L278.087 1368.24 Z" fill="#009af9" fill-rule="evenodd" fill-opacity="1" stroke="#000000" stroke-opacity="1" stroke-width="3.2"></path>
<path clip-path="url(#clip863)" d="M295.467 1361.66 L295.467 1393.66 L327.467 1393.66 L327.467 1361.66 L295.467 1361.66 Z" fill="#009af9" fill-rule="evenodd" fill-opacity="1" stroke="#000000" stroke-opacity="1" stroke-width="3.2"></path>
<path clip-path="url(#clip863)" d="M312.847 1354.86 L312.847 1386.86 L344.847 1386.86 L344.847 1354.86 L312.847 1354.86 Z" fill="#009af9" fill-rule="evenodd" fill-opacity="1" stroke="#000000" stroke-opacity="1" stroke-width="3.2"></path>
<path clip-path="url(#clip863)" d="M330.227 1347.61 L330.227 1379.61 L362.227 1379.61 L362.227 1347.61 L330.227 1347.61 Z" fill="#009af9" fill-rule="evenodd" fill-opacity="1" stroke="#000000" stroke-opacity="1" stroke-width="3.2"></path>
<path clip-path="url(#clip863)" d="M347.607 1340.59 L347.607 1372.59 L379.607 1372.59 L379.607 1340.59 L347.607 1340.59 Z" fill="#009af9" fill-rule="evenodd" fill-opacity="1" stroke="#000000" stroke-opacity="1" stroke-width="3.2"></path>
<path clip-path="url(#clip863)" d="M364.987 1333.9 L364.987 1365.9 L396.987 1365.9 L396.987 1333.9 L364.987 1333.9 Z" fill="#009af9" fill-rule="evenodd" fill-opacity="1" stroke="#000000" stroke-opacity="1" stroke-width="3.2"></path>
<path clip-path="url(#clip863)" d="M382.367 1326.73 L382.367 1358.73 L414.367 1358.73 L414.367 1326.73 L382.367 1326.73 Z" fill="#009af9" fill-rule="evenodd" fill-opacity="1" stroke="#000000" stroke-opacity="1" stroke-width="3.2"></path>
<path clip-path="url(#clip863)" d="M399.747 1319.57 L399.747 1351.57 L431.747 1351.57 L431.747 1319.57 L399.747 1319.57 Z" fill="#009af9" fill-rule="evenodd" fill-opacity="1" stroke="#000000" stroke-opacity="1" stroke-width="3.2"></path>
<path clip-path="url(#clip863)" d="M417.127 1312.75 L417.127 1344.75 L449.127 1344.75 L449.127 1312.75 L417.127 1312.75 Z" fill="#009af9" fill-rule="evenodd" fill-opacity="1" stroke="#000000" stroke-opacity="1" stroke-width="3.2"></path>
<path clip-path="url(#clip863)" d="M434.507 1305.83 L434.507 1337.83 L466.507 1337.83 L466.507 1305.83 L434.507 1305.83 Z" fill="#009af9" fill-rule="evenodd" fill-opacity="1" stroke="#000000" stroke-opacity="1" stroke-width="3.2"></path>
<path clip-path="url(#clip863)" d="M451.887 1298.66 L451.887 1330.66 L483.887 1330.66 L483.887 1298.66 L451.887 1298.66 Z" fill="#009af9" fill-rule="evenodd" fill-opacity="1" stroke="#000000" stroke-opacity="1" stroke-width="3.2"></path>
<path clip-path="url(#clip863)" d="M469.267 1291.6 L469.267 1323.6 L501.267 1323.6 L501.267 1291.6 L469.267 1291.6 Z" fill="#009af9" fill-rule="evenodd" fill-opacity="1" stroke="#000000" stroke-opacity="1" stroke-width="3.2"></path>
<path clip-path="url(#clip863)" d="M486.648 1284.83 L486.648 1316.83 L518.648 1316.83 L518.648 1284.83 L486.648 1284.83 Z" fill="#009af9" fill-rule="evenodd" fill-opacity="1" stroke="#000000" stroke-opacity="1" stroke-width="3.2"></path>
<path clip-path="url(#clip863)" d="M504.028 1277.83 L504.028 1309.83 L536.028 1309.83 L536.028 1277.83 L504.028 1277.83 Z" fill="#009af9" fill-rule="evenodd" fill-opacity="1" stroke="#000000" stroke-opacity="1" stroke-width="3.2"></path>
<path clip-path="url(#clip863)" d="M521.408 1270.79 L521.408 1302.79 L553.408 1302.79 L553.408 1270.79 L521.408 1270.79 Z" fill="#009af9" fill-rule="evenodd" fill-opacity="1" stroke="#000000" stroke-opacity="1" stroke-width="3.2"></path>
<path clip-path="url(#clip863)" d="M538.788 1263.95 L538.788 1295.95 L570.788 1295.95 L570.788 1263.95 L538.788 1263.95 Z" fill="#009af9" fill-rule="evenodd" fill-opacity="1" stroke="#000000" stroke-opacity="1" stroke-width="3.2"></path>
<path clip-path="url(#clip863)" d="M556.168 1256.98 L556.168 1288.98 L588.168 1288.98 L588.168 1256.98 L556.168 1256.98 Z" fill="#009af9" fill-rule="evenodd" fill-opacity="1" stroke="#000000" stroke-opacity="1" stroke-width="3.2"></path>
<path clip-path="url(#clip863)" d="M573.548 1249.77 L573.548 1281.77 L605.548 1281.77 L605.548 1249.77 L573.548 1249.77 Z" fill="#009af9" fill-rule="evenodd" fill-opacity="1" stroke="#000000" stroke-opacity="1" stroke-width="3.2"></path>
<path clip-path="url(#clip863)" d="M590.928 1242.57 L590.928 1274.57 L622.928 1274.57 L622.928 1242.57 L590.928 1242.57 Z" fill="#009af9" fill-rule="evenodd" fill-opacity="1" stroke="#000000" stroke-opacity="1" stroke-width="3.2"></path>
<path clip-path="url(#clip863)" d="M608.308 1236.09 L608.308 1268.09 L640.308 1268.09 L640.308 1236.09 L608.308 1236.09 Z" fill="#009af9" fill-rule="evenodd" fill-opacity="1" stroke="#000000" stroke-opacity="1" stroke-width="3.2"></path>
<path clip-path="url(#clip863)" d="M625.688 1228.81 L625.688 1260.81 L657.688 1260.81 L657.688 1228.81 L625.688 1228.81 Z" fill="#009af9" fill-rule="evenodd" fill-opacity="1" stroke="#000000" stroke-opacity="1" stroke-width="3.2"></path>
<path clip-path="url(#clip863)" d="M643.068 1221.83 L643.068 1253.83 L675.068 1253.83 L675.068 1221.83 L643.068 1221.83 Z" fill="#009af9" fill-rule="evenodd" fill-opacity="1" stroke="#000000" stroke-opacity="1" stroke-width="3.2"></path>
<path clip-path="url(#clip863)" d="M660.448 1215.02 L660.448 1247.02 L692.448 1247.02 L692.448 1215.02 L660.448 1215.02 Z" fill="#009af9" fill-rule="evenodd" fill-opacity="1" stroke="#000000" stroke-opacity="1" stroke-width="3.2"></path>
<path clip-path="url(#clip863)" d="M677.828 1208.13 L677.828 1240.13 L709.828 1240.13 L709.828 1208.13 L677.828 1208.13 Z" fill="#009af9" fill-rule="evenodd" fill-opacity="1" stroke="#000000" stroke-opacity="1" stroke-width="3.2"></path>
<path clip-path="url(#clip863)" d="M695.208 1200.8 L695.208 1232.8 L727.208 1232.8 L727.208 1200.8 L695.208 1200.8 Z" fill="#009af9" fill-rule="evenodd" fill-opacity="1" stroke="#000000" stroke-opacity="1" stroke-width="3.2"></path>
<path clip-path="url(#clip863)" d="M712.588 1194.15 L712.588 1226.15 L744.588 1226.15 L744.588 1194.15 L712.588 1194.15 Z" fill="#009af9" fill-rule="evenodd" fill-opacity="1" stroke="#000000" stroke-opacity="1" stroke-width="3.2"></path>
<path clip-path="url(#clip863)" d="M729.968 1186.91 L729.968 1218.91 L761.968 1218.91 L761.968 1186.91 L729.968 1186.91 Z" fill="#009af9" fill-rule="evenodd" fill-opacity="1" stroke="#000000" stroke-opacity="1" stroke-width="3.2"></path>
<path clip-path="url(#clip863)" d="M747.349 1179.75 L747.349 1211.75 L779.349 1211.75 L779.349 1179.75 L747.349 1179.75 Z" fill="#009af9" fill-rule="evenodd" fill-opacity="1" stroke="#000000" stroke-opacity="1" stroke-width="3.2"></path>
<path clip-path="url(#clip863)" d="M764.729 1172.37 L764.729 1204.37 L796.729 1204.37 L796.729 1172.37 L764.729 1172.37 Z" fill="#009af9" fill-rule="evenodd" fill-opacity="1" stroke="#000000" stroke-opacity="1" stroke-width="3.2"></path>
<path clip-path="url(#clip863)" d="M782.109 1165.65 L782.109 1197.65 L814.109 1197.65 L814.109 1165.65 L782.109 1165.65 Z" fill="#009af9" fill-rule="evenodd" fill-opacity="1" stroke="#000000" stroke-opacity="1" stroke-width="3.2"></path>
<path clip-path="url(#clip863)" d="M799.489 1158.4 L799.489 1190.4 L831.489 1190.4 L831.489 1158.4 L799.489 1158.4 Z" fill="#009af9" fill-rule="evenodd" fill-opacity="1" stroke="#000000" stroke-opacity="1" stroke-width="3.2"></path>
<path clip-path="url(#clip863)" d="M816.869 1151.25 L816.869 1183.25 L848.869 1183.25 L848.869 1151.25 L816.869 1151.25 Z" fill="#009af9" fill-rule="evenodd" fill-opacity="1" stroke="#000000" stroke-opacity="1" stroke-width="3.2"></path>
<path clip-path="url(#clip863)" d="M834.249 1144.3 L834.249 1176.3 L866.249 1176.3 L866.249 1144.3 L834.249 1144.3 Z" fill="#009af9" fill-rule="evenodd" fill-opacity="1" stroke="#000000" stroke-opacity="1" stroke-width="3.2"></path>
<path clip-path="url(#clip863)" d="M851.629 1136.91 L851.629 1168.91 L883.629 1168.91 L883.629 1136.91 L851.629 1136.91 Z" fill="#009af9" fill-rule="evenodd" fill-opacity="1" stroke="#000000" stroke-opacity="1" stroke-width="3.2"></path>
<path clip-path="url(#clip863)" d="M869.009 1129.76 L869.009 1161.76 L901.009 1161.76 L901.009 1129.76 L869.009 1129.76 Z" fill="#009af9" fill-rule="evenodd" fill-opacity="1" stroke="#000000" stroke-opacity="1" stroke-width="3.2"></path>
<path clip-path="url(#clip863)" d="M886.389 1122.12 L886.389 1154.12 L918.389 1154.12 L918.389 1122.12 L886.389 1122.12 Z" fill="#009af9" fill-rule="evenodd" fill-opacity="1" stroke="#000000" stroke-opacity="1" stroke-width="3.2"></path>
<path clip-path="url(#clip863)" d="M903.769 1115.25 L903.769 1147.25 L935.769 1147.25 L935.769 1115.25 L903.769 1115.25 Z" fill="#009af9" fill-rule="evenodd" fill-opacity="1" stroke="#000000" stroke-opacity="1" stroke-width="3.2"></path>
<path clip-path="url(#clip863)" d="M921.149 1107.76 L921.149 1139.76 L953.149 1139.76 L953.149 1107.76 L921.149 1107.76 Z" fill="#009af9" fill-rule="evenodd" fill-opacity="1" stroke="#000000" stroke-opacity="1" stroke-width="3.2"></path>
<path clip-path="url(#clip863)" d="M938.529 1100.27 L938.529 1132.27 L970.529 1132.27 L970.529 1100.27 L938.529 1100.27 Z" fill="#009af9" fill-rule="evenodd" fill-opacity="1" stroke="#000000" stroke-opacity="1" stroke-width="3.2"></path>
<path clip-path="url(#clip863)" d="M955.909 1093.55 L955.909 1125.55 L987.909 1125.55 L987.909 1093.55 L955.909 1093.55 Z" fill="#009af9" fill-rule="evenodd" fill-opacity="1" stroke="#000000" stroke-opacity="1" stroke-width="3.2"></path>
<path clip-path="url(#clip863)" d="M973.289 1085.22 L973.289 1117.22 L1005.29 1117.22 L1005.29 1085.22 L973.289 1085.22 Z" fill="#009af9" fill-rule="evenodd" fill-opacity="1" stroke="#000000" stroke-opacity="1" stroke-width="3.2"></path>
<path clip-path="url(#clip863)" d="M990.67 1077.97 L990.67 1109.97 L1022.67 1109.97 L1022.67 1077.97 L990.67 1077.97 Z" fill="#009af9" fill-rule="evenodd" fill-opacity="1" stroke="#000000" stroke-opacity="1" stroke-width="3.2"></path>
<path clip-path="url(#clip863)" d="M1008.05 1070.81 L1008.05 1102.81 L1040.05 1102.81 L1040.05 1070.81 L1008.05 1070.81 Z" fill="#009af9" fill-rule="evenodd" fill-opacity="1" stroke="#000000" stroke-opacity="1" stroke-width="3.2"></path>
<path clip-path="url(#clip863)" d="M1025.43 1063.84 L1025.43 1095.84 L1057.43 1095.84 L1057.43 1063.84 L1025.43 1063.84 Z" fill="#009af9" fill-rule="evenodd" fill-opacity="1" stroke="#000000" stroke-opacity="1" stroke-width="3.2"></path>
<path clip-path="url(#clip863)" d="M1042.81 1055.14 L1042.81 1087.14 L1074.81 1087.14 L1074.81 1055.14 L1042.81 1055.14 Z" fill="#009af9" fill-rule="evenodd" fill-opacity="1" stroke="#000000" stroke-opacity="1" stroke-width="3.2"></path>
<path clip-path="url(#clip863)" d="M1060.19 1047.79 L1060.19 1079.79 L1092.19 1079.79 L1092.19 1047.79 L1060.19 1047.79 Z" fill="#009af9" fill-rule="evenodd" fill-opacity="1" stroke="#000000" stroke-opacity="1" stroke-width="3.2"></path>
<path clip-path="url(#clip863)" d="M1077.57 1040.4 L1077.57 1072.4 L1109.57 1072.4 L1109.57 1040.4 L1077.57 1040.4 Z" fill="#009af9" fill-rule="evenodd" fill-opacity="1" stroke="#000000" stroke-opacity="1" stroke-width="3.2"></path>
<path clip-path="url(#clip863)" d="M1094.95 1033.37 L1094.95 1065.37 L1126.95 1065.37 L1126.95 1033.37 L1094.95 1033.37 Z" fill="#009af9" fill-rule="evenodd" fill-opacity="1" stroke="#000000" stroke-opacity="1" stroke-width="3.2"></path>
<path clip-path="url(#clip863)" d="M1112.33 1024.6 L1112.33 1056.6 L1144.33 1056.6 L1144.33 1024.6 L1112.33 1024.6 Z" fill="#009af9" fill-rule="evenodd" fill-opacity="1" stroke="#000000" stroke-opacity="1" stroke-width="3.2"></path>
<path clip-path="url(#clip863)" d="M1129.71 1017.5 L1129.71 1049.5 L1161.71 1049.5 L1161.71 1017.5 L1129.71 1017.5 Z" fill="#009af9" fill-rule="evenodd" fill-opacity="1" stroke="#000000" stroke-opacity="1" stroke-width="3.2"></path>
<path clip-path="url(#clip863)" d="M1147.09 1009.53 L1147.09 1041.53 L1179.09 1041.53 L1179.09 1009.53 L1147.09 1009.53 Z" fill="#009af9" fill-rule="evenodd" fill-opacity="1" stroke="#000000" stroke-opacity="1" stroke-width="3.2"></path>
<path clip-path="url(#clip863)" d="M1164.47 1002.14 L1164.47 1034.14 L1196.47 1034.14 L1196.47 1002.14 L1164.47 1002.14 Z" fill="#009af9" fill-rule="evenodd" fill-opacity="1" stroke="#000000" stroke-opacity="1" stroke-width="3.2"></path>
<path clip-path="url(#clip863)" d="M1181.85 993.43 L1181.85 1025.43 L1213.85 1025.43 L1213.85 993.43 L1181.85 993.43 Z" fill="#009af9" fill-rule="evenodd" fill-opacity="1" stroke="#000000" stroke-opacity="1" stroke-width="3.2"></path>
<path clip-path="url(#clip863)" d="M1199.23 985.875 L1199.23 1017.88 L1231.23 1017.88 L1231.23 985.875 L1199.23 985.875 Z" fill="#009af9" fill-rule="evenodd" fill-opacity="1" stroke="#000000" stroke-opacity="1" stroke-width="3.2"></path>
<path clip-path="url(#clip863)" d="M1216.61 978.126 L1216.61 1010.13 L1248.61 1010.13 L1248.61 978.126 L1216.61 978.126 Z" fill="#009af9" fill-rule="evenodd" fill-opacity="1" stroke="#000000" stroke-opacity="1" stroke-width="3.2"></path>
<path clip-path="url(#clip863)" d="M1233.99 970.266 L1233.99 1002.27 L1265.99 1002.27 L1265.99 970.266 L1233.99 970.266 Z" fill="#009af9" fill-rule="evenodd" fill-opacity="1" stroke="#000000" stroke-opacity="1" stroke-width="3.2"></path>
<path clip-path="url(#clip863)" d="M1251.37 962.432 L1251.37 994.432 L1283.37 994.432 L1283.37 962.432 L1251.37 962.432 Z" fill="#009af9" fill-rule="evenodd" fill-opacity="1" stroke="#000000" stroke-opacity="1" stroke-width="3.2"></path>
<path clip-path="url(#clip863)" d="M1268.75 953.576 L1268.75 985.576 L1300.75 985.576 L1300.75 953.576 L1268.75 953.576 Z" fill="#009af9" fill-rule="evenodd" fill-opacity="1" stroke="#000000" stroke-opacity="1" stroke-width="3.2"></path>
<path clip-path="url(#clip863)" d="M1286.13 945.523 L1286.13 977.523 L1318.13 977.523 L1318.13 945.523 L1286.13 945.523 Z" fill="#009af9" fill-rule="evenodd" fill-opacity="1" stroke="#000000" stroke-opacity="1" stroke-width="3.2"></path>
<path clip-path="url(#clip863)" d="M1303.51 937.015 L1303.51 969.015 L1335.51 969.015 L1335.51 937.015 L1303.51 937.015 Z" fill="#009af9" fill-rule="evenodd" fill-opacity="1" stroke="#000000" stroke-opacity="1" stroke-width="3.2"></path>
<path clip-path="url(#clip863)" d="M1320.89 929.199 L1320.89 961.199 L1352.89 961.199 L1352.89 929.199 L1320.89 929.199 Z" fill="#009af9" fill-rule="evenodd" fill-opacity="1" stroke="#000000" stroke-opacity="1" stroke-width="3.2"></path>
<path clip-path="url(#clip863)" d="M1338.27 919.855 L1338.27 951.855 L1370.27 951.855 L1370.27 919.855 L1338.27 919.855 Z" fill="#009af9" fill-rule="evenodd" fill-opacity="1" stroke="#000000" stroke-opacity="1" stroke-width="3.2"></path>
<path clip-path="url(#clip863)" d="M1355.65 911.816 L1355.65 943.816 L1387.65 943.816 L1387.65 911.816 L1355.65 911.816 Z" fill="#009af9" fill-rule="evenodd" fill-opacity="1" stroke="#000000" stroke-opacity="1" stroke-width="3.2"></path>
<path clip-path="url(#clip863)" d="M1373.03 903.535 L1373.03 935.535 L1405.03 935.535 L1405.03 903.535 L1373.03 903.535 Z" fill="#009af9" fill-rule="evenodd" fill-opacity="1" stroke="#000000" stroke-opacity="1" stroke-width="3.2"></path>
<path clip-path="url(#clip863)" d="M1390.41 895.277 L1390.41 927.277 L1422.41 927.277 L1422.41 895.277 L1390.41 895.277 Z" fill="#009af9" fill-rule="evenodd" fill-opacity="1" stroke="#000000" stroke-opacity="1" stroke-width="3.2"></path>
<path clip-path="url(#clip863)" d="M1407.79 886.617 L1407.79 918.617 L1439.79 918.617 L1439.79 886.617 L1407.79 886.617 Z" fill="#009af9" fill-rule="evenodd" fill-opacity="1" stroke="#000000" stroke-opacity="1" stroke-width="3.2"></path>
<path clip-path="url(#clip863)" d="M1425.17 876.743 L1425.17 908.743 L1457.17 908.743 L1457.17 876.743 L1425.17 876.743 Z" fill="#009af9" fill-rule="evenodd" fill-opacity="1" stroke="#000000" stroke-opacity="1" stroke-width="3.2"></path>
<path clip-path="url(#clip863)" d="M1442.55 868.468 L1442.55 900.468 L1474.55 900.468 L1474.55 868.468 L1442.55 868.468 Z" fill="#009af9" fill-rule="evenodd" fill-opacity="1" stroke="#000000" stroke-opacity="1" stroke-width="3.2"></path>
<path clip-path="url(#clip863)" d="M1459.93 859.706 L1459.93 891.706 L1491.93 891.706 L1491.93 859.706 L1459.93 859.706 Z" fill="#009af9" fill-rule="evenodd" fill-opacity="1" stroke="#000000" stroke-opacity="1" stroke-width="3.2"></path>
<path clip-path="url(#clip863)" d="M1477.31 850.509 L1477.31 882.509 L1509.31 882.509 L1509.31 850.509 L1477.31 850.509 Z" fill="#009af9" fill-rule="evenodd" fill-opacity="1" stroke="#000000" stroke-opacity="1" stroke-width="3.2"></path>
<path clip-path="url(#clip863)" d="M1494.69 840.716 L1494.69 872.716 L1526.69 872.716 L1526.69 840.716 L1494.69 840.716 Z" fill="#009af9" fill-rule="evenodd" fill-opacity="1" stroke="#000000" stroke-opacity="1" stroke-width="3.2"></path>
<path clip-path="url(#clip863)" d="M1512.07 831.768 L1512.07 863.768 L1544.07 863.768 L1544.07 831.768 L1512.07 831.768 Z" fill="#009af9" fill-rule="evenodd" fill-opacity="1" stroke="#000000" stroke-opacity="1" stroke-width="3.2"></path>
<path clip-path="url(#clip863)" d="M1529.45 823.131 L1529.45 855.131 L1561.45 855.131 L1561.45 823.131 L1529.45 823.131 Z" fill="#009af9" fill-rule="evenodd" fill-opacity="1" stroke="#000000" stroke-opacity="1" stroke-width="3.2"></path>
<path clip-path="url(#clip863)" d="M1546.83 813.35 L1546.83 845.35 L1578.83 845.35 L1578.83 813.35 L1546.83 813.35 Z" fill="#009af9" fill-rule="evenodd" fill-opacity="1" stroke="#000000" stroke-opacity="1" stroke-width="3.2"></path>
<path clip-path="url(#clip863)" d="M1564.21 803.484 L1564.21 835.484 L1596.21 835.484 L1596.21 803.484 L1564.21 803.484 Z" fill="#009af9" fill-rule="evenodd" fill-opacity="1" stroke="#000000" stroke-opacity="1" stroke-width="3.2"></path>
<path clip-path="url(#clip863)" d="M1581.59 793.484 L1581.59 825.484 L1613.59 825.484 L1613.59 793.484 L1581.59 793.484 Z" fill="#009af9" fill-rule="evenodd" fill-opacity="1" stroke="#000000" stroke-opacity="1" stroke-width="3.2"></path>
<path clip-path="url(#clip863)" d="M1598.97 783.919 L1598.97 815.919 L1630.97 815.919 L1630.97 783.919 L1598.97 783.919 Z" fill="#009af9" fill-rule="evenodd" fill-opacity="1" stroke="#000000" stroke-opacity="1" stroke-width="3.2"></path>
<path clip-path="url(#clip863)" d="M1616.35 774.207 L1616.35 806.207 L1648.35 806.207 L1648.35 774.207 L1616.35 774.207 Z" fill="#009af9" fill-rule="evenodd" fill-opacity="1" stroke="#000000" stroke-opacity="1" stroke-width="3.2"></path>
<path clip-path="url(#clip863)" d="M1633.73 763.444 L1633.73 795.444 L1665.73 795.444 L1665.73 763.444 L1633.73 763.444 Z" fill="#009af9" fill-rule="evenodd" fill-opacity="1" stroke="#000000" stroke-opacity="1" stroke-width="3.2"></path>
<path clip-path="url(#clip863)" d="M1651.11 753.199 L1651.11 785.199 L1683.11 785.199 L1683.11 753.199 L1651.11 753.199 Z" fill="#009af9" fill-rule="evenodd" fill-opacity="1" stroke="#000000" stroke-opacity="1" stroke-width="3.2"></path>
<path clip-path="url(#clip863)" d="M1668.49 743.106 L1668.49 775.106 L1700.49 775.106 L1700.49 743.106 L1668.49 743.106 Z" fill="#009af9" fill-rule="evenodd" fill-opacity="1" stroke="#000000" stroke-opacity="1" stroke-width="3.2"></path>
<path clip-path="url(#clip863)" d="M1685.87 733.361 L1685.87 765.361 L1717.87 765.361 L1717.87 733.361 L1685.87 733.361 Z" fill="#009af9" fill-rule="evenodd" fill-opacity="1" stroke="#000000" stroke-opacity="1" stroke-width="3.2"></path>
<path clip-path="url(#clip863)" d="M1703.25 722.862 L1703.25 754.862 L1735.25 754.862 L1735.25 722.862 L1703.25 722.862 Z" fill="#009af9" fill-rule="evenodd" fill-opacity="1" stroke="#000000" stroke-opacity="1" stroke-width="3.2"></path>
<path clip-path="url(#clip863)" d="M1720.63 710.812 L1720.63 742.812 L1752.63 742.812 L1752.63 710.812 L1720.63 710.812 Z" fill="#009af9" fill-rule="evenodd" fill-opacity="1" stroke="#000000" stroke-opacity="1" stroke-width="3.2"></path>
<path clip-path="url(#clip863)" d="M1738.01 700.637 L1738.01 732.637 L1770.01 732.637 L1770.01 700.637 L1738.01 700.637 Z" fill="#009af9" fill-rule="evenodd" fill-opacity="1" stroke="#000000" stroke-opacity="1" stroke-width="3.2"></path>
<path clip-path="url(#clip863)" d="M1755.39 689.305 L1755.39 721.305 L1787.39 721.305 L1787.39 689.305 L1755.39 689.305 Z" fill="#009af9" fill-rule="evenodd" fill-opacity="1" stroke="#000000" stroke-opacity="1" stroke-width="3.2"></path>
<path clip-path="url(#clip863)" d="M1772.77 678.676 L1772.77 710.676 L1804.77 710.676 L1804.77 678.676 L1772.77 678.676 Z" fill="#009af9" fill-rule="evenodd" fill-opacity="1" stroke="#000000" stroke-opacity="1" stroke-width="3.2"></path>
<path clip-path="url(#clip863)" d="M1790.15 665.31 L1790.15 697.31 L1822.15 697.31 L1822.15 665.31 L1790.15 665.31 Z" fill="#009af9" fill-rule="evenodd" fill-opacity="1" stroke="#000000" stroke-opacity="1" stroke-width="3.2"></path>
<path clip-path="url(#clip863)" d="M1807.53 654.465 L1807.53 686.465 L1839.53 686.465 L1839.53 654.465 L1807.53 654.465 Z" fill="#009af9" fill-rule="evenodd" fill-opacity="1" stroke="#000000" stroke-opacity="1" stroke-width="3.2"></path>
<path clip-path="url(#clip863)" d="M1824.91 643.026 L1824.91 675.026 L1856.91 675.026 L1856.91 643.026 L1824.91 643.026 Z" fill="#009af9" fill-rule="evenodd" fill-opacity="1" stroke="#000000" stroke-opacity="1" stroke-width="3.2"></path>
<path clip-path="url(#clip863)" d="M1842.29 631.163 L1842.29 663.163 L1874.29 663.163 L1874.29 631.163 L1842.29 631.163 Z" fill="#009af9" fill-rule="evenodd" fill-opacity="1" stroke="#000000" stroke-opacity="1" stroke-width="3.2"></path>
<path clip-path="url(#clip863)" d="M1859.67 617.838 L1859.67 649.838 L1891.67 649.838 L1891.67 617.838 L1859.67 617.838 Z" fill="#009af9" fill-rule="evenodd" fill-opacity="1" stroke="#000000" stroke-opacity="1" stroke-width="3.2"></path>
<path clip-path="url(#clip863)" d="M1877.05 604.134 L1877.05 636.134 L1909.05 636.134 L1909.05 604.134 L1877.05 604.134 Z" fill="#009af9" fill-rule="evenodd" fill-opacity="1" stroke="#000000" stroke-opacity="1" stroke-width="3.2"></path>
<path clip-path="url(#clip863)" d="M1894.43 591.571 L1894.43 623.571 L1926.43 623.571 L1926.43 591.571 L1894.43 591.571 Z" fill="#009af9" fill-rule="evenodd" fill-opacity="1" stroke="#000000" stroke-opacity="1" stroke-width="3.2"></path>
<path clip-path="url(#clip863)" d="M1911.81 578.273 L1911.81 610.273 L1943.81 610.273 L1943.81 578.273 L1911.81 578.273 Z" fill="#009af9" fill-rule="evenodd" fill-opacity="1" stroke="#000000" stroke-opacity="1" stroke-width="3.2"></path>
<path clip-path="url(#clip863)" d="M1929.19 564.954 L1929.19 596.954 L1961.19 596.954 L1961.19 564.954 L1929.19 564.954 Z" fill="#009af9" fill-rule="evenodd" fill-opacity="1" stroke="#000000" stroke-opacity="1" stroke-width="3.2"></path>
<path clip-path="url(#clip863)" d="M1946.57 549.325 L1946.57 581.325 L1978.57 581.325 L1978.57 549.325 L1946.57 549.325 Z" fill="#009af9" fill-rule="evenodd" fill-opacity="1" stroke="#000000" stroke-opacity="1" stroke-width="3.2"></path>
<path clip-path="url(#clip863)" d="M1963.95 534.892 L1963.95 566.892 L1995.95 566.892 L1995.95 534.892 L1963.95 534.892 Z" fill="#009af9" fill-rule="evenodd" fill-opacity="1" stroke="#000000" stroke-opacity="1" stroke-width="3.2"></path>
<path clip-path="url(#clip863)" d="M1981.33 520.967 L1981.33 552.967 L2013.33 552.967 L2013.33 520.967 L1981.33 520.967 Z" fill="#009af9" fill-rule="evenodd" fill-opacity="1" stroke="#000000" stroke-opacity="1" stroke-width="3.2"></path>
<path clip-path="url(#clip863)" d="M1998.71 505.7 L1998.71 537.7 L2030.71 537.7 L2030.71 505.7 L1998.71 505.7 Z" fill="#009af9" fill-rule="evenodd" fill-opacity="1" stroke="#000000" stroke-opacity="1" stroke-width="3.2"></path>
<path clip-path="url(#clip863)" d="M2016.09 488.121 L2016.09 520.121 L2048.09 520.121 L2048.09 488.121 L2016.09 488.121 Z" fill="#009af9" fill-rule="evenodd" fill-opacity="1" stroke="#000000" stroke-opacity="1" stroke-width="3.2"></path>
<path clip-path="url(#clip863)" d="M2033.47 472.958 L2033.47 504.958 L2065.47 504.958 L2065.47 472.958 L2033.47 472.958 Z" fill="#009af9" fill-rule="evenodd" fill-opacity="1" stroke="#000000" stroke-opacity="1" stroke-width="3.2"></path>
<path clip-path="url(#clip863)" d="M2050.85 455.503 L2050.85 487.503 L2082.85 487.503 L2082.85 455.503 L2050.85 455.503 Z" fill="#009af9" fill-rule="evenodd" fill-opacity="1" stroke="#000000" stroke-opacity="1" stroke-width="3.2"></path>
<path clip-path="url(#clip863)" d="M2068.23 438.992 L2068.23 470.992 L2100.23 470.992 L2100.23 438.992 L2068.23 438.992 Z" fill="#009af9" fill-rule="evenodd" fill-opacity="1" stroke="#000000" stroke-opacity="1" stroke-width="3.2"></path>
<path clip-path="url(#clip863)" d="M2085.61 417.842 L2085.61 449.842 L2117.61 449.842 L2117.61 417.842 L2085.61 417.842 Z" fill="#009af9" fill-rule="evenodd" fill-opacity="1" stroke="#000000" stroke-opacity="1" stroke-width="3.2"></path>
<path clip-path="url(#clip863)" d="M2102.99 399.51 L2102.99 431.51 L2134.99 431.51 L2134.99 399.51 L2102.99 399.51 Z" fill="#009af9" fill-rule="evenodd" fill-opacity="1" stroke="#000000" stroke-opacity="1" stroke-width="3.2"></path>
<path clip-path="url(#clip863)" d="M2120.37 377.87 L2120.37 409.87 L2152.37 409.87 L2152.37 377.87 L2120.37 377.87 Z" fill="#009af9" fill-rule="evenodd" fill-opacity="1" stroke="#000000" stroke-opacity="1" stroke-width="3.2"></path>
<path clip-path="url(#clip863)" d="M2137.75 357.961 L2137.75 389.961 L2169.75 389.961 L2169.75 357.961 L2137.75 357.961 Z" fill="#009af9" fill-rule="evenodd" fill-opacity="1" stroke="#000000" stroke-opacity="1" stroke-width="3.2"></path>
<path clip-path="url(#clip863)" d="M2155.13 333.404 L2155.13 365.404 L2187.13 365.404 L2187.13 333.404 L2155.13 333.404 Z" fill="#009af9" fill-rule="evenodd" fill-opacity="1" stroke="#000000" stroke-opacity="1" stroke-width="3.2"></path>
<path clip-path="url(#clip863)" d="M2172.51 306.654 L2172.51 338.654 L2204.51 338.654 L2204.51 306.654 L2172.51 306.654 Z" fill="#009af9" fill-rule="evenodd" fill-opacity="1" stroke="#000000" stroke-opacity="1" stroke-width="3.2"></path>
<path clip-path="url(#clip863)" d="M2189.89 281.423 L2189.89 313.423 L2221.89 313.423 L2221.89 281.423 L2189.89 281.423 Z" fill="#009af9" fill-rule="evenodd" fill-opacity="1" stroke="#000000" stroke-opacity="1" stroke-width="3.2"></path>
<path clip-path="url(#clip863)" d="M2207.27 252.159 L2207.27 284.159 L2239.27 284.159 L2239.27 252.159 L2207.27 252.159 Z" fill="#009af9" fill-rule="evenodd" fill-opacity="1" stroke="#000000" stroke-opacity="1" stroke-width="3.2"></path>
<path clip-path="url(#clip863)" d="M2224.65 220.873 L2224.65 252.873 L2256.65 252.873 L2256.65 220.873 L2224.65 220.873 Z" fill="#009af9" fill-rule="evenodd" fill-opacity="1" stroke="#000000" stroke-opacity="1" stroke-width="3.2"></path>
<path clip-path="url(#clip863)" d="M2242.03 178.36 L2242.03 210.36 L2274.03 210.36 L2274.03 178.36 L2242.03 178.36 Z" fill="#009af9" fill-rule="evenodd" fill-opacity="1" stroke="#000000" stroke-opacity="1" stroke-width="3.2"></path>
<path clip-path="url(#clip863)" d="M2259.41 133.029 L2259.41 165.029 L2291.41 165.029 L2291.41 133.029 L2259.41 133.029 Z" fill="#009af9" fill-rule="evenodd" fill-opacity="1" stroke="#000000" stroke-opacity="1" stroke-width="3.2"></path>
<path clip-path="url(#clip863)" d="M2276.79 70.1857 L2276.79 102.186 L2308.79 102.186 L2308.79 70.1857 L2276.79 70.1857 Z" fill="#009af9" fill-rule="evenodd" fill-opacity="1" stroke="#000000" stroke-opacity="1" stroke-width="3.2"></path>
<path clip-path="url(#clip860)" d="M304.746 196.789 L610.258 196.789 L610.258 93.1086 L304.746 93.1086  Z" fill="#ffffff" fill-rule="evenodd" fill-opacity="1"></path>
<polyline clip-path="url(#clip860)" style="stroke:#000000; stroke-linecap:round; stroke-linejoin:round; stroke-width:4; stroke-opacity:1; fill:none" points="304.746,196.789 610.258,196.789 610.258,93.1086 304.746,93.1086 304.746,196.789 "></polyline>
<path clip-path="url(#clip860)" d="M373.308 119.349 L373.308 170.549 L424.508 170.549 L424.508 119.349 L373.308 119.349 Z" fill="#009af9" fill-rule="evenodd" fill-opacity="1" stroke="#000000" stroke-opacity="1" stroke-width="5.12"></path>
<path clip-path="url(#clip860)" d="M527.125 121.193 L524.104 133.419 Q523.893 134.192 523.753 134.286 Q523.635 134.38 523.261 134.38 Q522.535 134.38 522.535 133.888 Q522.535 133.841 522.605 133.232 Q522.675 132.599 522.675 131.452 Q522.675 127.212 520.614 124.706 Q518.576 122.2 514.946 122.2 Q511.807 122.2 508.645 123.793 Q505.506 125.385 503.258 127.985 Q501.572 129.953 500.33 132.435 Q499.112 134.918 498.527 137.19 Q497.964 139.462 497.707 141.172 Q497.449 142.882 497.449 144.123 Q497.449 145.927 497.824 147.449 Q498.222 148.972 498.925 150.049 Q499.627 151.103 500.518 151.923 Q501.431 152.719 502.485 153.188 Q503.562 153.656 504.64 153.89 Q505.717 154.101 506.842 154.101 Q511.362 154.101 515.672 150.588 Q519.092 147.707 520.52 142.999 Q520.637 142.531 521.129 142.531 Q521.715 142.531 521.715 142.999 Q521.715 143.093 521.598 143.561 Q521.481 144.006 521.129 144.92 Q520.778 145.81 520.239 146.817 Q519.7 147.824 518.693 149.089 Q517.686 150.354 516.445 151.454 Q514.337 153.281 511.667 154.429 Q508.996 155.577 506.069 155.577 Q502.415 155.577 499.463 153.961 Q496.512 152.345 494.779 149.323 Q493.069 146.302 493.069 142.437 Q493.069 138.361 494.943 134.356 Q496.817 130.351 499.791 127.376 Q502.766 124.402 506.701 122.551 Q510.636 120.701 514.571 120.701 Q516.07 120.701 517.405 121.099 Q518.74 121.497 519.537 121.989 Q520.356 122.481 521.082 123.207 Q521.809 123.91 522.043 124.238 Q522.3 124.566 522.535 124.964 L525.884 121.286 Q526.47 120.701 526.61 120.701 Q526.891 120.701 527.008 120.865 Q527.125 121.029 527.125 121.193 Z" fill="#000000" fill-rule="nonzero" fill-opacity="1"></path><path clip-path="url(#clip860)" d="M560.19 133.607 Q560.19 136.956 558.996 140.282 Q557.825 143.585 555.764 146.302 Q553.702 149.019 551.079 151.127 Q548.456 153.235 545.387 154.406 Q542.319 155.577 539.321 155.577 Q534.004 155.577 530.514 152.087 Q527.024 148.597 527.024 142.765 Q527.024 138.689 528.851 134.637 Q530.678 130.562 533.583 127.54 Q536.487 124.495 540.305 122.598 Q544.146 120.701 547.94 120.701 Q553.328 120.701 556.747 124.284 Q560.19 127.845 560.19 133.607 M555.904 131.733 Q555.904 129.156 555.178 127.212 Q554.452 125.245 553.234 124.121 Q552.039 122.996 550.611 122.458 Q549.205 121.895 547.659 121.895 Q544.661 121.895 541.452 123.839 Q538.244 125.783 535.855 129.391 Q534.566 131.358 533.629 133.724 Q532.692 136.066 532.271 138.151 Q531.849 140.212 531.662 141.664 Q531.498 143.116 531.498 144.123 Q531.498 148.808 533.746 151.572 Q535.995 154.335 539.602 154.335 Q542.436 154.335 545.2 152.672 Q547.964 150.986 549.861 148.574 Q551.548 146.489 552.789 143.983 Q554.054 141.477 554.686 139.181 Q555.319 136.886 555.6 135.035 Q555.904 133.185 555.904 131.733 Z" fill="#000000" fill-rule="nonzero" fill-opacity="1"></path><path clip-path="url(#clip860)" d="M564.972 168.859 Q564.972 168.252 565.022 168.072 Q565.087 167.891 565.349 167.613 L571.793 160.431 Q575.318 156.464 575.318 153.004 Q575.318 150.758 574.138 149.151 Q572.973 147.544 570.826 147.544 Q569.35 147.544 568.104 148.446 Q566.858 149.348 566.284 150.955 Q566.382 150.922 566.727 150.922 Q567.563 150.922 568.022 151.447 Q568.497 151.971 568.497 152.676 Q568.497 153.578 567.907 154.021 Q567.333 154.447 566.76 154.447 Q566.53 154.447 566.218 154.398 Q565.923 154.349 565.448 153.889 Q564.972 153.414 564.972 152.578 Q564.972 150.233 566.743 148.364 Q568.53 146.495 571.252 146.495 Q574.334 146.495 576.351 148.331 Q578.384 150.151 578.384 153.004 Q578.384 154.004 578.073 154.922 Q577.777 155.824 577.368 156.529 Q576.974 157.234 575.892 158.366 Q574.81 159.497 573.941 160.3 Q573.072 161.104 571.121 162.809 L567.563 166.268 L573.613 166.268 Q576.564 166.268 576.794 166.006 Q577.122 165.53 577.531 163.022 L578.384 163.022 L577.433 168.859 L564.972 168.859 Z" fill="#000000" fill-rule="nonzero" fill-opacity="1"></path></svg>