<svg xmlns="http://www.w3.org/2000/svg" xmlns:xlink="http://www.w3.org/1999/xlink" width="600" height="400" viewBox="0 0 2400 1600">
<defs>
  <clipPath id="clip950">
    <rect x="0" y="0" width="2400" height="1600"></rect>
  </clipPath>
</defs>
<path clip-path="url(#clip950)" d="M0 1600 L2400 1600 L2400 0 L0 0  Z" fill="#ffffff" fill-rule="evenodd" fill-opacity="1"></path>
<defs>
  <clipPath id="clip951">
    <rect x="480" y="0" width="1681" height="1600"></rect>
  </clipPath>
</defs>
<defs>
  <clipPath id="clip952">
    <rect x="220" y="47" width="2134" height="1377"></rect>
  </clipPath>
</defs>
<path clip-path="url(#clip950)" d="M232.875 1423.18 L2352.76 1423.18 L2352.76 47.2441 L232.875 47.2441  Z" fill="#ffffff" fill-rule="evenodd" fill-opacity="1"></path>
<defs>
  <clipPath id="clip953">
    <rect x="232" y="47" width="2121" height="1377"></rect>
  </clipPath>
</defs>
<polyline clip-path="url(#clip953)" style="stroke:#000000; stroke-linecap:round; stroke-linejoin:round; stroke-width:2; stroke-opacity:0.1; fill:none" points="273.826,1423.18 273.826,47.2441 "></polyline>
<polyline clip-path="url(#clip953)" style="stroke:#000000; stroke-linecap:round; stroke-linejoin:round; stroke-width:2; stroke-opacity:0.1; fill:none" points="749.989,1423.18 749.989,47.2441 "></polyline>
<polyline clip-path="url(#clip953)" style="stroke:#000000; stroke-linecap:round; stroke-linejoin:round; stroke-width:2; stroke-opacity:0.1; fill:none" points="1226.15,1423.18 1226.15,47.2441 "></polyline>
<polyline clip-path="url(#clip953)" style="stroke:#000000; stroke-linecap:round; stroke-linejoin:round; stroke-width:2; stroke-opacity:0.1; fill:none" points="1702.32,1423.18 1702.32,47.2441 "></polyline>
<polyline clip-path="url(#clip953)" style="stroke:#000000; stroke-linecap:round; stroke-linejoin:round; stroke-width:2; stroke-opacity:0.1; fill:none" points="2178.48,1423.18 2178.48,47.2441 "></polyline>
<polyline clip-path="url(#clip950)" style="stroke:#000000; stroke-linecap:round; stroke-linejoin:round; stroke-width:4; stroke-opacity:1; fill:none" points="232.875,1423.18 2352.76,1423.18 "></polyline>
<polyline clip-path="url(#clip950)" style="stroke:#000000; stroke-linecap:round; stroke-linejoin:round; stroke-width:4; stroke-opacity:1; fill:none" points="273.826,1423.18 273.826,1404.28 "></polyline>
<polyline clip-path="url(#clip950)" style="stroke:#000000; stroke-linecap:round; stroke-linejoin:round; stroke-width:4; stroke-opacity:1; fill:none" points="749.989,1423.18 749.989,1404.28 "></polyline>
<polyline clip-path="url(#clip950)" style="stroke:#000000; stroke-linecap:round; stroke-linejoin:round; stroke-width:4; stroke-opacity:1; fill:none" points="1226.15,1423.18 1226.15,1404.28 "></polyline>
<polyline clip-path="url(#clip950)" style="stroke:#000000; stroke-linecap:round; stroke-linejoin:round; stroke-width:4; stroke-opacity:1; fill:none" points="1702.32,1423.18 1702.32,1404.28 "></polyline>
<polyline clip-path="url(#clip950)" style="stroke:#000000; stroke-linecap:round; stroke-linejoin:round; stroke-width:4; stroke-opacity:1; fill:none" points="2178.48,1423.18 2178.48,1404.28 "></polyline>
<path clip-path="url(#clip950)" d="M273.826 1454.1 Q270.214 1454.1 268.386 1457.66 Q266.58 1461.2 266.58 1468.33 Q266.58 1475.44 268.386 1479.01 Q270.214 1482.55 273.826 1482.55 Q277.46 1482.55 279.265 1479.01 Q281.094 1475.44 281.094 1468.33 Q281.094 1461.2 279.265 1457.66 Q277.46 1454.1 273.826 1454.1 M273.826 1450.39 Q279.636 1450.39 282.691 1455 Q285.77 1459.58 285.77 1468.33 Q285.77 1477.06 282.691 1481.67 Q279.636 1486.25 273.826 1486.25 Q268.015 1486.25 264.937 1481.67 Q261.881 1477.06 261.881 1468.33 Q261.881 1459.58 264.937 1455 Q268.015 1450.39 273.826 1450.39 Z" fill="#000000" fill-rule="nonzero" fill-opacity="1"></path><path clip-path="url(#clip950)" d="M729.26 1481.64 L745.579 1481.64 L745.579 1485.58 L723.635 1485.58 L723.635 1481.64 Q726.297 1478.89 730.88 1474.26 Q735.487 1469.61 736.667 1468.27 Q738.913 1465.74 739.792 1464.01 Q740.695 1462.25 740.695 1460.56 Q740.695 1457.8 738.751 1456.07 Q736.829 1454.33 733.728 1454.33 Q731.529 1454.33 729.075 1455.09 Q726.644 1455.86 723.867 1457.41 L723.867 1452.69 Q726.691 1451.55 729.144 1450.97 Q731.598 1450.39 733.635 1450.39 Q739.005 1450.39 742.2 1453.08 Q745.394 1455.77 745.394 1460.26 Q745.394 1462.39 744.584 1464.31 Q743.797 1466.2 741.691 1468.8 Q741.112 1469.47 738.01 1472.69 Q734.908 1475.88 729.26 1481.64 Z" fill="#000000" fill-rule="nonzero" fill-opacity="1"></path><path clip-path="url(#clip950)" d="M755.441 1451.02 L773.797 1451.02 L773.797 1454.96 L759.723 1454.96 L759.723 1463.43 Q760.741 1463.08 761.76 1462.92 Q762.778 1462.73 763.797 1462.73 Q769.584 1462.73 772.964 1465.9 Q776.343 1469.08 776.343 1474.49 Q776.343 1480.07 772.871 1483.17 Q769.399 1486.25 763.079 1486.25 Q760.903 1486.25 758.635 1485.88 Q756.39 1485.51 753.982 1484.77 L753.982 1480.07 Q756.066 1481.2 758.288 1481.76 Q760.51 1482.32 762.987 1482.32 Q766.991 1482.32 769.329 1480.21 Q771.667 1478.1 771.667 1474.49 Q771.667 1470.88 769.329 1468.77 Q766.991 1466.67 762.987 1466.67 Q761.112 1466.67 759.237 1467.08 Q757.385 1467.5 755.441 1468.38 L755.441 1451.02 Z" fill="#000000" fill-rule="nonzero" fill-opacity="1"></path><path clip-path="url(#clip950)" d="M1200.85 1451.02 L1219.21 1451.02 L1219.21 1454.96 L1205.13 1454.96 L1205.13 1463.43 Q1206.15 1463.08 1207.17 1462.92 Q1208.19 1462.73 1209.21 1462.73 Q1215 1462.73 1218.38 1465.9 Q1221.75 1469.08 1221.75 1474.49 Q1221.75 1480.07 1218.28 1483.17 Q1214.81 1486.25 1208.49 1486.25 Q1206.31 1486.25 1204.05 1485.88 Q1201.8 1485.51 1199.39 1484.77 L1199.39 1480.07 Q1201.48 1481.2 1203.7 1481.76 Q1205.92 1482.32 1208.4 1482.32 Q1212.4 1482.32 1214.74 1480.21 Q1217.08 1478.1 1217.08 1474.49 Q1217.08 1470.88 1214.74 1468.77 Q1212.4 1466.67 1208.4 1466.67 Q1206.52 1466.67 1204.65 1467.08 Q1202.8 1467.5 1200.85 1468.38 L1200.85 1451.02 Z" fill="#000000" fill-rule="nonzero" fill-opacity="1"></path><path clip-path="url(#clip950)" d="M1240.97 1454.1 Q1237.36 1454.1 1235.53 1457.66 Q1233.72 1461.2 1233.72 1468.33 Q1233.72 1475.44 1235.53 1479.01 Q1237.36 1482.55 1240.97 1482.55 Q1244.6 1482.55 1246.41 1479.01 Q1248.24 1475.44 1248.24 1468.33 Q1248.24 1461.2 1246.41 1457.66 Q1244.6 1454.1 1240.97 1454.1 M1240.97 1450.39 Q1246.78 1450.39 1249.83 1455 Q1252.91 1459.58 1252.91 1468.33 Q1252.91 1477.06 1249.83 1481.67 Q1246.78 1486.25 1240.97 1486.25 Q1235.16 1486.25 1232.08 1481.67 Q1229.02 1477.06 1229.02 1468.33 Q1229.02 1459.58 1232.08 1455 Q1235.16 1450.39 1240.97 1450.39 Z" fill="#000000" fill-rule="nonzero" fill-opacity="1"></path><path clip-path="url(#clip950)" d="M1676.17 1451.02 L1698.39 1451.02 L1698.39 1453.01 L1685.85 1485.58 L1680.96 1485.58 L1692.77 1454.96 L1676.17 1454.96 L1676.17 1451.02 Z" fill="#000000" fill-rule="nonzero" fill-opacity="1"></path><path clip-path="url(#clip950)" d="M1707.56 1451.02 L1725.92 1451.02 L1725.92 1454.96 L1711.84 1454.96 L1711.84 1463.43 Q1712.86 1463.08 1713.88 1462.92 Q1714.9 1462.73 1715.92 1462.73 Q1721.7 1462.73 1725.08 1465.9 Q1728.46 1469.08 1728.46 1474.49 Q1728.46 1480.07 1724.99 1483.17 Q1721.52 1486.25 1715.2 1486.25 Q1713.02 1486.25 1710.75 1485.88 Q1708.51 1485.51 1706.1 1484.77 L1706.1 1480.07 Q1708.18 1481.2 1710.41 1481.76 Q1712.63 1482.32 1715.11 1482.32 Q1719.11 1482.32 1721.45 1480.21 Q1723.79 1478.1 1723.79 1474.49 Q1723.79 1470.88 1721.45 1468.77 Q1719.11 1466.67 1715.11 1466.67 Q1713.23 1466.67 1711.36 1467.08 Q1709.5 1467.5 1707.56 1468.38 L1707.56 1451.02 Z" fill="#000000" fill-rule="nonzero" fill-opacity="1"></path><path clip-path="url(#clip950)" d="M2138.09 1481.64 L2145.73 1481.64 L2145.73 1455.28 L2137.42 1456.95 L2137.42 1452.69 L2145.68 1451.02 L2150.36 1451.02 L2150.36 1481.64 L2157.99 1481.64 L2157.99 1485.58 L2138.09 1485.58 L2138.09 1481.64 Z" fill="#000000" fill-rule="nonzero" fill-opacity="1"></path><path clip-path="url(#clip950)" d="M2177.44 1454.1 Q2173.83 1454.1 2172 1457.66 Q2170.19 1461.2 2170.19 1468.33 Q2170.19 1475.44 2172 1479.01 Q2173.83 1482.55 2177.44 1482.55 Q2181.07 1482.55 2182.88 1479.01 Q2184.71 1475.44 2184.71 1468.33 Q2184.71 1461.2 2182.88 1457.66 Q2181.07 1454.1 2177.44 1454.1 M2177.44 1450.39 Q2183.25 1450.39 2186.3 1455 Q2189.38 1459.58 2189.38 1468.33 Q2189.38 1477.06 2186.3 1481.67 Q2183.25 1486.25 2177.44 1486.25 Q2171.63 1486.25 2168.55 1481.67 Q2165.49 1477.06 2165.49 1468.33 Q2165.49 1459.58 2168.55 1455 Q2171.63 1450.39 2177.44 1450.39 Z" fill="#000000" fill-rule="nonzero" fill-opacity="1"></path><path clip-path="url(#clip950)" d="M2207.6 1454.1 Q2203.99 1454.1 2202.16 1457.66 Q2200.35 1461.2 2200.35 1468.33 Q2200.35 1475.44 2202.16 1479.01 Q2203.99 1482.55 2207.6 1482.55 Q2211.23 1482.55 2213.04 1479.01 Q2214.87 1475.44 2214.87 1468.33 Q2214.87 1461.2 2213.04 1457.66 Q2211.23 1454.1 2207.6 1454.1 M2207.6 1450.39 Q2213.41 1450.39 2216.47 1455 Q2219.54 1459.58 2219.54 1468.33 Q2219.54 1477.06 2216.47 1481.67 Q2213.41 1486.25 2207.6 1486.25 Q2201.79 1486.25 2198.71 1481.67 Q2195.66 1477.06 2195.66 1468.33 Q2195.66 1459.58 2198.71 1455 Q2201.79 1450.39 2207.6 1450.39 Z" fill="#000000" fill-rule="nonzero" fill-opacity="1"></path><path clip-path="url(#clip950)" d="M949.593 1520.52 L959.173 1520.52 L971.3 1552.86 L983.49 1520.52 L993.07 1520.52 L993.07 1568.04 L986.8 1568.04 L986.8 1526.32 L974.546 1558.91 L968.085 1558.91 L955.831 1526.32 L955.831 1568.04 L949.593 1568.04 L949.593 1520.52 Z" fill="#000000" fill-rule="nonzero" fill-opacity="1"></path><path clip-path="url(#clip950)" d="M1005.58 1532.4 L1011.44 1532.4 L1011.44 1568.04 L1005.58 1568.04 L1005.58 1532.4 M1005.58 1518.52 L1011.44 1518.52 L1011.44 1525.93 L1005.58 1525.93 L1005.58 1518.52 Z" fill="#000000" fill-rule="nonzero" fill-opacity="1"></path><path clip-path="url(#clip950)" d="M1053.32 1532.4 L1040.43 1549.74 L1053.99 1568.04 L1047.08 1568.04 L1036.71 1554.04 L1026.33 1568.04 L1019.42 1568.04 L1033.27 1549.39 L1020.6 1532.4 L1027.51 1532.4 L1036.96 1545.1 L1046.42 1532.4 L1053.32 1532.4 Z" fill="#000000" fill-rule="nonzero" fill-opacity="1"></path><path clip-path="url(#clip950)" d="M1062.27 1532.4 L1068.12 1532.4 L1068.12 1568.04 L1062.27 1568.04 L1062.27 1532.4 M1062.27 1518.52 L1068.12 1518.52 L1068.12 1525.93 L1062.27 1525.93 L1062.27 1518.52 Z" fill="#000000" fill-rule="nonzero" fill-opacity="1"></path><path clip-path="url(#clip950)" d="M1110.01 1546.53 L1110.01 1568.04 L1104.15 1568.04 L1104.15 1546.72 Q1104.15 1541.66 1102.18 1539.14 Q1100.21 1536.63 1096.26 1536.63 Q1091.52 1536.63 1088.78 1539.65 Q1086.04 1542.68 1086.04 1547.9 L1086.04 1568.04 L1080.15 1568.04 L1080.15 1532.4 L1086.04 1532.4 L1086.04 1537.93 Q1088.14 1534.72 1090.98 1533.13 Q1093.84 1531.54 1097.56 1531.54 Q1103.71 1531.54 1106.86 1535.36 Q1110.01 1539.14 1110.01 1546.53 Z" fill="#000000" fill-rule="nonzero" fill-opacity="1"></path><path clip-path="url(#clip950)" d="M1145.15 1549.81 Q1145.15 1543.44 1142.51 1539.94 Q1139.9 1536.44 1135.15 1536.44 Q1130.44 1536.44 1127.8 1539.94 Q1125.19 1543.44 1125.19 1549.81 Q1125.19 1556.14 1127.8 1559.64 Q1130.44 1563.14 1135.15 1563.14 Q1139.9 1563.14 1142.51 1559.64 Q1145.15 1556.14 1145.15 1549.81 M1151 1563.62 Q1151 1572.72 1146.96 1577.15 Q1142.92 1581.6 1134.58 1581.6 Q1131.49 1581.6 1128.76 1581.13 Q1126.02 1580.68 1123.44 1579.72 L1123.44 1574.03 Q1126.02 1575.43 1128.53 1576.1 Q1131.05 1576.76 1133.66 1576.76 Q1139.42 1576.76 1142.28 1573.74 Q1145.15 1570.75 1145.15 1564.67 L1145.15 1561.77 Q1143.33 1564.92 1140.5 1566.48 Q1137.67 1568.04 1133.72 1568.04 Q1127.16 1568.04 1123.15 1563.05 Q1119.14 1558.05 1119.14 1549.81 Q1119.14 1541.53 1123.15 1536.53 Q1127.16 1531.54 1133.72 1531.54 Q1137.67 1531.54 1140.5 1533.1 Q1143.33 1534.66 1145.15 1537.81 L1145.15 1532.4 L1151 1532.4 L1151 1563.62 Z" fill="#000000" fill-rule="nonzero" fill-opacity="1"></path><path clip-path="url(#clip950)" d="M1190.47 1525.81 L1190.47 1543.66 L1198.56 1543.66 Q1203.04 1543.66 1205.49 1541.34 Q1207.94 1539.02 1207.94 1534.72 Q1207.94 1530.45 1205.49 1528.13 Q1203.04 1525.81 1198.56 1525.81 L1190.47 1525.81 M1184.04 1520.52 L1198.56 1520.52 Q1206.54 1520.52 1210.62 1524.15 Q1214.72 1527.75 1214.72 1534.72 Q1214.72 1541.75 1210.62 1545.35 Q1206.54 1548.95 1198.56 1548.95 L1190.47 1548.95 L1190.47 1568.04 L1184.04 1568.04 L1184.04 1520.52 Z" fill="#000000" fill-rule="nonzero" fill-opacity="1"></path><path clip-path="url(#clip950)" d="M1242.61 1537.87 Q1241.62 1537.3 1240.44 1537.04 Q1239.3 1536.76 1237.9 1536.76 Q1232.93 1536.76 1230.26 1540 Q1227.61 1543.22 1227.61 1549.27 L1227.61 1568.04 L1221.73 1568.04 L1221.73 1532.4 L1227.61 1532.4 L1227.61 1537.93 Q1229.46 1534.69 1232.42 1533.13 Q1235.38 1531.54 1239.61 1531.54 Q1240.22 1531.54 1240.95 1531.63 Q1241.68 1531.7 1242.57 1531.85 L1242.61 1537.87 Z" fill="#000000" fill-rule="nonzero" fill-opacity="1"></path><path clip-path="url(#clip950)" d="M1277.81 1548.76 L1277.81 1551.62 L1250.88 1551.62 Q1251.26 1557.67 1254.51 1560.85 Q1257.79 1564 1263.61 1564 Q1266.99 1564 1270.14 1563.17 Q1273.32 1562.35 1276.44 1560.69 L1276.44 1566.23 Q1273.29 1567.57 1269.98 1568.27 Q1266.67 1568.97 1263.26 1568.97 Q1254.73 1568.97 1249.74 1564 Q1244.77 1559.04 1244.77 1550.57 Q1244.77 1541.82 1249.48 1536.69 Q1254.22 1531.54 1262.24 1531.54 Q1269.44 1531.54 1273.61 1536.18 Q1277.81 1540.8 1277.81 1548.76 M1271.95 1547.04 Q1271.89 1542.23 1269.25 1539.37 Q1266.64 1536.5 1262.31 1536.5 Q1257.41 1536.5 1254.45 1539.27 Q1251.52 1542.04 1251.07 1547.07 L1271.95 1547.04 Z" fill="#000000" fill-rule="nonzero" fill-opacity="1"></path><path clip-path="url(#clip950)" d="M1310.15 1533.45 L1310.15 1538.98 Q1307.66 1537.71 1304.99 1537.07 Q1302.32 1536.44 1299.45 1536.44 Q1295.09 1536.44 1292.9 1537.77 Q1290.73 1539.11 1290.73 1541.79 Q1290.73 1543.82 1292.29 1545 Q1293.85 1546.15 1298.56 1547.2 L1300.57 1547.64 Q1306.8 1548.98 1309.41 1551.43 Q1312.06 1553.85 1312.06 1558.21 Q1312.06 1563.17 1308.11 1566.07 Q1304.19 1568.97 1297.32 1568.97 Q1294.45 1568.97 1291.34 1568.39 Q1288.25 1567.85 1284.81 1566.74 L1284.81 1560.69 Q1288.06 1562.38 1291.21 1563.24 Q1294.36 1564.07 1297.45 1564.07 Q1301.58 1564.07 1303.81 1562.66 Q1306.04 1561.23 1306.04 1558.65 Q1306.04 1556.27 1304.42 1554.99 Q1302.83 1553.72 1297.38 1552.54 L1295.35 1552.07 Q1289.9 1550.92 1287.48 1548.56 Q1285.07 1546.18 1285.07 1542.04 Q1285.07 1537.01 1288.63 1534.27 Q1292.2 1531.54 1298.75 1531.54 Q1302 1531.54 1304.86 1532.01 Q1307.73 1532.49 1310.15 1533.45 Z" fill="#000000" fill-rule="nonzero" fill-opacity="1"></path><path clip-path="url(#clip950)" d="M1344.11 1533.45 L1344.11 1538.98 Q1341.62 1537.71 1338.95 1537.07 Q1336.28 1536.44 1333.41 1536.44 Q1329.05 1536.44 1326.86 1537.77 Q1324.69 1539.11 1324.69 1541.79 Q1324.69 1543.82 1326.25 1545 Q1327.81 1546.15 1332.52 1547.2 L1334.53 1547.64 Q1340.77 1548.98 1343.38 1551.43 Q1346.02 1553.85 1346.02 1558.21 Q1346.02 1563.17 1342.07 1566.07 Q1338.16 1568.97 1331.28 1568.97 Q1328.42 1568.97 1325.3 1568.39 Q1322.21 1567.85 1318.77 1566.74 L1318.77 1560.69 Q1322.02 1562.38 1325.17 1563.24 Q1328.32 1564.07 1331.41 1564.07 Q1335.55 1564.07 1337.77 1562.66 Q1340 1561.23 1340 1558.65 Q1340 1556.27 1338.38 1554.99 Q1336.79 1553.72 1331.34 1552.54 L1329.31 1552.07 Q1323.86 1550.92 1321.45 1548.56 Q1319.03 1546.18 1319.03 1542.04 Q1319.03 1537.01 1322.59 1534.27 Q1326.16 1531.54 1332.71 1531.54 Q1335.96 1531.54 1338.82 1532.01 Q1341.69 1532.49 1344.11 1533.45 Z" fill="#000000" fill-rule="nonzero" fill-opacity="1"></path><path clip-path="url(#clip950)" d="M1354.74 1553.98 L1354.74 1532.4 L1360.59 1532.4 L1360.59 1553.75 Q1360.59 1558.81 1362.57 1561.36 Q1364.54 1563.87 1368.49 1563.87 Q1373.23 1563.87 1375.97 1560.85 Q1378.74 1557.83 1378.74 1552.61 L1378.74 1532.4 L1384.59 1532.4 L1384.59 1568.04 L1378.74 1568.04 L1378.74 1562.57 Q1376.6 1565.82 1373.77 1567.41 Q1370.97 1568.97 1367.25 1568.97 Q1361.1 1568.97 1357.92 1565.15 Q1354.74 1561.33 1354.74 1553.98 M1369.47 1531.54 L1369.47 1531.54 Z" fill="#000000" fill-rule="nonzero" fill-opacity="1"></path><path clip-path="url(#clip950)" d="M1417.31 1537.87 Q1416.33 1537.3 1415.15 1537.04 Q1414 1536.76 1412.6 1536.76 Q1407.64 1536.76 1404.96 1540 Q1402.32 1543.22 1402.32 1549.27 L1402.32 1568.04 L1396.43 1568.04 L1396.43 1532.4 L1402.32 1532.4 L1402.32 1537.93 Q1404.17 1534.69 1407.13 1533.13 Q1410.09 1531.54 1414.32 1531.54 Q1414.93 1531.54 1415.66 1531.63 Q1416.39 1531.7 1417.28 1531.85 L1417.31 1537.87 Z" fill="#000000" fill-rule="nonzero" fill-opacity="1"></path><path clip-path="url(#clip950)" d="M1452.52 1548.76 L1452.52 1551.62 L1425.59 1551.62 Q1425.97 1557.67 1429.22 1560.85 Q1432.5 1564 1438.32 1564 Q1441.69 1564 1444.84 1563.17 Q1448.03 1562.35 1451.15 1560.69 L1451.15 1566.23 Q1448 1567.57 1444.69 1568.27 Q1441.38 1568.97 1437.97 1568.97 Q1429.44 1568.97 1424.44 1564 Q1419.48 1559.04 1419.48 1550.57 Q1419.48 1541.82 1424.19 1536.69 Q1428.93 1531.54 1436.95 1531.54 Q1444.14 1531.54 1448.31 1536.18 Q1452.52 1540.8 1452.52 1548.76 M1446.66 1547.04 Q1446.6 1542.23 1443.95 1539.37 Q1441.34 1536.5 1437.01 1536.5 Q1432.11 1536.5 1429.15 1539.27 Q1426.22 1542.04 1425.78 1547.07 L1446.66 1547.04 Z" fill="#000000" fill-rule="nonzero" fill-opacity="1"></path><path clip-path="url(#clip950)" d="M1482.31 1518.52 L1495.8 1518.52 L1495.8 1523.07 L1488.16 1523.07 L1488.16 1572.09 L1495.8 1572.09 L1495.8 1576.64 L1482.31 1576.64 L1482.31 1518.52 Z" fill="#000000" fill-rule="nonzero" fill-opacity="1"></path><path clip-path="url(#clip950)" d="M1508.06 1518.52 L1513.94 1518.52 L1513.94 1547.77 L1531.42 1532.4 L1538.9 1532.4 L1519.99 1549.07 L1539.69 1568.04 L1532.05 1568.04 L1513.94 1550.63 L1513.94 1568.04 L1508.06 1568.04 L1508.06 1518.52 Z" fill="#000000" fill-rule="nonzero" fill-opacity="1"></path><path clip-path="url(#clip950)" d="M1552.71 1525.81 L1552.71 1543.66 L1560.8 1543.66 Q1565.28 1543.66 1567.73 1541.34 Q1570.19 1539.02 1570.19 1534.72 Q1570.19 1530.45 1567.73 1528.13 Q1565.28 1525.81 1560.8 1525.81 L1552.71 1525.81 M1546.28 1520.52 L1560.8 1520.52 Q1568.78 1520.52 1572.86 1524.15 Q1576.96 1527.75 1576.96 1534.72 Q1576.96 1541.75 1572.86 1545.35 Q1568.78 1548.95 1560.8 1548.95 L1552.71 1548.95 L1552.71 1568.04 L1546.28 1568.04 L1546.28 1520.52 Z" fill="#000000" fill-rule="nonzero" fill-opacity="1"></path><path clip-path="url(#clip950)" d="M1598.61 1550.12 Q1591.51 1550.12 1588.77 1551.75 Q1586.04 1553.37 1586.04 1557.29 Q1586.04 1560.4 1588.07 1562.25 Q1590.14 1564.07 1593.67 1564.07 Q1598.54 1564.07 1601.47 1560.63 Q1604.43 1557.16 1604.43 1551.43 L1604.43 1550.12 L1598.61 1550.12 M1610.29 1547.71 L1610.29 1568.04 L1604.43 1568.04 L1604.43 1562.63 Q1602.43 1565.88 1599.44 1567.44 Q1596.44 1568.97 1592.12 1568.97 Q1586.64 1568.97 1583.39 1565.91 Q1580.18 1562.82 1580.18 1557.67 Q1580.18 1551.65 1584.19 1548.6 Q1588.23 1545.54 1596.22 1545.54 L1604.43 1545.54 L1604.43 1544.97 Q1604.43 1540.93 1601.76 1538.73 Q1599.12 1536.5 1594.31 1536.5 Q1591.26 1536.5 1588.36 1537.23 Q1585.46 1537.97 1582.79 1539.43 L1582.79 1534.02 Q1586 1532.78 1589.03 1532.17 Q1592.05 1531.54 1594.92 1531.54 Q1602.65 1531.54 1606.47 1535.55 Q1610.29 1539.56 1610.29 1547.71 Z" fill="#000000" fill-rule="nonzero" fill-opacity="1"></path><path clip-path="url(#clip950)" d="M1636.04 1518.52 L1636.04 1576.64 L1622.54 1576.64 L1622.54 1572.09 L1630.15 1572.09 L1630.15 1523.07 L1622.54 1523.07 L1622.54 1518.52 L1636.04 1518.52 Z" fill="#000000" fill-rule="nonzero" fill-opacity="1"></path><polyline clip-path="url(#clip953)" style="stroke:#000000; stroke-linecap:round; stroke-linejoin:round; stroke-width:2; stroke-opacity:0.1; fill:none" points="232.875,1311.28 2352.76,1311.28 "></polyline>
<polyline clip-path="url(#clip953)" style="stroke:#000000; stroke-linecap:round; stroke-linejoin:round; stroke-width:2; stroke-opacity:0.1; fill:none" points="232.875,1130.48 2352.76,1130.48 "></polyline>
<polyline clip-path="url(#clip953)" style="stroke:#000000; stroke-linecap:round; stroke-linejoin:round; stroke-width:2; stroke-opacity:0.1; fill:none" points="232.875,949.688 2352.76,949.688 "></polyline>
<polyline clip-path="url(#clip953)" style="stroke:#000000; stroke-linecap:round; stroke-linejoin:round; stroke-width:2; stroke-opacity:0.1; fill:none" points="232.875,768.892 2352.76,768.892 "></polyline>
<polyline clip-path="url(#clip953)" style="stroke:#000000; stroke-linecap:round; stroke-linejoin:round; stroke-width:2; stroke-opacity:0.1; fill:none" points="232.875,588.097 2352.76,588.097 "></polyline>
<polyline clip-path="url(#clip953)" style="stroke:#000000; stroke-linecap:round; stroke-linejoin:round; stroke-width:2; stroke-opacity:0.1; fill:none" points="232.875,407.302 2352.76,407.302 "></polyline>
<polyline clip-path="url(#clip953)" style="stroke:#000000; stroke-linecap:round; stroke-linejoin:round; stroke-width:2; stroke-opacity:0.1; fill:none" points="232.875,226.506 2352.76,226.506 "></polyline>
<polyline clip-path="url(#clip950)" style="stroke:#000000; stroke-linecap:round; stroke-linejoin:round; stroke-width:4; stroke-opacity:1; fill:none" points="232.875,1423.18 232.875,47.2441 "></polyline>
<polyline clip-path="url(#clip950)" style="stroke:#000000; stroke-linecap:round; stroke-linejoin:round; stroke-width:4; stroke-opacity:1; fill:none" points="232.875,1311.28 251.773,1311.28 "></polyline>
<polyline clip-path="url(#clip950)" style="stroke:#000000; stroke-linecap:round; stroke-linejoin:round; stroke-width:4; stroke-opacity:1; fill:none" points="232.875,1130.48 251.773,1130.48 "></polyline>
<polyline clip-path="url(#clip950)" style="stroke:#000000; stroke-linecap:round; stroke-linejoin:round; stroke-width:4; stroke-opacity:1; fill:none" points="232.875,949.688 251.773,949.688 "></polyline>
<polyline clip-path="url(#clip950)" style="stroke:#000000; stroke-linecap:round; stroke-linejoin:round; stroke-width:4; stroke-opacity:1; fill:none" points="232.875,768.892 251.773,768.892 "></polyline>
<polyline clip-path="url(#clip950)" style="stroke:#000000; stroke-linecap:round; stroke-linejoin:round; stroke-width:4; stroke-opacity:1; fill:none" points="232.875,588.097 251.773,588.097 "></polyline>
<polyline clip-path="url(#clip950)" style="stroke:#000000; stroke-linecap:round; stroke-linejoin:round; stroke-width:4; stroke-opacity:1; fill:none" points="232.875,407.302 251.773,407.302 "></polyline>
<polyline clip-path="url(#clip950)" style="stroke:#000000; stroke-linecap:round; stroke-linejoin:round; stroke-width:4; stroke-opacity:1; fill:none" points="232.875,226.506 251.773,226.506 "></polyline>
<path clip-path="url(#clip950)" d="M114.931 1324.62 L122.57 1324.62 L122.57 1298.26 L114.26 1299.92 L114.26 1295.66 L122.524 1294 L127.2 1294 L127.2 1324.62 L134.839 1324.62 L134.839 1328.56 L114.931 1328.56 L114.931 1324.62 Z" fill="#000000" fill-rule="nonzero" fill-opacity="1"></path><path clip-path="url(#clip950)" d="M148.311 1324.62 L164.63 1324.62 L164.63 1328.56 L142.686 1328.56 L142.686 1324.62 Q145.348 1321.87 149.931 1317.24 Q154.538 1312.59 155.718 1311.24 Q157.964 1308.72 158.843 1306.98 Q159.746 1305.23 159.746 1303.54 Q159.746 1300.78 157.802 1299.04 Q155.88 1297.31 152.778 1297.31 Q150.579 1297.31 148.126 1298.07 Q145.695 1298.84 142.917 1300.39 L142.917 1295.66 Q145.741 1294.53 148.195 1293.95 Q150.649 1293.37 152.686 1293.37 Q158.056 1293.37 161.251 1296.06 Q164.445 1298.74 164.445 1303.23 Q164.445 1305.36 163.635 1307.29 Q162.848 1309.18 160.741 1311.78 Q160.163 1312.45 157.061 1315.66 Q153.959 1318.86 148.311 1324.62 Z" fill="#000000" fill-rule="nonzero" fill-opacity="1"></path><path clip-path="url(#clip950)" d="M187.292 1298.07 L175.487 1316.52 L187.292 1316.52 L187.292 1298.07 M186.065 1294 L191.945 1294 L191.945 1316.52 L196.875 1316.52 L196.875 1320.41 L191.945 1320.41 L191.945 1328.56 L187.292 1328.56 L187.292 1320.41 L171.69 1320.41 L171.69 1315.9 L186.065 1294 Z" fill="#000000" fill-rule="nonzero" fill-opacity="1"></path><path clip-path="url(#clip950)" d="M115.256 1143.83 L122.894 1143.83 L122.894 1117.46 L114.584 1119.13 L114.584 1114.87 L122.848 1113.2 L127.524 1113.2 L127.524 1143.83 L135.163 1143.83 L135.163 1147.76 L115.256 1147.76 L115.256 1143.83 Z" fill="#000000" fill-rule="nonzero" fill-opacity="1"></path><path clip-path="url(#clip950)" d="M148.635 1143.83 L164.954 1143.83 L164.954 1147.76 L143.01 1147.76 L143.01 1143.83 Q145.672 1141.07 150.255 1136.44 Q154.862 1131.79 156.042 1130.45 Q158.288 1127.93 159.167 1126.19 Q160.07 1124.43 160.07 1122.74 Q160.07 1119.99 158.126 1118.25 Q156.204 1116.51 153.103 1116.51 Q150.903 1116.51 148.45 1117.28 Q146.019 1118.04 143.241 1119.59 L143.241 1114.87 Q146.066 1113.74 148.519 1113.16 Q150.973 1112.58 153.01 1112.58 Q158.38 1112.58 161.575 1115.26 Q164.769 1117.95 164.769 1122.44 Q164.769 1124.57 163.959 1126.49 Q163.172 1128.39 161.065 1130.98 Q160.487 1131.65 157.385 1134.87 Q154.283 1138.06 148.635 1143.83 Z" fill="#000000" fill-rule="nonzero" fill-opacity="1"></path><path clip-path="url(#clip950)" d="M185.348 1128.62 Q182.2 1128.62 180.348 1130.77 Q178.519 1132.93 178.519 1136.68 Q178.519 1140.4 180.348 1142.58 Q182.2 1144.73 185.348 1144.73 Q188.496 1144.73 190.325 1142.58 Q192.176 1140.4 192.176 1136.68 Q192.176 1132.93 190.325 1130.77 Q188.496 1128.62 185.348 1128.62 M194.63 1113.97 L194.63 1118.23 Q192.871 1117.39 191.065 1116.95 Q189.283 1116.51 187.524 1116.51 Q182.894 1116.51 180.44 1119.64 Q178.01 1122.76 177.663 1129.08 Q179.028 1127.07 181.089 1126 Q183.149 1124.92 185.626 1124.92 Q190.834 1124.92 193.843 1128.09 Q196.875 1131.24 196.875 1136.68 Q196.875 1142 193.727 1145.22 Q190.579 1148.43 185.348 1148.43 Q179.352 1148.43 176.181 1143.85 Q173.01 1139.24 173.01 1130.52 Q173.01 1122.32 176.899 1117.46 Q180.788 1112.58 187.338 1112.58 Q189.098 1112.58 190.88 1112.93 Q192.686 1113.27 194.63 1113.97 Z" fill="#000000" fill-rule="nonzero" fill-opacity="1"></path><path clip-path="url(#clip950)" d="M115.51 963.032 L123.149 963.032 L123.149 936.667 L114.839 938.333 L114.839 934.074 L123.103 932.408 L127.779 932.408 L127.779 963.032 L135.417 963.032 L135.417 966.968 L115.51 966.968 L115.51 963.032 Z" fill="#000000" fill-rule="nonzero" fill-opacity="1"></path><path clip-path="url(#clip950)" d="M148.89 963.032 L165.209 963.032 L165.209 966.968 L143.265 966.968 L143.265 963.032 Q145.927 960.278 150.51 955.648 Q155.116 950.995 156.297 949.653 Q158.542 947.13 159.422 945.394 Q160.325 943.634 160.325 941.945 Q160.325 939.19 158.38 937.454 Q156.459 935.718 153.357 935.718 Q151.158 935.718 148.704 936.482 Q146.274 937.246 143.496 938.796 L143.496 934.074 Q146.32 932.94 148.774 932.361 Q151.228 931.783 153.265 931.783 Q158.635 931.783 161.829 934.468 Q165.024 937.153 165.024 941.644 Q165.024 943.773 164.214 945.695 Q163.427 947.593 161.32 950.185 Q160.741 950.857 157.64 954.074 Q154.538 957.269 148.89 963.032 Z" fill="#000000" fill-rule="nonzero" fill-opacity="1"></path><path clip-path="url(#clip950)" d="M185.024 950.556 Q181.69 950.556 179.769 952.338 Q177.871 954.12 177.871 957.245 Q177.871 960.37 179.769 962.153 Q181.69 963.935 185.024 963.935 Q188.357 963.935 190.278 962.153 Q192.2 960.347 192.2 957.245 Q192.2 954.12 190.278 952.338 Q188.38 950.556 185.024 950.556 M180.348 948.565 Q177.339 947.824 175.649 945.764 Q173.982 943.704 173.982 940.741 Q173.982 936.597 176.922 934.19 Q179.885 931.783 185.024 931.783 Q190.186 931.783 193.125 934.19 Q196.065 936.597 196.065 940.741 Q196.065 943.704 194.375 945.764 Q192.709 947.824 189.723 948.565 Q193.102 949.352 194.977 951.644 Q196.875 953.935 196.875 957.245 Q196.875 962.269 193.797 964.954 Q190.741 967.639 185.024 967.639 Q179.306 967.639 176.227 964.954 Q173.172 962.269 173.172 957.245 Q173.172 953.935 175.07 951.644 Q176.968 949.352 180.348 948.565 M178.635 941.181 Q178.635 943.866 180.301 945.37 Q181.991 946.875 185.024 946.875 Q188.033 946.875 189.723 945.37 Q191.436 943.866 191.436 941.181 Q191.436 938.496 189.723 936.991 Q188.033 935.486 185.024 935.486 Q181.991 935.486 180.301 936.991 Q178.635 938.496 178.635 941.181 Z" fill="#000000" fill-rule="nonzero" fill-opacity="1"></path><path clip-path="url(#clip950)" d="M115.418 782.237 L123.056 782.237 L123.056 755.871 L114.746 757.538 L114.746 753.279 L123.01 751.612 L127.686 751.612 L127.686 782.237 L135.325 782.237 L135.325 786.172 L115.418 786.172 L115.418 782.237 Z" fill="#000000" fill-rule="nonzero" fill-opacity="1"></path><path clip-path="url(#clip950)" d="M158.936 767.538 Q162.292 768.256 164.167 770.524 Q166.065 772.793 166.065 776.126 Q166.065 781.242 162.547 784.043 Q159.028 786.844 152.547 786.844 Q150.371 786.844 148.056 786.404 Q145.765 785.987 143.311 785.131 L143.311 780.617 Q145.255 781.751 147.57 782.33 Q149.885 782.908 152.408 782.908 Q156.806 782.908 159.098 781.172 Q161.413 779.436 161.413 776.126 Q161.413 773.07 159.26 771.357 Q157.13 769.621 153.311 769.621 L149.283 769.621 L149.283 765.779 L153.496 765.779 Q156.945 765.779 158.774 764.413 Q160.603 763.024 160.603 760.432 Q160.603 757.77 158.704 756.358 Q156.829 754.922 153.311 754.922 Q151.39 754.922 149.191 755.339 Q146.991 755.756 144.353 756.635 L144.353 752.469 Q147.015 751.728 149.329 751.358 Q151.667 750.987 153.728 750.987 Q159.052 750.987 162.153 753.418 Q165.255 755.825 165.255 759.946 Q165.255 762.816 163.612 764.807 Q161.968 766.774 158.936 767.538 Z" fill="#000000" fill-rule="nonzero" fill-opacity="1"></path><path clip-path="url(#clip950)" d="M184.931 754.691 Q181.32 754.691 179.491 758.256 Q177.686 761.797 177.686 768.927 Q177.686 776.033 179.491 779.598 Q181.32 783.14 184.931 783.14 Q188.565 783.14 190.371 779.598 Q192.2 776.033 192.2 768.927 Q192.2 761.797 190.371 758.256 Q188.565 754.691 184.931 754.691 M184.931 750.987 Q190.741 750.987 193.797 755.594 Q196.875 760.177 196.875 768.927 Q196.875 777.654 193.797 782.26 Q190.741 786.844 184.931 786.844 Q179.121 786.844 176.042 782.26 Q172.987 777.654 172.987 768.927 Q172.987 760.177 176.042 755.594 Q179.121 750.987 184.931 750.987 Z" fill="#000000" fill-rule="nonzero" fill-opacity="1"></path><path clip-path="url(#clip950)" d="M117.015 601.442 L124.654 601.442 L124.654 575.076 L116.343 576.743 L116.343 572.484 L124.607 570.817 L129.283 570.817 L129.283 601.442 L136.922 601.442 L136.922 605.377 L117.015 605.377 L117.015 601.442 Z" fill="#000000" fill-rule="nonzero" fill-opacity="1"></path><path clip-path="url(#clip950)" d="M160.533 586.743 Q163.89 587.46 165.765 589.729 Q167.663 591.997 167.663 595.331 Q167.663 600.446 164.144 603.247 Q160.626 606.048 154.144 606.048 Q151.968 606.048 149.653 605.608 Q147.362 605.192 144.908 604.335 L144.908 599.821 Q146.853 600.956 149.167 601.534 Q151.482 602.113 154.005 602.113 Q158.403 602.113 160.695 600.377 Q163.01 598.641 163.01 595.331 Q163.01 592.275 160.857 590.562 Q158.728 588.826 154.908 588.826 L150.88 588.826 L150.88 584.983 L155.093 584.983 Q158.542 584.983 160.371 583.618 Q162.2 582.229 162.2 579.636 Q162.2 576.974 160.302 575.562 Q158.427 574.127 154.908 574.127 Q152.987 574.127 150.788 574.544 Q148.589 574.96 145.95 575.84 L145.95 571.673 Q148.612 570.933 150.927 570.562 Q153.265 570.192 155.325 570.192 Q160.649 570.192 163.751 572.622 Q166.852 575.03 166.852 579.15 Q166.852 582.021 165.209 584.011 Q163.565 585.979 160.533 586.743 Z" fill="#000000" fill-rule="nonzero" fill-opacity="1"></path><path clip-path="url(#clip950)" d="M180.556 601.442 L196.875 601.442 L196.875 605.377 L174.931 605.377 L174.931 601.442 Q177.593 598.687 182.176 594.057 Q186.783 589.405 187.963 588.062 Q190.209 585.539 191.088 583.803 Q191.991 582.044 191.991 580.354 Q191.991 577.599 190.047 575.863 Q188.126 574.127 185.024 574.127 Q182.825 574.127 180.371 574.891 Q177.94 575.655 175.163 577.206 L175.163 572.484 Q177.987 571.349 180.44 570.771 Q182.894 570.192 184.931 570.192 Q190.301 570.192 193.496 572.877 Q196.69 575.562 196.69 580.053 Q196.69 582.183 195.88 584.104 Q195.093 586.002 192.987 588.595 Q192.408 589.266 189.306 592.483 Q186.204 595.678 180.556 601.442 Z" fill="#000000" fill-rule="nonzero" fill-opacity="1"></path><path clip-path="url(#clip950)" d="M114.931 420.646 L122.57 420.646 L122.57 394.281 L114.26 395.947 L114.26 391.688 L122.524 390.022 L127.2 390.022 L127.2 420.646 L134.839 420.646 L134.839 424.582 L114.931 424.582 L114.931 420.646 Z" fill="#000000" fill-rule="nonzero" fill-opacity="1"></path><path clip-path="url(#clip950)" d="M158.45 405.947 Q161.806 406.665 163.681 408.933 Q165.579 411.202 165.579 414.535 Q165.579 419.651 162.061 422.452 Q158.542 425.253 152.061 425.253 Q149.885 425.253 147.57 424.813 Q145.279 424.396 142.825 423.54 L142.825 419.026 Q144.769 420.16 147.084 420.739 Q149.399 421.318 151.922 421.318 Q156.32 421.318 158.612 419.582 Q160.927 417.845 160.927 414.535 Q160.927 411.48 158.774 409.767 Q156.644 408.031 152.825 408.031 L148.797 408.031 L148.797 404.188 L153.01 404.188 Q156.459 404.188 158.288 402.822 Q160.116 401.433 160.116 398.841 Q160.116 396.179 158.218 394.767 Q156.343 393.332 152.825 393.332 Q150.903 393.332 148.704 393.748 Q146.505 394.165 143.866 395.045 L143.866 390.878 Q146.529 390.137 148.843 389.767 Q151.181 389.397 153.241 389.397 Q158.565 389.397 161.667 391.827 Q164.769 394.234 164.769 398.355 Q164.769 401.225 163.126 403.216 Q161.482 405.183 158.45 405.947 Z" fill="#000000" fill-rule="nonzero" fill-opacity="1"></path><path clip-path="url(#clip950)" d="M187.292 394.096 L175.487 412.545 L187.292 412.545 L187.292 394.096 M186.065 390.022 L191.945 390.022 L191.945 412.545 L196.875 412.545 L196.875 416.433 L191.945 416.433 L191.945 424.582 L187.292 424.582 L187.292 416.433 L171.69 416.433 L171.69 411.92 L186.065 390.022 Z" fill="#000000" fill-rule="nonzero" fill-opacity="1"></path><path clip-path="url(#clip950)" d="M115.256 239.851 L122.894 239.851 L122.894 213.485 L114.584 215.152 L114.584 210.893 L122.848 209.226 L127.524 209.226 L127.524 239.851 L135.163 239.851 L135.163 243.786 L115.256 243.786 L115.256 239.851 Z" fill="#000000" fill-rule="nonzero" fill-opacity="1"></path><path clip-path="url(#clip950)" d="M158.774 225.152 Q162.13 225.87 164.005 228.138 Q165.903 230.407 165.903 233.74 Q165.903 238.856 162.385 241.657 Q158.866 244.457 152.385 244.457 Q150.209 244.457 147.894 244.018 Q145.603 243.601 143.149 242.745 L143.149 238.231 Q145.093 239.365 147.408 239.944 Q149.723 240.522 152.246 240.522 Q156.644 240.522 158.936 238.786 Q161.251 237.05 161.251 233.74 Q161.251 230.684 159.098 228.971 Q156.968 227.235 153.149 227.235 L149.121 227.235 L149.121 223.393 L153.334 223.393 Q156.783 223.393 158.612 222.027 Q160.44 220.638 160.44 218.046 Q160.44 215.384 158.542 213.972 Q156.667 212.536 153.149 212.536 Q151.228 212.536 149.028 212.953 Q146.829 213.37 144.191 214.249 L144.191 210.083 Q146.853 209.342 149.167 208.972 Q151.505 208.601 153.566 208.601 Q158.89 208.601 161.991 211.032 Q165.093 213.439 165.093 217.559 Q165.093 220.43 163.45 222.421 Q161.806 224.388 158.774 225.152 Z" fill="#000000" fill-rule="nonzero" fill-opacity="1"></path><path clip-path="url(#clip950)" d="M185.348 224.643 Q182.2 224.643 180.348 226.796 Q178.519 228.948 178.519 232.698 Q178.519 236.425 180.348 238.601 Q182.2 240.754 185.348 240.754 Q188.496 240.754 190.325 238.601 Q192.176 236.425 192.176 232.698 Q192.176 228.948 190.325 226.796 Q188.496 224.643 185.348 224.643 M194.63 209.99 L194.63 214.249 Q192.871 213.416 191.065 212.976 Q189.283 212.536 187.524 212.536 Q182.894 212.536 180.44 215.661 Q178.01 218.786 177.663 225.106 Q179.028 223.092 181.089 222.027 Q183.149 220.939 185.626 220.939 Q190.834 220.939 193.843 224.11 Q196.875 227.258 196.875 232.698 Q196.875 238.022 193.727 241.24 Q190.579 244.457 185.348 244.457 Q179.352 244.457 176.181 239.874 Q173.01 235.268 173.01 226.541 Q173.01 218.346 176.899 213.485 Q180.788 208.601 187.338 208.601 Q189.098 208.601 190.88 208.948 Q192.686 209.296 194.63 209.99 Z" fill="#000000" fill-rule="nonzero" fill-opacity="1"></path><path clip-path="url(#clip950)" d="M16.4842 918.767 L16.4842 912.274 L56.6518 902.28 L16.4842 892.318 L16.4842 885.093 L56.6518 875.098 L16.4842 865.136 L16.4842 858.611 L64.0042 870.547 L64.0042 878.631 L22.7544 888.657 L64.0042 898.779 L64.0042 906.863 L16.4842 918.767 Z" fill="#000000" fill-rule="nonzero" fill-opacity="1"></path><path clip-path="url(#clip950)" d="M32.4621 840.342 Q32.4621 845.052 36.1542 847.789 Q39.8145 850.527 46.212 850.527 Q52.6095 850.527 56.3017 847.821 Q59.9619 845.084 59.9619 840.342 Q59.9619 835.663 56.2698 832.926 Q52.5777 830.188 46.212 830.188 Q39.8781 830.188 36.186 832.926 Q32.4621 835.663 32.4621 840.342 M27.4968 840.342 Q27.4968 832.703 32.4621 828.342 Q37.4273 823.982 46.212 823.982 Q54.9649 823.982 59.9619 828.342 Q64.9272 832.703 64.9272 840.342 Q64.9272 848.012 59.9619 852.373 Q54.9649 856.701 46.212 856.701 Q37.4273 856.701 32.4621 852.373 Q27.4968 848.012 27.4968 840.342 Z" fill="#000000" fill-rule="nonzero" fill-opacity="1"></path><path clip-path="url(#clip950)" d="M33.8307 793.617 Q33.2578 794.604 33.0032 795.782 Q32.7167 796.927 32.7167 798.328 Q32.7167 803.293 35.9632 805.967 Q39.1779 808.609 45.2253 808.609 L64.0042 808.609 L64.0042 814.497 L28.3562 814.497 L28.3562 808.609 L33.8944 808.609 Q30.6479 806.763 29.0883 803.802 Q27.4968 800.842 27.4968 796.609 Q27.4968 796.004 27.5923 795.272 Q27.656 794.54 27.8151 793.649 L33.8307 793.617 Z" fill="#000000" fill-rule="nonzero" fill-opacity="1"></path><path clip-path="url(#clip950)" d="M14.479 787.697 L14.479 781.809 L43.7294 781.809 L28.3562 764.335 L28.3562 756.855 L45.0344 775.762 L64.0042 756.06 L64.0042 763.699 L46.5939 781.809 L64.0042 781.809 L64.0042 787.697 L14.479 787.697 Z" fill="#000000" fill-rule="nonzero" fill-opacity="1"></path><path clip-path="url(#clip950)" d="M16.4842 728.751 L16.4842 722.321 L64.0042 722.321 L64.0042 728.751 L16.4842 728.751 Z" fill="#000000" fill-rule="nonzero" fill-opacity="1"></path><path clip-path="url(#clip950)" d="M42.4881 680.149 L64.0042 680.149 L64.0042 686.005 L42.679 686.005 Q37.6183 686.005 35.1038 687.978 Q32.5894 689.952 32.5894 693.899 Q32.5894 698.641 35.6131 701.378 Q38.6368 704.115 43.8567 704.115 L64.0042 704.115 L64.0042 710.004 L28.3562 710.004 L28.3562 704.115 L33.8944 704.115 Q30.6797 702.015 29.0883 699.182 Q27.4968 696.318 27.4968 692.594 Q27.4968 686.451 31.3163 683.3 Q35.1038 680.149 42.4881 680.149 Z" fill="#000000" fill-rule="nonzero" fill-opacity="1"></path><path clip-path="url(#clip950)" d="M14.479 648.288 L14.479 634.793 L19.0304 634.793 L19.0304 642.432 L68.0464 642.432 L68.0464 634.793 L72.5979 634.793 L72.5979 648.288 L14.479 648.288 Z" fill="#000000" fill-rule="nonzero" fill-opacity="1"></path><path clip-path="url(#clip950)" d="M14.479 622.539 L14.479 616.651 L43.7294 616.651 L28.3562 599.177 L28.3562 591.697 L45.0344 610.603 L64.0042 590.901 L64.0042 598.54 L46.5939 616.651 L64.0042 616.651 L64.0042 622.539 L14.479 622.539 Z" fill="#000000" fill-rule="nonzero" fill-opacity="1"></path><path clip-path="url(#clip950)" d="M16.4842 584.313 L16.4842 577.884 L60.694 577.884 Q69.2877 577.884 73.1708 581.162 Q77.0539 584.408 77.0539 591.633 L77.0539 594.084 L71.643 594.084 L71.643 592.079 Q71.643 587.814 69.2559 586.063 Q66.8687 584.313 60.694 584.313 L16.4842 584.313 Z" fill="#000000" fill-rule="nonzero" fill-opacity="1"></path><path clip-path="url(#clip950)" d="M14.479 551.657 L72.5979 551.657 L72.5979 565.152 L68.0464 565.152 L68.0464 557.545 L19.0304 557.545 L19.0304 565.152 L14.479 565.152 L14.479 551.657 Z" fill="#000000" fill-rule="nonzero" fill-opacity="1"></path><circle clip-path="url(#clip953)" cx="292.872" cy="586.141" r="14.4" fill="#009af9" fill-rule="evenodd" fill-opacity="1" stroke="#000000" stroke-opacity="1" stroke-width="3.2"></circle>
<circle clip-path="url(#clip953)" cx="311.919" cy="690.084" r="14.4" fill="#009af9" fill-rule="evenodd" fill-opacity="1" stroke="#000000" stroke-opacity="1" stroke-width="3.2"></circle>
<circle clip-path="url(#clip953)" cx="330.965" cy="728.813" r="14.4" fill="#009af9" fill-rule="evenodd" fill-opacity="1" stroke="#000000" stroke-opacity="1" stroke-width="3.2"></circle>
<circle clip-path="url(#clip953)" cx="350.012" cy="911.429" r="14.4" fill="#009af9" fill-rule="evenodd" fill-opacity="1" stroke="#000000" stroke-opacity="1" stroke-width="3.2"></circle>
<circle clip-path="url(#clip953)" cx="369.058" cy="980.422" r="14.4" fill="#009af9" fill-rule="evenodd" fill-opacity="1" stroke="#000000" stroke-opacity="1" stroke-width="3.2"></circle>
<circle clip-path="url(#clip953)" cx="388.105" cy="980.422" r="14.4" fill="#009af9" fill-rule="evenodd" fill-opacity="1" stroke="#000000" stroke-opacity="1" stroke-width="3.2"></circle>
<circle clip-path="url(#clip953)" cx="407.151" cy="1014.14" r="14.4" fill="#009af9" fill-rule="evenodd" fill-opacity="1" stroke="#000000" stroke-opacity="1" stroke-width="3.2"></circle>
<circle clip-path="url(#clip953)" cx="426.198" cy="1014.14" r="14.4" fill="#009af9" fill-rule="evenodd" fill-opacity="1" stroke="#000000" stroke-opacity="1" stroke-width="3.2"></circle>
<circle clip-path="url(#clip953)" cx="445.244" cy="1014.14" r="14.4" fill="#009af9" fill-rule="evenodd" fill-opacity="1" stroke="#000000" stroke-opacity="1" stroke-width="3.2"></circle>
<circle clip-path="url(#clip953)" cx="464.291" cy="1078.27" r="14.4" fill="#009af9" fill-rule="evenodd" fill-opacity="1" stroke="#000000" stroke-opacity="1" stroke-width="3.2"></circle>
<circle clip-path="url(#clip953)" cx="483.338" cy="1078.27" r="14.4" fill="#009af9" fill-rule="evenodd" fill-opacity="1" stroke="#000000" stroke-opacity="1" stroke-width="3.2"></circle>
<circle clip-path="url(#clip953)" cx="502.384" cy="1111.61" r="14.4" fill="#009af9" fill-rule="evenodd" fill-opacity="1" stroke="#000000" stroke-opacity="1" stroke-width="3.2"></circle>
<circle clip-path="url(#clip953)" cx="521.431" cy="1111.61" r="14.4" fill="#009af9" fill-rule="evenodd" fill-opacity="1" stroke="#000000" stroke-opacity="1" stroke-width="3.2"></circle>
<circle clip-path="url(#clip953)" cx="540.477" cy="1259.01" r="14.4" fill="#009af9" fill-rule="evenodd" fill-opacity="1" stroke="#000000" stroke-opacity="1" stroke-width="3.2"></circle>
<circle clip-path="url(#clip953)" cx="559.524" cy="1259.01" r="14.4" fill="#009af9" fill-rule="evenodd" fill-opacity="1" stroke="#000000" stroke-opacity="1" stroke-width="3.2"></circle>
<circle clip-path="url(#clip953)" cx="578.57" cy="1259.01" r="14.4" fill="#009af9" fill-rule="evenodd" fill-opacity="1" stroke="#000000" stroke-opacity="1" stroke-width="3.2"></circle>
<circle clip-path="url(#clip953)" cx="597.617" cy="1259.01" r="14.4" fill="#009af9" fill-rule="evenodd" fill-opacity="1" stroke="#000000" stroke-opacity="1" stroke-width="3.2"></circle>
<circle clip-path="url(#clip953)" cx="616.663" cy="1259.01" r="14.4" fill="#009af9" fill-rule="evenodd" fill-opacity="1" stroke="#000000" stroke-opacity="1" stroke-width="3.2"></circle>
<circle clip-path="url(#clip953)" cx="635.71" cy="1287.83" r="14.4" fill="#009af9" fill-rule="evenodd" fill-opacity="1" stroke="#000000" stroke-opacity="1" stroke-width="3.2"></circle>
<circle clip-path="url(#clip953)" cx="654.756" cy="1287.83" r="14.4" fill="#009af9" fill-rule="evenodd" fill-opacity="1" stroke="#000000" stroke-opacity="1" stroke-width="3.2"></circle>
<circle clip-path="url(#clip953)" cx="673.803" cy="1287.83" r="14.4" fill="#009af9" fill-rule="evenodd" fill-opacity="1" stroke="#000000" stroke-opacity="1" stroke-width="3.2"></circle>
<circle clip-path="url(#clip953)" cx="692.85" cy="1287.83" r="14.4" fill="#009af9" fill-rule="evenodd" fill-opacity="1" stroke="#000000" stroke-opacity="1" stroke-width="3.2"></circle>
<circle clip-path="url(#clip953)" cx="711.896" cy="1350.91" r="14.4" fill="#009af9" fill-rule="evenodd" fill-opacity="1" stroke="#000000" stroke-opacity="1" stroke-width="3.2"></circle>
<circle clip-path="url(#clip953)" cx="730.943" cy="1350.91" r="14.4" fill="#009af9" fill-rule="evenodd" fill-opacity="1" stroke="#000000" stroke-opacity="1" stroke-width="3.2"></circle>
<circle clip-path="url(#clip953)" cx="749.989" cy="1350.91" r="14.4" fill="#009af9" fill-rule="evenodd" fill-opacity="1" stroke="#000000" stroke-opacity="1" stroke-width="3.2"></circle>
<circle clip-path="url(#clip953)" cx="769.036" cy="1350.91" r="14.4" fill="#009af9" fill-rule="evenodd" fill-opacity="1" stroke="#000000" stroke-opacity="1" stroke-width="3.2"></circle>
<circle clip-path="url(#clip953)" cx="788.082" cy="1350.91" r="14.4" fill="#009af9" fill-rule="evenodd" fill-opacity="1" stroke="#000000" stroke-opacity="1" stroke-width="3.2"></circle>
<circle clip-path="url(#clip953)" cx="807.129" cy="1350.91" r="14.4" fill="#009af9" fill-rule="evenodd" fill-opacity="1" stroke="#000000" stroke-opacity="1" stroke-width="3.2"></circle>
<circle clip-path="url(#clip953)" cx="826.175" cy="1350.91" r="14.4" fill="#009af9" fill-rule="evenodd" fill-opacity="1" stroke="#000000" stroke-opacity="1" stroke-width="3.2"></circle>
<circle clip-path="url(#clip953)" cx="845.222" cy="1350.91" r="14.4" fill="#009af9" fill-rule="evenodd" fill-opacity="1" stroke="#000000" stroke-opacity="1" stroke-width="3.2"></circle>
<circle clip-path="url(#clip953)" cx="864.268" cy="1384.24" r="14.4" fill="#009af9" fill-rule="evenodd" fill-opacity="1" stroke="#000000" stroke-opacity="1" stroke-width="3.2"></circle>
<circle clip-path="url(#clip953)" cx="883.315" cy="1384.24" r="14.4" fill="#009af9" fill-rule="evenodd" fill-opacity="1" stroke="#000000" stroke-opacity="1" stroke-width="3.2"></circle>
<circle clip-path="url(#clip953)" cx="902.362" cy="1384.24" r="14.4" fill="#009af9" fill-rule="evenodd" fill-opacity="1" stroke="#000000" stroke-opacity="1" stroke-width="3.2"></circle>
<circle clip-path="url(#clip953)" cx="921.408" cy="1384.24" r="14.4" fill="#009af9" fill-rule="evenodd" fill-opacity="1" stroke="#000000" stroke-opacity="1" stroke-width="3.2"></circle>
<circle clip-path="url(#clip953)" cx="940.455" cy="1384.24" r="14.4" fill="#009af9" fill-rule="evenodd" fill-opacity="1" stroke="#000000" stroke-opacity="1" stroke-width="3.2"></circle>
<circle clip-path="url(#clip953)" cx="959.501" cy="1384.24" r="14.4" fill="#009af9" fill-rule="evenodd" fill-opacity="1" stroke="#000000" stroke-opacity="1" stroke-width="3.2"></circle>
<circle clip-path="url(#clip953)" cx="978.548" cy="1384.24" r="14.4" fill="#009af9" fill-rule="evenodd" fill-opacity="1" stroke="#000000" stroke-opacity="1" stroke-width="3.2"></circle>
<circle clip-path="url(#clip953)" cx="997.594" cy="1384.24" r="14.4" fill="#009af9" fill-rule="evenodd" fill-opacity="1" stroke="#000000" stroke-opacity="1" stroke-width="3.2"></circle>
<circle clip-path="url(#clip953)" cx="1016.64" cy="1384.24" r="14.4" fill="#009af9" fill-rule="evenodd" fill-opacity="1" stroke="#000000" stroke-opacity="1" stroke-width="3.2"></circle>
<circle clip-path="url(#clip953)" cx="1035.69" cy="1384.24" r="14.4" fill="#009af9" fill-rule="evenodd" fill-opacity="1" stroke="#000000" stroke-opacity="1" stroke-width="3.2"></circle>
<circle clip-path="url(#clip953)" cx="1054.73" cy="1384.24" r="14.4" fill="#009af9" fill-rule="evenodd" fill-opacity="1" stroke="#000000" stroke-opacity="1" stroke-width="3.2"></circle>
<circle clip-path="url(#clip953)" cx="1073.78" cy="1384.24" r="14.4" fill="#009af9" fill-rule="evenodd" fill-opacity="1" stroke="#000000" stroke-opacity="1" stroke-width="3.2"></circle>
<circle clip-path="url(#clip953)" cx="1092.83" cy="1384.24" r="14.4" fill="#009af9" fill-rule="evenodd" fill-opacity="1" stroke="#000000" stroke-opacity="1" stroke-width="3.2"></circle>
<circle clip-path="url(#clip953)" cx="1111.87" cy="1384.24" r="14.4" fill="#009af9" fill-rule="evenodd" fill-opacity="1" stroke="#000000" stroke-opacity="1" stroke-width="3.2"></circle>
<circle clip-path="url(#clip953)" cx="1130.92" cy="1384.24" r="14.4" fill="#009af9" fill-rule="evenodd" fill-opacity="1" stroke="#000000" stroke-opacity="1" stroke-width="3.2"></circle>
<circle clip-path="url(#clip953)" cx="1149.97" cy="1384.24" r="14.4" fill="#009af9" fill-rule="evenodd" fill-opacity="1" stroke="#000000" stroke-opacity="1" stroke-width="3.2"></circle>
<circle clip-path="url(#clip953)" cx="1169.01" cy="1384.24" r="14.4" fill="#009af9" fill-rule="evenodd" fill-opacity="1" stroke="#000000" stroke-opacity="1" stroke-width="3.2"></circle>
<circle clip-path="url(#clip953)" cx="1188.06" cy="1384.24" r="14.4" fill="#009af9" fill-rule="evenodd" fill-opacity="1" stroke="#000000" stroke-opacity="1" stroke-width="3.2"></circle>
<circle clip-path="url(#clip953)" cx="1207.11" cy="1384.24" r="14.4" fill="#009af9" fill-rule="evenodd" fill-opacity="1" stroke="#000000" stroke-opacity="1" stroke-width="3.2"></circle>
<circle clip-path="url(#clip953)" cx="1226.15" cy="1384.24" r="14.4" fill="#009af9" fill-rule="evenodd" fill-opacity="1" stroke="#000000" stroke-opacity="1" stroke-width="3.2"></circle>
<circle clip-path="url(#clip953)" cx="1245.2" cy="1384.24" r="14.4" fill="#009af9" fill-rule="evenodd" fill-opacity="1" stroke="#000000" stroke-opacity="1" stroke-width="3.2"></circle>
<circle clip-path="url(#clip953)" cx="1264.25" cy="1384.24" r="14.4" fill="#009af9" fill-rule="evenodd" fill-opacity="1" stroke="#000000" stroke-opacity="1" stroke-width="3.2"></circle>
<circle clip-path="url(#clip953)" cx="1283.29" cy="1384.24" r="14.4" fill="#009af9" fill-rule="evenodd" fill-opacity="1" stroke="#000000" stroke-opacity="1" stroke-width="3.2"></circle>
<circle clip-path="url(#clip953)" cx="1302.34" cy="1384.24" r="14.4" fill="#009af9" fill-rule="evenodd" fill-opacity="1" stroke="#000000" stroke-opacity="1" stroke-width="3.2"></circle>
<circle clip-path="url(#clip953)" cx="1321.39" cy="1384.24" r="14.4" fill="#009af9" fill-rule="evenodd" fill-opacity="1" stroke="#000000" stroke-opacity="1" stroke-width="3.2"></circle>
<circle clip-path="url(#clip953)" cx="1340.43" cy="1384.24" r="14.4" fill="#009af9" fill-rule="evenodd" fill-opacity="1" stroke="#000000" stroke-opacity="1" stroke-width="3.2"></circle>
<circle clip-path="url(#clip953)" cx="1359.48" cy="1384.24" r="14.4" fill="#009af9" fill-rule="evenodd" fill-opacity="1" stroke="#000000" stroke-opacity="1" stroke-width="3.2"></circle>
<circle clip-path="url(#clip953)" cx="1378.53" cy="1384.24" r="14.4" fill="#009af9" fill-rule="evenodd" fill-opacity="1" stroke="#000000" stroke-opacity="1" stroke-width="3.2"></circle>
<circle clip-path="url(#clip953)" cx="1397.57" cy="1384.24" r="14.4" fill="#009af9" fill-rule="evenodd" fill-opacity="1" stroke="#000000" stroke-opacity="1" stroke-width="3.2"></circle>
<circle clip-path="url(#clip953)" cx="1416.62" cy="1384.24" r="14.4" fill="#009af9" fill-rule="evenodd" fill-opacity="1" stroke="#000000" stroke-opacity="1" stroke-width="3.2"></circle>
<circle clip-path="url(#clip953)" cx="1435.66" cy="1384.24" r="14.4" fill="#009af9" fill-rule="evenodd" fill-opacity="1" stroke="#000000" stroke-opacity="1" stroke-width="3.2"></circle>
<circle clip-path="url(#clip953)" cx="1454.71" cy="1384.24" r="14.4" fill="#009af9" fill-rule="evenodd" fill-opacity="1" stroke="#000000" stroke-opacity="1" stroke-width="3.2"></circle>
<circle clip-path="url(#clip953)" cx="1473.76" cy="1384.24" r="14.4" fill="#009af9" fill-rule="evenodd" fill-opacity="1" stroke="#000000" stroke-opacity="1" stroke-width="3.2"></circle>
<circle clip-path="url(#clip953)" cx="1492.8" cy="1384.24" r="14.4" fill="#009af9" fill-rule="evenodd" fill-opacity="1" stroke="#000000" stroke-opacity="1" stroke-width="3.2"></circle>
<circle clip-path="url(#clip953)" cx="1511.85" cy="1384.24" r="14.4" fill="#009af9" fill-rule="evenodd" fill-opacity="1" stroke="#000000" stroke-opacity="1" stroke-width="3.2"></circle>
<circle clip-path="url(#clip953)" cx="1530.9" cy="1384.24" r="14.4" fill="#009af9" fill-rule="evenodd" fill-opacity="1" stroke="#000000" stroke-opacity="1" stroke-width="3.2"></circle>
<circle clip-path="url(#clip953)" cx="1549.94" cy="1384.24" r="14.4" fill="#009af9" fill-rule="evenodd" fill-opacity="1" stroke="#000000" stroke-opacity="1" stroke-width="3.2"></circle>
<circle clip-path="url(#clip953)" cx="1568.99" cy="1350.91" r="14.4" fill="#009af9" fill-rule="evenodd" fill-opacity="1" stroke="#000000" stroke-opacity="1" stroke-width="3.2"></circle>
<circle clip-path="url(#clip953)" cx="1588.04" cy="1350.91" r="14.4" fill="#009af9" fill-rule="evenodd" fill-opacity="1" stroke="#000000" stroke-opacity="1" stroke-width="3.2"></circle>
<circle clip-path="url(#clip953)" cx="1607.08" cy="1350.91" r="14.4" fill="#009af9" fill-rule="evenodd" fill-opacity="1" stroke="#000000" stroke-opacity="1" stroke-width="3.2"></circle>
<circle clip-path="url(#clip953)" cx="1626.13" cy="1350.91" r="14.4" fill="#009af9" fill-rule="evenodd" fill-opacity="1" stroke="#000000" stroke-opacity="1" stroke-width="3.2"></circle>
<circle clip-path="url(#clip953)" cx="1645.18" cy="1350.91" r="14.4" fill="#009af9" fill-rule="evenodd" fill-opacity="1" stroke="#000000" stroke-opacity="1" stroke-width="3.2"></circle>
<circle clip-path="url(#clip953)" cx="1664.22" cy="1350.91" r="14.4" fill="#009af9" fill-rule="evenodd" fill-opacity="1" stroke="#000000" stroke-opacity="1" stroke-width="3.2"></circle>
<circle clip-path="url(#clip953)" cx="1683.27" cy="1350.91" r="14.4" fill="#009af9" fill-rule="evenodd" fill-opacity="1" stroke="#000000" stroke-opacity="1" stroke-width="3.2"></circle>
<circle clip-path="url(#clip953)" cx="1702.32" cy="1287.83" r="14.4" fill="#009af9" fill-rule="evenodd" fill-opacity="1" stroke="#000000" stroke-opacity="1" stroke-width="3.2"></circle>
<circle clip-path="url(#clip953)" cx="1721.36" cy="1287.83" r="14.4" fill="#009af9" fill-rule="evenodd" fill-opacity="1" stroke="#000000" stroke-opacity="1" stroke-width="3.2"></circle>
<circle clip-path="url(#clip953)" cx="1740.41" cy="1287.83" r="14.4" fill="#009af9" fill-rule="evenodd" fill-opacity="1" stroke="#000000" stroke-opacity="1" stroke-width="3.2"></circle>
<circle clip-path="url(#clip953)" cx="1759.46" cy="1287.83" r="14.4" fill="#009af9" fill-rule="evenodd" fill-opacity="1" stroke="#000000" stroke-opacity="1" stroke-width="3.2"></circle>
<circle clip-path="url(#clip953)" cx="1778.5" cy="1287.83" r="14.4" fill="#009af9" fill-rule="evenodd" fill-opacity="1" stroke="#000000" stroke-opacity="1" stroke-width="3.2"></circle>
<circle clip-path="url(#clip953)" cx="1797.55" cy="1287.83" r="14.4" fill="#009af9" fill-rule="evenodd" fill-opacity="1" stroke="#000000" stroke-opacity="1" stroke-width="3.2"></circle>
<circle clip-path="url(#clip953)" cx="1816.6" cy="1259.01" r="14.4" fill="#009af9" fill-rule="evenodd" fill-opacity="1" stroke="#000000" stroke-opacity="1" stroke-width="3.2"></circle>
<circle clip-path="url(#clip953)" cx="1835.64" cy="1259.01" r="14.4" fill="#009af9" fill-rule="evenodd" fill-opacity="1" stroke="#000000" stroke-opacity="1" stroke-width="3.2"></circle>
<circle clip-path="url(#clip953)" cx="1854.69" cy="1259.01" r="14.4" fill="#009af9" fill-rule="evenodd" fill-opacity="1" stroke="#000000" stroke-opacity="1" stroke-width="3.2"></circle>
<circle clip-path="url(#clip953)" cx="1873.74" cy="1259.01" r="14.4" fill="#009af9" fill-rule="evenodd" fill-opacity="1" stroke="#000000" stroke-opacity="1" stroke-width="3.2"></circle>
<circle clip-path="url(#clip953)" cx="1892.78" cy="1111.61" r="14.4" fill="#009af9" fill-rule="evenodd" fill-opacity="1" stroke="#000000" stroke-opacity="1" stroke-width="3.2"></circle>
<circle clip-path="url(#clip953)" cx="1911.83" cy="1111.61" r="14.4" fill="#009af9" fill-rule="evenodd" fill-opacity="1" stroke="#000000" stroke-opacity="1" stroke-width="3.2"></circle>
<circle clip-path="url(#clip953)" cx="1930.87" cy="1111.61" r="14.4" fill="#009af9" fill-rule="evenodd" fill-opacity="1" stroke="#000000" stroke-opacity="1" stroke-width="3.2"></circle>
<circle clip-path="url(#clip953)" cx="1949.92" cy="1111.61" r="14.4" fill="#009af9" fill-rule="evenodd" fill-opacity="1" stroke="#000000" stroke-opacity="1" stroke-width="3.2"></circle>
<circle clip-path="url(#clip953)" cx="1968.97" cy="1078.27" r="14.4" fill="#009af9" fill-rule="evenodd" fill-opacity="1" stroke="#000000" stroke-opacity="1" stroke-width="3.2"></circle>
<circle clip-path="url(#clip953)" cx="1988.01" cy="1078.27" r="14.4" fill="#009af9" fill-rule="evenodd" fill-opacity="1" stroke="#000000" stroke-opacity="1" stroke-width="3.2"></circle>
<circle clip-path="url(#clip953)" cx="2007.06" cy="1078.27" r="14.4" fill="#009af9" fill-rule="evenodd" fill-opacity="1" stroke="#000000" stroke-opacity="1" stroke-width="3.2"></circle>
<circle clip-path="url(#clip953)" cx="2026.11" cy="1014.14" r="14.4" fill="#009af9" fill-rule="evenodd" fill-opacity="1" stroke="#000000" stroke-opacity="1" stroke-width="3.2"></circle>
<circle clip-path="url(#clip953)" cx="2045.15" cy="1014.14" r="14.4" fill="#009af9" fill-rule="evenodd" fill-opacity="1" stroke="#000000" stroke-opacity="1" stroke-width="3.2"></circle>
<circle clip-path="url(#clip953)" cx="2064.2" cy="1014.14" r="14.4" fill="#009af9" fill-rule="evenodd" fill-opacity="1" stroke="#000000" stroke-opacity="1" stroke-width="3.2"></circle>
<circle clip-path="url(#clip953)" cx="2083.25" cy="980.422" r="14.4" fill="#009af9" fill-rule="evenodd" fill-opacity="1" stroke="#000000" stroke-opacity="1" stroke-width="3.2"></circle>
<circle clip-path="url(#clip953)" cx="2102.29" cy="980.422" r="14.4" fill="#009af9" fill-rule="evenodd" fill-opacity="1" stroke="#000000" stroke-opacity="1" stroke-width="3.2"></circle>
<circle clip-path="url(#clip953)" cx="2121.34" cy="911.429" r="14.4" fill="#009af9" fill-rule="evenodd" fill-opacity="1" stroke="#000000" stroke-opacity="1" stroke-width="3.2"></circle>
<circle clip-path="url(#clip953)" cx="2140.39" cy="911.429" r="14.4" fill="#009af9" fill-rule="evenodd" fill-opacity="1" stroke="#000000" stroke-opacity="1" stroke-width="3.2"></circle>
<circle clip-path="url(#clip953)" cx="2159.43" cy="877.681" r="14.4" fill="#009af9" fill-rule="evenodd" fill-opacity="1" stroke="#000000" stroke-opacity="1" stroke-width="3.2"></circle>
<circle clip-path="url(#clip953)" cx="2178.48" cy="728.813" r="14.4" fill="#009af9" fill-rule="evenodd" fill-opacity="1" stroke="#000000" stroke-opacity="1" stroke-width="3.2"></circle>
<circle clip-path="url(#clip953)" cx="2197.53" cy="728.813" r="14.4" fill="#009af9" fill-rule="evenodd" fill-opacity="1" stroke="#000000" stroke-opacity="1" stroke-width="3.2"></circle>
<circle clip-path="url(#clip953)" cx="2216.57" cy="728.813" r="14.4" fill="#009af9" fill-rule="evenodd" fill-opacity="1" stroke="#000000" stroke-opacity="1" stroke-width="3.2"></circle>
<circle clip-path="url(#clip953)" cx="2235.62" cy="586.141" r="14.4" fill="#009af9" fill-rule="evenodd" fill-opacity="1" stroke="#000000" stroke-opacity="1" stroke-width="3.2"></circle>
<circle clip-path="url(#clip953)" cx="2254.67" cy="431.137" r="14.4" fill="#009af9" fill-rule="evenodd" fill-opacity="1" stroke="#000000" stroke-opacity="1" stroke-width="3.2"></circle>
<circle clip-path="url(#clip953)" cx="2273.71" cy="353.532" r="14.4" fill="#009af9" fill-rule="evenodd" fill-opacity="1" stroke="#000000" stroke-opacity="1" stroke-width="3.2"></circle>
<circle clip-path="url(#clip953)" cx="2292.76" cy="86.1857" r="14.4" fill="#009af9" fill-rule="evenodd" fill-opacity="1" stroke="#000000" stroke-opacity="1" stroke-width="3.2"></circle>
<path clip-path="url(#clip950)" d="M303.538 196.789 L705.524 196.789 L705.524 93.1086 L303.538 93.1086  Z" fill="#ffffff" fill-rule="evenodd" fill-opacity="1"></path>
<polyline clip-path="url(#clip950)" style="stroke:#000000; stroke-linecap:round; stroke-linejoin:round; stroke-width:4; stroke-opacity:1; fill:none" points="303.538,196.789 705.524,196.789 705.524,93.1086 303.538,93.1086 303.538,196.789 "></polyline>
<circle clip-path="url(#clip950)" cx="397.755" cy="144.949" r="23.04" fill="#009af9" fill-rule="evenodd" fill-opacity="1" stroke="#000000" stroke-opacity="1" stroke-width="5.12"></circle>
<path clip-path="url(#clip950)" d="M520.992 134.114 Q520.992 133.341 520.782 132.709 Q520.594 132.053 520.29 131.608 Q520.009 131.139 519.47 130.788 Q518.931 130.413 518.486 130.179 Q518.041 129.945 517.292 129.804 Q516.542 129.64 516.05 129.57 Q515.558 129.476 514.715 129.43 Q513.872 129.383 513.45 129.383 Q513.052 129.383 512.256 129.383 Q509.75 129.383 509.328 129.43 Q508.696 129.523 508.461 129.898 Q508.227 130.249 507.993 131.21 L504.878 143.717 L510.241 143.717 Q513.169 143.717 515.184 142.898 Q517.198 142.078 518.346 140.93 Q519.61 139.665 520.29 137.627 Q520.992 135.59 520.992 134.114 M526.216 156.201 Q526.216 156.459 526.005 157.045 Q525.817 157.63 525.349 158.45 Q524.88 159.246 524.248 159.972 Q523.616 160.699 522.609 161.19 Q521.601 161.706 520.454 161.706 Q520.173 161.706 519.892 161.682 Q519.61 161.682 518.908 161.565 Q518.229 161.472 517.666 161.284 Q517.104 161.12 516.402 160.722 Q515.699 160.347 515.207 159.832 Q514.739 159.293 514.411 158.45 Q514.083 157.583 514.083 156.529 Q514.083 155.592 514.856 152.454 Q515.535 149.784 515.535 149.128 Q515.535 148.402 515.301 147.723 Q515.09 147.043 514.551 146.341 Q514.036 145.638 512.935 145.216 Q511.834 144.771 510.288 144.771 L504.597 144.771 L501.411 157.49 Q501.411 157.513 501.341 157.841 Q501.271 158.146 501.271 158.309 Q501.271 158.614 501.458 158.801 Q501.669 158.989 502.184 159.082 Q502.699 159.153 503.098 159.176 Q503.519 159.176 504.386 159.176 Q505.463 159.176 505.651 159.364 Q505.744 159.481 505.744 159.691 Q505.744 160.019 505.651 160.254 Q505.58 160.464 505.393 160.535 Q505.229 160.605 505.112 160.628 Q504.995 160.652 504.784 160.652 L498.694 160.511 L492.651 160.652 Q491.972 160.652 491.972 160.113 Q491.972 159.645 492.136 159.457 Q492.3 159.246 492.511 159.223 Q492.721 159.176 493.26 159.176 Q494.431 159.176 495.134 159.106 Q495.837 159.036 496.282 158.942 Q496.75 158.825 496.984 158.497 Q497.242 158.169 497.359 157.888 Q497.476 157.583 497.64 156.904 L504.058 131.139 Q504.245 130.367 504.245 130.249 Q504.245 129.804 503.964 129.687 Q503.707 129.547 502.957 129.476 L501.13 129.383 Q500.568 129.383 500.334 129.359 Q500.123 129.336 499.959 129.219 Q499.795 129.102 499.795 128.844 Q499.795 128.188 500.076 128.048 Q500.357 127.884 501.177 127.884 L514.856 127.884 Q519.517 127.884 522.468 129.921 Q525.443 131.959 525.443 135.074 Q525.443 136.48 524.81 137.791 Q524.178 139.103 523.124 140.134 Q522.093 141.164 520.711 142.031 Q519.329 142.874 517.854 143.46 Q516.402 144.022 514.903 144.35 Q515.558 144.584 516.167 144.935 Q516.8 145.287 517.596 145.942 Q518.416 146.598 518.908 147.652 Q519.4 148.706 519.4 149.995 Q519.4 150.908 519.212 152.267 Q518.744 156.131 518.744 157.724 Q518.744 159.246 519.142 159.949 Q519.54 160.652 520.664 160.652 Q521.765 160.652 522.983 159.668 Q524.225 158.661 525.021 156.295 Q525.208 155.616 525.653 155.616 Q525.677 155.616 525.7 155.616 Q525.747 155.616 525.841 155.663 Q525.934 155.686 526.005 155.756 Q526.098 155.803 526.145 155.92 Q526.216 156.038 526.216 156.201 Z" fill="#000000" fill-rule="nonzero" fill-opacity="1"></path><path clip-path="url(#clip950)" d="M572.986 147.98 Q573.267 148.261 573.267 148.659 Q573.267 149.058 572.986 149.339 Q572.705 149.62 572.307 149.62 L542.279 149.62 Q541.881 149.62 541.6 149.339 Q541.319 149.058 541.319 148.659 Q541.319 148.261 541.6 147.98 Q541.881 147.699 542.279 147.699 L572.307 147.699 Q572.705 147.699 572.986 147.98 Z" fill="#000000" fill-rule="nonzero" fill-opacity="1"></path><path clip-path="url(#clip950)" d="M591.571 133.271 L591.571 131.772 Q597.333 131.772 600.307 128.704 Q601.127 128.704 601.268 128.891 Q601.408 129.078 601.408 129.945 L601.408 156.857 Q601.408 158.286 602.111 158.731 Q602.814 159.176 605.882 159.176 L607.404 159.176 L607.404 160.652 Q605.718 160.511 599.628 160.511 Q593.538 160.511 591.875 160.652 L591.875 159.176 L593.398 159.176 Q596.419 159.176 597.145 158.755 Q597.871 158.309 597.871 156.857 L597.871 132.006 Q595.365 133.271 591.571 133.271 Z" fill="#000000" fill-rule="nonzero" fill-opacity="1"></path><path clip-path="url(#clip950)" d="M611.093 154.187 Q611.093 152.758 611.913 152.079 Q612.732 151.4 613.786 151.4 Q614.887 151.4 615.66 152.126 Q616.457 152.829 616.457 154.07 Q616.457 155.405 615.52 156.155 Q614.606 156.904 613.295 156.717 Q614.442 158.637 616.55 159.504 Q618.682 160.371 620.649 160.371 Q622.71 160.371 624.373 158.591 Q626.06 156.81 626.06 152.454 Q626.06 148.753 624.608 146.622 Q623.179 144.49 620.345 144.49 L618.237 144.49 Q617.511 144.49 617.3 144.42 Q617.089 144.35 617.089 143.952 Q617.089 143.483 617.815 143.389 Q618.541 143.389 619.689 143.249 Q622.476 143.155 623.952 140.743 Q625.287 138.494 625.287 135.285 Q625.287 132.357 623.882 131.139 Q622.5 129.898 620.696 129.898 Q619.01 129.898 617.159 130.601 Q615.309 131.303 614.302 132.873 Q617.276 132.873 617.276 135.285 Q617.276 136.339 616.597 137.042 Q615.941 137.721 614.84 137.721 Q613.786 137.721 613.084 137.065 Q612.381 136.386 612.381 135.238 Q612.381 132.498 614.817 130.601 Q617.276 128.704 620.883 128.704 Q624.444 128.704 627.067 130.577 Q629.714 132.451 629.714 135.332 Q629.714 138.166 627.84 140.485 Q625.966 142.804 622.991 143.764 Q626.645 144.49 628.824 146.973 Q631.002 149.432 631.002 152.454 Q631.002 156.201 628.051 158.965 Q625.099 161.706 620.79 161.706 Q616.808 161.706 613.95 159.551 Q611.093 157.396 611.093 154.187 Z" fill="#000000" fill-rule="nonzero" fill-opacity="1"></path><path clip-path="url(#clip950)" d="M631.95 152.735 L631.95 151.259 L646.683 128.75 Q647.057 128.165 647.643 128.188 Q648.182 128.188 648.299 128.399 Q648.416 128.61 648.416 129.43 L648.416 151.259 L653.217 151.259 L653.217 152.735 L648.416 152.735 L648.416 156.904 Q648.416 158.286 648.978 158.731 Q649.564 159.176 652.046 159.176 L653.053 159.176 L653.053 160.652 Q651.086 160.511 646.542 160.511 Q642.022 160.511 640.054 160.652 L640.054 159.176 L641.061 159.176 Q643.544 159.176 644.13 158.755 Q644.715 158.309 644.715 156.904 L644.715 152.735 L631.95 152.735 M633.308 151.259 L644.996 151.259 L644.996 133.365 L633.308 151.259 Z" fill="#000000" fill-rule="nonzero" fill-opacity="1"></path><path clip-path="url(#clip950)" d="M678.822 153.789 Q678.19 156.81 677.37 158.544 Q676.058 161.19 673.833 161.19 Q672.147 161.19 670.952 160.16 Q669.758 159.129 669.477 157.583 Q666.408 161.19 663.223 161.19 Q660.412 161.19 658.632 159.059 Q656.852 156.904 656.852 153.508 Q656.852 150.088 658.538 146.809 Q660.248 143.53 662.942 141.492 Q665.635 139.454 668.399 139.454 Q671.327 139.454 672.826 142.523 Q672.943 141.68 673.482 141.047 Q674.021 140.415 674.84 140.415 Q675.473 140.415 675.847 140.766 Q676.222 141.094 676.222 141.703 Q676.222 142.007 675.894 143.343 L674.161 150.041 L673.107 154.375 Q672.709 155.967 672.592 156.553 Q672.498 157.138 672.498 157.911 Q672.498 160.113 673.927 160.113 Q674.629 160.113 675.192 159.668 Q675.754 159.223 676.199 158.286 Q676.644 157.349 676.925 156.483 Q677.206 155.592 677.581 154.187 Q677.698 153.625 677.792 153.484 Q677.909 153.321 678.237 153.321 Q678.822 153.321 678.822 153.789 M672.24 144.724 Q672.24 144.514 672.076 143.928 Q671.912 143.343 671.538 142.523 Q671.163 141.703 670.343 141.117 Q669.547 140.508 668.469 140.508 Q667.017 140.508 665.495 141.75 Q663.996 142.991 662.895 145.099 Q662.052 146.786 661.138 150.322 Q660.248 153.859 660.248 155.616 Q660.248 156.693 660.482 157.654 Q660.74 158.591 661.466 159.364 Q662.192 160.113 663.316 160.113 Q666.057 160.113 668.75 156.717 Q669.266 156.131 669.383 155.897 Q669.523 155.639 669.711 154.937 L672.1 145.544 Q672.24 144.842 672.24 144.724 Z" fill="#000000" fill-rule="nonzero" fill-opacity="1"></path></svg>