<svg xmlns="http://www.w3.org/2000/svg" xmlns:xlink="http://www.w3.org/1999/xlink" width="600" height="400" viewBox="0 0 2400 1600">
<defs>
  <clipPath id="clip780">
    <rect x="0" y="0" width="2400" height="1600"></rect>
  </clipPath>
</defs>
<path clip-path="url(#clip780)" d="M0 1600 L2400 1600 L2400 0 L0 0  Z" fill="#ffffff" fill-rule="evenodd" fill-opacity="1"></path>
<defs>
  <clipPath id="clip781">
    <rect x="480" y="0" width="1681" height="1600"></rect>
  </clipPath>
</defs>
<defs>
  <clipPath id="clip782">
    <rect x="219" y="47" width="2134" height="1377"></rect>
  </clipPath>
</defs>
<path clip-path="url(#clip780)" d="M232.389 1423.18 L2352.76 1423.18 L2352.76 47.2441 L232.389 47.2441  Z" fill="#ffffff" fill-rule="evenodd" fill-opacity="1"></path>
<defs>
  <clipPath id="clip783">
    <rect x="232" y="47" width="2121" height="1377"></rect>
  </clipPath>
</defs>
<polyline clip-path="url(#clip783)" style="stroke:#000000; stroke-linecap:round; stroke-linejoin:round; stroke-width:2; stroke-opacity:0.1; fill:none" points="261.264,1423.18 261.264,47.2441 "></polyline>
<polyline clip-path="url(#clip783)" style="stroke:#000000; stroke-linecap:round; stroke-linejoin:round; stroke-width:2; stroke-opacity:0.1; fill:none" points="696.122,1423.18 696.122,47.2441 "></polyline>
<polyline clip-path="url(#clip783)" style="stroke:#000000; stroke-linecap:round; stroke-linejoin:round; stroke-width:2; stroke-opacity:0.1; fill:none" points="1130.98,1423.18 1130.98,47.2441 "></polyline>
<polyline clip-path="url(#clip783)" style="stroke:#000000; stroke-linecap:round; stroke-linejoin:round; stroke-width:2; stroke-opacity:0.1; fill:none" points="1565.84,1423.18 1565.84,47.2441 "></polyline>
<polyline clip-path="url(#clip783)" style="stroke:#000000; stroke-linecap:round; stroke-linejoin:round; stroke-width:2; stroke-opacity:0.1; fill:none" points="2000.7,1423.18 2000.7,47.2441 "></polyline>
<polyline clip-path="url(#clip780)" style="stroke:#000000; stroke-linecap:round; stroke-linejoin:round; stroke-width:4; stroke-opacity:1; fill:none" points="232.389,1423.18 2352.76,1423.18 "></polyline>
<polyline clip-path="url(#clip780)" style="stroke:#000000; stroke-linecap:round; stroke-linejoin:round; stroke-width:4; stroke-opacity:1; fill:none" points="261.264,1423.18 261.264,1404.28 "></polyline>
<polyline clip-path="url(#clip780)" style="stroke:#000000; stroke-linecap:round; stroke-linejoin:round; stroke-width:4; stroke-opacity:1; fill:none" points="696.122,1423.18 696.122,1404.28 "></polyline>
<polyline clip-path="url(#clip780)" style="stroke:#000000; stroke-linecap:round; stroke-linejoin:round; stroke-width:4; stroke-opacity:1; fill:none" points="1130.98,1423.18 1130.98,1404.28 "></polyline>
<polyline clip-path="url(#clip780)" style="stroke:#000000; stroke-linecap:round; stroke-linejoin:round; stroke-width:4; stroke-opacity:1; fill:none" points="1565.84,1423.18 1565.84,1404.28 "></polyline>
<polyline clip-path="url(#clip780)" style="stroke:#000000; stroke-linecap:round; stroke-linejoin:round; stroke-width:4; stroke-opacity:1; fill:none" points="2000.7,1423.18 2000.7,1404.28 "></polyline>
<path clip-path="url(#clip780)" d="M220.882 1451.02 L239.239 1451.02 L239.239 1454.96 L225.165 1454.96 L225.165 1463.43 Q226.183 1463.08 227.202 1462.92 Q228.22 1462.73 229.239 1462.73 Q235.026 1462.73 238.405 1465.9 Q241.785 1469.08 241.785 1474.49 Q241.785 1480.07 238.313 1483.17 Q234.84 1486.25 228.521 1486.25 Q226.345 1486.25 224.077 1485.88 Q221.831 1485.51 219.424 1484.77 L219.424 1480.07 Q221.507 1481.2 223.729 1481.76 Q225.952 1482.32 228.428 1482.32 Q232.433 1482.32 234.771 1480.21 Q237.109 1478.1 237.109 1474.49 Q237.109 1470.88 234.771 1468.77 Q232.433 1466.67 228.428 1466.67 Q226.553 1466.67 224.678 1467.08 Q222.827 1467.5 220.882 1468.38 L220.882 1451.02 Z" fill="#000000" fill-rule="nonzero" fill-opacity="1"></path><path clip-path="url(#clip780)" d="M260.998 1454.1 Q257.387 1454.1 255.558 1457.66 Q253.752 1461.2 253.752 1468.33 Q253.752 1475.44 255.558 1479.01 Q257.387 1482.55 260.998 1482.55 Q264.632 1482.55 266.437 1479.01 Q268.266 1475.44 268.266 1468.33 Q268.266 1461.2 266.437 1457.66 Q264.632 1454.1 260.998 1454.1 M260.998 1450.39 Q266.808 1450.39 269.863 1455 Q272.942 1459.58 272.942 1468.33 Q272.942 1477.06 269.863 1481.67 Q266.808 1486.25 260.998 1486.25 Q255.188 1486.25 252.109 1481.67 Q249.053 1477.06 249.053 1468.33 Q249.053 1459.58 252.109 1455 Q255.188 1450.39 260.998 1450.39 Z" fill="#000000" fill-rule="nonzero" fill-opacity="1"></path><path clip-path="url(#clip780)" d="M291.16 1454.1 Q287.548 1454.1 285.72 1457.66 Q283.914 1461.2 283.914 1468.33 Q283.914 1475.44 285.72 1479.01 Q287.548 1482.55 291.16 1482.55 Q294.794 1482.55 296.599 1479.01 Q298.428 1475.44 298.428 1468.33 Q298.428 1461.2 296.599 1457.66 Q294.794 1454.1 291.16 1454.1 M291.16 1450.39 Q296.97 1450.39 300.025 1455 Q303.104 1459.58 303.104 1468.33 Q303.104 1477.06 300.025 1481.67 Q296.97 1486.25 291.16 1486.25 Q285.349 1486.25 282.271 1481.67 Q279.215 1477.06 279.215 1468.33 Q279.215 1459.58 282.271 1455 Q285.349 1450.39 291.16 1450.39 Z" fill="#000000" fill-rule="nonzero" fill-opacity="1"></path><path clip-path="url(#clip780)" d="M654.397 1451.02 L676.619 1451.02 L676.619 1453.01 L664.073 1485.58 L659.189 1485.58 L670.995 1454.96 L654.397 1454.96 L654.397 1451.02 Z" fill="#000000" fill-rule="nonzero" fill-opacity="1"></path><path clip-path="url(#clip780)" d="M685.786 1451.02 L704.142 1451.02 L704.142 1454.96 L690.068 1454.96 L690.068 1463.43 Q691.087 1463.08 692.106 1462.92 Q693.124 1462.73 694.143 1462.73 Q699.93 1462.73 703.309 1465.9 Q706.689 1469.08 706.689 1474.49 Q706.689 1480.07 703.217 1483.17 Q699.744 1486.25 693.425 1486.25 Q691.249 1486.25 688.981 1485.88 Q686.735 1485.51 684.328 1484.77 L684.328 1480.07 Q686.411 1481.2 688.633 1481.76 Q690.856 1482.32 693.332 1482.32 Q697.337 1482.32 699.675 1480.21 Q702.013 1478.1 702.013 1474.49 Q702.013 1470.88 699.675 1468.77 Q697.337 1466.67 693.332 1466.67 Q691.457 1466.67 689.582 1467.08 Q687.731 1467.5 685.786 1468.38 L685.786 1451.02 Z" fill="#000000" fill-rule="nonzero" fill-opacity="1"></path><path clip-path="url(#clip780)" d="M725.902 1454.1 Q722.291 1454.1 720.462 1457.66 Q718.656 1461.2 718.656 1468.33 Q718.656 1475.44 720.462 1479.01 Q722.291 1482.55 725.902 1482.55 Q729.536 1482.55 731.341 1479.01 Q733.17 1475.44 733.17 1468.33 Q733.17 1461.2 731.341 1457.66 Q729.536 1454.1 725.902 1454.1 M725.902 1450.39 Q731.712 1450.39 734.767 1455 Q737.846 1459.58 737.846 1468.33 Q737.846 1477.06 734.767 1481.67 Q731.712 1486.25 725.902 1486.25 Q720.091 1486.25 717.013 1481.67 Q713.957 1477.06 713.957 1468.33 Q713.957 1459.58 717.013 1455 Q720.091 1450.39 725.902 1450.39 Z" fill="#000000" fill-rule="nonzero" fill-opacity="1"></path><path clip-path="url(#clip780)" d="M1075.51 1481.64 L1083.14 1481.64 L1083.14 1455.28 L1074.83 1456.95 L1074.83 1452.69 L1083.1 1451.02 L1087.77 1451.02 L1087.77 1481.64 L1095.41 1481.64 L1095.41 1485.58 L1075.51 1485.58 L1075.51 1481.64 Z" fill="#000000" fill-rule="nonzero" fill-opacity="1"></path><path clip-path="url(#clip780)" d="M1114.86 1454.1 Q1111.25 1454.1 1109.42 1457.66 Q1107.61 1461.2 1107.61 1468.33 Q1107.61 1475.44 1109.42 1479.01 Q1111.25 1482.55 1114.86 1482.55 Q1118.49 1482.55 1120.3 1479.01 Q1122.13 1475.44 1122.13 1468.33 Q1122.13 1461.2 1120.3 1457.66 Q1118.49 1454.1 1114.86 1454.1 M1114.86 1450.39 Q1120.67 1450.39 1123.72 1455 Q1126.8 1459.58 1126.8 1468.33 Q1126.8 1477.06 1123.72 1481.67 Q1120.67 1486.25 1114.86 1486.25 Q1109.05 1486.25 1105.97 1481.67 Q1102.91 1477.06 1102.91 1468.33 Q1102.91 1459.58 1105.97 1455 Q1109.05 1450.39 1114.86 1450.39 Z" fill="#000000" fill-rule="nonzero" fill-opacity="1"></path><path clip-path="url(#clip780)" d="M1145.02 1454.1 Q1141.41 1454.1 1139.58 1457.66 Q1137.77 1461.2 1137.77 1468.33 Q1137.77 1475.44 1139.58 1479.01 Q1141.41 1482.55 1145.02 1482.55 Q1148.65 1482.55 1150.46 1479.01 Q1152.29 1475.44 1152.29 1468.33 Q1152.29 1461.2 1150.46 1457.66 Q1148.65 1454.1 1145.02 1454.1 M1145.02 1450.39 Q1150.83 1450.39 1153.88 1455 Q1156.96 1459.58 1156.96 1468.33 Q1156.96 1477.06 1153.88 1481.67 Q1150.83 1486.25 1145.02 1486.25 Q1139.21 1486.25 1136.13 1481.67 Q1133.07 1477.06 1133.07 1468.33 Q1133.07 1459.58 1136.13 1455 Q1139.21 1450.39 1145.02 1450.39 Z" fill="#000000" fill-rule="nonzero" fill-opacity="1"></path><path clip-path="url(#clip780)" d="M1175.18 1454.1 Q1171.57 1454.1 1169.74 1457.66 Q1167.94 1461.2 1167.94 1468.33 Q1167.94 1475.44 1169.74 1479.01 Q1171.57 1482.55 1175.18 1482.55 Q1178.81 1482.55 1180.62 1479.01 Q1182.45 1475.44 1182.45 1468.33 Q1182.45 1461.2 1180.62 1457.66 Q1178.81 1454.1 1175.18 1454.1 M1175.18 1450.39 Q1180.99 1450.39 1184.05 1455 Q1187.13 1459.58 1187.13 1468.33 Q1187.13 1477.06 1184.05 1481.67 Q1180.99 1486.25 1175.18 1486.25 Q1169.37 1486.25 1166.29 1481.67 Q1163.24 1477.06 1163.24 1468.33 Q1163.24 1459.58 1166.29 1455 Q1169.37 1450.39 1175.18 1450.39 Z" fill="#000000" fill-rule="nonzero" fill-opacity="1"></path><path clip-path="url(#clip780)" d="M1510.36 1481.64 L1518 1481.64 L1518 1455.28 L1509.69 1456.95 L1509.69 1452.69 L1517.96 1451.02 L1522.63 1451.02 L1522.63 1481.64 L1530.27 1481.64 L1530.27 1485.58 L1510.36 1485.58 L1510.36 1481.64 Z" fill="#000000" fill-rule="nonzero" fill-opacity="1"></path><path clip-path="url(#clip780)" d="M1543.74 1481.64 L1560.06 1481.64 L1560.06 1485.58 L1538.12 1485.58 L1538.12 1481.64 Q1540.78 1478.89 1545.36 1474.26 Q1549.97 1469.61 1551.15 1468.27 Q1553.4 1465.74 1554.27 1464.01 Q1555.18 1462.25 1555.18 1460.56 Q1555.18 1457.8 1553.23 1456.07 Q1551.31 1454.33 1548.21 1454.33 Q1546.01 1454.33 1543.56 1455.09 Q1541.13 1455.86 1538.35 1457.41 L1538.35 1452.69 Q1541.17 1451.55 1543.63 1450.97 Q1546.08 1450.39 1548.12 1450.39 Q1553.49 1450.39 1556.68 1453.08 Q1559.88 1455.77 1559.88 1460.26 Q1559.88 1462.39 1559.07 1464.31 Q1558.28 1466.2 1556.17 1468.8 Q1555.59 1469.47 1552.49 1472.69 Q1549.39 1475.88 1543.74 1481.64 Z" fill="#000000" fill-rule="nonzero" fill-opacity="1"></path><path clip-path="url(#clip780)" d="M1569.92 1451.02 L1588.28 1451.02 L1588.28 1454.96 L1574.21 1454.96 L1574.21 1463.43 Q1575.22 1463.08 1576.24 1462.92 Q1577.26 1462.73 1578.28 1462.73 Q1584.07 1462.73 1587.45 1465.9 Q1590.83 1469.08 1590.83 1474.49 Q1590.83 1480.07 1587.35 1483.17 Q1583.88 1486.25 1577.56 1486.25 Q1575.39 1486.25 1573.12 1485.88 Q1570.87 1485.51 1568.46 1484.77 L1568.46 1480.07 Q1570.55 1481.2 1572.77 1481.76 Q1574.99 1482.32 1577.47 1482.32 Q1581.47 1482.32 1583.81 1480.21 Q1586.15 1478.1 1586.15 1474.49 Q1586.15 1470.88 1583.81 1468.77 Q1581.47 1466.67 1577.47 1466.67 Q1575.59 1466.67 1573.72 1467.08 Q1571.87 1467.5 1569.92 1468.38 L1569.92 1451.02 Z" fill="#000000" fill-rule="nonzero" fill-opacity="1"></path><path clip-path="url(#clip780)" d="M1610.04 1454.1 Q1606.43 1454.1 1604.6 1457.66 Q1602.79 1461.2 1602.79 1468.33 Q1602.79 1475.44 1604.6 1479.01 Q1606.43 1482.55 1610.04 1482.55 Q1613.67 1482.55 1615.48 1479.01 Q1617.31 1475.44 1617.31 1468.33 Q1617.31 1461.2 1615.48 1457.66 Q1613.67 1454.1 1610.04 1454.1 M1610.04 1450.39 Q1615.85 1450.39 1618.9 1455 Q1621.98 1459.58 1621.98 1468.33 Q1621.98 1477.06 1618.9 1481.67 Q1615.85 1486.25 1610.04 1486.25 Q1604.23 1486.25 1601.15 1481.67 Q1598.09 1477.06 1598.09 1468.33 Q1598.09 1459.58 1601.15 1455 Q1604.23 1450.39 1610.04 1450.39 Z" fill="#000000" fill-rule="nonzero" fill-opacity="1"></path><path clip-path="url(#clip780)" d="M1945.22 1481.64 L1952.86 1481.64 L1952.86 1455.28 L1944.55 1456.95 L1944.55 1452.69 L1952.81 1451.02 L1957.49 1451.02 L1957.49 1481.64 L1965.13 1481.64 L1965.13 1485.58 L1945.22 1485.58 L1945.22 1481.64 Z" fill="#000000" fill-rule="nonzero" fill-opacity="1"></path><path clip-path="url(#clip780)" d="M1974.62 1451.02 L1992.98 1451.02 L1992.98 1454.96 L1978.9 1454.96 L1978.9 1463.43 Q1979.92 1463.08 1980.94 1462.92 Q1981.96 1462.73 1982.98 1462.73 Q1988.76 1462.73 1992.14 1465.9 Q1995.52 1469.08 1995.52 1474.49 Q1995.52 1480.07 1992.05 1483.17 Q1988.58 1486.25 1982.26 1486.25 Q1980.08 1486.25 1977.81 1485.88 Q1975.57 1485.51 1973.16 1484.77 L1973.16 1480.07 Q1975.24 1481.2 1977.47 1481.76 Q1979.69 1482.32 1982.17 1482.32 Q1986.17 1482.32 1988.51 1480.21 Q1990.85 1478.1 1990.85 1474.49 Q1990.85 1470.88 1988.51 1468.77 Q1986.17 1466.67 1982.17 1466.67 Q1980.29 1466.67 1978.42 1467.08 Q1976.56 1467.5 1974.62 1468.38 L1974.62 1451.02 Z" fill="#000000" fill-rule="nonzero" fill-opacity="1"></path><path clip-path="url(#clip780)" d="M2014.73 1454.1 Q2011.12 1454.1 2009.29 1457.66 Q2007.49 1461.2 2007.49 1468.33 Q2007.49 1475.44 2009.29 1479.01 Q2011.12 1482.55 2014.73 1482.55 Q2018.37 1482.55 2020.17 1479.01 Q2022 1475.44 2022 1468.33 Q2022 1461.2 2020.17 1457.66 Q2018.37 1454.1 2014.73 1454.1 M2014.73 1450.39 Q2020.54 1450.39 2023.6 1455 Q2026.68 1459.58 2026.68 1468.33 Q2026.68 1477.06 2023.6 1481.67 Q2020.54 1486.25 2014.73 1486.25 Q2008.92 1486.25 2005.85 1481.67 Q2002.79 1477.06 2002.79 1468.33 Q2002.79 1459.58 2005.85 1455 Q2008.92 1450.39 2014.73 1450.39 Z" fill="#000000" fill-rule="nonzero" fill-opacity="1"></path><path clip-path="url(#clip780)" d="M2044.9 1454.1 Q2041.29 1454.1 2039.46 1457.66 Q2037.65 1461.2 2037.65 1468.33 Q2037.65 1475.44 2039.46 1479.01 Q2041.29 1482.55 2044.9 1482.55 Q2048.53 1482.55 2050.34 1479.01 Q2052.16 1475.44 2052.16 1468.33 Q2052.16 1461.2 2050.34 1457.66 Q2048.53 1454.1 2044.9 1454.1 M2044.9 1450.39 Q2050.71 1450.39 2053.76 1455 Q2056.84 1459.58 2056.84 1468.33 Q2056.84 1477.06 2053.76 1481.67 Q2050.71 1486.25 2044.9 1486.25 Q2039.09 1486.25 2036.01 1481.67 Q2032.95 1477.06 2032.95 1468.33 Q2032.95 1459.58 2036.01 1455 Q2039.09 1450.39 2044.9 1450.39 Z" fill="#000000" fill-rule="nonzero" fill-opacity="1"></path><path clip-path="url(#clip780)" d="M949.35 1520.52 L958.93 1520.52 L971.057 1552.86 L983.247 1520.52 L992.827 1520.52 L992.827 1568.04 L986.557 1568.04 L986.557 1526.32 L974.303 1558.91 L967.842 1558.91 L955.588 1526.32 L955.588 1568.04 L949.35 1568.04 L949.35 1520.52 Z" fill="#000000" fill-rule="nonzero" fill-opacity="1"></path><path clip-path="url(#clip780)" d="M1005.34 1532.4 L1011.19 1532.4 L1011.19 1568.04 L1005.34 1568.04 L1005.34 1532.4 M1005.34 1518.52 L1011.19 1518.52 L1011.19 1525.93 L1005.34 1525.93 L1005.34 1518.52 Z" fill="#000000" fill-rule="nonzero" fill-opacity="1"></path><path clip-path="url(#clip780)" d="M1053.08 1532.4 L1040.19 1549.74 L1053.75 1568.04 L1046.84 1568.04 L1036.46 1554.04 L1026.09 1568.04 L1019.18 1568.04 L1033.03 1549.39 L1020.36 1532.4 L1027.27 1532.4 L1036.72 1545.1 L1046.17 1532.4 L1053.08 1532.4 Z" fill="#000000" fill-rule="nonzero" fill-opacity="1"></path><path clip-path="url(#clip780)" d="M1062.02 1532.4 L1067.88 1532.4 L1067.88 1568.04 L1062.02 1568.04 L1062.02 1532.4 M1062.02 1518.52 L1067.88 1518.52 L1067.88 1525.93 L1062.02 1525.93 L1062.02 1518.52 Z" fill="#000000" fill-rule="nonzero" fill-opacity="1"></path><path clip-path="url(#clip780)" d="M1109.77 1546.53 L1109.77 1568.04 L1103.91 1568.04 L1103.91 1546.72 Q1103.91 1541.66 1101.94 1539.14 Q1099.96 1536.63 1096.02 1536.63 Q1091.27 1536.63 1088.54 1539.65 Q1085.8 1542.68 1085.8 1547.9 L1085.8 1568.04 L1079.91 1568.04 L1079.91 1532.4 L1085.8 1532.4 L1085.8 1537.93 Q1087.9 1534.72 1090.73 1533.13 Q1093.6 1531.54 1097.32 1531.54 Q1103.46 1531.54 1106.61 1535.36 Q1109.77 1539.14 1109.77 1546.53 Z" fill="#000000" fill-rule="nonzero" fill-opacity="1"></path><path clip-path="url(#clip780)" d="M1144.9 1549.81 Q1144.9 1543.44 1142.26 1539.94 Q1139.65 1536.44 1134.91 1536.44 Q1130.2 1536.44 1127.56 1539.94 Q1124.95 1543.44 1124.95 1549.81 Q1124.95 1556.14 1127.56 1559.64 Q1130.2 1563.14 1134.91 1563.14 Q1139.65 1563.14 1142.26 1559.64 Q1144.9 1556.14 1144.9 1549.81 M1150.76 1563.62 Q1150.76 1572.72 1146.72 1577.15 Q1142.68 1581.6 1134.34 1581.6 Q1131.25 1581.6 1128.51 1581.13 Q1125.78 1580.68 1123.2 1579.72 L1123.2 1574.03 Q1125.78 1575.43 1128.29 1576.1 Q1130.8 1576.76 1133.41 1576.76 Q1139.18 1576.76 1142.04 1573.74 Q1144.9 1570.75 1144.9 1564.67 L1144.9 1561.77 Q1143.09 1564.92 1140.26 1566.48 Q1137.42 1568.04 1133.48 1568.04 Q1126.92 1568.04 1122.91 1563.05 Q1118.9 1558.05 1118.9 1549.81 Q1118.9 1541.53 1122.91 1536.53 Q1126.92 1531.54 1133.48 1531.54 Q1137.42 1531.54 1140.26 1533.1 Q1143.09 1534.66 1144.9 1537.81 L1144.9 1532.4 L1150.76 1532.4 L1150.76 1563.62 Z" fill="#000000" fill-rule="nonzero" fill-opacity="1"></path><path clip-path="url(#clip780)" d="M1190.23 1525.81 L1190.23 1543.66 L1198.31 1543.66 Q1202.8 1543.66 1205.25 1541.34 Q1207.7 1539.02 1207.7 1534.72 Q1207.7 1530.45 1205.25 1528.13 Q1202.8 1525.81 1198.31 1525.81 L1190.23 1525.81 M1183.8 1520.52 L1198.31 1520.52 Q1206.3 1520.52 1210.38 1524.15 Q1214.48 1527.75 1214.48 1534.72 Q1214.48 1541.75 1210.38 1545.35 Q1206.3 1548.95 1198.31 1548.95 L1190.23 1548.95 L1190.23 1568.04 L1183.8 1568.04 L1183.8 1520.52 Z" fill="#000000" fill-rule="nonzero" fill-opacity="1"></path><path clip-path="url(#clip780)" d="M1242.36 1537.87 Q1241.38 1537.3 1240.2 1537.04 Q1239.05 1536.76 1237.65 1536.76 Q1232.69 1536.76 1230.01 1540 Q1227.37 1543.22 1227.37 1549.27 L1227.37 1568.04 L1221.48 1568.04 L1221.48 1532.4 L1227.37 1532.4 L1227.37 1537.93 Q1229.22 1534.69 1232.18 1533.13 Q1235.14 1531.54 1239.37 1531.54 Q1239.98 1531.54 1240.71 1531.63 Q1241.44 1531.7 1242.33 1531.85 L1242.36 1537.87 Z" fill="#000000" fill-rule="nonzero" fill-opacity="1"></path><path clip-path="url(#clip780)" d="M1277.57 1548.76 L1277.57 1551.62 L1250.64 1551.62 Q1251.02 1557.67 1254.27 1560.85 Q1257.55 1564 1263.37 1564 Q1266.74 1564 1269.89 1563.17 Q1273.08 1562.35 1276.2 1560.69 L1276.2 1566.23 Q1273.05 1567.57 1269.74 1568.27 Q1266.43 1568.97 1263.02 1568.97 Q1254.49 1568.97 1249.49 1564 Q1244.53 1559.04 1244.53 1550.57 Q1244.53 1541.82 1249.24 1536.69 Q1253.98 1531.54 1262 1531.54 Q1269.19 1531.54 1273.36 1536.18 Q1277.57 1540.8 1277.57 1548.76 M1271.71 1547.04 Q1271.65 1542.23 1269 1539.37 Q1266.39 1536.5 1262.06 1536.5 Q1257.16 1536.5 1254.2 1539.27 Q1251.28 1542.04 1250.83 1547.07 L1271.71 1547.04 Z" fill="#000000" fill-rule="nonzero" fill-opacity="1"></path><path clip-path="url(#clip780)" d="M1309.9 1533.45 L1309.9 1538.98 Q1307.42 1537.71 1304.75 1537.07 Q1302.07 1536.44 1299.21 1536.44 Q1294.85 1536.44 1292.65 1537.77 Q1290.49 1539.11 1290.49 1541.79 Q1290.49 1543.82 1292.05 1545 Q1293.61 1546.15 1298.32 1547.2 L1300.32 1547.64 Q1306.56 1548.98 1309.17 1551.43 Q1311.81 1553.85 1311.81 1558.21 Q1311.81 1563.17 1307.87 1566.07 Q1303.95 1568.97 1297.08 1568.97 Q1294.21 1568.97 1291.09 1568.39 Q1288.01 1567.85 1284.57 1566.74 L1284.57 1560.69 Q1287.81 1562.38 1290.97 1563.24 Q1294.12 1564.07 1297.2 1564.07 Q1301.34 1564.07 1303.57 1562.66 Q1305.8 1561.23 1305.8 1558.65 Q1305.8 1556.27 1304.17 1554.99 Q1302.58 1553.72 1297.14 1552.54 L1295.1 1552.07 Q1289.66 1550.92 1287.24 1548.56 Q1284.82 1546.18 1284.82 1542.04 Q1284.82 1537.01 1288.39 1534.27 Q1291.95 1531.54 1298.51 1531.54 Q1301.76 1531.54 1304.62 1532.01 Q1307.48 1532.49 1309.9 1533.45 Z" fill="#000000" fill-rule="nonzero" fill-opacity="1"></path><path clip-path="url(#clip780)" d="M1343.86 1533.45 L1343.86 1538.98 Q1341.38 1537.71 1338.71 1537.07 Q1336.03 1536.44 1333.17 1536.44 Q1328.81 1536.44 1326.61 1537.77 Q1324.45 1539.11 1324.45 1541.79 Q1324.45 1543.82 1326.01 1545 Q1327.57 1546.15 1332.28 1547.2 L1334.28 1547.64 Q1340.52 1548.98 1343.13 1551.43 Q1345.77 1553.85 1345.77 1558.21 Q1345.77 1563.17 1341.83 1566.07 Q1337.91 1568.97 1331.04 1568.97 Q1328.17 1568.97 1325.05 1568.39 Q1321.97 1567.85 1318.53 1566.74 L1318.53 1560.69 Q1321.78 1562.38 1324.93 1563.24 Q1328.08 1564.07 1331.16 1564.07 Q1335.3 1564.07 1337.53 1562.66 Q1339.76 1561.23 1339.76 1558.65 Q1339.76 1556.27 1338.14 1554.99 Q1336.54 1553.72 1331.1 1552.54 L1329.06 1552.07 Q1323.62 1550.92 1321.2 1548.56 Q1318.78 1546.18 1318.78 1542.04 Q1318.78 1537.01 1322.35 1534.27 Q1325.91 1531.54 1332.47 1531.54 Q1335.72 1531.54 1338.58 1532.01 Q1341.45 1532.49 1343.86 1533.45 Z" fill="#000000" fill-rule="nonzero" fill-opacity="1"></path><path clip-path="url(#clip780)" d="M1354.5 1553.98 L1354.5 1532.4 L1360.35 1532.4 L1360.35 1553.75 Q1360.35 1558.81 1362.32 1561.36 Q1364.3 1563.87 1368.24 1563.87 Q1372.99 1563.87 1375.72 1560.85 Q1378.49 1557.83 1378.49 1552.61 L1378.49 1532.4 L1384.35 1532.4 L1384.35 1568.04 L1378.49 1568.04 L1378.49 1562.57 Q1376.36 1565.82 1373.53 1567.41 Q1370.73 1568.97 1367 1568.97 Q1360.86 1568.97 1357.68 1565.15 Q1354.5 1561.33 1354.5 1553.98 M1369.23 1531.54 L1369.23 1531.54 Z" fill="#000000" fill-rule="nonzero" fill-opacity="1"></path><path clip-path="url(#clip780)" d="M1417.07 1537.87 Q1416.08 1537.3 1414.91 1537.04 Q1413.76 1536.76 1412.36 1536.76 Q1407.39 1536.76 1404.72 1540 Q1402.08 1543.22 1402.08 1549.27 L1402.08 1568.04 L1396.19 1568.04 L1396.19 1532.4 L1402.08 1532.4 L1402.08 1537.93 Q1403.92 1534.69 1406.88 1533.13 Q1409.84 1531.54 1414.08 1531.54 Q1414.68 1531.54 1415.41 1531.63 Q1416.15 1531.7 1417.04 1531.85 L1417.07 1537.87 Z" fill="#000000" fill-rule="nonzero" fill-opacity="1"></path><path clip-path="url(#clip780)" d="M1452.27 1548.76 L1452.27 1551.62 L1425.35 1551.62 Q1425.73 1557.67 1428.97 1560.85 Q1432.25 1564 1438.08 1564 Q1441.45 1564 1444.6 1563.17 Q1447.78 1562.35 1450.9 1560.69 L1450.9 1566.23 Q1447.75 1567.57 1444.44 1568.27 Q1441.13 1568.97 1437.73 1568.97 Q1429.2 1568.97 1424.2 1564 Q1419.23 1559.04 1419.23 1550.57 Q1419.23 1541.82 1423.94 1536.69 Q1428.69 1531.54 1436.71 1531.54 Q1443.9 1531.54 1448.07 1536.18 Q1452.27 1540.8 1452.27 1548.76 M1446.42 1547.04 Q1446.35 1542.23 1443.71 1539.37 Q1441.1 1536.5 1436.77 1536.5 Q1431.87 1536.5 1428.91 1539.27 Q1425.98 1542.04 1425.54 1547.07 L1446.42 1547.04 Z" fill="#000000" fill-rule="nonzero" fill-opacity="1"></path><path clip-path="url(#clip780)" d="M1482.06 1518.52 L1495.56 1518.52 L1495.56 1523.07 L1487.92 1523.07 L1487.92 1572.09 L1495.56 1572.09 L1495.56 1576.64 L1482.06 1576.64 L1482.06 1518.52 Z" fill="#000000" fill-rule="nonzero" fill-opacity="1"></path><path clip-path="url(#clip780)" d="M1507.81 1518.52 L1513.7 1518.52 L1513.7 1547.77 L1531.18 1532.4 L1538.65 1532.4 L1519.75 1549.07 L1539.45 1568.04 L1531.81 1568.04 L1513.7 1550.63 L1513.7 1568.04 L1507.81 1568.04 L1507.81 1518.52 Z" fill="#000000" fill-rule="nonzero" fill-opacity="1"></path><path clip-path="url(#clip780)" d="M1552.47 1525.81 L1552.47 1543.66 L1560.55 1543.66 Q1565.04 1543.66 1567.49 1541.34 Q1569.94 1539.02 1569.94 1534.72 Q1569.94 1530.45 1567.49 1528.13 Q1565.04 1525.81 1560.55 1525.81 L1552.47 1525.81 M1546.04 1520.52 L1560.55 1520.52 Q1568.54 1520.52 1572.62 1524.15 Q1576.72 1527.75 1576.72 1534.72 Q1576.72 1541.75 1572.62 1545.35 Q1568.54 1548.95 1560.55 1548.95 L1552.47 1548.95 L1552.47 1568.04 L1546.04 1568.04 L1546.04 1520.52 Z" fill="#000000" fill-rule="nonzero" fill-opacity="1"></path><path clip-path="url(#clip780)" d="M1598.37 1550.12 Q1591.27 1550.12 1588.53 1551.75 Q1585.79 1553.37 1585.79 1557.29 Q1585.79 1560.4 1587.83 1562.25 Q1589.9 1564.07 1593.43 1564.07 Q1598.3 1564.07 1601.23 1560.63 Q1604.19 1557.16 1604.19 1551.43 L1604.19 1550.12 L1598.37 1550.12 M1610.05 1547.71 L1610.05 1568.04 L1604.19 1568.04 L1604.19 1562.63 Q1602.18 1565.88 1599.19 1567.44 Q1596.2 1568.97 1591.87 1568.97 Q1586.4 1568.97 1583.15 1565.91 Q1579.94 1562.82 1579.94 1557.67 Q1579.94 1551.65 1583.95 1548.6 Q1587.99 1545.54 1595.98 1545.54 L1604.19 1545.54 L1604.19 1544.97 Q1604.19 1540.93 1601.52 1538.73 Q1598.87 1536.5 1594.07 1536.5 Q1591.01 1536.5 1588.12 1537.23 Q1585.22 1537.97 1582.55 1539.43 L1582.55 1534.02 Q1585.76 1532.78 1588.78 1532.17 Q1591.81 1531.54 1594.67 1531.54 Q1602.41 1531.54 1606.23 1535.55 Q1610.05 1539.56 1610.05 1547.71 Z" fill="#000000" fill-rule="nonzero" fill-opacity="1"></path><path clip-path="url(#clip780)" d="M1635.8 1518.52 L1635.8 1576.64 L1622.3 1576.64 L1622.3 1572.09 L1629.91 1572.09 L1629.91 1523.07 L1622.3 1523.07 L1622.3 1518.52 L1635.8 1518.52 Z" fill="#000000" fill-rule="nonzero" fill-opacity="1"></path><polyline clip-path="url(#clip783)" style="stroke:#000000; stroke-linecap:round; stroke-linejoin:round; stroke-width:2; stroke-opacity:0.1; fill:none" points="232.389,1344.25 2352.76,1344.25 "></polyline>
<polyline clip-path="url(#clip783)" style="stroke:#000000; stroke-linecap:round; stroke-linejoin:round; stroke-width:2; stroke-opacity:0.1; fill:none" points="232.389,1147.83 2352.76,1147.83 "></polyline>
<polyline clip-path="url(#clip783)" style="stroke:#000000; stroke-linecap:round; stroke-linejoin:round; stroke-width:2; stroke-opacity:0.1; fill:none" points="232.389,951.396 2352.76,951.396 "></polyline>
<polyline clip-path="url(#clip783)" style="stroke:#000000; stroke-linecap:round; stroke-linejoin:round; stroke-width:2; stroke-opacity:0.1; fill:none" points="232.389,754.967 2352.76,754.967 "></polyline>
<polyline clip-path="url(#clip783)" style="stroke:#000000; stroke-linecap:round; stroke-linejoin:round; stroke-width:2; stroke-opacity:0.1; fill:none" points="232.389,558.537 2352.76,558.537 "></polyline>
<polyline clip-path="url(#clip783)" style="stroke:#000000; stroke-linecap:round; stroke-linejoin:round; stroke-width:2; stroke-opacity:0.1; fill:none" points="232.389,362.108 2352.76,362.108 "></polyline>
<polyline clip-path="url(#clip783)" style="stroke:#000000; stroke-linecap:round; stroke-linejoin:round; stroke-width:2; stroke-opacity:0.1; fill:none" points="232.389,165.679 2352.76,165.679 "></polyline>
<polyline clip-path="url(#clip780)" style="stroke:#000000; stroke-linecap:round; stroke-linejoin:round; stroke-width:4; stroke-opacity:1; fill:none" points="232.389,1423.18 232.389,47.2441 "></polyline>
<polyline clip-path="url(#clip780)" style="stroke:#000000; stroke-linecap:round; stroke-linejoin:round; stroke-width:4; stroke-opacity:1; fill:none" points="232.389,1344.25 251.287,1344.25 "></polyline>
<polyline clip-path="url(#clip780)" style="stroke:#000000; stroke-linecap:round; stroke-linejoin:round; stroke-width:4; stroke-opacity:1; fill:none" points="232.389,1147.83 251.287,1147.83 "></polyline>
<polyline clip-path="url(#clip780)" style="stroke:#000000; stroke-linecap:round; stroke-linejoin:round; stroke-width:4; stroke-opacity:1; fill:none" points="232.389,951.396 251.287,951.396 "></polyline>
<polyline clip-path="url(#clip780)" style="stroke:#000000; stroke-linecap:round; stroke-linejoin:round; stroke-width:4; stroke-opacity:1; fill:none" points="232.389,754.967 251.287,754.967 "></polyline>
<polyline clip-path="url(#clip780)" style="stroke:#000000; stroke-linecap:round; stroke-linejoin:round; stroke-width:4; stroke-opacity:1; fill:none" points="232.389,558.537 251.287,558.537 "></polyline>
<polyline clip-path="url(#clip780)" style="stroke:#000000; stroke-linecap:round; stroke-linejoin:round; stroke-width:4; stroke-opacity:1; fill:none" points="232.389,362.108 251.287,362.108 "></polyline>
<polyline clip-path="url(#clip780)" style="stroke:#000000; stroke-linecap:round; stroke-linejoin:round; stroke-width:4; stroke-opacity:1; fill:none" points="232.389,165.679 251.287,165.679 "></polyline>
<path clip-path="url(#clip780)" d="M115.927 1357.6 L123.566 1357.6 L123.566 1331.23 L115.256 1332.9 L115.256 1328.64 L123.519 1326.97 L128.195 1326.97 L128.195 1357.6 L135.834 1357.6 L135.834 1361.53 L115.927 1361.53 L115.927 1357.6 Z" fill="#000000" fill-rule="nonzero" fill-opacity="1"></path><path clip-path="url(#clip780)" d="M159.445 1342.9 Q162.802 1343.62 164.677 1345.89 Q166.575 1348.15 166.575 1351.49 Q166.575 1356.6 163.056 1359.4 Q159.538 1362.21 153.056 1362.21 Q150.88 1362.21 148.566 1361.77 Q146.274 1361.35 143.82 1360.49 L143.82 1355.98 Q145.765 1357.11 148.079 1357.69 Q150.394 1358.27 152.917 1358.27 Q157.315 1358.27 159.607 1356.53 Q161.922 1354.8 161.922 1351.49 Q161.922 1348.43 159.769 1346.72 Q157.64 1344.98 153.82 1344.98 L149.792 1344.98 L149.792 1341.14 L154.005 1341.14 Q157.454 1341.14 159.283 1339.78 Q161.112 1338.39 161.112 1335.79 Q161.112 1333.13 159.214 1331.72 Q157.339 1330.28 153.82 1330.28 Q151.899 1330.28 149.7 1330.7 Q147.501 1331.12 144.862 1332 L144.862 1327.83 Q147.524 1327.09 149.839 1326.72 Q152.177 1326.35 154.237 1326.35 Q159.561 1326.35 162.663 1328.78 Q165.765 1331.19 165.765 1335.31 Q165.765 1338.18 164.121 1340.17 Q162.477 1342.14 159.445 1342.9 Z" fill="#000000" fill-rule="nonzero" fill-opacity="1"></path><path clip-path="url(#clip780)" d="M175.487 1326.97 L193.843 1326.97 L193.843 1330.91 L179.769 1330.91 L179.769 1339.38 Q180.788 1339.03 181.806 1338.87 Q182.825 1338.69 183.843 1338.69 Q189.63 1338.69 193.01 1341.86 Q196.389 1345.03 196.389 1350.45 Q196.389 1356.03 192.917 1359.13 Q189.445 1362.21 183.126 1362.21 Q180.95 1362.21 178.681 1361.84 Q176.436 1361.47 174.028 1360.72 L174.028 1356.03 Q176.112 1357.16 178.334 1357.72 Q180.556 1358.27 183.033 1358.27 Q187.038 1358.27 189.375 1356.16 Q191.713 1354.06 191.713 1350.45 Q191.713 1346.84 189.375 1344.73 Q187.038 1342.62 183.033 1342.62 Q181.158 1342.62 179.283 1343.04 Q177.431 1343.46 175.487 1344.34 L175.487 1326.97 Z" fill="#000000" fill-rule="nonzero" fill-opacity="1"></path><path clip-path="url(#clip780)" d="M114.931 1161.17 L122.57 1161.17 L122.57 1134.8 L114.26 1136.47 L114.26 1132.21 L122.524 1130.55 L127.2 1130.55 L127.2 1161.17 L134.839 1161.17 L134.839 1165.11 L114.931 1165.11 L114.931 1161.17 Z" fill="#000000" fill-rule="nonzero" fill-opacity="1"></path><path clip-path="url(#clip780)" d="M157.13 1134.62 L145.325 1153.07 L157.13 1153.07 L157.13 1134.62 M155.903 1130.55 L161.783 1130.55 L161.783 1153.07 L166.714 1153.07 L166.714 1156.96 L161.783 1156.96 L161.783 1165.11 L157.13 1165.11 L157.13 1156.96 L141.529 1156.96 L141.529 1152.44 L155.903 1130.55 Z" fill="#000000" fill-rule="nonzero" fill-opacity="1"></path><path clip-path="url(#clip780)" d="M184.445 1133.62 Q180.834 1133.62 179.005 1137.19 Q177.2 1140.73 177.2 1147.86 Q177.2 1154.97 179.005 1158.53 Q180.834 1162.07 184.445 1162.07 Q188.079 1162.07 189.885 1158.53 Q191.713 1154.97 191.713 1147.86 Q191.713 1140.73 189.885 1137.19 Q188.079 1133.62 184.445 1133.62 M184.445 1129.92 Q190.255 1129.92 193.311 1134.53 Q196.389 1139.11 196.389 1147.86 Q196.389 1156.59 193.311 1161.19 Q190.255 1165.78 184.445 1165.78 Q178.635 1165.78 175.556 1161.19 Q172.501 1156.59 172.501 1147.86 Q172.501 1139.11 175.556 1134.53 Q178.635 1129.92 184.445 1129.92 Z" fill="#000000" fill-rule="nonzero" fill-opacity="1"></path><path clip-path="url(#clip780)" d="M115.927 964.741 L123.566 964.741 L123.566 938.375 L115.256 940.042 L115.256 935.783 L123.519 934.116 L128.195 934.116 L128.195 964.741 L135.834 964.741 L135.834 968.676 L115.927 968.676 L115.927 964.741 Z" fill="#000000" fill-rule="nonzero" fill-opacity="1"></path><path clip-path="url(#clip780)" d="M158.126 938.19 L146.32 956.639 L158.126 956.639 L158.126 938.19 M156.899 934.116 L162.778 934.116 L162.778 956.639 L167.709 956.639 L167.709 960.528 L162.778 960.528 L162.778 968.676 L158.126 968.676 L158.126 960.528 L142.524 960.528 L142.524 956.014 L156.899 934.116 Z" fill="#000000" fill-rule="nonzero" fill-opacity="1"></path><path clip-path="url(#clip780)" d="M175.487 934.116 L193.843 934.116 L193.843 938.051 L179.769 938.051 L179.769 946.523 Q180.788 946.176 181.806 946.014 Q182.825 945.829 183.843 945.829 Q189.63 945.829 193.01 949 Q196.389 952.171 196.389 957.588 Q196.389 963.167 192.917 966.269 Q189.445 969.347 183.126 969.347 Q180.95 969.347 178.681 968.977 Q176.436 968.606 174.028 967.866 L174.028 963.167 Q176.112 964.301 178.334 964.857 Q180.556 965.412 183.033 965.412 Q187.038 965.412 189.375 963.306 Q191.713 961.199 191.713 957.588 Q191.713 953.977 189.375 951.87 Q187.038 949.764 183.033 949.764 Q181.158 949.764 179.283 950.181 Q177.431 950.597 175.487 951.477 L175.487 934.116 Z" fill="#000000" fill-rule="nonzero" fill-opacity="1"></path><path clip-path="url(#clip780)" d="M114.931 768.311 L122.57 768.311 L122.57 741.946 L114.26 743.613 L114.26 739.353 L122.524 737.687 L127.2 737.687 L127.2 768.311 L134.839 768.311 L134.839 772.247 L114.931 772.247 L114.931 768.311 Z" fill="#000000" fill-rule="nonzero" fill-opacity="1"></path><path clip-path="url(#clip780)" d="M144.329 737.687 L162.686 737.687 L162.686 741.622 L148.612 741.622 L148.612 750.094 Q149.63 749.747 150.649 749.585 Q151.667 749.4 152.686 749.4 Q158.473 749.4 161.852 752.571 Q165.232 755.742 165.232 761.159 Q165.232 766.737 161.76 769.839 Q158.288 772.918 151.968 772.918 Q149.792 772.918 147.524 772.548 Q145.279 772.177 142.871 771.436 L142.871 766.737 Q144.954 767.872 147.177 768.427 Q149.399 768.983 151.876 768.983 Q155.88 768.983 158.218 766.876 Q160.556 764.77 160.556 761.159 Q160.556 757.548 158.218 755.441 Q155.88 753.335 151.876 753.335 Q150.001 753.335 148.126 753.751 Q146.274 754.168 144.329 755.048 L144.329 737.687 Z" fill="#000000" fill-rule="nonzero" fill-opacity="1"></path><path clip-path="url(#clip780)" d="M184.445 740.765 Q180.834 740.765 179.005 744.33 Q177.2 747.872 177.2 755.001 Q177.2 762.108 179.005 765.673 Q180.834 769.214 184.445 769.214 Q188.079 769.214 189.885 765.673 Q191.713 762.108 191.713 755.001 Q191.713 747.872 189.885 744.33 Q188.079 740.765 184.445 740.765 M184.445 737.062 Q190.255 737.062 193.311 741.668 Q196.389 746.251 196.389 755.001 Q196.389 763.728 193.311 768.335 Q190.255 772.918 184.445 772.918 Q178.635 772.918 175.556 768.335 Q172.501 763.728 172.501 755.001 Q172.501 746.251 175.556 741.668 Q178.635 737.062 184.445 737.062 Z" fill="#000000" fill-rule="nonzero" fill-opacity="1"></path><path clip-path="url(#clip780)" d="M115.927 571.882 L123.566 571.882 L123.566 545.517 L115.256 547.183 L115.256 542.924 L123.519 541.257 L128.195 541.257 L128.195 571.882 L135.834 571.882 L135.834 575.817 L115.927 575.817 L115.927 571.882 Z" fill="#000000" fill-rule="nonzero" fill-opacity="1"></path><path clip-path="url(#clip780)" d="M145.325 541.257 L163.681 541.257 L163.681 545.192 L149.607 545.192 L149.607 553.665 Q150.626 553.317 151.644 553.155 Q152.663 552.97 153.681 552.97 Q159.468 552.97 162.848 556.142 Q166.227 559.313 166.227 564.729 Q166.227 570.308 162.755 573.41 Q159.283 576.489 152.964 576.489 Q150.788 576.489 148.519 576.118 Q146.274 575.748 143.866 575.007 L143.866 570.308 Q145.95 571.442 148.172 571.998 Q150.394 572.553 152.871 572.553 Q156.876 572.553 159.214 570.447 Q161.552 568.341 161.552 564.729 Q161.552 561.118 159.214 559.012 Q156.876 556.905 152.871 556.905 Q150.996 556.905 149.121 557.322 Q147.269 557.739 145.325 558.618 L145.325 541.257 Z" fill="#000000" fill-rule="nonzero" fill-opacity="1"></path><path clip-path="url(#clip780)" d="M175.487 541.257 L193.843 541.257 L193.843 545.192 L179.769 545.192 L179.769 553.665 Q180.788 553.317 181.806 553.155 Q182.825 552.97 183.843 552.97 Q189.63 552.97 193.01 556.142 Q196.389 559.313 196.389 564.729 Q196.389 570.308 192.917 573.41 Q189.445 576.489 183.126 576.489 Q180.95 576.489 178.681 576.118 Q176.436 575.748 174.028 575.007 L174.028 570.308 Q176.112 571.442 178.334 571.998 Q180.556 572.553 183.033 572.553 Q187.038 572.553 189.375 570.447 Q191.713 568.341 191.713 564.729 Q191.713 561.118 189.375 559.012 Q187.038 556.905 183.033 556.905 Q181.158 556.905 179.283 557.322 Q177.431 557.739 175.487 558.618 L175.487 541.257 Z" fill="#000000" fill-rule="nonzero" fill-opacity="1"></path><path clip-path="url(#clip780)" d="M114.931 375.453 L122.57 375.453 L122.57 349.087 L114.26 350.754 L114.26 346.495 L122.524 344.828 L127.2 344.828 L127.2 375.453 L134.839 375.453 L134.839 379.388 L114.931 379.388 L114.931 375.453 Z" fill="#000000" fill-rule="nonzero" fill-opacity="1"></path><path clip-path="url(#clip780)" d="M154.862 360.245 Q151.714 360.245 149.862 362.397 Q148.033 364.55 148.033 368.3 Q148.033 372.027 149.862 374.203 Q151.714 376.356 154.862 376.356 Q158.01 376.356 159.839 374.203 Q161.69 372.027 161.69 368.3 Q161.69 364.55 159.839 362.397 Q158.01 360.245 154.862 360.245 M164.144 345.592 L164.144 349.851 Q162.385 349.018 160.579 348.578 Q158.797 348.138 157.038 348.138 Q152.408 348.138 149.954 351.263 Q147.524 354.388 147.177 360.708 Q148.542 358.694 150.603 357.629 Q152.663 356.541 155.14 356.541 Q160.348 356.541 163.357 359.712 Q166.39 362.86 166.39 368.3 Q166.39 373.624 163.241 376.842 Q160.093 380.059 154.862 380.059 Q148.866 380.059 145.695 375.476 Q142.524 370.87 142.524 362.143 Q142.524 353.948 146.413 349.087 Q150.302 344.203 156.853 344.203 Q158.612 344.203 160.394 344.55 Q162.2 344.897 164.144 345.592 Z" fill="#000000" fill-rule="nonzero" fill-opacity="1"></path><path clip-path="url(#clip780)" d="M184.445 347.907 Q180.834 347.907 179.005 351.472 Q177.2 355.013 177.2 362.143 Q177.2 369.249 179.005 372.814 Q180.834 376.356 184.445 376.356 Q188.079 376.356 189.885 372.814 Q191.713 369.249 191.713 362.143 Q191.713 355.013 189.885 351.472 Q188.079 347.907 184.445 347.907 M184.445 344.203 Q190.255 344.203 193.311 348.809 Q196.389 353.393 196.389 362.143 Q196.389 370.87 193.311 375.476 Q190.255 380.059 184.445 380.059 Q178.635 380.059 175.556 375.476 Q172.501 370.87 172.501 362.143 Q172.501 353.393 175.556 348.809 Q178.635 344.203 184.445 344.203 Z" fill="#000000" fill-rule="nonzero" fill-opacity="1"></path><path clip-path="url(#clip780)" d="M115.927 179.024 L123.566 179.024 L123.566 152.658 L115.256 154.325 L115.256 150.065 L123.519 148.399 L128.195 148.399 L128.195 179.024 L135.834 179.024 L135.834 182.959 L115.927 182.959 L115.927 179.024 Z" fill="#000000" fill-rule="nonzero" fill-opacity="1"></path><path clip-path="url(#clip780)" d="M155.857 163.815 Q152.709 163.815 150.857 165.968 Q149.028 168.121 149.028 171.871 Q149.028 175.598 150.857 177.774 Q152.709 179.926 155.857 179.926 Q159.005 179.926 160.834 177.774 Q162.686 175.598 162.686 171.871 Q162.686 168.121 160.834 165.968 Q159.005 163.815 155.857 163.815 M165.14 149.163 L165.14 153.422 Q163.38 152.589 161.575 152.149 Q159.792 151.709 158.033 151.709 Q153.403 151.709 150.95 154.834 Q148.519 157.959 148.172 164.278 Q149.538 162.264 151.598 161.2 Q153.658 160.112 156.135 160.112 Q161.343 160.112 164.352 163.283 Q167.385 166.431 167.385 171.871 Q167.385 177.195 164.237 180.412 Q161.089 183.63 155.857 183.63 Q149.862 183.63 146.691 179.047 Q143.519 174.44 143.519 165.713 Q143.519 157.519 147.408 152.658 Q151.297 147.774 157.848 147.774 Q159.607 147.774 161.39 148.121 Q163.195 148.468 165.14 149.163 Z" fill="#000000" fill-rule="nonzero" fill-opacity="1"></path><path clip-path="url(#clip780)" d="M175.487 148.399 L193.843 148.399 L193.843 152.334 L179.769 152.334 L179.769 160.806 Q180.788 160.459 181.806 160.297 Q182.825 160.112 183.843 160.112 Q189.63 160.112 193.01 163.283 Q196.389 166.454 196.389 171.871 Q196.389 177.449 192.917 180.551 Q189.445 183.63 183.126 183.63 Q180.95 183.63 178.681 183.26 Q176.436 182.889 174.028 182.149 L174.028 177.449 Q176.112 178.584 178.334 179.139 Q180.556 179.695 183.033 179.695 Q187.038 179.695 189.375 177.588 Q191.713 175.482 191.713 171.871 Q191.713 168.26 189.375 166.153 Q187.038 164.047 183.033 164.047 Q181.158 164.047 179.283 164.463 Q177.431 164.88 175.487 165.76 L175.487 148.399 Z" fill="#000000" fill-rule="nonzero" fill-opacity="1"></path><path clip-path="url(#clip780)" d="M16.4842 941.381 L16.4842 934.888 L56.6518 924.894 L16.4842 914.932 L16.4842 907.707 L56.6518 897.713 L16.4842 887.75 L16.4842 881.225 L64.0042 893.161 L64.0042 901.246 L22.7544 911.271 L64.0042 921.393 L64.0042 929.477 L16.4842 941.381 Z" fill="#000000" fill-rule="nonzero" fill-opacity="1"></path><path clip-path="url(#clip780)" d="M32.4621 862.956 Q32.4621 867.666 36.1542 870.404 Q39.8145 873.141 46.212 873.141 Q52.6095 873.141 56.3017 870.435 Q59.9619 867.698 59.9619 862.956 Q59.9619 858.277 56.2698 855.54 Q52.5777 852.802 46.212 852.802 Q39.8781 852.802 36.186 855.54 Q32.4621 858.277 32.4621 862.956 M27.4968 862.956 Q27.4968 855.317 32.4621 850.956 Q37.4273 846.596 46.212 846.596 Q54.9649 846.596 59.9619 850.956 Q64.9272 855.317 64.9272 862.956 Q64.9272 870.626 59.9619 874.987 Q54.9649 879.316 46.212 879.316 Q37.4273 879.316 32.4621 874.987 Q27.4968 870.626 27.4968 862.956 Z" fill="#000000" fill-rule="nonzero" fill-opacity="1"></path><path clip-path="url(#clip780)" d="M33.8307 816.231 Q33.2578 817.218 33.0032 818.396 Q32.7167 819.542 32.7167 820.942 Q32.7167 825.907 35.9632 828.581 Q39.1779 831.223 45.2253 831.223 L64.0042 831.223 L64.0042 837.111 L28.3562 837.111 L28.3562 831.223 L33.8944 831.223 Q30.6479 829.377 29.0883 826.417 Q27.4968 823.457 27.4968 819.223 Q27.4968 818.619 27.5923 817.887 Q27.656 817.155 27.8151 816.263 L33.8307 816.231 Z" fill="#000000" fill-rule="nonzero" fill-opacity="1"></path><path clip-path="url(#clip780)" d="M14.479 810.311 L14.479 804.423 L43.7294 804.423 L28.3562 786.949 L28.3562 779.47 L45.0344 798.376 L64.0042 778.674 L64.0042 786.313 L46.5939 804.423 L64.0042 804.423 L64.0042 810.311 L14.479 810.311 Z" fill="#000000" fill-rule="nonzero" fill-opacity="1"></path><path clip-path="url(#clip780)" d="M16.4842 751.365 L16.4842 744.936 L64.0042 744.936 L64.0042 751.365 L16.4842 751.365 Z" fill="#000000" fill-rule="nonzero" fill-opacity="1"></path><path clip-path="url(#clip780)" d="M42.4881 702.763 L64.0042 702.763 L64.0042 708.619 L42.679 708.619 Q37.6183 708.619 35.1038 710.593 Q32.5894 712.566 32.5894 716.513 Q32.5894 721.255 35.6131 723.992 Q38.6368 726.73 43.8567 726.73 L64.0042 726.73 L64.0042 732.618 L28.3562 732.618 L28.3562 726.73 L33.8944 726.73 Q30.6797 724.629 29.0883 721.796 Q27.4968 718.932 27.4968 715.208 Q27.4968 709.065 31.3163 705.914 Q35.1038 702.763 42.4881 702.763 Z" fill="#000000" fill-rule="nonzero" fill-opacity="1"></path><path clip-path="url(#clip780)" d="M14.479 670.902 L14.479 657.407 L19.0304 657.407 L19.0304 665.046 L68.0464 665.046 L68.0464 657.407 L72.5979 657.407 L72.5979 670.902 L14.479 670.902 Z" fill="#000000" fill-rule="nonzero" fill-opacity="1"></path><path clip-path="url(#clip780)" d="M14.479 645.153 L14.479 639.265 L43.7294 639.265 L28.3562 621.791 L28.3562 614.311 L45.0344 633.217 L64.0042 613.516 L64.0042 621.154 L46.5939 639.265 L64.0042 639.265 L64.0042 645.153 L14.479 645.153 Z" fill="#000000" fill-rule="nonzero" fill-opacity="1"></path><path clip-path="url(#clip780)" d="M16.4842 611.16 L16.4842 604.667 L56.6518 594.673 L16.4842 584.711 L16.4842 577.486 L56.6518 567.492 L16.4842 557.529 L16.4842 551.004 L64.0042 562.94 L64.0042 571.024 L22.7544 581.05 L64.0042 591.172 L64.0042 599.256 L16.4842 611.16 Z" fill="#000000" fill-rule="nonzero" fill-opacity="1"></path><path clip-path="url(#clip780)" d="M14.479 529.043 L72.5979 529.043 L72.5979 542.538 L68.0464 542.538 L68.0464 534.931 L19.0304 534.931 L19.0304 542.538 L14.479 542.538 L14.479 529.043 Z" fill="#000000" fill-rule="nonzero" fill-opacity="1"></path><path clip-path="url(#clip783)" d="M276.4 1368.24 L276.4 1400.24 L308.4 1400.24 L308.4 1368.24 L276.4 1368.24 Z" fill="#009af9" fill-rule="evenodd" fill-opacity="1" stroke="#000000" stroke-opacity="1" stroke-width="3.2"></path>
<path clip-path="url(#clip783)" d="M293.794 1368 L293.794 1400 L325.794 1400 L325.794 1368 L293.794 1368 Z" fill="#009af9" fill-rule="evenodd" fill-opacity="1" stroke="#000000" stroke-opacity="1" stroke-width="3.2"></path>
<path clip-path="url(#clip783)" d="M311.188 1367.73 L311.188 1399.73 L343.188 1399.73 L343.188 1367.73 L311.188 1367.73 Z" fill="#009af9" fill-rule="evenodd" fill-opacity="1" stroke="#000000" stroke-opacity="1" stroke-width="3.2"></path>
<path clip-path="url(#clip783)" d="M328.583 1337.76 L328.583 1369.76 L360.583 1369.76 L360.583 1337.76 L328.583 1337.76 Z" fill="#009af9" fill-rule="evenodd" fill-opacity="1" stroke="#000000" stroke-opacity="1" stroke-width="3.2"></path>
<path clip-path="url(#clip783)" d="M345.977 1337.46 L345.977 1369.46 L377.977 1369.46 L377.977 1337.46 L345.977 1337.46 Z" fill="#009af9" fill-rule="evenodd" fill-opacity="1" stroke="#000000" stroke-opacity="1" stroke-width="3.2"></path>
<path clip-path="url(#clip783)" d="M363.371 1337.16 L363.371 1369.16 L395.371 1369.16 L395.371 1337.16 L363.371 1337.16 Z" fill="#009af9" fill-rule="evenodd" fill-opacity="1" stroke="#000000" stroke-opacity="1" stroke-width="3.2"></path>
<path clip-path="url(#clip783)" d="M380.766 1336.83 L380.766 1368.83 L412.766 1368.83 L412.766 1336.83 L380.766 1336.83 Z" fill="#009af9" fill-rule="evenodd" fill-opacity="1" stroke="#000000" stroke-opacity="1" stroke-width="3.2"></path>
<path clip-path="url(#clip783)" d="M398.16 1336.49 L398.16 1368.49 L430.16 1368.49 L430.16 1336.49 L398.16 1336.49 Z" fill="#009af9" fill-rule="evenodd" fill-opacity="1" stroke="#000000" stroke-opacity="1" stroke-width="3.2"></path>
<path clip-path="url(#clip783)" d="M415.554 1336.15 L415.554 1368.15 L447.554 1368.15 L447.554 1336.15 L415.554 1336.15 Z" fill="#009af9" fill-rule="evenodd" fill-opacity="1" stroke="#000000" stroke-opacity="1" stroke-width="3.2"></path>
<path clip-path="url(#clip783)" d="M432.949 1335.8 L432.949 1367.8 L464.949 1367.8 L464.949 1335.8 L432.949 1335.8 Z" fill="#009af9" fill-rule="evenodd" fill-opacity="1" stroke="#000000" stroke-opacity="1" stroke-width="3.2"></path>
<path clip-path="url(#clip783)" d="M450.343 1335.42 L450.343 1367.42 L482.343 1367.42 L482.343 1335.42 L450.343 1335.42 Z" fill="#009af9" fill-rule="evenodd" fill-opacity="1" stroke="#000000" stroke-opacity="1" stroke-width="3.2"></path>
<path clip-path="url(#clip783)" d="M467.737 1335.03 L467.737 1367.03 L499.737 1367.03 L499.737 1335.03 L467.737 1335.03 Z" fill="#009af9" fill-rule="evenodd" fill-opacity="1" stroke="#000000" stroke-opacity="1" stroke-width="3.2"></path>
<path clip-path="url(#clip783)" d="M485.131 1301.49 L485.131 1333.49 L517.131 1333.49 L517.131 1301.49 L485.131 1301.49 Z" fill="#009af9" fill-rule="evenodd" fill-opacity="1" stroke="#000000" stroke-opacity="1" stroke-width="3.2"></path>
<path clip-path="url(#clip783)" d="M502.526 1301.07 L502.526 1333.07 L534.526 1333.07 L534.526 1301.07 L502.526 1301.07 Z" fill="#009af9" fill-rule="evenodd" fill-opacity="1" stroke="#000000" stroke-opacity="1" stroke-width="3.2"></path>
<path clip-path="url(#clip783)" d="M519.92 1300.65 L519.92 1332.65 L551.92 1332.65 L551.92 1300.65 L519.92 1300.65 Z" fill="#009af9" fill-rule="evenodd" fill-opacity="1" stroke="#000000" stroke-opacity="1" stroke-width="3.2"></path>
<path clip-path="url(#clip783)" d="M537.314 1300.22 L537.314 1332.22 L569.314 1332.22 L569.314 1300.22 L537.314 1300.22 Z" fill="#009af9" fill-rule="evenodd" fill-opacity="1" stroke="#000000" stroke-opacity="1" stroke-width="3.2"></path>
<path clip-path="url(#clip783)" d="M554.709 1299.78 L554.709 1331.78 L586.709 1331.78 L586.709 1299.78 L554.709 1299.78 Z" fill="#009af9" fill-rule="evenodd" fill-opacity="1" stroke="#000000" stroke-opacity="1" stroke-width="3.2"></path>
<path clip-path="url(#clip783)" d="M572.103 1299.3 L572.103 1331.3 L604.103 1331.3 L604.103 1299.3 L572.103 1299.3 Z" fill="#009af9" fill-rule="evenodd" fill-opacity="1" stroke="#000000" stroke-opacity="1" stroke-width="3.2"></path>
<path clip-path="url(#clip783)" d="M589.497 1298.82 L589.497 1330.82 L621.497 1330.82 L621.497 1298.82 L589.497 1298.82 Z" fill="#009af9" fill-rule="evenodd" fill-opacity="1" stroke="#000000" stroke-opacity="1" stroke-width="3.2"></path>
<path clip-path="url(#clip783)" d="M606.892 1298.37 L606.892 1330.37 L638.892 1330.37 L638.892 1298.37 L606.892 1298.37 Z" fill="#009af9" fill-rule="evenodd" fill-opacity="1" stroke="#000000" stroke-opacity="1" stroke-width="3.2"></path>
<path clip-path="url(#clip783)" d="M624.286 1307.6 L624.286 1339.6 L656.286 1339.6 L656.286 1307.6 L624.286 1307.6 Z" fill="#009af9" fill-rule="evenodd" fill-opacity="1" stroke="#000000" stroke-opacity="1" stroke-width="3.2"></path>
<path clip-path="url(#clip783)" d="M641.68 1307.09 L641.68 1339.09 L673.68 1339.09 L673.68 1307.09 L641.68 1307.09 Z" fill="#009af9" fill-rule="evenodd" fill-opacity="1" stroke="#000000" stroke-opacity="1" stroke-width="3.2"></path>
<path clip-path="url(#clip783)" d="M659.075 1306.59 L659.075 1338.59 L691.075 1338.59 L691.075 1306.59 L659.075 1306.59 Z" fill="#009af9" fill-rule="evenodd" fill-opacity="1" stroke="#000000" stroke-opacity="1" stroke-width="3.2"></path>
<path clip-path="url(#clip783)" d="M676.469 1306.07 L676.469 1338.07 L708.469 1338.07 L708.469 1306.07 L676.469 1306.07 Z" fill="#009af9" fill-rule="evenodd" fill-opacity="1" stroke="#000000" stroke-opacity="1" stroke-width="3.2"></path>
<path clip-path="url(#clip783)" d="M693.863 1305.5 L693.863 1337.5 L725.863 1337.5 L725.863 1305.5 L693.863 1305.5 Z" fill="#009af9" fill-rule="evenodd" fill-opacity="1" stroke="#000000" stroke-opacity="1" stroke-width="3.2"></path>
<path clip-path="url(#clip783)" d="M711.258 1304.97 L711.258 1336.97 L743.258 1336.97 L743.258 1304.97 L711.258 1304.97 Z" fill="#009af9" fill-rule="evenodd" fill-opacity="1" stroke="#000000" stroke-opacity="1" stroke-width="3.2"></path>
<path clip-path="url(#clip783)" d="M728.652 1271.25 L728.652 1303.25 L760.652 1303.25 L760.652 1271.25 L728.652 1271.25 Z" fill="#009af9" fill-rule="evenodd" fill-opacity="1" stroke="#000000" stroke-opacity="1" stroke-width="3.2"></path>
<path clip-path="url(#clip783)" d="M746.046 1270.65 L746.046 1302.65 L778.046 1302.65 L778.046 1270.65 L746.046 1270.65 Z" fill="#009af9" fill-rule="evenodd" fill-opacity="1" stroke="#000000" stroke-opacity="1" stroke-width="3.2"></path>
<path clip-path="url(#clip783)" d="M763.44 1270.03 L763.44 1302.03 L795.44 1302.03 L795.44 1270.03 L763.44 1270.03 Z" fill="#009af9" fill-rule="evenodd" fill-opacity="1" stroke="#000000" stroke-opacity="1" stroke-width="3.2"></path>
<path clip-path="url(#clip783)" d="M780.835 1269.45 L780.835 1301.45 L812.835 1301.45 L812.835 1269.45 L780.835 1269.45 Z" fill="#009af9" fill-rule="evenodd" fill-opacity="1" stroke="#000000" stroke-opacity="1" stroke-width="3.2"></path>
<path clip-path="url(#clip783)" d="M798.229 1268.81 L798.229 1300.81 L830.229 1300.81 L830.229 1268.81 L798.229 1268.81 Z" fill="#009af9" fill-rule="evenodd" fill-opacity="1" stroke="#000000" stroke-opacity="1" stroke-width="3.2"></path>
<path clip-path="url(#clip783)" d="M815.623 1238.56 L815.623 1270.56 L847.623 1270.56 L847.623 1238.56 L815.623 1238.56 Z" fill="#009af9" fill-rule="evenodd" fill-opacity="1" stroke="#000000" stroke-opacity="1" stroke-width="3.2"></path>
<path clip-path="url(#clip783)" d="M833.018 1237.92 L833.018 1269.92 L865.018 1269.92 L865.018 1237.92 L833.018 1237.92 Z" fill="#009af9" fill-rule="evenodd" fill-opacity="1" stroke="#000000" stroke-opacity="1" stroke-width="3.2"></path>
<path clip-path="url(#clip783)" d="M850.412 1237.23 L850.412 1269.23 L882.412 1269.23 L882.412 1237.23 L850.412 1237.23 Z" fill="#009af9" fill-rule="evenodd" fill-opacity="1" stroke="#000000" stroke-opacity="1" stroke-width="3.2"></path>
<path clip-path="url(#clip783)" d="M867.806 1236.55 L867.806 1268.55 L899.806 1268.55 L899.806 1236.55 L867.806 1236.55 Z" fill="#009af9" fill-rule="evenodd" fill-opacity="1" stroke="#000000" stroke-opacity="1" stroke-width="3.2"></path>
<path clip-path="url(#clip783)" d="M885.201 1235.8 L885.201 1267.8 L917.201 1267.8 L917.201 1235.8 L885.201 1235.8 Z" fill="#009af9" fill-rule="evenodd" fill-opacity="1" stroke="#000000" stroke-opacity="1" stroke-width="3.2"></path>
<path clip-path="url(#clip783)" d="M902.595 1244.96 L902.595 1276.96 L934.595 1276.96 L934.595 1244.96 L902.595 1244.96 Z" fill="#009af9" fill-rule="evenodd" fill-opacity="1" stroke="#000000" stroke-opacity="1" stroke-width="3.2"></path>
<path clip-path="url(#clip783)" d="M919.989 1244.21 L919.989 1276.21 L951.989 1276.21 L951.989 1244.21 L919.989 1244.21 Z" fill="#009af9" fill-rule="evenodd" fill-opacity="1" stroke="#000000" stroke-opacity="1" stroke-width="3.2"></path>
<path clip-path="url(#clip783)" d="M937.384 1243.44 L937.384 1275.44 L969.384 1275.44 L969.384 1243.44 L937.384 1243.44 Z" fill="#009af9" fill-rule="evenodd" fill-opacity="1" stroke="#000000" stroke-opacity="1" stroke-width="3.2"></path>
<path clip-path="url(#clip783)" d="M954.778 1242.74 L954.778 1274.74 L986.778 1274.74 L986.778 1242.74 L954.778 1242.74 Z" fill="#009af9" fill-rule="evenodd" fill-opacity="1" stroke="#000000" stroke-opacity="1" stroke-width="3.2"></path>
<path clip-path="url(#clip783)" d="M972.172 1210.31 L972.172 1242.31 L1004.17 1242.31 L1004.17 1210.31 L972.172 1210.31 Z" fill="#009af9" fill-rule="evenodd" fill-opacity="1" stroke="#000000" stroke-opacity="1" stroke-width="3.2"></path>
<path clip-path="url(#clip783)" d="M989.566 1209.53 L989.566 1241.53 L1021.57 1241.53 L1021.57 1209.53 L989.566 1209.53 Z" fill="#009af9" fill-rule="evenodd" fill-opacity="1" stroke="#000000" stroke-opacity="1" stroke-width="3.2"></path>
<path clip-path="url(#clip783)" d="M1006.96 1208.74 L1006.96 1240.74 L1038.96 1240.74 L1038.96 1208.74 L1006.96 1208.74 Z" fill="#009af9" fill-rule="evenodd" fill-opacity="1" stroke="#000000" stroke-opacity="1" stroke-width="3.2"></path>
<path clip-path="url(#clip783)" d="M1024.36 1207.96 L1024.36 1239.96 L1056.36 1239.96 L1056.36 1207.96 L1024.36 1207.96 Z" fill="#009af9" fill-rule="evenodd" fill-opacity="1" stroke="#000000" stroke-opacity="1" stroke-width="3.2"></path>
<path clip-path="url(#clip783)" d="M1041.75 1216.83 L1041.75 1248.83 L1073.75 1248.83 L1073.75 1216.83 L1041.75 1216.83 Z" fill="#009af9" fill-rule="evenodd" fill-opacity="1" stroke="#000000" stroke-opacity="1" stroke-width="3.2"></path>
<path clip-path="url(#clip783)" d="M1059.14 1215.99 L1059.14 1247.99 L1091.14 1247.99 L1091.14 1215.99 L1059.14 1215.99 Z" fill="#009af9" fill-rule="evenodd" fill-opacity="1" stroke="#000000" stroke-opacity="1" stroke-width="3.2"></path>
<path clip-path="url(#clip783)" d="M1076.54 1229.84 L1076.54 1261.84 L1108.54 1261.84 L1108.54 1229.84 L1076.54 1229.84 Z" fill="#009af9" fill-rule="evenodd" fill-opacity="1" stroke="#000000" stroke-opacity="1" stroke-width="3.2"></path>
<path clip-path="url(#clip783)" d="M1093.93 1229.01 L1093.93 1261.01 L1125.93 1261.01 L1125.93 1229.01 L1093.93 1229.01 Z" fill="#009af9" fill-rule="evenodd" fill-opacity="1" stroke="#000000" stroke-opacity="1" stroke-width="3.2"></path>
<path clip-path="url(#clip783)" d="M1111.33 1227.96 L1111.33 1259.96 L1143.33 1259.96 L1143.33 1227.96 L1111.33 1227.96 Z" fill="#009af9" fill-rule="evenodd" fill-opacity="1" stroke="#000000" stroke-opacity="1" stroke-width="3.2"></path>
<path clip-path="url(#clip783)" d="M1128.72 1227.09 L1128.72 1259.09 L1160.72 1259.09 L1160.72 1227.09 L1128.72 1227.09 Z" fill="#009af9" fill-rule="evenodd" fill-opacity="1" stroke="#000000" stroke-opacity="1" stroke-width="3.2"></path>
<path clip-path="url(#clip783)" d="M1146.12 1193.11 L1146.12 1225.11 L1178.12 1225.11 L1178.12 1193.11 L1146.12 1193.11 Z" fill="#009af9" fill-rule="evenodd" fill-opacity="1" stroke="#000000" stroke-opacity="1" stroke-width="3.2"></path>
<path clip-path="url(#clip783)" d="M1163.51 1192.18 L1163.51 1224.18 L1195.51 1224.18 L1195.51 1192.18 L1163.51 1192.18 Z" fill="#009af9" fill-rule="evenodd" fill-opacity="1" stroke="#000000" stroke-opacity="1" stroke-width="3.2"></path>
<path clip-path="url(#clip783)" d="M1180.9 1158.77 L1180.9 1190.77 L1212.9 1190.77 L1212.9 1158.77 L1180.9 1158.77 Z" fill="#009af9" fill-rule="evenodd" fill-opacity="1" stroke="#000000" stroke-opacity="1" stroke-width="3.2"></path>
<path clip-path="url(#clip783)" d="M1198.3 1157.78 L1198.3 1189.78 L1230.3 1189.78 L1230.3 1157.78 L1198.3 1157.78 Z" fill="#009af9" fill-rule="evenodd" fill-opacity="1" stroke="#000000" stroke-opacity="1" stroke-width="3.2"></path>
<path clip-path="url(#clip783)" d="M1215.69 1156.76 L1215.69 1188.76 L1247.69 1188.76 L1247.69 1156.76 L1215.69 1156.76 Z" fill="#009af9" fill-rule="evenodd" fill-opacity="1" stroke="#000000" stroke-opacity="1" stroke-width="3.2"></path>
<path clip-path="url(#clip783)" d="M1233.09 1165.52 L1233.09 1197.52 L1265.09 1197.52 L1265.09 1165.52 L1233.09 1165.52 Z" fill="#009af9" fill-rule="evenodd" fill-opacity="1" stroke="#000000" stroke-opacity="1" stroke-width="3.2"></path>
<path clip-path="url(#clip783)" d="M1250.48 1164.46 L1250.48 1196.46 L1282.48 1196.46 L1282.48 1164.46 L1250.48 1164.46 Z" fill="#009af9" fill-rule="evenodd" fill-opacity="1" stroke="#000000" stroke-opacity="1" stroke-width="3.2"></path>
<path clip-path="url(#clip783)" d="M1267.88 1163.24 L1267.88 1195.24 L1299.88 1195.24 L1299.88 1163.24 L1267.88 1163.24 Z" fill="#009af9" fill-rule="evenodd" fill-opacity="1" stroke="#000000" stroke-opacity="1" stroke-width="3.2"></path>
<path clip-path="url(#clip783)" d="M1285.27 1130.8 L1285.27 1162.8 L1317.27 1162.8 L1317.27 1130.8 L1285.27 1130.8 Z" fill="#009af9" fill-rule="evenodd" fill-opacity="1" stroke="#000000" stroke-opacity="1" stroke-width="3.2"></path>
<path clip-path="url(#clip783)" d="M1302.66 1129.59 L1302.66 1161.59 L1334.66 1161.59 L1334.66 1129.59 L1302.66 1129.59 Z" fill="#009af9" fill-rule="evenodd" fill-opacity="1" stroke="#000000" stroke-opacity="1" stroke-width="3.2"></path>
<path clip-path="url(#clip783)" d="M1320.06 1128.46 L1320.06 1160.46 L1352.06 1160.46 L1352.06 1128.46 L1320.06 1128.46 Z" fill="#009af9" fill-rule="evenodd" fill-opacity="1" stroke="#000000" stroke-opacity="1" stroke-width="3.2"></path>
<path clip-path="url(#clip783)" d="M1337.45 1136.88 L1337.45 1168.88 L1369.45 1168.88 L1369.45 1136.88 L1337.45 1136.88 Z" fill="#009af9" fill-rule="evenodd" fill-opacity="1" stroke="#000000" stroke-opacity="1" stroke-width="3.2"></path>
<path clip-path="url(#clip783)" d="M1354.85 1135.69 L1354.85 1167.69 L1386.85 1167.69 L1386.85 1135.69 L1354.85 1135.69 Z" fill="#009af9" fill-rule="evenodd" fill-opacity="1" stroke="#000000" stroke-opacity="1" stroke-width="3.2"></path>
<path clip-path="url(#clip783)" d="M1372.24 1134.45 L1372.24 1166.45 L1404.24 1166.45 L1404.24 1134.45 L1372.24 1134.45 Z" fill="#009af9" fill-rule="evenodd" fill-opacity="1" stroke="#000000" stroke-opacity="1" stroke-width="3.2"></path>
<path clip-path="url(#clip783)" d="M1389.64 1100.31 L1389.64 1132.31 L1421.64 1132.31 L1421.64 1100.31 L1389.64 1100.31 Z" fill="#009af9" fill-rule="evenodd" fill-opacity="1" stroke="#000000" stroke-opacity="1" stroke-width="3.2"></path>
<path clip-path="url(#clip783)" d="M1407.03 1098.97 L1407.03 1130.97 L1439.03 1130.97 L1439.03 1098.97 L1407.03 1098.97 Z" fill="#009af9" fill-rule="evenodd" fill-opacity="1" stroke="#000000" stroke-opacity="1" stroke-width="3.2"></path>
<path clip-path="url(#clip783)" d="M1424.42 1066.05 L1424.42 1098.05 L1456.42 1098.05 L1456.42 1066.05 L1424.42 1066.05 Z" fill="#009af9" fill-rule="evenodd" fill-opacity="1" stroke="#000000" stroke-opacity="1" stroke-width="3.2"></path>
<path clip-path="url(#clip783)" d="M1441.82 1064.73 L1441.82 1096.73 L1473.82 1096.73 L1473.82 1064.73 L1441.82 1064.73 Z" fill="#009af9" fill-rule="evenodd" fill-opacity="1" stroke="#000000" stroke-opacity="1" stroke-width="3.2"></path>
<path clip-path="url(#clip783)" d="M1459.21 1073.25 L1459.21 1105.25 L1491.21 1105.25 L1491.21 1073.25 L1459.21 1073.25 Z" fill="#009af9" fill-rule="evenodd" fill-opacity="1" stroke="#000000" stroke-opacity="1" stroke-width="3.2"></path>
<path clip-path="url(#clip783)" d="M1476.61 1071.74 L1476.61 1103.74 L1508.61 1103.74 L1508.61 1071.74 L1476.61 1071.74 Z" fill="#009af9" fill-rule="evenodd" fill-opacity="1" stroke="#000000" stroke-opacity="1" stroke-width="3.2"></path>
<path clip-path="url(#clip783)" d="M1494 1085.14 L1494 1117.14 L1526 1117.14 L1526 1085.14 L1494 1085.14 Z" fill="#009af9" fill-rule="evenodd" fill-opacity="1" stroke="#000000" stroke-opacity="1" stroke-width="3.2"></path>
<path clip-path="url(#clip783)" d="M1511.4 1083.64 L1511.4 1115.64 L1543.4 1115.64 L1543.4 1083.64 L1511.4 1083.64 Z" fill="#009af9" fill-rule="evenodd" fill-opacity="1" stroke="#000000" stroke-opacity="1" stroke-width="3.2"></path>
<path clip-path="url(#clip783)" d="M1528.79 1050.93 L1528.79 1082.93 L1560.79 1082.93 L1560.79 1050.93 L1528.79 1050.93 Z" fill="#009af9" fill-rule="evenodd" fill-opacity="1" stroke="#000000" stroke-opacity="1" stroke-width="3.2"></path>
<path clip-path="url(#clip783)" d="M1546.18 1049.24 L1546.18 1081.24 L1578.18 1081.24 L1578.18 1049.24 L1546.18 1049.24 Z" fill="#009af9" fill-rule="evenodd" fill-opacity="1" stroke="#000000" stroke-opacity="1" stroke-width="3.2"></path>
<path clip-path="url(#clip783)" d="M1563.58 1016.31 L1563.58 1048.31 L1595.58 1048.31 L1595.58 1016.31 L1563.58 1016.31 Z" fill="#009af9" fill-rule="evenodd" fill-opacity="1" stroke="#000000" stroke-opacity="1" stroke-width="3.2"></path>
<path clip-path="url(#clip783)" d="M1580.97 1023.55 L1580.97 1055.55 L1612.97 1055.55 L1612.97 1023.55 L1580.97 1023.55 Z" fill="#009af9" fill-rule="evenodd" fill-opacity="1" stroke="#000000" stroke-opacity="1" stroke-width="3.2"></path>
<path clip-path="url(#clip783)" d="M1598.37 1021.83 L1598.37 1053.83 L1630.37 1053.83 L1630.37 1021.83 L1598.37 1021.83 Z" fill="#009af9" fill-rule="evenodd" fill-opacity="1" stroke="#000000" stroke-opacity="1" stroke-width="3.2"></path>
<path clip-path="url(#clip783)" d="M1615.76 986.943 L1615.76 1018.94 L1647.76 1018.94 L1647.76 986.943 L1615.76 986.943 Z" fill="#009af9" fill-rule="evenodd" fill-opacity="1" stroke="#000000" stroke-opacity="1" stroke-width="3.2"></path>
<path clip-path="url(#clip783)" d="M1633.16 984.938 L1633.16 1016.94 L1665.16 1016.94 L1665.16 984.938 L1633.16 984.938 Z" fill="#009af9" fill-rule="evenodd" fill-opacity="1" stroke="#000000" stroke-opacity="1" stroke-width="3.2"></path>
<path clip-path="url(#clip783)" d="M1650.55 992.931 L1650.55 1024.93 L1682.55 1024.93 L1682.55 992.931 L1650.55 992.931 Z" fill="#009af9" fill-rule="evenodd" fill-opacity="1" stroke="#000000" stroke-opacity="1" stroke-width="3.2"></path>
<path clip-path="url(#clip783)" d="M1667.94 991.005 L1667.94 1023.01 L1699.94 1023.01 L1699.94 991.005 L1667.94 991.005 Z" fill="#009af9" fill-rule="evenodd" fill-opacity="1" stroke="#000000" stroke-opacity="1" stroke-width="3.2"></path>
<path clip-path="url(#clip783)" d="M1685.34 957.957 L1685.34 989.957 L1717.34 989.957 L1717.34 957.957 L1685.34 957.957 Z" fill="#009af9" fill-rule="evenodd" fill-opacity="1" stroke="#000000" stroke-opacity="1" stroke-width="3.2"></path>
<path clip-path="url(#clip783)" d="M1702.73 955.892 L1702.73 987.892 L1734.73 987.892 L1734.73 955.892 L1702.73 955.892 Z" fill="#009af9" fill-rule="evenodd" fill-opacity="1" stroke="#000000" stroke-opacity="1" stroke-width="3.2"></path>
<path clip-path="url(#clip783)" d="M1720.13 923.98 L1720.13 955.98 L1752.13 955.98 L1752.13 923.98 L1720.13 923.98 Z" fill="#009af9" fill-rule="evenodd" fill-opacity="1" stroke="#000000" stroke-opacity="1" stroke-width="3.2"></path>
<path clip-path="url(#clip783)" d="M1737.52 929.949 L1737.52 961.949 L1769.52 961.949 L1769.52 929.949 L1737.52 929.949 Z" fill="#009af9" fill-rule="evenodd" fill-opacity="1" stroke="#000000" stroke-opacity="1" stroke-width="3.2"></path>
<path clip-path="url(#clip783)" d="M1754.92 942.952 L1754.92 974.952 L1786.92 974.952 L1786.92 942.952 L1754.92 942.952 Z" fill="#009af9" fill-rule="evenodd" fill-opacity="1" stroke="#000000" stroke-opacity="1" stroke-width="3.2"></path>
<path clip-path="url(#clip783)" d="M1772.31 940.751 L1772.31 972.751 L1804.31 972.751 L1804.31 940.751 L1772.31 940.751 Z" fill="#009af9" fill-rule="evenodd" fill-opacity="1" stroke="#000000" stroke-opacity="1" stroke-width="3.2"></path>
<path clip-path="url(#clip783)" d="M1789.7 874.927 L1789.7 906.927 L1821.7 906.927 L1821.7 874.927 L1789.7 874.927 Z" fill="#009af9" fill-rule="evenodd" fill-opacity="1" stroke="#000000" stroke-opacity="1" stroke-width="3.2"></path>
<path clip-path="url(#clip783)" d="M1807.1 872.596 L1807.1 904.596 L1839.1 904.596 L1839.1 872.596 L1807.1 872.596 Z" fill="#009af9" fill-rule="evenodd" fill-opacity="1" stroke="#000000" stroke-opacity="1" stroke-width="3.2"></path>
<path clip-path="url(#clip783)" d="M1824.49 878.149 L1824.49 910.149 L1856.49 910.149 L1856.49 878.149 L1824.49 878.149 Z" fill="#009af9" fill-rule="evenodd" fill-opacity="1" stroke="#000000" stroke-opacity="1" stroke-width="3.2"></path>
<path clip-path="url(#clip783)" d="M1841.89 844.585 L1841.89 876.585 L1873.89 876.585 L1873.89 844.585 L1841.89 844.585 Z" fill="#009af9" fill-rule="evenodd" fill-opacity="1" stroke="#000000" stroke-opacity="1" stroke-width="3.2"></path>
<path clip-path="url(#clip783)" d="M1859.28 841.593 L1859.28 873.593 L1891.28 873.593 L1891.28 841.593 L1859.28 841.593 Z" fill="#009af9" fill-rule="evenodd" fill-opacity="1" stroke="#000000" stroke-opacity="1" stroke-width="3.2"></path>
<path clip-path="url(#clip783)" d="M1876.68 848.47 L1876.68 880.47 L1908.68 880.47 L1908.68 848.47 L1876.68 848.47 Z" fill="#009af9" fill-rule="evenodd" fill-opacity="1" stroke="#000000" stroke-opacity="1" stroke-width="3.2"></path>
<path clip-path="url(#clip783)" d="M1894.07 814.228 L1894.07 846.228 L1926.07 846.228 L1926.07 814.228 L1894.07 814.228 Z" fill="#009af9" fill-rule="evenodd" fill-opacity="1" stroke="#000000" stroke-opacity="1" stroke-width="3.2"></path>
<path clip-path="url(#clip783)" d="M1911.46 780.191 L1911.46 812.191 L1943.46 812.191 L1943.46 780.191 L1911.46 780.191 Z" fill="#009af9" fill-rule="evenodd" fill-opacity="1" stroke="#000000" stroke-opacity="1" stroke-width="3.2"></path>
<path clip-path="url(#clip783)" d="M1928.86 799.799 L1928.86 831.799 L1960.86 831.799 L1960.86 799.799 L1928.86 799.799 Z" fill="#009af9" fill-rule="evenodd" fill-opacity="1" stroke="#000000" stroke-opacity="1" stroke-width="3.2"></path>
<path clip-path="url(#clip783)" d="M1946.25 766.714 L1946.25 798.714 L1978.25 798.714 L1978.25 766.714 L1946.25 766.714 Z" fill="#009af9" fill-rule="evenodd" fill-opacity="1" stroke="#000000" stroke-opacity="1" stroke-width="3.2"></path>
<path clip-path="url(#clip783)" d="M1963.65 730.431 L1963.65 762.431 L1995.65 762.431 L1995.65 730.431 L1963.65 730.431 Z" fill="#009af9" fill-rule="evenodd" fill-opacity="1" stroke="#000000" stroke-opacity="1" stroke-width="3.2"></path>
<path clip-path="url(#clip783)" d="M1981.04 736.98 L1981.04 768.98 L2013.04 768.98 L2013.04 736.98 L1981.04 736.98 Z" fill="#009af9" fill-rule="evenodd" fill-opacity="1" stroke="#000000" stroke-opacity="1" stroke-width="3.2"></path>
<path clip-path="url(#clip783)" d="M1998.44 701.899 L1998.44 733.899 L2030.44 733.899 L2030.44 701.899 L1998.44 701.899 Z" fill="#009af9" fill-rule="evenodd" fill-opacity="1" stroke="#000000" stroke-opacity="1" stroke-width="3.2"></path>
<path clip-path="url(#clip783)" d="M2015.83 704.577 L2015.83 736.577 L2047.83 736.577 L2047.83 704.577 L2015.83 704.577 Z" fill="#009af9" fill-rule="evenodd" fill-opacity="1" stroke="#000000" stroke-opacity="1" stroke-width="3.2"></path>
<path clip-path="url(#clip783)" d="M2033.23 669.757 L2033.23 701.757 L2065.23 701.757 L2065.23 669.757 L2033.23 669.757 Z" fill="#009af9" fill-rule="evenodd" fill-opacity="1" stroke="#000000" stroke-opacity="1" stroke-width="3.2"></path>
<path clip-path="url(#clip783)" d="M2050.62 633.892 L2050.62 665.892 L2082.62 665.892 L2082.62 633.892 L2050.62 633.892 Z" fill="#009af9" fill-rule="evenodd" fill-opacity="1" stroke="#000000" stroke-opacity="1" stroke-width="3.2"></path>
<path clip-path="url(#clip783)" d="M2068.01 653.499 L2068.01 685.499 L2100.01 685.499 L2100.01 653.499 L2068.01 653.499 Z" fill="#009af9" fill-rule="evenodd" fill-opacity="1" stroke="#000000" stroke-opacity="1" stroke-width="3.2"></path>
<path clip-path="url(#clip783)" d="M2085.41 584.928 L2085.41 616.928 L2117.41 616.928 L2117.41 584.928 L2085.41 584.928 Z" fill="#009af9" fill-rule="evenodd" fill-opacity="1" stroke="#000000" stroke-opacity="1" stroke-width="3.2"></path>
<path clip-path="url(#clip783)" d="M2102.8 587.89 L2102.8 619.89 L2134.8 619.89 L2134.8 587.89 L2102.8 587.89 Z" fill="#009af9" fill-rule="evenodd" fill-opacity="1" stroke="#000000" stroke-opacity="1" stroke-width="3.2"></path>
<path clip-path="url(#clip783)" d="M2120.2 521.469 L2120.2 553.469 L2152.2 553.469 L2152.2 521.469 L2120.2 521.469 Z" fill="#009af9" fill-rule="evenodd" fill-opacity="1" stroke="#000000" stroke-opacity="1" stroke-width="3.2"></path>
<path clip-path="url(#clip783)" d="M2137.59 491.911 L2137.59 523.911 L2169.59 523.911 L2169.59 491.911 L2137.59 491.911 Z" fill="#009af9" fill-rule="evenodd" fill-opacity="1" stroke="#000000" stroke-opacity="1" stroke-width="3.2"></path>
<path clip-path="url(#clip783)" d="M2154.99 508.939 L2154.99 540.939 L2186.99 540.939 L2186.99 508.939 L2154.99 508.939 Z" fill="#009af9" fill-rule="evenodd" fill-opacity="1" stroke="#000000" stroke-opacity="1" stroke-width="3.2"></path>
<path clip-path="url(#clip783)" d="M2172.38 448.012 L2172.38 480.012 L2204.38 480.012 L2204.38 448.012 L2172.38 448.012 Z" fill="#009af9" fill-rule="evenodd" fill-opacity="1" stroke="#000000" stroke-opacity="1" stroke-width="3.2"></path>
<path clip-path="url(#clip783)" d="M2189.77 378.245 L2189.77 410.245 L2221.77 410.245 L2221.77 378.245 L2189.77 378.245 Z" fill="#009af9" fill-rule="evenodd" fill-opacity="1" stroke="#000000" stroke-opacity="1" stroke-width="3.2"></path>
<path clip-path="url(#clip783)" d="M2207.17 345.082 L2207.17 377.082 L2239.17 377.082 L2239.17 345.082 L2207.17 345.082 Z" fill="#009af9" fill-rule="evenodd" fill-opacity="1" stroke="#000000" stroke-opacity="1" stroke-width="3.2"></path>
<path clip-path="url(#clip783)" d="M2224.56 296.95 L2224.56 328.95 L2256.56 328.95 L2256.56 296.95 L2224.56 296.95 Z" fill="#009af9" fill-rule="evenodd" fill-opacity="1" stroke="#000000" stroke-opacity="1" stroke-width="3.2"></path>
<path clip-path="url(#clip783)" d="M2241.96 236.069 L2241.96 268.069 L2273.96 268.069 L2273.96 236.069 L2241.96 236.069 Z" fill="#009af9" fill-rule="evenodd" fill-opacity="1" stroke="#000000" stroke-opacity="1" stroke-width="3.2"></path>
<path clip-path="url(#clip783)" d="M2259.35 183.168 L2259.35 215.168 L2291.35 215.168 L2291.35 183.168 L2259.35 183.168 Z" fill="#009af9" fill-rule="evenodd" fill-opacity="1" stroke="#000000" stroke-opacity="1" stroke-width="3.2"></path>
<path clip-path="url(#clip783)" d="M2276.75 70.1857 L2276.75 102.186 L2308.75 102.186 L2308.75 70.1857 L2276.75 70.1857 Z" fill="#009af9" fill-rule="evenodd" fill-opacity="1" stroke="#000000" stroke-opacity="1" stroke-width="3.2"></path>
<path clip-path="url(#clip780)" d="M303.068 196.789 L608.753 196.789 L608.753 93.1086 L303.068 93.1086  Z" fill="#ffffff" fill-rule="evenodd" fill-opacity="1"></path>
<polyline clip-path="url(#clip780)" style="stroke:#000000; stroke-linecap:round; stroke-linejoin:round; stroke-width:4; stroke-opacity:1; fill:none" points="303.068,196.789 608.753,196.789 608.753,93.1086 303.068,93.1086 303.068,196.789 "></polyline>
<path clip-path="url(#clip780)" d="M371.707 119.349 L371.707 170.549 L422.907 170.549 L422.907 119.349 L371.707 119.349 Z" fill="#009af9" fill-rule="evenodd" fill-opacity="1" stroke="#000000" stroke-opacity="1" stroke-width="5.12"></path>
<path clip-path="url(#clip780)" d="M525.601 121.193 L522.58 133.419 Q522.369 134.192 522.229 134.286 Q522.112 134.38 521.737 134.38 Q521.011 134.38 521.011 133.888 Q521.011 133.841 521.081 133.232 Q521.151 132.599 521.151 131.452 Q521.151 127.212 519.09 124.706 Q517.052 122.2 513.422 122.2 Q510.283 122.2 507.121 123.793 Q503.983 125.385 501.734 127.985 Q500.048 129.953 498.806 132.435 Q497.588 134.918 497.003 137.19 Q496.441 139.462 496.183 141.172 Q495.925 142.882 495.925 144.123 Q495.925 145.927 496.3 147.449 Q496.698 148.972 497.401 150.049 Q498.104 151.103 498.994 151.923 Q499.907 152.719 500.961 153.188 Q502.039 153.656 503.116 153.89 Q504.193 154.101 505.318 154.101 Q509.838 154.101 514.148 150.588 Q517.568 147.707 518.996 142.999 Q519.113 142.531 519.605 142.531 Q520.191 142.531 520.191 142.999 Q520.191 143.093 520.074 143.561 Q519.957 144.006 519.605 144.92 Q519.254 145.81 518.715 146.817 Q518.177 147.824 517.169 149.089 Q516.162 150.354 514.921 151.454 Q512.813 153.281 510.143 154.429 Q507.473 155.577 504.545 155.577 Q500.891 155.577 497.94 153.961 Q494.988 152.345 493.255 149.323 Q491.545 146.302 491.545 142.437 Q491.545 138.361 493.419 134.356 Q495.293 130.351 498.268 127.376 Q501.242 124.402 505.177 122.551 Q509.112 120.701 513.047 120.701 Q514.546 120.701 515.881 121.099 Q517.216 121.497 518.013 121.989 Q518.832 122.481 519.559 123.207 Q520.285 123.91 520.519 124.238 Q520.776 124.566 521.011 124.964 L524.36 121.286 Q524.946 120.701 525.086 120.701 Q525.367 120.701 525.484 120.865 Q525.601 121.029 525.601 121.193 Z" fill="#000000" fill-rule="nonzero" fill-opacity="1"></path><path clip-path="url(#clip780)" d="M558.667 133.607 Q558.667 136.956 557.472 140.282 Q556.301 143.585 554.24 146.302 Q552.179 149.019 549.555 151.127 Q546.932 153.235 543.864 154.406 Q540.795 155.577 537.797 155.577 Q532.48 155.577 528.99 152.087 Q525.5 148.597 525.5 142.765 Q525.5 138.689 527.327 134.637 Q529.154 130.562 532.059 127.54 Q534.963 124.495 538.781 122.598 Q542.622 120.701 546.417 120.701 Q551.804 120.701 555.223 124.284 Q558.667 127.845 558.667 133.607 M554.38 131.733 Q554.38 129.156 553.654 127.212 Q552.928 125.245 551.71 124.121 Q550.516 122.996 549.087 122.458 Q547.681 121.895 546.136 121.895 Q543.137 121.895 539.929 123.839 Q536.72 125.783 534.331 129.391 Q533.042 131.358 532.105 133.724 Q531.169 136.066 530.747 138.151 Q530.325 140.212 530.138 141.664 Q529.974 143.116 529.974 144.123 Q529.974 148.808 532.223 151.572 Q534.471 154.335 538.078 154.335 Q540.912 154.335 543.676 152.672 Q546.44 150.986 548.337 148.574 Q550.024 146.489 551.265 143.983 Q552.53 141.477 553.162 139.181 Q553.795 136.886 554.076 135.035 Q554.38 133.185 554.38 131.733 Z" fill="#000000" fill-rule="nonzero" fill-opacity="1"></path><path clip-path="url(#clip780)" d="M563.448 168.859 Q563.448 168.252 563.498 168.072 Q563.563 167.891 563.826 167.613 L570.269 160.431 Q573.794 156.464 573.794 153.004 Q573.794 150.758 572.614 149.151 Q571.45 147.544 569.302 147.544 Q567.826 147.544 566.58 148.446 Q565.334 149.348 564.76 150.955 Q564.858 150.922 565.203 150.922 Q566.039 150.922 566.498 151.447 Q566.974 151.971 566.974 152.676 Q566.974 153.578 566.383 154.021 Q565.809 154.447 565.236 154.447 Q565.006 154.447 564.695 154.398 Q564.399 154.349 563.924 153.889 Q563.448 153.414 563.448 152.578 Q563.448 150.233 565.219 148.364 Q567.006 146.495 569.728 146.495 Q572.81 146.495 574.827 148.331 Q576.86 150.151 576.86 153.004 Q576.86 154.004 576.549 154.922 Q576.254 155.824 575.844 156.529 Q575.45 157.234 574.368 158.366 Q573.286 159.497 572.417 160.3 Q571.548 161.104 569.597 162.809 L566.039 166.268 L572.089 166.268 Q575.04 166.268 575.27 166.006 Q575.598 165.53 576.008 163.022 L576.86 163.022 L575.909 168.859 L563.448 168.859 Z" fill="#000000" fill-rule="nonzero" fill-opacity="1"></path></svg>